<svg xmlns="http://www.w3.org/2000/svg" xmlns:xlink="http://www.w3.org/1999/xlink" width="200" height="100" viewBox="0 0 200 100">
  <defs>
    <clipPath id="clip-path">
      <rect id="Rectangle_2095" data-name="Rectangle 2095" width="200" height="100" transform="translate(859 2021)" fill="#fff" stroke="#707070" stroke-width="1"/>
    </clipPath>
  </defs>
  <g id="Mask_Group_181" data-name="Mask Group 181" transform="translate(-859 -2021)" clip-path="url(#clip-path)">
    <g id="_03_fnac" data-name="03 fnac" transform="translate(902.273 2014.355)">
      <path id="Path_9907" data-name="Path 9907" d="M92.22,52.026a18.929,18.929,0,0,1-4.862-.81c-2.431-.81-6.483-3.4-6.321-8.428v-.648c0-4.862,3.89-7.455,6.321-8.266a18.929,18.929,0,0,1,4.862-.81c7.293-.486,10.535,1.945,11.831,4.214l2.755-16.856L20.421,6.645l-4.214,26.58h1.945c0-.81-.162-4.052,2.269-6.159,0,0,2.755-2.593,10.373-1.945,0,0,7.942.648,7.942,6.321H33.225S33.063,28.2,28.2,28.363c0,0-5.024-.162-4.538,4.7H38.736v2.593c.486-.648,1.621-1.783,4.538-2.593,0,0,12.318-2.755,13.614,6.159V51.7H51.378V41.329c-.81-5.673-6.969-4.538-6.969-4.538-4.214.324-5.511,2.755-5.673,4.538V51.7H33.225V36.953H23.663V51.7H18.152V36.953H15.559L6.645,93.031l86.386,13.614,8.914-56.726c-1.783,1.459-4.7,2.431-9.724,2.107Z" fill="#d99814" fill-rule="evenodd"/>
      <path id="Path_9908" data-name="Path 9908" d="M93.679,36.629s-6.807-.486-6.969,5.835v.162c.324,6.159,6.969,5.835,6.969,5.835,3.079,0,4.7-.972,5.511-2.755h3.566l.972-6.321H99.19c-.81-1.783-2.431-2.755-5.511-2.755Z" fill="#d99814" fill-rule="evenodd"/>
      <path id="Path_9909" data-name="Path 9909" d="M80.065,40.519l.162,11.021H74.716l-.162-2.107h0c-2.107,2.593-7.293,2.431-7.293,2.431-9.724.162-9.724-5.186-9.724-5.186-.81-5.673,6.321-5.511,12.318-5.835s4.538-2.593,4.538-2.593c-.324-1.945-4.538-2.107-4.538-2.107-6-.486-6,3.241-6,3.241H58.347s0-4.7,6-6c0,0,3.4-.972,9.562,0,0-.162,6.645.81,6.159,7.131Zm-5.511,2.593h0c-.648.81-3.728.81-3.728.81-2.917.162-7.293.162-7.293,2.755.162,2.755,3.728,2.431,5.348,2.431a6.312,6.312,0,0,0,4.862-2.269,4.129,4.129,0,0,0,.81-3.728Z" fill="#fff" fill-rule="evenodd"/>
    </g>
  </g>
</svg>
