<svg xmlns="http://www.w3.org/2000/svg" xmlns:xlink="http://www.w3.org/1999/xlink" width="100" height="100" viewBox="0 0 100 100"><defs><style>.a{fill:#fff;stroke:#707070;}.b{clip-path:url(#a);}.c{fill:#3d6e72;}.d{fill:#af650f;}</style><clipPath id="a"><rect class="a" width="100" height="100" transform="translate(208)"/></clipPath></defs><g class="b" transform="translate(-208)"><g transform="translate(204.97 -3.03)"><path class="c" d="M94.7,8.03h-10a5,5,0,1,0-10,0H31.364a5,5,0,0,0-10,0h-10A8.329,8.329,0,0,0,3.03,16.364V94.7a8.329,8.329,0,0,0,8.333,8.333H94.7A8.329,8.329,0,0,0,103.03,94.7V16.364A8.329,8.329,0,0,0,94.7,8.03Zm-20,4.788V14.7a5,5,0,1,0,10,0V12.818a5.9,5.9,0,0,1,1.667,4.061,6.688,6.688,0,0,1-13.333,0A5.9,5.9,0,0,1,74.7,12.818ZM78.03,8.03a1.667,1.667,0,1,1,3.333,0V14.7a1.667,1.667,0,1,1-3.333,0ZM21.364,12.818V14.7a5,5,0,1,0,10,0V12.818a5.9,5.9,0,0,1,1.667,4.061,6.436,6.436,0,0,1-6.667,6.152A6.436,6.436,0,0,1,19.7,16.879,5.9,5.9,0,0,1,21.364,12.818ZM24.7,8.03a1.667,1.667,0,0,1,3.333,0V14.7a1.667,1.667,0,1,1-3.333,0ZM11.364,11.364h6.894a9.164,9.164,0,0,0-1.894,5.515,9.758,9.758,0,0,0,10,9.485,9.758,9.758,0,0,0,10-9.485,9.2,9.2,0,0,0-1.894-5.515H71.576a9.164,9.164,0,0,0-1.894,5.515,10.013,10.013,0,0,0,20,0,9.2,9.2,0,0,0-1.894-5.515h6.894a5,5,0,0,1,5,5V29.7H6.364V16.364A5,5,0,0,1,11.364,11.364ZM94.7,99.7H11.364a5,5,0,0,1-5-5V33.03H99.7V94.7A5,5,0,0,1,94.7,99.7Z"/><path class="d" d="M23.03,38.03H16.364a3.324,3.324,0,0,0-3.333,3.333v5A3.324,3.324,0,0,0,16.364,49.7H23.03a3.324,3.324,0,0,0,3.333-3.333v-5A3.324,3.324,0,0,0,23.03,38.03Zm-6.667,8.333v-5H23.03v5Z"/><path class="d" d="M39.7,38.03H33.03A3.324,3.324,0,0,0,29.7,41.364v5A3.324,3.324,0,0,0,33.03,49.7H39.7a3.324,3.324,0,0,0,3.333-3.333v-5A3.324,3.324,0,0,0,39.7,38.03ZM33.03,46.364v-5H39.7v5Z"/><path class="d" d="M56.364,38.03H49.7a3.324,3.324,0,0,0-3.333,3.333v5A3.324,3.324,0,0,0,49.7,49.7h6.667A3.324,3.324,0,0,0,59.7,46.364v-5A3.324,3.324,0,0,0,56.364,38.03ZM49.7,46.364v-5h6.667v5Z"/><path class="d" d="M73.03,38.03H66.364a3.324,3.324,0,0,0-3.333,3.333v5A3.324,3.324,0,0,0,66.364,49.7H73.03a3.324,3.324,0,0,0,3.333-3.333v-5A3.324,3.324,0,0,0,73.03,38.03Zm-6.667,8.333v-5H73.03v5Z"/><path class="d" d="M89.7,38.03H83.03A3.324,3.324,0,0,0,79.7,41.364v5A3.324,3.324,0,0,0,83.03,49.7H89.7a3.324,3.324,0,0,0,3.333-3.333v-5A3.324,3.324,0,0,0,89.7,38.03ZM83.03,46.364v-5H89.7v5Z"/><path class="d" d="M23.03,53.03H16.364a3.324,3.324,0,0,0-3.333,3.333v5A3.324,3.324,0,0,0,16.364,64.7H23.03a3.324,3.324,0,0,0,3.333-3.333v-5A3.324,3.324,0,0,0,23.03,53.03Zm-6.667,8.333v-5H23.03v5Z"/><path class="d" d="M39.7,53.03H33.03A3.324,3.324,0,0,0,29.7,56.364v5A3.324,3.324,0,0,0,33.03,64.7H39.7a3.324,3.324,0,0,0,3.333-3.333v-5A3.324,3.324,0,0,0,39.7,53.03ZM33.03,61.364v-5H39.7v5Z"/><path class="d" d="M56.364,53.03H49.7a3.324,3.324,0,0,0-3.333,3.333v5A3.324,3.324,0,0,0,49.7,64.7h6.667A3.324,3.324,0,0,0,59.7,61.364v-5A3.324,3.324,0,0,0,56.364,53.03ZM49.7,61.364v-5h6.667v5Z"/><path class="d" d="M73.03,53.03H66.364a3.324,3.324,0,0,0-3.333,3.333v5A3.324,3.324,0,0,0,66.364,64.7H73.03a3.324,3.324,0,0,0,3.333-3.333v-5A3.324,3.324,0,0,0,73.03,53.03Zm-6.667,8.333v-5H73.03v5Z"/><path class="d" d="M89.7,53.03H83.03A3.324,3.324,0,0,0,79.7,56.364v5A3.324,3.324,0,0,0,83.03,64.7H89.7a3.324,3.324,0,0,0,3.333-3.333v-5A3.324,3.324,0,0,0,89.7,53.03ZM83.03,61.364v-5H89.7v5Z"/><path class="d" d="M23.03,68.03H16.364a3.324,3.324,0,0,0-3.333,3.333v5A3.324,3.324,0,0,0,16.364,79.7H23.03a3.324,3.324,0,0,0,3.333-3.333v-5A3.324,3.324,0,0,0,23.03,68.03Zm-6.667,8.333v-5H23.03v5Z"/><path class="d" d="M39.7,68.03H33.03A3.324,3.324,0,0,0,29.7,71.364v5A3.324,3.324,0,0,0,33.03,79.7H39.7a3.324,3.324,0,0,0,3.333-3.333v-5A3.324,3.324,0,0,0,39.7,68.03ZM33.03,76.364v-5H39.7v5Z"/><path class="c" d="M56.364,68.03H49.7a3.324,3.324,0,0,0-3.333,3.333v5A3.324,3.324,0,0,0,49.7,79.7h6.667A3.324,3.324,0,0,0,59.7,76.364v-5A3.324,3.324,0,0,0,56.364,68.03ZM49.7,76.364v-5h6.667v5Z"/><path class="c" d="M73.03,68.03H66.364a3.324,3.324,0,0,0-3.333,3.333v5A3.324,3.324,0,0,0,66.364,79.7H73.03a3.324,3.324,0,0,0,3.333-3.333v-5A3.324,3.324,0,0,0,73.03,68.03Zm-6.667,8.333v-5H73.03v5Z"/><path class="c" d="M89.7,68.03H83.03A3.324,3.324,0,0,0,79.7,71.364v5A3.324,3.324,0,0,0,83.03,79.7H89.7a3.324,3.324,0,0,0,3.333-3.333v-5A3.324,3.324,0,0,0,89.7,68.03ZM83.03,76.364v-5H89.7v5Z"/><path class="c" d="M23.03,83.03H16.364a3.324,3.324,0,0,0-3.333,3.333v5A3.324,3.324,0,0,0,16.364,94.7H23.03a3.324,3.324,0,0,0,3.333-3.333v-5A3.324,3.324,0,0,0,23.03,83.03Zm-6.667,8.333v-5H23.03v5Z"/><path class="c" d="M39.7,83.03H33.03A3.324,3.324,0,0,0,29.7,86.364v5A3.324,3.324,0,0,0,33.03,94.7H39.7a3.324,3.324,0,0,0,3.333-3.333v-5A3.324,3.324,0,0,0,39.7,83.03ZM33.03,91.364v-5H39.7v5Z"/><path class="c" d="M56.364,83.03H49.7a3.324,3.324,0,0,0-3.333,3.333v5A3.324,3.324,0,0,0,49.7,94.7h6.667A3.324,3.324,0,0,0,59.7,91.364v-5A3.324,3.324,0,0,0,56.364,83.03ZM49.7,91.364v-5h6.667v5Z"/><path class="c" d="M73.03,83.03H66.364a3.324,3.324,0,0,0-3.333,3.333v5A3.324,3.324,0,0,0,66.364,94.7H73.03a3.324,3.324,0,0,0,3.333-3.333v-5A3.324,3.324,0,0,0,73.03,83.03Zm-6.667,8.333v-5H73.03v5Z"/><path class="c" d="M89.7,83.03H83.03A3.324,3.324,0,0,0,79.7,86.364v5A3.324,3.324,0,0,0,83.03,94.7H89.7a3.324,3.324,0,0,0,3.333-3.333v-5A3.324,3.324,0,0,0,89.7,83.03ZM83.03,91.364v-5H89.7v5Z"/></g></g></svg>