<svg xmlns="http://www.w3.org/2000/svg" xmlns:xlink="http://www.w3.org/1999/xlink" width="60" height="60" viewBox="0 0 60 60">
  <defs>
    <clipPath id="clip-path">
      <rect id="Rectangle_2114" data-name="Rectangle 2114" width="60" height="60" transform="translate(-5585 -15300)" fill="#fff" stroke="#707070" stroke-width="1"/>
    </clipPath>
  </defs>
  <g id="Mask_Group_199" data-name="Mask Group 199" transform="translate(5585 15300)" clip-path="url(#clip-path)">
    <g id="_1034180" data-name="1034180" transform="translate(-5585.117 -15300)">
      <g id="Group_6976" data-name="Group 6976">
        <g id="Group_6975" data-name="Group 6975">
          <path id="Path_9987" data-name="Path 9987" d="M20.812,40.618c2.659,3.742,5.25,7.016,6.953,9.107.371.461.717.877,1.032,1.257l.509.616a1.1,1.1,0,0,0,1.632-.011l.5-.605c.315-.379.661-.8,1.027-1.251,1.709-2.092,4.3-5.367,6.958-9.107a91.869,91.869,0,0,0,6.916-11.142c2.036-4,3.064-7.238,3.064-9.626a19.306,19.306,0,0,0-5.662-13.6l-.016-.014-.01-.01a19.18,19.18,0,0,0-27.239-.043,19.267,19.267,0,0,0-5.643,13.663c0,2.388,1.031,5.628,3.065,9.628A91.845,91.845,0,0,0,20.812,40.618Zm1.729-29.443a10.645,10.645,0,0,1,7.576-3.138,1.071,1.071,0,1,1,0,2.143,8.571,8.571,0,1,0,6.061,2.51,1.071,1.071,0,1,1,1.515-1.515,10.714,10.714,0,1,1-15.151,0Z" fill="#fff"/>
          <path id="Path_9988" data-name="Path 9988" d="M59.986,57.91,53.395,46.125a1.179,1.179,0,0,0-1.047-.59H38.474c-1.68,2.228-3.214,4.149-4.347,5.541-.258.321-.491.6-.727.887h5.288a1.071,1.071,0,0,1,0,2.143H21.546a1.071,1.071,0,1,1,0-2.143h5.287c-.237-.286-.47-.568-.733-.892-1.133-1.387-2.661-3.307-4.34-5.536H7.886a1.178,1.178,0,0,0-1.045.583L.25,57.9a.952.952,0,0,0,.006.982,1.179,1.179,0,0,0,1.04.577h57.64a1.179,1.179,0,0,0,1.04-.573A.952.952,0,0,0,59.986,57.91Zm-44.868-.59H6.547a1.071,1.071,0,0,1,0-2.143h8.571a1.071,1.071,0,0,1,0,2.143Zm3.034-4.762a1.071,1.071,0,0,1-1.486.3l-2.941-1.963H9.761a1.071,1.071,0,0,1,0-2.143h4.285a1.078,1.078,0,0,1,.595.18l3.214,2.143a1.071,1.071,0,0,1,.3,1.486Zm24.822.477a1.071,1.071,0,0,1-.6-1.963l3.214-2.143a1.078,1.078,0,0,1,.6-.18h4.285a1.071,1.071,0,1,1,0,2.143H46.509l-2.944,1.963A1.07,1.07,0,0,1,42.973,53.034ZM53.687,57.32H45.116a1.071,1.071,0,0,1,0-2.143h8.571a1.071,1.071,0,1,1,0,2.143Z" fill="#fff"/>
        </g>
      </g>
    </g>
  </g>
</svg>
