<svg xmlns="http://www.w3.org/2000/svg" width="48.364" height="41.269" viewBox="0 0 48.364 41.269"><defs><style>.a{fill:#00ac69;}</style></defs><g transform="translate(-1748.563 -1336.6)"><path class="a" d="M1786.739,1355.223v13.743a5.817,5.817,0,0,1-5.81,5.811h-23.463a5.817,5.817,0,0,1-5.81-5.811V1345.5a5.817,5.817,0,0,1,5.81-5.81h23.463a5.78,5.78,0,0,1,3.5,1.178l2.2-2.2a8.862,8.862,0,0,0-5.7-2.072h-23.463a8.914,8.914,0,0,0-8.9,8.9v23.462a8.914,8.914,0,0,0,8.9,8.9h23.463a8.914,8.914,0,0,0,8.9-8.9V1352.13Z" transform="translate(0)"/><path class="a" d="M1791.254,1359.6l5.634-5.634,6.691,6.691,23.461-23.461,5.414,5.414-29.008,29.008Z" transform="translate(-35.527 -0.493)"/></g></svg>