<svg xmlns="http://www.w3.org/2000/svg" xmlns:xlink="http://www.w3.org/1999/xlink" width="60" height="60" viewBox="0 0 60 60">
  <defs>
    <clipPath id="clip-path">
      <rect id="Rectangle_2114" data-name="Rectangle 2114" width="60" height="60" transform="translate(-16537 -22700)" fill="#fff" stroke="#707070" stroke-width="1"/>
    </clipPath>
  </defs>
  <g id="Mask_Group_199" data-name="Mask Group 199" transform="translate(16537 22700)" clip-path="url(#clip-path)">
    <g id="_1924634" data-name="1924634" transform="translate(-16537.967 -22700.967)">
      <path id="Path_9987" data-name="Path 9987" d="M38.71,27.1H36.774l-.968,8.71,1.935,1.935,1.935-1.935Z" fill="#af650f"/>
      <path id="Path_9988" data-name="Path 9988" d="M55.077,23.032A6.771,6.771,0,0,0,51.29,10.645V.968H.968V41.613H15.048a3.879,3.879,0,0,0,3.339,1.935V53.71a3.379,3.379,0,0,0,5.806,2.359A3.379,3.379,0,0,0,30,53.71V44.952a3.746,3.746,0,0,0,1.935.532v12.1a3.379,3.379,0,0,0,5.806,2.359,3.379,3.379,0,0,0,5.806-2.359v-12.1a3.865,3.865,0,0,0,1.935-.532V53.71a3.379,3.379,0,0,0,5.806,2.359A3.379,3.379,0,0,0,57.1,53.71V43.548a3.882,3.882,0,0,0,3.871-3.871V31.935A9.689,9.689,0,0,0,55.077,23.032Zm1.052-5.613a4.839,4.839,0,1,1-4.839-4.839A4.837,4.837,0,0,1,56.129,17.419ZM49.355,2.9V8.71H2.9V2.9ZM2.9,39.677V10.645H49.355v.29a6.765,6.765,0,0,0-1.851,12.1A9.656,9.656,0,0,0,42.69,27.5a10.575,10.575,0,0,0-1.161-.6,6.774,6.774,0,1,0-7.573,0,8.828,8.828,0,0,0-1.161.6,9.705,9.705,0,0,0-4.815-4.464,6.774,6.774,0,1,0-7.573,0,9.689,9.689,0,0,0-5.891,8.9v7.742Zm30-18.387a4.839,4.839,0,1,1,4.839,4.839A4.837,4.837,0,0,1,32.9,21.29ZM19.355,17.419a4.839,4.839,0,1,1,4.839,4.839A4.837,4.837,0,0,1,19.355,17.419Zm8.71,36.29a1.452,1.452,0,1,1-2.9,0V37.742H23.226V53.71a1.452,1.452,0,1,1-2.9,0V30.968H18.387V41.613a1.941,1.941,0,0,1-1.935-1.935V31.935A7.726,7.726,0,0,1,31.2,28.694a9.625,9.625,0,0,0-3.133,7.113v17.9ZM43.548,43.548v-8.71H41.613V57.581a1.452,1.452,0,0,1-2.9,0V41.613H36.774V57.581a1.452,1.452,0,1,1-2.9,0V34.839H31.935v8.71A1.941,1.941,0,0,1,30,41.613V35.806a7.742,7.742,0,0,1,15.484,0v5.806A1.941,1.941,0,0,1,43.548,43.548Zm15.484-3.871A1.941,1.941,0,0,1,57.1,41.613V30.968H55.161V53.71a1.452,1.452,0,1,1-2.9,0V37.742H50.323V53.71a1.452,1.452,0,1,1-2.9,0v-17.9a9.625,9.625,0,0,0-3.133-7.113,7.726,7.726,0,0,1,14.746,3.242Z" fill="#3d6e72"/>
      <path id="Path_9989" data-name="Path 9989" d="M4.839,4.839H6.774V6.774H4.839Z" fill="#af650f"/>
      <path id="Path_9990" data-name="Path 9990" d="M8.71,4.839h1.935V6.774H8.71Z" fill="#af650f"/>
      <path id="Path_9991" data-name="Path 9991" d="M12.581,4.839h1.935V6.774H12.581Z" fill="#af650f"/>
      <path id="Path_9992" data-name="Path 9992" d="M4.839,12.581H6.774v1.935H4.839Z" fill="#af650f"/>
      <path id="Path_9993" data-name="Path 9993" d="M8.71,12.581h1.935v1.935H8.71Z" fill="#af650f"/>
      <path id="Path_9994" data-name="Path 9994" d="M12.581,12.581h1.935v1.935H12.581Z" fill="#af650f"/>
      <path id="Path_9995" data-name="Path 9995" d="M4.839,16.452h9.677v1.935H4.839Z" fill="#af650f"/>
      <path id="Path_9996" data-name="Path 9996" d="M4.839,20.323h9.677v1.935H4.839Z" fill="#af650f"/>
      <path id="Path_9997" data-name="Path 9997" d="M4.839,24.194h9.677v1.935H4.839Z" fill="#af650f"/>
      <path id="Path_9998" data-name="Path 9998" d="M4.839,28.065h7.742V30H4.839Z" fill="#af650f"/>
      <path id="Path_9999" data-name="Path 9999" d="M4.839,31.935h7.742v1.935H4.839Z" fill="#af650f"/>
      <path id="Path_10000" data-name="Path 10000" d="M4.839,35.806h7.742v1.935H4.839Z" fill="#af650f"/>
    </g>
  </g>
</svg>
