<svg xmlns="http://www.w3.org/2000/svg" xmlns:xlink="http://www.w3.org/1999/xlink" width="140" height="70" viewBox="0 0 140 70">
  <defs>
    <clipPath id="clip-path">
      <rect id="Rectangle_2735" data-name="Rectangle 2735" width="140" height="70" transform="translate(19 -1)" fill="#393939" stroke="#707070" stroke-width="1"/>
    </clipPath>
  </defs>
  <g id="Mask_Group_2885" data-name="Mask Group 2885" transform="translate(-19 1)" clip-path="url(#clip-path)">
    <g id="money-calculator-4316579" transform="translate(44.419 -1.665)">
      <path id="Path_16390" data-name="Path 16390" d="M74.78.665H34.455a4.379,4.379,0,0,0-4.379,4.378V42.581a2.688,2.688,0,0,0,1.972,2.587l.072.02a2.688,2.688,0,0,0,3.428-2.579V40.234a1.64,1.64,0,0,1,1.643-1.639h6.481a1.643,1.643,0,0,1,1.643,1.643v6.478a1.643,1.643,0,0,1-1.643,1.643h-4.39a2.168,2.168,0,1,0,0,4.335c7.73,0,32.761-.005,32.761-.005a1.643,1.643,0,0,1,1.643,1.643v6.481a1.643,1.643,0,0,1-1.643,1.643h-1.9a2.6,2.6,0,0,0-2.264,1.326l-.04.07A2.593,2.593,0,0,0,70.1,67.721h4.678a4.379,4.379,0,0,0,4.379-4.379V5.044A4.379,4.379,0,0,0,74.78.665ZM45.315,32.621a1.643,1.643,0,0,1-1.643,1.643h-6.48a1.643,1.643,0,0,1-1.643-1.643V26.14A1.643,1.643,0,0,1,37.191,24.5h6.481a1.643,1.643,0,0,1,1.643,1.643ZM59.5,46.713a1.643,1.643,0,0,1-1.643,1.643H51.379a1.643,1.643,0,0,1-1.643-1.643V40.232a1.64,1.64,0,0,1,1.643-1.639h6.474A1.64,1.64,0,0,1,59.5,40.232Zm0-14.093a1.643,1.643,0,0,1-1.643,1.643H51.379a1.643,1.643,0,0,1-1.643-1.643V26.14A1.643,1.643,0,0,1,51.379,24.5h6.474A1.643,1.643,0,0,1,59.5,26.14ZM73.683,46.713a1.643,1.643,0,0,1-1.643,1.643H65.567a1.643,1.643,0,0,1-1.643-1.643V40.232a1.64,1.64,0,0,1,1.643-1.639h6.474a1.64,1.64,0,0,1,1.643,1.639Zm0-14.093a1.643,1.643,0,0,1-1.643,1.643H65.567a1.643,1.643,0,0,1-1.643-1.643V26.14A1.643,1.643,0,0,1,65.567,24.5h6.474a1.643,1.643,0,0,1,1.643,1.643Zm0-14.987h0a1.64,1.64,0,0,1-1.643,1.639H37.191a1.64,1.64,0,0,1-1.643-1.639V7.78a1.643,1.643,0,0,1,1.643-1.643H72.04A1.643,1.643,0,0,1,73.683,7.78Z" fill="#393939"/>
      <path id="Path_16391" data-name="Path 16391" d="M11.66,65.636h1.848v5.029H11.66a1.342,1.342,0,0,1-1.344-1.339V66.976A1.343,1.343,0,0,1,11.66,65.636Z" fill="#393939"/>
      <path id="Path_16392" data-name="Path 16392" d="M16.645,65.636h2.965v5.029H16.645Z" fill="#393939"/>
      <path id="Path_16393" data-name="Path 16393" d="M32.618,66.976v2.349a1.342,1.342,0,0,1-1.344,1.339h-9.45V65.636h9.45A1.343,1.343,0,0,1,32.618,66.976Z" fill="#393939"/>
      <path id="Path_16394" data-name="Path 16394" d="M11.347,49.429H13.2v5.029H11.347A1.342,1.342,0,0,1,10,53.118V50.769a1.343,1.343,0,0,1,1.344-1.34Z" fill="#393939"/>
      <path id="Path_16395" data-name="Path 16395" d="M16.333,49.429H19.3v5.029H16.333Z" fill="#393939"/>
      <path id="Path_16396" data-name="Path 16396" d="M32.3,50.769v2.349a1.342,1.342,0,0,1-1.343,1.339H21.51V49.429h9.451a1.343,1.343,0,0,1,1.343,1.34Z" fill="#393939"/>
      <path id="Path_16397" data-name="Path 16397" d="M15.48,57.534h1.849v5.029H15.48a1.342,1.342,0,0,1-1.344-1.339v-2.35a1.342,1.342,0,0,1,1.344-1.339Z" fill="#393939"/>
      <path id="Path_16398" data-name="Path 16398" d="M20.466,57.534h2.965v5.029H20.466Z" fill="#393939"/>
      <path id="Path_16399" data-name="Path 16399" d="M36.438,58.872v2.349a1.343,1.343,0,0,1-1.344,1.339H25.643V57.532h9.45a1.343,1.343,0,0,1,1.345,1.34Z" fill="#393939"/>
      <path id="Path_16400" data-name="Path 16400" d="M39.038,65.636h1.849v5.029H39.038a1.342,1.342,0,0,1-1.344-1.339V66.976A1.343,1.343,0,0,1,39.038,65.636Z" fill="#393939"/>
      <path id="Path_16401" data-name="Path 16401" d="M44.023,65.636h2.965v5.029H44.023Z" fill="#393939"/>
      <path id="Path_16402" data-name="Path 16402" d="M60,66.976v2.349a1.342,1.342,0,0,1-1.343,1.339H49.2V65.636h9.451A1.343,1.343,0,0,1,60,66.976Z" fill="#393939"/>
      <path id="Path_16403" data-name="Path 16403" d="M42.864,57.534h1.849v5.029H42.864a1.342,1.342,0,0,1-1.344-1.339v-2.35a1.342,1.342,0,0,1,1.344-1.339Z" fill="#393939"/>
      <path id="Path_16404" data-name="Path 16404" d="M47.849,57.534h2.965v5.029H47.849Z" fill="#393939"/>
      <path id="Path_16405" data-name="Path 16405" d="M63.822,58.872v2.349a1.343,1.343,0,0,1-1.344,1.339H53.027V57.532h9.45A1.343,1.343,0,0,1,63.822,58.872Z" fill="#393939"/>
    </g>
  </g>
</svg>
