<svg xmlns="http://www.w3.org/2000/svg" xmlns:xlink="http://www.w3.org/1999/xlink" width="23.77" height="23.77" viewBox="0 0 23.77 23.77">
  <defs>
    <clipPath id="clip-path">
      <rect id="Rectangle_2116" data-name="Rectangle 2116" width="23.77" height="23.77" transform="translate(-13115 -19391)" fill="#393939" stroke="#fff" stroke-width="1"/>
    </clipPath>
  </defs>
  <g id="Mask_Group_200" data-name="Mask Group 200" transform="translate(13115 19391)" clip-path="url(#clip-path)">
    <g id="Page-1" transform="translate(-13115 -19391)">
      <g id="_017---Customer-Support" data-name="017---Customer-Support">
        <path id="Shape" d="M12.429,10.49a6.183,6.183,0,0,0-1.606-3.281,6.249,6.249,0,0,0-9.135,0A6.183,6.183,0,0,0,.081,10.49.822.822,0,0,0,0,10.842v1.668a.834.834,0,0,0,.834.834h.709a4.912,4.912,0,0,1,0-3.336h-.5a5.417,5.417,0,0,1,9.174-2.23,5.376,5.376,0,0,1,1.254,2.23h-.5a4.912,4.912,0,0,1,0,3.336h.709a.834.834,0,0,0,.834-.834V10.842a.822.822,0,0,0-.081-.353Z" fill="#393939"/>
        <path id="Shape-2" data-name="Shape" d="M2.085,11.676A4.17,4.17,0,1,1,10.241,12.9a8.543,8.543,0,0,1-2.4.417,1.251,1.251,0,0,0-1.167-.809H5.838a1.251,1.251,0,1,0,0,2.5h.834a1.248,1.248,0,0,0,1.181-.858,10.843,10.843,0,0,0,1.921-.25,4.166,4.166,0,0,1-7.69-2.228Z" fill="#393939"/>
        <path id="Shape-3" data-name="Shape" d="M7.089,13.762a.417.417,0,0,1-.417.417H5.838a.417.417,0,1,1,0-.834h.834A.417.417,0,0,1,7.089,13.762Z" fill="#393939"/>
        <path id="Shape-4" data-name="Shape" d="M10.381,17.143a5.783,5.783,0,0,1,1.712,4.125v2.085a.417.417,0,0,1-.417.417H9.591v-2.5a.417.417,0,0,0-.834,0v2.5h-5v-2.5a.417.417,0,0,0-.834,0v2.5H.834a.417.417,0,0,1-.417-.417V21.268A5.838,5.838,0,0,1,3.748,16a4.962,4.962,0,0,0,5.013,0A5.709,5.709,0,0,1,10.381,17.143Z" fill="#393939"/>
        <circle id="Oval" cx="0.417" cy="0.417" r="0.417" transform="translate(15.013 3.336)" fill="#393939"/>
        <circle id="Oval-2" data-name="Oval" cx="0.417" cy="0.417" r="0.417" transform="translate(20.851 3.336)" fill="#393939"/>
        <circle id="Oval-3" data-name="Oval" cx="0.417" cy="0.417" r="0.417" transform="translate(17.932 3.336)" fill="#393939"/>
        <path id="Shape-5" data-name="Shape" d="M22.519,0h-8.34a1.251,1.251,0,0,0-1.251,1.251v5a1.251,1.251,0,0,0,1.251,1.251h.73l-.313,2.5,2.861-2.5h5.063A1.251,1.251,0,0,0,23.77,6.255v-5A1.251,1.251,0,0,0,22.519,0ZM15.43,5a1.251,1.251,0,1,1,.885-.366A1.251,1.251,0,0,1,15.43,5Zm2.919,0a1.251,1.251,0,1,1,.885-.366A1.251,1.251,0,0,1,18.349,5Zm2.919,0a1.251,1.251,0,1,1,.885-.366A1.251,1.251,0,0,1,21.268,5Z" fill="#393939"/>
        <path id="Shape-6" data-name="Shape" d="M22.519,14.6H18.707l-2.861-2.5.313,2.5h-.73a1.251,1.251,0,0,0-1.251,1.251V19.6a1.251,1.251,0,0,0,1.251,1.251h7.089A1.251,1.251,0,0,0,23.77,19.6V15.847A1.251,1.251,0,0,0,22.519,14.6Zm-6.672,1.668H17.1a.417.417,0,1,1,0,.834H15.847a.417.417,0,1,1,0-.834Zm3.336,2.919H15.847a.417.417,0,1,1,0-.834h3.336a.417.417,0,0,1,0,.834Zm2.919,0H20.851a.417.417,0,0,1,0-.834H22.1a.417.417,0,0,1,0,.834Zm0-2.085H18.766a.417.417,0,0,1,0-.834H22.1a.417.417,0,1,1,0,.834Z" fill="#393939"/>
      </g>
    </g>
  </g>
</svg>
