<svg xmlns="http://www.w3.org/2000/svg" xmlns:xlink="http://www.w3.org/1999/xlink" width="100" height="100" viewBox="0 0 100 100"><defs><style>.a{fill:#fff;stroke:#707070;}.b{clip-path:url(#a);}.c,.e{fill:#af650f;}.d{fill:#3d6e72;}.e{font-size:14px;font-family:OpenSans-Bold, Open Sans;font-weight:700;}</style><clipPath id="a"><rect class="a" width="100" height="100" transform="translate(551.104 1395)"/></clipPath></defs><g class="b" transform="translate(-551.104 -1395)"><g transform="translate(547.072 1390.968)"><path class="c" d="M62.713,24.487h5.529V26.11a1.624,1.624,0,1,0,3.247,0V24.487h6.049a1.624,1.624,0,0,0,1.2-2.712l-1.088-1.207a5.208,5.208,0,0,1-1.364-3.489V16.24A6.412,6.412,0,0,0,70.5,9.9a6.611,6.611,0,0,0-5.025,1.667,6.084,6.084,0,0,0-2,4.474v1.384a5.163,5.163,0,0,1-1.052,3.113l-1.014,1.348a1.621,1.621,0,0,0,1.3,2.6Zm4.014-7.06V16.045a2.794,2.794,0,0,1,.942-2.079,3.342,3.342,0,0,1,2.539-.828,3.142,3.142,0,0,1,2.838,3.1v.839a8.411,8.411,0,0,0,1.109,4.16H65.806A8.282,8.282,0,0,0,66.727,17.427Z"/><path class="d" d="M51.59,95.189a3.639,3.639,0,1,1-3.638-3.638A3.638,3.638,0,0,1,51.59,95.189Z"/><path class="d" d="M69.781,4.032a15.488,15.488,0,0,0-8.645,2.627,1.3,1.3,0,0,0-.144-.028H30.667A7.965,7.965,0,0,0,22.7,14.6v81.47a7.965,7.965,0,0,0,7.966,7.966H65.059a7.965,7.965,0,0,0,7.966-7.966V72.675a1.557,1.557,0,0,0-1.557-1.557h0a1.689,1.689,0,0,0-1.688,1.688V86.176H25.948V24.487H54.986A15.605,15.605,0,0,0,69.487,35.2h0c.1,0,.193,0,.291,0v5.455a1.689,1.689,0,0,0,1.688,1.688h0a1.557,1.557,0,0,0,1.557-1.557V34.856c.368-.08.728-.17,1.086-.273.463-.134.913-.291,1.356-.466.051-.021.108-.046.162-.067a15.5,15.5,0,0,0,2.125-1.07c.087-.051.139-.08.139-.08a15.348,15.348,0,0,0,3.247-2.648A15.613,15.613,0,0,0,83.024,27.8a15.42,15.42,0,0,0,1.829-4.24l.015-.049a15.342,15.342,0,0,0,.494-3.885A15.6,15.6,0,0,0,69.781,4.032Zm0,85.391v6.643a4.718,4.718,0,0,1-4.719,4.719h-34.4a4.718,4.718,0,0,1-4.719-4.719V89.423Zm-15.5-68.18H25.948V14.6a4.718,4.718,0,0,1,4.719-4.719H57.634A15.484,15.484,0,0,0,54.2,19.619,14.784,14.784,0,0,0,54.281,21.242Zm16.3,10.688A12.338,12.338,0,1,1,82.09,20.424,12.351,12.351,0,0,1,70.584,31.93Z"/><text class="e" transform="translate(56.543 62.108)"><tspan x="0" y="0">$</tspan></text><path class="c" d="M78.76,45.2H43.385A2.381,2.381,0,0,0,41,47.581v18.3a2.381,2.381,0,0,0,2.38,2.38h4.554a2.376,2.376,0,0,1,2.133,1.325l3.491,4.642a.24.24,0,0,0,.319.111l12.944-5.825a2.39,2.39,0,0,1,1.057-.247H78.76a2.381,2.381,0,0,0,2.38-2.38v-18.3A2.379,2.379,0,0,0,78.76,45.2ZM77.9,63.158a2.055,2.055,0,0,1-2.172,1.914h-8.91a2.393,2.393,0,0,0-.944.193l-10.7,4.868a.23.23,0,0,1-.288-.085l-2.979-3.929a2.219,2.219,0,0,0-1.935-1.047H46.424a2.055,2.055,0,0,1-2.172-1.914v-12.8a2.055,2.055,0,0,1,2.172-1.914h29.3A2.055,2.055,0,0,1,77.9,50.363v12.8Z"/><path class="d" d="M75.632,34.048a20.463,20.463,0,0,0,2.125-1.07A15.5,15.5,0,0,1,75.632,34.048Z"/><path class="d" d="M84.853,23.553a15.42,15.42,0,0,1-1.829,4.24A20.469,20.469,0,0,0,84.853,23.553Z"/></g></g></svg>