<svg xmlns="http://www.w3.org/2000/svg" xmlns:xlink="http://www.w3.org/1999/xlink" width="100" height="100" viewBox="0 0 100 100">
  <defs>
    <clipPath id="clip-path">
      <rect id="Rectangle_2115" data-name="Rectangle 2115" width="100" height="100" transform="translate(-21897 -17138)" fill="#fff" stroke="#707070" stroke-width="1"/>
    </clipPath>
  </defs>
  <g id="Mask_Group_200" data-name="Mask Group 200" transform="translate(21897 17138)" clip-path="url(#clip-path)">
    <g id="_20-global" transform="translate(-21900.787 -17141.791)">
      <g id="linear_color">
        <path id="Path_9994" data-name="Path 9994" d="M98.6,75.894H97.408V63.547a1.98,1.98,0,0,0-1.988-1.988H77.529A30.687,30.687,0,1,0,50.4,77.882c.53,0,1.06-.022,1.59-.044V95.42a8.38,8.38,0,0,0,8.371,8.371H95.42a1.98,1.98,0,0,0,1.988-1.988V89.456H98.6a1.98,1.98,0,0,0,1.988-1.988V77.9A1.985,1.985,0,0,0,98.6,75.894Zm-9.564,9.564a1.188,1.188,0,0,1-1.193-1.193V81.085a1.188,1.188,0,0,1,1.193-1.193h7.576V85.48H89.036ZM63.5,61.559q.331-1.358.6-2.783H74.458a26.273,26.273,0,0,1-1.546,2.783ZM51.995,69.93v3.645a3.947,3.947,0,0,1-1.59.331c-3.711,0-7.753-5.853-9.652-15.13H60.035c-.2.972-.42,1.922-.685,2.849A8.357,8.357,0,0,0,51.995,69.93ZM23.7,47.2a26.757,26.757,0,0,1,1.1-7.576H36.092a66.652,66.652,0,0,0,0,15.13H24.8A26.378,26.378,0,0,1,23.7,47.2Zm15.947,0a62.007,62.007,0,0,1,.464-7.576H60.7a62.007,62.007,0,0,1,.464,7.576,62.007,62.007,0,0,1-.464,7.576H40.112A54.3,54.3,0,0,1,39.648,47.2ZM50.4,20.52c3.711,0,7.753,5.853,9.652,15.13H40.774C42.652,26.373,46.672,20.52,50.4,20.52ZM77.087,47.2A27.546,27.546,0,0,1,76,54.778H64.718a66.727,66.727,0,0,0,.442-7.576,66.727,66.727,0,0,0-.442-7.576H76A26.734,26.734,0,0,1,77.087,47.2ZM74.458,35.65H64.1a43.965,43.965,0,0,0-2.871-9.542,23.857,23.857,0,0,0-2.341-4.219A26.893,26.893,0,0,1,74.458,35.65ZM41.9,21.911a27.047,27.047,0,0,0-2.341,4.219,43.6,43.6,0,0,0-2.871,9.542H26.329A26.811,26.811,0,0,1,41.9,21.911ZM26.329,58.754H36.688A43.965,43.965,0,0,0,39.559,68.3,23.858,23.858,0,0,0,41.9,72.515,26.884,26.884,0,0,1,26.329,58.754Zm67.1,41.039H60.366a4.369,4.369,0,0,1-4.373-4.373V69.93a4.369,4.369,0,0,1,4.373-4.373H93.432V75.916H89.059a5.175,5.175,0,0,0-5.169,5.169v3.181a5.175,5.175,0,0,0,5.169,5.169h4.373Z" fill="#3d6e72"/>
        <path id="Path_9995" data-name="Path 9995" d="M68.318,75.1h4.793A1.188,1.188,0,0,1,74.3,76.292a1.988,1.988,0,0,0,3.976,0,5.175,5.175,0,0,0-5.169-5.169H71.918V69.93a1.988,1.988,0,1,0-3.976,0v1.215a6.777,6.777,0,0,0,.4,13.54h3.181a2.783,2.783,0,0,1,0,5.566H66.926a1.188,1.188,0,0,1-1.193-1.193,1.988,1.988,0,1,0-3.976,0,5.175,5.175,0,0,0,5.169,5.169h.994V95.42a1.988,1.988,0,1,0,3.976,0V94.205a6.777,6.777,0,0,0-.4-13.54H68.318a2.783,2.783,0,0,1,0-5.566Z" fill="#af650f"/>
        <path id="Path_9996" data-name="Path 9996" d="M41.3,85.591A39.45,39.45,0,1,1,89.81,45.545l-2.938-2.938a2,2,0,0,0-2.827,2.827l6.383,6.383a2.013,2.013,0,0,0,2.827,0l6.383-6.383a2,2,0,0,0-2.827-2.827l-3,3A43.423,43.423,0,1,0,40.377,89.5a2.009,2.009,0,0,0,.928-3.91Z" fill="#af650f"/>
      </g>
    </g>
  </g>
</svg>
