<svg xmlns="http://www.w3.org/2000/svg" xmlns:xlink="http://www.w3.org/1999/xlink" width="70" height="70" viewBox="0 0 70 70"><defs><style>.a,.b{fill:#f89522;}.a{stroke:#707070;}.c{clip-path:url(#a);}.d{clip-path:url(#b);}</style><clipPath id="a"><rect class="a" width="70" height="70" transform="translate(19 7.781)"/></clipPath><clipPath id="b"><rect class="b" width="70" height="70"/></clipPath></defs><g class="c" transform="translate(-19 -7.781)"><g transform="translate(19 7.781)"><g class="d"><path class="b" d="M11.55,61.32H7.4a.7.7,0,0,0-.7.7v7.272a.7.7,0,0,0,.7.7H11.55a.7.7,0,0,0,.7-.7V62.017A.7.7,0,0,0,11.55,61.32ZM21.57,31.877H-2.624a1.382,1.382,0,0,0-1.244,1.381V67.211H-3.9v2.078a.7.7,0,0,0,.7.7H3.24a.7.7,0,0,0,.7-.7V61.32H3.363a1.4,1.4,0,0,1-1.422-1.312,1.384,1.384,0,0,1,1.381-1.449H15.583A1.4,1.4,0,0,1,17,59.871a1.384,1.384,0,0,1-1.381,1.449h-.6v7.969a.7.7,0,0,0,.7.7H22.13a.7.7,0,0,0,.7-.7v-36.1A1.429,1.429,0,0,0,21.57,31.877ZM6.1,55.7H4.579a1.42,1.42,0,0,1-1.435-1.353,1.383,1.383,0,0,1,1.381-1.408H6.042a1.42,1.42,0,0,1,1.435,1.353A1.391,1.391,0,0,1,6.1,55.7Zm0-5.208H4.579a1.42,1.42,0,0,1-1.435-1.353,1.383,1.383,0,0,1,1.381-1.408H6.042a1.42,1.42,0,0,1,1.435,1.353A1.383,1.383,0,0,1,6.1,50.494Zm0-5.194H4.579a1.42,1.42,0,0,1-1.435-1.353,1.383,1.383,0,0,1,1.381-1.408H6.042a1.42,1.42,0,0,1,1.435,1.353A1.383,1.383,0,0,1,6.1,45.3Zm0-5.194H4.579a1.42,1.42,0,0,1-1.435-1.353,1.383,1.383,0,0,1,1.381-1.408H6.042A1.42,1.42,0,0,1,7.477,38.7,1.391,1.391,0,0,1,6.1,40.105Zm8.229,15.6H12.808a1.42,1.42,0,0,1-1.435-1.353,1.383,1.383,0,0,1,1.381-1.408h1.517a1.42,1.42,0,0,1,1.435,1.353A1.391,1.391,0,0,1,14.325,55.7Zm0-5.208H12.808a1.42,1.42,0,0,1-1.435-1.353,1.383,1.383,0,0,1,1.381-1.408h1.517a1.42,1.42,0,0,1,1.435,1.353A1.383,1.383,0,0,1,14.325,50.494ZM14.271,45.3H12.808a1.42,1.42,0,0,1-1.435-1.353,1.383,1.383,0,0,1,1.381-1.408h1.558a1.374,1.374,0,0,1,1.381,1.408A1.4,1.4,0,0,1,14.271,45.3Zm.055-5.194H12.808a1.42,1.42,0,0,1-1.435-1.353,1.383,1.383,0,0,1,1.381-1.408h1.517A1.42,1.42,0,0,1,15.706,38.7,1.391,1.391,0,0,1,14.325,40.105Z"/></g><g class="d"><path class="b" d="M64.273,61.32H60.117a.7.7,0,0,0-.7.7v7.272a.7.7,0,0,0,.7.7h4.155a.7.7,0,0,0,.7-.7V62.017A.7.7,0,0,0,64.273,61.32Zm10.02-29.443H50.1a1.382,1.382,0,0,0-1.244,1.381V67.211h-.027v2.078a.7.7,0,0,0,.7.7h6.438a.7.7,0,0,0,.7-.7V61.32h-.574a1.4,1.4,0,0,1-1.422-1.312,1.384,1.384,0,0,1,1.381-1.449H68.305a1.4,1.4,0,0,1,1.422,1.312,1.384,1.384,0,0,1-1.381,1.449h-.6v7.969a.7.7,0,0,0,.7.7h6.411a.7.7,0,0,0,.7-.7v-36.1A1.4,1.4,0,0,0,74.292,31.877ZM58.819,55.7H57.3a1.42,1.42,0,0,1-1.435-1.353,1.383,1.383,0,0,1,1.381-1.408h1.531a1.42,1.42,0,0,1,1.435,1.353A1.394,1.394,0,0,1,58.819,55.7Zm0-5.208H57.3a1.42,1.42,0,0,1-1.435-1.353,1.383,1.383,0,0,1,1.381-1.408h1.531a1.42,1.42,0,0,1,1.435,1.353A1.386,1.386,0,0,1,58.819,50.494Zm0-5.194H57.3a1.42,1.42,0,0,1-1.435-1.353,1.383,1.383,0,0,1,1.381-1.408h1.531a1.42,1.42,0,0,1,1.435,1.353A1.386,1.386,0,0,1,58.819,45.3Zm0-5.194H57.3a1.42,1.42,0,0,1-1.435-1.353,1.383,1.383,0,0,1,1.381-1.408h1.531A1.42,1.42,0,0,1,60.213,38.7,1.394,1.394,0,0,1,58.819,40.105Zm8.229,15.6H65.53a1.42,1.42,0,0,1-1.435-1.353,1.383,1.383,0,0,1,1.381-1.408h1.517a1.42,1.42,0,0,1,1.435,1.353A1.374,1.374,0,0,1,67.047,55.7Zm0-5.208H65.53a1.42,1.42,0,0,1-1.435-1.353,1.383,1.383,0,0,1,1.381-1.408h1.517a1.42,1.42,0,0,1,1.435,1.353A1.366,1.366,0,0,1,67.047,50.494ZM67.006,45.3H65.544a1.42,1.42,0,0,1-1.435-1.353,1.383,1.383,0,0,1,1.381-1.408h1.558a1.374,1.374,0,0,1,1.381,1.408A1.4,1.4,0,0,1,67.006,45.3Zm.041-5.194H65.53a1.42,1.42,0,0,1-1.435-1.353,1.383,1.383,0,0,1,1.381-1.408h1.517A1.42,1.42,0,0,1,68.428,38.7,1.374,1.374,0,0,1,67.047,40.105Z"/></g><g class="d"><path class="b" d="M59.461,65.872H55.388V15.351a2.071,2.071,0,0,0-2.064-2.064H37.864V8.133A2.071,2.071,0,0,0,35.8,6.069H21.488a2.071,2.071,0,0,0-2.064,2.064v5.153H17.743a2.071,2.071,0,0,0-2.064,2.064V65.872h-4.06A2.1,2.1,0,0,0,9.5,67.84,2.059,2.059,0,0,0,11.564,70H26.259a1.024,1.024,0,0,0,1.025-1.025V57.11h-.847a2.1,2.1,0,0,1-2.119-1.968,2.059,2.059,0,0,1,2.064-2.16H44.63a2.1,2.1,0,0,1,2.119,1.968,2.059,2.059,0,0,1-2.064,2.16h-.9V68.975A1.024,1.024,0,0,0,44.808,70H59.5a2.059,2.059,0,0,0,2.064-2.16,2.089,2.089,0,0,0-2.105-1.968ZM30.51,48.731H28.186a2.064,2.064,0,1,1,0-4.128H30.51a2.064,2.064,0,1,1,0,4.128Zm0-7.737H28.186a2.064,2.064,0,1,1,0-4.128H30.51a2.064,2.064,0,0,1,0,4.128Zm0-7.723H28.186a2.064,2.064,0,1,1,0-4.128H30.51a2.064,2.064,0,1,1,0,4.128Zm0-7.737H28.186a2.064,2.064,0,1,1,0-4.128H30.51a2.064,2.064,0,0,1,0,4.128Zm12.248,23.2H40.434a2.064,2.064,0,0,1,0-4.128h2.324a2.064,2.064,0,1,1,0,4.128Zm0-7.737H40.434a2.064,2.064,0,0,1,0-4.128h2.324a2.064,2.064,0,1,1,0,4.128Zm0-7.723H40.434a2.064,2.064,0,0,1,0-4.128h2.324a2.064,2.064,0,1,1,0,4.128Zm0-7.737H40.434a2.064,2.064,0,0,1,0-4.128h2.324a2.064,2.064,0,1,1,0,4.128ZM31.412,68.975V58.149a1.024,1.024,0,0,1,1.025-1.025h6.192a1.024,1.024,0,0,1,1.025,1.025V68.975A1.024,1.024,0,0,1,38.629,70H32.437A1.033,1.033,0,0,1,31.412,68.975Z"/></g></g></g></svg>