<svg xmlns="http://www.w3.org/2000/svg" xmlns:xlink="http://www.w3.org/1999/xlink" width="80" height="80" viewBox="0 0 80 80">
  <defs>
    <clipPath id="clip-path">
      <rect id="Rectangle_2557" data-name="Rectangle 2557" width="80" height="80" transform="translate(-2031 8227)" fill="#393939"/>
    </clipPath>
  </defs>
  <g id="global_payment_experts_icon" transform="translate(2031 -8227)" clip-path="url(#clip-path)">
    <g id="global_payment_experts_icon-2" data-name="global_payment_experts_icon" transform="translate(-2036.705 8221.291)">
      <g id="Layer_35" data-name="Layer 35">
        <path id="Path_13395" data-name="Path 13395" d="M85.705,45.709a27.169,27.169,0,0,0-26.983-27.14h-.314a27.036,27.036,0,0,0-12.7,3.243,27.14,27.14,0,1,0,0,47.795,26.91,26.91,0,0,0,12.856,3.243h0a27.164,27.164,0,0,0,27.14-27.14Zm-7.771,14.6a51.073,51.073,0,0,0-6.042-1.814h-.01a32.7,32.7,0,0,0,2.528-11.356h8.395A24.015,24.015,0,0,1,77.935,60.308Zm-21.941-.429c.386-.014.757-.029,1.143-.029v9.013a24.343,24.343,0,0,1-4.771-4.314,26.751,26.751,0,0,0,3.628-4.671ZM52.309,26.811A24.344,24.344,0,0,1,57.137,22.5v9c-.4,0-.786-.014-1.186-.029a26.728,26.728,0,0,0-3.642-4.657Zm7.685,20.326H71.552a29.711,29.711,0,0,1-2.584,10.755,56.536,56.536,0,0,0-8.975-.913Zm0-2.857V34.368a58.763,58.763,0,0,0,9.028-.914h0a29.778,29.778,0,0,1,2.543,10.827Zm7.656-13.5a54.088,54.088,0,0,1-7.656.714V22.488a25.711,25.711,0,0,1,7.659,8.295ZM59.994,68.85v-9a51.28,51.28,0,0,1,7.6.714,25.952,25.952,0,0,1-7.6,8.285ZM74.412,44.281a32.665,32.665,0,0,0-2.534-11.427h.014a47.66,47.66,0,0,0,5.985-1.814,23.932,23.932,0,0,1,4.928,13.241ZM70.621,30.225h0a29.1,29.1,0,0,0-6.461-8.142A24.008,24.008,0,0,1,75.873,28.72a48.389,48.389,0,0,1-5.252,1.506ZM52.994,22.083a26.854,26.854,0,0,0-2.771,2.785c-.529-.443-1.086-.871-1.657-1.271a22.179,22.179,0,0,1,4.428-1.514ZM42.853,67.821a23.9,23.9,0,0,1-10,2.171A24.283,24.283,0,1,1,45.709,25.126a21.914,21.914,0,0,1,2.728,2,19.642,19.642,0,0,1,2.1,1.986,19.781,19.781,0,0,1,1.728,2.043v.014a21.447,21.447,0,0,1,1.971,3.057,24.03,24.03,0,0,1,2.857,10.056c.029.471.043.943.043,1.428s-.014.957-.043,1.428a23.955,23.955,0,0,1-2.828,9.985,21.269,21.269,0,0,1-1.943,3.057,21.765,21.765,0,0,1-1.728,2.071,20.41,20.41,0,0,1-2.128,2.028,22.323,22.323,0,0,1-2.757,2.014A23.824,23.824,0,0,1,42.853,67.821Zm5.714,0q.857-.6,1.671-1.286a30.929,30.929,0,0,0,2.828,2.814,22.874,22.874,0,0,1-4.5-1.528Zm15.5,1.528H64.05a29.035,29.035,0,0,0,6.571-8.231h.016a48.265,48.265,0,0,1,5.3,1.514,23.95,23.95,0,0,1-11.872,6.714ZM48.023,60.822q.536-.536,1.028-1.114a19.938,19.938,0,0,0,1.7-2.228,21.109,21.109,0,0,0,3.471-10.342c.043-.471.057-.943.057-1.428s-.014-.957-.057-1.428a21.222,21.222,0,0,0-3.514-10.413,21.943,21.943,0,0,0-1.714-2.228c-.343-.4-.686-.771-1.057-1.128-.329-.329-.686-.657-1.043-.971a21.9,21.9,0,0,0-3.714-2.6,21.441,21.441,0,1,0,0,37.539,20.64,20.64,0,0,0,3.728-2.628Q47.488,61.358,48.023,60.822Zm-15.17,3.457a18.569,18.569,0,1,1,0-37.139,17.7,17.7,0,0,1,5.242.771,1.236,1.236,0,0,1,.329.086,17.321,17.321,0,0,1,2.557,1.014,18.892,18.892,0,0,1,4.571,3.157c.329.314.643.629.943.957A17.293,17.293,0,0,1,47.652,34.5a18.418,18.418,0,0,1,3.714,9.785c.043.471.057.943.057,1.428s-.014.957-.057,1.428a18.4,18.4,0,0,1-3.657,9.7A16.507,16.507,0,0,1,46.6,58.194l-1.028,1.043a18.631,18.631,0,0,1-4.585,3.171,19.122,19.122,0,0,1-2.428.971,2.4,2.4,0,0,1-.457.129A17.7,17.7,0,0,1,32.854,64.279Z" fill="#393939"/>
        <path id="Path_13385" data-name="Path 13385" d="M18.765,30.872a3.047,3.047,0,0,1-3.053-3.047,1.444,1.444,0,0,0-2.888,0,5.919,5.919,0,0,0,4.49,5.775v.721a1.444,1.444,0,0,0,2.888,0V33.6a5.919,5.919,0,0,0-1.444-11.666A3.047,3.047,0,1,1,21.8,18.888a1.444,1.444,0,1,0,2.888,0,5.919,5.919,0,0,0-4.475-5.775V12.4a1.444,1.444,0,1,0-2.888,0v.714a5.919,5.919,0,0,0,1.444,11.666,3.046,3.046,0,1,1,0,6.093Z" transform="translate(13.869 22.345)" fill="#f89522"/>
      </g>
    </g>
  </g>
</svg>
