<svg xmlns="http://www.w3.org/2000/svg" xmlns:xlink="http://www.w3.org/1999/xlink" width="70" height="70" viewBox="0 0 70 70"><defs><style>.a,.c{fill:#f89522;}.a{stroke:#707070;}.b{clip-path:url(#a);}</style><clipPath id="a"><rect class="a" width="70" height="70" transform="translate(4.02 -12.219)"/></clipPath></defs><g class="b" transform="translate(-4.02 12.219)"><g transform="translate(4.02 -6.413)"><path class="c" d="M68.632,20.037,35.682,8.411a2.05,2.05,0,0,0-1.365,0L1.369,20.037a2.051,2.051,0,0,0,0,3.866L34.313,35.617a2.049,2.049,0,0,0,1.374,0L68.636,23.9a2.051,2.051,0,0,0,0-3.866Z" transform="translate(0 -8.295)"/><path class="c" d="M90.319,56.508V38.62l-4.1,1.458v16.43a4.118,4.118,0,0,0,0,7.142V73.729a2.051,2.051,0,0,0,4.1,0V63.651a4.118,4.118,0,0,0,0-7.143Z" transform="translate(-25.245 -17.392)"/><path class="c" d="M41.178,50.38a6.137,6.137,0,0,1-2.061-.355L20.595,43.44v9.025c0,2.208,2.3,4.075,6.846,5.549a45.851,45.851,0,0,0,13.738,1.993,45.851,45.851,0,0,0,13.738-1.993c4.543-1.474,6.846-3.342,6.846-5.549V43.44L43.239,50.025A6.138,6.138,0,0,1,41.178,50.38Z" transform="translate(-6.178 -18.838)"/></g></g></svg>