<svg xmlns="http://www.w3.org/2000/svg" xmlns:xlink="http://www.w3.org/1999/xlink" width="50" height="50" viewBox="0 0 50 50">
  <defs>
    <clipPath id="clip-path">
      <rect id="Rectangle_2114" data-name="Rectangle 2114" width="50" height="50" transform="translate(-16537 -22700)" fill="#fff" stroke="#707070" stroke-width="1"/>
    </clipPath>
    <clipPath id="clip-path-2">
      <rect id="Rectangle_1904" data-name="Rectangle 1904" width="50" height="50" transform="translate(104)" fill="#fff" stroke="#707070" stroke-width="0.5"/>
    </clipPath>
  </defs>
  <g id="Mask_Group_199" data-name="Mask Group 199" transform="translate(16537 22700)" clip-path="url(#clip-path)">
    <g id="Mask_Group_113" data-name="Mask Group 113" transform="translate(-16641 -22700)" clip-path="url(#clip-path-2)">
      <g id="_02_Accurate_Forecasting" data-name="02 Accurate Forecasting" transform="translate(102.68 -1.324)">
        <path id="Path_6889" data-name="Path 6889" d="M50.188,38.583A5.666,5.666,0,0,0,51.316,35.2V24.714a2.409,2.409,0,0,0-3.324-2.242,2.412,2.412,0,0,0-2.324-1.79,2.37,2.37,0,0,0-1.61.632,2.42,2.42,0,0,0-1.608-.632,2.353,2.353,0,0,0-.805.15V13.425a2.393,2.393,0,0,0-.241-1.038L44.871,8.92l2.858,2.858L50.015,2.64,40.877,4.919l2.858,2.858-3.467,3.467a2.4,2.4,0,0,0-3.31,1.369H29.212L1.564,40.268l1.143,1.143L29.889,14.23h6.927V28.753a2.339,2.339,0,0,1-.25,1.061l-.677-3.385a5.2,5.2,0,0,0-5.1-4.174,2.044,2.044,0,0,0-1.7,3.182l.827,1.241a3.555,3.555,0,0,1,.571,1.542l.557,4.46a5.469,5.469,0,0,0,.677,2.053l2.662,5.476v1.429H32.777v9.68H50.519V41.644H48.91V40.3Zm-2.4-33.724L46.85,8.627l-2.82-2.82Zm1.112,38.4v1.61H34.387v-1.61ZM34.387,49.707V46.48H48.9v3.227ZM36,41.644v-1.8l-2.85-5.859a3.955,3.955,0,0,1-.5-1.5L32.1,28.031a5.239,5.239,0,0,0-.835-2.241l-.828-1.25a.435.435,0,0,1-.075-.24.429.429,0,0,1,.428-.428A3.591,3.591,0,0,1,34.3,26.75l1.038,5.182H37.3L38,30.556a4.06,4.06,0,0,0,.429-1.805V13.425a.805.805,0,1,1,1.61,0v12.9h1.61V23.1a.805.805,0,1,1,1.61,0v3.226h1.61V23.1a.805.805,0,1,1,1.61,0v3.226h1.61V24.714a.805.805,0,1,1,1.61,0V35.2a4.071,4.071,0,0,1-.805,2.422l-1.61,2.15V41.65H36Z" fill="#af650f"/>
        <path id="Path_6890" data-name="Path 6890" d="M11.808,22.292A10.485,10.485,0,1,0,1.323,11.808,10.485,10.485,0,0,0,11.808,22.292Zm0-19.35a8.871,8.871,0,1,1-8.867,8.866,8.871,8.871,0,0,1,8.867-8.866Z" fill="#3d6e72"/>
        <path id="Path_6891" data-name="Path 6891" d="M11.808,15.84A1.612,1.612,0,0,1,10.2,14.23H8.589a3.225,3.225,0,0,0,2.422,3.113v1.73H12.62V17.464h2.422V14.238a3.226,3.226,0,0,0-3.227-3.226A1.612,1.612,0,0,1,10.206,9.4V7.792h1.609A1.612,1.612,0,0,1,13.425,9.4h1.609a3.225,3.225,0,0,0-2.422-3.113V4.558H11V6.168H8.582V9.394a3.226,3.226,0,0,0,3.227,3.227,1.611,1.611,0,0,1,1.609,1.609v1.61Z" fill="#3d6e72"/>
        <path id="Path_6892" data-name="Path 6892" d="M17.456,11h1.61v1.609h-1.61Z" fill="#3d6e72"/>
        <path id="Path_6893" data-name="Path 6893" d="M4.55,11H6.167v1.609H4.55Z" fill="#3d6e72"/>
        <path id="Path_6894" data-name="Path 6894" d="M2.941,51.324H9.394v-9.68H2.941Zm1.61-8.07H7.777v6.453H4.55Z" fill="#3d6e72"/>
        <path id="Path_6895" data-name="Path 6895" d="M12.613,51.324h6.453V33.582H12.613ZM14.23,35.191h3.226V49.707H14.23Z" fill="#3d6e72"/>
        <path id="Path_6896" data-name="Path 6896" d="M22.292,51.324h6.453v-24.2H22.292ZM23.9,28.746h3.226V49.707H23.9Z" fill="#3d6e72"/>
      </g>
    </g>
  </g>
</svg>
