<svg xmlns="http://www.w3.org/2000/svg" xmlns:xlink="http://www.w3.org/1999/xlink" width="50" height="50" viewBox="0 0 50 50"><defs><style>.a{fill:#fff;}.b{clip-path:url(#a);}</style><clipPath id="a"><rect class="a" width="50" height="50" transform="translate(437 3195)"/></clipPath></defs><g class="b" transform="translate(-437 -3195)"><g transform="translate(437 3195)"><path class="a" d="M44.214,17.686l-3.8-3.93.766-5.413A1.55,1.55,0,0,0,39.911,6.6l-5.385-.944L31.962.824a1.55,1.55,0,0,0-2.05-.666L25,2.559,20.088.158a1.55,1.55,0,0,0-2.05.666L15.476,5.655,10.09,6.6A1.55,1.55,0,0,0,8.822,8.343l.766,5.413-3.8,3.93a1.55,1.55,0,0,0,0,2.156l3.8,3.93-.766,5.416a1.55,1.55,0,0,0,1.267,1.744l4.31.756V48.45a1.55,1.55,0,0,0,2.243,1.386L25,45.659l8.356,4.177A1.55,1.55,0,0,0,35.6,48.45V31.687l4.311-.756a1.55,1.55,0,0,0,1.267-1.744l-.766-5.416,3.8-3.929A1.55,1.55,0,0,0,44.214,17.686ZM25.694,42.54a1.55,1.55,0,0,0-1.386,0l-6.807,3.4V35.691l.538,1.015a1.55,1.55,0,0,0,2.05.666L25,34.969l4.911,2.4a1.549,1.549,0,0,0,2.05-.666l.538-1.014V45.942ZM37.657,22.16a1.55,1.55,0,0,0-.421,1.295l.662,4.681-4.654.816a1.55,1.55,0,0,0-1.1.8l-2.216,4.175-4.245-2.076a1.55,1.55,0,0,0-1.362,0l-4.246,2.076-2.215-4.175a1.549,1.549,0,0,0-1.1-.8L12.1,28.136l.662-4.681a1.55,1.55,0,0,0-.421-1.295l-3.286-3.4,3.286-3.4a1.55,1.55,0,0,0,.421-1.295L12.1,9.394l4.655-.816a1.55,1.55,0,0,0,1.1-.8L20.074,3.6,24.32,5.676a1.55,1.55,0,0,0,1.361,0L29.926,3.6l2.216,4.176a1.55,1.55,0,0,0,1.1.8l4.654.816-.662,4.678a1.551,1.551,0,0,0,.421,1.295l3.286,3.4Z"/><path class="a" d="M25,8.165a10.6,10.6,0,1,0,10.6,10.6A10.612,10.612,0,0,0,25,8.165Zm0,18.1a7.5,7.5,0,1,1,7.5-7.5A7.509,7.509,0,0,1,25,26.265Z"/><path class="a" d="M28.16,14.832l-4.579,4.578-1.742-1.74a1.55,1.55,0,1,0-2.191,2.193L22.487,22.7a1.55,1.55,0,0,0,2.191,0l5.674-5.673a1.55,1.55,0,1,0-2.192-2.192Z"/></g></g></svg>