<svg xmlns="http://www.w3.org/2000/svg" xmlns:xlink="http://www.w3.org/1999/xlink" width="70" height="70" viewBox="0 0 70 70"><defs><style>.a,.c{fill:#f89522;}.a{stroke:#707070;}.b{clip-path:url(#a);}</style><clipPath id="a"><rect class="a" width="70" height="70" transform="translate(76.151)"/></clipPath></defs><g class="b" transform="translate(-76.151)"><g transform="translate(74.215 -2.353)"><path class="c" d="M60.914,29.532a1.176,1.176,0,0,0-.3.751,1.133,1.133,0,0,0,.307.751,1.047,1.047,0,0,0,.751.307,1.133,1.133,0,0,0,.751-.307,1.047,1.047,0,0,0,.307-.751,1.092,1.092,0,0,0-.307-.751A1.121,1.121,0,0,0,60.914,29.532Z"/><path class="c" d="M56.726,29.225a1.058,1.058,0,1,0,1.058,1.058A1.061,1.061,0,0,0,56.726,29.225Z"/><path class="c" d="M51.024,29.532a1.047,1.047,0,0,0-.307.751,1.092,1.092,0,0,0,.307.751,1.047,1.047,0,0,0,.751.307,1.133,1.133,0,0,0,.751-.307,1.047,1.047,0,0,0,.307-.751,1.092,1.092,0,0,0-.307-.751A1.107,1.107,0,0,0,51.024,29.532Z"/><path class="c" d="M51.775,68.117h9.9a1.058,1.058,0,1,0,0-2.115h-9.9a1.058,1.058,0,1,0,0,2.115Z"/><path class="c" d="M48.539,58.132a1.053,1.053,0,0,0,.4.085,1.065,1.065,0,0,0,.751-.307l8.483-8.483a1.066,1.066,0,0,0,0-1.5l-8.483-8.483a1.058,1.058,0,0,0-1.809.751V57.159A1.06,1.06,0,0,0,48.539,58.132Zm1.47-15.39,5.923,5.923-5.923,5.923Z"/><path class="c" d="M68.033,24.983H66.266V7.658a5.309,5.309,0,0,0-5.3-5.3H7.235a5.309,5.309,0,0,0-5.3,5.3V58.566a5.309,5.309,0,0,0,5.3,5.3H24.56v6.367H15.718a1.058,1.058,0,1,0,0,2.115H39.749a1.058,1.058,0,1,0,0-2.115H26.676V63.865h14.85v4.591a3.9,3.9,0,0,0,3.892,3.892H68.043a3.9,3.9,0,0,0,3.892-3.892V28.876A3.912,3.912,0,0,0,68.033,24.983ZM41.526,61.75H7.235a3.187,3.187,0,0,1-3.184-3.184V55.382H41.526V61.75Zm0-32.874V53.267H4.051V7.658A3.187,3.187,0,0,1,7.235,4.474H60.967a3.187,3.187,0,0,1,3.184,3.184V24.983H45.408A3.893,3.893,0,0,0,41.526,28.876ZM69.81,68.466a1.77,1.77,0,0,1-1.766,1.766H45.408a1.77,1.77,0,0,1-1.766-1.766V63.876H69.81Zm0-6.717H43.642V35.592H69.81Zm0-28.283H43.642V28.876a1.77,1.77,0,0,1,1.766-1.766H68.033A1.77,1.77,0,0,1,69.8,28.876v4.591Z"/><path class="c" d="M15.792,39.125c-1.724,0-2.6-.762-2.6-2.264a2.451,2.451,0,0,1,2.6-2.264,2.62,2.62,0,0,1,2.443,1.491,1.057,1.057,0,1,0,1.946-.825A4.612,4.612,0,0,0,16.839,32.6V31.71a1.058,1.058,0,0,0-2.115,0V32.6a4.475,4.475,0,0,0-3.66,4.263c0,2.115,1.238,4.39,4.717,4.39,1.735,0,2.613.762,2.613,2.264a2.451,2.451,0,0,1-2.6,2.264,2.62,2.62,0,0,1-2.443-1.491,1.06,1.06,0,1,0-1.957.814,4.621,4.621,0,0,0,3.321,2.665v.9a1.058,1.058,0,0,0,2.115,0v-.888A4.478,4.478,0,0,0,20.5,43.5C20.53,41.389,19.282,39.125,15.792,39.125Z"/><path class="c" d="M34.1,59.624a1.058,1.058,0,1,0-1.058-1.058A1.047,1.047,0,0,0,34.1,59.624Z"/><path class="c" d="M36.629,30.716a1.056,1.056,0,0,0-1.153.233l-8.483,8.483a1.066,1.066,0,0,0,0,1.5l8.483,8.483a1.065,1.065,0,0,0,.751.307.887.887,0,0,0,.4-.085,1.075,1.075,0,0,0,.656-.984V31.7A1.075,1.075,0,0,0,36.629,30.716Zm-1.47,15.39-5.923-5.923,5.923-5.923Z"/><path class="c" d="M41.167,9.424H34.8a1.058,1.058,0,0,0,0,2.115h6.367a1.061,1.061,0,0,0,1.058-1.058A1.047,1.047,0,0,0,41.167,9.424Z"/><path class="c" d="M10.059,11.55H29.151a1.058,1.058,0,1,0,0-2.115H10.059a1.058,1.058,0,0,0,0,2.115Z"/><path class="c" d="M41.167,16.5H23.852a1.058,1.058,0,0,0,0,2.115H41.167a1.061,1.061,0,0,0,1.058-1.058A1.047,1.047,0,0,0,41.167,16.5Z"/><path class="c" d="M10.059,18.616h8.134a1.058,1.058,0,1,0,0-2.115H10.059a1.058,1.058,0,1,0,0,2.115Z"/><path class="c" d="M30.209,24.634a1.061,1.061,0,0,0-1.058-1.058H10.059a1.058,1.058,0,1,0,0,2.115H29.151A1.061,1.061,0,0,0,30.209,24.634Z"/></g></g></svg>