<svg xmlns="http://www.w3.org/2000/svg" xmlns:xlink="http://www.w3.org/1999/xlink" width="100" height="100" viewBox="0 0 100 100"><defs><style>.a,.c{fill:#3d6e72;}.a{stroke:#707070;}.b{clip-path:url(#a);}.d{fill:#af650f;}</style><clipPath id="a"><rect class="a" width="100" height="100" transform="translate(527.556 1332)"/></clipPath></defs><g class="b" transform="translate(-527.556 -1332)"><g transform="translate(525.73 1329.581)"><path class="c" d="M94.241,2.434H9.4A7.573,7.573,0,0,0,1.826,10V82.722a7.583,7.583,0,0,0,7.57,7.57H32.121v9.084h-10.6a1.514,1.514,0,1,0,0,3.028H82.129a1.514,1.514,0,0,0,0-3.028H71.53V90.292H94.256a7.573,7.573,0,0,0,7.57-7.57V10A7.6,7.6,0,0,0,94.241,2.434ZM68.487,99.391H35.164V90.307H68.487Zm30.3-24.239h-22.8l4.527-10.2,12.32-5.477a1.552,1.552,0,0,0,.905-1.455,1.518,1.518,0,0,0-1.024-1.366L75.33,50.69a25.82,25.82,0,1,0-8.579,10.539l5.462,15.912a1.518,1.518,0,0,0,1.366,1.024h25.2v4.542a4.542,4.542,0,0,1-4.542,4.542H9.4a4.542,4.542,0,0,1-4.542-4.542V78.165h60.71a1.514,1.514,0,0,0,0-3.028H4.854V10A4.542,4.542,0,0,1,9.4,5.462H94.241A4.542,4.542,0,0,1,98.783,10S98.783,75.152,98.783,75.152ZM62.506,48.879l3.206,9.351A22.512,22.512,0,0,1,51.818,63.04,22.725,22.725,0,1,1,74.544,40.315a22.383,22.383,0,0,1-2.093,9.4L64.42,46.95a1.538,1.538,0,0,0-1.559.356A1.572,1.572,0,0,0,62.506,48.879Zm25.575,9.4-9.337,4.156a1.507,1.507,0,0,0-.772.772L73.816,72.54l-7.451-21.7Z"/><path class="c" d="M51.818,81.208a1.514,1.514,0,1,0,1.514,1.514A1.52,1.52,0,0,0,51.818,81.208Z"/><path class="d" d="M66.1,43.58a1.5,1.5,0,0,0,1.143,1.811,1.329,1.329,0,0,0,.341.03,1.522,1.522,0,0,0,1.484-1.173A17.568,17.568,0,0,0,64.331,27.8a1.511,1.511,0,0,0-2.137,2.137A14.626,14.626,0,0,1,66.1,43.58Z"/><path class="d" d="M41.472,27.8a1.505,1.505,0,0,0-2.137,0,17.7,17.7,0,0,0,0,25,1.511,1.511,0,1,0,2.137-2.137,14.648,14.648,0,0,1,0-20.707A1.551,1.551,0,0,0,41.472,27.8Z"/><path class="d" d="M51.8,38.786c-3,0-4.587-1.4-4.587-4.037A4.347,4.347,0,0,1,51.8,30.711a4.611,4.611,0,0,1,4.3,2.642,1.52,1.52,0,0,0,2.805-1.173,7.415,7.415,0,0,0-5.581-4.334V26.154a1.514,1.514,0,1,0-3.028,0v1.677a7.228,7.228,0,0,0-6.1,6.917c0,3.414,2,7.065,7.615,7.065,3.013,0,4.616,1.4,4.616,4.023a4.335,4.335,0,0,1-4.587,4.023,4.611,4.611,0,0,1-4.3-2.642,1.52,1.52,0,0,0-2.805,1.173A7.43,7.43,0,0,0,50.3,52.724v1.692a1.514,1.514,0,1,0,3.028,0V52.739a7.242,7.242,0,0,0,6.13-6.917C59.448,42.437,57.444,38.786,51.8,38.786Z"/></g></g></svg>