<svg xmlns="http://www.w3.org/2000/svg" xmlns:xlink="http://www.w3.org/1999/xlink" width="100" height="100" viewBox="0 0 100 100">
  <defs>
    <clipPath id="clip-path">
      <rect id="Rectangle_2117" data-name="Rectangle 2117" width="100" height="100" transform="translate(-11249 -11514)" fill="#fff" stroke="#707070" stroke-width="1"/>
    </clipPath>
  </defs>
  <g id="Mask_Group_201" data-name="Mask Group 201" transform="translate(11249 11514)" clip-path="url(#clip-path)">
    <g id="_3234467" data-name="3234467" transform="translate(-11250.613 -11516.419)">
      <path id="Path_10023" data-name="Path 10023" d="M95.968,8.065H7.258A5.651,5.651,0,0,0,1.613,13.71v62.9a5.651,5.651,0,0,0,5.645,5.645H39.7L37.546,88.71H33.871a1.613,1.613,0,0,0-1.613,1.613v3.226H20.968a1.613,1.613,0,1,0,0,3.226h61.29a1.613,1.613,0,1,0,0-3.226H70.968V90.323a1.613,1.613,0,0,0-1.613-1.613H65.679l-2.151-6.452h32.44a5.651,5.651,0,0,0,5.645-5.645V13.71A5.651,5.651,0,0,0,95.968,8.065ZM67.742,91.935v1.613H35.484V91.935ZM40.948,88.71,43.1,82.258H60.127l2.151,6.452Zm57.44-12.1a2.421,2.421,0,0,1-2.419,2.419H7.258a2.421,2.421,0,0,1-2.419-2.419V74.194H98.387Zm0-5.645H4.839V13.71A2.421,2.421,0,0,1,7.258,11.29h88.71a2.421,2.421,0,0,1,2.419,2.419Z" fill="#3d6e72"/>
      <path id="Path_10024" data-name="Path 10024" d="M61.29,33.871a9.677,9.677,0,1,0-9.677,9.677,9.677,9.677,0,0,0,9.677-9.677Zm-9.677,6.452a6.452,6.452,0,1,1,6.452-6.452A6.452,6.452,0,0,1,51.613,40.323Z" fill="#af650f"/>
      <path id="Path_10025" data-name="Path 10025" d="M34.474,58.995a24.153,24.153,0,0,0,34.277,0,1.631,1.631,0,0,0,.266-.273,24.194,24.194,0,1,0-34.81,0A1.631,1.631,0,0,0,34.474,58.995ZM37.1,57.051V53.226a6.459,6.459,0,0,1,6.452-6.452H59.677a6.459,6.459,0,0,1,6.452,6.452v3.825A20.93,20.93,0,0,1,37.1,57.051ZM51.613,20.968A20.958,20.958,0,0,1,69.352,53.1a9.687,9.687,0,0,0-9.674-9.554H43.548A9.687,9.687,0,0,0,33.874,53.1,20.958,20.958,0,0,1,51.613,20.968Z" fill="#3d6e72"/>
      <path id="Path_10026" data-name="Path 10026" d="M8.065,41.935H24.194a1.613,1.613,0,0,0,1.613-1.613V30.645a1.613,1.613,0,0,0-1.613-1.613H8.065a1.613,1.613,0,0,0-1.613,1.613v9.677A1.613,1.613,0,0,0,8.065,41.935Zm1.613-9.677h12.9V38.71H9.677Z" fill="#af650f"/>
      <path id="Path_10027" data-name="Path 10027" d="M8.065,46.774H24.194a1.613,1.613,0,1,0,0-3.226H8.065a1.613,1.613,0,0,0,0,3.226Z" fill="#af650f"/>
      <path id="Path_10028" data-name="Path 10028" d="M8.065,51.613H24.194a1.613,1.613,0,0,0,0-3.226H8.065a1.613,1.613,0,0,0,0,3.226Z" fill="#af650f"/>
      <path id="Path_10029" data-name="Path 10029" d="M8.065,56.452h6.452a1.613,1.613,0,0,0,0-3.226H8.065a1.613,1.613,0,0,0,0,3.226Z" fill="#af650f"/>
      <path id="Path_10030" data-name="Path 10030" d="M20.968,53.226H19.355a1.613,1.613,0,0,0,0,3.226h1.613a1.613,1.613,0,0,0,0-3.226Z" fill="#af650f"/>
      <path id="Path_10031" data-name="Path 10031" d="M79.032,41.935H95.161a1.613,1.613,0,0,0,1.613-1.613V30.645a1.613,1.613,0,0,0-1.613-1.613H79.032a1.613,1.613,0,0,0-1.613,1.613v9.677A1.613,1.613,0,0,0,79.032,41.935Zm1.613-9.677h12.9V38.71h-12.9Z" fill="#af650f"/>
      <path id="Path_10032" data-name="Path 10032" d="M79.032,46.774H95.161a1.613,1.613,0,0,0,0-3.226H79.032a1.613,1.613,0,0,0,0,3.226Z" fill="#af650f"/>
      <path id="Path_10033" data-name="Path 10033" d="M79.032,51.613H95.161a1.613,1.613,0,0,0,0-3.226H79.032a1.613,1.613,0,0,0,0,3.226Z" fill="#af650f"/>
      <path id="Path_10034" data-name="Path 10034" d="M79.032,56.452h6.452a1.613,1.613,0,0,0,0-3.226H79.032a1.613,1.613,0,0,0,0,3.226Z" fill="#af650f"/>
      <path id="Path_10035" data-name="Path 10035" d="M91.935,53.226H90.323a1.613,1.613,0,0,0,0,3.226h1.613a1.613,1.613,0,0,0,0-3.226Z" fill="#af650f"/>
    </g>
  </g>
</svg>
