<svg xmlns="http://www.w3.org/2000/svg" xmlns:xlink="http://www.w3.org/1999/xlink" width="100" height="100" viewBox="0 0 100 100"><defs><style>.a{fill:#fff;stroke:#707070;}.b{clip-path:url(#a);}.c{fill:#af650f;}.d{fill:#3d6e72;}</style><clipPath id="a"><rect class="a" width="100" height="100" transform="translate(208)"/></clipPath></defs><g class="b" transform="translate(-208)"><g transform="translate(201.875 -6.117)"><path class="c" d="M94.821,38.945v5.772L75.469,25.365,59.339,41.51,25,7.167,22.719,9.444l36.62,36.62,16.13-16.13L92.561,47.01H86.772v3.223H98.044V38.945Z"/><path class="d" d="M102.886,101.844V79.269H86.772v22.575H83.534V53.455H67.42v48.389H64.2v-38.7H48.052v38.7H44.829V40.564H28.7v61.3H25.477V30.88H9.347v70.964H6.125v3.223h100v-3.223Zm-80.632,0H12.57V34.1h9.684Zm19.352,0H31.922V43.771h9.684Zm19.352.016H51.275V66.378h9.684Zm19.352-.016H70.627V56.694h9.684Zm19.368,0H90V82.492h9.684Z"/></g></g></svg>