<svg xmlns="http://www.w3.org/2000/svg" xmlns:xlink="http://www.w3.org/1999/xlink" width="50" height="50" viewBox="0 0 50 50">
  <defs>
    <clipPath id="clip-path">
      <rect id="Rectangle_2114" data-name="Rectangle 2114" width="50" height="50" transform="translate(437 3195)" fill="#fff" stroke="#707070" stroke-width="1"/>
    </clipPath>
    <clipPath id="clip-path-2">
      <rect id="Rectangle_2098" data-name="Rectangle 2098" width="50" height="50" transform="translate(263.779 666)" fill="#fff" stroke="#707070" stroke-width="0.5"/>
    </clipPath>
  </defs>
  <g id="Mask_Group_199" data-name="Mask Group 199" transform="translate(-437 -3195)" clip-path="url(#clip-path)">
    <g id="Mask_Group_185" data-name="Mask Group 185" transform="translate(173.221 2529)" clip-path="url(#clip-path-2)">
      <g id="_04_MultiCurrency_Account" data-name="04 MultiCurrency Account" transform="translate(261.232 663.131)">
        <path id="Path_9924" data-name="Path 9924" d="M35.6,19.032c.923,0,1.365.378,1.365,1.168a1.277,1.277,0,0,1-1.357,1.168,1.369,1.369,0,0,1-1.278-.774.758.758,0,1,0-1.4.592,2.794,2.794,0,0,0,1.91,1.6v.4a.757.757,0,0,0,1.515,0v-.4a2.717,2.717,0,0,0,2.123-2.573,2.612,2.612,0,0,0-2.88-2.683c-.923,0-1.357-.371-1.357-1.168A1.277,1.277,0,0,1,35.6,15.2a1.37,1.37,0,0,1,1.278.774.758.758,0,1,0,1.4-.592,2.807,2.807,0,0,0-1.918-1.6v-.4a.757.757,0,1,0-1.515,0v.411a2.716,2.716,0,0,0-2.115,2.572A2.609,2.609,0,0,0,35.6,19.032Z" fill="#fff"/>
        <path id="Path_9925" data-name="Path 9925" d="M18.433,19.537A8.333,8.333,0,1,0,10.1,11.2a8.333,8.333,0,0,0,8.333,8.333Zm0-15.15A6.818,6.818,0,1,1,11.615,11.2a6.818,6.818,0,0,1,6.818-6.818Z" fill="#fff"/>
        <path id="Path_9926" data-name="Path 9926" d="M18.433,11.962c.916,0,1.365.378,1.365,1.168a1.277,1.277,0,0,1-1.357,1.17,1.37,1.37,0,0,1-1.278-.774.758.758,0,1,0-1.4.592,2.794,2.794,0,0,0,1.91,1.6v.4a.757.757,0,1,0,1.515,0V15.7a2.708,2.708,0,0,0,2.122-2.572,2.612,2.612,0,0,0-2.88-2.683c-.916,0-1.357-.378-1.357-1.168a1.277,1.277,0,0,1,1.357-1.168,1.37,1.37,0,0,1,1.278.774.758.758,0,1,0,1.4-.592,2.807,2.807,0,0,0-1.918-1.6V6.3a.757.757,0,1,0-1.515,0v.411A2.716,2.716,0,0,0,15.56,9.278,2.6,2.6,0,0,0,18.433,11.962Z" fill="#fff"/>
        <path id="Path_9927" data-name="Path 9927" d="M52.37,48.054,46.75,31.507a4.175,4.175,0,0,0-4.032-2.573h-7.9c.016-.181.032-.371.032-.56a8.312,8.312,0,0,0-.213-1.839,7.813,7.813,0,0,0,.968.064,8.333,8.333,0,1,0-8.33-8.332A8.247,8.247,0,0,0,27.5,20.1a8.173,8.173,0,0,0-.986-.063,8.345,8.345,0,0,0-8.333,8.333c0,.19.016.371.031.56H12.325a4.162,4.162,0,0,0-4.032,2.58L2.723,48.054a3.238,3.238,0,0,0,.481,3,4.628,4.628,0,0,0,3.8,1.815H48.085A4.659,4.659,0,0,0,51.9,51.062a3.25,3.25,0,0,0,.474-3.008Zm-9.642-17.6a2.654,2.654,0,0,1,2.6,1.538l4.111,12.15v.012h0a1.6,1.6,0,0,1-.25,1.484A2.938,2.938,0,0,1,46.8,46.721H43.966L40.353,30.45ZM35.6,11.457a6.817,6.817,0,1,1,0,13.635,6.633,6.633,0,0,1-1.539-.2,8.35,8.35,0,0,0-4.908-4.4A6.79,6.79,0,0,1,35.6,11.457Zm-9.09,10.1a6.818,6.818,0,1,1-6.815,6.817,6.818,6.818,0,0,1,6.815-6.817ZM18.45,30.45a8.325,8.325,0,0,0,16.128,0H38.8l3.614,16.271H12.68L16.294,30.45ZM5.666,44.14,9.729,32a2.658,2.658,0,0,1,2.6-1.546H14.75L11.134,46.721H8.3a2.937,2.937,0,0,1-2.383-1.089A1.585,1.585,0,0,1,5.666,44.14Zm45,6.028a3.182,3.182,0,0,1-2.58,1.175H7.007a3.183,3.183,0,0,1-2.58-1.175,1.769,1.769,0,0,1-.277-1.634L4.8,46.65a4.439,4.439,0,0,0,3.5,1.57H46.8a4.464,4.464,0,0,0,3.5-1.57l.647,1.878A1.775,1.775,0,0,1,50.666,50.168Z" fill="#fff"/>
        <path id="Path_9928" data-name="Path 9928" d="M9.24,42.4a.843.843,0,0,0,.2.023.765.765,0,0,0,.734-.56l1.7-6.281a.756.756,0,0,0-1.46-.394L8.711,41.473A.758.758,0,0,0,9.24,42.4Z" fill="#fff"/>
        <path id="Path_9929" data-name="Path 9929" d="M45.2,42.364a.75.75,0,0,0,.221.537.765.765,0,0,0,.536.221.754.754,0,0,0,.757-.758.721.721,0,0,0-.221-.536.782.782,0,0,0-1.073,0,.75.75,0,0,0-.221.537Z" fill="#fff"/>
        <path id="Path_9930" data-name="Path 9930" d="M43.99,38.05a.774.774,0,0,0,.734.55.65.65,0,0,0,.205-.031.75.75,0,0,0,.521-.93.766.766,0,0,0-.931-.538.792.792,0,0,0-.529.95Z" fill="#fff"/>
        <path id="Path_9931" data-name="Path 9931" d="M44.25,33.338a.75.75,0,0,0-.221-.536.782.782,0,0,0-1.073,0,.762.762,0,0,0,0,1.073.779.779,0,0,0,.536.221.75.75,0,0,0,.537-.221A.765.765,0,0,0,44.25,33.338Z" fill="#fff"/>
        <path id="Path_9932" data-name="Path 9932" d="M26.513,29.132c.916,0,1.365.378,1.365,1.16a1.277,1.277,0,0,1-1.357,1.168,1.369,1.369,0,0,1-1.278-.774.758.758,0,1,0-1.4.592,2.8,2.8,0,0,0,1.91,1.6v.4a.757.757,0,1,0,1.515,0v-.4a2.709,2.709,0,0,0,2.122-2.573,2.612,2.612,0,0,0-2.88-2.683c-.923,0-1.357-.371-1.357-1.168a1.277,1.277,0,0,1,1.357-1.168,1.369,1.369,0,0,1,1.278.774.758.758,0,1,0,1.4-.592,2.808,2.808,0,0,0-1.918-1.6v-.4a.758.758,0,0,0-1.515,0v.41A2.716,2.716,0,0,0,23.64,26.45,2.6,2.6,0,0,0,26.513,29.132Z" fill="#fff"/>
      </g>
    </g>
  </g>
</svg>
