<svg xmlns="http://www.w3.org/2000/svg" xmlns:xlink="http://www.w3.org/1999/xlink" width="100" height="100" viewBox="0 0 100 100"><defs><style>.a{fill:#fff;stroke:#707070;}.b{clip-path:url(#a);}.c{fill:#af650f;}.d{fill:#3d6e72;}</style><clipPath id="a"><rect class="a" width="100" height="100" transform="translate(551.104 1395)"/></clipPath></defs><g class="b" transform="translate(-551.104 -1395)"><g transform="translate(548.384 1393.792)"><path class="c" d="M56.193,47.432c4.834,0,5.74,2.719,5.74,5.136,0,2.87-2.568,5.136-5.74,5.136a5.954,5.954,0,0,1-5.438-3.323,1.488,1.488,0,1,0-2.719,1.208,8.476,8.476,0,0,0,6.647,4.985V62.84a1.511,1.511,0,0,0,3.021,0V60.423a8.265,8.265,0,0,0,7.251-8.006c0-3.927-2.266-8.157-8.761-8.157-4.683,0-5.74-2.719-5.74-5.136,0-2.87,2.568-5.136,5.74-5.136a5.954,5.954,0,0,1,5.438,3.323A1.488,1.488,0,0,0,64.35,36.1,8.476,8.476,0,0,0,57.7,31.118V28.852a1.511,1.511,0,0,0-3.021,0v2.266a8.265,8.265,0,0,0-7.251,8.006C47.432,43.2,49.7,47.432,56.193,47.432Z"/><path class="c" d="M39.728,47.432a1.511,1.511,0,1,0-1.511-1.511A1.624,1.624,0,0,0,39.728,47.432Z"/><path class="c" d="M72.659,47.432a1.511,1.511,0,1,0-1.511-1.511A1.624,1.624,0,0,0,72.659,47.432Z"/><path class="d" d="M100.906,69.94c-1.057-.906-2.417-1.057-4.23-.6a3.326,3.326,0,0,0,.151-1.208A5.109,5.109,0,0,0,94.864,64.5c-1.511-1.208-3.625-.755-6.5.453a37.474,37.474,0,0,0,6.042-20.242A37.991,37.991,0,1,0,22.054,60.876H4.23a1.624,1.624,0,0,0-1.511,1.511v27.19A1.624,1.624,0,0,0,4.23,91.088H16.767a111.431,111.431,0,0,0,31.571,4.532c15.559,0,34.441-3.474,50.755-16.314.3-.3,3.474-2.568,3.625-5.589A5.07,5.07,0,0,0,100.906,69.94Zm-85.5,18.127H5.74V63.9h9.668ZM92.9,66.918a3.182,3.182,0,0,1,.906,1.208A4.8,4.8,0,0,1,92.145,71a7.365,7.365,0,0,1-1.057.453,114.2,114.2,0,0,1-15.106,5.438,43.106,43.106,0,0,0,8.61-7.1c.3-.151.755-.3,1.057-.453C88.369,68.127,92.145,66.465,92.9,66.918ZM27.492,43.2H21.45a33.445,33.445,0,0,1,3.927-14.5l5.287,3.021A29.544,29.544,0,0,0,27.492,43.2Zm28.7-24.32A25.68,25.68,0,0,1,67.069,67.825H66.012c-13.9.3-16.314-1.208-19.033-2.719-1.964-1.208-4.23-2.417-10.121-3.323a25.718,25.718,0,0,1-6.647-17.221A26.216,26.216,0,0,1,56.193,18.882Zm1.511-2.87V9.97a33.445,33.445,0,0,1,14.5,3.927l-3.021,5.287A24.63,24.63,0,0,0,57.7,16.012Zm-3.021,0A29.392,29.392,0,0,0,43.2,19.033l-3.021-5.287a36.338,36.338,0,0,1,14.5-3.927Zm36.4,27.19H85.045a29.392,29.392,0,0,0-3.021-11.48L87.311,28.7A38.11,38.11,0,0,1,91.088,43.2ZM87.16,60.725,81.873,57.7a27.007,27.007,0,0,0,3.021-11.48h6.042A33.32,33.32,0,0,1,87.16,60.725Zm-6.8-.3,5.287,3.021A34.739,34.739,0,0,1,73.414,75.076,7.9,7.9,0,0,0,71.45,69.94L71,69.486A31.5,31.5,0,0,0,80.363,60.423ZM85.65,25.982,80.363,29A32.182,32.182,0,0,0,71.9,20.544l3.021-5.287A40.246,40.246,0,0,1,85.65,25.982ZM37.613,15.257l3.021,5.287A30.074,30.074,0,0,0,32.175,29l-5.287-3.021A36.293,36.293,0,0,1,37.613,15.257ZM21.45,46.224h6.042a28.87,28.87,0,0,0,5.287,15.106q-3.172-.227-7.251-.453A34.235,34.235,0,0,1,21.45,46.224ZM97.281,76.888c-31.118,24.622-71.9,13.746-78.852,11.631V63.9c20.695.151,24.169,2.115,27.19,3.927C48.792,69.637,51.511,71.3,66.314,71a4.571,4.571,0,0,1,2.87,1.057,5.5,5.5,0,0,1,1.057,4.079c0,.453-.151,1.813-2.719,2.87h-.151c-2.87,1.057-9.063,2.115-22.81.3a1.518,1.518,0,0,0-.3,3.021,93.682,93.682,0,0,0,13.6,1.057,32.638,32.638,0,0,0,10.574-1.36h0A120.986,120.986,0,0,0,92.3,74.471c3.021-1.36,6.042-2.568,6.647-1.964a1.539,1.539,0,0,1,.755,1.36C99.7,74.924,97.885,76.435,97.281,76.888Z"/><path class="d" d="M10.574,70.393a1.511,1.511,0,1,0-1.511-1.511A1.624,1.624,0,0,0,10.574,70.393Z"/></g></g></svg>