<svg xmlns="http://www.w3.org/2000/svg" xmlns:xlink="http://www.w3.org/1999/xlink" width="200" height="100" viewBox="0 0 200 100">
  <defs>
    <clipPath id="clip-path">
      <rect id="Rectangle_2095" data-name="Rectangle 2095" width="200" height="100" transform="translate(1101 2021)" fill="#fff" stroke="#707070" stroke-width="1"/>
    </clipPath>
  </defs>
  <g id="Mask_Group_182" data-name="Mask Group 182" transform="translate(-1101 -2021)" clip-path="url(#clip-path)">
    <path id="_04_Groupon" data-name="04 Groupon" d="M35,103.235a8.143,8.143,0,0,1-.294,2.647,6.922,6.922,0,0,1-.588,2.353,14.339,14.339,0,0,1-.882,2.059,7.372,7.372,0,0,1-1.176,2.059,26.518,26.518,0,0,1-2.647,2.941,12.145,12.145,0,0,1-3.235,2.059,17.991,17.991,0,0,1-3.529,1.471,17.214,17.214,0,0,1-3.824.588,11.028,11.028,0,0,1-3.235-.294c-1.176-.294-2.059-.588-2.941-.882A11.922,11.922,0,0,1,10,116.765a16.813,16.813,0,0,1-2.353-2.059c-.882-1.176-1.765-2.059-2.353-2.941S4.412,110,3.824,109.118c-.294-.882-.588-2.059-.882-2.941q0-1.765,0-3.529a12.064,12.064,0,0,1,.294-3.235c.294-1.176.588-2.059.882-2.941a11.922,11.922,0,0,1,1.471-2.647,7.928,7.928,0,0,1,2.059-2.353A16.813,16.813,0,0,1,10,89.412a9.2,9.2,0,0,1,2.941-1.471c.882-.294,2.059-.588,2.941-.882a12.064,12.064,0,0,1,3.235-.294,12.193,12.193,0,0,1,4.706.882,29.683,29.683,0,0,1,4.412,2.059,19.966,19.966,0,0,1,3.529,3.529,16.126,16.126,0,0,1,2.353,4.412H25.294l-1.471-1.471c-.588-.294-.882-.588-1.471-.882s-1.176-.294-1.471-.588c-.588,0-1.176-.294-1.765-.294A12.508,12.508,0,0,0,15.882,95a6.945,6.945,0,0,0-2.647,1.765,8.345,8.345,0,0,0-1.765,2.647,10.573,10.573,0,0,0-.588,3.235,14.763,14.763,0,0,0,.588,3.529,9.789,9.789,0,0,0,1.765,2.941,6.945,6.945,0,0,0,2.647,1.765,10.573,10.573,0,0,0,3.235.588,5.005,5.005,0,0,0,2.059-.294c.588-.294,1.471-.294,2.059-.882A7.8,7.8,0,0,0,25,108.824a6.153,6.153,0,0,0,1.176-1.765H17.353v-6.176H35v2.353Zm2.059,15.294V87.353H49.706a5.005,5.005,0,0,1,2.059.294,4.18,4.18,0,0,1,1.765.588l1.765.882c.588.588,1.176.882,1.765,1.471a12.452,12.452,0,0,1,1.471,2.059c.294.882.588,1.471.882,2.353a8.143,8.143,0,0,1,.294,2.647,14.763,14.763,0,0,1-.588,3.529,9.2,9.2,0,0,1-1.471,2.941,16.812,16.812,0,0,1-2.059,2.353,9.2,9.2,0,0,1-2.941,1.471l7.647,10.588H50.882l-5.882-10v10H37.059Zm9.118-16.765a5.734,5.734,0,0,0,2.353-.294,4.18,4.18,0,0,0,1.765-.588,2.3,2.3,0,0,0,1.176-1.176,5.441,5.441,0,0,0,0-3.529A4.061,4.061,0,0,0,50.588,95a2.247,2.247,0,0,0-1.471-.588c-.588,0-1.471-.294-2.353-.294H44.706v7.353l1.471.294ZM65.294,91.471c.882-.588,1.471-1.471,2.353-2.059a11.922,11.922,0,0,1,2.647-1.471c.882-.294,2.059-.588,2.941-.882a12.064,12.064,0,0,1,3.235-.294,12.064,12.064,0,0,1,3.235.294c.882.294,2.059.588,2.941.882a11.921,11.921,0,0,1,2.647,1.471,7.929,7.929,0,0,1,2.353,2.059,14.731,14.731,0,0,1,2.059,2.353,11.922,11.922,0,0,1,1.471,2.647c.294.882.588,2.059.882,2.941a11.028,11.028,0,0,1,.294,3.235,11.028,11.028,0,0,1-.294,3.235c-.294,1.176-.588,2.059-.882,2.941a11.922,11.922,0,0,1-1.471,2.647,7.928,7.928,0,0,1-2.059,2.353,7.929,7.929,0,0,1-2.353,2.059,9.2,9.2,0,0,1-2.941,1.471c-.882.294-2.059.588-2.941.882a12.065,12.065,0,0,1-3.235.294,11.028,11.028,0,0,1-3.235-.294c-1.176-.294-2.059-.588-2.941-.882a11.922,11.922,0,0,1-2.647-1.471,23.5,23.5,0,0,1-4.412-4.412c-.588-.882-.882-1.765-1.471-2.647-.294-.882-.588-2.059-.882-2.941a12.065,12.065,0,0,1-.294-3.235,12.065,12.065,0,0,1,.294-3.235c.294-1.176.588-2.059.882-2.941a11.922,11.922,0,0,1,1.471-2.647,17.748,17.748,0,0,1,2.353-2.353Zm11.471,20A12.508,12.508,0,0,0,80,110.882a13.811,13.811,0,0,0,2.647-1.765l1.765-2.647A14.763,14.763,0,0,0,85,102.941a10.573,10.573,0,0,0-.588-3.235,13.812,13.812,0,0,0-1.765-2.647A10.264,10.264,0,0,0,80,95.294a6.333,6.333,0,0,0-3.235-.588,10.573,10.573,0,0,0-3.235.588,13.811,13.811,0,0,0-2.647,1.765,5.982,5.982,0,0,0-1.765,2.647,10.573,10.573,0,0,0-.588,3.235,14.763,14.763,0,0,0,.588,3.529,5.982,5.982,0,0,0,1.765,2.647,6.945,6.945,0,0,0,2.647,1.765,12.508,12.508,0,0,0,3.235.588Zm25.588-24.118v19.118a5.734,5.734,0,0,0,.294,2.353,4.18,4.18,0,0,0,.588,1.765c.294.294.588.882,1.176.882a5.441,5.441,0,0,0,3.529,0,4.06,4.06,0,0,0,1.176-.882,2.486,2.486,0,0,0,.588-1.765,5.734,5.734,0,0,0,.294-2.353V87.353h7.647v19.412a13.739,13.739,0,0,1-.882,5,12.089,12.089,0,0,1-2.353,3.824,9.311,9.311,0,0,1-3.529,2.353,12.99,12.99,0,0,1-9.412,0,10.576,10.576,0,0,1-3.529-2.353,16.676,16.676,0,0,1-2.353-3.824,14.248,14.248,0,0,1-.882-5.294V87.059h7.647Zm17.353,31.176V87.353h12.647a5.005,5.005,0,0,1,2.059.294,4.18,4.18,0,0,1,1.765.588l1.765.882c.588.588,1.471,1.176,1.765,1.471a12.451,12.451,0,0,1,1.471,2.059A20.264,20.264,0,0,1,142.059,95a8.143,8.143,0,0,1,.294,2.647,10.006,10.006,0,0,1-.294,2.941l-.882,2.647a5.276,5.276,0,0,1-1.471,2.059c-.588.588-1.471,1.176-2.059,1.765a4.969,4.969,0,0,1-1.471.588,3.73,3.73,0,0,1-1.765.294c-.588,0-1.176.294-2.059.294h-4.412v10l-8.235.294Zm9.412-16.765a5.734,5.734,0,0,0,2.353-.294,4.18,4.18,0,0,0,1.765-.588,2.3,2.3,0,0,0,1.176-1.176,5.441,5.441,0,0,0,0-3.529A4.06,4.06,0,0,0,133.529,95a2.247,2.247,0,0,0-1.471-.588c-.588,0-1.471-.294-2.059-.294h-2.059v7.353l1.176.294Zm18.824-10.294c.882-.588,1.471-1.471,2.353-2.059a11.921,11.921,0,0,1,2.647-1.471c.882-.294,2.059-.588,2.941-.882a12.064,12.064,0,0,1,3.235-.294,9.067,9.067,0,0,1,2.941.294c.882.294,2.059.588,2.941.882a11.922,11.922,0,0,1,2.647,1.471A7.929,7.929,0,0,1,170,91.471a14.732,14.732,0,0,1,2.059,2.353,11.921,11.921,0,0,1,1.471,2.647c.294.882.588,2.059.882,2.941a11.028,11.028,0,0,1,.294,3.235,11.028,11.028,0,0,1-.294,3.235c-.294,1.176-.588,2.059-.882,2.941a11.922,11.922,0,0,1-1.471,2.647,16.316,16.316,0,0,1-1.765,2.353,14.73,14.73,0,0,1-2.353,2.059,11.921,11.921,0,0,1-2.647,1.471c-.882.294-2.059.588-2.941.882a12.065,12.065,0,0,1-3.235.294,11.028,11.028,0,0,1-3.235-.294c-1.176-.294-2.059-.588-2.941-.882a11.922,11.922,0,0,1-2.647-1.471,23.5,23.5,0,0,1-4.412-4.412c-.588-.882-.882-1.765-1.471-2.647-.294-.882-.588-2.059-.882-2.941a12.065,12.065,0,0,1-.294-3.235,12.065,12.065,0,0,1,.294-3.235c.294-.882.588-2.059.882-2.941a11.921,11.921,0,0,1,1.471-2.647c.882-.882,1.471-1.765,2.059-2.353Zm11.471,20a12.508,12.508,0,0,0,3.235-.588,13.812,13.812,0,0,0,2.647-1.765l1.765-2.647a14.763,14.763,0,0,0,.588-3.529,10.573,10.573,0,0,0-.588-3.235,6.945,6.945,0,0,0-1.765-2.647,10.264,10.264,0,0,0-2.647-1.765,6.333,6.333,0,0,0-3.235-.588,10.573,10.573,0,0,0-3.235.588,13.813,13.813,0,0,0-2.647,1.765,5.982,5.982,0,0,0-1.765,2.647,10.573,10.573,0,0,0-.588,3.235,14.762,14.762,0,0,0,.588,3.529,5.982,5.982,0,0,0,1.765,2.647,6.945,6.945,0,0,0,2.647,1.765,12.508,12.508,0,0,0,3.235.588Zm17.647,7.059V87.353h6.765l11.471,17.353V87.353h7.647v31.176h-6.765l-11.471-17.353v17.353h-7.647Z" transform="translate(1098.059 1967.912)" fill="#53a318"/>
  </g>
</svg>
