<svg xmlns="http://www.w3.org/2000/svg" xmlns:xlink="http://www.w3.org/1999/xlink" width="200" height="100" viewBox="0 0 200 100">
  <defs>
    <clipPath id="clip-path">
      <rect id="Rectangle_2095" data-name="Rectangle 2095" width="200" height="100" transform="translate(1343 2021)" fill="#fff" stroke="#707070" stroke-width="1"/>
    </clipPath>
  </defs>
  <g id="Mask_Group_183" data-name="Mask Group 183" transform="translate(-1343 -2021)" clip-path="url(#clip-path)">
    <g id="XMLID_1_" transform="translate(1339.755 1967.607)">
      <path id="XMLID_5_" d="M3.245,92.035h5.31a9.174,9.174,0,0,1,3.245.295,2.709,2.709,0,0,1,1.77,1.18l.885,1.77a7.4,7.4,0,0,1,.295,2.95v2.065a10.09,10.09,0,0,1-.295,3.245,3.555,3.555,0,0,1-1.475,1.475,7.4,7.4,0,0,1-2.95.59H8.555v9.145H3.245Zm5.31,3.835v5.6H8.85c.59,0,.885,0,.885-.295.295-.295.295-.885.295-1.77V97.64c0-.885,0-1.18-.295-1.475C9.735,95.87,9.145,95.87,8.555,95.87Z" fill="#006"/>
      <path id="XMLID_8_" d="M16.224,92.035h3.835a19.758,19.758,0,0,1,5.015.295,3.966,3.966,0,0,1,2.065,1.77,7.813,7.813,0,0,1,.885,4.13,8.472,8.472,0,0,1-.59,3.54c-.295.59-1.18.885-2.36,1.18,1.18.295,1.77.59,2.065,1.18s.59.885.59,1.475v9.145H23.3v-7.375c0-1.18,0-2.065-.295-2.36s-.59-.295-1.475-.295v10.03h-5.31Zm5.31,3.835v5.015c.59,0,.885,0,1.18-.295s.295-.885.295-1.77V97.64a2.21,2.21,0,0,0-.295-1.475C22.714,95.87,22.124,95.87,21.534,95.87Z" fill="#006"/>
      <rect id="XMLID_9_" width="5.31" height="22.419" transform="translate(30.088 92.035)" fill="#006"/>
      <path id="XMLID_10_" d="M50.147,101.77h-5.31V97.935c0-1.18,0-1.77-.295-2.065,0-.295-.295-.295-.885-.295-.295,0-.59.295-.885.59a15.883,15.883,0,0,0-.295,2.36V108.85c0,1.18,0,1.77.295,2.065,0,.295.295.59.885.59.295,0,.59-.295.885-.59a15.883,15.883,0,0,0,.295-2.36V105.6h5.31v.885a19.249,19.249,0,0,1-.59,5.015,5.454,5.454,0,0,1-2.065,2.655,7.653,7.653,0,0,1-7.67.295,4.707,4.707,0,0,1-2.065-2.655,19.249,19.249,0,0,1-.59-5.015v-6.49a10.179,10.179,0,0,1,.295-3.54,3.923,3.923,0,0,1,.885-2.36,3.966,3.966,0,0,1,2.065-1.77,8.727,8.727,0,0,1,2.95-.59,7.38,7.38,0,0,1,3.835.885,5.247,5.247,0,0,1,2.065,2.36,16.714,16.714,0,0,1,.59,4.72v1.77Z" fill="#006"/>
      <path id="XMLID_11_" d="M51.917,92.035h8.85V96.46h-3.54v4.425h3.54v4.13h-3.54v5.015h4.13v4.425h-9.44Z" fill="#006"/>
      <path id="XMLID_12_" d="M79.351,92.035v22.419h-4.72V99.115l-1.77,15.339H69.617L67.552,99.705v14.749h-4.72V92.035h6.785c.295,1.475.295,2.95.59,4.72l.59,5.6,1.18-10.619h7.375Z" fill="#f90"/>
      <rect id="XMLID_13_" width="5.31" height="22.419" transform="translate(81.416 92.035)" fill="#f90"/>
      <path id="XMLID_14_" d="M100.59,92.035v22.419H96.165l-2.95-10.324v10.324H88.791V92.035h4.425l2.95,10.029V92.035Z" fill="#f90"/>
      <rect id="XMLID_15_" width="5.31" height="22.419" transform="translate(102.95 92.035)" fill="#f90"/>
      <path id="XMLID_16_" d="M121.534,98.82h-5.015V97.05c0-.885,0-1.18-.295-1.475,0-.295-.295-.295-.59-.295s-.59,0-.59.295c-.295.295-.295.59-.295,1.18a3.194,3.194,0,0,0,.295,1.77A6.644,6.644,0,0,0,116.519,100a15.387,15.387,0,0,1,4.425,3.835,9.538,9.538,0,0,1,.885,4.72,11,11,0,0,1-.59,3.54,2.587,2.587,0,0,1-2.065,1.77,7.522,7.522,0,0,1-7.08,0,5.247,5.247,0,0,1-2.065-2.36,13.092,13.092,0,0,1-.59-3.835v-1.475h5.6v2.95c0,.885,0,1.475.295,1.77,0,.295.295.295.885.295.295,0,.59-.295.885-.59a2.21,2.21,0,0,0,.295-1.475,5.89,5.89,0,0,0-.59-2.655,22.151,22.151,0,0,0-2.36-2.065c-1.18-.885-2.065-1.77-2.655-2.065a9.18,9.18,0,0,1-1.18-1.77,9.094,9.094,0,0,1-.295-2.95,11.557,11.557,0,0,1,.59-3.835,3.119,3.119,0,0,1,2.065-1.77,5.835,5.835,0,0,1,3.245-.59,6.291,6.291,0,0,1,3.54.885,12.83,12.83,0,0,1,2.065,1.77,11.557,11.557,0,0,1,.59,3.835v.885Z" fill="#f90"/>
      <path id="XMLID_17_" d="M134.513,92.035V96.46h-3.245v17.994h-5.31V96.46h-3.245V92.035Z" fill="#f90"/>
      <path id="XMLID_18_" d="M135.693,92.035h8.85V96.46H141v4.425h3.245v4.13H141v5.015h3.835v4.425h-9.145Z" fill="#f90"/>
      <path id="XMLID_21_" d="M146.313,92.035h3.835a19.758,19.758,0,0,1,5.015.295,3.966,3.966,0,0,1,2.065,1.77,7.813,7.813,0,0,1,.885,4.13,8.472,8.472,0,0,1-.59,3.54c-.295.59-1.18.885-2.36,1.18,1.18.295,1.77.59,2.065,1.18s.59.885.59,1.475v9.145h-4.425v-7.375c0-1.18,0-2.065-.295-2.36s-.59-.295-1.475-.295v10.03h-5.31Zm5.31,3.835v5.015c.59,0,.885,0,1.18-.295s.295-.885.295-1.77V97.64a2.21,2.21,0,0,0-.295-1.475C152.8,95.87,152.212,95.87,151.622,95.87Z" fill="#f90"/>
      <rect id="XMLID_22_" width="1.475" height="23.009" transform="translate(163.717 91.74)" fill="#006"/>
      <rect id="XMLID_23_" width="3.54" height="23.009" transform="translate(166.372 91.74)" fill="#006"/>
      <rect id="XMLID_24_" width="1.475" height="23.009" transform="translate(182.891 91.74)" fill="#006"/>
      <rect id="XMLID_25_" width="1.475" height="23.009" transform="translate(171.091 91.74)" fill="#006"/>
      <rect id="XMLID_26_" width="1.475" height="23.009" transform="translate(173.746 91.74)" fill="#006"/>
      <rect id="XMLID_27_" width="3.54" height="23.009" transform="translate(178.171 91.74)" fill="#006"/>
      <rect id="XMLID_28_" width="3.54" height="23.009" transform="translate(189.971 91.74)" fill="#f90"/>
      <rect id="XMLID_29_" width="3.54" height="23.009" transform="translate(185.251 91.74)" fill="#f90"/>
      <rect id="XMLID_30_" width="1.475" height="23.009" transform="translate(194.395 91.74)" fill="#f90"/>
      <rect id="XMLID_31_" width="1.475" height="23.009" transform="translate(199.115 91.74)" fill="#f90"/>
      <rect id="XMLID_32_" width="1.475" height="23.009" transform="translate(201.77 91.74)" fill="#f90"/>
    </g>
  </g>
</svg>
