<svg xmlns="http://www.w3.org/2000/svg" xmlns:xlink="http://www.w3.org/1999/xlink" width="60" height="60" viewBox="0 0 60 60"><defs><style>.a{fill:#fff;stroke:#707070;}.b{clip-path:url(#a);}.c{fill:#3d6e72;}.d{fill:#af650f;}</style><clipPath id="a"><rect class="a" width="60" height="60" transform="translate(2133 2989)"/></clipPath></defs><g class="b" transform="translate(-2133 -2989)"><g transform="translate(2048.02 3015.988)"><g transform="translate(83.868 -28.054)"><path class="c" d="M43.644,36.089V54.844a3.756,3.756,0,0,1-3.733,3.733H14.844a3.756,3.756,0,0,1-3.733-3.733h0V7.378a3.756,3.756,0,0,1,3.733-3.733h8.8V1.067h-8.8A6.24,6.24,0,0,0,8.622,7.289V54.844a6.24,6.24,0,0,0,6.222,6.222H39.911a6.24,6.24,0,0,0,6.222-6.222V36.089Z"/><rect class="c" width="8.8" height="2.489" transform="translate(9.867 8.622)"/><rect class="c" width="35.022" height="2.489" transform="translate(9.867 51.111)"/><path class="c" d="M37.333,1.067A16.274,16.274,0,0,0,21.067,17.333h2.489A13.778,13.778,0,1,1,37.333,31.111h0V33.6a16.267,16.267,0,1,0,0-32.533Z"/><path class="d" d="M39.911,11.111H34.933A2.485,2.485,0,0,0,32.444,13.6v2.489a2.485,2.485,0,0,0,2.489,2.489h2.4V16.089H34.844V13.6h4.978v1.244h2.489V13.6A2.359,2.359,0,0,0,39.911,11.111Z"/><path class="d" d="M39.911,16.089H37.333v2.489h2.489v2.489H34.844V19.822H32.356v1.244a2.485,2.485,0,0,0,2.489,2.489h4.978a2.485,2.485,0,0,0,2.489-2.489V18.578A2.41,2.41,0,0,0,39.911,16.089Z"/><rect class="d" width="2.489" height="3.733" transform="translate(36.089 8.622)"/><rect class="d" width="2.489" height="3.733" transform="translate(36.089 22.311)"/><path class="d" d="M27.378,26.133H16.089v2.489H27.378a2.318,2.318,0,0,1,2.489,2.222V33.6h2.489V30.844A4.857,4.857,0,0,0,27.378,26.133Z"/><path class="d" d="M21.956,23.2l-1.778-1.778L15.2,26.4a1.351,1.351,0,0,0,0,1.778h0l4.978,4.978,1.778-1.778-4.089-4.089Z"/><path class="d" d="M19.822,39.911a2.318,2.318,0,0,1-2.489-2.222V34.933H14.844V37.6a4.857,4.857,0,0,0,4.978,4.711H31.111V39.822H19.822Z"/><path class="d" d="M32,40.267l-4.978-4.978-1.778,1.778,4.089,4.089-4.089,4.089,1.778,1.778L32,42.044a1.351,1.351,0,0,0,0-1.778Z"/><path class="c" d="M38.578,42.4v3.733H34.844v2.489h4.978a1.215,1.215,0,0,0,1.244-1.244h0V42.4Z"/></g></g></g></svg>