<svg xmlns="http://www.w3.org/2000/svg" xmlns:xlink="http://www.w3.org/1999/xlink" width="70" height="70" viewBox="0 0 70 70"><defs><style>.a{fill:#fff;stroke:#707070;}.b{clip-path:url(#a);}.c{fill:#393939;}</style><clipPath id="a"><rect class="a" width="70" height="70" transform="translate(102.195)"/></clipPath></defs><g class="b" transform="translate(-102.195)"><g transform="translate(98.629 -4.017)"><path class="c" d="M49.843,26.645c1.292,0,1.911.53,1.911,1.635a1.788,1.788,0,0,1-1.9,1.635,1.917,1.917,0,0,1-1.79-1.083,1.062,1.062,0,1,0-1.955.829A3.912,3.912,0,0,0,48.783,31.9v.563a1.06,1.06,0,1,0,2.121,0V31.9a3.8,3.8,0,0,0,2.972-3.6c0-2.276-1.58-3.756-4.032-3.756-1.292,0-1.9-.519-1.9-1.635a1.788,1.788,0,0,1,1.9-1.635,1.917,1.917,0,0,1,1.79,1.083,1.062,1.062,0,1,0,1.955-.829A3.93,3.93,0,0,0,50.9,19.288v-.563a1.06,1.06,0,0,0-2.121,0V19.3a3.8,3.8,0,0,0-2.961,3.6C45.822,25.165,47.4,26.645,49.843,26.645Z"/><path class="c" d="M25.805,27.352A11.665,11.665,0,1,0,14.14,15.687,11.683,11.683,0,0,0,25.805,27.352Zm0-21.21a9.544,9.544,0,1,1-9.544,9.544A9.554,9.554,0,0,1,25.805,6.142Z"/><path class="c" d="M25.805,16.747c1.281,0,1.911.53,1.911,1.635a1.788,1.788,0,0,1-1.9,1.635,1.917,1.917,0,0,1-1.79-1.083,1.062,1.062,0,0,0-1.955.829,3.912,3.912,0,0,0,2.673,2.243v.563a1.06,1.06,0,0,0,2.121,0v-.585a3.792,3.792,0,0,0,2.972-3.6c0-2.276-1.58-3.756-4.032-3.756-1.281,0-1.9-.53-1.9-1.635a1.788,1.788,0,0,1,1.9-1.635,1.917,1.917,0,0,1,1.79,1.083,1.062,1.062,0,0,0,1.955-.829,3.93,3.93,0,0,0-2.684-2.243V8.815a1.06,1.06,0,1,0-2.121,0V9.39a3.8,3.8,0,0,0-2.961,3.6C21.773,15.267,23.353,16.747,25.805,16.747Z"/><path class="c" d="M73.318,67.275,65.453,44.11a5.844,5.844,0,0,0-5.645-3.6H48.739c.022-.254.044-.519.044-.784a11.637,11.637,0,0,0-.3-2.574,10.938,10.938,0,0,0,1.359.088A11.665,11.665,0,1,0,38.178,25.573a11.545,11.545,0,0,0,.32,2.563,11.442,11.442,0,0,0-1.381-.088A11.683,11.683,0,0,0,25.452,39.713c0,.265.022.519.044.784H17.255A5.827,5.827,0,0,0,11.61,44.11l-7.8,23.165a4.533,4.533,0,0,0,.674,4.2A6.479,6.479,0,0,0,9.81,74.014H67.32a6.522,6.522,0,0,0,5.336-2.53A4.546,4.546,0,0,0,73.318,67.275ZM59.819,42.63a3.716,3.716,0,0,1,3.634,2.154L69.209,61.8v.011h0a2.233,2.233,0,0,1-.354,2.077,4.113,4.113,0,0,1-3.336,1.524H61.553L56.494,42.63h3.325ZM49.843,16.04a9.544,9.544,0,1,1,0,19.089,9.287,9.287,0,0,1-2.154-.287,11.688,11.688,0,0,0-6.871-6.164A9.507,9.507,0,0,1,49.843,16.04ZM37.117,30.18a9.544,9.544,0,1,1-9.544,9.544A9.561,9.561,0,0,1,37.117,30.18ZM25.828,42.63a11.655,11.655,0,0,0,22.58,0h5.91l5.059,22.779H17.752L22.812,42.63h3.016ZM7.932,61.8l5.689-17a3.724,3.724,0,0,1,3.634-2.165h3.391L15.587,65.408H11.621a4.113,4.113,0,0,1-3.336-1.524A2.219,2.219,0,0,1,7.932,61.8Zm63,8.44a4.456,4.456,0,0,1-3.612,1.646H9.81A4.456,4.456,0,0,1,6.2,70.236a2.476,2.476,0,0,1-.387-2.287l.906-2.64a6.214,6.214,0,0,0,4.894,2.2H65.519a6.249,6.249,0,0,0,4.894-2.2l.906,2.629A2.485,2.485,0,0,1,70.932,70.236Z"/><path class="c" d="M12.936,59.366a1.18,1.18,0,0,0,.276.033,1.071,1.071,0,0,0,1.027-.784l2.386-8.793a1.059,1.059,0,1,0-2.044-.552L12.2,58.062A1.061,1.061,0,0,0,12.936,59.366Z"/><path class="c" d="M63.276,59.311a1.052,1.052,0,0,0,.309.751,1.071,1.071,0,0,0,.751.309,1.056,1.056,0,0,0,1.061-1.06,1.009,1.009,0,0,0-.309-.751,1.1,1.1,0,0,0-1.5,0A1.052,1.052,0,0,0,63.276,59.311Z"/><path class="c" d="M61.586,53.268a1.084,1.084,0,0,0,1.027.773A.91.91,0,0,0,62.9,54a1.046,1.046,0,0,0,.729-1.3,1.072,1.072,0,0,0-1.3-.751A1.109,1.109,0,0,0,61.586,53.268Z"/><path class="c" d="M61.951,46.673a1.052,1.052,0,0,0-.309-.751,1.1,1.1,0,0,0-1.5,0,1.067,1.067,0,0,0,0,1.5,1.091,1.091,0,0,0,.751.309,1.052,1.052,0,0,0,.751-.309A1.071,1.071,0,0,0,61.951,46.673Z"/><path class="c" d="M37.117,40.785c1.281,0,1.911.53,1.911,1.624a1.788,1.788,0,0,1-1.9,1.635,1.917,1.917,0,0,1-1.79-1.083,1.062,1.062,0,0,0-1.955.829,3.912,3.912,0,0,0,2.673,2.243V46.6a1.06,1.06,0,0,0,2.121,0v-.563a3.792,3.792,0,0,0,2.972-3.6c0-2.276-1.58-3.756-4.032-3.756-1.292,0-1.9-.519-1.9-1.635a1.788,1.788,0,0,1,1.9-1.635,1.917,1.917,0,0,1,1.79,1.083,1.062,1.062,0,1,0,1.955-.829,3.93,3.93,0,0,0-2.684-2.243v-.563a1.06,1.06,0,0,0-2.121,0v.574a3.8,3.8,0,0,0-2.961,3.6C33.085,39.316,34.665,40.785,37.117,40.785Z"/></g></g></svg>