<svg xmlns="http://www.w3.org/2000/svg" xmlns:xlink="http://www.w3.org/1999/xlink" width="70" height="70" viewBox="0 0 70 70"><defs><style>.a,.c{fill:#f89522;}.a{stroke:#707070;}.b{clip-path:url(#a);}</style><clipPath id="a"><rect class="a" width="70" height="70" transform="translate(4.02 -12.219)"/></clipPath></defs><g class="b" transform="translate(-4.02 12.219)"><g transform="translate(4.02 -12.219)"><path class="c" d="M68.608,26.847a4.6,4.6,0,0,0-3.381-1.392H44.545V4.772a4.6,4.6,0,0,0-1.392-3.381A4.6,4.6,0,0,0,39.771,0H30.227a4.6,4.6,0,0,0-3.381,1.392,4.6,4.6,0,0,0-1.392,3.381V25.455H4.772a4.6,4.6,0,0,0-3.381,1.392A4.6,4.6,0,0,0,0,30.227v9.546a4.6,4.6,0,0,0,1.392,3.38,4.6,4.6,0,0,0,3.381,1.392H25.454V65.228A4.751,4.751,0,0,0,30.227,70h9.545a4.751,4.751,0,0,0,4.773-4.772V44.545H65.227A4.753,4.753,0,0,0,70,39.773V30.227A4.6,4.6,0,0,0,68.608,26.847Z" transform="translate(0 0)"/></g></g></svg>