<svg xmlns="http://www.w3.org/2000/svg" xmlns:xlink="http://www.w3.org/1999/xlink" width="100" height="100" viewBox="0 0 100 100"><defs><style>.a{fill:#fff;stroke:#707070;}.b{clip-path:url(#a);}.c{fill:#3d6e72;}.d{fill:#af650f;}</style><clipPath id="a"><rect class="a" width="100" height="100" transform="translate(551.104 1395)"/></clipPath></defs><g class="b" transform="translate(-551.104 -1395)"><g transform="translate(549.071 1392.978)"><path class="c" d="M95.013,32.751V29.466c.937-.045,1.829-.074,2.676-.119a4.536,4.536,0,0,0,2.438-8.221,101.826,101.826,0,0,0-12.042-7.359,1.466,1.466,0,0,0-1.353,2.6,97.826,97.826,0,0,1,11.685,7.151,1.617,1.617,0,0,1-.862,2.929c-6.839.312-17.349.714-29.243.922a16.815,16.815,0,0,0,.164-2.3,16.443,16.443,0,0,0-32.885,0,16.985,16.985,0,0,0,.164,2.3c-11.893-.208-22.389-.624-29.243-.922a1.547,1.547,0,0,1-1.472-1.16,1.584,1.584,0,0,1,.61-1.769A109.369,109.369,0,0,1,52.033,5.01a112.825,112.825,0,0,1,29.51,8.8,1.47,1.47,0,1,0,1.219-2.676A115.666,115.666,0,0,0,52.256,2.066a1.126,1.126,0,0,0-.446,0A112.784,112.784,0,0,0,3.94,21.111a4.536,4.536,0,0,0,2.438,8.221c.833.045,1.725.074,2.676.119v3.286a4.58,4.58,0,0,0,3.36,4.4c-.312,12.414-.3,24.961.059,37.375a4.577,4.577,0,0,0-3.434,4.415v4.847a4.646,4.646,0,0,0,.282,1.591H8.875a6.319,6.319,0,0,0-5.724,3.821,10.609,10.609,0,0,0,0,8.667,6.335,6.335,0,0,0,5.724,3.821c14.317.208,28.737.327,43.143.327s28.826-.1,43.143-.327a6.319,6.319,0,0,0,5.724-3.821,10.609,10.609,0,0,0,0-8.667,6.311,6.311,0,0,0-5.724-3.821h-.446A4.777,4.777,0,0,0,95,83.773V78.927a4.56,4.56,0,0,0-3.434-4.415c.357-12.414.387-24.961.059-37.375a4.541,4.541,0,0,0,3.39-4.386ZM69.918,30.239v2.512a4.58,4.58,0,0,0,3.36,4.4c-.312,12.414-.3,24.961.059,37.375A4.577,4.577,0,0,0,69.9,78.942v4.847a4.494,4.494,0,0,0,.208,1.338c-1.918-.015-3.821-.03-5.739-.03a4.717,4.717,0,0,0,.193-1.308V78.942a4.56,4.56,0,0,0-3.434-4.415c.342-11.908.387-23.965.1-35.873a16.561,16.561,0,0,0,6.363-8.37l2.319-.045ZM88.724,37.3c.312,12.31.3,24.768-.059,37.077H76.281c-.357-12.31-.387-24.768-.059-37.077ZM43.054,85.067a1.6,1.6,0,0,1-.639-1.293V78.927a1.627,1.627,0,0,1,1.635-1.62H60.031a1.637,1.637,0,0,1,1.635,1.62v4.847a1.62,1.62,0,0,1-.639,1.293c-6.006-.015-11.983-.015-17.974,0Zm8.979-43.574a16.248,16.248,0,0,0,6.318-1.264c.238,11.343.193,22.82-.134,34.149H45.834c-.327-11.343-.372-22.805-.134-34.149a16.655,16.655,0,0,0,6.333,1.264Zm0-29.971A13.514,13.514,0,1,1,38.519,25.035,13.533,13.533,0,0,1,52.033,11.522ZM42.816,38.653c-.282,11.908-.238,23.95.1,35.858a4.577,4.577,0,0,0-3.434,4.415v4.847a4.29,4.29,0,0,0,.193,1.308c-1.918.015-3.821.015-5.739.03a4.494,4.494,0,0,0,.208-1.338V78.927a4.563,4.563,0,0,0-3.419-4.415c.045-1.71.089-3.4.134-5.04a1.465,1.465,0,1,0-2.929-.074c-.03,1.606-.074,3.271-.119,4.951H15.432c-.357-12.31-.387-24.768-.059-37.077H27.89c.223,8.771.282,17.6.164,26.269A1.472,1.472,0,0,0,29.5,65.027h.015a1.447,1.447,0,0,0,1.457-1.442c.119-8.742.059-17.632-.164-26.477a4.566,4.566,0,0,0,3.36-4.4V30.194l2.3.045a16.3,16.3,0,0,0,6.348,8.415ZM11.983,29.57c5.367.208,11.968.431,19.237.595v2.572a1.624,1.624,0,0,1-1.62,1.62h-16a1.637,1.637,0,0,1-1.635-1.62l.015-3.167Zm0,54.2V78.927a1.627,1.627,0,0,1,1.635-1.62H29.585a1.624,1.624,0,0,1,1.62,1.62v4.847a1.632,1.632,0,0,1-.728,1.353q-8.719.067-17.394.193A1.622,1.622,0,0,1,11.983,83.773Zm86.226,6.571a7.666,7.666,0,0,1,0,6.363,3.43,3.43,0,0,1-3.077,2.052c-28.6.431-57.608.431-86.212,0a3.366,3.366,0,0,1-3.077-2.052,7.666,7.666,0,0,1,0-6.363A3.43,3.43,0,0,1,8.92,88.293c14.3-.208,28.707-.327,43.1-.327s28.8.1,43.1.327A3.418,3.418,0,0,1,98.209,90.345ZM92.084,78.927v4.847a1.622,1.622,0,0,1-1.1,1.546c-5.783-.074-11.581-.149-17.394-.193a1.632,1.632,0,0,1-.728-1.353V78.927a1.615,1.615,0,0,1,1.62-1.62H90.463a1.624,1.624,0,0,1,1.62,1.62Zm-1.62-44.555H74.482a1.624,1.624,0,0,1-1.62-1.62V30.179c7.27-.164,13.871-.387,19.237-.595v3.167A1.647,1.647,0,0,1,90.463,34.372Z"/><path class="d" d="M46.547,32.543a8.875,8.875,0,0,0,3.91,1.189v.7a1.473,1.473,0,0,0,.431,1.041,1.447,1.447,0,0,0,1.041.431A1.475,1.475,0,0,0,53.4,34.431v-.8a5.832,5.832,0,0,0,4.861-4.713c.342-2.453-1.219-4.549-3.969-5.352L53.4,23.3V19.252a4.152,4.152,0,0,1,1.293.535,1.46,1.46,0,0,0,1.695-2.379,7.341,7.341,0,0,0-3-1.145v-.595a1.472,1.472,0,0,0-2.944,0v.684c-.119.03-.238.045-.342.074a4.918,4.918,0,0,0-3.761,3.85,3.87,3.87,0,0,0,1.695,3.955,12.61,12.61,0,0,0,2.408,1.16v5.4a5.861,5.861,0,0,1-2.527-.833,1.461,1.461,0,0,0-1.725,2.319,1.6,1.6,0,0,0,.357.268Zm6.913-6.185c1.338.387,2.022,1.16,1.888,2.126a2.834,2.834,0,0,1-1.962,2.081V26.329C53.416,26.344,53.431,26.359,53.46,26.359ZM49.64,21.765a.955.955,0,0,1-.4-1.011,1.857,1.857,0,0,1,1.219-1.383V22.2A5.951,5.951,0,0,1,49.64,21.765Z"/></g></g></svg>