<svg xmlns="http://www.w3.org/2000/svg" xmlns:xlink="http://www.w3.org/1999/xlink" width="70" height="70" viewBox="0 0 70 70"><defs><style>.a,.c{fill:#f89522;}.a{stroke:#707070;}.b{clip-path:url(#a);}</style><clipPath id="a"><rect class="a" width="70" height="70" transform="translate(4.02 -12.219)"/></clipPath></defs><g class="b" transform="translate(-4.02 12.219)"><g transform="translate(4.02 -6.931)"><path class="c" d="M43.115,61.947H38.472V19.4H58.039L49.751,32.549a1.427,1.427,0,0,0,2.415,1.522l7.188-11.406,7.188,11.406a1.427,1.427,0,0,0,2.415-1.522L60.669,19.4h.1a2.212,2.212,0,1,0,0-4.425H44.5a7.242,7.242,0,0,0-3.864-2.83,5.037,5.037,0,0,0-10.033,0,7.241,7.241,0,0,0-3.864,2.83H10.461a2.212,2.212,0,1,0,0,4.425h.1L2.278,32.549a1.427,1.427,0,0,0,2.415,1.522l7.188-11.406,7.188,11.406a1.428,1.428,0,0,0,2.415-1.522L13.2,19.4H32.763V61.947H28.12a5.031,5.031,0,0,0-5.031,5.031H48.146A5.031,5.031,0,0,0,43.115,61.947Z" transform="translate(-0.617 -7.554)"/><path class="c" d="M21.766,48.556H.761A.761.761,0,0,0,0,49.317a11.264,11.264,0,0,0,22.527,0A.761.761,0,0,0,21.766,48.556Z" transform="translate(0 -19.855)"/><path class="c" d="M89.584,48.556H68.579a.761.761,0,0,0-.761.761,11.264,11.264,0,0,0,22.527,0A.761.761,0,0,0,89.584,48.556Z" transform="translate(-20.345 -19.855)"/></g></g></svg>