<?xml version="1.0" standalone="no"?>
<!DOCTYPE svg PUBLIC "-//W3C//DTD SVG 1.1//EN" "http://www.w3.org/Graphics/SVG/1.1/DTD/svg11.dtd" >
<svg xmlns="http://www.w3.org/2000/svg" xmlns:xlink="http://www.w3.org/1999/xlink" version="1.1">
<metadata>
Created by FontForge 20170731 at Tue Jul  7 21:15:57 2015
 By Aleksey,,,
Copyright (c) 2015 by Eduardo Manso. All rights reserved.
</metadata>
<defs>
<font id="CiutadellaRounded-Regular5" horiz-adv-x="490" >
  <font-face 
    font-family="Ciutadella Rounded  "
    font-weight="400"
    font-stretch="normal"
    units-per-em="1000"
    panose-1="2 0 0 0 0 0 0 0 0 0"
    ascent="800"
    descent="-200"
    x-height="488"
    cap-height="662"
    bbox="-210.923 -205 1370 865"
    underline-thickness="50"
    underline-position="-150"
    unicode-range="U+000D-FB05"
  />
<missing-glyph horiz-adv-x="841" 
d="M513 144l-92 92l-92 -92q-12 -12 -21 -12q-10 0 -21 12l-51 52q-11 11 -11 19q0 11 12 21l92 92l-92 92q-13 12 -13 22q0 8 11 19l51 52q10 11 21 11q10 0 22 -12l92 -92l92 92q13 13 22 13q8 0 19 -11l52 -51q11 -10 11 -22q0 -11 -12 -21l-92 -92l92 -92q12 -14 12 -21
q0 -11 -12 -21l-52 -51q-11 -11 -19 -11q-9 0 -21 12zM80 328q0 141 99.5 240t240.5 99t240.5 -99t99.5 -240t-100 -239.5t-241 -98.5t-240 98.5t-99 239.5zM128 328q0 -122 85 -207.5t206 -85.5t206.5 85.5t85.5 207.5t-85 208t-206 86t-206.5 -86t-85.5 -208z" />
    <glyph glyph-name="fi" unicode="fi" horiz-adv-x="520" 
d="M198 486h258q11 0 17 -7t4 -18l-79 -446q-4 -20 -25 -20q-12 0 -18.5 7.5t-4.5 18.5l75 423h-235l-75 -428q-4 -21 -26 -21q-12 0 -18.5 7.5t-4.5 18.5l75 423h-65q-20 0 -20 20q0 22 24 22h68l5 29q28 162 183 162h158q21 0 21 -21q0 -23 -25 -23h-163q-102 0 -123 -114
z" />
    <glyph glyph-name="fl" unicode="fl" horiz-adv-x="527" 
d="M510 652l-112 -636q-4 -21 -26 -21q-12 0 -18.5 7.5t-4.5 18.5l109 612h-131q-102 0 -123 -114l-6 -33h110q20 0 20 -20q0 -22 -24 -22h-114l-75 -428q-4 -21 -26 -21q-12 0 -18.5 7.5t-4.5 18.5l75 423h-65q-20 0 -20 20q0 22 24 22h68l5 29q28 162 183 162h153
q11 0 17 -7t4 -18z" />
    <glyph glyph-name=".notdef" horiz-adv-x="841" 
d="M513 144l-92 92l-92 -92q-12 -12 -21 -12q-10 0 -21 12l-51 52q-11 11 -11 19q0 11 12 21l92 92l-92 92q-13 12 -13 22q0 8 11 19l51 52q10 11 21 11q10 0 22 -12l92 -92l92 92q13 13 22 13q8 0 19 -11l52 -51q11 -10 11 -22q0 -11 -12 -21l-92 -92l92 -92q12 -14 12 -21
q0 -11 -12 -21l-52 -51q-11 -11 -19 -11q-9 0 -21 12zM80 328q0 141 99.5 240t240.5 99t240.5 -99t99.5 -240t-100 -239.5t-241 -98.5t-240 98.5t-99 239.5zM128 328q0 -122 85 -207.5t206 -85.5t206.5 85.5t85.5 207.5t-85 208t-206 86t-206.5 -86t-85.5 -208z" />
    <glyph glyph-name="glyph1" horiz-adv-x="0" 
 />
    <glyph glyph-name="glyph2" horiz-adv-x="333" 
 />
    <glyph glyph-name=".null" horiz-adv-x="0" 
 />
    <glyph glyph-name=".null" horiz-adv-x="0" 
 />
    <glyph glyph-name="nonmarkingreturn" unicode="&#xd;" horiz-adv-x="0" 
 />
    <glyph glyph-name="space" unicode=" " horiz-adv-x="219" 
 />
    <glyph glyph-name="exclam" unicode="!" horiz-adv-x="226" 
d="M202 633l-26 -145l-66 -318q-3 -17 -19 -17t-14 17l45 318l27 151q4 23 28 23q13 0 20 -8.5t5 -20.5zM28 24q0 19 12 33t32 14q17 0 27.5 -9.5t10.5 -25.5q0 -19 -12.5 -32.5t-32.5 -13.5q-16 0 -26.5 9t-10.5 25z" />
    <glyph glyph-name="quotedbl" unicode="&#x22;" horiz-adv-x="285" 
d="M119 586l10 54q4 22 26 22q13 0 19.5 -7.5t4.5 -19.5l-9 -49q-5 -32 -40 -149q-3 -10 -13 -10t-10 11q0 88 12 148zM220 586l10 54q4 22 26 22q13 0 19.5 -7.5t4.5 -19.5l-9 -49q-5 -32 -40 -149q-3 -10 -13 -10t-10 11q0 88 12 148z" />
    <glyph glyph-name="numbersign" unicode="#" horiz-adv-x="643" 
d="M437 169l-27 -150q-5 -24 -26 -24q-26 0 -22 24l27 150h-179l-27 -150q-5 -24 -26 -24q-11 0 -17.5 6.5t-4.5 17.5l27 150h-92q-22 0 -22 22q0 10 6 16.5t16 6.5h101l42 229h-113q-22 0 -22 22q0 10 6 16.5t16 6.5h122l27 150q5 24 26 24q11 0 17.5 -6.5t4.5 -17.5
l-27 -150h179l27 150q5 24 26 24q26 0 22 -24l-27 -150h92q10 0 16 -6.5t6 -16.5q0 -22 -22 -22h-101l-42 -229h113q10 0 16 -6.5t6 -16.5q0 -22 -22 -22h-122zM261 443l-42 -229h179l42 229h-179z" />
    <glyph glyph-name="dollar" unicode="$" horiz-adv-x="491" 
d="M351 747l-15 -83q65 -10 102.5 -54.5t28.5 -115.5q-3 -24 -25 -24q-27 0 -24 29q6 56 -26.5 89.5t-97.5 33.5q-68 0 -108 -34.5t-40 -89.5q0 -64 64 -96l88 -44q26 -13 45 -25.5t39.5 -31.5t31.5 -45t11 -57q0 -94 -56 -150.5t-152 -58.5l-14 -83q-4 -20 -24 -20
q-11 0 -17.5 6.5t-4.5 16.5l14 83q-71 10 -113 54t-32 118q3 24 25 24q26 0 23 -27q-6 -64 35.5 -95.5t107.5 -31.5q70 0 113 43.5t43 109.5q0 25 -8 45t-26.5 35.5t-33 24.5t-41.5 22l-64 32q-103 52 -103 140q0 79 52 127.5t140 52.5l16 83q4 20 24 20q11 0 17.5 -6.5
t4.5 -16.5z" />
    <glyph glyph-name="percent" unicode="%" horiz-adv-x="619" 
d="M377 225l-24 -131q-1 -5 -1 -14q0 -23 15.5 -38.5t42.5 -15.5q29 0 50 18.5t27 49.5l24 131q1 5 1 15q0 24 -14.5 38.5t-41.5 14.5q-31 0 -52.5 -19t-26.5 -49zM552 223l-22 -127q-9 -50 -40 -78t-84 -28q-41 0 -68.5 23t-27.5 62q0 7 2 21l22 127q9 49 40.5 77.5
t82.5 28.5q42 0 69.5 -23t27.5 -63q0 -6 -2 -20zM147 563l-24 -131q-1 -5 -1 -14q0 -23 15.5 -38.5t42.5 -15.5q30 0 50.5 18.5t26.5 49.5l24 131q1 5 1 15q0 24 -14.5 38.5t-41.5 14.5q-31 0 -52.5 -19t-26.5 -49zM322 561l-21 -127q-9 -50 -40.5 -78t-84.5 -28
q-41 0 -68 23t-27 62q0 7 2 21l21 127q9 49 40.5 77.5t82.5 28.5q42 0 69.5 -23t27.5 -63q0 -6 -2 -20zM334 319l-245 -315q-6 -9 -19 -9q-12 0 -17 11.5t3 20.5l237 301l253 327q5 7 14 7q12 0 19 -11t-1 -22z" />
    <glyph glyph-name="ampersand" unicode="&#x26;" horiz-adv-x="573" 
d="M480 503q-3 -24 -25 -24q-13 0 -19.5 8t-4.5 21q8 49 -21.5 81.5t-86.5 32.5q-72 0 -113.5 -42t-41.5 -107q0 -48 30 -77.5t96 -29.5h235q20 0 20 -20q0 -22 -24 -22h-51l-23 -134q-16 -93 -78.5 -146.5t-158.5 -53.5q-78 0 -130 43.5t-52 112.5q0 72 39.5 125.5
t116.5 76.5q-73 35 -73 123q0 87 56.5 141.5t151.5 54.5q73 0 120.5 -43t36.5 -121zM223 35q71 0 119 42.5t59 108.5l23 138h-142q-95 0 -145 -52t-50 -117q0 -54 35 -87t101 -33z" />
    <glyph glyph-name="quotesingle" unicode="'" horiz-adv-x="185" 
d="M119 586l10 54q4 22 27 22q13 0 19.5 -7.5t4.5 -19.5l-9 -49q-5 -32 -40 -149q-3 -10 -13 -10q-11 0 -11 11q0 88 12 148z" />
    <glyph glyph-name="parenleft" unicode="(" horiz-adv-x="286" 
d="M162 -67q20 0 20 -21q0 -23 -25 -23q-58 2 -91 33t-33 88q0 11 4 39l100 566q25 144 172 150q20 0 20 -21q0 -23 -25 -23q-53 -2 -79.5 -29t-34.5 -73l-102 -574q-4 -26 -4 -35q0 -77 78 -77z" />
    <glyph glyph-name="parenright" unicode=")" horiz-adv-x="285" 
d="M139 721q-20 0 -20 21q0 23 25 23q58 -2 91 -33t33 -88q0 -11 -4 -39l-100 -566q-25 -144 -172 -150q-20 0 -20 21q0 23 25 23q53 2 79.5 29t34.5 73l102 574q4 26 4 35q0 77 -78 77z" />
    <glyph glyph-name="asterisk" unicode="*" horiz-adv-x="401" 
d="M238 662q23 0 23 -24q0 -35 -15 -122q79 68 94 78q20 14 33 -6q10 -19 -9 -32q-9 -6 -113 -52q90 -38 113 -53q20 -13 8 -32q-12 -20 -32 -6q-21 14 -94 77q15 -87 15 -121q0 -24 -23 -24q-22 0 -22 24q0 8 15 121q-72 -62 -95 -77q-20 -14 -32 6q-12 18 8 32
q16 10 112 53q-99 43 -112 52q-19 13 -9 32q13 20 33 6q25 -17 95 -78q-15 105 -15 122q0 24 22 24z" />
    <glyph glyph-name="plus" unicode="+" horiz-adv-x="475" 
d="M267 480v-129h146q21 0 21 -23q0 -22 -21 -22h-146v-129q0 -10 -6.5 -16t-16.5 -6t-16.5 6t-6.5 16v129h-145q-21 0 -21 22q0 23 21 23h145v129q0 10 6.5 16t16.5 6t16.5 -6t6.5 -16z" />
    <glyph glyph-name="comma" unicode="," horiz-adv-x="214" 
d="M97 26l-72 -114q-7 -11 -18 -11t-16 8.5t-1 18.5l54 125q8 18 28 18q17 0 26 -14.5t-1 -30.5z" />
    <glyph glyph-name="hyphen" unicode="-" horiz-adv-x="374" 
d="M63 262q0 24 26 24h195q9 0 15 -6t6 -15q0 -24 -26 -24h-195q-9 0 -15 6t-6 15z" />
    <glyph glyph-name="period" unicode="." horiz-adv-x="210" 
d="M20 24q0 19 12.5 33t32.5 14q17 0 27.5 -9.5t10.5 -25.5q0 -19 -12.5 -32.5t-32.5 -13.5q-16 0 -27 9t-11 25z" />
    <glyph glyph-name="slash" unicode="/" horiz-adv-x="426" 
d="M456 734l-430 -837q-7 -13 -21 -13q-15 0 -20.5 12t1.5 26l428 835q7 13 22 13q13 0 20 -11.5t0 -24.5z" />
    <glyph glyph-name="zero" unicode="0" horiz-adv-x="543" 
d="M159 470l-50 -283q-3 -18 -3 -34q0 -53 33 -84.5t95 -31.5q66 0 110.5 42t56.5 108l50 283q3 18 3 34q0 52 -33 84t-94 32q-67 0 -111.5 -42t-56.5 -108zM502 466l-48 -275q-17 -94 -76 -147.5t-152 -53.5q-75 0 -123.5 43t-48.5 116q0 22 4 42l48 275q17 94 77 147.5
t152 53.5q74 0 122.5 -43.5t48.5 -116.5q0 -13 -4 -41z" />
    <glyph glyph-name="one" unicode="1" horiz-adv-x="376" 
d="M276 0h-254q-22 0 -22 22q0 25 27 25h103l99 563h-99q-22 0 -22 22q0 25 27 25h126q13 0 19.5 -8.5t4.5 -19.5l-102 -582h98q22 0 22 -22q0 -25 -27 -25z" />
    <glyph glyph-name="two" unicode="2" horiz-adv-x="510" 
d="M74 49h319q10 0 16.5 -6.5t6.5 -16.5q0 -26 -28 -26h-354q-25 0 -20 29l1 6q24 148 196 253l109 67q115 70 115 162q0 47 -31.5 75t-93.5 28q-66 0 -108.5 -35t-51.5 -93q-5 -25 -24 -25q-28 0 -24 31q14 78 70.5 123.5t144.5 45.5q74 0 122.5 -39t48.5 -105
q0 -118 -139 -205l-141 -88q-65 -40 -93 -83.5t-41 -97.5z" />
    <glyph glyph-name="three" unicode="3" horiz-adv-x="514" 
d="M84 153q-10 -58 29.5 -87t101.5 -29q81 0 124.5 45.5t43.5 120.5q0 49 -27.5 84t-91.5 35h-39q-9 0 -15 6t-6 15q0 24 26 24h38q85 0 122.5 44t37.5 107q0 45 -32 73.5t-91 28.5q-65 0 -106 -34.5t-52 -96.5q-4 -21 -24 -21q-12 0 -19 8.5t-5 19.5q14 78 70.5 124.5
t143.5 46.5q72 0 120.5 -39.5t48.5 -103.5q0 -133 -125 -181q39 -18 60 -54.5t21 -81.5q0 -101 -61.5 -159t-166.5 -58q-82 0 -136 45t-38 122q4 23 26 23q11 0 17.5 -7.5t4.5 -19.5z" />
    <glyph glyph-name="four" unicode="4" horiz-adv-x="519" 
d="M46 163q-31 0 -31 27q0 12 26 43l339 402q1 1 5.5 6.5t7 8t7.5 6t11.5 5t14.5 1.5q19 0 30 -13t9 -26l-73 -413h52q22 0 22 -22q0 -25 -27 -25h-55l-26 -146q-4 -22 -27 -22q-13 0 -19.5 8t-4.5 19l25 141h-286zM80 210h260l69 388z" />
    <glyph glyph-name="five" unicode="5" horiz-adv-x="508" 
d="M192 610l-44 -249q61 34 120 34q76 0 125 -44.5t49 -116.5q0 -112 -63.5 -178t-170.5 -66q-83 0 -135 43t-39 118q4 24 27 24q11 0 17.5 -9t4.5 -19q-9 -53 29.5 -81.5t102.5 -28.5q82 0 127 53t45 137q0 53 -32 87t-98 34q-61 0 -108 -30q-1 -1 -9.5 -7.5t-15 -9
t-14.5 -2.5q-11 0 -16.5 7.5t-3.5 17.5l55 308q5 25 29 25h296q22 0 22 -22q0 -25 -27 -25h-273z" />
    <glyph glyph-name="six" unicode="6" horiz-adv-x="523" 
d="M325 667q81 0 130 -45t38 -128q-3 -24 -25 -24q-12 0 -18.5 8t-5.5 21q6 55 -26.5 88.5t-98.5 33.5q-67 0 -110.5 -39t-54.5 -101l-28 -155q57 61 148 61q79 0 127.5 -45t48.5 -117q0 -106 -61 -170.5t-163 -64.5q-77 0 -126.5 45t-49.5 126q0 20 5 50l46 265
q15 89 74 140t150 51zM272 339q-89 0 -156 -73l-11 -59q-4 -20 -4 -42q0 -60 35 -94.5t101 -34.5q73 0 115.5 51.5t42.5 129.5q0 51 -30.5 86.5t-92.5 35.5z" />
    <glyph glyph-name="seven" unicode="7" horiz-adv-x="442" 
d="M120 6q-6 -11 -20 -11q-15 0 -22 12.5t1 25.5l329 577h-294q-22 0 -22 22q0 25 27 25h326q13 0 20 -6.5t7 -14.5q0 -9 -18 -41z" />
    <glyph glyph-name="eight" unicode="8" horiz-adv-x="523" 
d="M493 521q0 -63 -35 -112t-91 -73q38 -17 59.5 -51t21.5 -78q0 -95 -61.5 -156t-161.5 -61q-79 0 -132.5 42.5t-53.5 113.5q0 72 37.5 123.5t99.5 75.5q-70 35 -70 119q0 89 58 146t153 57q74 0 125 -40t51 -106zM93 153q0 -52 36.5 -85t101.5 -33q73 0 118 49t45 120
q0 50 -31 82.5t-95 32.5q-86 0 -130.5 -48.5t-44.5 -117.5zM158 466q0 -46 29 -75t89 -29q82 0 122.5 44t40.5 108q0 47 -32 77.5t-91 30.5q-72 0 -115 -44t-43 -112z" />
    <glyph glyph-name="nine" unicode="9" horiz-adv-x="527" 
d="M265 318q93 0 156 73l10 59q4 24 4 39q0 59 -34.5 95.5t-99.5 36.5q-72 0 -115.5 -52t-43.5 -129q0 -51 30 -86.5t93 -35.5zM93 155q-7 -59 31.5 -89t102.5 -30q62 0 104 40t52 100l27 154q-68 -60 -151 -60q-77 0 -124.5 45.5t-47.5 115.5q0 106 61.5 171t162.5 65
q79 0 128 -45t49 -126q0 -20 -5 -50l-47 -265q-15 -88 -71 -139.5t-145 -51.5q-83 0 -134.5 44t-40.5 125q5 25 27 25q9 0 16 -7.5t5 -21.5z" />
    <glyph glyph-name="colon" unicode=":" horiz-adv-x="226" 
d="M28 24q0 19 12 33t32 14q17 0 27.5 -9.5t10.5 -25.5q0 -19 -12.5 -32.5t-32.5 -13.5q-16 0 -26.5 9t-10.5 25zM102 451q0 19 12.5 33t32.5 14q17 0 27 -9.5t10 -25.5q0 -19 -12 -32.5t-32 -13.5q-16 0 -27 9t-11 25z" />
    <glyph glyph-name="semicolon" unicode=";" horiz-adv-x="250" 
d="M120 451q0 19 12.5 33t31.5 14q17 0 27.5 -9.5t10.5 -25.5q0 -19 -12 -32.5t-32 -13.5q-17 0 -27.5 9t-10.5 25zM113 26l-72 -114q-7 -11 -18 -11t-16 8.5t-1 18.5l54 125q8 18 28 18q17 0 26 -14.5t-1 -30.5z" />
    <glyph glyph-name="less" unicode="&#x3c;" horiz-adv-x="476" 
d="M371 178l-301 123q-19 8 -19 25q0 18 19 26l301 123q11 5 21.5 -1.5t10.5 -20.5q0 -13 -15 -19l-269 -107l271 -109q13 -5 13 -18q0 -14 -10 -20.5t-22 -1.5z" />
    <glyph glyph-name="equal" unicode="=" horiz-adv-x="561" 
d="M95 414q0 10 6 16.5t16 6.5h335q10 0 16 -6.5t6 -16.5q0 -22 -22 -22h-335q-22 0 -22 22zM95 244q0 10 6 16.5t16 6.5h335q10 0 16 -6.5t6 -16.5q0 -22 -22 -22h-335q-22 0 -22 22z" />
    <glyph glyph-name="greater" unicode="&#x3e;" horiz-adv-x="467" 
d="M109 472l301 -123q19 -8 19 -25q0 -18 -19 -26l-301 -123q-11 -5 -21.5 1.5t-10.5 20.5q0 13 15 19l269 107l-271 109q-13 5 -13 18q0 14 10 20.5t22 1.5z" />
    <glyph glyph-name="question" unicode="?" horiz-adv-x="467" 
d="M127 489q-2 -21 -26 -21q-12 0 -18 8t-4 19q14 80 72.5 126t149.5 46q71 0 119 -38t48 -99q0 -19 -3.5 -35t-12.5 -32.5t-16 -27t-23.5 -27t-24.5 -23.5t-30 -25.5t-30 -25.5q-3 -3 -19 -16.5t-19.5 -17t-16 -15.5t-17 -19.5t-12.5 -19.5t-12.5 -25t-8.5 -28l-4 -17
q-5 -18 -23 -18t-18 19v13q0 35 21.5 71t44 57.5t63.5 56.5q2 2 27.5 22.5t32 27.5t22 25.5t20.5 35.5t5 38q0 43 -32 69.5t-90 26.5q-69 0 -114 -36.5t-51 -94.5zM137 24q0 19 12 33t32 14q17 0 27.5 -9.5t10.5 -25.5q0 -19 -12.5 -32.5t-31.5 -13.5q-17 0 -27.5 9
t-10.5 25z" />
    <glyph glyph-name="at" unicode="@" horiz-adv-x="793" 
d="M575 403l-89 -256q-11 -30 -11 -55q0 -62 77 -62q54 0 83 40t41 112l24 138q4 21 4 47q0 94 -67.5 146.5t-190.5 52.5q-134 0 -223 -67t-109 -179l-31 -177q-4 -23 -4 -48q0 -96 64.5 -147t184.5 -51h69q9 0 15 -6t6 -15q0 -24 -26 -24h-72q-136 0 -210.5 63.5
t-74.5 174.5q0 30 6 65l27 153q26 143 123 223t263 80q141 0 218 -63.5t77 -175.5q0 -31 -6 -64l-20 -114q-19 -108 -62 -156t-115 -48q-48 0 -79.5 24.5t-31.5 66.5q0 6 2 20q-27 -32 -55 -47t-67 -15q-46 0 -73.5 24.5t-27.5 67.5q0 28 9 52l36 98q26 70 65 106.5
t100 36.5q33 0 62 -15t38 -41l21 40q8 14 18 14q7 0 10.5 -6t1.5 -13zM328 77q40 0 74.5 29t49.5 71l38 109q7 23 7 35q0 29 -20.5 46.5t-59.5 17.5q-38 0 -68.5 -28t-46.5 -73l-36 -105q-9 -24 -9 -43q0 -59 71 -59z" />
    <glyph glyph-name="A" unicode="A" horiz-adv-x="544" 
d="M118 167l-79 -157q-8 -15 -22 -15t-20.5 11.5t0.5 24.5l310 608q12 23 34 23q24 0 27 -25l97 -614q2 -11 -6 -19.5t-21 -8.5q-22 0 -26 25l-22 147h-272zM328 583l-186 -369h241z" />
    <glyph glyph-name="B" unicode="B" horiz-adv-x="551" 
d="M65 0q-13 0 -19.5 8t-4.5 19l107 608q4 22 27 22h173q79 0 125 -41t46 -107q0 -62 -35.5 -105.5t-98.5 -64.5v-1q45 -13 70.5 -48.5t25.5 -85.5q0 -93 -63.5 -148.5t-166.5 -55.5h-186zM310 315h-166l-48 -269h162q76 0 122 43t46 114q0 51 -30.5 81.5t-85.5 30.5z
M338 611h-142l-45 -251h149q74 0 119.5 40t45.5 105q0 49 -31.5 77.5t-95.5 28.5z" />
    <glyph glyph-name="C" unicode="C" horiz-adv-x="539" 
d="M464 178q-13 -88 -74 -138t-155 -50q-81 0 -133 44.5t-52 120.5q0 12 4 40l46 267q17 95 80 150t160 55q82 0 135 -48.5t42 -136.5q-3 -24 -25 -24q-26 0 -23 29q6 62 -29.5 97.5t-107.5 35.5t-119.5 -43t-59.5 -112l-48 -273q-3 -18 -3 -34q0 -55 36.5 -88t104.5 -33
q72 0 117.5 39t55.5 107q3 24 25 24q26 0 23 -29z" />
    <glyph glyph-name="D" unicode="D" horiz-adv-x="567" 
d="M65 0q-13 0 -19.5 8t-4.5 19l107 608q4 22 27 22h175q79 0 130 -45.5t51 -122.5q0 -14 -4 -42l-42 -237q-17 -99 -82.5 -154.5t-167.5 -55.5h-170zM342 610h-146l-100 -563h147q76 0 126 44.5t63 115.5l44 243q3 18 3 35q0 56 -35.5 90.5t-101.5 34.5z" />
    <glyph glyph-name="E" unicode="E" horiz-adv-x="506" 
d="M175 657h317q22 0 22 -22q0 -25 -27 -25h-291l-45 -250h266q22 0 22 -22q0 -25 -27 -25h-269l-47 -266h297q22 0 22 -22q0 -25 -27 -25h-323q-29 0 -24 27l107 608q4 22 27 22z" />
    <glyph glyph-name="F" unicode="F" horiz-adv-x="493" 
d="M175 657h318q22 0 22 -22q0 -25 -27 -25h-292l-48 -268h266q22 0 22 -22q0 -25 -27 -25h-269l-49 -278q-4 -22 -27 -22q-13 0 -19.5 8t-4.5 19l108 613q4 22 27 22z" />
    <glyph glyph-name="G" unicode="G" horiz-adv-x="546" 
d="M432 270h-116q-9 0 -15 6t-6 15q0 24 26 24h138q13 0 19.5 -8.5t4.5 -19.5l-18 -106q-15 -89 -74.5 -140t-154.5 -51q-82 0 -134 44.5t-52 121.5q0 17 4 39l46 267q17 95 80 150t160 55q52 0 95 -18t69 -58.5t17 -96.5q-3 -24 -25 -24q-12 0 -18.5 8t-5.5 21
q6 52 -30 86.5t-110 34.5q-72 0 -119.5 -43t-59.5 -112l-48 -273q-3 -16 -3 -33q0 -55 36.5 -88.5t106.5 -33.5q72 0 116 38.5t55 101.5z" />
    <glyph glyph-name="H" unicode="H" horiz-adv-x="579" 
d="M554 634l-108 -612q-5 -27 -27 -27q-13 0 -19.5 8.5t-4.5 19.5l50 290h-302l-52 -296q-4 -22 -27 -22q-13 0 -19.5 8t-4.5 19l109 618q4 22 27 22q13 0 19.5 -8.5t4.5 -19.5l-49 -274h303l50 280q4 22 26 22q13 0 19.5 -8.5t4.5 -19.5z" />
    <glyph glyph-name="I" unicode="I" horiz-adv-x="225" 
d="M200 634l-109 -617q-4 -22 -27 -22q-13 0 -19.5 8.5t-4.5 19.5l109 616q4 23 27 23q13 0 19.5 -8.5t4.5 -19.5z" />
    <glyph glyph-name="J" unicode="J" horiz-adv-x="480" 
d="M59 176q-14 -62 18.5 -100.5t99.5 -38.5q59 0 98 37.5t50 97.5l82 467q4 23 27 23q13 0 19.5 -8.5t4.5 -19.5l-81 -459q-15 -87 -68.5 -136t-139.5 -49q-87 0 -132.5 56.5t-25.5 134.5q6 23 26 23q12 0 18 -9t4 -19z" />
    <glyph glyph-name="K" unicode="K" horiz-adv-x="530" 
d="M536 623l-218 -230l131 -367q4 -11 -3.5 -21t-19.5 -10q-20 0 -26 17l-121 342l-158 -168l-30 -169q-4 -22 -27 -22q-13 0 -19.5 8t-4.5 19l109 618q4 22 27 22q13 0 19.5 -8t4.5 -19l-65 -372l368 390q9 9 18 9q15 0 20.5 -13.5t-5.5 -25.5z" />
    <glyph glyph-name="L" unicode="L" horiz-adv-x="453" 
d="M372 0h-308q-13 0 -19 8t-4 19l108 612q4 23 27 23q13 0 19.5 -8.5t4.5 -19.5l-104 -587h281q22 0 22 -22q0 -25 -27 -25z" />
    <glyph glyph-name="M" unicode="M" horiz-adv-x="625" 
d="M600 634l-109 -617q-4 -22 -26 -22q-12 0 -18.5 8t-4.5 19l92 524l-212 -318q-10 -15 -23 -15q-15 0 -20 16l-99 317l-93 -530q-4 -21 -25 -21q-12 0 -18 7.5t-4 18.5l109 618q3 23 25 23q20 0 27 -22l110 -350l234 351q13 21 33 21q11 0 17.5 -8.5t4.5 -19.5z" />
    <glyph glyph-name="N" unicode="N" horiz-adv-x="577" 
d="M552 635l-108 -613q-3 -22 -26 -22q-22 0 -30 21l-205 535l-95 -539q-4 -22 -25 -22q-12 0 -18.5 8t-4.5 19l108 613q1 10 9 16t18 6q22 0 30 -21l205 -534l94 538q4 22 25 22q12 0 18.5 -8t4.5 -19z" />
    <glyph glyph-name="O" unicode="O" horiz-adv-x="554" 
d="M153 465l-48 -273q-3 -18 -3 -33q0 -55 36 -88.5t103 -33.5q70 0 117.5 43t59.5 112l47 273q3 17 3 33q0 55 -36 88.5t-102 33.5q-71 0 -118 -43t-59 -112zM516 462l-47 -267q-17 -95 -79 -150t-157 -55q-81 0 -132 44.5t-51 121.5q0 20 4 39l46 267q17 95 79.5 150
t158.5 55q80 0 130.5 -45t50.5 -121q0 -19 -3 -39z" />
    <glyph glyph-name="P" unicode="P" horiz-adv-x="537" 
d="M131 241l-40 -224q-4 -22 -27 -22q-13 0 -19.5 8t-4.5 19l108 610q5 25 29 25h157q87 0 139.5 -48t52.5 -126q0 -108 -72.5 -175t-187.5 -67h-135zM323 611h-127l-58 -324h133q89 0 145.5 53t56.5 137q0 62 -38 98t-112 36z" />
    <glyph glyph-name="Q" unicode="Q" horiz-adv-x="557" 
d="M516 462l-47 -267q-25 -141 -141 -188l58 -102q8 -14 0 -28.5t-25 -14.5q-16 0 -25 14l-64 117q-18 -3 -39 -3q-81 0 -132 44.5t-51 121.5q0 18 4 39l46 267q17 95 79.5 150t158.5 55q80 0 130.5 -45t50.5 -121q0 -19 -3 -39zM153 465l-48 -273q-3 -18 -3 -33
q0 -55 36 -88.5t103 -33.5q70 0 117.5 43t59.5 112l47 273q3 17 3 33q0 55 -36 88.5t-102 33.5q-71 0 -118 -43t-59 -112z" />
    <glyph glyph-name="R" unicode="R" horiz-adv-x="546" 
d="M323 611h-127l-53 -298h133q88 0 143 46.5t55 120.5q0 61 -37.5 96t-113.5 35zM431 29q3 -12 -4.5 -23t-21.5 -11q-21 0 -26 19l-71 256q-24 -2 -38 -2h-135l-44 -251q-4 -22 -27 -22q-13 0 -19.5 8t-4.5 19l108 610q5 25 29 25h157q88 0 141 -47t53 -124q0 -78 -45 -130
t-122 -74z" />
    <glyph glyph-name="S" unicode="S" horiz-adv-x="520" 
d="M230 35q75 0 120.5 43.5t45.5 109.5q0 25 -8.5 44.5t-27 34.5t-33 23t-41.5 21l-82 38q-104 49 -104 138q0 82 58 131t157 49q80 0 133 -44.5t43 -128.5q-3 -24 -25 -24q-12 0 -18.5 8t-5.5 21q6 58 -29.5 90.5t-104.5 32.5q-72 0 -115 -34.5t-43 -89.5q0 -65 66 -95
l106 -48q57 -26 92 -61.5t35 -93.5q0 -96 -61 -153t-165 -57q-88 0 -147 45.5t-46 129.5q3 24 25 24q26 0 23 -27q-7 -65 38 -96t114 -31z" />
    <glyph glyph-name="T" unicode="T" horiz-adv-x="453" 
d="M104 657h373q22 0 22 -22q0 -25 -27 -25h-163l-104 -593q-4 -22 -27 -22q-13 0 -19.5 8t-4.5 19l104 588h-159q-22 0 -22 22q0 25 27 25z" />
    <glyph glyph-name="U" unicode="U" horiz-adv-x="569" 
d="M551 634l-78 -439q-17 -95 -78 -150t-155 -55q-80 0 -130 44.5t-50 120.5q0 12 4 40l78 445q4 22 27 22q13 0 19.5 -8.5t4.5 -19.5l-78 -442q-3 -18 -3 -34q0 -55 35 -88t101 -33q68 0 114.5 43t58.5 112l79 448q4 22 27 22q13 0 19.5 -8.5t4.5 -19.5z" />
    <glyph glyph-name="V" unicode="V" horiz-adv-x="499" 
d="M520 628l-288 -609q-12 -24 -35 -24t-26 26l-74 610q-2 14 6.5 22.5t18.5 8.5q22 0 26 -23l65 -553l264 561q7 15 23 15q13 0 19.5 -11t0.5 -23z" />
    <glyph glyph-name="W" unicode="W" horiz-adv-x="740" 
d="M756 628l-253 -612q-9 -21 -31 -21q-21 0 -23 23l-33 539l-223 -541q-9 -21 -31 -21q-20 0 -22 23l-37 619q-1 10 6 17.5t18 7.5q10 0 17 -6.5t8 -16.5l30 -537l221 538q9 22 31 22t24 -24l31 -536l224 545q5 15 24 15q11 0 18 -10t1 -24z" />
    <glyph glyph-name="X" unicode="X" horiz-adv-x="468" 
d="M270 334l112 -306q4 -13 -3 -23t-19 -10q-18 0 -23 16l-101 276l-201 -283q-7 -9 -18 -9q-14 0 -21 13t2 25l217 299l-109 296q-5 12 1.5 23t20.5 11q19 0 24 -16l97 -267l194 271q9 12 20 12q14 0 20.5 -12.5t-1.5 -24.5z" />
    <glyph glyph-name="Y" unicode="Y" horiz-adv-x="475" 
d="M501 628l-243 -367l-43 -244q-4 -22 -27 -22q-13 0 -19.5 8t-4.5 19l42 239l-112 367q-4 12 3 23t21 11q19 0 24 -18l98 -332l221 339q6 11 20 11q12 0 19.5 -11.5t0.5 -22.5z" />
    <glyph glyph-name="Z" unicode="Z" horiz-adv-x="455" 
d="M379 25q0 -25 -27 -25h-342q-22 0 -22 20q0 9 12 26l401 564h-273q-22 0 -22 22q0 25 27 25h318q22 0 22 -19q0 -10 -12 -27l-401 -564h297q22 0 22 -22z" />
    <glyph glyph-name="bracketleft" unicode="[" horiz-adv-x="292" 
d="M75 -64h91q22 0 22 -22q0 -25 -27 -25h-121q-11 0 -17 7t-4 18l147 826q5 25 29 25h118q22 0 22 -22q0 -25 -27 -25h-94z" />
    <glyph glyph-name="backslash" unicode="\" horiz-adv-x="409" 
d="M172 748l133 -834q2 -12 -5 -21t-19 -9q-21 0 -24 21l-133 830q-3 13 3 24t20 11q21 0 25 -22z" />
    <glyph glyph-name="bracketright" unicode="]" horiz-adv-x="292" 
d="M232 718h-91q-22 0 -22 22q0 25 27 25h121q11 0 17 -7t4 -18l-147 -826q-5 -25 -29 -25h-118q-22 0 -22 22q0 25 27 25h94z" />
    <glyph glyph-name="asciicircum" unicode="^" horiz-adv-x="355" 
d="M251 430l-73 165l-75 -166q-7 -13 -21 -13q-13 0 -18 11.5t1 22.5l87 194q8 18 25 18q18 0 26 -18l87 -194q6 -10 0.5 -22t-18.5 -12q-14 0 -21 14z" />
    <glyph glyph-name="underscore" unicode="_" horiz-adv-x="700" 
d="M12 -51q0 21 20 21h519q20 0 20 -21t-20 -21h-519q-20 0 -20 21z" />
    <glyph glyph-name="grave" unicode="`" horiz-adv-x="192" 
d="M178 679l83 -95q8 -9 4 -20t-16 -11q-7 0 -12 5l-95 82q-12 10 -6.5 28t23.5 18q12 0 19 -7z" />
    <glyph glyph-name="a" unicode="a" 
d="M448 472l-81 -461q-4 -16 -18 -16q-17 0 -17 20v46q-60 -71 -149 -71q-66 0 -106 37t-40 102q0 16 3 37l27 156q15 84 64.5 130t132.5 46q41 0 78 -18.5t54 -51.5l19 50q6 15 18 15q8 0 12 -6t3 -15zM195 35q59 0 100 39t51 98l25 144q3 15 3 28q0 49 -30 79t-84 30
q-58 0 -95 -35.5t-47 -91.5l-30 -164q-3 -15 -3 -28q0 -45 28 -72t82 -27z" />
    <glyph glyph-name="b" unicode="b" 
d="M218 35q57 0 94 35.5t47 91.5l29 164q3 14 3 28q0 44 -28 71.5t-81 27.5q-58 0 -99 -38.5t-52 -98.5l-26 -144q-3 -15 -3 -29q0 -49 30.5 -78.5t85.5 -29.5zM81 61l-18 -50q-5 -16 -19 -16q-19 0 -16 20l113 645q4 22 26 22q12 0 18.5 -8.5t4.5 -19.5l-39 -221
q57 65 142 65q66 0 106.5 -37t40.5 -101q0 -18 -3 -38l-28 -156q-15 -84 -65 -130t-133 -46q-40 0 -76.5 19t-53.5 52z" />
    <glyph glyph-name="c" unicode="c" horiz-adv-x="468" 
d="M390 137q-18 -69 -66 -108t-124 -39q-73 0 -118 40t-45 112q0 18 3 39l23 131q15 88 69 137t140 49q69 0 117 -39t39 -111q-3 -24 -25 -24q-25 0 -23 28q2 48 -28.5 75t-87.5 27q-59 0 -99 -38.5t-51 -99.5l-25 -139q-3 -17 -3 -31q0 -51 29.5 -81.5t86.5 -30.5
q112 0 141 108q7 24 24 24q12 0 19 -8.5t4 -20.5z" />
    <glyph glyph-name="d" unicode="d" 
d="M198 35q56 0 96.5 39t51.5 98l25 144q3 16 3 28q0 49 -30.5 79t-86.5 30t-92.5 -35.5t-46.5 -91.5l-30 -164q-3 -15 -3 -28q0 -45 29 -72t84 -27zM480 654l-113 -643q-4 -16 -18 -16q-17 0 -17 20v46q-58 -71 -146 -71q-66 0 -108 37.5t-42 100.5q0 14 4 38l27 156
q15 84 64 130t131 46q39 0 76 -17.5t54 -47.5l40 227q4 22 26 22q12 0 18 -8.5t4 -19.5z" />
    <glyph glyph-name="e" unicode="e" horiz-adv-x="470" 
d="M114 316l-6 -31h260l6 31q3 16 3 32q0 49 -29 78.5t-84 29.5q-59 0 -98.5 -39t-51.5 -101zM389 137q-13 -66 -63 -106.5t-128 -40.5q-71 0 -117 38.5t-46 103.5q0 16 3 34l25 146q15 87 69.5 136.5t138.5 49.5q67 0 110 -39.5t43 -107.5q0 -17 -4 -39l-8 -46
q-5 -25 -30 -25h-281l-14 -79q-3 -14 -3 -26q0 -47 30.5 -75.5t88.5 -28.5q60 0 95 30.5t45 79.5q5 23 24 23q12 0 18 -8.5t4 -19.5z" />
    <glyph glyph-name="f" unicode="f" horiz-adv-x="320" 
d="M190 444l-75 -428q-4 -21 -26 -21q-12 0 -18.5 7.5t-4.5 18.5l75 423h-65q-20 0 -20 20q0 22 24 22h68l5 29q28 162 183 162h19q21 0 21 -21q0 -23 -25 -23h-24q-102 0 -123 -114l-6 -33h118q20 0 20 -20q0 -22 -24 -22h-122z" />
    <glyph glyph-name="g" unicode="g" 
d="M448 473l-89 -505q-14 -80 -65 -122.5t-133 -42.5q-63 0 -110.5 31t-42.5 98q2 22 25 22q11 0 17 -7.5t5 -17.5q-3 -42 30 -62.5t84 -20.5q56 0 93 32t47 85l19 108q-59 -64 -141 -64q-67 0 -107 37t-40 101q0 19 3 38l24 139q15 84 65 130t132 46q41 0 78 -18.5
t54 -51.5l18 49q5 16 19 16q8 0 12.5 -6t2.5 -14zM198 52q58 0 99 38.5t52 98.5l22 127q3 15 3 29q0 48 -30.5 78t-84.5 30q-57 0 -94 -35.5t-47 -91.5l-27 -147q-3 -15 -3 -28q0 -45 28 -72t82 -27z" />
    <glyph glyph-name="h" unicode="h" horiz-adv-x="500" 
d="M190 656l-39 -222q59 64 146 64q63 0 103 -37.5t40 -101.5q0 -17 -3 -37l-54 -306q-4 -21 -26 -21q-12 0 -18.5 7.5t-4.5 18.5l54 305q3 19 3 28q0 44 -27 71.5t-78 27.5q-60 0 -102 -39t-53 -98l-53 -300q-4 -21 -26 -21q-12 0 -18.5 7.5t-4.5 18.5l112 640q4 21 26 21
q12 0 18.5 -7.5t4.5 -18.5z" />
    <glyph glyph-name="i" unicode="i" horiz-adv-x="200" 
d="M124 625q0 18 11.5 30t31.5 12q13 0 22.5 -9t9.5 -22q0 -19 -12 -30.5t-33 -11.5q-13 0 -21.5 9t-8.5 22zM157 467l-79 -451q-4 -21 -26 -21q-12 0 -18.5 7.5t-4.5 18.5l79 451q4 21 26 21q12 0 18.5 -7.5t4.5 -18.5z" />
    <glyph glyph-name="j" unicode="j" horiz-adv-x="200" 
d="M124 625q0 18 11.5 30t31.5 12q13 0 22.5 -9t9.5 -22q0 -19 -12 -30.5t-33 -11.5q-13 0 -21.5 9t-8.5 22zM157 467l-86 -488q-31 -176 -206 -176q-6 0 -13 6t-7 15q0 23 25 23h7q62 0 98 34t46 94l87 497q4 21 26 21q12 0 18.5 -7.5t4.5 -18.5z" />
    <glyph glyph-name="k" unicode="k" horiz-adv-x="462" 
d="M363 -5q-17 0 -23 14l-118 256l-119 -102l-25 -147q-4 -21 -26 -21q-12 0 -18.5 7.5t-4.5 18.5l112 640q4 21 26 21q12 0 18.5 -7.5t4.5 -18.5l-75 -429l302 260q8 6 15 6q13 0 18.5 -13.5t-5.5 -23.5l-183 -158l123 -266q6 -13 -1 -25t-21 -12z" />
    <glyph glyph-name="l" unicode="l" horiz-adv-x="212" 
d="M196 656l-112 -640q-4 -21 -26 -21q-12 0 -18.5 7.5t-4.5 18.5l112 640q4 21 26 21q12 0 18.5 -7.5t4.5 -18.5z" />
    <glyph glyph-name="m" unicode="m" horiz-adv-x="794" 
d="M29 23l80 453q3 17 19 17q20 0 18 -21l-2 -46q59 72 150 72q48 0 85 -24.5t48 -67.5q59 92 166 92q62 0 101 -37.5t39 -101.5q0 -17 -3 -37l-54 -305q-4 -22 -25 -22q-12 0 -18.5 8.5t-4.5 19.5l53 303q2 9 2 28q0 45 -25.5 72t-75.5 27q-57 0 -99 -37.5t-52 -94.5
l-54 -304q-4 -22 -25 -22q-12 0 -18.5 8.5t-4.5 19.5l53 303q2 9 2 28q0 45 -25.5 72t-75.5 27q-57 0 -99 -37.5t-52 -94.5l-55 -304q-4 -22 -25 -22q-12 0 -18.5 8.5t-4.5 19.5z" />
    <glyph glyph-name="n" unicode="n" horiz-adv-x="500" 
d="M437 322l-54 -305q-4 -22 -26 -22q-12 0 -18.5 8.5t-4.5 19.5l54 303q2 12 2 27q0 45 -26.5 72.5t-77.5 27.5q-60 0 -102 -39t-53 -98l-53 -299q-4 -22 -26 -22q-12 0 -18.5 8.5t-4.5 19.5l80 453q3 17 19 17q18 0 18 -21l-1 -46q59 72 152 72q63 0 103 -37.5t40 -101.5
q0 -17 -3 -37z" />
    <glyph glyph-name="o" unicode="o" horiz-adv-x="476" 
d="M114 316l-26 -144q-3 -16 -3 -31q0 -49 29.5 -78t85.5 -29q58 0 97.5 39t50.5 99l26 144q3 16 3 30q0 49 -29.5 78.5t-84.5 29.5q-58 0 -98 -38.5t-51 -99.5zM423 312l-24 -136q-15 -87 -69 -136.5t-139 -49.5q-68 0 -111.5 39.5t-43.5 107.5q0 11 4 39l23 136
q14 87 68.5 136.5t139.5 49.5q67 0 111 -40t44 -108q0 -18 -3 -38z" />
    <glyph glyph-name="p" unicode="p" 
d="M146 472l-1 -45q60 71 148 71q66 0 106.5 -37.5t40.5 -101.5q0 -17 -3 -36l-27 -157q-15 -84 -64 -130t-132 -46q-38 0 -75 17.5t-54 47.5l-40 -226q-4 -21 -26 -21q-12 0 -18.5 7.5t-4.5 18.5l113 642q3 17 19 17q18 0 18 -21zM283 453q-59 0 -100.5 -39t-51.5 -98
l-25 -144q-3 -16 -3 -30q0 -49 30 -78t86 -29t93.5 35.5t47.5 91.5l28 164q3 19 3 29q0 44 -27.5 71t-80.5 27z" />
    <glyph glyph-name="q" unicode="q" 
d="M334 -171q-4 -21 -26 -21q-12 0 -18 7.5t-4 18.5l38 221q-54 -65 -139 -65q-67 0 -107.5 37.5t-40.5 102.5q0 16 3 36l26 157q14 83 63.5 129t133.5 46q40 0 77.5 -19t54.5 -52l18 51q6 15 19 15q8 0 12 -6t3 -15zM260 453q-59 0 -96.5 -35.5t-46.5 -91.5l-29 -164
q-3 -14 -3 -27q0 -45 28 -72.5t83 -27.5q58 0 98.5 39t51.5 98l25 144q2 10 2 29q0 49 -29.5 78.5t-83.5 29.5z" />
    <glyph glyph-name="r" unicode="r" horiz-adv-x="301" 
d="M29 21l80 455q3 17 19 17q18 0 18 -21l-1 -49q59 75 152 75q23 0 23 -23q0 -24 -25 -24q-67 2 -110.5 -38t-54.5 -101l-52 -296q-4 -21 -26 -21q-12 0 -18.5 7.5t-4.5 18.5z" />
    <glyph glyph-name="s" unicode="s" horiz-adv-x="444" 
d="M182 294l78 -26q107 -35 107 -119q0 -69 -50.5 -114t-134.5 -45q-66 0 -116 30.5t-50 92.5q0 12 1 18q4 23 24 23q12 0 17.5 -7.5t4.5 -16.5q-5 -51 29.5 -73.5t96.5 -22.5q59 0 93 30t34 78q0 29 -14 47t-45 28l-84 28q-100 33 -100 111q0 60 48.5 101t125.5 41
q62 0 108.5 -28.5t46.5 -87.5q0 -35 -24 -35q-23 0 -23 30q0 40 -33 59.5t-82 19.5q-44 0 -81.5 -24t-37.5 -69q0 -48 61 -69z" />
    <glyph glyph-name="t" unicode="t" horiz-adv-x="300" 
d="M290 444h-88l-75 -428q-4 -21 -26 -21q-12 0 -18.5 7.5t-4.5 18.5l75 423h-84q-20 0 -20 20q0 22 24 22h87l20 117q4 21 26 21q12 0 18.5 -7.5t4.5 -18.5l-19 -112h84q20 0 20 -20q0 -22 -24 -22z" />
    <glyph glyph-name="u" unicode="u" horiz-adv-x="495" 
d="M452 467l-81 -455q-3 -17 -18 -17q-17 0 -17 21v45q-60 -71 -147 -71q-64 0 -103.5 37.5t-39.5 101.5q0 17 3 37l54 306q4 21 26 21q12 0 18.5 -7.5t4.5 -18.5l-53 -305q-3 -15 -3 -29q0 -45 27 -71.5t78 -26.5q57 0 97.5 39t51.5 98l53 300q4 21 26 21q12 0 18.5 -7.5
t4.5 -18.5z" />
    <glyph glyph-name="v" unicode="v" horiz-adv-x="451" 
d="M443 458l-240 -445q-10 -18 -29 -18q-21 0 -24 21l-83 446q-3 14 4.5 22.5t19.5 8.5q10 0 17 -6t9 -15l70 -400l214 408q7 13 20 13q14 0 21.5 -11t0.5 -24z" />
    <glyph glyph-name="w" unicode="w" horiz-adv-x="639" 
d="M627 457l-200 -443q-9 -19 -29 -19q-19 0 -21 20l-39 385l-174 -387q-8 -18 -28 -18q-18 0 -20 20l-46 452q-1 10 7.5 18t18.5 8t17.5 -7t8.5 -17l31 -383l170 386q10 21 31 21q24 0 26 -24l33 -383l170 391q6 16 22 16q13 0 20.5 -11t1.5 -25z" />
    <glyph glyph-name="x" unicode="x" horiz-adv-x="426" 
d="M323 -5q-15 0 -21 14l-101 202l-177 -209q-6 -7 -18 -7q-14 0 -19 13.5t4 23.5l190 215l-108 209q-7 14 -0.5 25.5t20.5 11.5q16 0 22 -14l99 -195l169 199q8 10 18 10q13 0 19.5 -12t-2.5 -23l-184 -211l112 -217q7 -13 -0.5 -24t-22.5 -11z" />
    <glyph glyph-name="y" unicode="y" horiz-adv-x="451" 
d="M442 456l-343 -636q-7 -12 -20 -12q-11 0 -17.5 10.5t-0.5 21.5l91 166l-85 454q-2 12 5 22.5t19 10.5q9 0 17 -6t9 -15l70 -400l214 408q7 13 21 13q13 0 20 -11.5t0 -25.5z" />
    <glyph glyph-name="z" unicode="z" horiz-adv-x="420" 
d="M2 44l338 401h-247q-20 0 -20 20q0 23 25 23h290q21 0 21 -18q0 -12 -12 -26l-339 -401h263q20 0 20 -20q0 -23 -25 -23h-304q-21 0 -21 19q0 10 11 25z" />
    <glyph glyph-name="braceleft" unicode="{" horiz-adv-x="320" 
d="M55 310q-20 4 -20 20q0 20 24 22q66 5 82 91l29 162q27 154 173 160q20 0 20 -21q0 -23 -25 -23q-96 -2 -115 -111l-29 -163q-15 -85 -82 -118l6 -5q5 -4 7.5 -7t8 -9t8.5 -12t6.5 -14t5 -18t1.5 -22q0 -17 -2 -27l-30 -170q-4 -22 -4 -35q0 -73 78 -77q20 -2 20 -21
q0 -23 -25 -23q-56 0 -90 33t-34 90q0 11 4 37l30 170q3 15 3 30q0 54 -50 61z" />
    <glyph glyph-name="bar" unicode="|" horiz-adv-x="264" 
d="M163 748v-842q0 -10 -6.5 -16t-16.5 -6t-17 6t-7 16v842q0 10 7 16t17 6t16.5 -6t6.5 -16z" />
    <glyph glyph-name="braceright" unicode="}" horiz-adv-x="320" 
d="M280 344q20 -4 20 -20q0 -20 -24 -22q-66 -5 -82 -91l-29 -162q-27 -154 -173 -160q-20 0 -20 21q0 23 25 23q96 2 115 111l29 163q15 85 82 118l-5 5q-6 4 -8.5 7t-8 9t-8.5 12t-6.5 14t-5 18t-1.5 22q0 17 2 27l30 170q4 22 4 35q0 73 -78 77q-20 2 -20 21q0 23 25 23
q56 0 90 -33t34 -90q0 -11 -4 -37l-30 -170q-3 -15 -3 -30q0 -53 50 -61z" />
    <glyph glyph-name="asciitilde" unicode="~" horiz-adv-x="491" 
d="M445 370q-37 -76 -95 -76q-35 0 -84 35q-47 32 -72 32q-47 0 -87 -72q-6 -11 -20 -11q-12 0 -18 10.5t0 22.5q48 94 125 94q18 0 38.5 -7.5t28 -12t30.5 -19.5q43 -28 59 -28q29 0 58 51q6 11 18 11t18 -10t1 -20z" />
    <glyph glyph-name="uni00A0" unicode="&#xa0;" horiz-adv-x="219" 
 />
    <glyph glyph-name="exclamdown" unicode="&#xa1;" horiz-adv-x="212" 
d="M3 -145l26 145l66 318q3 17 19 17t14 -17l-45 -318l-27 -151q-4 -23 -28 -23q-13 0 -20 8.5t-5 20.5zM177 464q0 -19 -12 -33t-32 -14q-17 0 -27.5 9.5t-10.5 25.5q0 19 12.5 32.5t32.5 13.5q16 0 26.5 -9t10.5 -25z" />
    <glyph glyph-name="cent" unicode="&#xa2;" horiz-adv-x="469" 
d="M223 76l-12 -70q-4 -21 -24 -21q-12 0 -18 7t-4 17l12 67q-57 7 -93 46.5t-36 100.5q0 12 4 38l24 136q15 81 63 129.5t127 55.5l12 70q4 20 24 20q12 0 18 -7t4 -17l-11 -66q59 -7 95.5 -46.5t30.5 -107.5q-2 -24 -25 -24q-24 0 -22 29q2 49 -25.5 77.5t-85.5 28.5
q-61 0 -102 -38.5t-52 -99.5l-26 -144q-3 -17 -3 -31q0 -49 28.5 -78t81.5 -29q61 0 101 32t49 81q3 24 24 24q10 0 16.5 -8t4.5 -20q-11 -62 -59 -104.5t-121 -47.5z" />
    <glyph glyph-name="sterling" unicode="&#xa3;" horiz-adv-x="550" 
d="M427 0h-404q-20 0 -20 20q0 22 24 22h49l40 229h-44q-21 0 -21 21q0 22 26 22h47l26 147q17 96 75.5 151t148.5 55q80 0 123.5 -52.5t30.5 -133.5q-3 -24 -25 -24q-12 0 -18.5 8t-4.5 20q10 63 -20.5 100.5t-92.5 37.5q-65 0 -109.5 -44.5t-56.5 -113.5l-27 -151h176
q20 0 20 -20q0 -23 -24 -23h-179l-40 -229h305q21 0 21 -20q0 -22 -26 -22z" />
    <glyph glyph-name="currency" unicode="&#xa4;" horiz-adv-x="569" 
d="M539 534q13 -16 -2 -29l-93 -75q15 -29 15 -65q0 -15 -3 -33l-2 -8q-10 -60 -43 -102l56 -62q17 -21 -1 -38q-8 -7 -19.5 -5t-18.5 11l-49 63q-46 -33 -112 -33q-64 0 -105 39l-87 -77q-16 -13 -29 2q-13 17 3 30l91 74q-15 27 -15 64q0 16 3 34l2 8q11 61 42 101l-59 67
q-15 19 3 35t35 -4l53 -67q46 34 113 34q63 0 104 -39l88 77q17 14 30 -2zM175 336l-3 -16q-3 -12 -3 -26q0 -43 27.5 -69t77.5 -26q53 0 88.5 34t45.5 87l3 16q3 13 3 27q0 42 -27 68t-77 26q-54 0 -89.5 -33.5t-45.5 -87.5z" />
    <glyph glyph-name="yen" unicode="&#xa5;" horiz-adv-x="520" 
d="M43 183q0 23 26 23h149l15 83l-2 5h-144q-21 0 -21 20q0 23 26 23h125l-96 291q-4 12 3 23t21 11q20 0 25 -18l96 -307h1l212 314q6 11 20 11q12 0 18.5 -11.5t-0.5 -22.5l-199 -291h122q21 0 21 -20q0 -23 -26 -23h-147l-3 -5l-15 -83h147q21 0 21 -20q0 -23 -26 -23
h-149l-26 -146q-4 -22 -27 -22q-13 0 -19.5 8t-4.5 19l25 141h-147q-21 0 -21 20z" />
    <glyph glyph-name="brokenbar" unicode="&#xa6;" horiz-adv-x="277" 
d="M120 424v322q0 10 7.5 17t18.5 7t18 -7t7 -17v-322q0 -10 -7 -17t-18 -7t-18.5 7t-7.5 17zM120 -92v322q0 10 7 17t18 7t18.5 -7t7.5 -17v-322q0 -10 -7 -17t-18 -7t-18.5 7t-7.5 17z" />
    <glyph glyph-name="section" unicode="&#xa7;" horiz-adv-x="511" 
d="M418 237l-213 104q-106 51 -106 141q0 83 59 134t156 51q82 0 131 -48.5t38 -129.5q-3 -24 -26 -24q-10 0 -17 8t-6 21q6 63 -29 95.5t-99 32.5q-71 0 -113.5 -36.5t-42.5 -92.5q0 -69 66 -100l153 -73q78 -37 72 -72q-1 -6 -8.5 -10.5t-14.5 -0.5zM59 -24q-9 -60 29 -94
t108 -34q67 0 107 36.5t40 92.5q0 69 -66 100l-150 71q-78 37 -72 72q1 6 8 10.5t15 0.5l211 -102q105 -52 105 -141q0 -83 -56 -134t-150 -51q-52 0 -94.5 18.5t-68 59.5t-16.5 98q4 26 27 26q12 0 18.5 -8.5t4.5 -20.5z" />
    <glyph glyph-name="dieresis" unicode="&#xa8;" horiz-adv-x="213" 
d="M126 599q0 17 11 29t28 12q14 0 24 -9t10 -22q0 -18 -11 -30t-30 -12q-13 0 -22.5 9.5t-9.5 22.5zM227 599q0 17 11 29t28 12q15 0 24.5 -8.5t9.5 -22.5q0 -18 -10.5 -30t-30.5 -12q-13 0 -22.5 9.5t-9.5 22.5z" />
    <glyph glyph-name="copyright" unicode="&#xa9;" horiz-adv-x="783" 
d="M59 327q0 141 99.5 240.5t240.5 99.5t240.5 -99.5t99.5 -240.5t-100 -239.5t-241 -98.5t-240 98.5t-99 239.5zM107 327q0 -122 85 -207.5t206 -85.5t206.5 85.5t85.5 207.5t-85 208.5t-206 86.5t-206.5 -86.5t-85.5 -208.5zM514 273q10 0 17 -6.5t6 -16.5
q-4 -52 -42 -84.5t-101 -32.5q-64 0 -104 39t-40 104v104q0 66 39.5 104.5t104.5 38.5q63 0 101.5 -32t41.5 -83q1 -10 -5.5 -16.5t-17.5 -6.5q-21 0 -23 23q-2 30 -27.5 52t-69.5 22q-45 0 -71 -28t-26 -71v-110q0 -43 26 -71t71 -28q46 0 70.5 22t26.5 54q2 23 23 23z" />
    <glyph glyph-name="ordfeminine" unicode="&#xaa;" horiz-adv-x="322" 
d="M312 640l-38 -214q-4 -18 -19 -18q-18 0 -18 22v10q-27 -32 -66 -32q-34 0 -54 19t-20 52q0 6 2 20l13 72q17 91 96 91q19 0 37 -8.5t25 -22.5l6 15q6 16 20 16q8 0 12.5 -6.5t3.5 -15.5zM186 446q22 0 38 15.5t20 39.5l12 68q1 8 1 13q0 19 -12 30.5t-35 11.5
q-22 0 -36.5 -14.5t-18.5 -37.5l-13 -74q-1 -6 -1 -12q0 -40 45 -40z" />
    <glyph glyph-name="guillemotleft" unicode="&#xab;" horiz-adv-x="300" 
d="M160 80l-19 128q-1 7 -1 12q0 19 8 35l69 137q5 11 17 11q8 0 13 -7.5t1 -15.5l-66 -147l15 -151q1 -7 -4.5 -13t-13.5 -6q-17 0 -19 17zM76 79l-22 129q-1 6 -1 12q0 19 8 35l72 137q5 11 16 11q9 0 13.5 -8t0.5 -16l-69 -146l18 -150q1 -8 -4 -14t-13 -6q-17 0 -19 16z
" />
    <glyph glyph-name="logicalnot" unicode="&#xac;" horiz-adv-x="537" 
d="M75 329q0 22 21 22h332q21 0 21 -21v-152q0 -23 -24 -23t-24 23v128h-305q-21 0 -21 23z" />
    <glyph glyph-name="uni00AD" unicode="&#xad;" horiz-adv-x="374" 
d="M63 262q0 24 26 24h195q9 0 15 -6t6 -15q0 -24 -26 -24h-195q-9 0 -15 6t-6 15z" />
    <glyph glyph-name="registered" unicode="&#xae;" horiz-adv-x="515" 
d="M87 465q0 84 58.5 143t141.5 59q84 0 143 -59t59 -143q0 -83 -59 -141.5t-143 -58.5q-83 0 -141.5 58.5t-58.5 141.5zM127 465q0 -68 46.5 -115.5t113.5 -47.5t114 47.5t47 115.5t-47 116t-114 48t-113.5 -48t-46.5 -116zM295 543h-45v-71h45q41 0 41 36q0 35 -41 35z
M335 446l30 -68q5 -9 0 -18.5t-17 -9.5t-17 12l-33 77h-48v-70q0 -19 -18 -19t-18 19v188q0 19 19 19h65q34 0 55.5 -18t21.5 -49q0 -45 -40 -63z" />
    <glyph glyph-name="macron" unicode="&#xaf;" horiz-adv-x="272" 
d="M121 595q0 11 7 16.5t15 5.5h201q7 0 12.5 -5t5.5 -14q0 -10 -7 -15.5t-15 -5.5h-201q-7 0 -12.5 5.5t-5.5 12.5z" />
    <glyph glyph-name="degree" unicode="&#xb0;" horiz-adv-x="400" 
d="M95 522q0 60 42.5 102.5t101.5 42.5q61 0 103.5 -42.5t42.5 -102.5t-42.5 -102.5t-103.5 -42.5q-59 0 -101.5 42.5t-42.5 102.5zM141 522q0 -43 28.5 -73.5t69.5 -30.5q42 0 70.5 30.5t28.5 73.5t-28.5 73.5t-70.5 30.5q-41 0 -69.5 -30.5t-28.5 -73.5z" />
    <glyph glyph-name="plusminus" unicode="&#xb1;" horiz-adv-x="538" 
d="M286 509v-118h145q21 0 21 -23q0 -22 -21 -22h-145v-118q0 -10 -7 -16.5t-18 -6.5q-23 0 -23 23v118h-144q-21 0 -21 22q0 23 21 23h144v118q0 23 23 23q11 0 18 -6.5t7 -16.5zM73 137q0 23 21 23h337q21 0 21 -23q0 -22 -21 -22h-337q-21 0 -21 22z" />
    <glyph glyph-name="twosuperior" unicode="&#xb2;" horiz-adv-x="277" 
d="M160 724q-5 -18 -24 -18q-10 0 -15.5 7.5t-3.5 16.5q8 36 38 59.5t75 23.5q39 0 64.5 -21t25.5 -55q0 -65 -74 -109l-69 -41q-41 -25 -50 -66h143q19 0 19 -19q0 -22 -23 -22h-170q-11 0 -17 7t-4 18q13 73 86 117l60 36q53 32 53 71q0 44 -52 44q-49 0 -62 -49z" />
    <glyph glyph-name="threesuperior" unicode="&#xb3;" horiz-adv-x="278" 
d="M125 558q0 -44 55 -44q32 0 50 19.5t18 51.5q0 22 -13 34.5t-50 12.5q-6 0 -11.5 5t-5.5 12q0 19 21 19q48 0 64 16.5t16 46.5q0 42 -51 42q-25 0 -41.5 -13.5t-19.5 -32.5q-4 -18 -23 -18q-9 0 -15 7.5t-4 16.5q6 31 36 55.5t75 24.5q38 0 63.5 -21t25.5 -55
q0 -36 -15 -56t-44 -33q38 -19 38 -61q0 -52 -32 -82t-87 -30q-43 0 -68.5 21t-25.5 53q0 30 23 30q9 0 15 -6t6 -15z" />
    <glyph glyph-name="acute" unicode="&#xb4;" horiz-adv-x="192" 
d="M254 625l-103 -68q-5 -3 -10 -3q-14 0 -17 13t7 21l89 78q8 7 18 7q19 1 26 -17t-10 -31z" />
    <glyph glyph-name="mu" unicode="&#xb5;" horiz-adv-x="494" 
d="M460 467l-81 -455q-3 -17 -19 -17q-17 0 -17 21v45q-60 -71 -146 -71q-79 0 -118 49l-29 -197l-2 -12q-4 -22 -29 -22q-24 0 -19 25l111 639q4 21 26 21q12 0 18.5 -7.5t4.5 -18.5l-53 -305q-3 -15 -3 -29q-1 -47 26 -72.5t79 -25.5q57 0 97.5 39t51.5 98l53 300
q4 21 26 21q12 0 18.5 -7.5t4.5 -18.5z" />
    <glyph glyph-name="paragraph" unicode="&#xb6;" horiz-adv-x="489" 
d="M467 632l-129 -727q-4 -21 -27 -21q-12 0 -18.5 7.5t-4.5 18.5l124 705h-50l-63 -351q-5 -25 -32 -25q-88 0 -145.5 46.5t-57.5 126.5q0 117 77.5 181t208.5 64h96q11 0 17 -7t4 -18z" />
    <glyph glyph-name="periodcentered" unicode="&#xb7;" horiz-adv-x="221" 
d="M67 266q0 19 12.5 33t32.5 14q17 0 27.5 -9.5t10.5 -25.5q0 -19 -12.5 -32.5t-32.5 -13.5q-16 0 -27 9t-11 25z" />
    <glyph glyph-name="cedilla" unicode="&#xb8;" horiz-adv-x="238" 
d="M72 -63l42 89l36 -11l-30 -63h12q33 0 51.5 -15.5t18.5 -41.5q0 -82 -95 -82h-72q-18 0 -18 18q0 20 22 20h80q40 0 40 37q0 27 -30 27h-42q-10 0 -14.5 7t-0.5 15z" />
    <glyph glyph-name="onesuperior" unicode="&#xb9;" horiz-adv-x="211" 
d="M213 480h-130q-19 0 -19 19q0 20 22 20h44l44 249h-39q-20 0 -20 20t23 20h63q11 0 17 -6.5t4 -17.5l-47 -265h41q19 0 19 -19q0 -20 -22 -20z" />
    <glyph glyph-name="ordmasculine" unicode="&#xba;" horiz-adv-x="312" 
d="M300 566l-11 -62q-17 -96 -108 -96q-36 0 -60 21t-24 56q0 5 2 19l11 62q8 45 35.5 70.5t72.5 25.5q35 0 59 -21.5t24 -56.5q0 -12 -1 -18zM154 570l-13 -70q-1 -4 -1 -12q0 -19 12 -31t34 -12q23 0 38.5 15.5t20.5 39.5l13 70q1 4 1 12q0 19 -12.5 31t-34.5 12
t-37.5 -15.5t-20.5 -39.5z" />
    <glyph glyph-name="guillemotright" unicode="&#xbb;" horiz-adv-x="300" 
d="M122 386l19 -128q1 -7 1 -12q0 -19 -8 -35l-69 -137q-5 -11 -17 -11q-8 0 -13 7.5t-1 15.5l66 147l-15 151q-1 7 4.5 13t13.5 6q17 0 19 -17zM206 387l22 -129q1 -6 1 -12q0 -19 -8 -35l-72 -137q-5 -11 -16 -11q-9 0 -13.5 8t-0.5 16l69 146l-18 150q-1 8 4 14t13 6
q17 0 19 -16z" />
    <glyph glyph-name="onequarter" unicode="&#xbc;" horiz-adv-x="596" 
d="M334 319l-245 -315q-6 -9 -19 -9q-12 0 -17 11.5t3 20.5l237 301l253 327q5 7 14 7q12 0 18.5 -11t-0.5 -22zM212 329h-130q-19 0 -19 19q0 20 22 20h44l44 249h-39q-20 0 -20 20t23 20h63q11 0 17 -6.5t4 -17.5l-47 -265h41q19 0 19 -19q0 -20 -22 -20zM474 75l-11 -61
q-4 -19 -23 -19q-11 0 -17 7t-4 17l9 56h-118q-28 0 -28 30q0 11 21 35l143 168q21 25 43 25q13 0 20.5 -8t5.5 -20l-34 -191h19q18 0 18 -19q0 -20 -22 -20h-22zM327 114h109l29 161z" />
    <glyph glyph-name="onehalf" unicode="&#xbd;" horiz-adv-x="611" 
d="M389 244q-5 -18 -24 -18q-10 0 -15.5 7.5t-3.5 16.5q8 36 38 59.5t75 23.5q39 0 64.5 -21t25.5 -55q0 -65 -74 -109l-69 -41q-41 -25 -50 -66h143q19 0 19 -19q0 -22 -23 -22h-170q-11 0 -17 7t-4 18q13 73 86 117l60 36q53 32 53 71q0 44 -52 44q-49 0 -62 -49zM334 319
l-245 -315q-6 -9 -19 -9q-12 0 -17 11.5t3 20.5l237 301l253 327q5 7 14 7q12 0 18.5 -11t-0.5 -22zM212 329h-130q-19 0 -19 19q0 20 22 20h44l44 249h-39q-20 0 -20 20t23 20h63q11 0 17 -6.5t4 -17.5l-47 -265h41q19 0 19 -19q0 -20 -22 -20z" />
    <glyph glyph-name="threequarters" unicode="&#xbe;" horiz-adv-x="602" 
d="M341 322l-245 -315q-6 -9 -19 -9q-12 0 -17 11.5t3 20.5l237 301l253 327q5 7 14 7q12 0 18.5 -11t-0.5 -22zM119 412q0 -44 55 -44q32 0 50 19.5t18 51.5q0 22 -13 34.5t-50 12.5q-6 0 -11.5 5t-5.5 12q0 19 21 19q48 0 64 16.5t16 46.5q0 42 -51 42q-25 0 -41.5 -13.5
t-19.5 -32.5q-4 -18 -23 -18q-9 0 -15 7.5t-4 16.5q6 31 36 55.5t75 24.5q38 0 63.5 -21t25.5 -55q0 -36 -15 -56t-44 -33q38 -19 38 -61q0 -52 -32 -82t-87 -30q-43 0 -68.5 21t-25.5 53q0 30 23 30q9 0 15 -6t6 -15zM478 75l-11 -61q-4 -19 -23 -19q-11 0 -17 7t-4 17
l9 56h-118q-28 0 -28 30q0 11 21 35l143 168q21 25 43 25q13 0 20.5 -8t5.5 -20l-34 -191h19q18 0 18 -19q0 -20 -22 -20h-22zM331 114h109l29 161z" />
    <glyph glyph-name="questiondown" unicode="&#xbf;" horiz-adv-x="462" 
d="M324 -1q2 21 26 21q12 0 18 -8t4 -19q-14 -80 -72.5 -126t-149.5 -46q-71 0 -119 38t-48 99q0 19 3.5 35t12.5 32.5t16 27t23.5 27t24.5 23.5t30 25.5t30 25.5q3 3 19 16.5t19.5 17t16 15.5t17 19.5t12.5 19.5t12.5 25t8.5 28l4 17q5 18 23 18t18 -19v-13
q0 -35 -21.5 -71t-44 -57.5t-63.5 -56.5q-2 -2 -27.5 -22.5t-32 -27.5t-22 -25.5t-20.5 -35.5t-5 -38q0 -43 32 -69.5t90 -26.5q69 0 114 36.5t51 94.5zM314 464q0 -19 -12 -33t-32 -14q-17 0 -27.5 9.5t-10.5 25.5q0 19 12.5 32.5t31.5 13.5q17 0 27.5 -9t10.5 -25z" />
    <glyph glyph-name="Agrave" unicode="&#xc0;" horiz-adv-x="544" 
d="M118 167l-79 -157q-8 -15 -22 -15t-20.5 11.5t0.5 24.5l310 608q12 23 34 23q24 0 27 -25l97 -614q2 -11 -6 -19.5t-21 -8.5q-22 0 -26 25l-22 147h-272zM328 583l-186 -369h241zM276 823l83 -95q8 -9 4 -20t-16 -11q-7 0 -12 5l-95 82q-12 10 -6.5 28t23.5 18
q12 0 19 -7z" />
    <glyph glyph-name="Aacute" unicode="&#xc1;" horiz-adv-x="544" 
d="M118 167l-79 -157q-8 -15 -22 -15t-20.5 11.5t0.5 24.5l310 608q12 23 34 23q24 0 27 -25l97 -614q2 -11 -6 -19.5t-21 -8.5q-22 0 -26 25l-22 147h-272zM328 583l-186 -369h241zM456 769l-103 -68q-5 -3 -10 -3q-14 0 -17 13t7 21l89 78q8 7 18 7q19 1 26 -17t-10 -31z
" />
    <glyph glyph-name="Acircumflex" unicode="&#xc2;" horiz-adv-x="544" 
d="M118 167l-79 -157q-8 -15 -22 -15t-20.5 11.5t0.5 24.5l310 608q12 23 34 23q24 0 27 -25l97 -614q2 -11 -6 -19.5t-21 -8.5q-22 0 -26 25l-22 147h-272zM328 583l-186 -369h241zM359 784l-105 -83q-5 -3 -8 -3q-11 0 -13.5 9t4.5 15l104 102q13 13 27 13t24 -15l68 -102
q5 -7 0 -14.5t-14 -7.5q-7 0 -11 4z" />
    <glyph glyph-name="Atilde" unicode="&#xc3;" horiz-adv-x="544" 
d="M118 167l-79 -157q-8 -15 -22 -15t-20.5 11.5t0.5 24.5l310 608q12 23 34 23q24 0 27 -25l97 -614q2 -11 -6 -19.5t-21 -8.5q-22 0 -26 25l-22 147h-272zM328 583l-186 -369h241zM229 701q-3 -11 -15 -11q-14 0 -14 14q0 37 25.5 64t66.5 27q27 0 57 -19l37 -24
q28 -19 44 -19q31 0 43 55q3 11 14 11q15 0 15 -15q0 -34 -19.5 -61t-57.5 -27q-27 0 -64 24l-36 22q-25 16 -40 16q-39 0 -56 -57z" />
    <glyph glyph-name="Adieresis" unicode="&#xc4;" horiz-adv-x="544" 
d="M118 167l-79 -157q-8 -15 -22 -15t-20.5 11.5t0.5 24.5l310 608q12 23 34 23q24 0 27 -25l97 -614q2 -11 -6 -19.5t-21 -8.5q-22 0 -26 25l-22 147h-272zM328 583l-186 -369h241zM268 755q0 17 12.5 29t31.5 12q13 0 21.5 -9t8.5 -21q0 -17 -12.5 -30t-29.5 -13
q-13 0 -22.5 9.5t-9.5 22.5zM369 755q0 17 12.5 29t31.5 12q13 0 21.5 -9t8.5 -22q0 -16 -13 -29t-29 -13q-13 0 -22.5 9.5t-9.5 22.5z" />
    <glyph glyph-name="Aring" unicode="&#xc5;" horiz-adv-x="544" 
d="M118 167l-79 -157q-8 -15 -22 -15t-20.5 11.5t0.5 24.5l306 601q-24 11 -38 33.5t-14 50.5q0 38 27 65.5t67 27.5q39 0 66 -27t27 -65q0 -32 -19 -57t-50 -33l96 -604q2 -11 -6 -19.5t-21 -8.5q-22 0 -26 25l-22 147h-272zM328 583l-186 -369h241zM344 657q25 0 40.5 17
t15.5 43t-15 42.5t-40 16.5q-24 0 -40 -17t-16 -42q0 -26 15.5 -43t39.5 -17z" />
    <glyph glyph-name="AE" unicode="&#xc6;" horiz-adv-x="791" 
d="M158 207h200l71 401zM23 6q-6 -11 -19 -11t-20 12.5t1 23.5l409 605q15 21 39 21h345q22 0 22 -22q0 -25 -27 -25h-292l-45 -250h267q22 0 22 -22q0 -25 -27 -25h-270l-47 -266h298q22 0 22 -22q0 -25 -27 -25h-328q-26 0 -21 23l25 137h-223z" />
    <glyph glyph-name="Ccedilla" unicode="&#xc7;" horiz-adv-x="539" 
d="M167 -63l26 57q-64 10 -103.5 53t-39.5 108q0 12 4 40l46 267q17 95 80 150t160 55q82 0 135 -48.5t42 -136.5q-3 -24 -25 -24q-26 0 -23 29q6 62 -29.5 97.5t-107.5 35.5t-119.5 -43t-59.5 -112l-48 -273q-3 -18 -3 -34q0 -55 36.5 -88t104.5 -33q72 0 117.5 39
t55.5 107q3 24 25 24q26 0 23 -29q-13 -88 -74 -138t-155 -50h-2l-18 -38h12q33 0 51.5 -15.5t18.5 -41.5q0 -82 -95 -82h-72q-18 0 -18 18q0 20 22 20h80q40 0 40 37q0 27 -30 27h-42q-10 0 -14.5 7t-0.5 15z" />
    <glyph glyph-name="Egrave" unicode="&#xc8;" horiz-adv-x="506" 
d="M276 823l83 -95q8 -9 4 -20t-16 -11q-7 0 -12 5l-95 82q-12 10 -6.5 28t23.5 18q12 0 19 -7zM175 657h317q22 0 22 -22q0 -25 -27 -25h-291l-45 -250h266q22 0 22 -22q0 -25 -27 -25h-269l-47 -266h297q22 0 22 -22q0 -25 -27 -25h-323q-29 0 -24 27l107 608q4 22 27 22z
" />
    <glyph glyph-name="Eacute" unicode="&#xc9;" horiz-adv-x="506" 
d="M175 657h317q22 0 22 -22q0 -25 -27 -25h-291l-45 -250h266q22 0 22 -22q0 -25 -27 -25h-269l-47 -266h297q22 0 22 -22q0 -25 -27 -25h-323q-29 0 -24 27l107 608q4 22 27 22zM456 769l-103 -68q-5 -3 -10 -3q-14 0 -17 13t7 21l89 78q8 7 18 7q19 1 26 -17t-10 -31z
" />
    <glyph glyph-name="Ecircumflex" unicode="&#xca;" horiz-adv-x="506" 
d="M359 784l-105 -83q-5 -3 -8 -3q-11 0 -13.5 9t4.5 15l104 102q13 13 27 13t24 -15l68 -102q5 -7 0 -14.5t-14 -7.5q-7 0 -11 4zM175 657h317q22 0 22 -22q0 -25 -27 -25h-291l-45 -250h266q22 0 22 -22q0 -25 -27 -25h-269l-47 -266h297q22 0 22 -22q0 -25 -27 -25h-323
q-29 0 -24 27l107 608q4 22 27 22z" />
    <glyph glyph-name="Edieresis" unicode="&#xcb;" horiz-adv-x="506" 
d="M175 657h317q22 0 22 -22q0 -25 -27 -25h-291l-45 -250h266q22 0 22 -22q0 -25 -27 -25h-269l-47 -266h297q22 0 22 -22q0 -25 -27 -25h-323q-29 0 -24 27l107 608q4 22 27 22zM268 755q0 17 12.5 29t31.5 12q13 0 21.5 -9t8.5 -21q0 -17 -12.5 -30t-29.5 -13
q-13 0 -22.5 9.5t-9.5 22.5zM369 755q0 17 12.5 29t31.5 12q13 0 21.5 -9t8.5 -22q0 -16 -13 -29t-29 -13q-13 0 -22.5 9.5t-9.5 22.5z" />
    <glyph glyph-name="Igrave" unicode="&#xcc;" horiz-adv-x="225" 
d="M200 634l-109 -617q-4 -22 -27 -22q-13 0 -19.5 8.5t-4.5 19.5l109 616q4 23 27 23q13 0 19.5 -8.5t4.5 -19.5zM119 823l83 -95q8 -9 4 -20t-16 -11q-7 0 -12 5l-95 82q-12 10 -6.5 28t23.5 18q12 0 19 -7z" />
    <glyph glyph-name="Iacute" unicode="&#xcd;" horiz-adv-x="225" 
d="M200 634l-109 -617q-4 -22 -27 -22q-13 0 -19.5 8.5t-4.5 19.5l109 616q4 23 27 23q13 0 19.5 -8.5t4.5 -19.5zM297 769l-103 -68q-5 -3 -10 -3q-14 0 -17 13t7 21l89 78q8 7 18 7q19 1 26 -17t-10 -31z" />
    <glyph glyph-name="Icircumflex" unicode="&#xce;" horiz-adv-x="225" 
d="M200 634l-109 -617q-4 -22 -27 -22q-13 0 -19.5 8.5t-4.5 19.5l109 616q4 23 27 23q13 0 19.5 -8.5t4.5 -19.5zM201 784l-105 -83q-4 -3 -8 -3q-11 0 -13.5 9t4.5 15l104 102q13 13 27 13t24 -15l68 -102q5 -7 0 -14.5t-14 -7.5q-7 0 -11 4z" />
    <glyph glyph-name="Idieresis" unicode="&#xcf;" horiz-adv-x="225" 
d="M200 634l-109 -617q-4 -22 -27 -22q-13 0 -19.5 8.5t-4.5 19.5l109 616q4 23 27 23q13 0 19.5 -8.5t4.5 -19.5zM108 755q0 17 12.5 29t31.5 12q13 0 21.5 -9t8.5 -21q0 -17 -12.5 -30t-29.5 -13q-13 0 -22.5 9.5t-9.5 22.5zM209 755q0 17 12.5 29t31.5 12q13 0 21.5 -9
t8.5 -22q0 -16 -13 -29t-29 -13q-13 0 -22.5 9.5t-9.5 22.5z" />
    <glyph glyph-name="Eth" unicode="&#xd0;" horiz-adv-x="571" 
d="M18 334q0 24 26 24h59l49 274q5 25 29 25h170q80 0 132 -46t52 -122q0 -22 -4 -42l-42 -237q-17 -98 -81 -154t-163 -56h-180q-26 0 -21 23l51 291h-56q-21 0 -21 20zM342 610h-142l-45 -252h126q9 0 15 -6t6 -15q0 -23 -26 -23h-128l-48 -267h153q73 0 121.5 44.5
t61.5 115.5l44 243q3 18 3 35q0 57 -36.5 91t-104.5 34z" />
    <glyph glyph-name="Ntilde" unicode="&#xd1;" horiz-adv-x="577" 
d="M248 701q-3 -11 -15 -11q-14 0 -14 14q0 37 25.5 64t66.5 27q27 0 57 -19l37 -24q29 -19 44 -19q31 0 43 55q3 11 14 11q15 0 15 -15q0 -34 -19.5 -61t-57.5 -27q-27 0 -64 24l-36 22q-25 16 -40 16q-39 0 -56 -57zM552 635l-108 -613q-3 -22 -26 -22q-22 0 -30 21
l-205 535l-95 -539q-4 -22 -25 -22q-12 0 -18.5 8t-4.5 19l108 613q1 10 9 16t18 6q22 0 30 -21l205 -534l94 538q4 22 25 22q12 0 18.5 -8t4.5 -19z" />
    <glyph glyph-name="Ograve" unicode="&#xd2;" horiz-adv-x="554" 
d="M282 823l83 -95q8 -9 4 -20t-16 -11q-7 0 -12 5l-95 82q-12 10 -6.5 28t23.5 18q12 0 19 -7zM153 465l-48 -273q-3 -18 -3 -33q0 -55 36 -88.5t103 -33.5q70 0 117.5 43t59.5 112l47 273q3 17 3 33q0 55 -36 88.5t-102 33.5q-71 0 -118 -43t-59 -112zM516 462l-47 -267
q-17 -95 -79 -150t-157 -55q-81 0 -132 44.5t-51 121.5q0 20 4 39l46 267q17 95 79.5 150t158.5 55q80 0 130.5 -45t50.5 -121q0 -19 -3 -39z" />
    <glyph glyph-name="Oacute" unicode="&#xd3;" horiz-adv-x="554" 
d="M462 769l-103 -68q-5 -3 -10 -3q-14 0 -17 13t7 21l89 78q8 7 18 7q19 1 26 -17t-10 -31zM153 465l-48 -273q-3 -18 -3 -33q0 -55 36 -88.5t103 -33.5q70 0 117.5 43t59.5 112l47 273q3 17 3 33q0 55 -36 88.5t-102 33.5q-71 0 -118 -43t-59 -112zM516 462l-47 -267
q-17 -95 -79 -150t-157 -55q-81 0 -132 44.5t-51 121.5q0 20 4 39l46 267q17 95 79.5 150t158.5 55q80 0 130.5 -45t50.5 -121q0 -19 -3 -39z" />
    <glyph glyph-name="Ocircumflex" unicode="&#xd4;" horiz-adv-x="554" 
d="M366 784l-105 -83q-5 -3 -8 -3q-11 0 -13.5 9t4.5 15l104 102q13 13 27 13t24 -15l68 -102q5 -7 0 -14.5t-14 -7.5q-7 0 -11 4zM153 465l-48 -273q-3 -18 -3 -33q0 -55 36 -88.5t103 -33.5q70 0 117.5 43t59.5 112l47 273q3 17 3 33q0 55 -36 88.5t-102 33.5
q-71 0 -118 -43t-59 -112zM516 462l-47 -267q-17 -95 -79 -150t-157 -55q-81 0 -132 44.5t-51 121.5q0 20 4 39l46 267q17 95 79.5 150t158.5 55q80 0 130.5 -45t50.5 -121q0 -19 -3 -39z" />
    <glyph glyph-name="Otilde" unicode="&#xd5;" horiz-adv-x="554" 
d="M153 465l-48 -273q-3 -18 -3 -33q0 -55 36 -88.5t103 -33.5q70 0 117.5 43t59.5 112l47 273q3 17 3 33q0 55 -36 88.5t-102 33.5q-71 0 -118 -43t-59 -112zM516 462l-47 -267q-17 -95 -79 -150t-157 -55q-81 0 -132 44.5t-51 121.5q0 20 4 39l46 267q17 95 79.5 150
t158.5 55q80 0 130.5 -45t50.5 -121q0 -19 -3 -39zM237 701q-3 -11 -15 -11q-14 0 -14 14q0 37 25.5 64t66.5 27q27 0 57 -19l37 -24q28 -19 44 -19q31 0 43 55q3 11 14 11q15 0 15 -15q0 -34 -19.5 -61t-57.5 -27q-27 0 -64 24l-36 22q-25 16 -40 16q-39 0 -56 -57z" />
    <glyph glyph-name="Odieresis" unicode="&#xd6;" horiz-adv-x="554" 
d="M153 465l-48 -273q-3 -18 -3 -33q0 -55 36 -88.5t103 -33.5q70 0 117.5 43t59.5 112l47 273q3 17 3 33q0 55 -36 88.5t-102 33.5q-71 0 -118 -43t-59 -112zM516 462l-47 -267q-17 -95 -79 -150t-157 -55q-81 0 -132 44.5t-51 121.5q0 20 4 39l46 267q17 95 79.5 150
t158.5 55q80 0 130.5 -45t50.5 -121q0 -19 -3 -39zM274 755q0 17 12.5 29t31.5 12q13 0 21.5 -9t8.5 -21q0 -17 -12.5 -30t-29.5 -13q-13 0 -22.5 9.5t-9.5 22.5zM375 755q0 17 12.5 29t31.5 12q13 0 21.5 -9t8.5 -22q0 -16 -13 -29t-29 -13q-13 0 -22.5 9.5t-9.5 22.5z" />
    <glyph glyph-name="multiply" unicode="&#xd7;" horiz-adv-x="418" 
d="M90 235l93 93l-93 93q-16 16 1 33q16 16 32 0l93 -93l92 92q16 16 32 0t0 -32l-92 -92l92 -92q16 -16 -1 -33q-16 -16 -31 -1l-93 93l-93 -93q-16 -15 -31 0q-17 17 -1 32z" />
    <glyph glyph-name="Oslash" unicode="&#xd8;" horiz-adv-x="554" 
d="M516 462l-47 -267q-17 -95 -79 -150t-157 -55q-72 0 -121 35l-45 -70q-6 -9 -18 -9t-17.5 10.5t2.5 23.5l48 74q-32 43 -32 102q0 20 4 39l46 267q17 95 79.5 150t158.5 55q70 0 119 -36l45 69q7 11 18 11q13 0 19 -10.5t-1 -21.5l-51 -78q32 -43 32 -100q0 -19 -3 -39z
M469 498q0 30 -13 58l-317 -487q37 -32 102 -32q70 0 117.5 43t59.5 112l48 273q3 17 3 33zM153 465l-48 -273q-3 -18 -3 -33q0 -33 13 -58l316 486q-36 33 -101 33q-71 0 -118 -43t-59 -112z" />
    <glyph glyph-name="Ugrave" unicode="&#xd9;" horiz-adv-x="569" 
d="M290 823l83 -95q8 -9 4 -20t-16 -11q-7 0 -12 5l-95 82q-12 10 -6.5 28t23.5 18q12 0 19 -7zM551 634l-78 -439q-17 -95 -78 -150t-155 -55q-80 0 -130 44.5t-50 120.5q0 12 4 40l78 445q4 22 27 22q13 0 19.5 -8.5t4.5 -19.5l-78 -442q-3 -18 -3 -34q0 -55 35 -88
t101 -33q68 0 114.5 43t58.5 112l79 448q4 22 27 22q13 0 19.5 -8.5t4.5 -19.5z" />
    <glyph glyph-name="Uacute" unicode="&#xda;" horiz-adv-x="569" 
d="M551 634l-78 -439q-17 -95 -78 -150t-155 -55q-80 0 -130 44.5t-50 120.5q0 12 4 40l78 445q4 22 27 22q13 0 19.5 -8.5t4.5 -19.5l-78 -442q-3 -18 -3 -34q0 -55 35 -88t101 -33q68 0 114.5 43t58.5 112l79 448q4 22 27 22q13 0 19.5 -8.5t4.5 -19.5zM469 769l-103 -68
q-4 -3 -10 -3q-14 0 -17 13t7 21l89 78q8 7 18 7q19 1 26 -17t-10 -31z" />
    <glyph glyph-name="Ucircumflex" unicode="&#xdb;" horiz-adv-x="569" 
d="M372 784l-105 -83q-5 -3 -8 -3q-11 0 -13.5 9t4.5 15l104 102q13 13 27 13t24 -15l68 -102q5 -7 0 -14.5t-14 -7.5q-7 0 -11 4zM551 634l-78 -439q-17 -95 -78 -150t-155 -55q-80 0 -130 44.5t-50 120.5q0 12 4 40l78 445q4 22 27 22q13 0 19.5 -8.5t4.5 -19.5l-78 -442
q-3 -18 -3 -34q0 -55 35 -88t101 -33q68 0 114.5 43t58.5 112l79 448q4 22 27 22q13 0 19.5 -8.5t4.5 -19.5z" />
    <glyph glyph-name="Udieresis" unicode="&#xdc;" horiz-adv-x="569" 
d="M551 634l-78 -439q-17 -95 -78 -150t-155 -55q-80 0 -130 44.5t-50 120.5q0 12 4 40l78 445q4 22 27 22q13 0 19.5 -8.5t4.5 -19.5l-78 -442q-3 -18 -3 -34q0 -55 35 -88t101 -33q68 0 114.5 43t58.5 112l79 448q4 22 27 22q13 0 19.5 -8.5t4.5 -19.5zM280 755
q0 17 12.5 29t31.5 12q13 0 21.5 -9t8.5 -21q0 -17 -12.5 -30t-29.5 -13q-13 0 -22.5 9.5t-9.5 22.5zM381 755q0 17 12.5 29t31.5 12q13 0 21.5 -9t8.5 -22q0 -16 -13 -29t-29 -13q-13 0 -22.5 9.5t-9.5 22.5z" />
    <glyph glyph-name="Yacute" unicode="&#xdd;" horiz-adv-x="475" 
d="M501 628l-243 -367l-43 -244q-4 -22 -27 -22q-13 0 -19.5 8t-4.5 19l42 239l-112 367q-4 12 3 23t21 11q19 0 24 -18l98 -332l221 339q6 11 20 11q12 0 19.5 -11.5t0.5 -22.5zM422 769l-103 -68q-5 -3 -10 -3q-14 0 -17 13t7 21l89 78q8 7 18 7q19 1 26 -17t-10 -31z" />
    <glyph glyph-name="Thorn" unicode="&#xde;" horiz-adv-x="541" 
d="M200 636l-17 -100h130q81 0 136.5 -48t55.5 -124q0 -109 -70.5 -176.5t-183.5 -67.5h-142l-18 -103q-4 -22 -27 -22q-12 0 -19 7.5t-5 18.5l109 620q4 21 27 21q12 0 19 -7.5t5 -18.5zM302 490h-127l-58 -324h140q86 0 140 53.5t54 139.5q0 59 -39.5 95t-109.5 36z" />
    <glyph glyph-name="germandbls" unicode="&#xdf;" horiz-adv-x="498" 
d="M181 -5q-21 0 -21 21q0 23 25 23q95 0 144.5 46.5t49.5 127.5q0 61 -33.5 90.5t-108.5 29.5q-19 0 -19 19q0 22 24 22q81 0 129 42.5t48 114.5q0 47 -29.5 74.5t-82.5 27.5q-66 0 -100 -37.5t-46 -106.5l-83 -472q-4 -22 -26 -22q-13 0 -19 8t-4 19l81 463
q33 192 206 192q66 0 111 -39.5t45 -100.5q0 -66 -36 -114.5t-97 -66.5v-2q39 -12 65.5 -49t26.5 -85q0 -105 -64 -165t-186 -60z" />
    <glyph glyph-name="agrave" unicode="&#xe0;" 
d="M448 472l-81 -461q-4 -16 -18 -16q-17 0 -17 20v46q-60 -71 -149 -71q-66 0 -106 37t-40 102q0 16 3 37l27 156q15 84 64.5 130t132.5 46q41 0 78 -18.5t54 -51.5l19 50q6 15 18 15q8 0 12 -6t3 -15zM195 35q59 0 100 39t51 98l25 144q3 15 3 28q0 49 -30 79t-84 30
q-58 0 -95 -35.5t-47 -91.5l-30 -164q-3 -15 -3 -28q0 -45 28 -72t82 -27zM218 679l83 -95q8 -9 4 -20t-16 -11q-7 0 -12 5l-95 82q-12 10 -6.5 28t23.5 18q12 0 19 -7z" />
    <glyph glyph-name="aacute" unicode="&#xe1;" 
d="M448 472l-81 -461q-4 -16 -18 -16q-17 0 -17 20v46q-60 -71 -149 -71q-66 0 -106 37t-40 102q0 16 3 37l27 156q15 84 64.5 130t132.5 46q41 0 78 -18.5t54 -51.5l19 50q6 15 18 15q8 0 12 -6t3 -15zM195 35q59 0 100 39t51 98l25 144q3 15 3 28q0 49 -30 79t-84 30
q-58 0 -95 -35.5t-47 -91.5l-30 -164q-3 -15 -3 -28q0 -45 28 -72t82 -27zM396 625l-103 -68q-5 -3 -10 -3q-14 0 -17 13t7 21l89 78q8 7 18 7q19 1 26 -17t-10 -31z" />
    <glyph glyph-name="acircumflex" unicode="&#xe2;" 
d="M448 472l-81 -461q-4 -16 -18 -16q-17 0 -17 20v46q-60 -71 -149 -71q-66 0 -106 37t-40 102q0 16 3 37l27 156q15 84 64.5 130t132.5 46q41 0 78 -18.5t54 -51.5l19 50q6 15 18 15q8 0 12 -6t3 -15zM195 35q59 0 100 39t51 98l25 144q3 15 3 28q0 49 -30 79t-84 30
q-58 0 -95 -35.5t-47 -91.5l-30 -164q-3 -15 -3 -28q0 -45 28 -72t82 -27zM300 640l-105 -83q-5 -3 -8 -3q-11 0 -13.5 9t4.5 15l104 102q13 13 27 13t24 -15l68 -102q5 -7 0 -14.5t-14 -7.5q-7 0 -11 4z" />
    <glyph glyph-name="atilde" unicode="&#xe3;" 
d="M448 472l-81 -461q-4 -16 -18 -16q-17 0 -17 20v46q-60 -71 -149 -71q-66 0 -106 37t-40 102q0 16 3 37l27 156q15 84 64.5 130t132.5 46q41 0 78 -18.5t54 -51.5l19 50q6 15 18 15q8 0 12 -6t3 -15zM195 35q59 0 100 39t51 98l25 144q3 15 3 28q0 49 -30 79t-84 30
q-58 0 -95 -35.5t-47 -91.5l-30 -164q-3 -15 -3 -28q0 -45 28 -72t82 -27zM173 566q-3 -11 -15 -11q-14 0 -14 14q0 37 25.5 64t66.5 27q27 0 57 -19l37 -24q28 -19 44 -19q31 0 43 55q3 11 14 11q15 0 15 -15q0 -34 -19.5 -61t-57.5 -27q-27 0 -64 24l-36 22q-25 16 -40 16
q-39 0 -56 -57z" />
    <glyph glyph-name="adieresis" unicode="&#xe4;" 
d="M448 472l-81 -461q-4 -16 -18 -16q-17 0 -17 20v46q-60 -71 -149 -71q-66 0 -106 37t-40 102q0 16 3 37l27 156q15 84 64.5 130t132.5 46q41 0 78 -18.5t54 -51.5l19 50q6 15 18 15q8 0 12 -6t3 -15zM195 35q59 0 100 39t51 98l25 144q3 15 3 28q0 49 -30 79t-84 30
q-58 0 -95 -35.5t-47 -91.5l-30 -164q-3 -15 -3 -28q0 -45 28 -72t82 -27zM207 599q0 17 11 29t28 12q14 0 24 -9t10 -22q0 -18 -11 -30t-30 -12q-13 0 -22.5 9.5t-9.5 22.5zM308 599q0 17 11 29t28 12q15 0 24.5 -8.5t9.5 -22.5q0 -18 -10.5 -30t-30.5 -12q-13 0 -22.5 9.5
t-9.5 22.5z" />
    <glyph glyph-name="aring" unicode="&#xe5;" 
d="M448 472l-81 -461q-4 -16 -18 -16q-17 0 -17 20v46q-60 -71 -149 -71q-66 0 -106 37t-40 102q0 16 3 37l27 156q15 84 64.5 130t132.5 46q41 0 78 -18.5t54 -51.5l19 50q6 15 18 15q8 0 12 -6t3 -15zM195 35q59 0 100 39t51 98l25 144q3 15 3 28q0 49 -30 79t-84 30
q-58 0 -95 -35.5t-47 -91.5l-30 -164q-3 -15 -3 -28q0 -45 28 -72t82 -27zM296 562q25 0 40.5 17t15.5 43q0 25 -15.5 42t-39.5 17q-25 0 -40.5 -17t-15.5 -43t15.5 -42.5t39.5 -16.5zM296 529q-40 0 -66.5 27t-26.5 65t27 65.5t67 27.5q39 0 66 -27t27 -65q0 -39 -27 -66
t-67 -27z" />
    <glyph glyph-name="ae" unicode="&#xe6;" horiz-adv-x="768" 
d="M178 35q61 0 103.5 38.5t54.5 98.5l9 47h-139q-132 0 -132 -104q0 -36 25 -58t79 -22zM412 316l-6 -31h260l6 31q3 16 3 33q0 48 -29 77.5t-83 29.5q-60 0 -100 -39.5t-51 -100.5zM117 346q-4 -20 -26 -20q-9 0 -16 8.5t-4 18.5q38 145 196 145q49 0 88 -23t51 -63
q59 86 164 86q66 0 109 -40t43 -107q0 -17 -4 -39l-8 -46q-1 -11 -9.5 -18t-19.5 -7h-282l-14 -79q-3 -15 -3 -28q0 -46 29.5 -74t84.5 -28q59 0 98.5 32t46.5 78q4 23 24 23q10 0 17 -8t4 -20q-36 -147 -195 -147q-52 0 -94.5 25.5t-54.5 68.5q-63 -94 -174 -94
q-65 0 -105.5 31t-40.5 87q0 154 196 154h134l12 69q2 9 2 26q0 44 -28.5 70.5t-80.5 26.5q-56 0 -92.5 -30t-47.5 -78z" />
    <glyph glyph-name="ccedilla" unicode="&#xe7;" horiz-adv-x="469" 
d="M125 -63l27 59q-52 12 -83 49.5t-31 96.5q0 18 3 39l23 131q15 88 69 137t140 49q70 0 118 -39t38 -111q-3 -24 -25 -24q-25 0 -23 28q3 48 -28 75t-88 27q-59 0 -99 -38.5t-51 -99.5l-25 -139q-3 -17 -3 -31q0 -51 29.5 -81.5t86.5 -30.5q117 0 141 108q5 24 24 24
q12 0 19 -8.5t4 -20.5q-18 -69 -66 -108t-124 -39h-10l-18 -38h12q33 0 51.5 -15.5t18.5 -41.5q0 -82 -95 -82h-72q-18 0 -18 18q0 20 22 20h80q40 0 40 37q0 27 -30 27h-42q-10 0 -14.5 7t-0.5 15z" />
    <glyph glyph-name="egrave" unicode="&#xe8;" horiz-adv-x="470" 
d="M114 316l-6 -31h260l6 31q3 16 3 32q0 49 -29 78.5t-84 29.5q-59 0 -98.5 -39t-51.5 -101zM389 137q-13 -66 -63 -106.5t-128 -40.5q-71 0 -117 38.5t-46 103.5q0 16 3 34l25 146q15 87 69.5 136.5t138.5 49.5q67 0 110 -39.5t43 -107.5q0 -17 -4 -39l-8 -46
q-5 -25 -30 -25h-281l-14 -79q-3 -14 -3 -26q0 -47 30.5 -75.5t88.5 -28.5q60 0 95 30.5t45 79.5q5 23 24 23q12 0 18 -8.5t4 -19.5zM217 679l83 -95q8 -9 4 -20t-16 -11q-7 0 -12 5l-95 82q-12 10 -6.5 28t23.5 18q12 0 19 -7z" />
    <glyph glyph-name="eacute" unicode="&#xe9;" horiz-adv-x="470" 
d="M395 625l-103 -68q-5 -3 -10 -3q-14 0 -17 13t7 21l89 78q8 7 18 7q19 1 26 -17t-10 -31zM114 316l-6 -31h260l6 31q3 16 3 32q0 49 -29 78.5t-84 29.5q-59 0 -98.5 -39t-51.5 -101zM389 137q-13 -66 -63 -106.5t-128 -40.5q-71 0 -117 38.5t-46 103.5q0 16 3 34l25 146
q15 87 69.5 136.5t138.5 49.5q67 0 110 -39.5t43 -107.5q0 -17 -4 -39l-8 -46q-5 -25 -30 -25h-281l-14 -79q-3 -14 -3 -26q0 -47 30.5 -75.5t88.5 -28.5q60 0 95 30.5t45 79.5q5 23 24 23q12 0 18 -8.5t4 -19.5z" />
    <glyph glyph-name="ecircumflex" unicode="&#xea;" horiz-adv-x="470" 
d="M300 640l-105 -83q-5 -3 -8 -3q-11 0 -13.5 9t4.5 15l104 102q13 13 27 13t24 -15l68 -102q5 -7 0 -14.5t-14 -7.5q-7 0 -11 4zM114 316l-6 -31h260l6 31q3 16 3 32q0 49 -29 78.5t-84 29.5q-59 0 -98.5 -39t-51.5 -101zM389 137q-13 -66 -63 -106.5t-128 -40.5
q-71 0 -117 38.5t-46 103.5q0 16 3 34l25 146q15 87 69.5 136.5t138.5 49.5q67 0 110 -39.5t43 -107.5q0 -17 -4 -39l-8 -46q-5 -25 -30 -25h-281l-14 -79q-3 -14 -3 -26q0 -47 30.5 -75.5t88.5 -28.5q60 0 95 30.5t45 79.5q5 23 24 23q12 0 18 -8.5t4 -19.5z" />
    <glyph glyph-name="edieresis" unicode="&#xeb;" horiz-adv-x="470" 
d="M207 599q0 17 11 29t28 12q14 0 24 -9t10 -22q0 -18 -11 -30t-30 -12q-13 0 -22.5 9.5t-9.5 22.5zM308 599q0 17 11 29t28 12q15 0 24.5 -8.5t9.5 -22.5q0 -18 -10.5 -30t-30.5 -12q-13 0 -22.5 9.5t-9.5 22.5zM114 316l-6 -31h260l6 31q3 16 3 32q0 49 -29 78.5
t-84 29.5q-59 0 -98.5 -39t-51.5 -101zM389 137q-13 -66 -63 -106.5t-128 -40.5q-71 0 -117 38.5t-46 103.5q0 16 3 34l25 146q15 87 69.5 136.5t138.5 49.5q67 0 110 -39.5t43 -107.5q0 -17 -4 -39l-8 -46q-5 -25 -30 -25h-281l-14 -79q-3 -14 -3 -26q0 -47 30.5 -75.5
t88.5 -28.5q60 0 95 30.5t45 79.5q5 23 24 23q12 0 18 -8.5t4 -19.5z" />
    <glyph glyph-name="igrave" unicode="&#xec;" horiz-adv-x="200" 
d="M157 467l-79 -451q-4 -21 -26 -21q-12 0 -18.5 7.5t-4.5 18.5l79 451q4 21 26 21q12 0 18.5 -7.5t4.5 -18.5zM81 679l83 -95q8 -9 4 -20t-16 -11q-7 0 -12 5l-95 82q-12 10 -6.5 28t23.5 18q12 0 19 -7z" />
    <glyph glyph-name="iacute" unicode="&#xed;" horiz-adv-x="200" 
d="M261 625l-103 -68q-5 -3 -10 -3q-14 0 -17 13t7 21l89 78q8 7 18 7q19 1 26 -17t-10 -31zM157 467l-79 -451q-4 -21 -26 -21q-12 0 -18.5 7.5t-4.5 18.5l79 451q4 21 26 21q12 0 18.5 -7.5t4.5 -18.5z" />
    <glyph glyph-name="icircumflex" unicode="&#xee;" horiz-adv-x="200" 
d="M164 640l-105 -83q-4 -3 -8 -3q-11 0 -13.5 9t4.5 15l104 102q13 13 27 13t24 -15l68 -102q5 -7 0 -14.5t-14 -7.5q-7 0 -11 4zM157 467l-79 -451q-4 -21 -26 -21q-12 0 -18.5 7.5t-4.5 18.5l79 451q4 21 26 21q12 0 18.5 -7.5t4.5 -18.5z" />
    <glyph glyph-name="idieresis" unicode="&#xef;" horiz-adv-x="200" 
d="M70 599q0 17 11 29t28 12q14 0 24 -9t10 -22q0 -18 -11 -30t-30 -12q-13 0 -22.5 9.5t-9.5 22.5zM171 599q0 17 11 29t28 12q15 0 24.5 -8.5t9.5 -22.5q0 -18 -10.5 -30t-30.5 -12q-13 0 -22.5 9.5t-9.5 22.5zM157 467l-79 -451q-4 -21 -26 -21q-12 0 -18.5 7.5
t-4.5 18.5l79 451q4 21 26 21q12 0 18.5 -7.5t4.5 -18.5z" />
    <glyph glyph-name="eth" unicode="&#xf0;" horiz-adv-x="487" 
d="M114 316l-26 -144q-3 -16 -3 -31q0 -49 30 -78t85 -29q58 0 97.5 39t50.5 99l26 144q3 16 3 30q0 49 -29.5 78.5t-84.5 29.5q-58 0 -98 -38.5t-51 -99.5zM350 674l38 -51l72 22q9 3 16.5 -2t7.5 -15q0 -14 -12 -17l-62 -19q32 -52 32 -131q0 -43 -8 -86l-35 -199
q-15 -87 -69 -136.5t-138 -49.5q-68 0 -112 39.5t-44 107.5q0 20 4 39l23 136q15 87 69 136.5t138 49.5q39 0 75 -19.5t50 -53.5q1 12 1 33q0 73 -31 120l-89 -27q-8 -3 -16 2t-8 15q0 14 12 17l78 24l-28 38q-4 5 -4 12q0 9 6 16t16 7q12 0 18 -8z" />
    <glyph glyph-name="ntilde" unicode="&#xf1;" horiz-adv-x="500" 
d="M437 322l-54 -305q-4 -22 -26 -22q-12 0 -18.5 8.5t-4.5 19.5l54 303q2 12 2 27q0 45 -26.5 72.5t-77.5 27.5q-60 0 -102 -39t-53 -98l-53 -299q-4 -22 -26 -22q-12 0 -18.5 8.5t-4.5 19.5l80 453q3 17 19 17q18 0 18 -21l-1 -46q59 72 152 72q63 0 103 -37.5t40 -101.5
q0 -17 -3 -37zM189 566q-3 -11 -15 -11q-14 0 -14 14q0 37 25.5 64t66.5 27q27 0 57 -19l37 -24q28 -19 44 -19q31 0 43 55q3 11 14 11q15 0 15 -15q0 -34 -19.5 -61t-57.5 -27q-27 0 -64 24l-36 22q-25 16 -40 16q-39 0 -56 -57z" />
    <glyph glyph-name="ograve" unicode="&#xf2;" horiz-adv-x="476" 
d="M114 316l-26 -144q-3 -16 -3 -31q0 -49 29.5 -78t85.5 -29q58 0 97.5 39t50.5 99l26 144q3 16 3 30q0 49 -29.5 78.5t-84.5 29.5q-58 0 -98 -38.5t-51 -99.5zM423 312l-24 -136q-15 -87 -69 -136.5t-139 -49.5q-68 0 -111.5 39.5t-43.5 107.5q0 11 4 39l23 136
q14 87 68.5 136.5t139.5 49.5q67 0 111 -40t44 -108q0 -18 -3 -38zM218 679l83 -95q8 -9 4 -20t-16 -11q-7 0 -12 5l-95 82q-12 10 -6.5 28t23.5 18q12 0 19 -7z" />
    <glyph glyph-name="oacute" unicode="&#xf3;" horiz-adv-x="476" 
d="M397 625l-103 -68q-4 -3 -10 -3q-14 0 -17 13t7 21l89 78q8 7 18 7q19 1 26 -17t-10 -31zM114 316l-26 -144q-3 -16 -3 -31q0 -49 29.5 -78t85.5 -29q58 0 97.5 39t50.5 99l26 144q3 16 3 30q0 49 -29.5 78.5t-84.5 29.5q-58 0 -98 -38.5t-51 -99.5zM423 312l-24 -136
q-15 -87 -69 -136.5t-139 -49.5q-68 0 -111.5 39.5t-43.5 107.5q0 11 4 39l23 136q14 87 68.5 136.5t139.5 49.5q67 0 111 -40t44 -108q0 -18 -3 -38z" />
    <glyph glyph-name="ocircumflex" unicode="&#xf4;" horiz-adv-x="476" 
d="M302 640l-105 -83q-5 -3 -8 -3q-11 0 -13.5 9t4.5 15l104 102q13 13 27 13t24 -15l68 -102q5 -7 0 -14.5t-14 -7.5q-7 0 -11 4zM114 316l-26 -144q-3 -16 -3 -31q0 -49 29.5 -78t85.5 -29q58 0 97.5 39t50.5 99l26 144q3 16 3 30q0 49 -29.5 78.5t-84.5 29.5
q-58 0 -98 -38.5t-51 -99.5zM423 312l-24 -136q-15 -87 -69 -136.5t-139 -49.5q-68 0 -111.5 39.5t-43.5 107.5q0 11 4 39l23 136q14 87 68.5 136.5t139.5 49.5q67 0 111 -40t44 -108q0 -18 -3 -38z" />
    <glyph glyph-name="otilde" unicode="&#xf5;" horiz-adv-x="476" 
d="M114 316l-26 -144q-3 -16 -3 -31q0 -49 29.5 -78t85.5 -29q58 0 97.5 39t50.5 99l26 144q3 16 3 30q0 49 -29.5 78.5t-84.5 29.5q-58 0 -98 -38.5t-51 -99.5zM423 312l-24 -136q-15 -87 -69 -136.5t-139 -49.5q-68 0 -111.5 39.5t-43.5 107.5q0 11 4 39l23 136
q14 87 68.5 136.5t139.5 49.5q67 0 111 -40t44 -108q0 -18 -3 -38zM173 566q-3 -11 -15 -11q-14 0 -14 14q0 37 25.5 64t66.5 27q27 0 57 -19l37 -24q28 -19 44 -19q31 0 43 55q3 11 14 11q15 0 15 -15q0 -34 -19.5 -61t-57.5 -27q-27 0 -64 24l-36 22q-25 16 -40 16
q-39 0 -56 -57z" />
    <glyph glyph-name="odieresis" unicode="&#xf6;" horiz-adv-x="476" 
d="M207 599q0 17 11 29t28 12q14 0 24 -9t10 -22q0 -18 -11 -30t-30 -12q-13 0 -22.5 9.5t-9.5 22.5zM308 599q0 17 11 29t28 12q15 0 24.5 -8.5t9.5 -22.5q0 -18 -10.5 -30t-30.5 -12q-13 0 -22.5 9.5t-9.5 22.5zM114 316l-26 -144q-3 -16 -3 -31q0 -49 29.5 -78t85.5 -29
q58 0 97.5 39t50.5 99l26 144q3 16 3 30q0 49 -29.5 78.5t-84.5 29.5q-58 0 -98 -38.5t-51 -99.5zM423 312l-24 -136q-15 -87 -69 -136.5t-139 -49.5q-68 0 -111.5 39.5t-43.5 107.5q0 11 4 39l23 136q14 87 68.5 136.5t139.5 49.5q67 0 111 -40t44 -108q0 -18 -3 -38z" />
    <glyph glyph-name="divide" unicode="&#xf7;" horiz-adv-x="507" 
d="M71 328q0 23 21 23h337q21 0 21 -23q0 -22 -21 -22h-337q-21 0 -21 22zM219 173q0 16 12 28t29 12q16 0 28 -11.5t12 -28.5t-12 -29t-28 -12t-28.5 12t-12.5 29zM219 485q0 16 12 28t29 12q16 0 28 -11.5t12 -28.5t-12 -29t-28 -12t-28.5 12t-12.5 29z" />
    <glyph glyph-name="oslash" unicode="&#xf8;" horiz-adv-x="476" 
d="M423 312l-24 -136q-15 -87 -69 -136.5t-139 -49.5q-55 0 -95 26l-44 -62q-5 -8 -16 -8t-16 10.5t1 18.5l47 66q-32 40 -32 96q0 20 4 39l23 136q15 87 69 136.5t139 49.5q54 0 95 -27l45 64q6 8 15 8q11 0 16.5 -9.5t-0.5 -19.5l-48 -70q32 -38 32 -94q0 -18 -3 -38z
M114 316l-26 -144q-3 -16 -3 -31q0 -36 14 -58l241 347q-30 24 -77 24q-58 0 -98 -38.5t-51 -99.5zM377 346q0 32 -14 57l-241 -346q29 -23 78 -23q58 0 98 39t51 99l25 144q3 16 3 30z" />
    <glyph glyph-name="ugrave" unicode="&#xf9;" horiz-adv-x="495" 
d="M452 467l-81 -455q-3 -17 -18 -17q-17 0 -17 21v45q-60 -71 -147 -71q-64 0 -103.5 37.5t-39.5 101.5q0 17 3 37l54 306q4 21 26 21q12 0 18.5 -7.5t4.5 -18.5l-53 -305q-3 -15 -3 -29q0 -45 27 -71.5t78 -26.5q57 0 97.5 39t51.5 98l53 300q4 21 26 21q12 0 18.5 -7.5
t4.5 -18.5zM226 679l83 -95q8 -9 4 -20t-16 -11q-7 0 -12 5l-95 82q-12 10 -6.5 28t23.5 18q12 0 19 -7z" />
    <glyph glyph-name="uacute" unicode="&#xfa;" horiz-adv-x="495" 
d="M404 625l-103 -68q-5 -3 -10 -3q-14 0 -17 13t7 21l89 78q8 7 18 7q19 1 26 -17t-10 -31zM452 467l-81 -455q-3 -17 -18 -17q-17 0 -17 21v45q-60 -71 -147 -71q-64 0 -103.5 37.5t-39.5 101.5q0 17 3 37l54 306q4 21 26 21q12 0 18.5 -7.5t4.5 -18.5l-53 -305
q-3 -15 -3 -29q0 -45 27 -71.5t78 -26.5q57 0 97.5 39t51.5 98l53 300q4 21 26 21q12 0 18.5 -7.5t4.5 -18.5z" />
    <glyph glyph-name="ucircumflex" unicode="&#xfb;" horiz-adv-x="495" 
d="M308 640l-105 -83q-5 -3 -8 -3q-11 0 -13.5 9t4.5 15l104 102q13 13 27 13t24 -15l68 -102q5 -7 0 -14.5t-14 -7.5q-7 0 -11 4zM452 467l-81 -455q-3 -17 -18 -17q-17 0 -17 21v45q-60 -71 -147 -71q-64 0 -103.5 37.5t-39.5 101.5q0 17 3 37l54 306q4 21 26 21
q12 0 18.5 -7.5t4.5 -18.5l-53 -305q-3 -15 -3 -29q0 -45 27 -71.5t78 -26.5q57 0 97.5 39t51.5 98l53 300q4 21 26 21q12 0 18.5 -7.5t4.5 -18.5z" />
    <glyph glyph-name="udieresis" unicode="&#xfc;" horiz-adv-x="495" 
d="M214 599q0 17 11 29t28 12q14 0 24 -9t10 -22q0 -18 -11 -30t-30 -12q-13 0 -22.5 9.5t-9.5 22.5zM315 599q0 17 11 29t28 12q15 0 24.5 -8.5t9.5 -22.5q0 -18 -10.5 -30t-30.5 -12q-13 0 -22.5 9.5t-9.5 22.5zM452 467l-81 -455q-3 -17 -18 -17q-17 0 -17 21v45
q-60 -71 -147 -71q-64 0 -103.5 37.5t-39.5 101.5q0 17 3 37l54 306q4 21 26 21q12 0 18.5 -7.5t4.5 -18.5l-53 -305q-3 -15 -3 -29q0 -45 27 -71.5t78 -26.5q57 0 97.5 39t51.5 98l53 300q4 21 26 21q12 0 18.5 -7.5t4.5 -18.5z" />
    <glyph glyph-name="yacute" unicode="&#xfd;" horiz-adv-x="451" 
d="M442 456l-343 -636q-7 -12 -20 -12q-11 0 -17.5 10.5t-0.5 21.5l91 166l-85 454q-2 12 5 22.5t19 10.5q9 0 17 -6t9 -15l70 -400l214 408q7 13 21 13q13 0 20 -11.5t0 -25.5zM385 625l-103 -68q-4 -3 -10 -3q-14 0 -17 13t7 21l89 78q8 7 18 7q19 1 26 -17t-10 -31z" />
    <glyph glyph-name="thorn" unicode="&#xfe;" 
d="M282 453q-59 0 -100 -38.5t-51 -98.5l-25 -144q-3 -15 -3 -28q0 -49 30.5 -79t86.5 -30q55 0 93 36t47 91l28 164q3 15 3 28q0 45 -27.5 72t-81.5 27zM191 658l-39 -224q56 64 140 64q68 0 108 -39t40 -106q0 -15 -3 -30l-27 -157q-31 -176 -194 -176q-39 0 -76.5 17
t-54.5 47l-40 -225q-4 -21 -26 -21q-11 0 -18 8.5t-5 18.5l145 826q4 21 26 21q12 0 18.5 -7t5.5 -17z" />
    <glyph glyph-name="ydieresis" unicode="&#xff;" horiz-adv-x="451" 
d="M442 456l-343 -636q-7 -12 -20 -12q-11 0 -17.5 10.5t-0.5 21.5l91 166l-85 454q-2 12 5 22.5t19 10.5q9 0 17 -6t9 -15l70 -400l214 408q7 13 21 13q13 0 20 -11.5t0 -25.5zM194 599q0 17 11 29t28 12q14 0 24 -9t10 -22q0 -18 -11 -30t-30 -12q-13 0 -22.5 9.5
t-9.5 22.5zM295 599q0 17 11 29t28 12q15 0 24.5 -8.5t9.5 -22.5q0 -18 -10.5 -30t-30.5 -12q-13 0 -22.5 9.5t-9.5 22.5z" />
    <glyph glyph-name="Amacron" unicode="&#x100;" horiz-adv-x="544" 
d="M118 167l-79 -157q-8 -15 -22 -15t-20.5 11.5t0.5 24.5l310 608q12 23 34 23q24 0 27 -25l97 -614q2 -11 -6 -19.5t-21 -8.5q-22 0 -26 25l-22 147h-272zM328 583l-186 -369h241zM234 756q0 11 7 16.5t15 5.5h201q7 0 12.5 -5t5.5 -14q0 -10 -7 -15.5t-15 -5.5h-201
q-7 0 -12.5 5.5t-5.5 12.5z" />
    <glyph glyph-name="amacron" unicode="&#x101;" 
d="M448 472l-81 -461q-4 -16 -18 -16q-17 0 -17 20v46q-60 -71 -149 -71q-66 0 -106 37t-40 102q0 16 3 37l27 156q15 84 64.5 130t132.5 46q41 0 78 -18.5t54 -51.5l19 50q6 15 18 15q8 0 12 -6t3 -15zM195 35q59 0 100 39t51 98l25 144q3 15 3 28q0 49 -30 79t-84 30
q-58 0 -95 -35.5t-47 -91.5l-30 -164q-3 -15 -3 -28q0 -45 28 -72t82 -27zM172 595q0 11 7 16.5t15 5.5h201q7 0 12.5 -5t5.5 -14q0 -10 -7 -15.5t-15 -5.5h-201q-7 0 -12.5 5.5t-5.5 12.5z" />
    <glyph glyph-name="Abreve" unicode="&#x102;" horiz-adv-x="544" 
d="M118 167l-79 -157q-8 -15 -22 -15t-20.5 11.5t0.5 24.5l310 608q12 23 34 23q24 0 27 -25l97 -614q2 -11 -6 -19.5t-21 -8.5q-22 0 -26 25l-22 147h-272zM328 583l-186 -369h241zM452 790q-8 -43 -34.5 -69.5t-71.5 -26.5q-44 0 -67 28t-13 72q4 16 20 16q9 0 14 -6
t3 -14q-8 -27 5.5 -45t43.5 -18q47 0 63 65q1 2 1 3q4 15 19 15q9 0 14 -6t3 -14z" />
    <glyph glyph-name="abreve" unicode="&#x103;" 
d="M448 472l-81 -461q-4 -16 -18 -16q-17 0 -17 20v46q-60 -71 -149 -71q-66 0 -106 37t-40 102q0 16 3 37l27 156q15 84 64.5 130t132.5 46q41 0 78 -18.5t54 -51.5l19 50q6 15 18 15q8 0 12 -6t3 -15zM195 35q59 0 100 39t51 98l25 144q3 15 3 28q0 49 -30 79t-84 30
q-58 0 -95 -35.5t-47 -91.5l-30 -164q-3 -15 -3 -28q0 -45 28 -72t82 -27zM394 647q-8 -43 -34.5 -69.5t-71.5 -26.5q-44 0 -67 28t-13 72q4 16 20 16q9 0 14 -6t3 -14q-8 -27 5.5 -45t43.5 -18q47 0 63 65q1 2 1 3q4 15 19 15q9 0 14 -6t3 -14z" />
    <glyph glyph-name="Aogonek" unicode="&#x104;" horiz-adv-x="544" 
d="M408 -185q-24 0 -38.5 1.5t-34.5 6.5t-29.5 17.5t-9.5 33.5q0 38 36.5 75.5t84.5 56.5q-3 4 -5 14l-22 147h-272l-79 -157q-8 -15 -22 -15t-20.5 11.5t0.5 24.5l310 608q12 23 34 23q24 0 27 -25l97 -614q1 -11 -6 -19.5t-16 -8.5q-106 -54 -106 -110q0 -12 5.5 -19
t18 -10t22.5 -3.5t29 -0.5q17 0 17 -17q0 -20 -21 -20zM328 583l-186 -369h241z" />
    <glyph glyph-name="aogonek" unicode="&#x105;" 
d="M313 -185q-24 0 -38.5 1.5t-34.5 6.5t-29.5 17.5t-9.5 33.5q0 40 40.5 78.5t91.5 55.5q-1 2 -1 7v46q-60 -71 -149 -71q-66 0 -106 37t-40 102q0 16 3 37l27 156q15 84 64.5 130t132.5 46q41 0 78 -18.5t54 -51.5l19 50q6 15 18 15q8 0 12 -6t3 -15l-81 -461
q-4 -16 -15 -16q-110 -53 -110 -110q0 -12 5.5 -19t18 -10t22.5 -3.5t29 -0.5q17 0 17 -17q0 -20 -21 -20zM195 35q59 0 100 39t51 98l25 144q3 15 3 28q0 49 -30 79t-84 30q-58 0 -95 -35.5t-47 -91.5l-30 -164q-3 -15 -3 -28q0 -45 28 -72t82 -27z" />
    <glyph glyph-name="Cacute" unicode="&#x106;" horiz-adv-x="539" 
d="M464 178q-13 -88 -74 -138t-155 -50q-81 0 -133 44.5t-52 120.5q0 12 4 40l46 267q17 95 80 150t160 55q82 0 135 -48.5t42 -136.5q-3 -24 -25 -24q-26 0 -23 29q6 62 -29.5 97.5t-107.5 35.5t-119.5 -43t-59.5 -112l-48 -273q-3 -18 -3 -34q0 -55 36.5 -88t104.5 -33
q72 0 117.5 39t55.5 107q3 24 25 24q26 0 23 -29zM462 769l-103 -68q-5 -3 -10 -3q-14 0 -17 13t7 21l89 78q8 7 18 7q19 1 26 -17t-10 -31z" />
    <glyph glyph-name="cacute" unicode="&#x107;" horiz-adv-x="468" 
d="M397 625l-103 -68q-4 -3 -10 -3q-14 0 -17 13t7 21l89 78q8 7 18 7q19 1 26 -17t-10 -31zM390 137q-18 -69 -66 -108t-124 -39q-73 0 -118 40t-45 112q0 18 3 39l23 131q15 88 69 137t140 49q69 0 117 -39t39 -111q-3 -24 -25 -24q-25 0 -23 28q2 48 -28.5 75t-87.5 27
q-59 0 -99 -38.5t-51 -99.5l-25 -139q-3 -17 -3 -31q0 -51 29.5 -81.5t86.5 -30.5q112 0 141 108q7 24 24 24q12 0 19 -8.5t4 -20.5z" />
    <glyph glyph-name="Ccircumflex" unicode="&#x108;" horiz-adv-x="539" 
d="M464 178q-13 -88 -74 -138t-155 -50q-81 0 -133 44.5t-52 120.5q0 12 4 40l46 267q17 95 80 150t160 55q82 0 135 -48.5t42 -136.5q-3 -24 -25 -24q-26 0 -23 29q6 62 -29.5 97.5t-107.5 35.5t-119.5 -43t-59.5 -112l-48 -273q-3 -18 -3 -34q0 -55 36.5 -88t104.5 -33
q72 0 117.5 39t55.5 107q3 24 25 24q26 0 23 -29zM366 784l-105 -83q-5 -3 -8 -3q-11 0 -13.5 9t4.5 15l104 102q13 13 27 13t24 -15l68 -102q5 -7 0 -14.5t-14 -7.5q-7 0 -11 4z" />
    <glyph glyph-name="ccircumflex" unicode="&#x109;" horiz-adv-x="468" 
d="M301 640l-105 -83q-5 -3 -8 -3q-11 0 -13.5 9t4.5 15l104 102q13 13 27 13t24 -15l68 -102q5 -7 0 -14.5t-14 -7.5q-7 0 -11 4zM390 137q-18 -69 -66 -108t-124 -39q-73 0 -118 40t-45 112q0 18 3 39l23 131q15 88 69 137t140 49q69 0 117 -39t39 -111q-3 -24 -25 -24
q-25 0 -23 28q2 48 -28.5 75t-87.5 27q-59 0 -99 -38.5t-51 -99.5l-25 -139q-3 -17 -3 -31q0 -51 29.5 -81.5t86.5 -30.5q112 0 141 108q7 24 24 24q12 0 19 -8.5t4 -20.5z" />
    <glyph glyph-name="Cdotaccent" unicode="&#x10a;" horiz-adv-x="539" 
d="M318 749q0 19 12.5 33t31.5 14q17 0 27.5 -10t10.5 -25q0 -19 -12 -32.5t-32 -13.5q-17 0 -27.5 9t-10.5 25zM464 178q-13 -88 -74 -138t-155 -50q-81 0 -133 44.5t-52 120.5q0 12 4 40l46 267q17 95 80 150t160 55q82 0 135 -48.5t42 -136.5q-3 -24 -25 -24
q-26 0 -23 29q6 62 -29.5 97.5t-107.5 35.5t-119.5 -43t-59.5 -112l-48 -273q-3 -18 -3 -34q0 -55 36.5 -88t104.5 -33q72 0 117.5 39t55.5 107q3 24 25 24q26 0 23 -29z" />
    <glyph glyph-name="cdotaccent" unicode="&#x10b;" horiz-adv-x="468" 
d="M390 137q-18 -69 -66 -108t-124 -39q-73 0 -118 40t-45 112q0 18 3 39l23 131q15 88 69 137t140 49q69 0 117 -39t39 -111q-3 -24 -25 -24q-25 0 -23 28q2 48 -28.5 75t-87.5 27q-59 0 -99 -38.5t-51 -99.5l-25 -139q-3 -17 -3 -31q0 -51 29.5 -81.5t86.5 -30.5
q112 0 141 108q7 24 24 24q12 0 19 -8.5t4 -20.5zM252 599q0 19 12.5 33t31.5 14q17 0 27.5 -9.5t10.5 -25.5q0 -19 -12 -32.5t-32 -13.5q-17 0 -27.5 9t-10.5 25z" />
    <glyph glyph-name="Ccaron" unicode="&#x10c;" horiz-adv-x="539" 
d="M464 178q-13 -88 -74 -138t-155 -50q-81 0 -133 44.5t-52 120.5q0 12 4 40l46 267q17 95 80 150t160 55q82 0 135 -48.5t42 -136.5q-3 -24 -25 -24q-26 0 -23 29q6 62 -29.5 97.5t-107.5 35.5t-119.5 -43t-59.5 -112l-48 -273q-3 -18 -3 -34q0 -55 36.5 -88t104.5 -33
q72 0 117.5 39t55.5 107q3 24 25 24q26 0 23 -29zM357 738l104 81q5 3 10 3q10 0 12.5 -8.5t-4.5 -13.5l-104 -103q-13 -13 -27 -13q-13 0 -23 15l-69 103q-5 8 -1 15.5t13 7.5q6 0 11 -5z" />
    <glyph glyph-name="ccaron" unicode="&#x10d;" horiz-adv-x="468" 
d="M291 598l103 82q4 3 10 3q10 0 12.5 -9t-3.5 -14l-104 -102q-13 -13 -27 -13q-13 0 -23 15l-68 103q-4 7 0.5 15t13.5 8q6 0 11 -5zM390 137q-18 -69 -66 -108t-124 -39q-73 0 -118 40t-45 112q0 18 3 39l23 131q15 88 69 137t140 49q69 0 117 -39t39 -111
q-3 -24 -25 -24q-25 0 -23 28q2 48 -28.5 75t-87.5 27q-59 0 -99 -38.5t-51 -99.5l-25 -139q-3 -17 -3 -31q0 -51 29.5 -81.5t86.5 -30.5q112 0 141 108q7 24 24 24q12 0 19 -8.5t4 -20.5z" />
    <glyph glyph-name="Dcaron" unicode="&#x10e;" horiz-adv-x="567" 
d="M65 0q-13 0 -19.5 8t-4.5 19l107 608q4 22 27 22h175q79 0 130 -45.5t51 -122.5q0 -14 -4 -42l-42 -237q-17 -99 -82.5 -154.5t-167.5 -55.5h-170zM342 610h-146l-100 -563h147q76 0 126 44.5t63 115.5l44 243q3 18 3 35q0 56 -35.5 90.5t-101.5 34.5zM336 738l104 81
q4 3 10 3q10 0 12.5 -8.5t-4.5 -13.5l-104 -103q-13 -13 -27 -13q-13 0 -23 15l-69 103q-5 8 -1 15.5t13 7.5q6 0 11 -5z" />
    <glyph glyph-name="dcaron" unicode="&#x10f;" 
d="M198 35q56 0 96.5 39t51.5 98l25 144q3 16 3 28q0 49 -30.5 79t-86.5 30t-92.5 -35.5t-46.5 -91.5l-30 -164q-3 -15 -3 -28q0 -45 29 -72t84 -27zM480 654l-113 -643q-4 -16 -18 -16q-17 0 -17 20v46q-58 -71 -146 -71q-66 0 -108 37.5t-42 100.5q0 14 4 38l27 156
q15 84 64 130t131 46q39 0 76 -17.5t54 -47.5l40 227q4 22 26 22q12 0 18 -8.5t4 -19.5zM543 556q-5 -10 -18 -10q-19 0 -19 19q0 3 1 6l34 94q7 17 24 17q13 0 21.5 -7.5t8.5 -18.5q0 -6 -4 -14z" />
    <glyph glyph-name="Dcroat" unicode="&#x110;" horiz-adv-x="584" 
d="M31 334q0 24 26 24h59l49 274q5 25 29 25h170q80 0 132 -46t52 -122q0 -22 -4 -42l-42 -237q-17 -98 -81 -154t-163 -56h-180q-11 0 -17 6.5t-4 17.5l51 290h-56q-21 0 -21 20zM355 610h-142l-45 -252h126q9 0 15 -6t6 -15q0 -23 -26 -23h-128l-47 -267h152
q73 0 121.5 44.5t61.5 115.5l44 243q3 18 3 35q0 57 -36.5 91t-104.5 34z" />
    <glyph glyph-name="dcroat" unicode="&#x111;" 
d="M480 654l-10 -56h40q21 0 21 -20q0 -22 -26 -22h-42l-96 -545q-4 -16 -18 -16q-17 0 -17 20v46q-58 -71 -146 -71q-66 0 -108 37.5t-42 100.5q0 14 4 38l27 156q15 84 64 130t131 46q39 0 76 -17.5t54 -47.5l21 123h-113q-21 0 -21 19q0 23 26 23h116l11 62q4 22 26 22
q12 0 18 -8.5t4 -19.5zM198 35q56 0 96.5 39t51.5 98l25 144q3 16 3 28q0 49 -30.5 79t-86.5 30t-92.5 -35.5t-46.5 -91.5l-30 -164q-3 -15 -3 -28q0 -45 29 -72t84 -27z" />
    <glyph glyph-name="Emacron" unicode="&#x112;" horiz-adv-x="506" 
d="M175 657h317q22 0 22 -22q0 -25 -27 -25h-291l-45 -250h266q22 0 22 -22q0 -25 -27 -25h-269l-47 -266h297q22 0 22 -22q0 -25 -27 -25h-323q-29 0 -24 27l107 608q4 22 27 22zM234 756q0 11 7 16.5t15 5.5h201q7 0 12.5 -5t5.5 -14q0 -10 -7 -15.5t-15 -5.5h-201
q-7 0 -12.5 5.5t-5.5 12.5z" />
    <glyph glyph-name="emacron" unicode="&#x113;" horiz-adv-x="470" 
d="M114 316l-6 -31h260l6 31q3 16 3 32q0 49 -29 78.5t-84 29.5q-59 0 -98.5 -39t-51.5 -101zM389 137q-13 -66 -63 -106.5t-128 -40.5q-71 0 -117 38.5t-46 103.5q0 16 3 34l25 146q15 87 69.5 136.5t138.5 49.5q67 0 110 -39.5t43 -107.5q0 -17 -4 -39l-8 -46
q-5 -25 -30 -25h-281l-14 -79q-3 -14 -3 -26q0 -47 30.5 -75.5t88.5 -28.5q60 0 95 30.5t45 79.5q5 23 24 23q12 0 18 -8.5t4 -19.5zM171 595q0 11 7 16.5t15 5.5h201q7 0 12.5 -5t5.5 -14q0 -10 -7 -15.5t-15 -5.5h-201q-7 0 -12.5 5.5t-5.5 12.5z" />
    <glyph glyph-name="Ebreve" unicode="&#x114;" horiz-adv-x="506" 
d="M175 657h317q22 0 22 -22q0 -25 -27 -25h-291l-45 -250h266q22 0 22 -22q0 -25 -27 -25h-269l-47 -266h297q22 0 22 -22q0 -25 -27 -25h-323q-29 0 -24 27l107 608q4 22 27 22zM453 790q-8 -43 -34.5 -69.5t-71.5 -26.5q-44 0 -67 28t-13 72q4 16 20 16q9 0 14 -6t3 -14
q-8 -27 5.5 -45t43.5 -18q47 0 63 65q1 2 1 3q4 15 19 15q9 0 14 -6t3 -14z" />
    <glyph glyph-name="ebreve" unicode="&#x115;" horiz-adv-x="470" 
d="M114 316l-6 -31h260l6 31q3 16 3 32q0 49 -29 78.5t-84 29.5q-59 0 -98.5 -39t-51.5 -101zM389 137q-13 -66 -63 -106.5t-128 -40.5q-71 0 -117 38.5t-46 103.5q0 16 3 34l25 146q15 87 69.5 136.5t138.5 49.5q67 0 110 -39.5t43 -107.5q0 -17 -4 -39l-8 -46
q-5 -25 -30 -25h-281l-14 -79q-3 -14 -3 -26q0 -47 30.5 -75.5t88.5 -28.5q60 0 95 30.5t45 79.5q5 23 24 23q12 0 18 -8.5t4 -19.5zM393 647q-8 -43 -34.5 -69.5t-71.5 -26.5q-44 0 -67 28t-13 72q4 16 20 16q9 0 14 -6t3 -14q-8 -27 5.5 -45t43.5 -18q47 0 63 65q1 2 1 3
q4 15 19 15q9 0 14 -6t3 -14z" />
    <glyph glyph-name="Edotaccent" unicode="&#x116;" horiz-adv-x="506" 
d="M313 749q0 19 12.5 33t31.5 14q17 0 27.5 -10t10.5 -25q0 -19 -12 -32.5t-32 -13.5q-17 0 -27.5 9t-10.5 25zM175 657h317q22 0 22 -22q0 -25 -27 -25h-291l-45 -250h266q22 0 22 -22q0 -25 -27 -25h-269l-47 -266h297q22 0 22 -22q0 -25 -27 -25h-323q-29 0 -24 27
l107 608q4 22 27 22z" />
    <glyph glyph-name="edotaccent" unicode="&#x117;" horiz-adv-x="470" 
d="M114 316l-6 -31h260l6 31q3 16 3 32q0 49 -29 78.5t-84 29.5q-59 0 -98.5 -39t-51.5 -101zM389 137q-13 -66 -63 -106.5t-128 -40.5q-71 0 -117 38.5t-46 103.5q0 16 3 34l25 146q15 87 69.5 136.5t138.5 49.5q67 0 110 -39.5t43 -107.5q0 -17 -4 -39l-8 -46
q-5 -25 -30 -25h-281l-14 -79q-3 -14 -3 -26q0 -47 30.5 -75.5t88.5 -28.5q60 0 95 30.5t45 79.5q5 23 24 23q12 0 18 -8.5t4 -19.5zM252 599q0 19 12.5 33t31.5 14q17 0 27.5 -9.5t10.5 -25.5q0 -19 -12 -32.5t-32 -13.5q-17 0 -27.5 9t-10.5 25z" />
    <glyph glyph-name="Eogonek" unicode="&#x118;" horiz-adv-x="506" 
d="M357 -165q0 -20 -21 -20q-24 0 -38.5 1.5t-34.5 6.5t-29.5 17.5t-9.5 33.5q0 36 31.5 70.5t75.5 55.5h-266q-29 0 -24 27l107 608q4 22 27 22h317q22 0 22 -22q0 -25 -27 -25h-291l-45 -250h266q22 0 22 -22q0 -25 -27 -25h-269l-47 -266h297q22 0 22 -22q0 -25 -27 -25
h-8q-115 -58 -115 -115q0 -12 5.5 -19t18 -10t22.5 -3.5t29 -0.5q17 0 17 -17z" />
    <glyph glyph-name="eogonek" unicode="&#x119;" horiz-adv-x="470" 
d="M288 -185h-28q-38 0 -60 19t-22 51q0 52 63 111q-15 -6 -44 -6q-71 0 -116.5 38.5t-45.5 103.5q0 16 3 34l25 146q15 87 69.5 136.5t138.5 49.5q67 0 110 -39.5t43 -107.5q0 -11 -4 -39l-8 -46q-5 -25 -30 -25h-281l-14 -79q-3 -14 -3 -26q0 -47 30.5 -75.5t88.5 -28.5
q55 0 93.5 31t46.5 79q4 23 25 23q11 0 17 -8.5t4 -17.5q-17 -68 -57 -103q-9 -8 -31.5 -26.5t-32.5 -28t-24 -24.5t-19.5 -30t-5.5 -32q0 -43 46 -43h27q17 0 17 -17q0 -20 -21 -20zM114 316l-6 -31h260l6 31q3 16 3 32q0 49 -29 78.5t-84 29.5q-59 0 -98.5 -39t-51.5 -101
z" />
    <glyph glyph-name="Ecaron" unicode="&#x11a;" horiz-adv-x="506" 
d="M175 657h317q22 0 22 -22q0 -25 -27 -25h-291l-45 -250h266q22 0 22 -22q0 -25 -27 -25h-269l-47 -266h297q22 0 22 -22q0 -25 -27 -25h-323q-29 0 -24 27l107 608q4 22 27 22zM352 738l104 81q4 3 10 3q10 0 12.5 -8.5t-4.5 -13.5l-104 -103q-13 -13 -27 -13
q-13 0 -23 15l-69 103q-5 8 -1 15.5t13 7.5q6 0 11 -5z" />
    <glyph glyph-name="ecaron" unicode="&#x11b;" horiz-adv-x="470" 
d="M291 598l103 82q4 3 10 3q10 0 12.5 -9t-3.5 -14l-104 -102q-13 -13 -27 -13q-13 0 -23 15l-68 103q-4 7 0.5 15t13.5 8q6 0 11 -5zM114 316l-6 -31h260l6 31q3 16 3 32q0 49 -29 78.5t-84 29.5q-59 0 -98.5 -39t-51.5 -101zM389 137q-13 -66 -63 -106.5t-128 -40.5
q-71 0 -117 38.5t-46 103.5q0 16 3 34l25 146q15 87 69.5 136.5t138.5 49.5q67 0 110 -39.5t43 -107.5q0 -17 -4 -39l-8 -46q-5 -25 -30 -25h-281l-14 -79q-3 -14 -3 -26q0 -47 30.5 -75.5t88.5 -28.5q60 0 95 30.5t45 79.5q5 23 24 23q12 0 18 -8.5t4 -19.5z" />
    <glyph glyph-name="Gcircumflex" unicode="&#x11c;" horiz-adv-x="546" 
d="M364 784l-105 -83q-5 -3 -8 -3q-11 0 -13.5 9t4.5 15l104 102q13 13 27 13t24 -15l68 -102q5 -7 0 -14.5t-14 -7.5q-7 0 -11 4zM432 270h-116q-9 0 -15 6t-6 15q0 24 26 24h138q13 0 19.5 -8.5t4.5 -19.5l-18 -106q-15 -89 -74.5 -140t-154.5 -51q-82 0 -134 44.5
t-52 121.5q0 17 4 39l46 267q17 95 80 150t160 55q52 0 95 -18t69 -58.5t17 -96.5q-3 -24 -25 -24q-12 0 -18.5 8t-5.5 21q6 52 -30 86.5t-110 34.5q-72 0 -119.5 -43t-59.5 -112l-48 -273q-3 -16 -3 -33q0 -55 36.5 -88.5t106.5 -33.5q72 0 116 38.5t55 101.5z" />
    <glyph glyph-name="gcircumflex" unicode="&#x11d;" 
d="M301 640l-105 -83q-5 -3 -8 -3q-11 0 -13.5 9t4.5 15l104 102q13 13 27 13t24 -15l68 -102q5 -7 0 -14.5t-14 -7.5q-7 0 -11 4zM448 473l-89 -505q-14 -80 -65 -122.5t-133 -42.5q-63 0 -110.5 31t-42.5 98q2 22 25 22q11 0 17 -7.5t5 -17.5q-3 -42 30 -62.5t84 -20.5
q56 0 93 32t47 85l19 108q-59 -64 -141 -64q-67 0 -107 37t-40 101q0 19 3 38l24 139q15 84 65 130t132 46q41 0 78 -18.5t54 -51.5l18 49q5 16 19 16q8 0 12.5 -6t2.5 -14zM198 52q58 0 99 38.5t52 98.5l22 127q3 15 3 29q0 48 -30.5 78t-84.5 30q-57 0 -94 -35.5
t-47 -91.5l-27 -147q-3 -15 -3 -28q0 -45 28 -72t82 -27z" />
    <glyph glyph-name="Gbreve" unicode="&#x11e;" horiz-adv-x="546" 
d="M432 270h-116q-9 0 -15 6t-6 15q0 24 26 24h138q13 0 19.5 -8.5t4.5 -19.5l-18 -106q-15 -89 -74.5 -140t-154.5 -51q-82 0 -134 44.5t-52 121.5q0 17 4 39l46 267q17 95 80 150t160 55q52 0 95 -18t69 -58.5t17 -96.5q-3 -24 -25 -24q-12 0 -18.5 8t-5.5 21
q6 52 -30 86.5t-110 34.5q-72 0 -119.5 -43t-59.5 -112l-48 -273q-3 -16 -3 -33q0 -55 36.5 -88.5t106.5 -33.5q72 0 116 38.5t55 101.5zM458 790q-8 -43 -34.5 -69.5t-71.5 -26.5q-44 0 -67 28t-13 72q4 16 20 16q9 0 14 -6t3 -14q-8 -27 5.5 -45t43.5 -18q47 0 63 65
q1 2 1 3q4 15 19 15q9 0 14 -6t3 -14z" />
    <glyph glyph-name="gbreve" unicode="&#x11f;" 
d="M448 473l-89 -505q-14 -80 -65 -122.5t-133 -42.5q-63 0 -110.5 31t-42.5 98q2 22 25 22q11 0 17 -7.5t5 -17.5q-3 -42 30 -62.5t84 -20.5q56 0 93 32t47 85l19 108q-59 -64 -141 -64q-67 0 -107 37t-40 101q0 19 3 38l24 139q15 84 65 130t132 46q41 0 78 -18.5
t54 -51.5l18 49q5 16 19 16q8 0 12.5 -6t2.5 -14zM198 52q58 0 99 38.5t52 98.5l22 127q3 15 3 29q0 48 -30.5 78t-84.5 30q-57 0 -94 -35.5t-47 -91.5l-27 -147q-3 -15 -3 -28q0 -45 28 -72t82 -27zM394 647q-8 -43 -34.5 -69.5t-71.5 -26.5q-44 0 -67 28t-13 72
q4 16 20 16q9 0 14 -6t3 -14q-8 -27 5.5 -45t43.5 -18q47 0 63 65q1 2 1 3q4 15 19 15q9 0 14 -6t3 -14z" />
    <glyph glyph-name="Gdotaccent" unicode="&#x120;" horiz-adv-x="546" 
d="M317 749q0 19 12.5 33t31.5 14q17 0 27.5 -10t10.5 -25q0 -19 -12 -32.5t-32 -13.5q-17 0 -27.5 9t-10.5 25zM432 270h-116q-9 0 -15 6t-6 15q0 24 26 24h138q13 0 19.5 -8.5t4.5 -19.5l-18 -106q-15 -89 -74.5 -140t-154.5 -51q-82 0 -134 44.5t-52 121.5q0 17 4 39
l46 267q17 95 80 150t160 55q52 0 95 -18t69 -58.5t17 -96.5q-3 -24 -25 -24q-12 0 -18.5 8t-5.5 21q6 52 -30 86.5t-110 34.5q-72 0 -119.5 -43t-59.5 -112l-48 -273q-3 -16 -3 -33q0 -55 36.5 -88.5t106.5 -33.5q72 0 116 38.5t55 101.5z" />
    <glyph glyph-name="gdotaccent" unicode="&#x121;" 
d="M448 473l-89 -505q-14 -80 -65 -122.5t-133 -42.5q-63 0 -110.5 31t-42.5 98q2 22 25 22q11 0 17 -7.5t5 -17.5q-3 -42 30 -62.5t84 -20.5q56 0 93 32t47 85l19 108q-59 -64 -141 -64q-67 0 -107 37t-40 101q0 19 3 38l24 139q15 84 65 130t132 46q41 0 78 -18.5
t54 -51.5l18 49q5 16 19 16q8 0 12.5 -6t2.5 -14zM198 52q58 0 99 38.5t52 98.5l22 127q3 15 3 29q0 48 -30.5 78t-84.5 30q-57 0 -94 -35.5t-47 -91.5l-27 -147q-3 -15 -3 -28q0 -45 28 -72t82 -27zM253 599q0 19 12.5 33t31.5 14q17 0 27.5 -9.5t10.5 -25.5
q0 -19 -12 -32.5t-32 -13.5q-17 0 -27.5 9t-10.5 25z" />
    <glyph glyph-name="uni0122" unicode="&#x122;" horiz-adv-x="546" 
d="M247 -80l-72 -114q-7 -11 -18 -11q-8 0 -13.5 5.5t-5.5 12.5q0 5 4 14l52 120q8 18 28 18q12 0 21 -8.5t9 -20.5q0 -8 -5 -16zM432 270h-116q-9 0 -15 6t-6 15q0 24 26 24h138q13 0 19.5 -8.5t4.5 -19.5l-18 -106q-15 -89 -74.5 -140t-154.5 -51q-82 0 -134 44.5
t-52 121.5q0 17 4 39l46 267q17 95 80 150t160 55q52 0 95 -18t69 -58.5t17 -96.5q-3 -24 -25 -24q-12 0 -18.5 8t-5.5 21q6 52 -30 86.5t-110 34.5q-72 0 -119.5 -43t-59.5 -112l-48 -273q-3 -16 -3 -33q0 -55 36.5 -88.5t106.5 -33.5q72 0 116 38.5t55 101.5z" />
    <glyph glyph-name="uni0123" unicode="&#x123;" 
d="M264 590l72 114q7 11 18 11q8 0 13.5 -5.5t5.5 -12.5q0 -5 -4 -14l-52 -120q-8 -18 -28 -18q-12 0 -21 8.5t-9 20.5q0 8 5 16zM448 473l-89 -505q-14 -80 -65 -122.5t-133 -42.5q-63 0 -110.5 31t-42.5 98q2 22 25 22q11 0 17 -7.5t5 -17.5q-3 -42 30 -62.5t84 -20.5
q56 0 93 32t47 85l19 108q-59 -64 -141 -64q-67 0 -107 37t-40 101q0 19 3 38l24 139q15 84 65 130t132 46q41 0 78 -18.5t54 -51.5l18 49q5 16 19 16q8 0 12.5 -6t2.5 -14zM198 52q58 0 99 38.5t52 98.5l22 127q3 15 3 29q0 48 -30.5 78t-84.5 30q-57 0 -94 -35.5
t-47 -91.5l-27 -147q-3 -15 -3 -28q0 -45 28 -72t82 -27z" />
    <glyph glyph-name="Hcircumflex" unicode="&#x124;" horiz-adv-x="579" 
d="M554 634l-108 -612q-5 -27 -27 -27q-13 0 -19.5 8.5t-4.5 19.5l50 290h-302l-52 -296q-4 -22 -27 -22q-13 0 -19.5 8t-4.5 19l109 618q4 22 27 22q13 0 19.5 -8.5t4.5 -19.5l-49 -274h303l50 280q4 22 26 22q13 0 19.5 -8.5t4.5 -19.5zM377 784l-105 -83q-5 -3 -8 -3
q-11 0 -13.5 9t4.5 15l104 102q13 13 27 13t24 -15l68 -102q5 -7 0 -14.5t-14 -7.5q-7 0 -11 4z" />
    <glyph glyph-name="hcircumflex" unicode="&#x125;" horiz-adv-x="500" 
d="M183 785l-105 -83q-4 -3 -8 -3q-11 0 -13.5 9t4.5 15l104 102q13 13 27 13t24 -15l68 -102q5 -7 0 -14.5t-14 -7.5q-7 0 -11 4zM190 656l-39 -222q59 64 146 64q63 0 103 -37.5t40 -101.5q0 -17 -3 -37l-54 -306q-4 -21 -26 -21q-12 0 -18.5 7.5t-4.5 18.5l54 305
q3 19 3 28q0 44 -27 71.5t-78 27.5q-60 0 -102 -39t-53 -98l-53 -300q-4 -21 -26 -21q-12 0 -18.5 7.5t-4.5 18.5l112 640q4 21 26 21q12 0 18.5 -7.5t4.5 -18.5z" />
    <glyph glyph-name="Hbar" unicode="&#x126;" horiz-adv-x="579" 
d="M555 634l-17 -95h40q21 0 21 -19q0 -22 -26 -22h-42l-84 -476q-5 -27 -27 -27q-13 0 -19.5 8.5t-4.5 19.5l50 290h-302l-52 -296q-4 -22 -27 -22q-13 0 -19.5 8t-4.5 19l84 476h-40q-21 0 -21 19q0 22 26 22h42l18 101q4 22 27 22q13 0 19.5 -8.5t4.5 -19.5l-17 -95h303
l18 101q4 22 26 22q13 0 19.5 -8.5t4.5 -19.5zM152 360h303l24 138h-303z" />
    <glyph glyph-name="hbar" unicode="&#x127;" horiz-adv-x="500" 
d="M190 656l-10 -58h112q21 0 21 -20q0 -22 -26 -22h-115l-21 -122q59 64 146 64q63 0 103 -37.5t40 -101.5q0 -17 -3 -37l-54 -306q-4 -21 -26 -21q-12 0 -18.5 7.5t-4.5 18.5l54 305q3 19 3 28q0 44 -27 71.5t-78 27.5q-60 0 -102 -39t-53 -98l-53 -300q-4 -21 -26 -21
q-12 0 -18.5 7.5t-4.5 18.5l93 535h-39q-21 0 -21 19q0 23 26 23h42l11 63q4 21 26 21q12 0 18.5 -7.5t4.5 -18.5z" />
    <glyph glyph-name="Itilde" unicode="&#x128;" horiz-adv-x="225" 
d="M200 634l-109 -617q-4 -22 -27 -22q-13 0 -19.5 8.5t-4.5 19.5l109 616q4 23 27 23q13 0 19.5 -8.5t4.5 -19.5zM72 701q-3 -11 -15 -11q-14 0 -14 14q0 37 25.5 64t66.5 27q27 0 57 -19l37 -24q28 -19 44 -19q31 0 43 55q3 11 14 11q15 0 15 -15q0 -34 -19.5 -61
t-57.5 -27q-27 0 -64 24l-36 22q-25 16 -40 16q-39 0 -56 -57z" />
    <glyph glyph-name="itilde" unicode="&#x129;" horiz-adv-x="200" 
d="M157 467l-79 -451q-4 -21 -26 -21q-12 0 -18.5 7.5t-4.5 18.5l79 451q4 21 26 21q12 0 18.5 -7.5t4.5 -18.5zM36 566q-3 -11 -15 -11q-14 0 -14 14q0 37 25.5 64t66.5 27q27 0 57 -19l37 -24q28 -19 44 -19q31 0 43 55q3 11 14 11q15 0 15 -15q0 -34 -19.5 -61t-57.5 -27
q-27 0 -64 24l-36 22q-25 16 -40 16q-39 0 -56 -57z" />
    <glyph glyph-name="Imacron" unicode="&#x12a;" horiz-adv-x="225" 
d="M200 634l-109 -617q-4 -22 -27 -22q-13 0 -19.5 8.5t-4.5 19.5l109 616q4 23 27 23q13 0 19.5 -8.5t4.5 -19.5zM75 756q0 11 7 16.5t15 5.5h201q7 0 12.5 -5t5.5 -14q0 -10 -7 -15.5t-15 -5.5h-201q-7 0 -12.5 5.5t-5.5 12.5z" />
    <glyph glyph-name="imacron" unicode="&#x12b;" horiz-adv-x="200" 
d="M157 467l-79 -451q-4 -21 -26 -21q-12 0 -18.5 7.5t-4.5 18.5l79 451q4 21 26 21q12 0 18.5 -7.5t4.5 -18.5zM35 595q0 11 7 16.5t15 5.5h201q7 0 12.5 -5t5.5 -14q0 -10 -7 -15.5t-15 -5.5h-201q-7 0 -12.5 5.5t-5.5 12.5z" />
    <glyph glyph-name="Iogonek" unicode="&#x12e;" horiz-adv-x="225" 
d="M37 -185q-24 0 -38.5 1.5t-34.5 6.5t-29.5 17.5t-9.5 33.5q0 38 35 75t83 57q-5 6 -3 17l109 616q4 23 27 23q13 0 19.5 -8.5t4.5 -19.5l-109 -617q-4 -21 -20 -21q-105 -55 -105 -111q0 -12 5.5 -19t18 -10t22.5 -3.5t29 -0.5q17 0 17 -17q0 -20 -21 -20z" />
    <glyph glyph-name="iogonek" unicode="&#x12f;" horiz-adv-x="200" 
d="M124 625q0 18 11.5 30t31.5 12q13 0 22.5 -9t9.5 -22q0 -19 -12 -30.5t-33 -11.5q-13 0 -21.5 9t-8.5 22zM23 -185q-24 0 -38.5 1.5t-34.5 6.5t-29.5 17.5t-9.5 33.5q0 38 36.5 75.5t84.5 56.5q-4 6 -3 15l79 451q4 21 26 21q12 0 18.5 -7.5t4.5 -18.5l-79 -451
q-2 -9 -7.5 -15t-12.5 -5q-106 -56 -106 -111q0 -12 5.5 -19t18 -10t22.5 -3.5t29 -0.5q17 0 17 -17q0 -20 -21 -20z" />
    <glyph glyph-name="Idotaccent" unicode="&#x130;" horiz-adv-x="225" 
d="M200 634l-109 -617q-4 -22 -27 -22q-13 0 -19.5 8.5t-4.5 19.5l109 616q4 23 27 23q13 0 19.5 -8.5t4.5 -19.5zM153 749q0 19 12.5 33t31.5 14q17 0 27.5 -10t10.5 -25q0 -19 -12 -32.5t-32 -13.5q-17 0 -27.5 9t-10.5 25z" />
    <glyph glyph-name="dotlessi" unicode="&#x131;" horiz-adv-x="200" 
d="M157 467l-79 -451q-4 -21 -26 -21q-12 0 -18.5 7.5t-4.5 18.5l79 451q4 21 26 21q12 0 18.5 -7.5t4.5 -18.5z" />
    <glyph glyph-name="IJ" unicode="&#x132;" horiz-adv-x="709" 
d="M200 634l-109 -617q-4 -22 -27 -22q-13 0 -19.5 8.5t-4.5 19.5l109 616q4 23 27 23q13 0 19.5 -8.5t4.5 -19.5zM289 176q-14 -62 18.5 -100.5t99.5 -38.5q59 0 98 37.5t50 97.5l82 467q4 23 27 23q13 0 19.5 -8.5t4.5 -19.5l-81 -459q-15 -87 -68.5 -136t-139.5 -49
q-87 0 -132.5 56.5t-25.5 134.5q6 23 26 23q12 0 18 -9t4 -19z" />
    <glyph glyph-name="ij" unicode="&#x133;" horiz-adv-x="411" 
d="M124 625q0 18 11.5 30t31.5 12q13 0 22.5 -9t9.5 -22q0 -19 -12 -30.5t-33 -11.5q-13 0 -21.5 9t-8.5 22zM157 467l-79 -451q-4 -21 -26 -21q-12 0 -18.5 7.5t-4.5 18.5l79 451q4 21 26 21q12 0 18.5 -7.5t4.5 -18.5zM334 625q0 18 11.5 30t31.5 12q13 0 22.5 -9t9.5 -22
q0 -19 -12 -30.5t-33 -11.5q-13 0 -21.5 9t-8.5 22zM367 467l-86 -488q-31 -176 -206 -176q-6 0 -13 6t-7 15q0 23 25 23h7q62 0 98 34t46 94l87 497q4 21 26 21q12 0 18.5 -7.5t4.5 -18.5z" />
    <glyph glyph-name="Jcircumflex" unicode="&#x134;" horiz-adv-x="480" 
d="M59 176q-14 -62 18.5 -100.5t99.5 -38.5q59 0 98 37.5t50 97.5l82 467q4 23 27 23q13 0 19.5 -8.5t4.5 -19.5l-81 -459q-15 -87 -68.5 -136t-139.5 -49q-87 0 -132.5 56.5t-25.5 134.5q6 23 26 23q12 0 18 -9t4 -19zM454 784l-105 -83q-5 -3 -8 -3q-11 0 -13.5 9t4.5 15
l104 102q13 13 27 13t24 -15l68 -102q5 -7 0 -14.5t-14 -7.5q-7 0 -11 4z" />
    <glyph glyph-name="jcircumflex" unicode="&#x135;" horiz-adv-x="200" 
d="M161 640l-105 -83q-4 -3 -8 -3q-11 0 -13.5 9t4.5 15l104 102q13 13 27 13t24 -15l68 -102q5 -7 0 -14.5t-14 -7.5q-7 0 -11 4zM157 467l-86 -488q-31 -176 -206 -176q-6 0 -13 6t-7 15q0 23 25 23h7q62 0 98 34t46 94l87 497q4 21 26 21q12 0 18.5 -7.5t4.5 -18.5z" />
    <glyph glyph-name="uni0136" unicode="&#x136;" horiz-adv-x="530" 
d="M237 -80l-72 -114q-7 -11 -18 -11q-8 0 -13.5 5.5t-5.5 12.5q0 5 4 14l52 120q8 18 28 18q12 0 21 -8.5t9 -20.5q0 -8 -5 -16zM536 623l-218 -230l131 -367q4 -11 -3.5 -21t-19.5 -10q-20 0 -26 17l-121 342l-158 -168l-30 -169q-4 -22 -27 -22q-13 0 -19.5 8t-4.5 19
l109 618q4 22 27 22q13 0 19.5 -8t4.5 -19l-65 -372l368 390q9 9 18 9q15 0 20.5 -13.5t-5.5 -25.5z" />
    <glyph glyph-name="uni0137" unicode="&#x137;" horiz-adv-x="462" 
d="M202 -80l-72 -114q-7 -11 -18 -11q-8 0 -13.5 5.5t-5.5 12.5q0 5 4 14l52 120q8 18 28 18q12 0 21 -8.5t9 -20.5q0 -8 -5 -16zM363 -5q-17 0 -23 14l-118 256l-119 -102l-25 -147q-4 -21 -26 -21q-12 0 -18.5 7.5t-4.5 18.5l112 640q4 21 26 21q12 0 18.5 -7.5t4.5 -18.5
l-75 -429l302 260q8 6 15 6q13 0 18.5 -13.5t-5.5 -23.5l-183 -158l123 -266q6 -13 -1 -25t-21 -12z" />
    <glyph glyph-name="kgreenlandic" unicode="&#x138;" horiz-adv-x="462" 
d="M363 -5q-17 0 -23 14l-118 256l-119 -102l-25 -147q-4 -21 -26 -21q-12 0 -18.5 7.5t-4.5 18.5l79 451q4 21 26 21q12 0 18.5 -7.5t4.5 -18.5l-42 -240l302 260q8 6 15 6q13 0 18.5 -13.5t-5.5 -23.5l-183 -158l123 -266q6 -13 -1 -25t-21 -12z" />
    <glyph glyph-name="Lacute" unicode="&#x139;" horiz-adv-x="453" 
d="M298 769l-103 -68q-5 -3 -10 -3q-14 0 -17 13t7 21l89 78q8 7 18 7q19 1 26 -17t-10 -31zM372 0h-308q-13 0 -19 8t-4 19l108 612q4 23 27 23q13 0 19.5 -8.5t4.5 -19.5l-104 -587h281q22 0 22 -22q0 -25 -27 -25z" />
    <glyph glyph-name="lacute" unicode="&#x13a;" horiz-adv-x="212" 
d="M291 779l-103 -68q-4 -3 -10 -3q-14 0 -17 13t7 21l89 78q8 7 18 7q19 1 26 -17t-10 -31zM196 656l-112 -640q-4 -21 -26 -21q-12 0 -18.5 7.5t-4.5 18.5l112 640q4 21 26 21q12 0 18.5 -7.5t4.5 -18.5z" />
    <glyph glyph-name="uni013B" unicode="&#x13b;" horiz-adv-x="453" 
d="M222 -80l-72 -114q-7 -11 -18 -11q-8 0 -13.5 5.5t-5.5 12.5q0 5 4 14l52 120q8 18 28 18q12 0 21 -8.5t9 -20.5q0 -8 -5 -16zM372 0h-308q-13 0 -19 8t-4 19l108 612q4 23 27 23q13 0 19.5 -8.5t4.5 -19.5l-104 -587h281q22 0 22 -22q0 -25 -27 -25z" />
    <glyph glyph-name="uni013C" unicode="&#x13c;" horiz-adv-x="212" 
d="M66 -80l-72 -114q-7 -11 -18 -11q-8 0 -13.5 5.5t-5.5 12.5q0 5 4 14l52 120q8 18 28 18q12 0 21 -8.5t9 -20.5q0 -8 -5 -16zM196 656l-112 -640q-4 -21 -26 -21q-12 0 -18.5 7.5t-4.5 18.5l112 640q4 21 26 21q12 0 18.5 -7.5t4.5 -18.5z" />
    <glyph glyph-name="Lcaron" unicode="&#x13d;" horiz-adv-x="453" 
d="M289 536q-5 -10 -18 -10q-19 0 -19 19q0 3 1 6l34 94q7 17 24 17q13 0 21.5 -7.5t8.5 -18.5q0 -6 -4 -14zM372 0h-308q-13 0 -19 8t-4 19l108 612q4 23 27 23q13 0 19.5 -8.5t4.5 -19.5l-104 -587h281q22 0 22 -22q0 -25 -27 -25z" />
    <glyph glyph-name="lcaron" unicode="&#x13e;" horiz-adv-x="212" 
d="M259 556q-5 -10 -18 -10q-19 0 -19 19q0 3 1 6l34 94q7 17 24 17q13 0 21.5 -7.5t8.5 -18.5q0 -6 -4 -14zM196 656l-112 -640q-4 -21 -26 -21q-12 0 -18.5 7.5t-4.5 18.5l112 640q4 21 26 21q12 0 18.5 -7.5t4.5 -18.5z" />
    <glyph glyph-name="Ldot" unicode="&#x13f;" horiz-adv-x="453" 
d="M372 0h-308q-13 0 -19 8t-4 19l108 612q4 23 27 23q13 0 19.5 -8.5t4.5 -19.5l-104 -587h281q22 0 22 -22q0 -25 -27 -25zM303 347q0 19 12.5 33t32.5 14q17 0 27.5 -9.5t10.5 -25.5q0 -19 -12.5 -32.5t-32.5 -13.5q-16 0 -27 9t-11 25z" />
    <glyph glyph-name="ldot" unicode="&#x140;" horiz-adv-x="235" 
d="M196 656l-112 -640q-4 -21 -26 -21q-12 0 -18.5 7.5t-4.5 18.5l112 640q4 21 26 21q12 0 18.5 -7.5t4.5 -18.5zM195 353q0 19 12.5 33t32.5 14q17 0 27.5 -9.5t10.5 -25.5q0 -19 -12.5 -32.5t-32.5 -13.5q-16 0 -27 9t-11 25z" />
    <glyph glyph-name="Lslash" unicode="&#x141;" horiz-adv-x="456" 
d="M44 293q-10 -5 -19 0.5t-9 16.5q0 13 10 18l77 34l49 277q4 23 27 23q13 0 19.5 -8.5t4.5 -19.5l-44 -247l146 66q10 4 19 -1.5t9 -16.5t-11 -17l-171 -77l-52 -294h281q22 0 22 -22q0 -25 -27 -25h-308q-13 0 -19 8t-4 19l51 289z" />
    <glyph glyph-name="lslash" unicode="&#x142;" horiz-adv-x="225" 
d="M203 656l-39 -221l45 20q10 5 18.5 -1t8.5 -17q0 -13 -11 -18l-69 -31l-65 -372q-4 -21 -26 -21q-12 0 -18.5 7.5t-4.5 18.5l60 344l-45 -20q-9 -5 -18.5 0.5t-9.5 16.5q0 13 11 18l70 31l44 250q4 21 26 21q12 0 18.5 -7.5t4.5 -18.5z" />
    <glyph glyph-name="Nacute" unicode="&#x143;" horiz-adv-x="577" 
d="M471 769l-103 -68q-4 -3 -10 -3q-14 0 -17 13t7 21l89 78q8 7 18 7q19 1 26 -17t-10 -31zM552 635l-108 -613q-3 -22 -26 -22q-22 0 -30 21l-205 535l-95 -539q-4 -22 -25 -22q-12 0 -18.5 8t-4.5 19l108 613q1 10 9 16t18 6q22 0 30 -21l205 -534l94 538q4 22 25 22
q12 0 18.5 -8t4.5 -19z" />
    <glyph glyph-name="nacute" unicode="&#x144;" horiz-adv-x="500" 
d="M412 625l-103 -68q-5 -3 -10 -3q-14 0 -17 13t7 21l89 78q8 7 18 7q19 1 26 -17t-10 -31zM437 322l-54 -305q-4 -22 -26 -22q-12 0 -18.5 8.5t-4.5 19.5l54 303q2 12 2 27q0 45 -26.5 72.5t-77.5 27.5q-60 0 -102 -39t-53 -98l-53 -299q-4 -22 -26 -22q-12 0 -18.5 8.5
t-4.5 19.5l80 453q3 17 19 17q18 0 18 -21l-1 -46q59 72 152 72q63 0 103 -37.5t40 -101.5q0 -17 -3 -37z" />
    <glyph glyph-name="uni0145" unicode="&#x145;" horiz-adv-x="577" 
d="M253 -80l-72 -114q-7 -11 -18 -11q-8 0 -13.5 5.5t-5.5 12.5q0 5 4 14l52 120q8 18 28 18q12 0 21 -8.5t9 -20.5q0 -8 -5 -16zM552 635l-108 -613q-3 -22 -26 -22q-22 0 -30 21l-205 535l-95 -539q-4 -22 -25 -22q-12 0 -18.5 8t-4.5 19l108 613q1 10 9 16t18 6
q22 0 30 -21l205 -534l94 538q4 22 25 22q12 0 18.5 -8t4.5 -19z" />
    <glyph glyph-name="uni0146" unicode="&#x146;" horiz-adv-x="500" 
d="M219 -80l-72 -114q-7 -11 -18 -11q-8 0 -13.5 5.5t-5.5 12.5q0 5 4 14l52 120q8 18 28 18q12 0 21 -8.5t9 -20.5q0 -8 -5 -16zM437 322l-54 -305q-4 -22 -26 -22q-12 0 -18.5 8.5t-4.5 19.5l54 303q2 12 2 27q0 45 -26.5 72.5t-77.5 27.5q-60 0 -102 -39t-53 -98
l-53 -299q-4 -22 -26 -22q-12 0 -18.5 8.5t-4.5 19.5l80 453q3 17 19 17q18 0 18 -21l-1 -46q59 72 152 72q63 0 103 -37.5t40 -101.5q0 -17 -3 -37z" />
    <glyph glyph-name="Ncaron" unicode="&#x147;" horiz-adv-x="577" 
d="M552 635l-108 -613q-3 -22 -26 -22q-22 0 -30 21l-205 535l-95 -539q-4 -22 -25 -22q-12 0 -18.5 8t-4.5 19l108 613q1 10 9 16t18 6q22 0 30 -21l205 -534l94 538q4 22 25 22q12 0 18.5 -8t4.5 -19zM368 738l104 81q4 3 10 3q10 0 12.5 -8.5t-4.5 -13.5l-104 -103
q-13 -13 -27 -13q-13 0 -23 15l-69 103q-5 8 -1 15.5t13 7.5q6 0 11 -5z" />
    <glyph glyph-name="ncaron" unicode="&#x148;" horiz-adv-x="500" 
d="M306 598l103 82q4 3 10 3q10 0 12.5 -9t-3.5 -14l-104 -102q-13 -13 -27 -13q-13 0 -23 15l-68 103q-4 7 0.5 15t13.5 8q6 0 11 -5zM437 322l-54 -305q-4 -22 -26 -22q-12 0 -18.5 8.5t-4.5 19.5l54 303q2 12 2 27q0 45 -26.5 72.5t-77.5 27.5q-60 0 -102 -39t-53 -98
l-53 -299q-4 -22 -26 -22q-12 0 -18.5 8.5t-4.5 19.5l80 453q3 17 19 17q18 0 18 -21l-1 -46q59 72 152 72q63 0 103 -37.5t40 -101.5q0 -17 -3 -37z" />
    <glyph glyph-name="napostrophe" unicode="&#x149;" horiz-adv-x="502" 
d="M150 638l-72 -114q-7 -11 -18 -11q-8 0 -13.5 5.5t-5.5 12.5q0 5 4 14l52 120q8 18 28 18q12 0 21 -8.5t9 -20.5q0 -8 -5 -16zM438 322l-54 -305q-4 -22 -26 -22q-12 0 -18.5 8.5t-4.5 19.5l54 303q2 12 2 27q0 45 -26.5 72.5t-77.5 27.5q-60 0 -102 -39t-53 -98
l-53 -299q-4 -22 -26 -22q-12 0 -18.5 8.5t-4.5 19.5l80 453q3 17 19 17q18 0 18 -21l-1 -46q59 72 152 72q63 0 103 -37.5t40 -101.5q0 -17 -3 -37z" />
    <glyph glyph-name="Omacron" unicode="&#x14c;" horiz-adv-x="554" 
d="M153 465l-48 -273q-3 -18 -3 -33q0 -55 36 -88.5t103 -33.5q70 0 117.5 43t59.5 112l47 273q3 17 3 33q0 55 -36 88.5t-102 33.5q-71 0 -118 -43t-59 -112zM516 462l-47 -267q-17 -95 -79 -150t-157 -55q-81 0 -132 44.5t-51 121.5q0 20 4 39l46 267q17 95 79.5 150
t158.5 55q80 0 130.5 -45t50.5 -121q0 -19 -3 -39zM240 756q0 11 7 16.5t15 5.5h201q7 0 12.5 -5t5.5 -14q0 -10 -7 -15.5t-15 -5.5h-201q-7 0 -12.5 5.5t-5.5 12.5z" />
    <glyph glyph-name="omacron" unicode="&#x14d;" horiz-adv-x="476" 
d="M173 595q0 11 7 16.5t15 5.5h201q7 0 12.5 -5t5.5 -14q0 -10 -7 -15.5t-15 -5.5h-201q-7 0 -12.5 5.5t-5.5 12.5zM114 316l-26 -144q-3 -16 -3 -31q0 -49 29.5 -78t85.5 -29q58 0 97.5 39t50.5 99l26 144q3 16 3 30q0 49 -29.5 78.5t-84.5 29.5q-58 0 -98 -38.5
t-51 -99.5zM423 312l-24 -136q-15 -87 -69 -136.5t-139 -49.5q-68 0 -111.5 39.5t-43.5 107.5q0 11 4 39l23 136q14 87 68.5 136.5t139.5 49.5q67 0 111 -40t44 -108q0 -18 -3 -38z" />
    <glyph glyph-name="Obreve" unicode="&#x14e;" horiz-adv-x="554" 
d="M153 465l-48 -273q-3 -18 -3 -33q0 -55 36 -88.5t103 -33.5q70 0 117.5 43t59.5 112l47 273q3 17 3 33q0 55 -36 88.5t-102 33.5q-71 0 -118 -43t-59 -112zM516 462l-47 -267q-17 -95 -79 -150t-157 -55q-81 0 -132 44.5t-51 121.5q0 20 4 39l46 267q17 95 79.5 150
t158.5 55q80 0 130.5 -45t50.5 -121q0 -19 -3 -39zM459 790q-8 -43 -34.5 -69.5t-71.5 -26.5q-44 0 -67 28t-13 72q4 16 20 16q9 0 14 -6t3 -14q-8 -27 5.5 -45t43.5 -18q47 0 63 65q1 2 1 3q4 15 19 15q9 0 14 -6t3 -14z" />
    <glyph glyph-name="obreve" unicode="&#x14f;" horiz-adv-x="476" 
d="M114 316l-26 -144q-3 -16 -3 -31q0 -49 29.5 -78t85.5 -29q58 0 97.5 39t50.5 99l26 144q3 16 3 30q0 49 -29.5 78.5t-84.5 29.5q-58 0 -98 -38.5t-51 -99.5zM423 312l-24 -136q-15 -87 -69 -136.5t-139 -49.5q-68 0 -111.5 39.5t-43.5 107.5q0 11 4 39l23 136
q14 87 68.5 136.5t139.5 49.5q67 0 111 -40t44 -108q0 -18 -3 -38zM395 647q-8 -43 -34.5 -69.5t-71.5 -26.5q-44 0 -67 28t-13 72q4 16 20 16q9 0 14 -6t3 -14q-8 -27 5.5 -45t43.5 -18q47 0 63 65q1 2 1 3q4 15 19 15q9 0 14 -6t3 -14z" />
    <glyph glyph-name="Ohungarumlaut" unicode="&#x150;" horiz-adv-x="554" 
d="M287 699q-6 -4 -13 -0.5t-7 11.5q0 7 5 10l114 95q10 8 22.5 3t12.5 -19q0 -11 -8 -17zM517 787l-117 -95q-5 -5 -13 -1.5t-8 11.5q0 5 4 9l104 105q10 10 24 6.5t14 -19.5q0 -10 -8 -16zM153 465l-48 -273q-3 -18 -3 -33q0 -55 36 -88.5t103 -33.5q70 0 117.5 43
t59.5 112l47 273q3 17 3 33q0 55 -36 88.5t-102 33.5q-71 0 -118 -43t-59 -112zM516 462l-47 -267q-17 -95 -79 -150t-157 -55q-81 0 -132 44.5t-51 121.5q0 20 4 39l46 267q17 95 79.5 150t158.5 55q80 0 130.5 -45t50.5 -121q0 -19 -3 -39z" />
    <glyph glyph-name="ohungarumlaut" unicode="&#x151;" horiz-adv-x="476" 
d="M224 560q-6 -4 -13 -0.5t-7 11.5q0 7 5 10l114 95q10 8 22.5 3t12.5 -19q0 -11 -8 -17zM454 648l-117 -95q-5 -5 -13 -1.5t-8 11.5q0 5 4 9l104 105q10 10 24 6.5t14 -19.5q0 -10 -8 -16zM114 316l-26 -144q-3 -16 -3 -31q0 -49 29.5 -78t85.5 -29q58 0 97.5 39t50.5 99
l26 144q3 16 3 30q0 49 -29.5 78.5t-84.5 29.5q-58 0 -98 -38.5t-51 -99.5zM423 312l-24 -136q-15 -87 -69 -136.5t-139 -49.5q-68 0 -111.5 39.5t-43.5 107.5q0 11 4 39l23 136q14 87 68.5 136.5t139.5 49.5q67 0 111 -40t44 -108q0 -18 -3 -38z" />
    <glyph glyph-name="OE" unicode="&#x152;" horiz-adv-x="853" 
d="M153 465l-48 -273q-3 -18 -3 -33q0 -55 36 -88.5t103 -33.5q68 0 116 41.5t59 106.5l49 280q3 17 3 33q0 55 -35 88.5t-101 33.5q-72 0 -119.5 -43t-59.5 -112zM736 0h-328q-11 0 -17 7t-4 18l6 30q-65 -65 -161 -65q-80 0 -131 44.5t-51 119.5q0 22 4 41l46 267
q17 95 80.5 150t158.5 55q45 0 86.5 -17.5t63.5 -48.5l6 31q5 25 29 25h316q22 0 22 -22q0 -25 -27 -25h-292l-45 -250h267q22 0 22 -22q0 -25 -27 -25h-270l-46 -266h297q22 0 22 -22q0 -25 -27 -25z" />
    <glyph glyph-name="oe" unicode="&#x153;" horiz-adv-x="780" 
d="M114 316l-26 -144q-3 -16 -3 -31q0 -49 30 -78t86 -29q58 0 97 38.5t50 99.5l26 144q3 16 3 30q0 49 -29.5 78.5t-83.5 29.5q-59 0 -99 -38.5t-51 -99.5zM424 316l-6 -31h260l6 31q3 17 3 32q0 49 -29 78.5t-83 29.5q-59 0 -99 -39t-52 -101zM699 135q-15 -67 -65.5 -106
t-128.5 -39q-54 0 -94 26t-52 72q-55 -98 -167 -98q-70 0 -113 39t-43 107q0 21 4 40l23 136q15 87 70.5 136.5t138.5 49.5q52 0 89.5 -27t48.5 -75q55 102 172 102q68 0 110 -39t42 -106q0 -13 -4 -41l-8 -46q-1 -11 -9.5 -18t-19.5 -7h-282l-14 -79q-3 -15 -3 -27
q0 -47 30 -75t86 -28q58 0 96.5 31.5t46.5 78.5q4 23 24 23q12 0 18.5 -9t3.5 -21z" />
    <glyph glyph-name="Racute" unicode="&#x154;" horiz-adv-x="546" 
d="M323 611h-127l-53 -298h133q88 0 143 46.5t55 120.5q0 61 -37.5 96t-113.5 35zM431 29q3 -12 -4.5 -23t-21.5 -11q-21 0 -26 19l-71 256q-24 -2 -38 -2h-135l-44 -251q-4 -22 -27 -22q-13 0 -19.5 8t-4.5 19l108 610q5 25 29 25h157q88 0 141 -47t53 -124q0 -78 -45 -130
t-122 -74zM411 769l-103 -68q-4 -3 -10 -3q-14 0 -17 13t7 21l89 78q8 7 18 7q19 1 26 -17t-10 -31z" />
    <glyph glyph-name="racute" unicode="&#x155;" horiz-adv-x="301" 
d="M320 625l-103 -68q-5 -3 -10 -3q-14 0 -17 13t7 21l89 78q8 7 18 7q19 1 26 -17t-10 -31zM29 21l80 455q3 17 19 17q18 0 18 -21l-1 -49q59 75 152 75q23 0 23 -23q0 -24 -25 -24q-67 2 -110.5 -38t-54.5 -101l-52 -296q-4 -21 -26 -21q-12 0 -18.5 7.5t-4.5 18.5z" />
    <glyph glyph-name="uni0156" unicode="&#x156;" horiz-adv-x="546" 
d="M241 -80l-72 -114q-7 -11 -18 -11q-8 0 -13.5 5.5t-5.5 12.5q0 5 4 14l52 120q8 18 28 18q12 0 21 -8.5t9 -20.5q0 -8 -5 -16zM323 611h-127l-53 -298h133q88 0 143 46.5t55 120.5q0 61 -37.5 96t-113.5 35zM431 29q3 -12 -4.5 -23t-21.5 -11q-21 0 -26 19l-71 256
q-24 -2 -38 -2h-135l-44 -251q-4 -22 -27 -22q-13 0 -19.5 8t-4.5 19l108 610q5 25 29 25h157q88 0 141 -47t53 -124q0 -78 -45 -130t-122 -74z" />
    <glyph glyph-name="uni0157" unicode="&#x157;" horiz-adv-x="301" 
d="M63 -80l-72 -114q-7 -11 -18 -11q-8 0 -13.5 5.5t-5.5 12.5q0 5 4 14l52 120q8 18 28 18q12 0 21 -8.5t9 -20.5q0 -8 -5 -16zM29 21l80 455q3 17 19 17q18 0 18 -21l-1 -49q59 75 152 75q23 0 23 -23q0 -24 -25 -24q-67 2 -110.5 -38t-54.5 -101l-52 -296q-4 -21 -26 -21
q-12 0 -18.5 7.5t-4.5 18.5z" />
    <glyph glyph-name="Rcaron" unicode="&#x158;" horiz-adv-x="546" 
d="M323 611h-127l-53 -298h133q88 0 143 46.5t55 120.5q0 61 -37.5 96t-113.5 35zM431 29q3 -12 -4.5 -23t-21.5 -11q-21 0 -26 19l-71 256q-24 -2 -38 -2h-135l-44 -251q-4 -22 -27 -22q-13 0 -19.5 8t-4.5 19l108 610q5 25 29 25h157q88 0 141 -47t53 -124q0 -78 -45 -130
t-122 -74zM327 738l104 81q4 3 10 3q10 0 12.5 -8.5t-4.5 -13.5l-104 -103q-13 -13 -27 -13q-13 0 -23 15l-69 103q-5 8 -1 15.5t13 7.5q6 0 11 -5z" />
    <glyph glyph-name="rcaron" unicode="&#x159;" horiz-adv-x="301" 
d="M211 598l103 82q4 3 10 3q10 0 12.5 -9t-3.5 -14l-104 -102q-13 -13 -27 -13q-13 0 -23 15l-68 103q-4 7 0.5 15t13.5 8q6 0 11 -5zM29 21l80 455q3 17 19 17q18 0 18 -21l-1 -49q59 75 152 75q23 0 23 -23q0 -24 -25 -24q-67 2 -110.5 -38t-54.5 -101l-52 -296
q-4 -21 -26 -21q-12 0 -18.5 7.5t-4.5 18.5z" />
    <glyph glyph-name="Sacute" unicode="&#x15a;" horiz-adv-x="520" 
d="M230 35q75 0 120.5 43.5t45.5 109.5q0 25 -8.5 44.5t-27 34.5t-33 23t-41.5 21l-82 38q-104 49 -104 138q0 82 58 131t157 49q80 0 133 -44.5t43 -128.5q-3 -24 -25 -24q-12 0 -18.5 8t-5.5 21q6 58 -29.5 90.5t-104.5 32.5q-72 0 -115 -34.5t-43 -89.5q0 -65 66 -95
l106 -48q57 -26 92 -61.5t35 -93.5q0 -96 -61 -153t-165 -57q-88 0 -147 45.5t-46 129.5q3 24 25 24q26 0 23 -27q-7 -65 38 -96t114 -31zM441 769l-103 -68q-4 -3 -10 -3q-14 0 -17 13t7 21l89 78q8 7 18 7q19 1 26 -17t-10 -31z" />
    <glyph glyph-name="sacute" unicode="&#x15b;" horiz-adv-x="444" 
d="M375 625l-103 -68q-4 -3 -10 -3q-14 0 -17 13t7 21l89 78q8 7 18 7q19 1 26 -17t-10 -31zM182 294l78 -26q107 -35 107 -119q0 -69 -50.5 -114t-134.5 -45q-66 0 -116 30.5t-50 92.5q0 12 1 18q4 23 24 23q12 0 17.5 -7.5t4.5 -16.5q-5 -51 29.5 -73.5t96.5 -22.5
q59 0 93 30t34 78q0 29 -14 47t-45 28l-84 28q-100 33 -100 111q0 60 48.5 101t125.5 41q62 0 108.5 -28.5t46.5 -87.5q0 -35 -24 -35q-23 0 -23 30q0 40 -33 59.5t-82 19.5q-44 0 -81.5 -24t-37.5 -69q0 -48 61 -69z" />
    <glyph glyph-name="Scircumflex" unicode="&#x15c;" horiz-adv-x="520" 
d="M230 35q75 0 120.5 43.5t45.5 109.5q0 25 -8.5 44.5t-27 34.5t-33 23t-41.5 21l-82 38q-104 49 -104 138q0 82 58 131t157 49q80 0 133 -44.5t43 -128.5q-3 -24 -25 -24q-12 0 -18.5 8t-5.5 21q6 58 -29.5 90.5t-104.5 32.5q-72 0 -115 -34.5t-43 -89.5q0 -65 66 -95
l106 -48q57 -26 92 -61.5t35 -93.5q0 -96 -61 -153t-165 -57q-88 0 -147 45.5t-46 129.5q3 24 25 24q26 0 23 -27q-7 -65 38 -96t114 -31zM346 784l-105 -83q-5 -3 -8 -3q-11 0 -13.5 9t4.5 15l104 102q13 13 27 13t24 -15l68 -102q5 -7 0 -14.5t-14 -7.5q-7 0 -11 4z" />
    <glyph glyph-name="scircumflex" unicode="&#x15d;" horiz-adv-x="444" 
d="M282 640l-105 -83q-5 -3 -8 -3q-11 0 -13.5 9t4.5 15l104 102q13 13 27 13t24 -15l68 -102q5 -7 0 -14.5t-14 -7.5q-7 0 -11 4zM182 294l78 -26q107 -35 107 -119q0 -69 -50.5 -114t-134.5 -45q-66 0 -116 30.5t-50 92.5q0 12 1 18q4 23 24 23q12 0 17.5 -7.5t4.5 -16.5
q-5 -51 29.5 -73.5t96.5 -22.5q59 0 93 30t34 78q0 29 -14 47t-45 28l-84 28q-100 33 -100 111q0 60 48.5 101t125.5 41q62 0 108.5 -28.5t46.5 -87.5q0 -35 -24 -35q-23 0 -23 30q0 40 -33 59.5t-82 19.5q-44 0 -81.5 -24t-37.5 -69q0 -48 61 -69z" />
    <glyph glyph-name="Scedilla" unicode="&#x15e;" horiz-adv-x="520" 
d="M151 -63l26 57q-72 11 -115 54.5t-32 116.5q3 24 25 24q26 0 23 -27q-7 -65 38 -96t114 -31q75 0 120.5 43.5t45.5 109.5q0 25 -8.5 44.5t-27 34.5t-33 23t-41.5 21l-82 38q-104 49 -104 138q0 82 58 131t157 49q80 0 133 -44.5t43 -128.5q-3 -24 -25 -24q-12 0 -18.5 8
t-5.5 21q6 58 -29.5 90.5t-104.5 32.5q-72 0 -115 -34.5t-43 -89.5q0 -65 66 -95l106 -48q57 -26 92 -61.5t35 -93.5q0 -96 -61 -153t-165 -57h-6l-18 -38h12q33 0 51.5 -15.5t18.5 -41.5q0 -82 -95 -82h-72q-18 0 -18 18q0 20 22 20h80q40 0 40 37q0 27 -30 27h-42
q-10 0 -14.5 7t-0.5 15z" />
    <glyph glyph-name="scedilla" unicode="&#x15f;" horiz-adv-x="445" 
d="M118 -63l26 56q-54 8 -90.5 38t-36.5 82q0 12 1 18q4 23 24 23q12 0 17.5 -7.5t4.5 -16.5q-5 -51 29.5 -73.5t96.5 -22.5q59 0 93 30t34 78q0 29 -14 47t-45 28l-84 28q-100 33 -100 111q0 60 48.5 101t125.5 41q62 0 108.5 -28.5t46.5 -87.5q0 -35 -24 -35q-23 0 -23 30
q0 40 -33 59.5t-82 19.5q-44 0 -81.5 -24t-37.5 -69q0 -48 61 -69l78 -26q107 -35 107 -119q0 -68 -50 -113t-134 -46l-18 -38h12q33 0 51.5 -15.5t18.5 -41.5q0 -82 -95 -82h-72q-18 0 -18 18q0 20 22 20h80q40 0 40 37q0 27 -30 27h-42q-10 0 -14.5 7t-0.5 15z" />
    <glyph glyph-name="Scaron" unicode="&#x160;" horiz-adv-x="520" 
d="M230 35q75 0 120.5 43.5t45.5 109.5q0 25 -8.5 44.5t-27 34.5t-33 23t-41.5 21l-82 38q-104 49 -104 138q0 82 58 131t157 49q80 0 133 -44.5t43 -128.5q-3 -24 -25 -24q-12 0 -18.5 8t-5.5 21q6 58 -29.5 90.5t-104.5 32.5q-72 0 -115 -34.5t-43 -89.5q0 -65 66 -95
l106 -48q57 -26 92 -61.5t35 -93.5q0 -96 -61 -153t-165 -57q-88 0 -147 45.5t-46 129.5q3 24 25 24q26 0 23 -27q-7 -65 38 -96t114 -31zM333 738l104 81q4 3 10 3q10 0 12.5 -8.5t-4.5 -13.5l-104 -103q-13 -13 -27 -13q-13 0 -23 15l-69 103q-5 8 -1 15.5t13 7.5
q6 0 11 -5z" />
    <glyph glyph-name="scaron" unicode="&#x161;" horiz-adv-x="444" 
d="M272 598l103 82q5 3 10 3q10 0 12.5 -9t-3.5 -14l-104 -102q-13 -13 -27 -13q-13 0 -23 15l-68 103q-4 7 0.5 15t13.5 8q6 0 11 -5zM182 294l78 -26q107 -35 107 -119q0 -69 -50.5 -114t-134.5 -45q-66 0 -116 30.5t-50 92.5q0 12 1 18q4 23 24 23q12 0 17.5 -7.5
t4.5 -16.5q-5 -51 29.5 -73.5t96.5 -22.5q59 0 93 30t34 78q0 29 -14 47t-45 28l-84 28q-100 33 -100 111q0 60 48.5 101t125.5 41q62 0 108.5 -28.5t46.5 -87.5q0 -35 -24 -35q-23 0 -23 30q0 40 -33 59.5t-82 19.5q-44 0 -81.5 -24t-37.5 -69q0 -48 61 -69z" />
    <glyph glyph-name="uni0162" unicode="&#x162;" horiz-adv-x="453" 
d="M124 -63l32 69q-4 7 -2 16l104 588h-159q-22 0 -22 22q0 25 27 25h373q22 0 22 -22q0 -25 -27 -25h-163l-104 -593q-2 -12 -11 -17l-22 -48h12q33 0 51.5 -15.5t18.5 -41.5q0 -82 -95 -82h-72q-18 0 -18 18q0 20 22 20h80q40 0 40 37q0 27 -30 27h-42q-10 0 -14.5 7
t-0.5 15z" />
    <glyph glyph-name="uni0163" unicode="&#x163;" horiz-adv-x="300" 
d="M49 -63l32 68q-5 6 -3 16l75 423h-84q-20 0 -20 20q0 22 24 22h87l20 117q4 21 26 21q12 0 18.5 -7.5t4.5 -18.5l-19 -112h84q20 0 20 -20q0 -22 -24 -22h-88l-75 -428q-1 -4 -5 -12l-25 -52h12q33 0 51.5 -15.5t18.5 -41.5q0 -82 -95 -82h-72q-18 0 -18 18q0 20 22 20
h80q40 0 40 37q0 27 -30 27h-42q-10 0 -14.5 7t-0.5 15z" />
    <glyph glyph-name="Tcaron" unicode="&#x164;" horiz-adv-x="453" 
d="M104 657h373q22 0 22 -22q0 -25 -27 -25h-163l-104 -593q-4 -22 -27 -22q-13 0 -19.5 8t-4.5 19l104 588h-159q-22 0 -22 22q0 25 27 25zM303 738l104 81q4 3 10 3q10 0 12.5 -8.5t-4.5 -13.5l-104 -103q-13 -13 -27 -13q-13 0 -23 15l-69 103q-5 8 -1 15.5t13 7.5
q6 0 11 -5z" />
    <glyph glyph-name="tcaron" unicode="&#x165;" horiz-adv-x="300" 
d="M311 556q-5 -10 -18 -10q-19 0 -19 19q0 3 1 6l34 94q7 17 24 17q13 0 21.5 -7.5t8.5 -18.5q0 -6 -4 -14zM290 444h-88l-75 -428q-4 -21 -26 -21q-12 0 -18.5 7.5t-4.5 18.5l75 423h-84q-20 0 -20 20q0 22 24 22h87l20 117q4 21 26 21q12 0 18.5 -7.5t4.5 -18.5l-19 -112
h84q20 0 20 -20q0 -22 -24 -22z" />
    <glyph glyph-name="Tbar" unicode="&#x166;" horiz-adv-x="454" 
d="M104 657h373q22 0 22 -22q0 -25 -27 -25h-163l-33 -185h123q21 0 21 -20q0 -22 -26 -22h-125l-64 -366q-4 -22 -27 -22q-13 0 -19.5 8t-4.5 19l64 361h-122q-21 0 -21 19q0 23 26 23h124l33 185h-159q-22 0 -22 22q0 25 27 25z" />
    <glyph glyph-name="tbar" unicode="&#x167;" horiz-adv-x="303" 
d="M292 444h-88l-20 -115h61q21 0 21 -20q0 -22 -26 -22h-64l-47 -271q-4 -21 -26 -21q-12 0 -18.5 7.5t-4.5 18.5l47 266h-63q-21 0 -21 19q0 23 26 23h65l21 115h-84q-20 0 -20 20q0 22 24 22h87l20 117q4 21 26 21q12 0 18.5 -7.5t4.5 -18.5l-19 -112h84q20 0 20 -20
q0 -22 -24 -22z" />
    <glyph glyph-name="Utilde" unicode="&#x168;" horiz-adv-x="569" 
d="M551 634l-78 -439q-17 -95 -78 -150t-155 -55q-80 0 -130 44.5t-50 120.5q0 12 4 40l78 445q4 22 27 22q13 0 19.5 -8.5t4.5 -19.5l-78 -442q-3 -18 -3 -34q0 -55 35 -88t101 -33q68 0 114.5 43t58.5 112l79 448q4 22 27 22q13 0 19.5 -8.5t4.5 -19.5zM243 701
q-3 -11 -15 -11q-14 0 -14 14q0 37 25.5 64t66.5 27q27 0 57 -19l37 -24q28 -19 44 -19q31 0 43 55q3 11 14 11q15 0 15 -15q0 -34 -19.5 -61t-57.5 -27q-27 0 -64 24l-36 22q-25 16 -40 16q-39 0 -56 -57z" />
    <glyph glyph-name="utilde" unicode="&#x169;" horiz-adv-x="495" 
d="M452 467l-81 -455q-3 -17 -18 -17q-17 0 -17 21v45q-60 -71 -147 -71q-64 0 -103.5 37.5t-39.5 101.5q0 17 3 37l54 306q4 21 26 21q12 0 18.5 -7.5t4.5 -18.5l-53 -305q-3 -15 -3 -29q0 -45 27 -71.5t78 -26.5q57 0 97.5 39t51.5 98l53 300q4 21 26 21q12 0 18.5 -7.5
t4.5 -18.5zM180 566q-3 -11 -15 -11q-14 0 -14 14q0 37 25.5 64t66.5 27q27 0 57 -19l37 -24q28 -19 44 -19q31 0 43 55q3 11 14 11q15 0 15 -15q0 -34 -19.5 -61t-57.5 -27q-27 0 -64 24l-36 22q-25 16 -40 16q-39 0 -56 -57z" />
    <glyph glyph-name="Umacron" unicode="&#x16a;" horiz-adv-x="569" 
d="M551 634l-78 -439q-17 -95 -78 -150t-155 -55q-80 0 -130 44.5t-50 120.5q0 12 4 40l78 445q4 22 27 22q13 0 19.5 -8.5t4.5 -19.5l-78 -442q-3 -18 -3 -34q0 -55 35 -88t101 -33q68 0 114.5 43t58.5 112l79 448q4 22 27 22q13 0 19.5 -8.5t4.5 -19.5zM247 756
q0 11 7 16.5t15 5.5h201q7 0 12.5 -5t5.5 -14q0 -10 -7 -15.5t-15 -5.5h-201q-7 0 -12.5 5.5t-5.5 12.5z" />
    <glyph glyph-name="umacron" unicode="&#x16b;" horiz-adv-x="495" 
d="M452 467l-81 -455q-3 -17 -18 -17q-17 0 -17 21v45q-60 -71 -147 -71q-64 0 -103.5 37.5t-39.5 101.5q0 17 3 37l54 306q4 21 26 21q12 0 18.5 -7.5t4.5 -18.5l-53 -305q-3 -15 -3 -29q0 -45 27 -71.5t78 -26.5q57 0 97.5 39t51.5 98l53 300q4 21 26 21q12 0 18.5 -7.5
t4.5 -18.5zM179 595q0 11 7 16.5t15 5.5h201q7 0 12.5 -5t5.5 -14q0 -10 -7 -15.5t-15 -5.5h-201q-7 0 -12.5 5.5t-5.5 12.5z" />
    <glyph glyph-name="Ubreve" unicode="&#x16c;" horiz-adv-x="569" 
d="M551 634l-78 -439q-17 -95 -78 -150t-155 -55q-80 0 -130 44.5t-50 120.5q0 12 4 40l78 445q4 22 27 22q13 0 19.5 -8.5t4.5 -19.5l-78 -442q-3 -18 -3 -34q0 -55 35 -88t101 -33q68 0 114.5 43t58.5 112l79 448q4 22 27 22q13 0 19.5 -8.5t4.5 -19.5zM466 790
q-8 -43 -34.5 -69.5t-71.5 -26.5q-44 0 -67 28t-13 72q4 16 20 16q9 0 14 -6t3 -14q-8 -27 5.5 -45t43.5 -18q47 0 63 65q1 2 1 3q4 15 19 15q9 0 14 -6t3 -14z" />
    <glyph glyph-name="ubreve" unicode="&#x16d;" horiz-adv-x="495" 
d="M452 467l-81 -455q-3 -17 -18 -17q-17 0 -17 21v45q-60 -71 -147 -71q-64 0 -103.5 37.5t-39.5 101.5q0 17 3 37l54 306q4 21 26 21q12 0 18.5 -7.5t4.5 -18.5l-53 -305q-3 -15 -3 -29q0 -45 27 -71.5t78 -26.5q57 0 97.5 39t51.5 98l53 300q4 21 26 21q12 0 18.5 -7.5
t4.5 -18.5zM401 647q-8 -43 -34.5 -69.5t-71.5 -26.5q-44 0 -67 28t-13 72q4 16 20 16q9 0 14 -6t3 -14q-8 -27 5.5 -45t43.5 -18q47 0 63 65q1 2 1 3q4 15 19 15q9 0 14 -6t3 -14z" />
    <glyph glyph-name="Uring" unicode="&#x16e;" horiz-adv-x="569" 
d="M369 713q25 0 40.5 17t15.5 43t-15 42.5t-40 16.5q-24 0 -40 -17t-16 -42q0 -26 15.5 -43t39.5 -17zM369 680q-40 0 -66.5 27t-26.5 65t27 65.5t67 27.5q39 0 66 -27t27 -65t-27 -65.5t-67 -27.5zM551 634l-78 -439q-17 -95 -78 -150t-155 -55q-80 0 -130 44.5t-50 120.5
q0 12 4 40l78 445q4 22 27 22q13 0 19.5 -8.5t4.5 -19.5l-78 -442q-3 -18 -3 -34q0 -55 35 -88t101 -33q68 0 114.5 43t58.5 112l79 448q4 22 27 22q13 0 19.5 -8.5t4.5 -19.5z" />
    <glyph glyph-name="uring" unicode="&#x16f;" horiz-adv-x="495" 
d="M303 562q25 0 40.5 17t15.5 43q0 25 -15.5 42t-39.5 17q-25 0 -40.5 -17t-15.5 -43t15.5 -42.5t39.5 -16.5zM303 529q-40 0 -66.5 27t-26.5 65t27 65.5t67 27.5q39 0 66 -27t27 -65q0 -39 -27 -66t-67 -27zM452 467l-81 -455q-3 -17 -18 -17q-17 0 -17 21v45
q-60 -71 -147 -71q-64 0 -103.5 37.5t-39.5 101.5q0 17 3 37l54 306q4 21 26 21q12 0 18.5 -7.5t4.5 -18.5l-53 -305q-3 -15 -3 -29q0 -45 27 -71.5t78 -26.5q57 0 97.5 39t51.5 98l53 300q4 21 26 21q12 0 18.5 -7.5t4.5 -18.5z" />
    <glyph glyph-name="Uhungarumlaut" unicode="&#x170;" horiz-adv-x="569" 
d="M303 699q-6 -4 -13 -0.5t-7 11.5q0 7 5 10l114 95q10 8 22.5 3t12.5 -19q0 -11 -8 -17zM533 787l-117 -95q-5 -5 -13 -1.5t-8 11.5q0 5 4 9l104 105q10 10 24 6.5t14 -19.5q0 -10 -8 -16zM551 634l-78 -439q-17 -95 -78 -150t-155 -55q-80 0 -130 44.5t-50 120.5
q0 12 4 40l78 445q4 22 27 22q13 0 19.5 -8.5t4.5 -19.5l-78 -442q-3 -18 -3 -34q0 -55 35 -88t101 -33q68 0 114.5 43t58.5 112l79 448q4 22 27 22q13 0 19.5 -8.5t4.5 -19.5z" />
    <glyph glyph-name="uhungarumlaut" unicode="&#x171;" horiz-adv-x="495" 
d="M452 467l-81 -455q-3 -17 -18 -17q-17 0 -17 21v45q-60 -71 -147 -71q-64 0 -103.5 37.5t-39.5 101.5q0 17 3 37l54 306q4 21 26 21q12 0 18.5 -7.5t4.5 -18.5l-53 -305q-3 -15 -3 -29q0 -45 27 -71.5t78 -26.5q57 0 97.5 39t51.5 98l53 300q4 21 26 21q12 0 18.5 -7.5
t4.5 -18.5zM233 560q-6 -4 -13 -0.5t-7 11.5q0 7 5 10l114 95q10 8 22.5 3t12.5 -19q0 -11 -8 -17zM463 648l-117 -95q-5 -5 -13 -1.5t-8 11.5q0 5 4 9l104 105q10 10 24 6.5t14 -19.5q0 -10 -8 -16z" />
    <glyph glyph-name="Uogonek" unicode="&#x172;" horiz-adv-x="569" 
d="M323 -148h29q17 0 17 -18q0 -19 -21 -19h-34q-35 0 -56 20.5t-21 49.5q0 55 65 113q-34 -8 -64 -8q-80 0 -129 44t-49 119q0 14 4 42l78 445q4 22 27 22q13 0 19.5 -8.5t4.5 -19.5l-78 -442q-4 -20 -4 -35q0 -54 35 -87t100 -33q69 0 116 43.5t59 111.5l79 448
q4 22 27 22q13 0 19.5 -8.5t4.5 -19.5l-78 -439q-17 -92 -73 -145q-11 -11 -40.5 -36t-42.5 -38.5t-26 -36t-13 -44.5q0 -43 45 -43z" />
    <glyph glyph-name="uogonek" unicode="&#x173;" horiz-adv-x="495" 
d="M317 -185q-24 0 -38.5 1.5t-34.5 6.5t-29.5 17.5t-9.5 33.5q0 40 40.5 78t91.5 56l-1 8v45q-60 -71 -147 -71q-64 0 -103.5 37.5t-39.5 101.5q0 17 3 37l54 306q4 21 26 21q12 0 18.5 -7.5t4.5 -18.5l-53 -305q-3 -15 -3 -29q0 -45 27 -71.5t78 -26.5q57 0 97.5 39
t51.5 98l53 300q4 21 26 21q12 0 18.5 -7.5t4.5 -18.5l-81 -455q-3 -17 -14 -17q-111 -54 -111 -110q0 -12 5.5 -19t18 -10t22.5 -3.5t29 -0.5q17 0 17 -17q0 -20 -21 -20z" />
    <glyph glyph-name="Wcircumflex" unicode="&#x174;" horiz-adv-x="740" 
d="M457 784l-105 -83q-5 -3 -8 -3q-11 0 -13.5 9t4.5 15l104 102q13 13 27 13t24 -15l68 -102q5 -7 0 -14.5t-14 -7.5q-7 0 -11 4zM756 628l-253 -612q-9 -21 -31 -21q-21 0 -23 23l-33 539l-223 -541q-9 -21 -31 -21q-20 0 -22 23l-37 619q-1 10 6 17.5t18 7.5
q10 0 17 -6.5t8 -16.5l30 -537l221 538q9 22 31 22t24 -24l31 -536l224 545q5 15 24 15q11 0 18 -10t1 -24z" />
    <glyph glyph-name="wcircumflex" unicode="&#x175;" horiz-adv-x="639" 
d="M381 640l-105 -83q-4 -3 -8 -3q-11 0 -13.5 9t4.5 15l104 102q13 13 27 13t24 -15l68 -102q5 -7 0 -14.5t-14 -7.5q-7 0 -11 4zM627 457l-200 -443q-9 -19 -29 -19q-19 0 -21 20l-39 385l-174 -387q-8 -18 -28 -18q-18 0 -20 20l-46 452q-1 10 7.5 18t18.5 8t17.5 -7
t8.5 -17l31 -383l170 386q10 21 31 21q24 0 26 -24l33 -383l170 391q6 16 22 16q13 0 20.5 -11t1.5 -25z" />
    <glyph glyph-name="Ycircumflex" unicode="&#x176;" horiz-adv-x="475" 
d="M501 628l-243 -367l-43 -244q-4 -22 -27 -22q-13 0 -19.5 8t-4.5 19l42 239l-112 367q-4 12 3 23t21 11q19 0 24 -18l98 -332l221 339q6 11 20 11q12 0 19.5 -11.5t0.5 -22.5zM325 784l-105 -83q-5 -3 -8 -3q-11 0 -13.5 9t4.5 15l104 102q13 13 27 13t24 -15l68 -102
q5 -7 0 -14.5t-14 -7.5q-7 0 -11 4z" />
    <glyph glyph-name="ycircumflex" unicode="&#x177;" horiz-adv-x="451" 
d="M442 456l-343 -636q-7 -12 -20 -12q-11 0 -17.5 10.5t-0.5 21.5l91 166l-85 454q-2 12 5 22.5t19 10.5q9 0 17 -6t9 -15l70 -400l214 408q7 13 21 13q13 0 20 -11.5t0 -25.5zM287 640l-105 -83q-5 -3 -8 -3q-11 0 -13.5 9t4.5 15l104 102q13 13 27 13t24 -15l68 -102
q5 -7 0 -14.5t-14 -7.5q-7 0 -11 4z" />
    <glyph glyph-name="Ydieresis" unicode="&#x178;" horiz-adv-x="475" 
d="M501 628l-243 -367l-43 -244q-4 -22 -27 -22q-13 0 -19.5 8t-4.5 19l42 239l-112 367q-4 12 3 23t21 11q19 0 24 -18l98 -332l221 339q6 11 20 11q12 0 19.5 -11.5t0.5 -22.5zM233 755q0 17 12.5 29t31.5 12q13 0 21.5 -9t8.5 -21q0 -17 -12.5 -30t-29.5 -13
q-13 0 -22.5 9.5t-9.5 22.5zM334 755q0 17 12.5 29t31.5 12q13 0 21.5 -9t8.5 -22q0 -16 -13 -29t-29 -13q-13 0 -22.5 9.5t-9.5 22.5z" />
    <glyph glyph-name="Zacute" unicode="&#x179;" horiz-adv-x="455" 
d="M379 25q0 -25 -27 -25h-342q-22 0 -22 20q0 9 12 26l401 564h-273q-22 0 -22 22q0 25 27 25h318q22 0 22 -19q0 -10 -12 -27l-401 -564h297q22 0 22 -22zM412 769l-103 -68q-5 -3 -10 -3q-14 0 -17 13t7 21l89 78q8 7 18 7q19 1 26 -17t-10 -31z" />
    <glyph glyph-name="zacute" unicode="&#x17a;" horiz-adv-x="420" 
d="M369 625l-103 -68q-4 -3 -10 -3q-14 0 -17 13t7 21l89 78q8 7 18 7q19 1 26 -17t-10 -31zM2 44l338 401h-247q-20 0 -20 20q0 23 25 23h290q21 0 21 -18q0 -12 -12 -26l-339 -401h263q20 0 20 -20q0 -23 -25 -23h-304q-21 0 -21 19q0 10 11 25z" />
    <glyph glyph-name="Zdotaccent" unicode="&#x17b;" horiz-adv-x="455" 
d="M269 749q0 19 12.5 33t31.5 14q17 0 27.5 -10t10.5 -25q0 -19 -12 -32.5t-32 -13.5q-17 0 -27.5 9t-10.5 25zM379 25q0 -25 -27 -25h-342q-22 0 -22 20q0 9 12 26l401 564h-273q-22 0 -22 22q0 25 27 25h318q22 0 22 -19q0 -10 -12 -27l-401 -564h297q22 0 22 -22z" />
    <glyph glyph-name="zdotaccent" unicode="&#x17c;" horiz-adv-x="420" 
d="M2 44l338 401h-247q-20 0 -20 20q0 23 25 23h290q21 0 21 -18q0 -12 -12 -26l-339 -401h263q20 0 20 -20q0 -23 -25 -23h-304q-21 0 -21 19q0 10 11 25zM225 599q0 19 12.5 33t31.5 14q17 0 27.5 -9.5t10.5 -25.5q0 -19 -12 -32.5t-32 -13.5q-17 0 -27.5 9t-10.5 25z" />
    <glyph glyph-name="Zcaron" unicode="&#x17d;" horiz-adv-x="455" 
d="M379 25q0 -25 -27 -25h-342q-22 0 -22 20q0 9 12 26l401 564h-273q-22 0 -22 22q0 25 27 25h318q22 0 22 -19q0 -10 -12 -27l-401 -564h297q22 0 22 -22zM313 738l104 81q5 3 10 3q10 0 12.5 -8.5t-4.5 -13.5l-104 -103q-13 -13 -27 -13q-13 0 -23 15l-69 103
q-5 8 -1 15.5t13 7.5q6 0 11 -5z" />
    <glyph glyph-name="zcaron" unicode="&#x17e;" horiz-adv-x="420" 
d="M264 598l103 82q4 3 10 3q10 0 12.5 -9t-3.5 -14l-104 -102q-13 -13 -27 -13q-13 0 -23 15l-68 103q-4 7 0.5 15t13.5 8q6 0 11 -5zM2 44l338 401h-247q-20 0 -20 20q0 23 25 23h290q21 0 21 -18q0 -12 -12 -26l-339 -401h263q20 0 20 -20q0 -23 -25 -23h-304
q-21 0 -21 19q0 10 11 25z" />
    <glyph glyph-name="longs" unicode="&#x17f;" horiz-adv-x="220" 
d="M29 21l87 494q28 162 183 162h18q9 0 15.5 -6.5t6.5 -14.5q0 -23 -25 -23h-24q-102 0 -123 -114l-89 -503q-4 -21 -26 -21q-12 0 -18.5 7.5t-4.5 18.5z" />
    <glyph glyph-name="florin" unicode="&#x192;" horiz-adv-x="415" 
d="M232 321l-60 -346q-28 -162 -183 -162h-19q-7 0 -14 6t-7 15q0 23 25 23h24q102 0 123 114l62 350h-65q-20 0 -20 20q0 22 24 22h68l27 152q28 162 183 162h18q9 0 15.5 -6.5t6.5 -14.5q0 -23 -25 -23h-24q-102 0 -123 -114l-28 -156h118q20 0 20 -20q0 -22 -24 -22h-122
z" />
    <glyph glyph-name="uni0218" unicode="&#x218;" horiz-adv-x="520" 
d="M218 -80l-72 -114q-7 -11 -18 -11q-8 0 -13.5 5.5t-5.5 12.5q0 5 4 14l52 120q8 18 28 18q12 0 21 -8.5t9 -20.5q0 -8 -5 -16zM230 35q75 0 120.5 43.5t45.5 109.5q0 25 -8.5 44.5t-27 34.5t-33 23t-41.5 21l-82 38q-104 49 -104 138q0 82 58 131t157 49q80 0 133 -44.5
t43 -128.5q-3 -24 -25 -24q-12 0 -18.5 8t-5.5 21q6 58 -29.5 90.5t-104.5 32.5q-72 0 -115 -34.5t-43 -89.5q0 -65 66 -95l106 -48q57 -26 92 -61.5t35 -93.5q0 -96 -61 -153t-165 -57q-88 0 -147 45.5t-46 129.5q3 24 25 24q26 0 23 -27q-7 -65 38 -96t114 -31z" />
    <glyph glyph-name="uni0219" unicode="&#x219;" horiz-adv-x="444" 
d="M181 -80l-72 -114q-7 -11 -18 -11q-8 0 -13.5 5.5t-5.5 12.5q0 5 4 14l52 120q8 18 28 18q12 0 21 -8.5t9 -20.5q0 -8 -5 -16zM182 294l78 -26q107 -35 107 -119q0 -69 -50.5 -114t-134.5 -45q-66 0 -116 30.5t-50 92.5q0 12 1 18q4 23 24 23q12 0 17.5 -7.5t4.5 -16.5
q-5 -51 29.5 -73.5t96.5 -22.5q59 0 93 30t34 78q0 29 -14 47t-45 28l-84 28q-100 33 -100 111q0 60 48.5 101t125.5 41q62 0 108.5 -28.5t46.5 -87.5q0 -35 -24 -35q-23 0 -23 30q0 40 -33 59.5t-82 19.5q-44 0 -81.5 -24t-37.5 -69q0 -48 61 -69z" />
    <glyph glyph-name="uni021A" unicode="&#x21a;" horiz-adv-x="453" 
d="M186 -80l-72 -114q-7 -11 -18 -11q-8 0 -13.5 5.5t-5.5 12.5q0 5 4 14l52 120q8 18 28 18q12 0 21 -8.5t9 -20.5q0 -8 -5 -16zM104 657h373q22 0 22 -22q0 -25 -27 -25h-163l-104 -593q-4 -22 -27 -22q-13 0 -19.5 8t-4.5 19l104 588h-159q-22 0 -22 22q0 25 27 25z" />
    <glyph glyph-name="uni021B" unicode="&#x21b;" horiz-adv-x="300" 
d="M110 -80l-72 -114q-7 -11 -18 -11q-8 0 -13.5 5.5t-5.5 12.5q0 5 4 14l52 120q8 18 28 18q12 0 21 -8.5t9 -20.5q0 -8 -5 -16zM290 444h-88l-75 -428q-4 -21 -26 -21q-12 0 -18.5 7.5t-4.5 18.5l75 423h-84q-20 0 -20 20q0 22 24 22h87l20 117q4 21 26 21q12 0 18.5 -7.5
t4.5 -18.5l-19 -112h84q20 0 20 -20q0 -22 -24 -22z" />
    <glyph glyph-name="uni0237" unicode="&#x237;" horiz-adv-x="200" 
d="M157 467l-86 -488q-31 -176 -206 -176q-6 0 -13 6t-7 15q0 23 25 23h7q62 0 98 34t46 94l87 497q4 21 26 21q12 0 18.5 -7.5t4.5 -18.5z" />
    <glyph glyph-name="circumflex" unicode="&#x2c6;" horiz-adv-x="275" 
d="M251 640l-105 -83q-5 -3 -8 -3q-11 0 -13.5 9t4.5 15l104 102q13 13 27 13t24 -15l68 -102q5 -7 0 -14.5t-14 -7.5q-7 0 -11 4z" />
    <glyph glyph-name="caron" unicode="&#x2c7;" horiz-adv-x="275" 
d="M242 598l103 82q5 3 10 3q10 0 12.5 -9t-3.5 -14l-104 -102q-13 -13 -27 -13q-13 0 -23 15l-68 103q-4 7 0.5 15t13.5 8q6 0 11 -5z" />
    <glyph glyph-name="uni02C9" unicode="&#x2c9;" horiz-adv-x="272" 
d="M120 597q0 22 26 22h195q21 0 21 -19q0 -21 -26 -21h-195q-21 0 -21 18z" />
    <glyph glyph-name="breve" unicode="&#x2d8;" horiz-adv-x="226" 
d="M320 647q-8 -43 -34.5 -69.5t-71.5 -26.5q-44 0 -67 28t-13 72q4 16 20 16q9 0 14 -6t3 -14q-8 -27 5.5 -45t43.5 -18q47 0 63 65q1 2 1 3q4 15 19 15q9 0 14 -6t3 -14z" />
    <glyph glyph-name="dotaccent" unicode="&#x2d9;" horiz-adv-x="117" 
d="M124 599q0 19 12.5 33t31.5 14q17 0 27.5 -9.5t10.5 -25.5q0 -19 -12 -32.5t-32 -13.5q-17 0 -27.5 9t-10.5 25z" />
    <glyph glyph-name="ring" unicode="&#x2da;" horiz-adv-x="226" 
d="M222 562q25 0 40.5 17t15.5 43q0 25 -15.5 42t-39.5 17q-25 0 -40.5 -17t-15.5 -43t15.5 -42.5t39.5 -16.5zM222 529q-40 0 -66.5 27t-26.5 65t27 65.5t67 27.5q39 0 66 -27t27 -65q0 -39 -27 -66t-67 -27z" />
    <glyph glyph-name="ogonek" unicode="&#x2db;" horiz-adv-x="221" 
d="M135 -185q-24 0 -38.5 1.5t-34.5 6.5t-29.5 17.5t-9.5 33.5q0 41 40 79.5t91 56.5l27 -9q-117 -58 -117 -116q0 -12 5.5 -19t18 -10t22.5 -3.5t29 -0.5q17 0 17 -17q0 -20 -21 -20z" />
    <glyph glyph-name="tilde" unicode="&#x2dc;" horiz-adv-x="331" 
d="M151 566q-3 -11 -15 -11q-14 0 -14 14q0 37 25.5 64t66.5 27q27 0 57 -19l37 -24q28 -19 44 -19q31 0 43 55q3 11 14 11q15 0 15 -15q0 -34 -19.5 -61t-57.5 -27q-27 0 -64 24l-36 22q-25 16 -40 16q-39 0 -56 -57z" />
    <glyph glyph-name="hungarumlaut" unicode="&#x2dd;" horiz-adv-x="291" 
d="M142 560q-6 -4 -13 -0.5t-7 11.5q0 7 5 10l114 95q10 8 22.5 3t12.5 -19q0 -11 -8 -17zM372 648l-117 -95q-5 -5 -13 -1.5t-8 11.5q0 5 4 9l104 105q10 10 24 6.5t14 -19.5q0 -10 -8 -16z" />
    <glyph glyph-name="uni0394" unicode="&#x394;" horiz-adv-x="513" 
d="M35 0q-23 0 -16 24l182 614q7 24 32 24q24 0 31 -25l183 -613q3 -11 -2 -17.5t-16 -6.5h-394zM232 567l-154 -520h307z" />
    <glyph glyph-name="uni03A9" unicode="&#x3a9;" horiz-adv-x="583" 
d="M24 0q-22 0 -22 22q0 24 26 24h95q-55 44 -55 121q0 20 4 39l44 256q17 95 78 150t153 55q85 0 136.5 -44.5t51.5 -120.5q0 -19 -3 -40l-45 -256q-22 -122 -107 -160h91q21 0 21 -22q0 -24 -26 -24h-122q-11 0 -17 7t-4 18l3 18q4 19 22 29q73 42 88 130q48 280 48 296
q0 55 -36.5 88.5t-104.5 33.5q-71 0 -116.5 -43t-57.5 -112l-46 -263q-16 -88 41 -130q16 -10 12 -29l-3 -18q-5 -25 -29 -25h-120z" />
    <glyph glyph-name="uni03BC" unicode="&#x3bc;" horiz-adv-x="499" 
d="M457 467l-81 -455q-3 -17 -19 -17q-17 0 -17 21v45q-60 -71 -146 -71q-79 0 -118 49l-29 -197l-2 -12q-4 -22 -29 -22q-24 0 -19 25l111 639q4 21 26 21q12 0 18.5 -7.5t4.5 -18.5l-53 -305q-3 -15 -3 -29q-1 -47 26 -72.5t79 -25.5q57 0 97.5 39t51.5 98l53 300
q4 21 26 21q12 0 18.5 -7.5t4.5 -18.5z" />
    <glyph glyph-name="pi" unicode="&#x3c0;" horiz-adv-x="618" 
d="M604 441h-90l-75 -425q-4 -21 -26 -21q-12 0 -18.5 7.5t-4.5 18.5l74 420h-255l-75 -425q-4 -21 -26 -21q-12 0 -18.5 7.5t-4.5 18.5l74 420h-87q-22 0 -22 22q0 25 27 25h532q22 0 22 -22q0 -25 -27 -25z" />
    <glyph glyph-name="Wgrave" unicode="&#x1e80;" horiz-adv-x="740" 
d="M375 823l83 -95q8 -9 4 -20t-16 -11q-7 0 -12 5l-95 82q-12 10 -6.5 28t23.5 18q12 0 19 -7zM756 628l-253 -612q-9 -21 -31 -21q-21 0 -23 23l-33 539l-223 -541q-9 -21 -31 -21q-20 0 -22 23l-37 619q-1 10 6 17.5t18 7.5q10 0 17 -6.5t8 -16.5l30 -537l221 538
q9 22 31 22t24 -24l31 -536l224 545q5 15 24 15q11 0 18 -10t1 -24z" />
    <glyph glyph-name="wgrave" unicode="&#x1e81;" horiz-adv-x="639" 
d="M627 457l-200 -443q-9 -19 -29 -19q-19 0 -21 20l-39 385l-174 -387q-8 -18 -28 -18q-18 0 -20 20l-46 452q-1 10 7.5 18t18.5 8t17.5 -7t8.5 -17l31 -383l170 386q10 21 31 21q24 0 26 -24l33 -383l170 391q6 16 22 16q13 0 20.5 -11t1.5 -25zM299 679l83 -95
q8 -9 4 -20t-16 -11q-7 0 -12 5l-95 82q-12 10 -6.5 28t23.5 18q12 0 19 -7z" />
    <glyph glyph-name="Wacute" unicode="&#x1e82;" horiz-adv-x="740" 
d="M558 769l-103 -68q-5 -3 -10 -3q-14 0 -17 13t7 21l89 78q8 7 18 7q19 1 26 -17t-10 -31zM756 628l-253 -612q-9 -21 -31 -21q-21 0 -23 23l-33 539l-223 -541q-9 -21 -31 -21q-20 0 -22 23l-37 619q-1 10 6 17.5t18 7.5q10 0 17 -6.5t8 -16.5l30 -537l221 538
q9 22 31 22t24 -24l31 -536l224 545q5 15 24 15q11 0 18 -10t1 -24z" />
    <glyph glyph-name="wacute" unicode="&#x1e83;" horiz-adv-x="639" 
d="M479 625l-103 -68q-5 -3 -10 -3q-14 0 -17 13t7 21l89 78q8 7 18 7q19 1 26 -17t-10 -31zM627 457l-200 -443q-9 -19 -29 -19q-19 0 -21 20l-39 385l-174 -387q-8 -18 -28 -18q-18 0 -20 20l-46 452q-1 10 7.5 18t18.5 8t17.5 -7t8.5 -17l31 -383l170 386q10 21 31 21
q24 0 26 -24l33 -383l170 391q6 16 22 16q13 0 20.5 -11t1.5 -25z" />
    <glyph glyph-name="Wdieresis" unicode="&#x1e84;" horiz-adv-x="740" 
d="M756 628l-253 -612q-9 -21 -31 -21q-21 0 -23 23l-33 539l-223 -541q-9 -21 -31 -21q-20 0 -22 23l-37 619q-1 10 6 17.5t18 7.5q10 0 17 -6.5t8 -16.5l30 -537l221 538q9 22 31 22t24 -24l31 -536l224 545q5 15 24 15q11 0 18 -10t1 -24zM365 755q0 17 12.5 29t31.5 12
q13 0 21.5 -9t8.5 -21q0 -17 -12.5 -30t-29.5 -13q-13 0 -22.5 9.5t-9.5 22.5zM466 755q0 17 12.5 29t31.5 12q13 0 21.5 -9t8.5 -22q0 -16 -13 -29t-29 -13q-13 0 -22.5 9.5t-9.5 22.5z" />
    <glyph glyph-name="wdieresis" unicode="&#x1e85;" horiz-adv-x="639" 
d="M287 599q0 17 11 29t28 12q14 0 24 -9t10 -22q0 -18 -11 -30t-30 -12q-13 0 -22.5 9.5t-9.5 22.5zM388 599q0 17 11 29t28 12q15 0 24.5 -8.5t9.5 -22.5q0 -18 -10.5 -30t-30.5 -12q-13 0 -22.5 9.5t-9.5 22.5zM627 457l-200 -443q-9 -19 -29 -19q-19 0 -21 20l-39 385
l-174 -387q-8 -18 -28 -18q-18 0 -20 20l-46 452q-1 10 7.5 18t18.5 8t17.5 -7t8.5 -17l31 -383l170 386q10 21 31 21q24 0 26 -24l33 -383l170 391q6 16 22 16q13 0 20.5 -11t1.5 -25z" />
    <glyph glyph-name="endash" unicode="&#x2013;" horiz-adv-x="498" 
d="M63 262q0 23 26 23h317q21 0 21 -20q0 -22 -26 -22h-317q-21 0 -21 19z" />
    <glyph glyph-name="emdash" unicode="&#x2014;" horiz-adv-x="790" 
d="M63 262q0 23 26 23h609q21 0 21 -20q0 -22 -26 -22h-609q-21 0 -21 19z" />
    <glyph glyph-name="quoteleft" unicode="&#x2018;" horiz-adv-x="210" 
d="M106 536l72 114q7 11 18 11t16 -8.5t1 -18.5l-54 -125q-8 -18 -28 -18q-17 0 -26 14.5t1 30.5z" />
    <glyph glyph-name="quoteright" unicode="&#x2019;" horiz-adv-x="207" 
d="M208 616l-72 -114q-7 -11 -18 -11t-16 8.5t-1 18.5l54 125q8 18 28 18q17 0 26 -14.5t-1 -30.5z" />
    <glyph glyph-name="quotesinglbase" unicode="&#x201a;" horiz-adv-x="214" 
d="M99 26l-72 -114q-7 -11 -18 -11t-16 8.5t-1 18.5l54 125q8 18 28 18q17 0 26 -14.5t-1 -30.5z" />
    <glyph glyph-name="quotedblleft" unicode="&#x201c;" horiz-adv-x="315" 
d="M209 536l72 114q7 11 18 11t16 -8.5t1 -18.5l-54 -125q-8 -18 -28 -18q-17 0 -26 14.5t1 30.5zM105 536l72 114q7 11 18 11t16 -8.5t1 -18.5l-54 -125q-8 -18 -28 -18q-17 0 -26 14.5t1 30.5z" />
    <glyph glyph-name="quotedblright" unicode="&#x201d;" horiz-adv-x="313" 
d="M210 616l-72 -114q-7 -11 -18 -11t-16 8.5t-1 18.5l54 125q8 18 28 18q17 0 26 -14.5t-1 -30.5zM314 616l-72 -114q-7 -11 -18 -11t-16 8.5t-1 18.5l54 125q8 18 28 18q17 0 26 -14.5t-1 -30.5z" />
    <glyph glyph-name="quotedblbase" unicode="&#x201e;" horiz-adv-x="319" 
d="M99 26l-72 -114q-7 -11 -18 -11t-16 8.5t-1 18.5l54 125q8 18 28 18q17 0 26 -14.5t-1 -30.5zM207 26l-72 -114q-7 -11 -18 -11t-16 8.5t-1 18.5l54 125q8 18 28 18q17 0 26 -14.5t-1 -30.5z" />
    <glyph glyph-name="dagger" unicode="&#x2020;" horiz-adv-x="361" 
d="M267 636l-15 -88l-20 -60h115q17 0 17 -17q0 -19 -21 -19h-119l-69 -454l-17 -93q-4 -21 -26 -21q-12 0 -18.5 7.5t-4.5 18.5l16 88l90 454h-116q-17 0 -17 17q0 19 21 19h116l3 60l16 93q4 21 26 21q12 0 18.5 -7.5t4.5 -18.5z" />
    <glyph glyph-name="daggerdbl" unicode="&#x2021;" horiz-adv-x="399" 
d="M210 270l-23 -176h110q17 0 17 -17q0 -19 -21 -19h-111l-7 -60l-17 -93q-4 -21 -26 -21q-12 0 -18.5 7.5t-4.5 18.5l16 88l12 60h-108q-17 0 -17 17q0 19 21 19h112l38 176l26 182h-110q-17 0 -17 17q0 19 21 19h110l9 60l16 93q4 21 26 21q12 0 18.5 -7.5t4.5 -18.5
l-15 -88l-14 -60h109q17 0 17 -17q0 -19 -21 -19h-113z" />
    <glyph glyph-name="bullet" unicode="&#x2022;" horiz-adv-x="333" 
d="M81 274q0 35 24.5 59.5t57.5 24.5q35 0 59.5 -24.5t24.5 -59.5q0 -34 -24.5 -58t-59.5 -24q-33 0 -57.5 24t-24.5 58z" />
    <glyph glyph-name="ellipsis" unicode="&#x2026;" horiz-adv-x="561" 
d="M20 22q0 18 14 31.5t32 13.5q14 0 23 -9.5t9 -23.5q0 -19 -13.5 -31.5t-32.5 -12.5q-14 0 -23 9t-9 23zM197 22q0 18 13.5 31.5t31.5 13.5q15 0 24 -9.5t9 -23.5q0 -19 -13.5 -31.5t-32.5 -12.5q-14 0 -23 9t-9 23zM374 22q0 18 13.5 31.5t31.5 13.5q15 0 24 -9.5
t9 -23.5q0 -19 -13.5 -31.5t-32.5 -12.5q-14 0 -23 9t-9 23z" />
    <glyph glyph-name="perthousand" unicode="&#x2030;" horiz-adv-x="882" 
d="M377 225l-24 -131q-1 -5 -1 -14q0 -23 15.5 -38.5t42.5 -15.5q30 0 50.5 18.5t26.5 49.5l24 131q1 5 1 15q0 24 -14.5 38.5t-41.5 14.5q-31 0 -52.5 -19t-26.5 -49zM552 223l-22 -127q-9 -50 -40 -78t-84 -28q-41 0 -68.5 23t-27.5 62q0 7 2 21l22 127q9 49 40.5 77.5
t82.5 28.5q42 0 69.5 -23t27.5 -63q0 -6 -2 -20zM147 563l-24 -131q-1 -5 -1 -14q0 -23 15.5 -38.5t42.5 -15.5q30 0 50.5 18.5t26.5 49.5l24 131q1 5 1 15q0 24 -14.5 38.5t-41.5 14.5q-31 0 -52.5 -19t-26.5 -49zM323 561l-22 -127q-9 -50 -40.5 -78t-84.5 -28
q-41 0 -68 23t-27 62q0 7 2 21l22 127q9 49 40 77.5t82 28.5q42 0 70 -23t28 -63q0 -6 -2 -20zM647 225l-23 -131q-1 -5 -1 -14q0 -23 15 -38.5t43 -15.5q29 0 50 18.5t27 49.5l24 131q1 5 1 15q0 24 -14.5 38.5t-42.5 14.5q-31 0 -52.5 -19t-26.5 -49zM823 223l-22 -127
q-9 -50 -40 -78t-84 -28q-41 0 -68.5 23t-27.5 62q0 7 2 21l22 127q9 49 40.5 77.5t82.5 28.5q42 0 69.5 -23t27.5 -63q0 -6 -2 -20zM333 319l-245 -315q-6 -9 -19 -9q-12 0 -17 11.5t3 20.5l237 301l253 327q5 7 14 7q12 0 18.5 -11t-0.5 -22z" />
    <glyph glyph-name="guilsinglleft" unicode="&#x2039;" horiz-adv-x="236" 
d="M91 77l-37 132q-2 10 -2 15q0 16 8 30l90 141q5 8 16 8t16 -10t-1 -19l-80 -141l31 -142q3 -11 -3 -19.5t-17 -8.5q-16 0 -21 14z" />
    <glyph glyph-name="guilsinglright" unicode="&#x203a;" horiz-adv-x="237" 
d="M128 389l37 -132q2 -10 2 -15q0 -16 -8 -30l-90 -141q-5 -8 -16 -8t-16 10t1 19l80 141l-31 142q-3 11 3 19.5t17 8.5q16 0 21 -14z" />
    <glyph glyph-name="fraction" unicode="&#x2044;" horiz-adv-x="92" 
d="M72 319l-245 -315q-6 -9 -19 -9q-12 0 -17 11.5t3 20.5l237 301l253 327q5 7 14 7q12 0 18.5 -11t-0.5 -22z" />
    <glyph glyph-name="zero.superior" unicode="&#x2070;" horiz-adv-x="288" 
d="M161 711l-24 -134q-2 -10 -2 -15q0 -22 14.5 -34.5t41.5 -12.5q25 0 42 17t22 45l24 134q1 5 1 15q0 22 -13.5 34.5t-39.5 12.5q-54 0 -66 -62zM324 710l-24 -132q-9 -49 -38.5 -76t-77.5 -27q-41 0 -67.5 22.5t-26.5 59.5q0 7 2 21l24 132q19 103 117 103
q40 0 66.5 -22.5t26.5 -60.5q0 -6 -2 -20z" />
    <glyph glyph-name="four.superior" unicode="&#x2074;" horiz-adv-x="282" 
d="M268 555l-11 -61q-4 -19 -23 -19q-11 0 -17 7t-4 17l9 56h-118q-28 0 -28 30q0 11 21 35l143 168q21 25 43 25q13 0 20.5 -8t5.5 -20l-34 -191h19q18 0 18 -19q0 -20 -22 -20h-22zM121 594h109l29 161z" />
    <glyph glyph-name="five.superior" unicode="&#x2075;" horiz-adv-x="277" 
d="M83 553q0 20 22 20q17 0 20 -21q5 -39 57 -39q32 0 50.5 22.5t18.5 59.5q0 50 -51 50q-22 0 -41 -10.5t-29 -10.5q-9 0 -15 6t-5 15l25 139q5 24 29 24h140q18 0 18 -18q0 -21 -22 -21h-127l-17 -104q26 18 58 18q36 0 60 -23t24 -59q0 -58 -32.5 -92t-88.5 -34
q-46 0 -70 21.5t-24 56.5z" />
    <glyph glyph-name="six.superior" unicode="&#x2076;" horiz-adv-x="283" 
d="M321 733q0 -21 -23 -21q-7 0 -11.5 3.5t-6 8.5t-3.5 14q-6 36 -52 36q-27 0 -44 -16t-22 -43l-11 -62q30 23 68 23q36 0 60 -23t24 -58q0 -56 -32 -88t-86 -32q-41 0 -67 22.5t-26 61.5q0 8 2 24l23 128q18 102 118 102q40 0 64.5 -20t24.5 -60zM202 638q-36 0 -61 -27
l-5 -29q-2 -12 -2 -18q0 -24 14 -37.5t41 -13.5q29 0 46 20.5t17 54.5q0 50 -50 50z" />
    <glyph glyph-name="seven.superior" unicode="&#x2077;" horiz-adv-x="235" 
d="M138 485q-7 -10 -18 -10q-13 0 -18.5 10.5t1.5 22.5l148 261h-128q-18 0 -18 18q0 21 22 21h148q14 0 21.5 -7.5t4.5 -21.5q-1 -7 -18 -36z" />
    <glyph glyph-name="eight.superior" unicode="&#x2078;" horiz-adv-x="282" 
d="M320 738q0 -31 -16.5 -55t-42.5 -35q38 -18 38 -62q0 -50 -32 -80.5t-86 -30.5q-40 0 -68 22t-28 57q0 70 64 98q-32 17 -32 56q0 47 30.5 76t83.5 29q38 0 63.5 -21t25.5 -54zM132 560q0 -22 14.5 -35t40.5 -13q30 0 48 20.5t18 52.5q0 21 -12.5 34t-37.5 13
q-35 0 -53 -20.5t-18 -51.5zM162 709q0 -43 47 -43q32 0 48.5 19t16.5 47q0 19 -13 31t-36 12q-30 0 -46.5 -18.5t-16.5 -47.5z" />
    <glyph glyph-name="nine.superior" unicode="&#x2079;" horiz-adv-x="284" 
d="M209 650q34 0 60 28l4 24q2 14 2 19q0 54 -54 54q-30 0 -47 -20.5t-17 -54.5q0 -50 52 -50zM131 555q7 -41 53 -41q54 0 66 59l12 63q-29 -24 -67 -24q-36 0 -60.5 23t-24.5 58q0 57 30.5 88.5t85.5 31.5q41 0 67.5 -23.5t26.5 -64.5q0 -8 -2 -24l-22 -124
q-18 -102 -117 -102q-43 0 -67 21.5t-24 51.5q0 28 24 28q16 0 19 -21z" />
    <glyph glyph-name="parenleft.superior" unicode="&#x207d;" horiz-adv-x="167" 
d="M152 425q-31 0 -50.5 19t-19.5 52q0 7 2 21l44 252q17 89 99 93q7 1 11.5 -4.5t4.5 -13.5q0 -20 -22 -22q-37 -4 -46 -50l-46 -258q-1 -5 -1 -14q0 -30 28 -35q18 -4 18 -19q0 -21 -22 -21z" />
    <glyph glyph-name="parenright.superior" unicode="&#x207e;" horiz-adv-x="168" 
d="M142 862q31 0 50.5 -19t19.5 -52q0 -7 -2 -21l-44 -252q-17 -89 -99 -93q-7 -1 -11.5 4.5t-4.5 13.5q0 20 22 22q37 4 46 50l46 258q1 5 1 14q0 30 -28 35q-18 4 -18 19q0 21 22 21z" />
    <glyph glyph-name="zero.inferior" unicode="&#x2080;" horiz-adv-x="304" 
d="M59 86l-24 -134q-2 -10 -2 -15q0 -22 14.5 -34.5t41.5 -12.5q25 0 42 17t22 45l24 134q1 5 1 15q0 22 -13.5 34.5t-39.5 12.5q-54 0 -66 -62zM222 85l-24 -132q-9 -49 -38.5 -76t-77.5 -27q-41 0 -67.5 22.5t-26.5 59.5q0 7 2 21l24 132q19 103 117 103q40 0 66.5 -22.5
t26.5 -60.5q0 -6 -2 -20z" />
    <glyph glyph-name="one.inferior" unicode="&#x2081;" horiz-adv-x="220" 
d="M108 -145h-130q-19 0 -19 19q0 20 22 20h44l44 249h-39q-20 0 -20 20t23 20h63q11 0 17 -6.5t4 -17.5l-47 -265h41q19 0 19 -19q0 -20 -22 -20z" />
    <glyph glyph-name="two.inferior" unicode="&#x2082;" horiz-adv-x="287" 
d="M54 99q-5 -18 -24 -18q-10 0 -15.5 7.5t-3.5 16.5q8 36 38 59.5t75 23.5q39 0 64.5 -21t25.5 -55q0 -65 -74 -109l-69 -41q-41 -25 -50 -66h143q19 0 19 -19q0 -22 -23 -22h-170q-11 0 -17 7t-4 18q13 73 86 117l60 36q53 32 53 71q0 44 -52 44q-49 0 -62 -49z" />
    <glyph glyph-name="three.inferior" unicode="&#x2083;" horiz-adv-x="288" 
d="M19 -68q0 -44 55 -44q32 0 50 19.5t18 51.5q0 22 -13 34.5t-50 12.5q-6 0 -11.5 5t-5.5 12q0 19 21 19q48 0 64 16.5t16 46.5q0 42 -51 42q-25 0 -41.5 -13.5t-19.5 -32.5q-4 -18 -23 -18q-9 0 -15 7.5t-4 16.5q6 31 36 55.5t75 24.5q38 0 63.5 -21t25.5 -55
q0 -36 -15 -56t-44 -33q38 -19 38 -61q0 -52 -32 -82t-87 -30q-43 0 -68.5 21t-25.5 53q0 30 23 30q9 0 15 -6t6 -15z" />
    <glyph glyph-name="four.inferior" unicode="&#x2084;" horiz-adv-x="290" 
d="M160 -71l-11 -61q-4 -19 -23 -19q-11 0 -17 7t-4 17l9 56h-118q-28 0 -28 30q0 11 21 35l143 168q21 25 43 25q13 0 20.5 -8t5.5 -20l-34 -191h19q18 0 18 -19q0 -20 -22 -20h-22zM13 -32h109l29 161z" />
    <glyph glyph-name="five.inferior" unicode="&#x2085;" horiz-adv-x="285" 
d="M-23 -72q0 20 22 20q17 0 20 -21q5 -39 57 -39q32 0 50.5 22.5t18.5 59.5q0 50 -51 50q-22 0 -41 -10.5t-29 -10.5q-9 0 -15 6t-5 15l25 139q5 24 29 24h140q18 0 18 -18q0 -21 -22 -21h-127l-17 -104q26 18 58 18q36 0 60 -23t24 -59q0 -58 -32.5 -92t-88.5 -34
q-46 0 -70 21.5t-24 56.5z" />
    <glyph glyph-name="six.inferior" unicode="&#x2086;" horiz-adv-x="296" 
d="M220 108q0 -21 -23 -21q-7 0 -11.5 3.5t-6 8.5t-3.5 14q-6 36 -52 36q-27 0 -44 -16t-22 -43l-11 -62q30 23 68 23q36 0 60 -23t24 -58q0 -56 -32 -88t-86 -32q-41 0 -67 22.5t-26 61.5q0 8 2 24l23 128q18 102 118 102q40 0 64.5 -20t24.5 -60zM101 13q-36 0 -61 -27
l-5 -29q-2 -12 -2 -18q0 -24 14 -37.5t41 -13.5q29 0 46 20.5t17 54.5q0 50 -50 50z" />
    <glyph glyph-name="seven.inferior" unicode="&#x2087;" horiz-adv-x="239" 
d="M30 -140q-7 -10 -18 -10q-13 0 -18.5 10.5t1.5 22.5l148 261h-128q-18 0 -18 18q0 21 22 21h148q14 0 21.5 -7.5t4.5 -21.5q-1 -7 -18 -36z" />
    <glyph glyph-name="eight.inferior" unicode="&#x2088;" horiz-adv-x="295" 
d="M216 113q0 -31 -16.5 -55t-42.5 -35q38 -18 38 -62q0 -50 -32 -80.5t-86 -30.5q-40 0 -68 22t-28 57q0 70 64 98q-32 17 -32 56q0 47 30.5 76t83.5 29q38 0 63.5 -21t25.5 -54zM28 -65q0 -22 14.5 -35t40.5 -13q30 0 48 20.5t18 52.5q0 21 -12.5 34t-37.5 13
q-35 0 -53 -20.5t-18 -51.5zM58 84q0 -43 47 -43q32 0 48.5 19t16.5 47q0 19 -13 31t-36 12q-30 0 -46.5 -18.5t-16.5 -47.5z" />
    <glyph glyph-name="nine.inferior" unicode="&#x2089;" horiz-adv-x="295" 
d="M102 25q34 0 60 28l4 24q2 14 2 19q0 54 -54 54q-30 0 -47 -20.5t-17 -54.5q0 -50 52 -50zM24 -70q7 -41 53 -41q54 0 66 59l12 63q-29 -24 -67 -24q-36 0 -60.5 23t-24.5 58q0 57 30.5 88.5t85.5 31.5q41 0 67.5 -23.5t26.5 -64.5q0 -8 -2 -24l-22 -124
q-18 -102 -117 -102q-43 0 -67 21.5t-24 51.5q0 28 24 28q15 0 19 -21z" />
    <glyph glyph-name="parenleft.inferior" unicode="&#x208d;" horiz-adv-x="177" 
d="M49 -200q-31 0 -50.5 19t-19.5 52q0 7 2 21l44 252q17 89 99 93q7 1 11.5 -4.5t4.5 -13.5q0 -20 -22 -22q-37 -4 -46 -50l-46 -258q-1 -5 -1 -14q0 -30 28 -35q18 -4 18 -19q0 -21 -22 -21z" />
    <glyph glyph-name="parenright.inferior" unicode="&#x208e;" horiz-adv-x="177" 
d="M34 236q31 0 50.5 -19t19.5 -52q0 -7 -2 -21l-44 -252q-17 -89 -99 -93q-7 -1 -11.5 4.5t-4.5 13.5q0 20 22 22q37 4 46 50l46 258q1 5 1 14q0 30 -28 35q-18 4 -18 19q0 21 22 21z" />
    <glyph glyph-name="franc" unicode="&#x20a3;" horiz-adv-x="518" 
d="M367 421q9 0 15 -6t6 -15q0 -22 -25 -22h-177l-16 -88h175q9 0 15 -6t6 -15q0 -22 -25 -22h-178l-41 -230q-4 -22 -27 -22q-13 0 -19 8t-4 19l39 225h-45q-9 0 -15 6t-6 15q0 22 25 22h49l16 88h-47q-9 0 -15 6t-6 15q0 22 25 22h50l38 214q4 22 26 22h318q22 0 22 -22
q0 -25 -27 -25h-292l-34 -189h174z" />
    <glyph glyph-name="lira" unicode="&#x20a4;" horiz-adv-x="555" 
d="M133 42h305q21 0 21 -20q0 -22 -26 -22h-404q-20 0 -20 20q0 22 24 22h49q2 10 5 26t9 50t10 56l4 23h-45q-21 0 -21 21q0 22 26 22h48l15 88h-45q-21 0 -21 21q0 22 26 22h48l16 90q17 97 75 151.5t148 54.5q81 0 124 -52t30 -134q-3 -24 -25 -24q-12 0 -18.5 7.5
t-4.5 20.5q10 63 -20.5 100.5t-92.5 37.5q-65 0 -109.5 -44.5t-56.5 -113.5l-17 -94h176q20 0 20 -20q0 -23 -24 -23h-179l-16 -88h176q20 0 20 -20q0 -23 -24 -23h-179z" />
    <glyph glyph-name="peseta" unicode="&#x20a7;" horiz-adv-x="1162" 
d="M131 241l-40 -224q-4 -22 -27 -22q-13 0 -19.5 8t-4.5 19l108 610q5 25 29 25h157q87 0 139.5 -48t52.5 -126q0 -108 -72.5 -175t-187.5 -67h-135zM323 611h-127l-58 -324h133q89 0 145.5 53t56.5 137q0 62 -38 98t-112 36zM788 444h-88l-75 -428q-4 -21 -26 -21
q-12 0 -18.5 7.5t-4.5 18.5l75 423h-84q-20 0 -20 20q0 22 24 22h87l20 117q4 21 26 21q12 0 18.5 -7.5t4.5 -18.5l-19 -112h84q20 0 20 -20q0 -22 -24 -22zM900 294l78 -26q107 -35 107 -119q0 -69 -50.5 -114t-134.5 -45q-66 0 -116 30.5t-50 92.5q0 12 1 18q4 23 24 23
q12 0 17.5 -7.5t4.5 -16.5q-5 -51 29.5 -73.5t96.5 -22.5q59 0 93 30t34 78q0 29 -14 47t-45 28l-84 28q-100 33 -100 111q0 60 48.5 101t125.5 41q62 0 108.5 -28.5t46.5 -87.5q0 -35 -24 -35q-23 0 -23 30q0 40 -33 59.5t-82 19.5q-44 0 -81.5 -24t-37.5 -69q0 -48 61 -69
z" />
    <glyph glyph-name="Euro" unicode="&#x20ac;" horiz-adv-x="576" 
d="M64 398q0 23 26 23h53l8 41q17 95 79 150t156 55q81 0 129 -51.5t34 -133.5q-3 -24 -26 -24q-12 0 -18 8t-4 21q10 64 -24.5 99.5t-98.5 35.5q-69 0 -116.5 -44t-59.5 -113l-8 -44h133q21 0 21 -20q0 -23 -26 -23h-136l-15 -88h133q21 0 21 -20q0 -23 -26 -23h-136
l-9 -55q-4 -24 -4 -35q0 -55 35.5 -88.5t99.5 -33.5q65 0 109.5 41.5t53.5 106.5q3 24 25 24q11 0 17.5 -8t5.5 -21q-12 -85 -71.5 -136.5t-148.5 -51.5q-77 0 -126.5 44.5t-49.5 118.5q0 22 4 42l9 52h-51q-21 0 -21 20q0 23 26 23h53l16 88h-51q-21 0 -21 20z" />
    <glyph glyph-name="uni2113" unicode="&#x2113;" horiz-adv-x="438" 
d="M335 0h-94q-64 0 -103.5 35.5t-39.5 100.5q0 12 4 40l11 62l-61 -39q-13 -8 -25 -1.5t-12 20.5q0 15 17 24l91 56l38 213q13 73 58.5 114.5t113.5 41.5q51 0 85 -33t34 -81q0 -43 -21 -79.5t-46 -57t-65 -46.5l-151 -96l-18 -102q-3 -19 -3 -34q0 -94 100 -94h92
q20 0 20 -21q0 -23 -25 -23zM212 515l-33 -182l123 75q28 17 46 31.5t36.5 43.5t18.5 62q0 34 -20.5 55.5t-58.5 21.5q-44 0 -74 -30.5t-38 -76.5z" />
    <glyph glyph-name="trademark" unicode="&#x2122;" horiz-adv-x="800" 
d="M111 638q0 19 18 19h228q18 0 18 -19t-18 -19h-91v-315q0 -9 -7 -14.5t-16 -5.5t-16 5.5t-7 14.5v315h-91q-18 0 -18 19zM576 443l114 200q9 17 30 17q10 0 17 -6.5t7 -15.5v-334q0 -9 -7 -14.5t-16 -5.5t-16 5.5t-7 14.5v265l-103 -181q-5 -11 -19 -11q-12 0 -18 11
l-103 181v-265q0 -9 -7 -14.5t-16 -5.5t-16 5.5t-7 14.5v334q0 9 7 15.5t17 6.5q21 0 30 -17z" />
    <glyph glyph-name="Omega" unicode="&#x2126;" horiz-adv-x="583" 
d="M24 0q-22 0 -22 22q0 24 26 24h95q-55 44 -55 121q0 20 4 39l44 256q17 95 78 150t153 55q85 0 136.5 -44.5t51.5 -120.5q0 -19 -3 -40l-45 -256q-22 -122 -107 -160h91q21 0 21 -22q0 -24 -26 -24h-122q-11 0 -17 7t-4 18l3 18q4 19 22 29q73 42 88 130q48 280 48 296
q0 55 -36.5 88.5t-104.5 33.5q-71 0 -116.5 -43t-57.5 -112l-46 -263q-16 -88 41 -130q16 -10 12 -29l-3 -18q-5 -25 -29 -25h-120z" />
    <glyph glyph-name="estimated" unicode="&#x212e;" horiz-adv-x="775" 
d="M398 622q-68 0 -127.5 -30t-100.5 -81v-147h456v146q-41 52 -100.5 82t-127.5 30zM659 110q-47 -55 -116.5 -88t-145.5 -33q-141 0 -240 98.5t-99 239.5t99.5 240.5t240.5 99.5q98 0 178 -50.5t121 -124t41 -148.5q0 -25 -25 -25h-543v-176q40 -51 99 -80t128 -29
q66 0 126 28.5t102 79.5q9 12 24.5 6t15.5 -22q0 -10 -6 -16z" />
    <glyph glyph-name="uni2153" unicode="&#x2153;" horiz-adv-x="618" 
d="M334 319l-245 -315q-6 -9 -19 -9q-12 0 -17 11.5t3 20.5l237 301l253 327q5 7 14 7q12 0 18.5 -11t-0.5 -22zM212 329h-130q-19 0 -19 19q0 20 22 20h44l44 249h-39q-20 0 -20 20t23 20h63q11 0 17 -6.5t4 -17.5l-47 -265h41q19 0 19 -19q0 -20 -22 -20zM363 78
q0 -44 55 -44q32 0 50 19.5t18 51.5q0 22 -13 34.5t-50 12.5q-6 0 -11.5 5t-5.5 12q0 19 21 19q48 0 64 16.5t16 46.5q0 42 -51 42q-25 0 -41.5 -13.5t-19.5 -32.5q-4 -18 -23 -18q-9 0 -15 7.5t-4 16.5q6 31 36 55.5t75 24.5q38 0 63.5 -21t25.5 -55q0 -36 -15 -56t-44 -33
q38 -19 38 -61q0 -52 -32 -82t-87 -30q-43 0 -68.5 21t-25.5 53q0 30 23 30q9 0 15 -6t6 -15z" />
    <glyph glyph-name="uni2154" unicode="&#x2154;" horiz-adv-x="650" 
d="M366 319l-245 -315q-6 -9 -19 -9q-12 0 -17 11.5t3 20.5l237 301l253 327q5 7 14 7q12 0 18.5 -11t-0.5 -22zM395 78q0 -44 55 -44q32 0 50 19.5t18 51.5q0 22 -13 34.5t-50 12.5q-6 0 -11.5 5t-5.5 12q0 19 21 19q48 0 64 16.5t16 46.5q0 42 -51 42q-25 0 -41.5 -13.5
t-19.5 -32.5q-4 -18 -23 -18q-9 0 -15 7.5t-4 16.5q6 31 36 55.5t75 24.5q38 0 63.5 -21t25.5 -55q0 -36 -15 -56t-44 -33q38 -19 38 -61q0 -52 -32 -82t-87 -30q-43 0 -68.5 21t-25.5 53q0 30 23 30q9 0 15 -6t6 -15zM151 573q-5 -18 -24 -18q-10 0 -15.5 7.5t-3.5 16.5
q8 36 38 59.5t75 23.5q39 0 64.5 -21t25.5 -55q0 -65 -74 -109l-69 -41q-41 -25 -50 -66h143q19 0 19 -19q0 -22 -23 -22h-170q-11 0 -17 7t-4 18q13 73 86 117l60 36q53 32 53 71q0 44 -52 44q-49 0 -62 -49z" />
    <glyph glyph-name="uni2155" unicode="&#x2155;" horiz-adv-x="628" 
d="M334 319l-245 -315q-6 -9 -19 -9q-12 0 -17 11.5t3 20.5l237 301l253 327q5 7 14 7q12 0 18.5 -11t-0.5 -22zM211 329h-130q-19 0 -19 19q0 20 22 20h44l44 249h-39q-20 0 -20 20t23 20h63q11 0 17 -6.5t4 -17.5l-47 -265h41q19 0 19 -19q0 -20 -22 -20zM330 73
q0 20 22 20q17 0 20 -21q5 -39 57 -39q32 0 50.5 22.5t18.5 59.5q0 50 -51 50q-23 0 -41 -10.5t-29 -10.5q-9 0 -15 6t-5 15l25 139q5 24 29 24h140q18 0 18 -18q0 -21 -22 -21h-127l-17 -104q26 18 58 18q36 0 60 -23t24 -59q0 -58 -32.5 -92t-88.5 -34q-46 0 -70 21.5
t-24 56.5z" />
    <glyph glyph-name="uni2156" unicode="&#x2156;" horiz-adv-x="661" 
d="M366 319l-245 -315q-6 -9 -19 -9q-12 0 -17 11.5t3 20.5l237 301l253 327q5 7 14 7q12 0 18.5 -11t-0.5 -22zM151 573q-5 -18 -24 -18q-10 0 -15.5 7.5t-3.5 16.5q8 36 38 59.5t75 23.5q39 0 64.5 -21t25.5 -55q0 -65 -74 -109l-69 -41q-41 -25 -50 -66h143q19 0 19 -19
q0 -22 -23 -22h-170q-11 0 -17 7t-4 18q13 73 86 117l60 36q53 32 53 71q0 44 -52 44q-49 0 -62 -49zM362 73q0 20 22 20q17 0 20 -21q5 -39 57 -39q32 0 50.5 22.5t18.5 59.5q0 50 -51 50q-23 0 -41 -10.5t-29 -10.5q-9 0 -15 6t-5 15l25 139q5 24 29 24h140q18 0 18 -18
q0 -21 -22 -21h-127l-17 -104q26 18 58 18q36 0 60 -23t24 -59q0 -58 -32.5 -92t-88.5 -34q-46 0 -70 21.5t-24 56.5z" />
    <glyph glyph-name="uni2157" unicode="&#x2157;" horiz-adv-x="631" 
d="M336 319l-245 -315q-6 -9 -19 -9q-12 0 -17 11.5t3 20.5l237 301l253 327q5 7 14 7q12 0 18.5 -11t-0.5 -22zM119 409q0 -44 55 -44q32 0 50 19.5t18 51.5q0 22 -13 34.5t-50 12.5q-6 0 -11.5 5t-5.5 12q0 19 21 19q48 0 64 16.5t16 46.5q0 42 -51 42q-25 0 -41.5 -13.5
t-19.5 -32.5q-4 -18 -23 -18q-9 0 -15 7.5t-4 16.5q6 31 36 55.5t75 24.5q38 0 63.5 -21t25.5 -55q0 -36 -15 -56t-44 -33q38 -19 38 -61q0 -52 -32 -82t-87 -30q-43 0 -68.5 21t-25.5 53q0 30 23 30q9 0 15 -6t6 -15zM332 73q0 20 22 20q17 0 20 -21q5 -39 57 -39
q32 0 50.5 22.5t18.5 59.5q0 50 -51 50q-23 0 -41 -10.5t-29 -10.5q-9 0 -15 6t-5 15l25 139q5 24 29 24h140q18 0 18 -18q0 -21 -22 -21h-127l-17 -104q26 18 58 18q36 0 60 -23t24 -59q0 -58 -32.5 -92t-88.5 -34q-46 0 -70 21.5t-24 56.5z" />
    <glyph glyph-name="uni2158" unicode="&#x2158;" horiz-adv-x="647" 
d="M353 319l-245 -315q-6 -9 -19 -9q-12 0 -17 11.5t3 20.5l237 301l253 327q5 7 14 7q12 0 18.5 -11t-0.5 -22zM349 73q0 20 22 20q17 0 20 -21q5 -39 57 -39q32 0 50.5 22.5t18.5 59.5q0 50 -51 50q-22 0 -41 -10.5t-29 -10.5q-9 0 -15 6t-5 15l25 139q5 24 29 24h140
q18 0 18 -18q0 -21 -22 -21h-127l-17 -104q26 18 58 18q36 0 60 -23t24 -59q0 -58 -32.5 -92t-88.5 -34q-46 0 -70 21.5t-24 56.5zM258 404l-11 -61q-4 -19 -23 -19q-11 0 -17 7t-4 17l9 56h-118q-28 0 -28 30q0 4 1 7.5t3.5 7t4 6t6 7.5t6.5 7l143 168q21 25 43 25
q13 0 20.5 -8t5.5 -20l-34 -191h19q18 0 18 -19q0 -20 -22 -20h-22zM111 443h109l29 161z" />
    <glyph glyph-name="uni2159" unicode="&#x2159;" horiz-adv-x="622" 
d="M334 319l-245 -315q-6 -9 -19 -9q-12 0 -17 11.5t3 20.5l237 301l253 327q5 7 14 7q12 0 18.5 -11t-0.5 -22zM212 329h-130q-19 0 -19 19q0 20 22 20h44l44 249h-39q-20 0 -20 20t23 20h63q11 0 17 -6.5t4 -17.5l-47 -265h41q19 0 19 -19q0 -20 -22 -20zM558 253
q0 -21 -23 -21q-7 0 -11.5 3.5t-6 8.5t-3.5 14q-6 36 -52 36q-27 0 -44 -16t-22 -43l-11 -62q30 23 68 23q36 0 60 -23t24 -58q0 -56 -32 -88t-86 -32q-41 0 -67 22.5t-26 61.5q0 8 2 24l23 128q18 102 118 102q40 0 64.5 -20t24.5 -60zM439 158q-36 0 -61 -27l-5 -29
q-2 -12 -2 -18q0 -24 14 -37.5t41 -13.5q29 0 46 20.5t17 54.5q0 50 -50 50z" />
    <glyph glyph-name="uni215A" unicode="&#x215a;" horiz-adv-x="624" 
d="M336 319l-245 -315q-6 -9 -19 -9q-12 0 -17 11.5t3 20.5l237 301l253 327q5 7 14 7q12 0 18.5 -11t-0.5 -22zM74 402q0 20 22 20q17 0 20 -21q5 -39 57 -39q32 0 50.5 22.5t18.5 59.5q0 50 -51 50q-23 0 -41 -10.5t-29 -10.5q-9 0 -15 6t-5 15l25 139q5 24 29 24h140
q18 0 18 -18q0 -21 -22 -21h-127l-17 -104q26 18 58 18q36 0 60 -23t24 -59q0 -58 -32.5 -92t-88.5 -34q-46 0 -70 21.5t-24 56.5zM560 253q0 -21 -23 -21q-7 0 -11.5 3.5t-6 8.5t-3.5 14q-6 36 -52 36q-27 0 -44 -16t-22 -43l-11 -62q30 23 68 23q36 0 60 -23t24 -58
q0 -56 -32 -88t-86 -32q-41 0 -67 22.5t-26 61.5q0 8 2 24l23 128q18 102 118 102q40 0 64.5 -20t24.5 -60zM441 158q-36 0 -61 -27l-5 -29q-2 -12 -2 -18q0 -24 14 -37.5t41 -13.5q29 0 46 20.5t17 54.5q0 50 -50 50z" />
    <glyph glyph-name="uni215B" unicode="&#x215b;" horiz-adv-x="617" 
d="M334 319l-245 -315q-6 -9 -19 -9q-12 0 -17 11.5t3 20.5l237 301l253 327q5 7 14 7q12 0 18.5 -11t-0.5 -22zM212 329h-130q-19 0 -19 19q0 20 22 20h44l44 249h-39q-20 0 -20 20t23 20h63q11 0 17 -6.5t4 -17.5l-47 -265h41q19 0 19 -19q0 -20 -22 -20zM552 258
q0 -31 -16.5 -55t-42.5 -35q38 -18 38 -62q0 -50 -32 -80.5t-86 -30.5q-40 0 -68 22t-28 57q0 70 64 98q-32 17 -32 56q0 47 30.5 76t83.5 29q38 0 63.5 -21t25.5 -54zM364 80q0 -22 14.5 -35t40.5 -13q30 0 48 20.5t18 52.5q0 21 -12.5 34t-37.5 13q-35 0 -53 -20.5
t-18 -51.5zM394 229q0 -43 47 -43q32 0 48.5 19t16.5 47q0 19 -13 31t-36 12q-30 0 -46.5 -18.5t-16.5 -47.5z" />
    <glyph glyph-name="uni215C" unicode="&#x215c;" horiz-adv-x="619" 
d="M336 319l-245 -315q-6 -9 -19 -9q-12 0 -17 11.5t3 20.5l237 301l253 327q5 7 14 7q12 0 18.5 -11t-0.5 -22zM119 409q0 -44 55 -44q32 0 50 19.5t18 51.5q0 22 -13 34.5t-50 12.5q-6 0 -11.5 5t-5.5 12q0 19 21 19q48 0 64 16.5t16 46.5q0 42 -51 42q-25 0 -41.5 -13.5
t-19.5 -32.5q-4 -18 -23 -18q-9 0 -15 7.5t-4 16.5q6 31 36 55.5t75 24.5q38 0 63.5 -21t25.5 -55q0 -36 -15 -56t-44 -33q38 -19 38 -61q0 -52 -32 -82t-87 -30q-43 0 -68.5 21t-25.5 53q0 30 23 30q9 0 15 -6t6 -15zM554 258q0 -31 -16.5 -55t-42.5 -35q38 -18 38 -62
q0 -50 -32 -80.5t-86 -30.5q-40 0 -68 22t-28 57q0 70 64 98q-32 17 -32 56q0 47 30.5 76t83.5 29q38 0 63.5 -21t25.5 -54zM366 80q0 -22 14.5 -35t40.5 -13q30 0 48 20.5t18 52.5q0 21 -12.5 34t-37.5 13q-35 0 -53 -20.5t-18 -51.5zM396 229q0 -43 47 -43q32 0 48.5 19
t16.5 47q0 19 -13 31t-36 12q-30 0 -46.5 -18.5t-16.5 -47.5z" />
    <glyph glyph-name="uni215D" unicode="&#x215d;" horiz-adv-x="619" 
d="M336 319l-245 -315q-6 -9 -19 -9q-12 0 -17 11.5t3 20.5l237 301l253 327q5 7 14 7q12 0 18.5 -11t-0.5 -22zM74 402q0 20 22 20q17 0 20 -21q5 -39 57 -39q32 0 50.5 22.5t18.5 59.5q0 50 -51 50q-23 0 -41 -10.5t-29 -10.5q-9 0 -15 6t-5 15l25 139q5 24 29 24h140
q18 0 18 -18q0 -21 -22 -21h-127l-17 -104q26 18 58 18q36 0 60 -23t24 -59q0 -58 -32.5 -92t-88.5 -34q-46 0 -70 21.5t-24 56.5zM554 258q0 -31 -16.5 -55t-42.5 -35q38 -18 38 -62q0 -50 -32 -80.5t-86 -30.5q-40 0 -68 22t-28 57q0 70 64 98q-32 17 -32 56q0 47 30.5 76
t83.5 29q38 0 63.5 -21t25.5 -54zM366 80q0 -22 14.5 -35t40.5 -13q30 0 48 20.5t18 52.5q0 21 -12.5 34t-37.5 13q-35 0 -53 -20.5t-18 -51.5zM396 229q0 -43 47 -43q32 0 48.5 19t16.5 47q0 19 -13 31t-36 12q-30 0 -46.5 -18.5t-16.5 -47.5z" />
    <glyph glyph-name="uni215E" unicode="&#x215e;" horiz-adv-x="597" 
d="M303 319l-245 -315q-6 -9 -19 -9q-12 0 -17 11.5t3 20.5l237 301l253 327q5 7 14 7q12 0 18.5 -11t-0.5 -22zM534 258q0 -31 -16.5 -55t-42.5 -35q38 -18 38 -62q0 -50 -32 -80.5t-86 -30.5q-40 0 -68 22t-28 57q0 70 64 98q-32 17 -32 56q0 47 30.5 76t83.5 29
q38 0 63.5 -21t25.5 -54zM346 80q0 -22 14.5 -35t40.5 -13q30 0 48 20.5t18 52.5q0 21 -12.5 34t-37.5 13q-35 0 -53 -20.5t-18 -51.5zM376 229q0 -43 47 -43q32 0 48.5 19t16.5 47q0 19 -13 31t-36 12q-30 0 -46.5 -18.5t-16.5 -47.5zM142 334q-7 -10 -18 -10
q-13 0 -18.5 10.5t1.5 22.5l148 261h-128q-18 0 -18 18q0 21 22 21h148q14 0 21.5 -7.5t4.5 -21.5q-1 -7 -18 -36z" />
    <glyph glyph-name="uni215F" unicode="&#x215f;" horiz-adv-x="336" 
d="M334 319l-245 -315q-6 -9 -19 -9q-12 0 -17 11.5t3 20.5l237 301l253 327q5 7 14 7q12 0 18.5 -11t-0.5 -22zM212 329h-130q-19 0 -19 19q0 20 22 20h44l44 249h-39q-20 0 -20 20t23 20h63q11 0 17 -6.5t4 -17.5l-47 -265h41q19 0 19 -19q0 -20 -22 -20z" />
    <glyph glyph-name="partialdiff" unicode="&#x2202;" horiz-adv-x="483" 
d="M177 630q-10 -3 -17.5 3t-7.5 16q0 15 21 23q45 15 81 15q185 0 185 -218q0 -58 -14 -134l-28 -159q-15 -87 -67 -136.5t-132 -49.5q-74 0 -119 39.5t-45 107.5q0 20 4 39l17 96q15 87 67 136.5t131 49.5q44 0 81 -19.5t53 -53.5q4 36 4 77q0 181 -137 181
q-18 0 -37.5 -3.5t-29.5 -6.5zM105 276l-19 -104q-3 -16 -3 -30q0 -49 31 -78.5t89 -29.5q56 0 94 38.5t49 99.5l19 104q3 15 3 30q0 49 -30.5 78.5t-88.5 29.5q-57 0 -95 -38.5t-49 -99.5z" />
    <glyph glyph-name="Delta" unicode="&#x2206;" horiz-adv-x="537" 
d="M35 0q-23 0 -16 24l182 614q7 24 32 24q24 0 31 -25l183 -613q3 -11 -2 -17.5t-16 -6.5h-394zM232 567l-154 -520h307z" />
    <glyph glyph-name="product" unicode="&#x220f;" horiz-adv-x="579" 
d="M196 610l-105 -593q-4 -22 -27 -22q-13 0 -19 8t-4 19l108 610q5 25 29 25h355q11 0 17 -7t4 -18l-109 -616q-4 -21 -27 -21q-12 0 -18.5 8t-4.5 19l103 588h-302z" />
    <glyph glyph-name="summation" unicode="&#x2211;" horiz-adv-x="546" 
d="M512 611h-323l175 -256q6 -9 6 -16q0 -11 -10 -21l-287 -268h365q9 0 16 -6.5t7 -16.5q0 -27 -29 -27h-413q-20 0 -20 23q0 17 23 38l289 274l-184 261q-11 15 -11 32q0 10 8 19.5t18 9.5h375q22 0 22 -22q0 -24 -27 -24z" />
    <glyph glyph-name="minus" unicode="&#x2212;" horiz-adv-x="529" 
d="M82 328q0 23 20 23h339q9 0 14.5 -7t5.5 -16t-5.5 -15.5t-14.5 -6.5h-339q-9 0 -14.5 6.5t-5.5 15.5z" />
    <glyph glyph-name="uni2215" unicode="&#x2215;" 
d="M271 319l-245 -315q-6 -9 -19 -9q-12 0 -17 11.5t3 20.5l237 301l253 327q5 7 14 7q12 0 18.5 -11t-0.5 -22z" />
    <glyph glyph-name="uni2219" unicode="&#x2219;" horiz-adv-x="293" 
d="M62 274q0 34 24 58.5t57 24.5q35 0 59 -24.5t24 -58.5q0 -33 -24.5 -57t-58.5 -24q-33 0 -57 24t-24 57z" />
    <glyph glyph-name="radical" unicode="&#x221a;" horiz-adv-x="544" 
d="M557 657l-216 -730q-7 -24 -33 -24q-23 0 -30 24l-142 471h-65q-20 0 -20 21q0 22 20 22h84q25 0 32 -24l123 -419l200 676q5 18 22 18q15 0 22 -10t3 -25z" />
    <glyph glyph-name="infinity" unicode="&#x221e;" horiz-adv-x="749" 
d="M551 401h1q58 0 96.5 -39t38.5 -99q0 -56 -40.5 -97t-98.5 -41q-43 0 -81.5 24t-95.5 79q-102 -102 -179 -102h-1q-58 0 -96.5 39t-38.5 99q0 56 40.5 97t98.5 41q43 0 80.5 -24t95.5 -79q102 102 180 102zM552 351h-1q-60 0 -144 -86q29 -30 47 -46t44 -30t50 -14
q38 0 63.5 26t25.5 62q0 38 -24 63t-61 25zM191 176h1q60 0 144 86q-29 30 -47 46t-44 30t-50 14q-38 0 -63.5 -26t-25.5 -62q0 -38 24 -63t61 -25z" />
    <glyph glyph-name="integral" unicode="&#x222b;" horiz-adv-x="289" 
d="M123 26v554q0 78 40 120t115 42h22q22 0 22 -22t-22 -22h-23q-104 0 -104 -114v-554q0 -78 -40 -120t-115 -42h-22q-22 0 -22 22t22 22h23q104 0 104 114z" />
    <glyph glyph-name="approxequal" unicode="&#x2248;" horiz-adv-x="521" 
d="M451 410q-37 -76 -95 -76q-35 0 -84 35q-44 32 -72 32q-48 0 -87 -72q-6 -11 -20 -11q-9 0 -15 6t-6 15q0 6 3 12q48 94 125 94q40 0 97 -39q43 -28 59 -28q29 0 58 51q6 11 18 11q9 0 15 -6t6 -15q0 -3 -2 -9zM451 235q-37 -76 -95 -76q-35 0 -84 35q-44 32 -72 32
q-48 0 -87 -72q-6 -11 -20 -11q-9 0 -15 6t-6 15q0 6 3 12q48 94 125 94q40 0 97 -39q43 -28 59 -28q29 0 58 51q6 11 18 11q9 0 15 -6t6 -15q0 -3 -2 -9z" />
    <glyph glyph-name="notequal" unicode="&#x2260;" horiz-adv-x="518" 
d="M396 539l-53 -102h90q21 0 21 -23q0 -22 -21 -22h-113l-65 -125h178q21 0 21 -23q0 -22 -21 -22h-201l-61 -119q-5 -11 -19 -11q-11 0 -17 10t-1 20l51 100h-89q-21 0 -21 22q0 23 21 23h112l65 125h-177q-21 0 -21 22q0 23 21 23h200l63 121q5 11 19 11q11 0 17.5 -9.5
t0.5 -20.5z" />
    <glyph glyph-name="lessequal" unicode="&#x2264;" horiz-adv-x="535" 
d="M437 465l-294 -97l293 -98q15 -5 15 -20q0 -13 -10 -20t-22 -2l-323 113q-19 7 -19 27q0 19 19 26l323 113q11 4 21.5 -2.5t10.5 -19.5q0 -15 -14 -20zM72 137q0 21 20 21h339q20 0 20 -21q0 -9 -5.5 -15.5t-14.5 -6.5h-339q-9 0 -14.5 6.5t-5.5 15.5z" />
    <glyph glyph-name="greaterequal" unicode="&#x2265;" horiz-adv-x="546" 
d="M387 368l-294 97q-14 5 -14 20q0 13 10.5 19.5t21.5 2.5l323 -113q19 -7 19 -26q0 -20 -19 -27l-323 -113q-12 -5 -22 2t-10 20q0 15 15 20zM458 137q0 -9 -5.5 -15.5t-14.5 -6.5h-339q-9 0 -14.5 6.5t-5.5 15.5q0 21 20 21h339q20 0 20 -21z" />
    <glyph glyph-name="lozenge" unicode="&#x25ca;" horiz-adv-x="477" 
d="M281 650l159 -300q7 -16 7 -22q0 -8 -7 -22l-159 -299q-12 -22 -35 -22q-22 0 -34 22l-159 299q-7 10 -7 22q0 10 7 22l159 300q12 22 35 22q22 0 34 -22zM246 607l-147 -279l147 -279l146 279z" />
    <glyph glyph-name="cent.denominator" unicode="&#xf629;" horiz-adv-x="265" 
d="M197 110q-7 -30 -30 -50t-57 -23l-6 -34q-2 -13 -17 -13q-20 0 -17 17l6 32q-28 5 -45.5 25t-17.5 50q0 5 2 19l12 63q16 88 93 94l7 35q2 13 17 13q9 0 14 -5t3 -12l-6 -32q61 -14 61 -72q0 -21 -22 -21q-7 0 -11.5 3.5t-6 8.5t-3.5 14q-5 31 -47 31q-21 0 -35.5 -15
t-18.5 -39l-12 -69q-1 -5 -1 -13q0 -42 45 -42q41 0 52 39q6 21 22 21q10 0 15.5 -7.5t3.5 -17.5z" />
    <glyph glyph-name="dollar.denominator" unicode="&#xf62a;" horiz-adv-x="274" 
d="M41 75q0 -42 55 -42q30 0 48.5 18.5t18.5 44.5q0 28 -37 45l-43 20q-52 25 -52 75q0 40 26 66t70 30l7 42q2 13 17 13q9 0 14 -5t3 -12l-7 -39q31 -5 50 -26.5t16 -54.5q-2 -21 -22 -21t-20 25q0 17 -13.5 29t-36.5 12q-26 0 -43 -15t-17 -37q0 -25 26 -38l45 -22
q63 -30 63 -80q0 -47 -28.5 -75.5t-78.5 -31.5l-7 -41q-2 -14 -18 -14q-9 0 -14 5t-3 13l7 38q-32 4 -51.5 24.5t-19.5 45.5q0 33 24 33q21 0 21 -25z" />
    <glyph glyph-name="hyphen.denominator" unicode="&#xf62b;" horiz-adv-x="214" 
d="M16 129q0 20 22 20h88q18 0 18 -18q0 -20 -22 -20h-88q-18 0 -18 18z" />
    <glyph glyph-name="parenleft.denominator" unicode="&#xf62c;" horiz-adv-x="177" 
d="M75 -55q-31 0 -50.5 19t-19.5 52q0 7 2 21l44 252q17 89 99 93q7 1 11.5 -4.5t4.5 -13.5q0 -20 -22 -22q-37 -4 -46 -50l-46 -258q-1 -5 -1 -14q0 -30 28 -35q18 -4 18 -19q0 -21 -22 -21z" />
    <glyph glyph-name="parenright.denominator" unicode="&#xf62d;" horiz-adv-x="176" 
d="M59 381q31 0 50.5 -19t19.5 -52q0 -7 -2 -21l-44 -252q-17 -89 -99 -93q-7 -1 -11.5 4.5t-4.5 13.5q0 20 22 22q37 4 46 50l46 258q1 5 1 14q0 30 -28 35q-18 4 -18 19q0 21 22 21z" />
    <glyph glyph-name="cent.numerator" unicode="&#xf62e;" horiz-adv-x="263" 
d="M254 440q-7 -30 -30 -50t-57 -23l-6 -34q-2 -13 -17 -13q-20 0 -17 17l6 32q-28 5 -45.5 25t-17.5 50q0 5 2 19l12 63q16 88 93 94l7 35q2 13 17 13q9 0 14 -5t3 -12l-6 -32q61 -14 61 -72q0 -21 -22 -21q-7 0 -11.5 3.5t-6 8.5t-3.5 14q-5 31 -47 31q-21 0 -35.5 -15
t-18.5 -39l-12 -69q-1 -5 -1 -13q0 -42 45 -42q41 0 52 39q6 21 22 21q10 0 15.5 -7.5t3.5 -17.5z" />
    <glyph glyph-name="dollar.numerator" unicode="&#xf62f;" horiz-adv-x="274" 
d="M99 405q0 -42 55 -42q30 0 48.5 18.5t18.5 44.5q0 28 -37 45l-43 20q-52 25 -52 75q0 40 26 66t70 30l7 42q2 13 17 13q9 0 14 -5t3 -12l-7 -39q31 -5 50 -26.5t16 -54.5q-2 -21 -22 -21t-20 25q0 17 -13.5 29t-36.5 12q-26 0 -43 -15t-17 -37q0 -25 26 -38l45 -22
q63 -30 63 -80q0 -47 -28.5 -75.5t-78.5 -31.5l-7 -41q-2 -14 -18 -14q-9 0 -14 5t-3 13l7 38q-32 4 -51.5 24.5t-19.5 45.5q0 33 24 33q21 0 21 -25z" />
    <glyph glyph-name="hyphen.numerator" unicode="&#xf630;" horiz-adv-x="219" 
d="M77 459q0 20 22 20h88q18 0 18 -18q0 -20 -22 -20h-88q-18 0 -18 18z" />
    <glyph glyph-name="parenleft.numerator" unicode="&#xf631;" horiz-adv-x="177" 
d="M133 275q-31 0 -50.5 19t-19.5 52q0 7 2 21l44 252q17 89 99 93q7 1 11.5 -4.5t4.5 -13.5q0 -20 -22 -22q-37 -4 -46 -50l-46 -258q-1 -5 -1 -14q0 -30 28 -35q18 -4 18 -19q0 -21 -22 -21z" />
    <glyph glyph-name="parenright.numerator" unicode="&#xf632;" horiz-adv-x="176" 
d="M117 711q31 0 50.5 -19t19.5 -52q0 -7 -2 -21l-44 -252q-17 -89 -99 -93q-7 -1 -11.5 4.5t-4.5 13.5q0 20 22 22q37 4 46 50l46 258q1 5 1 14q0 30 -28 35q-18 4 -18 19q0 21 22 21z" />
    <glyph glyph-name="zero.denominator" unicode="&#xf655;" horiz-adv-x="305" 
d="M84 231l-24 -134q-2 -10 -2 -15q0 -22 14.5 -34.5t41.5 -12.5q25 0 42 17t22 45l24 134q1 5 1 15q0 22 -13.5 34.5t-39.5 12.5q-54 0 -66 -62zM247 230l-24 -132q-9 -49 -38.5 -76t-77.5 -27q-41 0 -67.5 22.5t-26.5 59.5q0 7 2 21l24 132q19 103 117 103
q40 0 66.5 -22.5t26.5 -60.5q0 -6 -2 -20z" />
    <glyph glyph-name="one.denominator" unicode="&#xf656;" horiz-adv-x="219" 
d="M133 0h-130q-19 0 -19 19q0 20 22 20h44l44 249h-39q-20 0 -20 20t23 20h63q11 0 17 -6.5t4 -17.5l-47 -265h41q19 0 19 -19q0 -20 -22 -20z" />
    <glyph glyph-name="two.denominator" unicode="&#xf657;" horiz-adv-x="286" 
d="M79 244q-5 -18 -24 -18q-10 0 -15.5 7.5t-3.5 16.5q8 36 38 59.5t75 23.5q39 0 64.5 -21t25.5 -55q0 -65 -74 -109l-69 -41q-41 -25 -50 -66h143q19 0 19 -19q0 -22 -23 -22h-170q-11 0 -17 7t-4 18q13 73 86 117l60 36q53 32 53 71q0 44 -52 44q-49 0 -62 -49z" />
    <glyph glyph-name="three.denominator" unicode="&#xf658;" horiz-adv-x="289" 
d="M45 78q0 -44 55 -44q32 0 50 19.5t18 51.5q0 22 -13 34.5t-50 12.5q-6 0 -11.5 5t-5.5 12q0 19 21 19q48 0 64 16.5t16 46.5q0 42 -51 42q-25 0 -41.5 -13.5t-19.5 -32.5q-4 -18 -23 -18q-9 0 -15 7.5t-4 16.5q6 31 36 55.5t75 24.5q38 0 63.5 -21t25.5 -55
q0 -36 -15 -56t-44 -33q38 -19 38 -61q0 -52 -32 -82t-87 -30q-43 0 -68.5 21t-25.5 53q0 30 23 30q9 0 15 -6t6 -15z" />
    <glyph glyph-name="four.denominator" unicode="&#xf659;" horiz-adv-x="291" 
d="M186 75l-11 -61q-4 -19 -23 -19q-11 0 -17 7t-4 17l9 56h-118q-28 0 -28 30q0 11 21 35l143 168q21 25 43 25q13 0 20.5 -8t5.5 -20l-34 -191h19q18 0 18 -19q0 -20 -22 -20h-22zM39 114h109l29 161z" />
    <glyph glyph-name="five.denominator" unicode="&#xf65a;" horiz-adv-x="286" 
d="M3 73q0 20 22 20q17 0 20 -21q5 -39 57 -39q32 0 50.5 22.5t18.5 59.5q0 50 -51 50q-22 0 -40.5 -10.5t-29.5 -10.5q-9 0 -15 6t-5 15l25 139q5 24 29 24h140q18 0 18 -18q0 -21 -22 -21h-127l-17 -104q26 18 58 18q36 0 60 -23t24 -59q0 -58 -32.5 -92t-88.5 -34
q-46 0 -70 21.5t-24 56.5z" />
    <glyph glyph-name="six.denominator" unicode="&#xf65b;" horiz-adv-x="296" 
d="M245 253q0 -21 -23 -21q-7 0 -11.5 3.5t-6 8.5t-3.5 14q-6 36 -52 36q-27 0 -44 -16t-22 -43l-11 -62q30 23 68 23q36 0 60 -23t24 -58q0 -56 -32 -88t-86 -32q-41 0 -67 22.5t-26 61.5q0 8 2 24l23 128q18 102 118 102q40 0 64.5 -20t24.5 -60zM126 158q-36 0 -61 -27
l-5 -29q-2 -12 -2 -18q0 -24 14 -37.5t41 -13.5q29 0 46 20.5t17 54.5q0 50 -50 50z" />
    <glyph glyph-name="seven.denominator" unicode="&#xf65c;" horiz-adv-x="241" 
d="M55 5q-7 -10 -18 -10q-13 0 -18.5 10.5t1.5 22.5l148 261h-128q-18 0 -18 18q0 21 22 21h148q14 0 21.5 -7.5t4.5 -21.5q-1 -7 -18 -36z" />
    <glyph glyph-name="eight.denominator" unicode="&#xf65d;" horiz-adv-x="296" 
d="M242 258q0 -31 -16.5 -55t-42.5 -35q38 -18 38 -62q0 -50 -32 -80.5t-86 -30.5q-40 0 -68 22t-28 57q0 70 64 98q-32 17 -32 56q0 47 30.5 76t83.5 29q38 0 63.5 -21t25.5 -54zM54 80q0 -22 14.5 -35t40.5 -13q30 0 48 20.5t18 52.5q0 21 -12.5 34t-37.5 13
q-35 0 -53 -20.5t-18 -51.5zM84 229q0 -43 47 -43q32 0 48.5 19t16.5 47q0 19 -13 31t-36 12q-30 0 -46.5 -18.5t-16.5 -47.5z" />
    <glyph glyph-name="nine.denominator" unicode="&#xf65e;" horiz-adv-x="296" 
d="M128 170q34 0 60 28l4 24q2 14 2 19q0 54 -54 54q-30 0 -47 -20.5t-17 -54.5q0 -50 52 -50zM50 75q7 -41 53 -41q54 0 66 59l12 63q-29 -24 -67 -24q-36 0 -60.5 23t-24.5 58q0 57 30.5 88.5t85.5 31.5q41 0 67.5 -23.5t26.5 -64.5q0 -8 -2 -24l-22 -124
q-18 -102 -117 -102q-43 0 -67 21.5t-24 51.5q0 28 24 28q15 0 19 -21z" />
    <glyph glyph-name="comma.denominator" unicode="&#xf65f;" horiz-adv-x="134" 
d="M45 17l-40 -63q-5 -8 -13 -8t-12.5 6.5t-0.5 15.5l27 68q6 14 20 14t20 -11t-1 -22z" />
    <glyph glyph-name="period.denominator" unicode="&#xf660;" horiz-adv-x="127" 
d="M-10 17q0 14 9.5 23.5t24.5 9.5q10 0 16.5 -6.5t6.5 -16.5q0 -14 -9.5 -23.5t-23.5 -9.5q-10 0 -17 6.5t-7 16.5z" />
    <glyph glyph-name="zero.numerator" unicode="&#xf661;" horiz-adv-x="306" 
d="M143 561l-24 -134q-2 -10 -2 -15q0 -22 14.5 -34.5t41.5 -12.5q25 0 42 17t22 45l24 134q1 5 1 15q0 22 -13.5 34.5t-39.5 12.5q-54 0 -66 -62zM306 560l-24 -132q-9 -49 -38.5 -76t-77.5 -27q-41 0 -67.5 22.5t-26.5 59.5q0 7 2 21l24 132q19 103 117 103
q40 0 66.5 -22.5t26.5 -60.5q0 -6 -2 -20z" />
    <glyph glyph-name="one.numerator" unicode="&#xf662;" horiz-adv-x="219" 
d="M191 329h-130q-19 0 -19 19q0 20 22 20h44l44 249h-39q-20 0 -20 20t23 20h63q11 0 17 -6.5t4 -17.5l-47 -265h41q19 0 19 -19q0 -20 -22 -20z" />
    <glyph glyph-name="two.numerator" unicode="&#xf663;" horiz-adv-x="285" 
d="M137 574q-5 -18 -24 -18q-10 0 -15.5 7.5t-3.5 16.5q8 36 38 59.5t75 23.5q39 0 64.5 -21t25.5 -55q0 -65 -74 -109l-69 -41q-41 -25 -50 -66h143q19 0 19 -19q0 -22 -23 -22h-170q-11 0 -17 7t-4 18q13 73 86 117l60 36q53 32 53 71q0 44 -52 44q-49 0 -62 -49z" />
    <glyph glyph-name="three.numerator" unicode="&#xf664;" horiz-adv-x="288" 
d="M103 408q0 -44 55 -44q32 0 50 19.5t18 51.5q0 22 -13 34.5t-50 12.5q-6 0 -11.5 5t-5.5 12q0 19 21 19q48 0 64 16.5t16 46.5q0 42 -51 42q-25 0 -41.5 -13.5t-19.5 -32.5q-4 -18 -23 -18q-9 0 -15 7.5t-4 16.5q6 31 36 55.5t75 24.5q38 0 63.5 -21t25.5 -55
q0 -36 -15 -56t-44 -33q38 -19 38 -61q0 -52 -32 -82t-87 -30q-43 0 -68.5 21t-25.5 53q0 30 23 30q9 0 15 -6t6 -15z" />
    <glyph glyph-name="four.numerator" unicode="&#xf665;" horiz-adv-x="291" 
d="M244 404l-11 -61q-4 -19 -23 -19q-11 0 -17 7t-4 17l9 56h-118q-28 0 -28 30q0 9 6 17.5t15 17.5l143 168q21 25 43 25q13 0 20.5 -8t5.5 -20l-34 -191h19q18 0 18 -19q0 -20 -22 -20h-22zM97 443h109l29 161z" />
    <glyph glyph-name="five.numerator" unicode="&#xf666;" horiz-adv-x="284" 
d="M60 402q0 20 22 20q17 0 20 -21q5 -39 57 -39q32 0 50.5 22.5t18.5 59.5q0 50 -51 50q-23 0 -41 -10.5t-29 -10.5q-9 0 -15 6t-5 15l25 139q5 24 29 24h140q18 0 18 -18q0 -21 -22 -21h-127l-17 -104q26 18 58 18q36 0 60 -23t24 -59q0 -58 -32.5 -92t-88.5 -34
q-46 0 -70 21.5t-24 56.5z" />
    <glyph glyph-name="six.numerator" unicode="&#xf667;" horiz-adv-x="297" 
d="M304 583q0 -21 -23 -21q-7 0 -11.5 3.5t-6 8.5t-3.5 14q-6 36 -52 36q-27 0 -44 -16t-22 -43l-11 -62q30 23 68 23q36 0 60 -23t24 -58q0 -56 -32 -88t-86 -32q-41 0 -67 22.5t-26 61.5q0 8 2 24l23 128q18 102 118 102q40 0 64.5 -20t24.5 -60zM185 488q-36 0 -61 -27
l-5 -29q-2 -12 -2 -18q0 -24 14 -37.5t41 -13.5q29 0 46 20.5t17 54.5q0 50 -50 50z" />
    <glyph glyph-name="seven.numerator" unicode="&#xf668;" horiz-adv-x="240" 
d="M114 334q-7 -10 -18 -10q-13 0 -18.5 10.5t1.5 22.5l148 261h-128q-18 0 -18 18q0 21 22 21h148q14 0 21.5 -7.5t4.5 -21.5q-1 -7 -18 -36z" />
    <glyph glyph-name="eight.numerator" unicode="&#xf669;" horiz-adv-x="295" 
d="M300 588q0 -31 -16.5 -55t-42.5 -35q38 -18 38 -62q0 -50 -32 -80.5t-86 -30.5q-40 0 -68 22t-28 57q0 70 64 98q-32 17 -32 56q0 47 30.5 76t83.5 29q38 0 63.5 -21t25.5 -54zM112 410q0 -22 14.5 -35t40.5 -13q30 0 48 20.5t18 52.5q0 21 -12.5 34t-37.5 13
q-35 0 -53 -20.5t-18 -51.5zM142 559q0 -43 47 -43q32 0 48.5 19t16.5 47q0 19 -13 31t-36 12q-30 0 -46.5 -18.5t-16.5 -47.5z" />
    <glyph glyph-name="nine.numerator" unicode="&#xf66a;" horiz-adv-x="295" 
d="M186 500q34 0 60 28l4 24q2 14 2 19q0 54 -54 54q-30 0 -47 -20.5t-17 -54.5q0 -50 52 -50zM108 405q7 -41 53 -41q54 0 66 59l12 63q-29 -24 -67 -24q-36 0 -60.5 23t-24.5 58q0 57 30.5 88.5t85.5 31.5q41 0 67.5 -23.5t26.5 -64.5q0 -8 -2 -24l-22 -124
q-18 -102 -117 -102q-43 0 -67 21.5t-24 51.5q0 28 24 28q15 0 19 -21z" />
    <glyph glyph-name="comma.numerator" unicode="&#xf66b;" horiz-adv-x="132" 
d="M102 347l-40 -63q-5 -8 -13 -8t-12.5 6.5t-0.5 15.5l27 68q6 14 20 14t20 -11t-1 -22z" />
    <glyph glyph-name="period.numerator" unicode="&#xf66c;" horiz-adv-x="129" 
d="M50 347q0 14 9.5 23.5t24.5 9.5q10 0 16.5 -6.5t6.5 -16.5q0 -14 -9.5 -23.5t-23.5 -9.5q-10 0 -17 6.5t-7 16.5z" />
    <glyph glyph-name="commaaccent" unicode="&#xf6c3;" horiz-adv-x="177" 
d="M105 -80l-72 -114q-7 -11 -18 -11q-8 0 -13.5 5.5t-5.5 12.5q0 5 4 14l52 120q8 18 28 18q12 0 21 -8.5t9 -20.5q0 -8 -5 -16z" />
    <glyph glyph-name="uniF8FF" unicode="&#xf8ff;" horiz-adv-x="1420" 
d="M340 488h38q11 0 11 -11v-6q28 21 58 21q34 0 51 -26q29 26 64 26q26 0 41.5 -15t15.5 -39v-132q0 -11 -12 -11h-38q-13 0 -13 11v116q0 9 -2.5 12.5t-11.5 3.5q-18 0 -38 -15v-117q0 -11 -11 -11h-38q-12 0 -12 11v116q0 9 -3 12.5t-12 3.5q-20 0 -37 -15v-117
q0 -11 -10 -11h-41q-11 0 -11 11v171q0 11 11 11zM1007 488h36q12 0 12 -11l1 -7q27 22 60 22q57 0 57 -60v-80q0 -62 -57 -62q-32 0 -58 21v-83q0 -11 -11 -11h-40q-11 0 -11 11v249q0 11 11 11zM296 431v-43q0 -11 -12 -11h-93v-23q0 -18 23 -18q25 0 25 18v1q0 11 11 11
h32q12 0 12 -11v-3q0 -62 -80 -62q-85 0 -85 62v79q0 61 85 61q82 0 82 -61zM1370 431v-43q0 -11 -11 -11h-94v-23q0 -18 23 -18q24 0 24 18v1q0 11 12 11h32q11 0 11 -11v-3q0 -62 -79 -62q-84 0 -84 62v79q0 61 84 61q82 0 82 -61zM850 477l22 -70q7 -27 7 -37q2 2 10 35
l24 72q3 11 12 11h37q14 0 11 -11l-84 -249q-4 -11 -14 -11h-28q-14 0 -11 11l16 59l-65 190q-4 11 11 11h40q9 0 12 -11zM731 487h31q11 0 11 -10v-27q0 -11 -11 -11h-31v-77q0 -18 24 -18h10q12 0 12 -11v-27q0 -11 -12 -11h-19q-43 0 -60.5 14t-17.5 46v84h-17
q-11 0 -11 11v25q0 8 11 11l16 1h1v36q0 12 12 12h39q12 0 12 -12v-36zM472 147v-49q0 -4 -4 -4h-114v-48q0 -33 50 -33q48 0 48 33v8q0 4 6 4h9q5 0 5 -4v-9q0 -48 -69 -48t-69 48v102q0 48 70 48q68 0 68 -48zM154 188v-17q33 24 67 24q27 0 40.5 -12.5t13.5 -33.5v-144
q0 -5 -4 -5h-11q-4 0 -4 5v140q0 31 -39 31t-62 -23v-148q0 -5 -4 -5h-11q-5 0 -5 5v183q0 4 5 4h9q5 0 5 -4zM556 191h47q4 0 4 -4v-8q0 -5 -4 -5h-47v-124q0 -33 50 -33h6q5 0 5 -5v-7q0 -5 -5 -5h-9q-37 0 -51.5 12t-14.5 36v126h-25q-4 0 -4 5v7q0 4 4 5h25v41q0 5 4 5
h11q4 0 4 -5v-41zM354 146v-36h98v36q0 32 -48 32q-50 0 -50 -32zM1112 361v62q0 15 -17 15q-13 0 -37 -15v-63q26 -16 37 -16q17 0 17 17zM191 428v-11h48v11q0 18 -25 18q-23 0 -23 -18zM1265 428v-11h47v11q0 18 -24 18q-23 0 -23 -18zM70 35v-30q0 -5 -5 -5h-11
q-4 0 -4 5v30q0 5 4 5h11q5 0 5 -5z" />
    <glyph glyph-name="f_f" unicode="&#xfb00;" horiz-adv-x="589" 
d="M411 444h-221l-75 -428q-4 -21 -26 -21q-12 0 -18.5 7.5t-4.5 18.5l75 423h-65q-20 0 -20 20q0 22 24 22h68l5 29q28 162 183 162h19q21 0 21 -21q0 -23 -25 -23h-24q-102 0 -123 -114l-6 -33h220l5 29q28 162 183 162h19q21 0 21 -21q0 -23 -25 -23h-24
q-102 0 -123 -114l-6 -33h118q20 0 20 -20q0 -22 -24 -22h-122l-75 -428q-4 -21 -26 -21q-12 0 -18.5 7.5t-4.5 18.5z" />
    <glyph glyph-name="f_f_i" unicode="&#xfb03;" horiz-adv-x="770" 
d="M418 486l5 29q28 162 183 162h138q21 0 21 -21q0 -23 -25 -23h-143q-102 0 -123 -114l-6 -33h238q11 0 17 -7t4 -18l-79 -446q-4 -20 -25 -20q-12 0 -18.5 7.5t-4.5 18.5l75 423h-215l-75 -428q-4 -21 -26 -21q-12 0 -18.5 7.5t-4.5 18.5l75 423h-221l-75 -428
q-4 -21 -26 -21q-12 0 -18.5 7.5t-4.5 18.5l75 423h-65q-20 0 -20 20q0 22 24 22h68l5 29q28 162 183 162h19q21 0 21 -21q0 -23 -25 -23h-24q-102 0 -123 -114l-6 -33h220z" />
    <glyph glyph-name="f_f_l" unicode="&#xfb04;" horiz-adv-x="777" 
d="M411 444h-221l-75 -428q-4 -21 -26 -21q-12 0 -18.5 7.5t-4.5 18.5l75 423h-65q-20 0 -20 20q0 22 24 22h68l5 29q28 162 183 162h19q21 0 21 -21q0 -23 -25 -23h-24q-102 0 -123 -114l-6 -33h220l5 29q28 162 183 162h133q11 0 17 -7t4 -18l-112 -636q-4 -21 -26 -21
q-12 0 -18.5 7.5t-4.5 18.5l109 612h-111q-102 0 -123 -114l-6 -33h109q20 0 20 -20q0 -22 -24 -22h-113l-75 -428q-4 -21 -26 -21q-12 0 -18.5 7.5t-4.5 18.5z" />
    <glyph glyph-name="longs_t" unicode="&#xfb05;" horiz-adv-x="494" 
d="M29 21l87 494q28 162 183 162h18q9 0 15.5 -6.5t6.5 -14.5q0 -23 -25 -23h-24q-102 0 -123 -114l-89 -503q-4 -21 -26 -21q-12 0 -18.5 7.5t-4.5 18.5zM484 444h-88l-75 -428q-4 -21 -26 -21q-12 0 -18.5 7.5t-4.5 18.5l75 423h-84q-20 0 -20 20q0 22 24 22h87l20 117
q4 21 26 21q12 0 18.5 -7.5t4.5 -18.5l-19 -112h84q20 0 20 -20q0 -22 -24 -22z" />
    <glyph glyph-name="grave.case" horiz-adv-x="192" 
d="M204 823l83 -95q8 -9 4 -20t-16 -11q-7 0 -12 5l-95 82q-12 10 -6.5 28t23.5 18q12 0 19 -7z" />
    <glyph glyph-name="dieresis.case" horiz-adv-x="213" 
d="M153 755q0 17 12.5 29t31.5 12q13 0 21.5 -9t8.5 -21q0 -17 -12.5 -30t-29.5 -13q-13 0 -22.5 9.5t-9.5 22.5zM254 755q0 17 12.5 29t31.5 12q13 0 21.5 -9t8.5 -22q0 -16 -13 -29t-29 -13q-13 0 -22.5 9.5t-9.5 22.5z" />
    <glyph glyph-name="macron.case" horiz-adv-x="272" 
d="M149 756q0 11 7 16.5t15 5.5h201q7 0 12.5 -5t5.5 -14q0 -10 -7 -15.5t-15 -5.5h-201q-7 0 -12.5 5.5t-5.5 12.5z" />
    <glyph glyph-name="acute.case" horiz-adv-x="192" 
d="M279 769l-103 -68q-4 -3 -10 -3q-14 0 -17 13t7 21l89 78q8 7 18 7q19 1 26 -17t-10 -31z" />
    <glyph glyph-name="circumflex.case" horiz-adv-x="275" 
d="M276 784l-105 -83q-5 -3 -8 -3q-11 0 -13.5 9t4.5 15l104 102q13 13 27 13t24 -15l68 -102q5 -7 0 -14.5t-14 -7.5q-7 0 -11 4z" />
    <glyph glyph-name="caron.case" horiz-adv-x="275" 
d="M267 738l104 81q4 3 10 3q10 0 12.5 -8.5t-4.5 -13.5l-104 -103q-13 -13 -27 -13q-13 0 -23 15l-69 103q-5 8 -1 15.5t13 7.5q6 0 11 -5z" />
    <glyph glyph-name="breve.case" horiz-adv-x="226" 
d="M345 790q-8 -43 -34.5 -69.5t-71.5 -26.5q-44 0 -67 28t-13 72q4 16 20 16q9 0 14 -6t3 -14q-8 -27 5.5 -45t43.5 -18q47 0 63 65q1 2 1 3q4 15 19 15q9 0 14 -6t3 -14z" />
    <glyph glyph-name="dotaccent.case" horiz-adv-x="117" 
d="M150 749q0 19 12.5 33t31.5 14q17 0 27.5 -10t10.5 -25q0 -19 -12 -32.5t-32 -13.5q-17 0 -27.5 9t-10.5 25z" />
    <glyph glyph-name="ring.case" horiz-adv-x="226" 
d="M248 712q25 0 40.5 17t15.5 43t-15 42.5t-40 16.5q-24 0 -40 -17t-16 -42q0 -26 15.5 -43t39.5 -17zM248 679q-40 0 -66.5 27t-26.5 65q0 39 27.5 66t66.5 27t66 -27t27 -65t-27 -65.5t-67 -27.5z" />
    <glyph glyph-name="tilde.case" horiz-adv-x="331" 
d="M175 701q-3 -11 -15 -11q-14 0 -14 14q0 37 25.5 64t66.5 27q27 0 57 -19l37 -24q28 -19 44 -19q31 0 43 55q3 11 14 11q15 0 15 -15q0 -34 -19.5 -61t-57.5 -27q-27 0 -64 24l-36 22q-25 16 -40 16q-39 0 -56 -57z" />
    <glyph glyph-name="hungarumlaut.case" horiz-adv-x="291" 
d="M167 699q-6 -4 -13 -0.5t-7 11.5q0 7 5 10l114 95q10 8 22.5 3t12.5 -19q0 -11 -8 -17zM397 787l-117 -95q-5 -5 -13 -1.5t-8 11.5q0 5 4 9l104 105q10 10 24 6.5t14 -19.5q0 -10 -8 -16z" />
    <glyph glyph-name="caron.salt" horiz-adv-x="125" 
d="M159 556q-5 -10 -18 -10q-19 0 -19 19q0 3 1 6l34 94q7 17 24 17q13 0 21.5 -7.5t8.5 -18.5q0 -6 -4 -14z" />
    <glyph glyph-name="commaaccent.salt" horiz-adv-x="176" 
d="M99 -77l-64 -115q-5 -10 -19 -10q-10 0 -15 9.5t-2 17.5l51 123q7 17 25 17q15 0 23.5 -13.5t0.5 -28.5z" />
    <glyph glyph-name="zero.tab" horiz-adv-x="531" 
d="M151 470l-50 -283q-3 -18 -3 -34q0 -53 33 -84.5t95 -31.5q67 0 111.5 42t56.5 108l49 283q3 18 3 34q0 52 -33 84t-94 32q-67 0 -111.5 -42t-56.5 -108zM494 466l-48 -275q-17 -94 -77 -147.5t-151 -53.5q-75 0 -123 43t-48 116q0 22 4 42l48 275q17 94 76.5 147.5
t151.5 53.5q74 0 122.5 -43.5t48.5 -116.5q0 -13 -4 -41z" />
    <glyph glyph-name="one.tab" horiz-adv-x="531" 
d="M384 0h-313q-22 0 -22 22q0 25 27 25h132l100 563h-131q-22 0 -22 22q0 25 27 25h157q13 0 19.5 -8.5t4.5 -19.5l-103 -582h129q22 0 22 -22q0 -25 -27 -25z" />
    <glyph glyph-name="two.tab" horiz-adv-x="531" 
d="M84 49h319q10 0 16.5 -6.5t6.5 -16.5q0 -26 -28 -26h-354q-25 0 -20 29l1 6q24 148 196 253l109 67q115 70 115 162q0 47 -31.5 75t-93.5 28q-66 0 -108.5 -35t-51.5 -93q-5 -25 -24 -25q-28 0 -24 31q14 78 70.5 123.5t144.5 45.5q74 0 122.5 -39t48.5 -105
q0 -118 -139 -205l-141 -88q-65 -40 -93 -83.5t-41 -97.5z" />
    <glyph glyph-name="three.tab" horiz-adv-x="531" 
d="M90 153q-10 -58 29.5 -87t101.5 -29q81 0 124.5 45.5t43.5 120.5q0 49 -27.5 84t-91.5 35h-39q-9 0 -15 6t-6 15q0 24 26 24h38q85 0 122.5 44t37.5 107q0 45 -32 73.5t-91 28.5q-65 0 -106 -34.5t-52 -96.5q-4 -21 -24 -21q-12 0 -19 8.5t-5 19.5q14 78 70.5 124.5
t143.5 46.5q72 0 120.5 -39.5t48.5 -103.5q0 -133 -125 -181q39 -18 60 -54.5t21 -81.5q0 -101 -61.5 -159t-166.5 -58q-82 0 -136 45t-38 122q4 23 26 23q11 0 17.5 -7.5t4.5 -19.5z" />
    <glyph glyph-name="four.tab" horiz-adv-x="531" 
d="M51 163q-31 0 -31 27q0 12 26 43l339 402q1 1 5.5 6.5t7 8t7.5 6t11.5 5t14.5 1.5q19 0 30 -13t9 -26l-73 -413h52q22 0 22 -22q0 -25 -27 -25h-55l-26 -146q-4 -22 -27 -22q-13 0 -19.5 8t-4.5 19l25 141h-286zM85 210h260l69 388z" />
    <glyph glyph-name="five.tab" horiz-adv-x="531" 
d="M203 610l-44 -249q61 34 120 34q76 0 125 -44.5t49 -116.5q0 -112 -63.5 -178t-170.5 -66q-83 0 -135 43t-39 118q4 24 27 24q11 0 17.5 -9t4.5 -19q-9 -53 29.5 -81.5t102.5 -28.5q82 0 127 53t45 137q0 53 -32 87t-98 34q-61 0 -108 -30q-1 -1 -9.5 -7.5t-15 -9
t-14.5 -2.5q-11 0 -16.5 7.5t-3.5 17.5l55 308q5 25 29 25h296q22 0 22 -22q0 -25 -27 -25h-273z" />
    <glyph glyph-name="six.tab" horiz-adv-x="531" 
d="M332 667q81 0 130 -45t38 -128q-3 -24 -25 -24q-12 0 -18.5 8t-5.5 21q6 55 -26.5 88.5t-98.5 33.5q-67 0 -110.5 -39t-54.5 -101l-28 -155q57 61 148 61q79 0 127.5 -45t48.5 -117q0 -106 -61 -170.5t-163 -64.5q-77 0 -126.5 45t-49.5 126q0 20 5 50l46 265
q15 89 74 140t150 51zM279 339q-89 0 -156 -73l-11 -59q-4 -20 -4 -42q0 -60 35 -94.5t101 -34.5q73 0 115.5 51.5t42.5 129.5q0 51 -30.5 86.5t-92.5 35.5z" />
    <glyph glyph-name="seven.tab" horiz-adv-x="531" 
d="M166 8q-8 -13 -21 -13q-15 0 -21.5 12t1.5 26l345 577h-332q-22 0 -22 22q0 25 27 25h363q13 0 20 -6.5t7 -14.5q0 -11 -17 -41z" />
    <glyph glyph-name="eight.tab" horiz-adv-x="531" 
d="M496 521q0 -63 -35 -112t-91 -73q38 -17 59.5 -51t21.5 -78q0 -95 -61.5 -156t-161.5 -61q-79 0 -132.5 42.5t-53.5 113.5q0 72 37.5 123.5t99.5 75.5q-70 35 -70 119q0 89 58 146t153 57q74 0 125 -40t51 -106zM96 153q0 -52 36.5 -85t101.5 -33q73 0 118 49t45 120
q0 50 -31 82.5t-95 32.5q-86 0 -130.5 -48.5t-44.5 -117.5zM161 466q0 -46 29.5 -75t88.5 -29q82 0 122.5 44t40.5 108q0 47 -32 77.5t-91 30.5q-72 0 -115 -44t-43 -112z" />
    <glyph glyph-name="nine.tab" horiz-adv-x="531" 
d="M266 318q93 0 156 73l10 59q4 24 4 39q0 59 -34.5 95.5t-99.5 36.5q-72 0 -115.5 -52t-43.5 -129q0 -51 30 -86.5t93 -35.5zM94 155q-7 -59 31.5 -89t102.5 -30q62 0 104 40t52 100l27 154q-68 -60 -151 -60q-77 0 -124.5 45.5t-47.5 115.5q0 106 61.5 171t162.5 65
q79 0 128 -45t49 -126q0 -20 -5 -50l-47 -265q-15 -88 -71 -139.5t-145 -51.5q-83 0 -134.5 44t-40.5 125q5 25 27 25q9 0 16 -7.5t5 -21.5z" />
    <glyph glyph-name="a.alt" horiz-adv-x="474" 
d="M413 337l-58 -326q-4 -16 -17 -16q-18 0 -18 20l-1 44q-60 -69 -157 -69q-62 0 -101 30.5t-39 83.5q0 158 194 158h133l14 79q2 16 2 22q0 41 -28.5 66t-82.5 25q-55 0 -90 -27t-48 -72q-6 -20 -24 -20q-10 0 -17.5 8.5t-4.5 18.5q16 62 64.5 99t127.5 37q66 0 110 -35.5
t44 -94.5q0 -13 -3 -31zM174 35q55 0 100.5 33t54.5 80l13 71h-138q-130 0 -130 -105q0 -35 25 -57t75 -22z" />
    <glyph glyph-name="agrave.alt" horiz-adv-x="474" 
d="M413 337l-58 -326q-4 -16 -17 -16q-18 0 -18 20l-1 44q-60 -69 -157 -69q-62 0 -101 30.5t-39 83.5q0 158 194 158h133l14 79q2 16 2 22q0 41 -28.5 66t-82.5 25q-55 0 -90 -27t-48 -72q-6 -20 -24 -20q-10 0 -17.5 8.5t-4.5 18.5q16 62 64.5 99t127.5 37q66 0 110 -35.5
t44 -94.5q0 -13 -3 -31zM174 35q55 0 100.5 33t54.5 80l13 71h-138q-130 0 -130 -105q0 -35 25 -57t75 -22zM217 679l83 -95q8 -9 4 -20t-16 -11q-7 0 -12 5l-95 82q-12 10 -6.5 28t23.5 18q12 0 19 -7z" />
    <glyph glyph-name="aacute.alt" horiz-adv-x="474" 
d="M390 625l-103 -68q-5 -3 -10 -3q-14 0 -17 13t7 21l89 78q8 7 18 7q19 1 26 -17t-10 -31zM413 337l-58 -326q-4 -16 -17 -16q-18 0 -18 20l-1 44q-60 -69 -157 -69q-62 0 -101 30.5t-39 83.5q0 158 194 158h133l14 79q2 16 2 22q0 41 -28.5 66t-82.5 25q-55 0 -90 -27
t-48 -72q-6 -20 -24 -20q-10 0 -17.5 8.5t-4.5 18.5q16 62 64.5 99t127.5 37q66 0 110 -35.5t44 -94.5q0 -13 -3 -31zM174 35q55 0 100.5 33t54.5 80l13 71h-138q-130 0 -130 -105q0 -35 25 -57t75 -22z" />
    <glyph glyph-name="acircumflex.alt" horiz-adv-x="474" 
d="M296 640l-105 -83q-5 -3 -8 -3q-11 0 -13.5 9t4.5 15l104 102q13 13 27 13t24 -15l68 -102q5 -7 0 -14.5t-14 -7.5q-7 0 -11 4zM413 337l-58 -326q-4 -16 -17 -16q-18 0 -18 20l-1 44q-60 -69 -157 -69q-62 0 -101 30.5t-39 83.5q0 158 194 158h133l14 79q2 16 2 22
q0 41 -28.5 66t-82.5 25q-55 0 -90 -27t-48 -72q-6 -20 -24 -20q-10 0 -17.5 8.5t-4.5 18.5q16 62 64.5 99t127.5 37q66 0 110 -35.5t44 -94.5q0 -13 -3 -31zM174 35q55 0 100.5 33t54.5 80l13 71h-138q-130 0 -130 -105q0 -35 25 -57t75 -22z" />
    <glyph glyph-name="atilde.alt" horiz-adv-x="474" 
d="M413 337l-58 -326q-4 -16 -17 -16q-18 0 -18 20l-1 44q-60 -69 -157 -69q-62 0 -101 30.5t-39 83.5q0 158 194 158h133l14 79q2 16 2 22q0 41 -28.5 66t-82.5 25q-55 0 -90 -27t-48 -72q-6 -20 -24 -20q-10 0 -17.5 8.5t-4.5 18.5q16 62 64.5 99t127.5 37q66 0 110 -35.5
t44 -94.5q0 -13 -3 -31zM174 35q55 0 100.5 33t54.5 80l13 71h-138q-130 0 -130 -105q0 -35 25 -57t75 -22zM167 566q-3 -11 -15 -11q-14 0 -14 14q0 37 25.5 64t66.5 27q27 0 57 -19l37 -24q28 -19 44 -19q31 0 43 55q3 11 14 11q15 0 15 -15q0 -34 -19.5 -61t-57.5 -27
q-27 0 -64 24l-36 22q-25 16 -40 16q-39 0 -56 -57z" />
    <glyph glyph-name="adieresis.alt" horiz-adv-x="474" 
d="M201 599q0 17 11 29t28 12q14 0 24 -9t10 -22q0 -18 -11 -30t-30 -12q-13 0 -22.5 9.5t-9.5 22.5zM302 599q0 17 11 29t28 12q15 0 24.5 -8.5t9.5 -22.5q0 -18 -10.5 -30t-30.5 -12q-13 0 -22.5 9.5t-9.5 22.5zM413 337l-58 -326q-4 -16 -17 -16q-18 0 -18 20l-1 44
q-60 -69 -157 -69q-62 0 -101 30.5t-39 83.5q0 158 194 158h133l14 79q2 16 2 22q0 41 -28.5 66t-82.5 25q-55 0 -90 -27t-48 -72q-6 -20 -24 -20q-10 0 -17.5 8.5t-4.5 18.5q16 62 64.5 99t127.5 37q66 0 110 -35.5t44 -94.5q0 -13 -3 -31zM174 35q55 0 100.5 33t54.5 80
l13 71h-138q-130 0 -130 -105q0 -35 25 -57t75 -22z" />
    <glyph glyph-name="aring.alt" horiz-adv-x="474" 
d="M291 562q25 0 40.5 17t15.5 43q0 25 -15.5 42t-39.5 17q-25 0 -40.5 -17t-15.5 -43t15.5 -42.5t39.5 -16.5zM291 529q-40 0 -66.5 27t-26.5 65t27 65.5t67 27.5q39 0 66 -27t27 -65q0 -39 -27 -66t-67 -27zM413 337l-58 -326q-4 -16 -17 -16q-18 0 -18 20l-1 44
q-60 -69 -157 -69q-62 0 -101 30.5t-39 83.5q0 158 194 158h133l14 79q2 16 2 22q0 41 -28.5 66t-82.5 25q-55 0 -90 -27t-48 -72q-6 -20 -24 -20q-10 0 -17.5 8.5t-4.5 18.5q16 62 64.5 99t127.5 37q66 0 110 -35.5t44 -94.5q0 -13 -3 -31zM174 35q55 0 100.5 33t54.5 80
l13 71h-138q-130 0 -130 -105q0 -35 25 -57t75 -22z" />
    <glyph glyph-name="amacron.alt" horiz-adv-x="474" 
d="M413 337l-58 -326q-4 -16 -17 -16q-18 0 -18 20l-1 44q-60 -69 -157 -69q-62 0 -101 30.5t-39 83.5q0 158 194 158h133l14 79q2 16 2 22q0 41 -28.5 66t-82.5 25q-55 0 -90 -27t-48 -72q-6 -20 -24 -20q-10 0 -17.5 8.5t-4.5 18.5q16 62 64.5 99t127.5 37q66 0 110 -35.5
t44 -94.5q0 -13 -3 -31zM174 35q55 0 100.5 33t54.5 80l13 71h-138q-130 0 -130 -105q0 -35 25 -57t75 -22zM165 595q0 11 7 16.5t15 5.5h201q7 0 12.5 -5t5.5 -14q0 -10 -7 -15.5t-15 -5.5h-201q-7 0 -12.5 5.5t-5.5 12.5z" />
    <glyph glyph-name="abreve.alt" horiz-adv-x="474" 
d="M413 337l-58 -326q-4 -16 -17 -16q-18 0 -18 20l-1 44q-60 -69 -157 -69q-62 0 -101 30.5t-39 83.5q0 158 194 158h133l14 79q2 16 2 22q0 41 -28.5 66t-82.5 25q-55 0 -90 -27t-48 -72q-6 -20 -24 -20q-10 0 -17.5 8.5t-4.5 18.5q16 62 64.5 99t127.5 37q66 0 110 -35.5
t44 -94.5q0 -13 -3 -31zM174 35q55 0 100.5 33t54.5 80l13 71h-138q-130 0 -130 -105q0 -35 25 -57t75 -22zM387 647q-8 -43 -34.5 -69.5t-71.5 -26.5q-44 0 -67 28t-13 72q4 16 20 16q9 0 14 -6t3 -14q-8 -27 5.5 -45t43.5 -18q47 0 63 65q1 2 1 3q4 15 19 15q9 0 14 -6
t3 -14z" />
    <glyph glyph-name="aogonek.alt" horiz-adv-x="474" 
d="M304 -185q-24 0 -38.5 1.5t-34.5 6.5t-29.5 17.5t-9.5 33.5q0 40 40 79t89 56q-1 3 -1 6l-1 44q-60 -69 -157 -69q-62 0 -101 30.5t-39 83.5q0 158 194 158h133l14 79q2 16 2 22q0 41 -28.5 66t-82.5 25q-55 0 -90.5 -27.5t-45.5 -71.5q-4 -20 -24 -20q-10 0 -17 8.5
t-5 18.5q16 63 64.5 99.5t127.5 36.5q66 0 109 -35.5t43 -94.5q0 -13 -3 -31l-58 -326q-4 -16 -17 -16q-105 -55 -105 -110q0 -12 5.5 -19t18 -10t22.5 -3.5t29 -0.5q17 0 17 -17q0 -20 -21 -20zM174 35q55 0 100.5 33t54.5 80l13 71h-138q-130 0 -130 -105q0 -35 25 -57
t75 -22z" />
    <glyph glyph-name="t.alt" horiz-adv-x="317" 
d="M231 0q-72 0 -109.5 31.5t-37.5 88.5q0 16 3 31l52 293h-64q-20 0 -20 20q0 22 24 22h68l19 117q4 21 26 21q12 0 19 -7.5t5 -18.5l-19 -112h118q20 0 20 -20q0 -22 -24 -22h-122l-53 -297q-2 -16 -2 -22q0 -42 25 -61.5t77 -19.5q20 0 20 -21q0 -23 -25 -23z" />
    <glyph glyph-name="uni0163.alt" horiz-adv-x="317" 
d="M100 -63l39 82q-55 30 -55 101q0 16 3 31l52 293h-64q-20 0 -20 20q0 22 24 22h68l19 117q4 21 26 21q12 0 19 -7.5t5 -18.5l-19 -112h118q20 0 20 -20q0 -22 -24 -22h-122l-53 -297q-2 -16 -2 -22q0 -42 25 -61.5t77 -19.5q20 0 20 -21q0 -23 -25 -23q-33 0 -57 6
l-26 -54h12q33 0 51.5 -15.5t18.5 -41.5q0 -82 -95 -82h-72q-18 0 -18 18q0 20 22 20h80q40 0 40 37q0 27 -30 27h-42q-10 0 -14.5 7t-0.5 15z" />
    <glyph glyph-name="tcaron.alt" horiz-adv-x="317" 
d="M231 0q-72 0 -109.5 31.5t-37.5 88.5q0 16 3 31l52 293h-64q-20 0 -20 20q0 22 24 22h68l19 117q4 21 26 21q12 0 19 -7.5t5 -18.5l-19 -112h118q20 0 20 -20q0 -22 -24 -22h-122l-53 -297q-2 -16 -2 -22q0 -42 25 -61.5t77 -19.5q20 0 20 -21q0 -23 -25 -23zM312 556
q-5 -10 -18 -10q-19 0 -19 19q0 3 1 6l34 94q7 17 24 17q13 0 21.5 -7.5t8.5 -18.5q0 -6 -4 -14z" />
    <glyph glyph-name="uni021B.alt" horiz-adv-x="338" 
d="M127 -80l-72 -114q-7 -11 -18 -11q-8 0 -13.5 5.5t-5.5 12.5q0 5 4 14l52 120q8 18 28 18q12 0 21 -8.5t9 -20.5q0 -8 -5 -16zM231 0q-72 0 -109.5 31.5t-37.5 88.5q0 16 3 31l52 293h-64q-20 0 -20 20q0 22 24 22h68l19 117q4 21 26 21q12 0 19 -7.5t5 -18.5l-19 -112
h118q20 0 20 -20q0 -22 -24 -22h-122l-53 -297q-2 -16 -2 -22q0 -42 25 -61.5t77 -19.5q20 0 20 -21q0 -23 -25 -23z" />
    <glyph glyph-name="tbar.alt" horiz-adv-x="349" 
d="M248 -1q-72 0 -109.5 31.5t-37.5 88.5q0 16 3 31l24 134h-63q-21 0 -21 19q0 23 26 23h65l21 117h-64q-20 0 -20 20q0 22 24 22h68l19 117q4 21 26 21q12 0 19 -7.5t5 -18.5l-19 -112h118q20 0 20 -20q0 -22 -24 -22h-122l-21 -117h118q21 0 21 -20q0 -22 -26 -22h-121
l-24 -138q-2 -16 -2 -22q0 -42 25 -61.5t77 -19.5q20 0 20 -21q0 -23 -25 -23z" />
    <glyph glyph-name="ampersand.alt" horiz-adv-x="613" 
d="M569 332l-132 -196l68 -103q8 -9 2 -23.5t-24 -14.5q-11 0 -20 14l-58 86q-82 -105 -207 -105q-75 0 -124 40.5t-49 107.5q0 80 52 136t156 80l-18 27q-34 52 -34 115q0 77 50 124t133 47q78 0 111.5 -49t23.5 -110q-3 -24 -25 -24q-28 0 -23 29q4 11 0.5 29.5t-10.5 36
t-29 30.5t-55 13q-59 0 -92.5 -35.5t-33.5 -90.5q0 -49 31 -94l151 -230l120 184q5 9 18 9t19 -11.5t-1 -21.5zM210 36q100 0 172 94l-126 190q-88 -17 -132 -62.5t-44 -107.5q0 -51 33 -82.5t97 -31.5z" />
    <glyph glyph-name="longs_t.alt" horiz-adv-x="506" 
d="M419 0q-72 0 -109.5 31.5t-37.5 88.5q0 16 3 31l52 293h-64q-20 0 -20 20q0 22 24 22h68l19 117q4 21 26 21q12 0 19 -7.5t5 -18.5l-19 -112h118q20 0 20 -20q0 -22 -24 -22h-122l-53 -297q-2 -16 -2 -22q0 -81 102 -81q20 0 20 -21q0 -23 -25 -23zM29 21l87 494
q28 162 183 162h19q21 0 21 -21q0 -23 -25 -23h-24q-102 0 -123 -114l-89 -503q-4 -21 -26 -21q-12 0 -18.5 7.5t-4.5 18.5z" />
    </font>
</defs>
</svg>
