<?xml version="1.0" standalone="no"?>
<!DOCTYPE svg PUBLIC "-//W3C//DTD SVG 1.1//EN" "http://www.w3.org/Graphics/SVG/1.1/DTD/svg11.dtd" >
<svg xmlns="http://www.w3.org/2000/svg" xmlns:xlink="http://www.w3.org/1999/xlink" version="1.1">
<metadata>
Created by FontForge 20170731 at Tue Jul  7 21:15:57 2015
 By Aleksey,,,
Copyright (c) 2015 by Eduardo Manso. All rights reserved.
</metadata>
<defs>
<font id="CiutadellaRounded-Regular4" horiz-adv-x="494" >
  <font-face 
    font-family="Ciutadella Rounded   2"
    font-weight="400"
    font-stretch="normal"
    units-per-em="1000"
    panose-1="1 0 0 0 0 0 0 0 0 0"
    ascent="800"
    descent="-200"
    x-height="489"
    cap-height="662"
    bbox="-199.4 -221 1370 874"
    underline-thickness="50"
    underline-position="-150"
    unicode-range="U+000D-FB05"
  />
<missing-glyph horiz-adv-x="841" 
d="M513 144l-92 92l-92 -92q-12 -12 -21 -12q-10 0 -21 12l-51 52q-11 11 -11 19q0 11 12 21l92 92l-92 92q-13 12 -13 22q0 8 11 19l51 52q10 11 21 11q10 0 22 -12l92 -92l92 92q13 13 22 13q8 0 19 -11l52 -51q11 -10 11 -22q0 -11 -12 -21l-92 -92l92 -92q12 -14 12 -21
q0 -11 -12 -21l-52 -51q-11 -11 -19 -11q-9 0 -21 12zM80 328q0 141 99.5 240t240.5 99t240.5 -99t99.5 -240t-100 -239.5t-241 -98.5t-240 98.5t-99 239.5zM128 328q0 -122 85 -207.5t206 -85.5t206.5 85.5t85.5 207.5t-85 208t-206 86t-206.5 -86t-85.5 -208z" />
    <glyph glyph-name="fi" unicode="fi" horiz-adv-x="537" 
d="M214 486h252q17 0 25.5 -10.5t5.5 -26.5l-75 -423q-5 -31 -37 -31q-17 0 -27 11t-7 28l70 391h-218l-70 -398q-5 -32 -37 -32q-17 0 -27 11t-7 28l69 391h-49q-12 0 -21 8t-9 21q0 14 10 23t23 9h57l4 25q26 166 192 166h167q13 0 21.5 -8.5t8.5 -21.5q0 -15 -9.5 -23.5
t-23.5 -8.5h-171q-51 0 -76 -25.5t-35 -73.5z" />
    <glyph glyph-name="fl" unicode="fl" horiz-adv-x="542" 
d="M530 641l-108 -614q-5 -32 -38 -32q-17 0 -26.5 11t-6.5 28l103 581h-123q-91 0 -111 -99l-6 -30h91q12 0 20.5 -8t8.5 -21q0 -15 -9.5 -23.5t-23.5 -8.5h-98l-70 -398q-5 -32 -37 -32q-17 0 -27 11t-7 28l69 391h-49q-12 0 -21 8t-9 21q0 14 10 23t23 9h57l4 25
q26 166 192 166h161q17 0 25.5 -10t5.5 -26z" />
    <glyph glyph-name=".notdef" horiz-adv-x="841" 
d="M513 144l-92 92l-92 -92q-12 -12 -21 -12q-10 0 -21 12l-51 52q-11 11 -11 19q0 11 12 21l92 92l-92 92q-13 12 -13 22q0 8 11 19l51 52q10 11 21 11q10 0 22 -12l92 -92l92 92q13 13 22 13q8 0 19 -11l52 -51q11 -10 11 -22q0 -11 -12 -21l-92 -92l92 -92q12 -14 12 -21
q0 -11 -12 -21l-52 -51q-11 -11 -19 -11q-9 0 -21 12zM80 328q0 141 99.5 240t240.5 99t240.5 -99t99.5 -240t-100 -239.5t-241 -98.5t-240 98.5t-99 239.5zM128 328q0 -122 85 -207.5t206 -85.5t206.5 85.5t85.5 207.5t-85 208t-206 86t-206.5 -86t-85.5 -208z" />
    <glyph glyph-name="glyph1" horiz-adv-x="0" 
 />
    <glyph glyph-name="glyph2" horiz-adv-x="333" 
 />
    <glyph glyph-name=".null" horiz-adv-x="0" 
 />
    <glyph glyph-name=".null" horiz-adv-x="0" 
 />
    <glyph glyph-name="nonmarkingreturn" unicode="&#xd;" horiz-adv-x="0" 
 />
    <glyph glyph-name="space" unicode=" " horiz-adv-x="211" 
 />
    <glyph glyph-name="exclam" unicode="!" horiz-adv-x="235" 
d="M215 620l-23 -131l-67 -303q-7 -22 -28 -22q-23 0 -20 23l38 302l25 139q5 34 39 34q19 0 29.5 -11.5t6.5 -30.5zM24 32q0 24 16 41t40 17q20 0 33 -12t13 -31q0 -23 -16 -40t-41 -17q-20 0 -32.5 11.5t-12.5 30.5z" />
    <glyph glyph-name="quotedbl" unicode="&#x22;" horiz-adv-x="315" 
d="M114 587l8 43q5 32 38 32q17 0 26 -10.5t6 -26.5l-7 -39q-2 -13 -38 -141q-6 -19 -25 -19t-19 20q0 80 11 141zM235 587l8 43q5 32 38 32q18 0 26.5 -10.5t6.5 -26.5l-8 -39q-4 -29 -38 -141q-6 -19 -25 -19t-19 20q0 80 11 141z" />
    <glyph glyph-name="numbersign" unicode="#" horiz-adv-x="647" 
d="M444 168l-26 -142q-7 -31 -35 -31q-14 0 -21.5 8t-5.5 23l26 142h-161l-26 -142q-5 -31 -34 -31q-15 0 -22.5 8t-4.5 23l26 142h-87q-12 0 -19.5 8t-7.5 19q0 12 7.5 20.5t19.5 8.5h97l39 209h-106q-12 0 -19.5 7.5t-7.5 19.5t7.5 20.5t19.5 8.5h117l26 143q5 30 34 30
q14 0 22 -8t5 -22l-26 -143h161l26 143q5 30 35 30q14 0 21.5 -8t4.5 -22l-25 -143h86q12 0 20 -8t8 -20t-8 -20t-20 -8h-97l-39 -209h106q12 0 20 -8t8 -20t-8 -20t-20 -8h-116zM270 433l-38 -209h161l38 209h-161z" />
    <glyph glyph-name="dollar" unicode="$" horiz-adv-x="500" 
d="M360 740l-14 -77q62 -12 98.5 -54t31.5 -108q-4 -37 -37 -37q-16 0 -25.5 10t-9.5 26q0 103 -109 103q-59 0 -94 -30.5t-35 -79.5q0 -56 60 -87l80 -40q59 -29 95 -66t36 -97q0 -94 -56.5 -151.5t-153.5 -61.5l-13 -75q-6 -28 -32 -28q-14 0 -22 8.5t-6 21.5l14 77
q-68 11 -108 54t-36 112q2 37 37 37t35 -36q0 -107 127 -107q63 0 100.5 38t37.5 97q0 40 -23.5 63.5t-69.5 46.5l-67 34q-108 55 -108 146q0 80 52 131.5t141 55.5l14 76q6 28 32 28q14 0 22 -8.5t6 -21.5z" />
    <glyph glyph-name="percent" unicode="%" horiz-adv-x="626" 
d="M392 220l-22 -121q-1 -5 -1 -14q0 -21 13.5 -34t37.5 -13q25 0 43.5 16.5t23.5 44.5l22 121q1 5 1 14q0 22 -13 34.5t-37 12.5q-27 0 -45 -17t-23 -44zM563 220l-21 -121q-9 -50 -41 -79.5t-87 -29.5q-44 0 -72.5 24.5t-28.5 64.5q0 6 2 20l21 121q9 50 41.5 79.5
t86.5 29.5q43 0 72 -24t29 -65q0 -6 -2 -20zM155 558l-22 -121q-1 -5 -1 -14q0 -21 13 -34t38 -13t43.5 16.5t23.5 44.5l22 121q1 5 1 14q0 22 -13 34.5t-37 12.5q-27 0 -45 -17t-23 -44zM326 558l-20 -121q-9 -50 -41 -79.5t-88 -29.5q-43 0 -71.5 24.5t-28.5 64.5
q0 6 2 20l20 121q9 50 41.5 79.5t86.5 29.5q43 0 72 -24t29 -65q0 -6 -2 -20zM337 309l-232 -302q-7 -12 -23 -12t-22.5 14.5t3.5 26.5l228 293l247 324q7 9 19 9q15 0 23.5 -14t-1.5 -28z" />
    <glyph glyph-name="ampersand" unicode="&#x26;" horiz-adv-x="578" 
d="M489 508q-2 -39 -36 -39q-16 0 -25.5 10t-9.5 26q0 97 -98 97q-63 0 -99 -37t-36 -97q0 -44 27.5 -70t87.5 -26h231q12 0 20 -7.5t8 -20.5q0 -14 -9 -22.5t-22 -8.5h-47l-22 -123q-17 -93 -78.5 -146.5t-158.5 -53.5q-83 0 -137.5 44.5t-54.5 115.5t38.5 122.5
t111.5 75.5q-34 17 -52 49t-18 70q0 89 57.5 144.5t154.5 55.5q75 0 123 -41.5t44 -117.5zM232 54q62 0 104 37.5t52 96.5l21 125h-124q-86 0 -131 -45.5t-45 -107.5q0 -49 31.5 -77.5t91.5 -28.5z" />
    <glyph glyph-name="quotesingle" unicode="'" horiz-adv-x="196" 
d="M114 587l8 43q5 32 38 32q18 0 27.5 -10.5t6.5 -26.5l-7 -39q-3 -21 -39 -141q-5 -19 -24 -19q-21 0 -21 20q0 80 11 141z" />
    <glyph glyph-name="parenleft" unicode="(" horiz-adv-x="296" 
d="M171 -44q11 -1 18.5 -10t7.5 -22q0 -16 -12 -26t-27 -8q-61 5 -95 39t-34 94q0 17 5 42l94 532q27 155 178 166q15 2 25 -7t10 -24q0 -14 -9.5 -23t-22.5 -10q-88 -7 -105 -98l-96 -541q-4 -22 -4 -31q0 -66 67 -73z" />
    <glyph glyph-name="parenright" unicode=")" horiz-adv-x="296" 
d="M140 698q-11 1 -18.5 10t-7.5 22q0 16 12 26t27 8q61 -5 95 -39t34 -94q0 -17 -5 -42l-94 -532q-27 -155 -178 -166q-15 -2 -25 7t-10 24q0 14 9.5 23t22.5 10q88 7 105 98l96 541q4 22 4 31q0 66 -67 73z" />
    <glyph glyph-name="asterisk" unicode="*" horiz-adv-x="401" 
d="M238 664q28 0 28 -30q0 -28 -18 -115q55 55 87 77q25 16 40 -9q14 -24 -11 -39q-22 -13 -109 -44q81 -27 109 -45q26 -14 10 -39q-14 -25 -39 -8q-24 15 -87 75q18 -75 18 -114q0 -29 -28 -29q-27 0 -27 29q0 27 18 114q-64 -61 -88 -75q-24 -17 -39 8q-15 23 11 39
q24 15 108 45q-81 27 -108 44q-25 17 -12 39q15 25 40 9q26 -18 88 -77q-18 101 -18 115q0 30 27 30z" />
    <glyph glyph-name="plus" unicode="+" horiz-adv-x="483" 
d="M284 476v-115h129q14 0 22.5 -9.5t8.5 -24.5q0 -14 -8.5 -23t-22.5 -9h-129v-116q0 -15 -10 -24.5t-25 -9.5q-16 0 -26 9.5t-10 24.5v116h-128q-15 0 -23.5 9t-8.5 23q0 15 8.5 24.5t23.5 9.5h128v115q0 16 10 25.5t25 9.5t25.5 -10t10.5 -25z" />
    <glyph glyph-name="comma" unicode="," horiz-adv-x="222" 
d="M113 29l-81 -115q-9 -13 -23 -13t-21 11t-1 24l59 131q11 23 36 23q24 0 35 -20t-4 -41z" />
    <glyph glyph-name="hyphen" unicode="-" horiz-adv-x="368" 
d="M58 260q0 16 10.5 25.5t24.5 9.5h178q13 0 22 -9t9 -22q0 -15 -10.5 -24.5t-24.5 -9.5h-178q-13 0 -22 8.5t-9 21.5z" />
    <glyph glyph-name="period" unicode="." horiz-adv-x="217" 
d="M16 32q0 24 16 41t40 17q20 0 33 -12t13 -31q0 -23 -16 -40t-41 -17q-20 0 -32.5 11.5t-12.5 30.5z" />
    <glyph glyph-name="slash" unicode="/" horiz-adv-x="444" 
d="M473 720l-427 -817q-10 -19 -31 -19q-20 0 -28.5 17.5t0.5 35.5l426 815q10 18 31 18q18 0 28.5 -16.5t0.5 -33.5z" />
    <glyph glyph-name="zero" unicode="0" horiz-adv-x="545" 
d="M176 465l-48 -273q-3 -17 -3 -31q0 -47 29.5 -75t84.5 -28q58 0 97 37t50 97l48 273q3 17 3 31q0 46 -29.5 74.5t-84.5 28.5q-58 0 -97 -37t-50 -97zM509 463l-47 -269q-17 -96 -77 -150t-154 -54q-79 0 -130 44.5t-51 118.5q0 20 3 41l47 269q18 96 77 150t155 54
q78 0 129.5 -44.5t51.5 -119.5q0 -12 -4 -40z" />
    <glyph glyph-name="one" unicode="1" horiz-adv-x="392" 
d="M287 0h-255q-13 0 -22.5 9t-9.5 23q0 16 11 25.5t25 9.5h94l92 522h-87q-14 0 -23 9t-9 23q0 16 11 26t25 10h131q17 0 26 -11t6 -28l-96 -551h85q13 0 22.5 -9t9.5 -23q0 -16 -11 -25.5t-25 -9.5z" />
    <glyph glyph-name="two" unicode="2" horiz-adv-x="517" 
d="M100 70h296q15 0 24 -9t9 -23q0 -17 -11.5 -27.5t-29.5 -10.5h-346q-16 0 -24 11t-6 29l1 7q20 140 181 239l116 71q110 67 110 151q0 41 -28.5 66t-83.5 25q-57 0 -94.5 -30t-46.5 -80q-6 -29 -36 -29q-20 0 -27.5 14.5t-3.5 32.5q17 74 74 117t144 43q77 0 128.5 -40.5
t51.5 -109.5q0 -65 -37 -116.5t-110 -96.5l-138 -85q-53 -33 -77.5 -69.5t-35.5 -79.5z" />
    <glyph glyph-name="three" unicode="3" horiz-adv-x="518" 
d="M102 156q-6 -49 28.5 -74t88.5 -25q71 0 110 40.5t39 108.5q0 46 -25.5 76t-81.5 30h-31q-12 0 -20.5 8t-8.5 21q0 32 33 32h31q77 0 111.5 38.5t34.5 95.5q0 42 -28 67t-81 25q-54 0 -90.5 -30t-47.5 -81q-5 -26 -34 -26q-19 0 -28 13.5t-5 30.5q16 73 73.5 117
t143.5 44q75 0 125 -41.5t50 -106.5q0 -129 -119 -176q36 -17 56 -53t20 -79q0 -102 -62 -161.5t-170 -59.5q-83 0 -138.5 44.5t-44.5 120.5q6 34 38 34q14 0 24 -9t9 -24z" />
    <glyph glyph-name="four" unicode="4" horiz-adv-x="531" 
d="M52 155q-39 0 -39 39q0 6 1.5 11.5t3 9.5t6.5 10.5t6.5 9t8 10t7.5 8.5l317 373q1 1 5 5.5t5 6t5 5.5t6.5 5.5t6.5 4.5t7.5 4t8.5 3t10.5 2.5t11.5 0.5q25 0 39 -16t11 -34l-69 -392h41q14 0 22.5 -8t8.5 -22q0 -16 -11 -26t-28 -10h-45l-22 -126q-7 -34 -38 -34
q-19 0 -29.5 11.5t-6.5 29.5l21 119h-271zM100 221h235l61 348z" />
    <glyph glyph-name="five" unicode="5" horiz-adv-x="513" 
d="M202 590l-39 -222q56 34 116 34q75 0 124 -45t49 -118q0 -115 -64.5 -182t-174.5 -67q-81 0 -133.5 39.5t-49.5 108.5q2 42 38 42q32 0 32 -34q0 -44 32.5 -67t87.5 -23q72 0 112.5 48t40.5 125q0 48 -28.5 78t-87.5 30q-50 0 -94 -26q-33 -20 -47 -20q-16 0 -25 10.5
t-6 27.5l52 292q3 16 15 26t28 10h287q14 0 22.5 -8.5t8.5 -22.5q0 -16 -11 -26t-28 -10h-257z" />
    <glyph glyph-name="six" unicode="6" horiz-adv-x="528" 
d="M328 667q78 0 126.5 -41t47.5 -116q-2 -43 -35 -43q-15 0 -25.5 10t-10.5 25q-1 46 -28.5 72.5t-82.5 26.5q-60 0 -98.5 -34.5t-48.5 -91.5l-25 -138q53 53 136 53q78 0 127 -44.5t49 -116.5q0 -110 -62 -174.5t-168 -64.5q-80 0 -131.5 45t-51.5 127q0 23 4 47l45 259
q16 93 76 146t156 53zM272 325q-79 0 -136 -62l-11 -56q-3 -14 -3 -39q0 -53 30.5 -83t88.5 -30q65 0 102.5 45.5t37.5 116.5q0 46 -27 77t-82 31z" />
    <glyph glyph-name="seven" unicode="7" horiz-adv-x="449" 
d="M140 11q-9 -16 -30 -16t-31 18.5t1 36.5l308 540h-269q-14 0 -22.5 8.5t-8.5 22.5q0 16 11 26t28 10h318q17 0 26 -9t9 -22t-23 -54z" />
    <glyph glyph-name="eight" unicode="8" horiz-adv-x="526" 
d="M498 519q0 -63 -33 -110.5t-87 -70.5q36 -17 56.5 -50t20.5 -77q0 -98 -62 -159.5t-166 -61.5q-82 0 -136.5 43.5t-54.5 114.5q0 72 36 122.5t97 74.5q-67 32 -67 115q0 92 58.5 149.5t157.5 57.5q76 0 128 -41t52 -107zM114 158q0 -48 32 -76.5t89 -28.5q65 0 104 44
t39 110q0 45 -27.5 74t-82.5 29q-76 0 -115 -44t-39 -108zM176 462q0 -42 25.5 -67.5t77.5 -25.5q72 0 107.5 39.5t35.5 98.5q0 43 -28 69t-80 26q-63 0 -100.5 -39t-37.5 -101z" />
    <glyph glyph-name="nine" unicode="9" horiz-adv-x="530" 
d="M269 332q80 0 138 62l9 52q3 18 3 38q0 52 -30 85t-87 33q-65 0 -102.5 -45.5t-37.5 -116.5q0 -46 26 -77t81 -31zM111 154q-1 -49 31.5 -73.5t86.5 -24.5q56 0 93 35t47 91l24 137q-63 -52 -140 -52q-76 0 -123.5 45t-47.5 116q0 108 62.5 173.5t166.5 65.5
q84 0 134 -46t50 -129q0 -26 -4 -49l-45 -254q-16 -94 -72.5 -146.5t-150.5 -52.5q-80 0 -131.5 40t-50.5 114q0 43 37 43q13 0 23 -8.5t10 -24.5z" />
    <glyph glyph-name="colon" unicode=":" horiz-adv-x="235" 
d="M25 32q0 24 15.5 41t39.5 17q20 0 33 -12t13 -31q0 -23 -16 -40t-41 -17q-20 0 -32 11.5t-12 30.5zM96 440q0 24 16 41.5t40 17.5q20 0 32.5 -12t12.5 -32q0 -24 -15.5 -40.5t-40.5 -16.5q-20 0 -32.5 11.5t-12.5 30.5z" />
    <glyph glyph-name="semicolon" unicode=";" horiz-adv-x="255" 
d="M111 440q0 24 16 41.5t40 17.5q21 0 33.5 -12t12.5 -32q0 -24 -16 -40.5t-40 -16.5q-20 0 -33 11.5t-13 30.5zM125 29l-81 -115q-9 -13 -24 -13q-14 0 -20.5 11t-0.5 24l58 131q11 23 36 23t35.5 -20.5t-3.5 -40.5z" />
    <glyph glyph-name="less" unicode="&#x3c;" horiz-adv-x="490" 
d="M374 167l-293 118q-31 11 -31 41q0 29 31 42l293 118q16 6 30.5 -3t14.5 -28q0 -20 -22 -29l-254 -98l255 -101q21 -7 21 -29q0 -19 -14 -28.5t-31 -2.5z" />
    <glyph glyph-name="equal" unicode="=" horiz-adv-x="561" 
d="M90 424q0 15 9 24.5t23 9.5h324q15 0 23.5 -9.5t8.5 -24.5q0 -14 -8.5 -23t-23.5 -9h-324q-14 0 -23 9t-9 23zM90 233q0 15 9 24.5t23 9.5h324q15 0 23.5 -9.5t8.5 -24.5q0 -14 -8.5 -23t-23.5 -9h-324q-14 0 -23 9t-9 23z" />
    <glyph glyph-name="greater" unicode="&#x3e;" horiz-adv-x="482" 
d="M121 483l293 -118q31 -11 31 -41q0 -29 -31 -42l-293 -118q-16 -6 -30.5 3t-14.5 28q0 20 22 29l254 98l-255 101q-21 7 -21 29q0 19 14 28.5t31 2.5z" />
    <glyph glyph-name="question" unicode="?" horiz-adv-x="477" 
d="M145 485q-6 -27 -36 -27q-17 0 -26 13t-5 29q18 77 76 122t148 45q75 0 125.5 -39.5t50.5 -102.5q0 -72 -66 -136q-13 -13 -63 -55q-6 -5 -22.5 -19t-22.5 -19t-18 -17.5t-18 -22t-13 -24t-12 -30.5l-4 -14q-7 -23 -32 -23q-13 0 -20.5 9.5t-7.5 24.5v11q0 40 33.5 81
t92.5 91q4 4 18 15t19.5 16t17 15.5t16.5 18.5t11.5 19t9 23t2.5 25q0 39 -28 62t-80 23q-59 0 -96.5 -30.5t-49.5 -83.5zM136 32q0 25 15.5 41.5t40.5 16.5q20 0 32.5 -12t12.5 -31q0 -23 -16 -40t-39 -17q-21 0 -33.5 11.5t-12.5 30.5z" />
    <glyph glyph-name="at" unicode="@" horiz-adv-x="795" 
d="M579 394l-85 -244q-11 -33 -11 -51q0 -54 69 -54q48 0 74 34.5t38 100.5l25 140q3 15 3 45q0 90 -65 140.5t-183 50.5q-127 0 -212 -64t-104 -172l-31 -177q-4 -21 -4 -46q0 -91 62 -140.5t177 -49.5h62q12 0 20 -7.5t8 -19.5q0 -15 -10 -24t-25 -9h-65q-136 0 -213.5 65
t-77.5 179q0 31 6 64l27 153q26 146 123 227t267 81q141 0 221 -66t80 -180q0 -31 -6 -62l-20 -116q-18 -108 -64 -155t-123 -47q-47 0 -82 24.5t-35 66.5q0 7 2 17q-49 -59 -115 -59q-43 0 -72 25.5t-29 67.5q0 30 10 56l34 93q27 73 63 108t99 35q31 0 59.5 -15t37.5 -40
l16 30q11 22 29 22q12 0 18 -8t2 -19zM335 91q34 0 64 25.5t43 62.5l37 104q6 18 6 31q0 26 -18 41t-52 15q-33 0 -59 -24.5t-40 -64.5l-35 -100q-8 -24 -8 -39q0 -51 62 -51z" />
    <glyph glyph-name="A" unicode="A" horiz-adv-x="547" 
d="M125 155l-69 -138q-9 -22 -31 -22q-19 0 -29 16.5t0 34.5l293 581q17 35 51 35q38 0 43 -38l90 -587q2 -17 -9.5 -29.5t-29.5 -12.5q-15 0 -25 10t-12 26l-18 124h-254zM323 558l-166 -337h214z" />
    <glyph glyph-name="B" unicode="B" horiz-adv-x="558" 
d="M71 0q-17 0 -26.5 11t-6.5 27l104 585q5 34 41 34h172q80 0 127.5 -41t47.5 -107q0 -126 -131 -171v-1q44 -13 69 -48.5t25 -83.5q0 -93 -63.5 -149t-167.5 -56h-191zM309 305h-148l-43 -241h145q69 0 110.5 38.5t41.5 101.5q0 46 -28 73.5t-78 27.5zM340 593h-129
l-40 -225h134q66 0 106.5 36t40.5 95q0 44 -28 69t-84 25z" />
    <glyph glyph-name="C" unicode="C" horiz-adv-x="543" 
d="M469 171q-17 -85 -77.5 -133t-152.5 -48q-85 0 -139 45.5t-54 123.5q0 12 4 40l45 259q17 98 79.5 153.5t162.5 55.5q84 0 139.5 -49t47.5 -135q-3 -35 -36 -35q-35 0 -35 36q0 115 -123 115q-63 0 -106 -39t-54 -101l-45 -261q-3 -16 -3 -31q0 -50 32.5 -79.5
t92.5 -29.5q63 0 103.5 33.5t51.5 93.5q7 31 35 31q17 0 26.5 -13t5.5 -32z" />
    <glyph glyph-name="D" unicode="D" horiz-adv-x="574" 
d="M71 0q-17 0 -26.5 11t-6.5 27l104 585q5 34 41 34h170q83 0 136 -47t53 -125q0 -14 -4 -42l-40 -229q-18 -102 -82.5 -158t-173.5 -56h-171zM341 589h-130l-93 -521h134q68 0 113 40t57 105l42 231q3 18 3 33q0 52 -32.5 82t-93.5 30z" />
    <glyph glyph-name="E" unicode="E" horiz-adv-x="511" 
d="M183 657h304q14 0 23.5 -9t9.5 -23q0 -16 -11 -26t-26 -10h-272l-39 -220h241q14 0 23 -8.5t9 -22.5q0 -16 -11 -26t-25 -10h-249l-42 -234h274q14 0 23.5 -9t9.5 -23q0 -16 -11 -26t-26 -10h-317q-18 0 -27 10.5t-6 27.5l104 585q5 34 41 34z" />
    <glyph glyph-name="F" unicode="F" horiz-adv-x="497" 
d="M183 657h305q14 0 23 -9t9 -23q0 -17 -10.5 -26.5t-25.5 -9.5h-273l-42 -237h241q13 0 22.5 -9t9.5 -23q0 -16 -11 -26t-26 -10h-248l-45 -255q-5 -34 -38 -34q-19 0 -29.5 11.5t-6.5 29.5l104 587q5 34 41 34z" />
    <glyph glyph-name="G" unicode="G" horiz-adv-x="549" 
d="M416 259h-95q-12 0 -20.5 8.5t-8.5 20.5q0 15 10 24t24 9h132q17 0 26 -11t6 -28l-16 -93q-16 -93 -76.5 -146t-157.5 -53q-85 0 -139.5 45.5t-54.5 124.5q0 17 4 39l45 259q17 98 80 153.5t163 55.5q84 0 141.5 -45.5t48.5 -126.5q-3 -35 -36 -35q-16 0 -26 10t-10 26
q1 46 -31 74.5t-96 28.5q-63 0 -105.5 -39t-53.5 -101l-45 -261q-3 -16 -3 -30q0 -50 33 -80t95 -30q64 0 104.5 35.5t49.5 93.5z" />
    <glyph glyph-name="H" unicode="H" horiz-adv-x="585" 
d="M562 621l-104 -589q-7 -37 -38 -37q-18 0 -28.5 11.5t-7.5 29.5l46 266h-270l-48 -273q-5 -34 -38 -34q-19 0 -29.5 11.5t-6.5 29.5l105 592q5 34 38 34q18 0 28.5 -11.5t6.5 -29.5l-44 -252h271l46 259q5 34 38 34q18 0 28.5 -11.5t6.5 -29.5z" />
    <glyph glyph-name="I" unicode="I" horiz-adv-x="239" 
d="M216 621l-104 -592q-5 -34 -38 -34q-18 0 -29 11.5t-7 29.5l105 592q5 34 38 34q18 0 28.5 -11.5t6.5 -29.5z" />
    <glyph glyph-name="J" unicode="J" horiz-adv-x="485" 
d="M78 173q-5 -55 22 -85t84 -30q52 0 85.5 32.5t42.5 87.5l79 450q5 34 39 34q18 0 28 -11.5t7 -29.5l-78 -442q-16 -90 -69 -139.5t-141 -49.5q-86 0 -134 53.5t-37 131.5q6 35 38 35q16 0 25.5 -10.5t8.5 -26.5z" />
    <glyph glyph-name="K" unicode="K" horiz-adv-x="537" 
d="M541 607l-200 -218l121 -348q5 -16 -6 -31t-29 -15q-28 0 -38 27l-107 308l-144 -155l-26 -146q-5 -34 -39 -34q-18 0 -28.5 11.5t-6.5 29.5l105 592q5 34 38 34q18 0 28.5 -11.5t6.5 -29.5l-58 -332l334 361q10 12 25 12q21 0 30 -19t-6 -36z" />
    <glyph glyph-name="L" unicode="L" horiz-adv-x="457" 
d="M365 0h-294q-18 0 -27 10.5t-6 27.5l105 590q5 34 38 34q18 0 28.5 -11.5t6.5 -29.5l-98 -553h255q32 0 32 -33q0 -17 -11.5 -26t-28.5 -9z" />
    <glyph glyph-name="M" unicode="M" horiz-adv-x="639" 
d="M617 623l-105 -595q-6 -33 -37 -33q-17 0 -27 11.5t-7 28.5l82 467l-184 -270q-13 -20 -33 -20q-21 0 -29 22l-87 269l-84 -476q-5 -32 -35 -32q-17 0 -26.5 11t-6.5 27l105 594q5 35 38 35q28 0 38 -29l104 -317l216 318q19 28 46 28q17 0 26 -11.5t6 -27.5z" />
    <glyph glyph-name="N" unicode="N" horiz-adv-x="582" 
d="M560 623l-105 -590q-2 -15 -13 -24.5t-27 -9.5q-27 0 -37 26l-187 486l-85 -484q-5 -32 -35 -32q-17 0 -26.5 11t-6.5 27l104 591q2 15 13.5 24.5t26.5 9.5q29 0 39 -27l186 -484l84 483q5 32 35 32q17 0 26.5 -11t7.5 -28z" />
    <glyph glyph-name="O" unicode="O" horiz-adv-x="559" 
d="M170 459l-45 -261q-3 -16 -3 -30q0 -50 32.5 -80t92.5 -30q63 0 105 39t54 101l45 261q3 15 3 30q0 50 -32.5 80t-92.5 30q-63 0 -105.5 -39t-53.5 -101zM525 458l-45 -259q-18 -97 -80.5 -153t-160.5 -56q-85 0 -139 46t-54 124q0 20 4 39l45 259q17 98 79.5 153.5
t162.5 55.5q84 0 137.5 -46t53.5 -124q0 -19 -3 -39z" />
    <glyph glyph-name="P" unicode="P" horiz-adv-x="544" 
d="M149 236l-37 -207q-7 -34 -38 -34q-18 0 -28.5 11.5t-7.5 29.5l104 585q7 36 42 36h158q88 0 141.5 -49t53.5 -128q0 -110 -72 -177t-189 -67h-127zM326 591h-115l-51 -289h120q79 0 129 47t50 122q0 56 -33.5 88t-99.5 32z" />
    <glyph glyph-name="Q" unicode="Q" horiz-adv-x="561" 
d="M526 458l-46 -259q-25 -140 -136 -189l50 -94q10 -20 -1.5 -39.5t-34.5 -19.5q-26 0 -36 22l-58 112q-4 0 -12.5 -0.5t-12.5 -0.5q-85 0 -139 46t-54 124q0 20 4 39l45 259q17 98 79.5 153.5t163.5 55.5q83 0 137 -46.5t54 -123.5q0 -19 -3 -39zM171 459l-46 -261
q-3 -16 -3 -30q0 -50 32.5 -80t93.5 -30q62 0 104 39t54 101l45 261q3 15 3 30q0 50 -32.5 80t-92.5 30q-63 0 -105 -39t-53 -101z" />
    <glyph glyph-name="R" unicode="R" horiz-adv-x="555" 
d="M324 591h-113l-47 -266h120q78 0 127 41t49 108q0 55 -34 86t-102 31zM442 44q4 -18 -7 -33.5t-31 -15.5q-14 0 -24.5 8t-13.5 21l-62 237q-18 -2 -29 -2h-123l-40 -230q-5 -34 -38 -34q-19 0 -29.5 11.5t-6.5 29.5l104 585q7 36 42 36h158q87 0 142 -47.5t55 -125.5
t-43 -130t-116 -76z" />
    <glyph glyph-name="S" unicode="S" horiz-adv-x="524" 
d="M234 54q68 0 108 38t40 97q0 41 -23.5 64t-69.5 43l-86 38q-108 48 -108 145q0 84 58 136t159 52q82 0 136 -43.5t51 -124.5q-1 -16 -10.5 -26t-25.5 -10q-15 0 -25 10t-11 26q-5 104 -121 104q-63 0 -100.5 -30.5t-37.5 -79.5q0 -58 62 -86l98 -44q60 -27 95.5 -62
t35.5 -96q0 -98 -62.5 -156.5t-169.5 -58.5q-89 0 -149.5 44.5t-51.5 126.5q2 16 11.5 26t25.5 10q15 0 25 -9.5t9 -25.5q-2 -55 37 -81.5t100 -26.5z" />
    <glyph glyph-name="T" unicode="T" horiz-adv-x="459" 
d="M111 657h361q14 0 23 -9t9 -23q0 -17 -10.5 -26.5t-25.5 -9.5h-148l-98 -560q-5 -34 -38 -34q-19 0 -29.5 11.5t-6.5 29.5l98 553h-139q-14 0 -23.5 9t-9.5 23q0 16 11 26t26 10z" />
    <glyph glyph-name="U" unicode="U" horiz-adv-x="573" 
d="M557 621l-75 -422q-17 -97 -79 -153t-158 -56q-83 0 -136 46t-53 123q0 12 4 40l76 429q5 34 38 34q18 0 28.5 -11.5t6.5 -29.5l-74 -423q-3 -16 -3 -31q0 -50 31.5 -79.5t91.5 -29.5t100.5 39t51.5 101l76 430q5 34 39 34q18 0 28.5 -11.5t6.5 -29.5z" />
    <glyph glyph-name="V" unicode="V" horiz-adv-x="507" 
d="M530 613l-275 -583q-17 -35 -52 -35q-17 0 -28.5 11t-13.5 28l-70 586q-2 18 10.5 30t27.5 12t25.5 -9.5t12.5 -24.5l56 -512l244 524q8 22 32 22q19 0 29 -16t2 -33z" />
    <glyph glyph-name="W" unicode="W" horiz-adv-x="736" 
d="M754 615l-241 -589q-14 -31 -45 -31q-16 0 -25.5 9t-9.5 25l-25 492l-198 -494q-12 -32 -45 -32t-35 34l-34 597q-1 15 10 25.5t26 10.5q14 0 24.5 -10t11.5 -26l23 -489l196 492q12 33 45 33q16 0 25.5 -10t10.5 -26l22 -488l201 502q8 22 34 22q16 0 26 -14.5t3 -32.5z
" />
    <glyph glyph-name="X" unicode="X" horiz-adv-x="483" 
d="M292 338l112 -295q7 -17 -4 -32.5t-30 -15.5q-23 0 -34 23l-97 254l-190 -264q-9 -13 -26 -13q-21 0 -30 18.5t3 34.5l212 287l-105 277q-7 18 3.5 34t30.5 16q25 0 35 -24l90 -238l180 247q12 15 27 15q20 0 29 -18t-3 -34z" />
    <glyph glyph-name="Y" unicode="Y" horiz-adv-x="485" 
d="M509 612l-234 -349l-41 -234q-7 -34 -38 -34q-19 0 -29.5 11.5t-6.5 29.5l40 226l-111 352q-5 17 5.5 32.5t29.5 15.5q28 0 35 -26l90 -301l204 311q10 16 28 16q19 0 29 -17t-1 -33z" />
    <glyph glyph-name="Z" unicode="Z" horiz-adv-x="462" 
d="M389 36q0 -17 -10.5 -26.5t-25.5 -9.5h-335q-29 0 -29 28q0 15 19 41l369 521h-243q-13 0 -22.5 8.5t-9.5 22.5q0 16 11 26t25 10h314q29 0 29 -27q0 -15 -20 -42l-369 -521h265q14 0 23 -8.5t9 -22.5z" />
    <glyph glyph-name="bracketleft" unicode="[" horiz-adv-x="303" 
d="M97 -43h74q32 0 32 -33q0 -17 -11.5 -26t-28.5 -9h-116q-17 0 -25.5 10t-5.5 26l143 804q7 36 43 36h112q32 0 32 -33q0 -17 -11.5 -26t-28.5 -9h-78z" />
    <glyph glyph-name="backslash" unicode="\" horiz-adv-x="426" 
d="M187 740l140 -814q4 -17 -7 -29.5t-27 -12.5q-13 0 -22.5 8.5t-11.5 21.5l-141 810q-3 18 6 32t27 14q13 0 23.5 -8.5t12.5 -21.5z" />
    <glyph glyph-name="bracketright" unicode="]" horiz-adv-x="303" 
d="M221 697h-74q-32 0 -32 33q0 17 11.5 26t28.5 9h116q17 0 25.5 -10t5.5 -26l-143 -804q-7 -36 -43 -36h-112q-32 0 -32 33q0 17 11.5 26t28.5 9h78z" />
    <glyph glyph-name="asciicircum" unicode="^" horiz-adv-x="391" 
d="M269 403l-74 170l-75 -169q-10 -20 -30 -20q-18 0 -26.5 14.5t-0.5 30.5l93 206q14 27 39 27q28 0 40 -27l92 -205q8 -15 -1 -30.5t-27 -15.5q-21 0 -30 19z" />
    <glyph glyph-name="underscore" unicode="_" horiz-adv-x="696" 
d="M5 -59q0 12 8 20.5t20 8.5h511q12 0 19.5 -8t7.5 -20t-8 -20.5t-20 -8.5h-510q-13 0 -20.5 8t-7.5 20z" />
    <glyph glyph-name="grave" unicode="`" horiz-adv-x="203" 
d="M194 685l76 -91q10 -12 4.5 -27.5t-22.5 -15.5q-10 0 -18 8l-88 79q-15 14 -7 35.5t30 21.5q16 0 25 -10z" />
    <glyph glyph-name="a" unicode="a" 
d="M455 461l-76 -436q-7 -30 -32 -30q-27 0 -28 26v36q-56 -67 -140 -67q-66 0 -106 38t-40 104q0 17 3 38l26 148q15 86 63.5 133.5t131.5 47.5q39 0 74.5 -18t53.5 -48l14 39q10 22 32 22q13 0 19.5 -9.5t4.5 -23.5zM201 54q51 0 87 34t45 87l24 138q3 13 3 25
q0 44 -26.5 70t-74.5 26q-50 0 -82.5 -31.5t-41.5 -81.5l-28 -154q-3 -12 -3 -25q0 -40 25 -64t72 -24z" />
    <glyph glyph-name="b" unicode="b" 
d="M223 54q49 0 81.5 31.5t41.5 81.5l27 154q3 13 3 26q0 39 -24.5 63t-71.5 24q-51 0 -86.5 -34t-45.5 -87l-25 -138q-3 -13 -3 -26q0 -42 27.5 -68.5t75.5 -26.5zM97 56l-14 -38q-9 -23 -32 -23q-31 0 -26 32l109 622q7 33 37 33q18 0 28 -11.5t6 -29.5l-35 -202
q54 60 133 60q65 0 105.5 -38.5t40.5 -103.5q0 -20 -4 -39l-26 -148q-33 -180 -196 -180q-38 0 -73.5 18t-52.5 48z" />
    <glyph glyph-name="c" unicode="c" horiz-adv-x="469" 
d="M394 131q-42 -141 -193 -141q-74 0 -121 41.5t-47 113.5q0 19 3 38l22 126q15 90 69.5 140t142.5 50q67 0 115 -37.5t46 -103.5q-2 -40 -34 -40q-15 0 -24.5 9t-9.5 24q0 40 -26.5 62.5t-75.5 22.5q-51 0 -86 -34t-44 -88l-24 -136q-3 -15 -3 -28q0 -44 26.5 -71
t76.5 -27q93 0 123 95q9 28 33 28q17 0 26.5 -13.5t4.5 -30.5z" />
    <glyph glyph-name="d" unicode="d" 
d="M203 54q50 0 85.5 34.5t44.5 86.5l24 138q3 13 3 25q0 43 -27 69.5t-76 26.5t-81 -31.5t-41 -81.5l-28 -154q-3 -12 -3 -25q0 -40 25.5 -64t73.5 -24zM487 641l-108 -616q-7 -30 -32 -30q-27 0 -28 26v36q-56 -67 -138 -67q-66 0 -107.5 38.5t-41.5 102.5q0 13 4 39
l26 148q31 181 192 181q37 0 72.5 -16t53.5 -44l37 210q5 33 37 33q17 0 26.5 -11.5t6.5 -29.5z" />
    <glyph glyph-name="e" unicode="e" horiz-adv-x="471" 
d="M131 316l-5 -25h227l5 25q3 15 3 29q0 43 -26 68.5t-74 25.5q-51 0 -85 -34t-45 -89zM390 125q-18 -62 -66.5 -98.5t-122.5 -36.5t-122 39.5t-48 107.5q0 17 3 35l24 137q15 89 70 139.5t141 50.5q70 0 115 -41t45 -111q0 -16 -4 -38l-7 -39q-2 -15 -13 -25t-27 -10h-261
l-13 -70q-2 -16 -2 -24q0 -42 27.5 -67t77.5 -25q94 0 121 93q8 27 32 27q19 0 27 -13t3 -31z" />
    <glyph glyph-name="f" unicode="f" horiz-adv-x="326" 
d="M203 425l-70 -398q-5 -32 -36 -32q-18 0 -28 11t-7 28l69 391h-49q-12 0 -21 8t-9 21q0 14 10 23t23 9h57l4 25q28 166 189 166h15q14 0 22.5 -8.5t8.5 -22.5t-9.5 -22.5t-23.5 -8.5h-18q-95 0 -110 -99l-6 -30h97q13 0 21.5 -8t8.5 -21q0 -15 -9.5 -23.5t-23.5 -8.5
h-105z" />
    <glyph glyph-name="g" unicode="g" 
d="M455 461l-86 -488q-14 -82 -66 -126t-138 -44q-61 0 -108 28t-48 87q-6 15 3 28.5t28 13.5q13 0 21 -8.5t10 -19.5q-1 -34 28.5 -51.5t73.5 -17.5q50 0 82.5 28.5t41.5 76.5l17 98q-55 -58 -131 -58q-67 0 -107 38t-40 103q0 18 3 39l23 130q15 86 63.5 133.5t131.5 47.5
q39 0 74.5 -18t53.5 -48l14 38q8 23 32 23q13 0 20 -9.5t4 -23.5zM205 72q51 0 86.5 34t44.5 87l21 120q3 13 3 26q0 43 -27 69t-75 26q-49 0 -81.5 -31.5t-41.5 -81.5l-25 -136q-2 -18 -2 -25q0 -40 24.5 -64t72.5 -24z" />
    <glyph glyph-name="h" unicode="h" horiz-adv-x="504" 
d="M206 643l-36 -204q55 60 137 60q64 0 103 -38t39 -103q0 -17 -3 -38l-52 -293q-5 -32 -37 -32q-17 0 -27 11t-7 28l50 287q3 13 3 26q0 39 -23.5 63t-68.5 24q-53 0 -89.5 -34t-46.5 -87l-50 -286q-5 -32 -37 -32q-18 0 -28 11t-7 28l108 616q7 32 37 32q18 0 28 -11
t7 -28z" />
    <glyph glyph-name="i" unicode="i" horiz-adv-x="213" 
d="M120 621q0 23 15 38.5t40 15.5q17 0 28.5 -11.5t11.5 -28.5q0 -24 -15.5 -39t-41.5 -15q-16 0 -27 11.5t-11 28.5zM172 454l-74 -427q-7 -32 -37 -32q-17 0 -27 11t-7 28l75 427q6 33 37 33q17 0 26.5 -11t6.5 -29z" />
    <glyph glyph-name="j" unicode="j" horiz-adv-x="213" 
d="M120 621q0 23 15 38.5t40 15.5q17 0 28.5 -11.5t11.5 -28.5q0 -24 -15.5 -39t-41.5 -15q-16 0 -27 11.5t-11 28.5zM172 454l-83 -474q-31 -177 -205 -177q-11 0 -20.5 9t-9.5 22q0 14 9.5 23t23.5 9h7q104 0 122 109l86 486q6 33 37 33q17 0 26.5 -11t6.5 -29z" />
    <glyph glyph-name="k" unicode="k" horiz-adv-x="468" 
d="M362 -5q-23 0 -33 22l-106 228l-104 -90l-21 -128q-5 -32 -37 -32q-17 0 -27 11t-7 28l108 616q5 32 36 32q18 0 28 -11t7 -28l-69 -391l265 232q12 10 23 10q20 0 28 -20t-8 -34l-165 -145l115 -248q8 -18 -2 -35t-31 -17z" />
    <glyph glyph-name="l" unicode="l" horiz-adv-x="222" 
d="M210 643l-108 -616q-5 -32 -36 -32q-18 0 -28 11t-7 28l108 616q5 32 37 32q17 0 27 -11t7 -28z" />
    <glyph glyph-name="m" unicode="m" horiz-adv-x="790" 
d="M27 35l75 428q5 31 32 31q29 0 29 -27l-1 -36q57 68 143 68q47 0 83.5 -24t47.5 -65q56 89 159 89q62 0 100.5 -38t38.5 -103q0 -17 -3 -38l-52 -292q-5 -33 -36 -33q-17 0 -27 11.5t-7 28.5l49 286q2 9 2 26q0 39 -22.5 63t-66.5 24q-50 0 -86.5 -33t-44.5 -82l-52 -291
q-5 -33 -36 -33q-17 0 -27 11.5t-7 28.5l50 286q2 18 2 26q0 39 -23 63t-66 24q-50 0 -86.5 -33t-45.5 -84l-52 -289q-5 -33 -36 -33q-17 0 -27 11.5t-7 28.5z" />
    <glyph glyph-name="n" unicode="n" horiz-adv-x="504" 
d="M446 320l-52 -293q-6 -32 -37 -32q-17 0 -27 11.5t-7 28.5l50 286q2 11 2 25q0 40 -23 64t-68 24q-52 0 -89.5 -34t-46.5 -87l-50 -285q-5 -33 -37 -33q-18 0 -28 11t-7 29l76 428q5 31 32 31q28 0 29 -27l-1 -36q57 68 144 68q65 0 104 -38t39 -102q0 -18 -3 -39z" />
    <glyph glyph-name="o" unicode="o" horiz-adv-x="479" 
d="M131 314l-25 -140q-3 -15 -3 -27q0 -43 26 -69t75 -26q50 0 85.5 34.5t44.5 87.5l25 140q3 15 3 27q0 44 -26 69.5t-74 25.5q-51 0 -86 -34t-45 -88zM430 309l-23 -130q-15 -89 -70 -139t-142 -50q-71 0 -117 41t-46 110q0 21 4 38l22 130q15 89 70 139.5t141 50.5
q72 0 118.5 -41t46.5 -111q0 -12 -4 -38z" />
    <glyph glyph-name="p" unicode="p" 
d="M163 466l-1 -34q57 67 140 67q66 0 106.5 -39t40.5 -104q0 -11 -4 -37l-25 -149q-33 -180 -194 -180q-36 0 -71.5 16t-52.5 43l-37 -209q-5 -32 -37 -32q-17 0 -27 11t-8 27l109 617q5 31 32 31q13 0 21.5 -7.5t7.5 -20.5zM281 434q-51 0 -87.5 -34t-45.5 -87l-24 -138
q-3 -15 -3 -26q0 -43 27 -69t76 -26t81.5 32t41.5 81l27 154q2 18 2 26q0 39 -24.5 63t-70.5 24z" />
    <glyph glyph-name="q" unicode="q" 
d="M345 -160q-5 -32 -36 -32q-17 0 -27 11t-7 27l35 203q-51 -59 -131 -59q-66 0 -106 38.5t-40 104.5q0 17 3 37l25 149q31 180 195 180q39 0 75 -18t53 -49l14 40q7 22 31 22q13 0 20.5 -9.5t5.5 -23.5zM259 434q-51 0 -83.5 -31t-41.5 -82l-27 -154q-2 -16 -2 -24
q0 -40 25 -64.5t73 -24.5q50 0 85.5 34.5t44.5 86.5l24 138q2 14 2 26q0 43 -26 69t-74 26z" />
    <glyph glyph-name="r" unicode="r" horiz-adv-x="312" 
d="M26 33l76 430q5 31 32 31q29 0 29 -29v-39q54 71 135 71q33 0 33 -32q0 -16 -10 -25.5t-25 -9.5q-61 0 -100 -33.5t-49 -88.5l-49 -281q-5 -32 -37 -32q-17 0 -27.5 11t-7.5 27z" />
    <glyph glyph-name="s" unicode="s" horiz-adv-x="446" 
d="M191 301l74 -25q110 -37 110 -122q0 -71 -51 -117.5t-140 -46.5q-65 0 -113.5 28t-56.5 84q-2 16 1 29q5 26 32 26q24 0 27 -23q6 -46 33 -65.5t83 -19.5q53 0 82.5 25t29.5 67q0 50 -53 67l-83 27q-42 14 -70.5 43t-28.5 73q0 62 50 105t131 43q59 0 104 -26t53 -79
q8 -51 -29 -51q-22 0 -27 25q-7 36 -35.5 54.5t-73.5 18.5q-40 0 -71.5 -20.5t-31.5 -58.5q0 -43 54 -61z" />
    <glyph glyph-name="t" unicode="t" horiz-adv-x="310" 
d="M290 425h-75l-70 -398q-5 -32 -37 -32q-17 0 -27 11t-7 28l69 391h-67q-12 0 -20.5 8t-8.5 21q0 14 10 23t23 9h74l18 106q5 32 37 32q17 0 27 -11t7 -28l-17 -99h68q12 0 20.5 -8t8.5 -21q0 -15 -9.5 -23.5t-23.5 -8.5z" />
    <glyph glyph-name="u" unicode="u" horiz-adv-x="499" 
d="M459 454l-76 -428q-5 -31 -32 -31q-26 0 -27 26l-1 36q-56 -67 -140 -67q-64 0 -103 37.5t-39 100.5q0 11 4 37l52 296q5 33 37 33q18 0 27.5 -11t6.5 -29l-51 -289q-2 -18 -2 -26q0 -39 23.5 -62t68.5 -23q50 0 85.5 34.5t44.5 86.5l51 286q6 33 37 33q17 0 27 -11
t7 -29z" />
    <glyph glyph-name="v" unicode="v" horiz-adv-x="455" 
d="M447 444l-224 -419q-15 -30 -47 -30q-33 0 -38 33l-76 423q-4 19 7.5 31t28.5 12q13 0 23.5 -9t12.5 -22l60 -364l193 375q10 20 29 20q20 0 30.5 -16t0.5 -34z" />
    <glyph glyph-name="w" unicode="w" horiz-adv-x="652" 
d="M642 444l-193 -420q-14 -29 -43 -29q-14 0 -23 8.5t-11 22.5l-33 341l-153 -343q-11 -29 -43 -29q-29 0 -32 31l-47 430q-1 14 10.5 26t26.5 12q14 0 25 -10.5t12 -24.5l27 -348l153 353q13 30 43 30q14 0 24 -9.5t11 -23.5l28 -350l155 360q10 23 32 23q19 0 29.5 -15.5
t1.5 -34.5z" />
    <glyph glyph-name="x" unicode="x" horiz-adv-x="435" 
d="M324 -5q-21 0 -31 21l-90 178l-158 -187q-9 -12 -27 -12q-20 0 -28 18.5t5 33.5l177 200l-101 195q-10 19 0 35.5t30 16.5q21 0 32 -21l88 -172l151 179q11 14 26 14q19 0 28.5 -17t-3.5 -33l-172 -196l105 -203q10 -18 -1 -34t-31 -16z" />
    <glyph glyph-name="y" unicode="y" horiz-adv-x="454" 
d="M447 442l-329 -617q-10 -17 -29 -17q-17 0 -26 15t0 31l79 147l-80 449q-3 17 8 30.5t28 13.5q14 0 24.5 -9.5t12.5 -23.5l59 -361l192 374q10 20 31 20q19 0 29.5 -17t0.5 -35z" />
    <glyph glyph-name="z" unicode="z" horiz-adv-x="425" 
d="M8 62l306 366h-216q-12 0 -20.5 8t-8.5 20q0 15 10 24t23 9h287q25 0 25 -25q0 -15 -19 -38l-306 -365h232q12 0 20.5 -8t8.5 -21q0 -15 -9.5 -23.5t-23.5 -8.5h-302q-25 0 -25 25q0 15 18 37z" />
    <glyph glyph-name="braceleft" unicode="{" horiz-adv-x="332" 
d="M54 299q-24 6 -24 29q0 28 30 32q63 6 76 84l27 150q15 82 58 124t123 46q15 1 24 -8.5t9 -23.5q0 -15 -10 -24t-24 -10q-88 -7 -104 -100l-27 -152q-15 -82 -82 -117q43 -35 43 -88q0 -17 -2 -28l-27 -156q-4 -20 -4 -31q0 -62 66 -71q13 -1 20.5 -10t7.5 -22
q0 -16 -11 -25.5t-25 -8.5q-61 2 -97 37.5t-36 95.5q0 12 4 38l27 156q3 18 3 25q0 48 -45 58z" />
    <glyph glyph-name="bar" unicode="|" horiz-adv-x="277" 
d="M181 737v-820q0 -15 -10 -24t-25 -9t-25 9t-10 24v820q0 15 10 24t25 9t25 -9t10 -24z" />
    <glyph glyph-name="braceright" unicode="}" horiz-adv-x="332" 
d="M293 355q24 -6 24 -29q0 -28 -30 -32q-63 -6 -76 -84l-27 -150q-15 -82 -58 -124t-123 -46q-15 -1 -24 8.5t-9 23.5q0 15 10 24t24 10q88 7 104 100l27 152q15 82 82 117q-43 35 -43 88q0 17 2 28l27 156q4 20 4 31q0 62 -66 71q-13 1 -20.5 10t-7.5 22q0 16 11 25.5
t25 8.5q61 -2 97 -37.5t36 -95.5q0 -12 -4 -38l-27 -156q-3 -18 -3 -25q0 -48 45 -58z" />
    <glyph glyph-name="asciitilde" unicode="~" horiz-adv-x="501" 
d="M456 352q-43 -79 -105 -79q-17 0 -34 6t-27 12t-30 19q-44 30 -70 30q-41 0 -79 -63q-7 -13 -25 -13q-17 0 -24.5 15t1.5 30q52 92 128 92q9 0 16.5 -1t16.5 -4t14 -4.5t14.5 -7t12 -7t13.5 -8.5l11 -7q43 -28 62 -28q28 0 57 47q9 14 24 14q17 0 24.5 -14.5t-0.5 -28.5z
" />
    <glyph glyph-name="uni00A0" unicode="&#xa0;" horiz-adv-x="211" 
 />
    <glyph glyph-name="exclamdown" unicode="&#xa1;" horiz-adv-x="221" 
d="M-1 -131l23 131l67 303q7 22 28 22q23 0 20 -23l-38 -302l-25 -139q-5 -34 -39 -34q-19 0 -29.5 11.5t-6.5 30.5zM190 457q0 -24 -16 -41t-40 -17q-20 0 -33 12t-13 31q0 23 16 40t41 17q20 0 32.5 -11.5t12.5 -30.5z" />
    <glyph glyph-name="cent" unicode="&#xa2;" horiz-adv-x="473" 
d="M233 76l-11 -61q-5 -29 -33 -29q-15 0 -22 9t-5 22l11 61q-56 9 -91.5 49t-35.5 100q0 11 4 37l23 130q31 172 189 188l10 61q5 28 33 28q15 0 22.5 -9t5.5 -22l-11 -60q54 -9 88.5 -44.5t34.5 -96.5q0 -17 -9 -28.5t-26 -11.5q-14 0 -23 9.5t-10 24.5q-5 88 -98 88
q-52 0 -88 -34t-45 -88l-25 -140q-3 -15 -3 -28q0 -43 26 -68.5t73 -25.5q51 0 84.5 27t45.5 72q7 27 32 27q16 0 24.5 -13t4.5 -30q-14 -60 -60 -99t-115 -45z" />
    <glyph glyph-name="sterling" unicode="&#xa3;" horiz-adv-x="554" 
d="M426 0h-394q-13 0 -22 8.5t-9 21.5q0 15 10 24.5t24 9.5h41l35 197h-35q-13 0 -21 8t-8 21q0 14 9.5 22.5t23.5 8.5h41l25 140q18 97 76 151.5t150 54.5q79 0 125 -51t37 -130q-5 -39 -36 -39q-16 0 -25.5 9.5t-8.5 27.5q5 117 -100 117q-56 0 -94 -38.5t-49 -99.5
l-26 -142h156q12 0 20 -8t8 -20q0 -14 -9.5 -23t-22.5 -9h-162l-35 -197h280q14 0 23 -8.5t9 -22.5q0 -15 -10.5 -24t-25.5 -9z" />
    <glyph glyph-name="currency" unicode="&#xa4;" horiz-adv-x="583" 
d="M552 541q19 -22 -3 -42l-85 -68q15 -28 15 -65q0 -21 -2 -33l-2 -9q-11 -61 -42 -101l48 -53q10 -12 9.5 -26.5t-12.5 -24.5t-27 -8t-25 15l-41 53q-46 -29 -111 -29q-64 0 -107 35l-78 -69q-24 -19 -42 3q-19 24 4 42l82 66q-14 30 -14 65q0 16 3 34l2 10q9 58 40 100
l-49 56q-22 27 4 49q12 11 25.5 9.5t23.5 -14.5l44 -56q47 29 113 29q62 0 106 -36l79 71q25 19 42 -3zM192 338l-2 -14q-3 -10 -3 -23q0 -41 25 -64.5t71 -23.5q49 0 81 30.5t41 78.5l3 15q3 11 3 23q0 39 -25 62.5t-71 23.5q-50 0 -82.5 -29.5t-40.5 -78.5z" />
    <glyph glyph-name="yen" unicode="&#xa5;" horiz-adv-x="532" 
d="M47 194q0 13 9 20.5t21 7.5h140l11 61l-6 17h-126q-11 0 -18.5 7t-7.5 18q0 13 9 20.5t21 7.5h104l-87 262q-5 17 5 32t29 15q29 0 35 -26l89 -283h1l197 293q10 16 28 16t27 -16.5t-2 -32.5l-179 -260h100q11 0 18.5 -6.5t7.5 -18.5q0 -13 -9.5 -20.5t-20.5 -7.5h-132
l-11 -16l-11 -62h135q11 0 18.5 -6.5t7.5 -18.5q0 -13 -9.5 -20.5t-20.5 -7.5h-140l-25 -142q-5 -32 -37 -32q-18 0 -28 11t-6 28l24 135h-135q-11 0 -18.5 7t-7.5 18z" />
    <glyph glyph-name="brokenbar" unicode="&#xa6;" horiz-adv-x="291" 
d="M115 436v298q0 16 11 26t27 10t27 -10t11 -26v-298q0 -16 -11 -26t-27 -10t-27 10t-11 26zM115 -80v298q0 16 10.5 26t26.5 10q17 0 28 -10t11 -26v-298q0 -16 -11 -26t-27 -10t-27 10t-11 26z" />
    <glyph glyph-name="section" unicode="&#xa7;" horiz-adv-x="512" 
d="M414 230l-213 99q-108 49 -108 145q0 84 59 138.5t158 54.5q82 0 131.5 -45t45.5 -123q-2 -38 -35 -38q-15 0 -25.5 9t-9.5 27q2 54 -28 81t-86 27q-62 0 -99.5 -33t-37.5 -83q0 -62 60 -90l140 -65q41 -19 61.5 -38t18.5 -47q-1 -11 -10 -18t-22 -1zM80 240l213 -99
q108 -49 108 -145q0 -84 -59 -138.5t-158 -54.5q-82 0 -131.5 45t-45.5 123q2 38 35 38q15 0 25.5 -9t9.5 -27q-2 -54 28 -81t86 -27q62 0 99.5 33t37.5 83q0 62 -60 90l-140 65q-41 19 -61.5 38t-18.5 47q1 11 10 18t22 1z" />
    <glyph glyph-name="dieresis" unicode="&#xa8;" horiz-adv-x="240" 
d="M126 600q0 21 14 35.5t35 14.5q17 0 28 -10.5t11 -26.5q0 -22 -13 -36.5t-36 -14.5q-16 0 -27.5 11.5t-11.5 26.5zM240 600q0 21 14 35.5t34 14.5q18 0 29 -10.5t11 -26.5q0 -22 -13.5 -36.5t-37.5 -14.5q-15 0 -26 11.5t-11 26.5z" />
    <glyph glyph-name="copyright" unicode="&#xa9;" horiz-adv-x="779" 
d="M57 327q0 141 99.5 240.5t240.5 99.5t240.5 -99.5t99.5 -240.5t-100 -239.5t-241 -98.5t-240 98.5t-99 239.5zM112 327q0 -119 83 -203t201 -84q119 0 202.5 84t83.5 203t-83.5 204t-201.5 85t-201.5 -85t-83.5 -204zM511 280q14 0 23 -10.5t7 -25.5q-6 -50 -45.5 -80.5
t-100.5 -30.5q-67 0 -109 40.5t-42 108.5v93q0 68 41.5 108t109.5 40q60 0 99 -29.5t46 -76.5q2 -15 -6 -26t-23 -11q-25 0 -30 25q-5 26 -26.5 44t-58.5 18q-40 0 -63.5 -24.5t-23.5 -63.5v-101q0 -39 23.5 -64t63.5 -25q74 0 85 64q5 27 30 27z" />
    <glyph glyph-name="ordfeminine" unicode="&#xaa;" horiz-adv-x="319" 
d="M313 635l-36 -202q-4 -25 -26 -25q-23 0 -23 22v7q-26 -29 -62 -29q-34 0 -54 19.5t-20 52.5q0 7 2 21l13 68q17 93 95 93q19 0 36 -8t24 -21l4 11q6 18 25 18q11 0 17.5 -7.5t4.5 -19.5zM185 455q19 0 32.5 13t17.5 34l11 65q1 4 1 12q0 36 -39 36q-38 0 -47 -46
l-12 -68q-1 -5 -1 -12q0 -34 37 -34z" />
    <glyph glyph-name="guillemotleft" unicode="&#xab;" horiz-adv-x="325" 
d="M171 87l-16 110q-3 15 -3 16q-3 24 13 52l62 123q7 15 24 15q12 0 19.5 -11t1.5 -23l-61 -136l14 -141q1 -12 -7 -20.5t-19 -8.5t-19 7t-9 17zM71 86l-20 111q-2 10 -2 16q-3 24 13 52l65 123q7 15 23 15q13 0 20 -11.5t1 -23.5l-64 -135l17 -140q2 -12 -6 -21t-20 -9
q-23 0 -27 23z" />
    <glyph glyph-name="logicalnot" unicode="&#xac;" horiz-adv-x="539" 
d="M69 328q0 14 8.5 23.5t22.5 9.5h324q31 0 31 -31v-150q0 -16 -10 -25.5t-26 -9.5t-26 9.5t-10 25.5v115h-283q-14 0 -22.5 9.5t-8.5 23.5z" />
    <glyph glyph-name="uni00AD" unicode="&#xad;" horiz-adv-x="368" 
d="M58 261q0 15 11 24.5t25 9.5h177q13 0 22 -8.5t9 -21.5q0 -16 -10.5 -25.5t-24.5 -9.5h-177q-14 0 -23 9t-9 22z" />
    <glyph glyph-name="registered" unicode="&#xae;" horiz-adv-x="523" 
d="M85 460q0 86 60 146.5t145 60.5q86 0 146.5 -60.5t60.5 -146.5q0 -85 -60.5 -145t-146.5 -60q-85 0 -145 60t-60 145zM130 460q0 -68 46.5 -115.5t113.5 -47.5q68 0 115 47.5t47 115.5t-47.5 116.5t-114.5 48.5t-113.5 -48.5t-46.5 -116.5zM298 534h-41v-66h41
q37 0 37 34q0 32 -37 32zM343 441l27 -64q5 -11 -1 -21.5t-20 -10.5q-16 0 -20 15l-29 72h-43v-65q0 -22 -22 -22q-21 0 -21 22v182q0 22 22 22h66q35 0 57 -18.5t22 -49.5q0 -44 -38 -62z" />
    <glyph glyph-name="macron" unicode="&#xaf;" horiz-adv-x="275" 
d="M120 598q0 13 9 21t20 8h191q11 0 18.5 -7t7.5 -19t-9 -20t-20 -8h-191q-11 0 -18.5 7.5t-7.5 17.5z" />
    <glyph glyph-name="degree" unicode="&#xb0;" horiz-adv-x="415" 
d="M88 509q0 65 46 111.5t110 46.5q66 0 112.5 -46.5t46.5 -111.5t-46.5 -111t-112.5 -46q-65 0 -110.5 46t-45.5 111zM150 509q0 -42 27.5 -71.5t66.5 -29.5q41 0 69 29.5t28 71.5t-28 71.5t-69 29.5q-39 0 -66.5 -29.5t-27.5 -71.5z" />
    <glyph glyph-name="plusminus" unicode="&#xb1;" horiz-adv-x="539" 
d="M299 500v-102h134q12 0 19.5 -8t7.5 -21t-7.5 -21t-19.5 -8h-134v-101q0 -15 -10 -24t-26 -9q-15 0 -24.5 9t-9.5 24v101h-133q-27 0 -27 29t27 29h133v102q0 16 9.5 25t24.5 9q16 0 26 -9t10 -25zM69 137q0 12 7 20t19 8h336q12 0 19 -8t7 -20q0 -27 -26 -27h-336
q-26 0 -26 27z" />
    <glyph glyph-name="twosuperior" unicode="&#xb2;" horiz-adv-x="282" 
d="M167 721q-7 -19 -27 -19q-15 0 -20.5 10.5t-1.5 24.5q10 33 40 54.5t73 21.5q40 0 67 -22t27 -57q0 -66 -78 -113l-65 -38q-33 -20 -40 -52h131q10 0 17 -7t7 -17q0 -13 -8.5 -20t-19.5 -7h-168q-29 0 -27 31q5 66 79 110l63 38q50 30 50 66q0 38 -44 38q-40 0 -55 -42z
" />
    <glyph glyph-name="threesuperior" unicode="&#xb3;" horiz-adv-x="280" 
d="M135 560q5 -36 47 -36q27 0 42.5 17t15.5 46q0 41 -52 41q-8 0 -14 6t-6 15q0 11 6.5 17t16.5 6q41 0 55 14.5t14 41.5q0 36 -43 36q-39 0 -52 -39q-6 -19 -27 -19q-13 0 -20 10.5t-3 23.5q8 30 38 52t73 22q40 0 66.5 -21t26.5 -56q0 -61 -56 -87q35 -19 35 -61
q0 -52 -32.5 -82.5t-88.5 -30.5q-45 0 -70.5 22.5t-25.5 57.5q0 12 7.5 20t19.5 8q24 0 27 -24z" />
    <glyph glyph-name="acute" unicode="&#xb4;" horiz-adv-x="203" 
d="M261 623l-97 -66q-8 -5 -15 -5q-18 0 -23.5 17t7.5 28l85 78q9 9 22 9q24 0 32.5 -22.5t-11.5 -38.5z" />
    <glyph glyph-name="mu" unicode="&#xb5;" horiz-adv-x="499" 
d="M467 454l-76 -428q-5 -31 -32 -31t-28 26v36q-57 -67 -141 -67q-63 0 -94 37l-26 -175l-2 -11q-6 -33 -39 -33q-17 0 -26 10t-5 28l107 615q5 33 37 33q18 0 27.5 -11t6.5 -29l-50 -289q-3 -13 -3 -27q0 -84 90 -84q51 0 87 33.5t46 86.5l50 287q6 33 37 33q17 0 27 -11
t7 -29z" />
    <glyph glyph-name="paragraph" unicode="&#xb6;" horiz-adv-x="510" 
d="M488 621l-125 -704q-5 -33 -38 -33q-18 0 -28 11t-7 29l118 670h-57l-60 -334q-6 -34 -41 -34q-77 0 -132.5 47.5t-55.5 128.5q0 120 78 187.5t208 67.5h109q17 0 25.5 -10t5.5 -26z" />
    <glyph glyph-name="periodcentered" unicode="&#xb7;" horiz-adv-x="226" 
d="M61 266q0 24 16 41t40 17q20 0 33 -12t13 -31q0 -23 -16 -40t-41 -17q-20 0 -32.5 11.5t-12.5 30.5z" />
    <glyph glyph-name="cedilla" unicode="&#xb8;" horiz-adv-x="239" 
d="M63 -63l45 95l41 -16l-29 -61h12q33 0 51.5 -16t18.5 -43q0 -39 -25 -61t-70 -22h-77q-21 0 -21 20q0 11 7.5 17.5t18.5 6.5h80q34 0 34 32q0 22 -26 22h-41q-4 0 -8 2q-19 5 -11 24z" />
    <glyph glyph-name="onesuperior" unicode="&#xb9;" horiz-adv-x="220" 
d="M219 481h-131q-9 0 -16 6.5t-7 16.5q0 12 8 19t18 7h39l41 229h-32q-25 0 -25 25q0 11 8 18t19 7h64q14 0 21 -8t5 -22l-44 -249h35q10 0 17 -7t7 -17q0 -11 -8 -18t-19 -7z" />
    <glyph glyph-name="ordmasculine" unicode="&#xba;" horiz-adv-x="308" 
d="M301 564l-11 -59q-8 -46 -36 -72t-74 -26q-37 0 -62.5 21.5t-25.5 57.5q0 5 2 19l10 59q8 46 36 72t74 26q37 0 62.5 -22t25.5 -58q0 -12 -1 -18zM160 569l-13 -68q-1 -4 -1 -11q0 -36 39 -36q19 0 32.5 13t17.5 34l13 68v10q0 37 -40 37q-39 0 -48 -47z" />
    <glyph glyph-name="guillemotright" unicode="&#xbb;" horiz-adv-x="325" 
d="M136 379l16 -110q3 -15 3 -16q3 -24 -13 -52l-62 -123q-8 -15 -24 -15q-12 0 -19.5 11t-1.5 23l61 136l-14 141q-1 12 7 20.5t19 8.5t19 -7t9 -17zM236 380l20 -111q2 -10 2 -16q3 -24 -13 -52l-65 -123q-8 -15 -23 -15q-13 0 -20 11.5t-1 23.5l64 135l-17 140
q-2 12 6 21t20 9q23 0 27 -23z" />
    <glyph glyph-name="onequarter" unicode="&#xbc;" horiz-adv-x="618" 
d="M499 72l-10 -52q-5 -25 -28 -25q-14 0 -21.5 8.5t-5.5 22.5l8 46h-115q-30 0 -30 32q0 7 3 14t4.5 9.5t8.5 10.5t8 9l135 158q23 28 53 28q16 0 24.5 -9t6.5 -23l-33 -182h15q8 0 14.5 -6t6.5 -16q0 -12 -7.5 -18.5t-18.5 -6.5h-18zM355 119h96l25 142zM215 329h-131
q-9 0 -16 6.5t-7 16.5q0 12 8 19t18 7h39l41 229h-32q-25 0 -25 25q0 11 8 18t19 7h64q14 0 21 -8t5 -22l-44 -249h35q10 0 17 -7t7 -17q0 -11 -8 -18t-19 -7zM343 309l-232 -302q-7 -12 -23 -12t-22 14.5t3 26.5l228 293l247 324q7 9 19 9q15 0 23 -14t-1 -28z" />
    <glyph glyph-name="onehalf" unicode="&#xbd;" horiz-adv-x="631" 
d="M412 241q-7 -19 -27 -19q-15 0 -20.5 10.5t-1.5 24.5q10 33 40 54.5t73 21.5q40 0 67 -22t27 -57q0 -67 -78 -113l-65 -38q-33 -20 -40 -52h131q10 0 17 -7t7 -17q0 -13 -8.5 -20t-19.5 -7h-168q-29 0 -27 31q5 66 79 110l63 38q50 30 50 66q0 38 -44 38q-40 0 -55 -42z
M215 329h-131q-9 0 -16 6.5t-7 16.5q0 12 8 19t18 7h39l41 229h-32q-25 0 -25 25q0 11 8 18t19 7h64q14 0 21 -8t5 -22l-44 -249h35q10 0 17 -7t7 -17q0 -11 -8 -18t-19 -7zM343 309l-232 -302q-7 -12 -23 -12t-22 14.5t3 26.5l228 293l247 324q7 9 19 9q15 0 23 -14t-1 -28
z" />
    <glyph glyph-name="threequarters" unicode="&#xbe;" horiz-adv-x="620" 
d="M500 72l-10 -52q-5 -25 -28 -25q-14 0 -21.5 8.5t-5.5 22.5l8 46h-115q-30 0 -30 32q0 7 3 14t4.5 9.5t8.5 10.5t8 9l135 158q23 28 53 28q16 0 24.5 -9t6.5 -23l-33 -182h15q8 0 14.5 -6t6.5 -16q0 -12 -7.5 -18.5t-18.5 -6.5h-18zM356 119h96l25 142zM346 311
l-232 -302q-8 -12 -23 -12q-16 0 -22 14.5t3 26.5l228 293l247 324q7 9 19 9q15 0 23 -14t-1 -28zM128 413q5 -36 47 -36q27 0 42.5 17t15.5 46q0 41 -52 41q-8 0 -14 6t-6 15q0 11 6.5 17t16.5 6q41 0 55 14.5t14 41.5q0 36 -43 36q-39 0 -52 -39q-6 -19 -27 -19
q-13 0 -20 10.5t-3 23.5q8 30 38 52t73 22q40 0 66.5 -21t26.5 -56q0 -61 -56 -87q35 -19 35 -61q0 -52 -32.5 -82.5t-88.5 -30.5q-45 0 -70.5 22.5t-25.5 57.5q0 12 7.5 20t19.5 8q24 0 27 -24z" />
    <glyph glyph-name="questiondown" unicode="&#xbf;" horiz-adv-x="472" 
d="M316 4q6 27 36 27q17 0 26 -13t5 -29q-18 -77 -76 -122t-148 -45q-75 0 -125.5 39.5t-50.5 102.5q0 72 66 136q13 13 63 55q6 5 22.5 19t22.5 19t18 17.5t18 22t13 24t12 30.5l4 14q7 23 32 23q13 0 20.5 -9.5t7.5 -24.5v-11q0 -40 -33.5 -81t-92.5 -91q-4 -4 -18 -15
t-19.5 -16t-17 -15.5t-16.5 -18.5t-11.5 -19t-9 -23t-2.5 -25q0 -39 28 -62t80 -23q59 0 96.5 30.5t49.5 83.5zM325 457q0 -25 -15.5 -41.5t-40.5 -16.5q-20 0 -32.5 12t-12.5 31q0 23 16 40t39 17q21 0 33.5 -11.5t12.5 -30.5z" />
    <glyph glyph-name="Agrave" unicode="&#xc0;" horiz-adv-x="547" 
d="M125 155l-69 -138q-9 -22 -31 -22q-19 0 -29 16.5t0 34.5l293 581q17 35 51 35q38 0 43 -38l90 -587q2 -17 -9.5 -29.5t-29.5 -12.5q-15 0 -25 10t-12 26l-18 124h-254zM323 558l-166 -337h214zM293 832l76 -91q10 -12 4.5 -27t-22.5 -15q-12 0 -18 7l-88 79
q-15 13 -7.5 35t30.5 22q16 0 25 -10z" />
    <glyph glyph-name="Aacute" unicode="&#xc1;" horiz-adv-x="547" 
d="M125 155l-69 -138q-9 -22 -31 -22q-19 0 -29 16.5t0 34.5l293 581q17 35 51 35q38 0 43 -38l90 -587q2 -17 -9.5 -29.5t-29.5 -12.5q-15 0 -25 10t-12 26l-18 124h-254zM323 558l-166 -337h214zM454 770l-98 -67q-5 -4 -15 -4q-18 0 -23 16.5t8 28.5l84 77q10 9 23 9
q23 1 32 -22t-11 -38z" />
    <glyph glyph-name="Acircumflex" unicode="&#xc2;" horiz-adv-x="547" 
d="M125 155l-69 -138q-9 -22 -31 -22q-19 0 -29 16.5t0 34.5l293 581q17 35 51 35q38 0 43 -38l90 -587q2 -17 -9.5 -29.5t-29.5 -12.5q-15 0 -25 10t-12 26l-18 124h-254zM323 558l-166 -337h214zM360 780l-101 -79q-5 -4 -12 -4q-13 0 -17.5 12t5.5 20l105 105
q15 15 31 15q18 0 28 -18l68 -103q7 -10 0.5 -21t-19.5 -11q-8 0 -15 7z" />
    <glyph glyph-name="Atilde" unicode="&#xc3;" horiz-adv-x="547" 
d="M125 155l-69 -138q-9 -22 -31 -22q-19 0 -29 16.5t0 34.5l293 581q17 35 51 35q38 0 43 -38l90 -587q2 -17 -9.5 -29.5t-29.5 -12.5q-15 0 -25 10t-12 26l-18 124h-254zM323 558l-166 -337h214zM236 705q-6 -14 -21 -14q-10 0 -16 7.5t-4 16.5q3 37 30 63t68 26
q26 0 55 -17l37 -23q28 -17 42 -17q28 0 40 47q5 13 18 13q10 0 16 -7t5 -17q-4 -37 -25.5 -62t-58.5 -25q-29 0 -62 21l-37 22q-23 14 -37 14q-34 0 -50 -48z" />
    <glyph glyph-name="Adieresis" unicode="&#xc4;" horiz-adv-x="547" 
d="M125 155l-69 -138q-9 -22 -31 -22q-19 0 -29 16.5t0 34.5l293 581q17 35 51 35q38 0 43 -38l90 -587q2 -17 -9.5 -29.5t-29.5 -12.5q-15 0 -25 10t-12 26l-18 124h-254zM323 558l-166 -337h214zM256 756q0 21 15 35t38 14q16 0 26 -10.5t10 -25.5q0 -21 -14.5 -36.5
t-35.5 -15.5q-16 0 -27.5 11.5t-11.5 27.5zM370 756q0 20 15 34.5t37 14.5q16 0 26.5 -10.5t10.5 -26.5q0 -20 -15 -35.5t-35 -15.5q-17 0 -28 11.5t-11 27.5z" />
    <glyph glyph-name="Aring" unicode="&#xc5;" horiz-adv-x="547" 
d="M125 155l-69 -138q-11 -22 -31 -22q-19 0 -29 16.5t0 34.5l293 581q0 1 1 3q-42 26 -42 78q0 41 30 70.5t73 29.5q41 0 67.5 -26.5t26.5 -64.5q0 -31 -17 -56t-45 -36v-1l90 -587q2 -17 -9.5 -29.5t-29.5 -12.5q-15 0 -25 10t-12 26l-18 124h-254zM323 558l-166 -337h214
zM344 657q24 0 39 16.5t15 41.5q0 23 -13.5 38t-35.5 15q-24 0 -39 -16.5t-15 -40.5q0 -23 13.5 -38.5t35.5 -15.5z" />
    <glyph glyph-name="AE" unicode="&#xc6;" horiz-adv-x="807" 
d="M180 212h183l66 375zM48 11q-10 -16 -28 -16q-21 0 -30 18t2 35l388 578q21 31 57 31h347q14 0 23 -9t9 -23q0 -17 -10.5 -26.5t-25.5 -9.5h-276l-39 -220h245q13 0 22.5 -8.5t9.5 -22.5q0 -16 -11 -26t-26 -10h-252l-41 -234h277q14 0 23.5 -9t9.5 -23q0 -16 -11 -26
t-26 -10h-323q-17 0 -25.5 9.5t-5.5 25.5l20 111h-213z" />
    <glyph glyph-name="Ccedilla" unicode="&#xc7;" horiz-adv-x="543" 
d="M165 -63l27 57q-67 12 -106.5 55t-39.5 110q0 12 4 40l45 259q17 98 79.5 153.5t162.5 55.5q84 0 139.5 -49t47.5 -135q-3 -35 -36 -35q-35 0 -35 36q0 115 -123 115q-63 0 -106 -39t-54 -101l-45 -261q-3 -16 -3 -31q0 -50 32.5 -79.5t92.5 -29.5q63 0 103.5 33.5
t51.5 93.5q7 31 35 31q17 0 26.5 -13t5.5 -32q-17 -85 -77.5 -133t-152.5 -48h-1l-16 -35h12q33 0 51.5 -16t18.5 -43q0 -39 -25 -61t-70 -22h-77q-21 0 -21 20q0 11 7.5 17.5t18.5 6.5h80q34 0 34 32q0 22 -26 22h-41q-4 0 -8 2q-19 5 -11 24z" />
    <glyph glyph-name="Egrave" unicode="&#xc8;" horiz-adv-x="511" 
d="M293 832l76 -91q10 -12 4.5 -27t-22.5 -15q-12 0 -18 7l-88 79q-15 13 -7.5 35t30.5 22q16 0 25 -10zM183 657h304q14 0 23.5 -9t9.5 -23q0 -16 -11 -26t-26 -10h-272l-39 -220h241q14 0 23 -8.5t9 -22.5q0 -16 -11 -26t-25 -10h-249l-42 -234h274q14 0 23.5 -9t9.5 -23
q0 -16 -11 -26t-26 -10h-317q-18 0 -27 10.5t-6 27.5l104 585q5 34 41 34z" />
    <glyph glyph-name="Eacute" unicode="&#xc9;" horiz-adv-x="511" 
d="M183 657h304q14 0 23.5 -9t9.5 -23q0 -16 -11 -26t-26 -10h-272l-39 -220h241q14 0 23 -8.5t9 -22.5q0 -16 -11 -26t-25 -10h-249l-42 -234h274q14 0 23.5 -9t9.5 -23q0 -16 -11 -26t-26 -10h-317q-18 0 -27 10.5t-6 27.5l104 585q5 34 41 34zM455 770l-98 -67
q-5 -4 -15 -4q-18 0 -23 16.5t8 28.5l84 77q11 9 23 9q23 1 32 -22t-11 -38z" />
    <glyph glyph-name="Ecircumflex" unicode="&#xca;" horiz-adv-x="511" 
d="M360 780l-101 -79q-5 -4 -12 -4q-13 0 -17.5 12t5.5 20l105 105q15 15 31 15q18 0 28 -18l68 -103q7 -10 0.5 -21t-19.5 -11q-8 0 -15 7zM183 657h304q14 0 23.5 -9t9.5 -23q0 -16 -11 -26t-26 -10h-272l-39 -220h241q14 0 23 -8.5t9 -22.5q0 -16 -11 -26t-25 -10h-249
l-42 -234h274q14 0 23.5 -9t9.5 -23q0 -16 -11 -26t-26 -10h-317q-18 0 -27 10.5t-6 27.5l104 585q5 34 41 34z" />
    <glyph glyph-name="Edieresis" unicode="&#xcb;" horiz-adv-x="511" 
d="M183 657h304q14 0 23.5 -9t9.5 -23q0 -16 -11 -26t-26 -10h-272l-39 -220h241q14 0 23 -8.5t9 -22.5q0 -16 -11 -26t-25 -10h-249l-42 -234h274q14 0 23.5 -9t9.5 -23q0 -16 -11 -26t-26 -10h-317q-18 0 -27 10.5t-6 27.5l104 585q5 34 41 34zM256 756q0 21 15 35t38 14
q16 0 26 -10.5t10 -25.5q0 -21 -14.5 -36.5t-35.5 -15.5q-16 0 -27.5 11.5t-11.5 27.5zM370 756q0 20 15 34.5t37 14.5q16 0 26.5 -10.5t10.5 -26.5q0 -20 -15 -35.5t-35 -15.5q-17 0 -28 11.5t-11 27.5z" />
    <glyph glyph-name="Igrave" unicode="&#xcc;" horiz-adv-x="239" 
d="M216 621l-104 -592q-5 -34 -38 -34q-18 0 -29 11.5t-7 29.5l105 592q5 34 38 34q18 0 28.5 -11.5t6.5 -29.5zM141 832l76 -91q10 -12 4.5 -27t-22.5 -15q-12 0 -18 7l-88 79q-15 13 -7.5 35t30.5 22q16 0 25 -10z" />
    <glyph glyph-name="Iacute" unicode="&#xcd;" horiz-adv-x="239" 
d="M216 621l-104 -592q-5 -34 -38 -34q-18 0 -29 11.5t-7 29.5l105 592q5 34 38 34q18 0 28.5 -11.5t6.5 -29.5zM302 770l-98 -67q-5 -4 -15 -4q-18 0 -23 16.5t8 28.5l84 77q10 9 23 9q23 1 32 -22t-11 -38z" />
    <glyph glyph-name="Icircumflex" unicode="&#xce;" horiz-adv-x="239" 
d="M216 621l-104 -592q-5 -34 -38 -34q-18 0 -29 11.5t-7 29.5l105 592q5 34 38 34q18 0 28.5 -11.5t6.5 -29.5zM208 780l-101 -79q-5 -4 -12 -4q-13 0 -17.5 12t5.5 20l105 105q15 15 31 15q18 0 28 -18l68 -103q7 -10 0.5 -21t-19.5 -11q-8 0 -15 7z" />
    <glyph glyph-name="Idieresis" unicode="&#xcf;" horiz-adv-x="239" 
d="M216 621l-104 -592q-5 -34 -38 -34q-18 0 -29 11.5t-7 29.5l105 592q5 34 38 34q18 0 28.5 -11.5t6.5 -29.5zM102 756q0 21 15 35t38 14q16 0 26 -10.5t10 -25.5q0 -21 -14.5 -36.5t-35.5 -15.5q-16 0 -27.5 11.5t-11.5 27.5zM216 756q0 20 15 34.5t37 14.5
q16 0 26.5 -10.5t10.5 -26.5q0 -20 -15 -35.5t-35 -15.5q-17 0 -28 11.5t-11 27.5z" />
    <glyph glyph-name="Eth" unicode="&#xd0;" horiz-adv-x="578" 
d="M16 333q0 15 10.5 24t24.5 9h49l46 255q3 16 15 26t28 10h166q83 0 137 -47t54 -125q0 -22 -4 -42l-40 -229q-19 -101 -82 -157.5t-169 -56.5h-178q-17 0 -25.5 9.5t-5.5 25.5l47 269h-43q-12 0 -21 8t-9 21zM343 589h-128l-40 -223h102q12 0 21 -8.5t9 -20.5
q0 -15 -10 -24t-24 -9h-108l-42 -236h138q66 0 109.5 40t55.5 105l42 231q3 18 3 33q0 52 -33 82t-95 30z" />
    <glyph glyph-name="Ntilde" unicode="&#xd1;" horiz-adv-x="582" 
d="M258 705q-6 -14 -21 -14q-10 0 -16 7.5t-4 16.5q3 37 30 63t68 26q26 0 55 -17l37 -23q28 -17 42 -17q28 0 40 47q5 13 18 13q10 0 16 -7t5 -17q-4 -37 -25.5 -62t-58.5 -25q-29 0 -62 21l-37 22q-23 14 -37 14q-34 0 -50 -48zM560 623l-105 -590q-2 -15 -13 -24.5
t-27 -9.5q-27 0 -37 26l-187 486l-85 -484q-5 -32 -35 -32q-17 0 -26.5 11t-6.5 27l104 591q2 15 13.5 24.5t26.5 9.5q29 0 39 -27l186 -484l84 483q5 32 35 32q17 0 26.5 -11t7.5 -28z" />
    <glyph glyph-name="Ograve" unicode="&#xd2;" horiz-adv-x="559" 
d="M300 832l76 -91q10 -12 4.5 -27t-22.5 -15q-12 0 -18 7l-88 79q-15 13 -7.5 35t30.5 22q16 0 25 -10zM170 459l-45 -261q-3 -16 -3 -30q0 -50 32.5 -80t92.5 -30q63 0 105 39t54 101l45 261q3 15 3 30q0 50 -32.5 80t-92.5 30q-63 0 -105.5 -39t-53.5 -101zM525 458
l-45 -259q-18 -97 -80.5 -153t-160.5 -56q-85 0 -139 46t-54 124q0 20 4 39l45 259q17 98 79.5 153.5t162.5 55.5q84 0 137.5 -46t53.5 -124q0 -19 -3 -39z" />
    <glyph glyph-name="Oacute" unicode="&#xd3;" horiz-adv-x="559" 
d="M462 770l-98 -67q-5 -4 -15 -4q-18 0 -23 16.5t8 28.5l84 77q10 9 23 9q23 1 32 -22t-11 -38zM170 459l-45 -261q-3 -16 -3 -30q0 -50 32.5 -80t92.5 -30q63 0 105 39t54 101l45 261q3 15 3 30q0 50 -32.5 80t-92.5 30q-63 0 -105.5 -39t-53.5 -101zM525 458l-45 -259
q-18 -97 -80.5 -153t-160.5 -56q-85 0 -139 46t-54 124q0 20 4 39l45 259q17 98 79.5 153.5t162.5 55.5q84 0 137.5 -46t53.5 -124q0 -19 -3 -39z" />
    <glyph glyph-name="Ocircumflex" unicode="&#xd4;" horiz-adv-x="559" 
d="M368 780l-101 -79q-5 -4 -12 -4q-13 0 -17.5 12t5.5 20l105 105q15 15 31 15q18 0 28 -18l68 -103q7 -10 0.5 -21t-19.5 -11q-8 0 -15 7zM170 459l-45 -261q-3 -16 -3 -30q0 -50 32.5 -80t92.5 -30q63 0 105 39t54 101l45 261q3 15 3 30q0 50 -32.5 80t-92.5 30
q-63 0 -105.5 -39t-53.5 -101zM525 458l-45 -259q-18 -97 -80.5 -153t-160.5 -56q-85 0 -139 46t-54 124q0 20 4 39l45 259q17 98 79.5 153.5t162.5 55.5q84 0 137.5 -46t53.5 -124q0 -19 -3 -39z" />
    <glyph glyph-name="Otilde" unicode="&#xd5;" horiz-adv-x="559" 
d="M170 459l-45 -261q-3 -16 -3 -30q0 -50 32.5 -80t92.5 -30q63 0 105 39t54 101l45 261q3 15 3 30q0 50 -32.5 80t-92.5 30q-63 0 -105.5 -39t-53.5 -101zM525 458l-45 -259q-18 -97 -80.5 -153t-160.5 -56q-85 0 -139 46t-54 124q0 20 4 39l45 259q17 98 79.5 153.5
t162.5 55.5q84 0 137.5 -46t53.5 -124q0 -19 -3 -39zM248 705q-6 -14 -21 -14q-10 0 -16 7.5t-4 16.5q3 37 30 63t68 26q26 0 55 -17l37 -23q28 -17 42 -17q28 0 40 47q5 13 18 13q10 0 16 -7t5 -17q-4 -37 -25.5 -62t-58.5 -25q-29 0 -62 21l-37 22q-23 14 -37 14
q-34 0 -50 -48z" />
    <glyph glyph-name="Odieresis" unicode="&#xd6;" horiz-adv-x="559" 
d="M170 459l-45 -261q-3 -16 -3 -30q0 -50 32.5 -80t92.5 -30q63 0 105 39t54 101l45 261q3 15 3 30q0 50 -32.5 80t-92.5 30q-63 0 -105.5 -39t-53.5 -101zM525 458l-45 -259q-18 -97 -80.5 -153t-160.5 -56q-85 0 -139 46t-54 124q0 20 4 39l45 259q17 98 79.5 153.5
t162.5 55.5q84 0 137.5 -46t53.5 -124q0 -19 -3 -39zM263 756q0 21 15 35t38 14q16 0 26 -10.5t10 -25.5q0 -21 -14.5 -36.5t-35.5 -15.5q-16 0 -27.5 11.5t-11.5 27.5zM377 756q0 20 15 34.5t37 14.5q16 0 26.5 -10.5t10.5 -26.5q0 -20 -15 -35.5t-35 -15.5q-17 0 -28 11.5
t-11 27.5z" />
    <glyph glyph-name="multiply" unicode="&#xd7;" horiz-adv-x="439" 
d="M93 243l85 85l-85 84q-23 25 1 49q24 22 48 0l84 -85l85 85q23 23 47 0q24 -24 0 -48l-84 -85l85 -84q23 -25 -1 -49q-24 -23 -47 0l-86 85l-84 -85q-24 -22 -47 0q-24 25 -1 48z" />
    <glyph glyph-name="Oslash" unicode="&#xd8;" horiz-adv-x="559" 
d="M525 458l-45 -259q-18 -97 -80.5 -153t-160.5 -56q-72 0 -123 34l-44 -67q-8 -11 -21 -11q-14 0 -20.5 12t2.5 26l47 72q-34 43 -34 104q0 20 4 39l45 259q17 98 79.5 153.5t162.5 55.5q72 0 121 -34l44 66q9 11 21 11q14 0 21 -12.5t-1 -23.5l-49 -74q34 -43 34 -103
q0 -19 -3 -39zM455 489q0 22 -8 43l-293 -446q34 -29 93 -29q63 0 105.5 39t54.5 102l46 261q2 10 2 30zM169 459l-46 -261q-3 -16 -3 -31q0 -25 7 -43l294 447q-34 29 -92 29q-64 0 -106.5 -39t-53.5 -102z" />
    <glyph glyph-name="Ugrave" unicode="&#xd9;" horiz-adv-x="573" 
d="M307 832l76 -91q10 -12 4.5 -27t-22.5 -15q-12 0 -18 7l-88 79q-15 13 -7.5 35t30.5 22q16 0 25 -10zM557 621l-75 -422q-17 -97 -79 -153t-158 -56q-83 0 -136 46t-53 123q0 12 4 40l76 429q5 34 38 34q18 0 28.5 -11.5t6.5 -29.5l-74 -423q-3 -16 -3 -31
q0 -50 31.5 -79.5t91.5 -29.5t100.5 39t51.5 101l76 430q5 34 39 34q18 0 28.5 -11.5t6.5 -29.5z" />
    <glyph glyph-name="Uacute" unicode="&#xda;" horiz-adv-x="573" 
d="M557 621l-75 -422q-17 -97 -79 -153t-158 -56q-83 0 -136 46t-53 123q0 12 4 40l76 429q5 34 38 34q18 0 28.5 -11.5t6.5 -29.5l-74 -423q-3 -16 -3 -31q0 -50 31.5 -79.5t91.5 -29.5t100.5 39t51.5 101l76 430q5 34 39 34q18 0 28.5 -11.5t6.5 -29.5zM468 770l-98 -67
q-5 -4 -15 -4q-18 0 -23 16.5t8 28.5l84 77q10 9 23 9q23 1 32 -22t-11 -38z" />
    <glyph glyph-name="Ucircumflex" unicode="&#xdb;" horiz-adv-x="573" 
d="M374 780l-101 -79q-5 -4 -12 -4q-13 0 -17.5 12t5.5 20l105 105q15 15 31 15q18 0 28 -18l68 -103q7 -10 0.5 -21t-19.5 -11q-8 0 -15 7zM557 621l-75 -422q-17 -97 -79 -153t-158 -56q-83 0 -136 46t-53 123q0 12 4 40l76 429q5 34 38 34q18 0 28.5 -11.5t6.5 -29.5
l-74 -423q-3 -16 -3 -31q0 -50 31.5 -79.5t91.5 -29.5t100.5 39t51.5 101l76 430q5 34 39 34q18 0 28.5 -11.5t6.5 -29.5z" />
    <glyph glyph-name="Udieresis" unicode="&#xdc;" horiz-adv-x="573" 
d="M557 621l-75 -422q-17 -97 -79 -153t-158 -56q-83 0 -136 46t-53 123q0 12 4 40l76 429q5 34 38 34q18 0 28.5 -11.5t6.5 -29.5l-74 -423q-3 -16 -3 -31q0 -50 31.5 -79.5t91.5 -29.5t100.5 39t51.5 101l76 430q5 34 39 34q18 0 28.5 -11.5t6.5 -29.5zM269 756
q0 21 15 35t38 14q16 0 26 -10.5t10 -25.5q0 -21 -14.5 -36.5t-35.5 -15.5q-16 0 -27.5 11.5t-11.5 27.5zM383 756q0 20 15 34.5t37 14.5q16 0 26.5 -10.5t10.5 -26.5q0 -20 -15 -35.5t-35 -15.5q-17 0 -28 11.5t-11 27.5z" />
    <glyph glyph-name="Yacute" unicode="&#xdd;" horiz-adv-x="485" 
d="M509 612l-234 -349l-41 -234q-7 -34 -38 -34q-19 0 -29.5 11.5t-6.5 29.5l40 226l-111 352q-5 17 5.5 32.5t29.5 15.5q28 0 35 -26l90 -301l204 311q10 16 28 16q19 0 29 -17t-1 -33zM425 770l-98 -67q-5 -4 -15 -4q-18 0 -23 16.5t8 28.5l84 77q11 9 23 9q23 1 32 -22
t-11 -38z" />
    <glyph glyph-name="Thorn" unicode="&#xde;" horiz-adv-x="548" 
d="M216 622l-14 -83h120q82 0 138 -49t56 -126q0 -110 -71.5 -178.5t-186.5 -68.5h-131l-15 -88q-5 -34 -38 -34q-18 0 -28.5 11t-7.5 29l105 594q5 33 38 33q18 0 28 -11t7 -29zM305 473h-114l-52 -290h125q78 0 126 47.5t48 124.5q0 53 -35.5 85.5t-97.5 32.5z" />
    <glyph glyph-name="germandbls" unicode="&#xdf;" horiz-adv-x="503" 
d="M199 -5q-31 0 -31 31q0 15 9.5 24t22.5 9q80 1 122.5 43t42.5 114q0 52 -27.5 78t-88.5 28q-26 2 -26 30q0 14 8.5 23t22.5 9q69 1 109.5 39.5t40.5 101.5q0 41 -25.5 65.5t-73.5 24.5q-58 0 -87 -34t-40 -96l-81 -457q-5 -33 -36 -33q-18 0 -28 11t-7 28l79 449
q35 194 211 194q70 0 117.5 -40.5t47.5 -103.5q0 -64 -35 -110.5t-96 -65.5v-2q39 -14 64.5 -51t25.5 -83q0 -103 -64 -164.5t-177 -61.5z" />
    <glyph glyph-name="agrave" unicode="&#xe0;" 
d="M455 461l-76 -436q-7 -30 -32 -30q-27 0 -28 26v36q-56 -67 -140 -67q-66 0 -106 38t-40 104q0 17 3 38l26 148q15 86 63.5 133.5t131.5 47.5q39 0 74.5 -18t53.5 -48l14 39q10 22 32 22q13 0 19.5 -9.5t4.5 -23.5zM201 54q51 0 87 34t45 87l24 138q3 13 3 25
q0 44 -26.5 70t-74.5 26q-50 0 -82.5 -31.5t-41.5 -81.5l-28 -154q-3 -12 -3 -25q0 -40 25 -64t72 -24zM235 685l76 -91q10 -12 4.5 -27.5t-22.5 -15.5q-10 0 -18 8l-88 79q-15 14 -7 35.5t30 21.5q16 0 25 -10z" />
    <glyph glyph-name="aacute" unicode="&#xe1;" 
d="M455 461l-76 -436q-7 -30 -32 -30q-27 0 -28 26v36q-56 -67 -140 -67q-66 0 -106 38t-40 104q0 17 3 38l26 148q15 86 63.5 133.5t131.5 47.5q39 0 74.5 -18t53.5 -48l14 39q10 22 32 22q13 0 19.5 -9.5t4.5 -23.5zM201 54q51 0 87 34t45 87l24 138q3 13 3 25
q0 44 -26.5 70t-74.5 26q-50 0 -82.5 -31.5t-41.5 -81.5l-28 -154q-3 -12 -3 -25q0 -40 25 -64t72 -24zM395 623l-97 -66q-8 -5 -15 -5q-18 0 -23.5 17t7.5 28l85 78q9 9 22 9q24 0 32.5 -22.5t-11.5 -38.5z" />
    <glyph glyph-name="acircumflex" unicode="&#xe2;" 
d="M455 461l-76 -436q-7 -30 -32 -30q-27 0 -28 26v36q-56 -67 -140 -67q-66 0 -106 38t-40 104q0 17 3 38l26 148q15 86 63.5 133.5t131.5 47.5q39 0 74.5 -18t53.5 -48l14 39q10 22 32 22q13 0 19.5 -9.5t4.5 -23.5zM201 54q51 0 87 34t45 87l24 138q3 13 3 25
q0 44 -26.5 70t-74.5 26q-50 0 -82.5 -31.5t-41.5 -81.5l-28 -154q-3 -12 -3 -25q0 -40 25 -64t72 -24zM301 633l-100 -79q-8 -4 -12 -4q-13 0 -17.5 12t4.5 20l106 105q15 15 31 15t28 -17l68 -104q6 -10 -0.5 -20.5t-19.5 -10.5q-9 0 -15 6z" />
    <glyph glyph-name="atilde" unicode="&#xe3;" 
d="M455 461l-76 -436q-7 -30 -32 -30q-27 0 -28 26v36q-56 -67 -140 -67q-66 0 -106 38t-40 104q0 17 3 38l26 148q15 86 63.5 133.5t131.5 47.5q39 0 74.5 -18t53.5 -48l14 39q10 22 32 22q13 0 19.5 -9.5t4.5 -23.5zM201 54q51 0 87 34t45 87l24 138q3 13 3 25
q0 44 -26.5 70t-74.5 26q-50 0 -82.5 -31.5t-41.5 -81.5l-28 -154q-3 -12 -3 -25q0 -40 25 -64t72 -24zM182 565q-6 -14 -20 -14q-11 0 -16.5 8t-3.5 16q2 37 29.5 63t67.5 26q25 0 55 -16l37 -23q28 -18 42 -18q28 0 40 48q5 12 18 12q10 0 16 -6.5t5 -16.5
q-4 -37 -25.5 -62t-58.5 -25q-26 0 -61 20l-37 22q-22 14 -37 14q-36 0 -51 -48z" />
    <glyph glyph-name="adieresis" unicode="&#xe4;" 
d="M455 461l-76 -436q-7 -30 -32 -30q-27 0 -28 26v36q-56 -67 -140 -67q-66 0 -106 38t-40 104q0 17 3 38l26 148q15 86 63.5 133.5t131.5 47.5q39 0 74.5 -18t53.5 -48l14 39q10 22 32 22q13 0 19.5 -9.5t4.5 -23.5zM201 54q51 0 87 34t45 87l24 138q3 13 3 25
q0 44 -26.5 70t-74.5 26q-50 0 -82.5 -31.5t-41.5 -81.5l-28 -154q-3 -12 -3 -25q0 -40 25 -64t72 -24zM196 600q0 21 14 35.5t35 14.5q17 0 28 -10.5t11 -26.5q0 -22 -13 -36.5t-36 -14.5q-16 0 -27.5 11.5t-11.5 26.5zM310 600q0 21 14 35.5t34 14.5q18 0 29 -10.5
t11 -26.5q0 -22 -13.5 -36.5t-37.5 -14.5q-15 0 -26 11.5t-11 26.5z" />
    <glyph glyph-name="aring" unicode="&#xe5;" 
d="M455 461l-76 -436q-7 -30 -32 -30q-27 0 -28 26v36q-56 -67 -140 -67q-66 0 -106 38t-40 104q0 17 3 38l26 148q15 86 63.5 133.5t131.5 47.5q39 0 74.5 -18t53.5 -48l14 39q10 22 32 22q13 0 19.5 -9.5t4.5 -23.5zM201 54q51 0 87 34t45 87l24 138q3 13 3 25
q0 44 -26.5 70t-74.5 26q-50 0 -82.5 -31.5t-41.5 -81.5l-28 -154q-3 -12 -3 -25q0 -40 25 -64t72 -24zM296 569q24 0 39 16.5t15 41.5q0 22 -14 37t-35 15q-24 0 -39 -16.5t-15 -40.5q0 -23 13.5 -38t35.5 -15zM293 528q-41 0 -67 27t-26 65q0 41 30 70.5t74 29.5
q40 0 66.5 -26.5t26.5 -64.5q0 -42 -30 -71.5t-74 -29.5z" />
    <glyph glyph-name="ae" unicode="&#xe6;" horiz-adv-x="758" 
d="M182 51q54 0 90.5 34t47.5 87l8 38h-118q-117 0 -117 -90q0 -69 89 -69zM418 317l-5 -26h227l5 26q2 10 2 29q0 42 -25 67.5t-72 25.5q-52 0 -87 -34t-45 -88zM132 346q-8 -23 -34 -23q-17 0 -25 13.5t-3 30.5q45 132 195 132q47 0 85 -21t53 -57q59 78 156 78
q69 0 113 -41t44 -110q0 -13 -4 -39l-7 -39q-6 -35 -39 -35h-262l-12 -70q-3 -13 -3 -26q0 -40 26.5 -65t75.5 -25t82 26.5t42 66.5q6 27 33 27q17 0 25.5 -13t3.5 -31q-40 -135 -192 -135q-52 0 -95.5 24.5t-56.5 66.5q-59 -91 -169 -91q-64 0 -105 31.5t-41 90.5
q0 154 195 154h124l11 63q2 9 2 24q0 38 -24.5 61t-71.5 23q-48 0 -79 -25t-43 -66z" />
    <glyph glyph-name="ccedilla" unicode="&#xe7;" horiz-adv-x="470" 
d="M120 -63l28 60q-52 13 -83 51.5t-31 96.5q0 19 3 38l22 126q15 90 69.5 140t142.5 50q67 0 115 -37.5t46 -103.5q-2 -40 -34 -40q-15 0 -24.5 9t-9.5 24q0 40 -26.5 62.5t-75.5 22.5q-51 0 -86 -34t-44 -88l-24 -136q-3 -15 -3 -28q0 -44 26.5 -71t76.5 -27q93 0 123 95
q9 28 33 28q17 0 26.5 -13.5t4.5 -30.5q-42 -141 -193 -141h-9l-16 -35h12q33 0 51.5 -16t18.5 -43q0 -39 -25 -61t-70 -22h-77q-21 0 -21 20q0 11 7.5 17.5t18.5 6.5h80q34 0 34 32q0 22 -26 22h-41q-4 0 -8 2q-19 5 -11 24z" />
    <glyph glyph-name="egrave" unicode="&#xe8;" horiz-adv-x="471" 
d="M131 316l-5 -25h227l5 25q3 15 3 29q0 43 -26 68.5t-74 25.5q-51 0 -85 -34t-45 -89zM390 125q-18 -62 -66.5 -98.5t-122.5 -36.5t-122 39.5t-48 107.5q0 17 3 35l24 137q15 89 70 139.5t141 50.5q70 0 115 -41t45 -111q0 -16 -4 -38l-7 -39q-2 -15 -13 -25t-27 -10h-261
l-13 -70q-2 -16 -2 -24q0 -42 27.5 -67t77.5 -25q94 0 121 93q8 27 32 27q19 0 27 -13t3 -31zM232 685l76 -91q10 -12 4.5 -27.5t-22.5 -15.5q-10 0 -18 8l-88 79q-15 14 -7 35.5t30 21.5q16 0 25 -10z" />
    <glyph glyph-name="eacute" unicode="&#xe9;" horiz-adv-x="471" 
d="M393 623l-97 -66q-8 -5 -15 -5q-18 0 -23.5 17t7.5 28l85 78q9 9 22 9q24 0 32.5 -22.5t-11.5 -38.5zM131 316l-5 -25h227l5 25q3 15 3 29q0 43 -26 68.5t-74 25.5q-51 0 -85 -34t-45 -89zM390 125q-18 -62 -66.5 -98.5t-122.5 -36.5t-122 39.5t-48 107.5q0 17 3 35
l24 137q15 89 70 139.5t141 50.5q70 0 115 -41t45 -111q0 -16 -4 -38l-7 -39q-2 -15 -13 -25t-27 -10h-261l-13 -70q-2 -16 -2 -24q0 -42 27.5 -67t77.5 -25q94 0 121 93q8 27 32 27q19 0 27 -13t3 -31z" />
    <glyph glyph-name="ecircumflex" unicode="&#xea;" horiz-adv-x="471" 
d="M299 633l-100 -79q-8 -4 -12 -4q-13 0 -17.5 12t4.5 20l106 105q15 15 31 15t28 -17l68 -104q6 -10 -0.5 -20.5t-19.5 -10.5q-9 0 -15 6zM131 316l-5 -25h227l5 25q3 15 3 29q0 43 -26 68.5t-74 25.5q-51 0 -85 -34t-45 -89zM390 125q-18 -62 -66.5 -98.5t-122.5 -36.5
t-122 39.5t-48 107.5q0 17 3 35l24 137q15 89 70 139.5t141 50.5q70 0 115 -41t45 -111q0 -16 -4 -38l-7 -39q-2 -15 -13 -25t-27 -10h-261l-13 -70q-2 -16 -2 -24q0 -42 27.5 -67t77.5 -25q94 0 121 93q8 27 32 27q19 0 27 -13t3 -31z" />
    <glyph glyph-name="edieresis" unicode="&#xeb;" horiz-adv-x="471" 
d="M194 600q0 21 14 35.5t35 14.5q17 0 28 -10.5t11 -26.5q0 -22 -13 -36.5t-36 -14.5q-16 0 -27.5 11.5t-11.5 26.5zM308 600q0 21 14 35.5t34 14.5q18 0 29 -10.5t11 -26.5q0 -22 -13.5 -36.5t-37.5 -14.5q-15 0 -26 11.5t-11 26.5zM131 316l-5 -25h227l5 25q3 15 3 29
q0 43 -26 68.5t-74 25.5q-51 0 -85 -34t-45 -89zM390 125q-18 -62 -66.5 -98.5t-122.5 -36.5t-122 39.5t-48 107.5q0 17 3 35l24 137q15 89 70 139.5t141 50.5q70 0 115 -41t45 -111q0 -16 -4 -38l-7 -39q-2 -15 -13 -25t-27 -10h-261l-13 -70q-2 -16 -2 -24q0 -42 27.5 -67
t77.5 -25q94 0 121 93q8 27 32 27q19 0 27 -13t3 -31z" />
    <glyph glyph-name="igrave" unicode="&#xec;" horiz-adv-x="213" 
d="M172 454l-74 -427q-7 -32 -37 -32q-17 0 -27 11t-7 28l75 427q6 33 37 33q17 0 26.5 -11t6.5 -29zM102 685l76 -91q10 -12 4.5 -27.5t-22.5 -15.5q-10 0 -18 8l-88 79q-15 14 -7 35.5t30 21.5q16 0 25 -10z" />
    <glyph glyph-name="iacute" unicode="&#xed;" horiz-adv-x="213" 
d="M264 623l-97 -66q-8 -5 -15 -5q-18 0 -23.5 17t7.5 28l85 78q9 9 22 9q24 0 32.5 -22.5t-11.5 -38.5zM172 454l-74 -427q-7 -32 -37 -32q-17 0 -27 11t-7 28l75 427q6 33 37 33q17 0 26.5 -11t6.5 -29z" />
    <glyph glyph-name="icircumflex" unicode="&#xee;" horiz-adv-x="213" 
d="M169 633l-100 -79q-8 -4 -12 -4q-13 0 -17.5 12t4.5 20l106 105q15 15 31 15t28 -17l68 -104q6 -10 -0.5 -20.5t-19.5 -10.5q-9 0 -15 6zM172 454l-74 -427q-7 -32 -37 -32q-17 0 -27 11t-7 28l75 427q6 33 37 33q17 0 26.5 -11t6.5 -29z" />
    <glyph glyph-name="idieresis" unicode="&#xef;" horiz-adv-x="213" 
d="M63 600q0 21 14 35.5t35 14.5q17 0 28 -10.5t11 -26.5q0 -22 -13 -36.5t-36 -14.5q-16 0 -27.5 11.5t-11.5 26.5zM177 600q0 21 14 35.5t34 14.5q18 0 29 -10.5t11 -26.5q0 -22 -13.5 -36.5t-37.5 -14.5q-15 0 -26 11.5t-11 26.5zM172 454l-74 -427q-7 -32 -37 -32
q-17 0 -27 11t-7 28l75 427q6 33 37 33q17 0 26.5 -11t6.5 -29z" />
    <glyph glyph-name="eth" unicode="&#xf0;" horiz-adv-x="490" 
d="M132 314l-26 -140q-2 -10 -2 -28q0 -42 26.5 -68t74.5 -26q50 0 85 34.5t44 87.5l25 140q3 15 3 27q0 44 -26 69.5t-74 25.5q-51 0 -85.5 -34t-44.5 -88zM358 673l36 -48l66 21q11 3 19.5 -3.5t8.5 -17.5q0 -15 -14 -20l-55 -17q30 -51 30 -132q0 -41 -7 -82l-34 -195
q-15 -88 -71 -138.5t-141 -50.5q-72 0 -118 40.5t-46 109.5q0 11 4 39l22 130q15 89 67.5 139.5t135.5 50.5q38 0 71.5 -18t48.5 -48q1 9 1 25q0 66 -27 111l-80 -25q-11 -3 -19.5 3.5t-8.5 16.5q0 16 14 21l70 21l-23 31q-6 9 -6 17q0 13 8.5 22.5t22.5 9.5q15 0 25 -13z
" />
    <glyph glyph-name="ntilde" unicode="&#xf1;" horiz-adv-x="504" 
d="M446 320l-52 -293q-6 -32 -37 -32q-17 0 -27 11.5t-7 28.5l50 286q2 11 2 25q0 40 -23 64t-68 24q-52 0 -89.5 -34t-46.5 -87l-50 -285q-5 -33 -37 -33q-18 0 -28 11t-7 29l76 428q5 31 32 31q28 0 29 -27l-1 -36q57 68 144 68q65 0 104 -38t39 -102q0 -18 -3 -39z
M198 565q-6 -14 -20 -14q-11 0 -16.5 8t-3.5 16q2 37 29.5 63t67.5 26q25 0 55 -16l37 -23q28 -18 42 -18q28 0 40 48q5 12 18 12q10 0 16 -6.5t5 -16.5q-4 -37 -25.5 -62t-58.5 -25q-26 0 -61 20l-37 22q-22 14 -37 14q-36 0 -51 -48z" />
    <glyph glyph-name="ograve" unicode="&#xf2;" horiz-adv-x="479" 
d="M131 314l-25 -140q-3 -15 -3 -27q0 -43 26 -69t75 -26q50 0 85.5 34.5t44.5 87.5l25 140q3 15 3 27q0 44 -26 69.5t-74 25.5q-51 0 -86 -34t-45 -88zM430 309l-23 -130q-15 -89 -70 -139t-142 -50q-71 0 -117 41t-46 110q0 21 4 38l22 130q15 89 70 139.5t141 50.5
q72 0 118.5 -41t46.5 -111q0 -12 -4 -38zM234 685l76 -91q10 -12 4.5 -27.5t-22.5 -15.5q-10 0 -18 8l-88 79q-15 14 -7 35.5t30 21.5q16 0 25 -10z" />
    <glyph glyph-name="oacute" unicode="&#xf3;" horiz-adv-x="479" 
d="M395 623l-97 -66q-8 -5 -15 -5q-18 0 -23.5 17t7.5 28l85 78q9 9 22 9q24 0 32.5 -22.5t-11.5 -38.5zM131 314l-25 -140q-3 -15 -3 -27q0 -43 26 -69t75 -26q50 0 85.5 34.5t44.5 87.5l25 140q3 15 3 27q0 44 -26 69.5t-74 25.5q-51 0 -86 -34t-45 -88zM430 309l-23 -130
q-15 -89 -70 -139t-142 -50q-71 0 -117 41t-46 110q0 21 4 38l22 130q15 89 70 139.5t141 50.5q72 0 118.5 -41t46.5 -111q0 -12 -4 -38z" />
    <glyph glyph-name="ocircumflex" unicode="&#xf4;" horiz-adv-x="479" 
d="M302 633l-100 -79q-8 -4 -12 -4q-13 0 -17.5 12t4.5 20l106 105q15 15 31 15t28 -17l68 -104q6 -10 -0.5 -20.5t-19.5 -10.5q-9 0 -15 6zM131 314l-25 -140q-3 -15 -3 -27q0 -43 26 -69t75 -26q50 0 85.5 34.5t44.5 87.5l25 140q3 15 3 27q0 44 -26 69.5t-74 25.5
q-51 0 -86 -34t-45 -88zM430 309l-23 -130q-15 -89 -70 -139t-142 -50q-71 0 -117 41t-46 110q0 21 4 38l22 130q15 89 70 139.5t141 50.5q72 0 118.5 -41t46.5 -111q0 -12 -4 -38z" />
    <glyph glyph-name="otilde" unicode="&#xf5;" horiz-adv-x="479" 
d="M131 314l-25 -140q-3 -15 -3 -27q0 -43 26 -69t75 -26q50 0 85.5 34.5t44.5 87.5l25 140q3 15 3 27q0 44 -26 69.5t-74 25.5q-51 0 -86 -34t-45 -88zM430 309l-23 -130q-15 -89 -70 -139t-142 -50q-71 0 -117 41t-46 110q0 21 4 38l22 130q15 89 70 139.5t141 50.5
q72 0 118.5 -41t46.5 -111q0 -12 -4 -38zM182 565q-6 -14 -20 -14q-11 0 -16.5 8t-3.5 16q2 37 29.5 63t67.5 26q25 0 55 -16l37 -23q28 -18 42 -18q28 0 40 48q5 12 18 12q10 0 16 -6.5t5 -16.5q-4 -37 -25.5 -62t-58.5 -25q-26 0 -61 20l-37 22q-22 14 -37 14
q-36 0 -51 -48z" />
    <glyph glyph-name="odieresis" unicode="&#xf6;" horiz-adv-x="479" 
d="M195 600q0 21 14 35.5t35 14.5q17 0 28 -10.5t11 -26.5q0 -22 -13 -36.5t-36 -14.5q-16 0 -27.5 11.5t-11.5 26.5zM309 600q0 21 14 35.5t34 14.5q18 0 29 -10.5t11 -26.5q0 -22 -13.5 -36.5t-37.5 -14.5q-15 0 -26 11.5t-11 26.5zM131 314l-25 -140q-3 -15 -3 -27
q0 -43 26 -69t75 -26q50 0 85.5 34.5t44.5 87.5l25 140q3 15 3 27q0 44 -26 69.5t-74 25.5q-51 0 -86 -34t-45 -88zM430 309l-23 -130q-15 -89 -70 -139t-142 -50q-71 0 -117 41t-46 110q0 21 4 38l22 130q15 89 70 139.5t141 50.5q72 0 118.5 -41t46.5 -111q0 -12 -4 -38z
" />
    <glyph glyph-name="divide" unicode="&#xf7;" horiz-adv-x="508" 
d="M66 328q0 14 8.5 23t21.5 9h330q14 0 22.5 -9t8.5 -23t-8.5 -23t-22.5 -9h-330q-13 0 -21.5 9t-8.5 23zM213 172q0 20 14.5 34t33.5 14t33 -14t14 -34q0 -19 -14 -33t-33 -14t-33.5 14t-14.5 33zM213 485q0 19 14.5 33t33.5 14t33 -14t14 -33q0 -20 -14 -34t-33 -14
t-33.5 14.5t-14.5 33.5z" />
    <glyph glyph-name="oslash" unicode="&#xf8;" horiz-adv-x="479" 
d="M430 309l-23 -130q-15 -89 -70 -139t-142 -50q-55 0 -97 25l-41 -59q-7 -10 -19 -10q-13 0 -18.5 12t1.5 22l44 63q-33 39 -33 98q0 21 4 38l22 130q15 89 70 139.5t141 50.5q56 0 97 -26l42 60q6 9 17 9q13 0 19.5 -11.5t-0.5 -22.5l-44 -64q34 -40 34 -97q0 -12 -4 -38
zM130 314l-25 -140q-3 -15 -3 -27q0 -27 8 -44l219 314q-25 20 -67 20q-52 0 -87 -34.5t-45 -88.5zM363 341q0 23 -8 42l-220 -312q25 -19 69 -19q51 0 86.5 34t44.5 88l25 140q3 15 3 27z" />
    <glyph glyph-name="ugrave" unicode="&#xf9;" horiz-adv-x="499" 
d="M459 454l-76 -428q-5 -31 -32 -31q-26 0 -27 26l-1 36q-56 -67 -140 -67q-64 0 -103 37.5t-39 100.5q0 11 4 37l52 296q5 33 37 33q18 0 27.5 -11t6.5 -29l-51 -289q-2 -18 -2 -26q0 -39 23.5 -62t68.5 -23q50 0 85.5 34.5t44.5 86.5l51 286q6 33 37 33q17 0 27 -11
t7 -29zM243 685l76 -91q10 -12 4.5 -27.5t-22.5 -15.5q-10 0 -18 8l-88 79q-15 14 -7 35.5t30 21.5q16 0 25 -10z" />
    <glyph glyph-name="uacute" unicode="&#xfa;" horiz-adv-x="499" 
d="M403 623l-97 -66q-8 -5 -15 -5q-18 0 -23.5 17t7.5 28l85 78q9 9 22 9q24 0 32.5 -22.5t-11.5 -38.5zM459 454l-76 -428q-5 -31 -32 -31q-26 0 -27 26l-1 36q-56 -67 -140 -67q-64 0 -103 37.5t-39 100.5q0 11 4 37l52 296q5 33 37 33q18 0 27.5 -11t6.5 -29l-51 -289
q-2 -18 -2 -26q0 -39 23.5 -62t68.5 -23q50 0 85.5 34.5t44.5 86.5l51 286q6 33 37 33q17 0 27 -11t7 -29z" />
    <glyph glyph-name="ucircumflex" unicode="&#xfb;" horiz-adv-x="499" 
d="M309 633l-100 -79q-8 -4 -12 -4q-13 0 -17.5 12t4.5 20l106 105q15 15 31 15t28 -17l68 -104q6 -10 -0.5 -20.5t-19.5 -10.5q-9 0 -15 6zM459 454l-76 -428q-5 -31 -32 -31q-26 0 -27 26l-1 36q-56 -67 -140 -67q-64 0 -103 37.5t-39 100.5q0 11 4 37l52 296q5 33 37 33
q18 0 27.5 -11t6.5 -29l-51 -289q-2 -18 -2 -26q0 -39 23.5 -62t68.5 -23q50 0 85.5 34.5t44.5 86.5l51 286q6 33 37 33q17 0 27 -11t7 -29z" />
    <glyph glyph-name="udieresis" unicode="&#xfc;" horiz-adv-x="499" 
d="M203 600q0 21 14 35.5t35 14.5q17 0 28 -10.5t11 -26.5q0 -22 -13 -36.5t-36 -14.5q-16 0 -27.5 11.5t-11.5 26.5zM317 600q0 21 14 35.5t34 14.5q18 0 29 -10.5t11 -26.5q0 -22 -13.5 -36.5t-37.5 -14.5q-15 0 -26 11.5t-11 26.5zM459 454l-76 -428q-5 -31 -32 -31
q-26 0 -27 26l-1 36q-56 -67 -140 -67q-64 0 -103 37.5t-39 100.5q0 11 4 37l52 296q5 33 37 33q18 0 27.5 -11t6.5 -29l-51 -289q-2 -18 -2 -26q0 -39 23.5 -62t68.5 -23q50 0 85.5 34.5t44.5 86.5l51 286q6 33 37 33q17 0 27 -11t7 -29z" />
    <glyph glyph-name="yacute" unicode="&#xfd;" horiz-adv-x="454" 
d="M447 442l-329 -617q-10 -17 -29 -17q-17 0 -26 15t0 31l79 147l-80 449q-3 17 8 30.5t28 13.5q14 0 24.5 -9.5t12.5 -23.5l59 -361l192 374q10 20 31 20q19 0 29.5 -17t0.5 -35zM383 623l-97 -66q-8 -5 -15 -5q-18 0 -23.5 17t7.5 28l85 78q9 9 22 9q24 0 32.5 -22.5
t-11.5 -38.5z" />
    <glyph glyph-name="thorn" unicode="&#xfe;" 
d="M280 434q-51 0 -87 -34t-45 -87l-24 -138q-3 -13 -3 -25q0 -43 27.5 -69.5t75.5 -26.5t81 32t42 81l27 154q2 18 2 25q0 40 -24.5 64t-71.5 24zM206 645l-35 -204q53 58 130 58q68 0 108 -40t40 -107q0 -11 -4 -33l-25 -149q-33 -180 -192 -180q-38 0 -73.5 16t-52.5 43
l-37 -209q-6 -32 -37 -32q-17 0 -27 11.5t-8 27.5l141 803q5 32 37 32q18 0 28 -10t7 -27z" />
    <glyph glyph-name="ydieresis" unicode="&#xff;" horiz-adv-x="454" 
d="M447 442l-329 -617q-10 -17 -29 -17q-17 0 -26 15t0 31l79 147l-80 449q-3 17 8 30.5t28 13.5q14 0 24.5 -9.5t12.5 -23.5l59 -361l192 374q10 20 31 20q19 0 29.5 -17t0.5 -35zM182 600q0 21 14 35.5t35 14.5q17 0 28 -10.5t11 -26.5q0 -22 -13 -36.5t-36 -14.5
q-16 0 -27.5 11.5t-11.5 26.5zM296 600q0 21 14 35.5t34 14.5q18 0 29 -10.5t11 -26.5q0 -22 -13.5 -36.5t-37.5 -14.5q-15 0 -26 11.5t-11 26.5z" />
    <glyph glyph-name="Amacron" unicode="&#x100;" horiz-adv-x="547" 
d="M125 155l-69 -138q-9 -22 -31 -22q-19 0 -29 16.5t0 34.5l293 581q17 35 51 35q38 0 43 -38l90 -587q2 -17 -9.5 -29.5t-29.5 -12.5q-15 0 -25 10t-12 26l-18 124h-254zM323 558l-166 -337h214zM233 758q0 13 9 21t20 8h192q10 0 17.5 -7t7.5 -19t-9 -20t-20 -8h-191
q-11 0 -18.5 7.5t-7.5 17.5z" />
    <glyph glyph-name="amacron" unicode="&#x101;" 
d="M455 461l-76 -436q-7 -30 -32 -30q-27 0 -28 26v36q-56 -67 -140 -67q-66 0 -106 38t-40 104q0 17 3 38l26 148q15 86 63.5 133.5t131.5 47.5q39 0 74.5 -18t53.5 -48l14 39q10 22 32 22q13 0 19.5 -9.5t4.5 -23.5zM201 54q51 0 87 34t45 87l24 138q3 13 3 25
q0 44 -26.5 70t-74.5 26q-50 0 -82.5 -31.5t-41.5 -81.5l-28 -154q-3 -12 -3 -25q0 -40 25 -64t72 -24zM172 598q0 13 9 21t20 8h191q11 0 18.5 -7t7.5 -19t-9 -20t-20 -8h-191q-11 0 -18.5 7.5t-7.5 17.5z" />
    <glyph glyph-name="Abreve" unicode="&#x102;" horiz-adv-x="547" 
d="M125 155l-69 -138q-9 -22 -31 -22q-19 0 -29 16.5t0 34.5l293 581q17 35 51 35q38 0 43 -38l90 -587q2 -17 -9.5 -29.5t-29.5 -12.5q-15 0 -25 10t-12 26l-18 124h-254zM323 558l-166 -337h214zM462 792q-6 -43 -35 -70.5t-77 -27.5q-47 0 -72 27.5t-18 72.5q4 22 25 22
q11 0 17.5 -6.5t5.5 -17.5q-5 -24 7.5 -39.5t40.5 -15.5q44 0 59 59q5 20 24 20q11 0 17.5 -7t5.5 -17z" />
    <glyph glyph-name="abreve" unicode="&#x103;" 
d="M455 461l-76 -436q-7 -30 -32 -30q-27 0 -28 26v36q-56 -67 -140 -67q-66 0 -106 38t-40 104q0 17 3 38l26 148q15 86 63.5 133.5t131.5 47.5q39 0 74.5 -18t53.5 -48l14 39q10 22 32 22q13 0 19.5 -9.5t4.5 -23.5zM201 54q51 0 87 34t45 87l24 138q3 13 3 25
q0 44 -26.5 70t-74.5 26q-50 0 -82.5 -31.5t-41.5 -81.5l-28 -154q-3 -12 -3 -25q0 -40 25 -64t72 -24zM403 646q-6 -43 -34.5 -70.5t-76.5 -27.5q-47 0 -72 28t-18 72q2 22 25 22q10 0 16.5 -6.5t5.5 -17.5q-5 -24 8 -39.5t41 -15.5q7 0 13.5 1.5t11.5 4.5t9 5.5t7.5 8
t5.5 8.5t4.5 9t3 8t2.5 8l2 6q3 20 24 20q11 0 17 -7t5 -17z" />
    <glyph glyph-name="Aogonek" unicode="&#x104;" horiz-adv-x="547" 
d="M410 -188q-116 -4 -116 62q0 40 34 76t81 56q-10 9 -12 25l-18 124h-254l-69 -138q-9 -22 -31 -22q-19 0 -29 16.5t0 34.5l293 581q17 35 51 35q38 0 43 -38l90 -587q1 -15 -7.5 -27t-22.5 -14q-97 -53 -97 -106q0 -19 16.5 -25t50.5 -6q22 0 22 -21q0 -24 -25 -26z
M323 558l-166 -337h214z" />
    <glyph glyph-name="aogonek" unicode="&#x105;" 
d="M319 -188q-116 -4 -116 62q0 41 36.5 78t83.5 56q-4 6 -4 13v36q-56 -67 -140 -67q-66 0 -106 38t-40 104q0 17 3 38l26 148q15 86 63.5 133.5t131.5 47.5q39 0 74.5 -18t53.5 -48l14 39q10 22 32 22q13 0 20 -9.5t4 -23.5l-76 -436q-5 -28 -25 -29q-99 -52 -99 -106
q0 -19 16.5 -25t50.5 -6q22 0 22 -21q0 -24 -25 -26zM201 54q51 0 87 34t45 87l24 138q3 13 3 25q0 44 -26.5 70t-74.5 26q-50 0 -82.5 -31.5t-41.5 -81.5l-28 -154q-3 -12 -3 -25q0 -40 25 -64t72 -24z" />
    <glyph glyph-name="Cacute" unicode="&#x106;" horiz-adv-x="543" 
d="M469 171q-17 -85 -77.5 -133t-152.5 -48q-85 0 -139 45.5t-54 123.5q0 12 4 40l45 259q17 98 79.5 153.5t162.5 55.5q84 0 139.5 -49t47.5 -135q-3 -35 -36 -35q-35 0 -35 36q0 115 -123 115q-63 0 -106 -39t-54 -101l-45 -261q-3 -16 -3 -31q0 -50 32.5 -79.5
t92.5 -29.5q63 0 103.5 33.5t51.5 93.5q7 31 35 31q17 0 26.5 -13t5.5 -32zM461 770l-98 -67q-5 -4 -15 -4q-18 0 -23 16.5t8 28.5l84 77q11 9 23 9q23 1 32 -22t-11 -38z" />
    <glyph glyph-name="cacute" unicode="&#x107;" horiz-adv-x="469" 
d="M394 623l-97 -66q-8 -5 -15 -5q-18 0 -23.5 17t7.5 28l85 78q9 9 22 9q24 0 32.5 -22.5t-11.5 -38.5zM394 131q-42 -141 -193 -141q-74 0 -121 41.5t-47 113.5q0 19 3 38l22 126q15 90 69.5 140t142.5 50q67 0 115 -37.5t46 -103.5q-2 -40 -34 -40q-15 0 -24.5 9t-9.5 24
q0 40 -26.5 62.5t-75.5 22.5q-51 0 -86 -34t-44 -88l-24 -136q-3 -15 -3 -28q0 -44 26.5 -71t76.5 -27q93 0 123 95q9 28 33 28q17 0 26.5 -13.5t4.5 -30.5z" />
    <glyph glyph-name="Ccircumflex" unicode="&#x108;" horiz-adv-x="543" 
d="M469 171q-17 -85 -77.5 -133t-152.5 -48q-85 0 -139 45.5t-54 123.5q0 12 4 40l45 259q17 98 79.5 153.5t162.5 55.5q84 0 139.5 -49t47.5 -135q-3 -35 -36 -35q-35 0 -35 36q0 115 -123 115q-63 0 -106 -39t-54 -101l-45 -261q-3 -16 -3 -31q0 -50 32.5 -79.5
t92.5 -29.5q63 0 103.5 33.5t51.5 93.5q7 31 35 31q17 0 26.5 -13t5.5 -32zM367 780l-101 -79q-5 -4 -12 -4q-13 0 -17.5 12t5.5 20l105 105q15 15 31 15q18 0 28 -18l68 -103q7 -10 0.5 -21t-19.5 -11q-8 0 -15 7z" />
    <glyph glyph-name="ccircumflex" unicode="&#x109;" horiz-adv-x="469" 
d="M300 633l-100 -79q-8 -4 -12 -4q-13 0 -17.5 12t4.5 20l106 105q15 15 31 15t28 -17l68 -104q6 -10 -0.5 -20.5t-19.5 -10.5q-9 0 -15 6zM394 131q-42 -141 -193 -141q-74 0 -121 41.5t-47 113.5q0 19 3 38l22 126q15 90 69.5 140t142.5 50q67 0 115 -37.5t46 -103.5
q-2 -40 -34 -40q-15 0 -24.5 9t-9.5 24q0 40 -26.5 62.5t-75.5 22.5q-51 0 -86 -34t-44 -88l-24 -136q-3 -15 -3 -28q0 -44 26.5 -71t76.5 -27q93 0 123 95q9 28 33 28q17 0 26.5 -13.5t4.5 -30.5z" />
    <glyph glyph-name="Cdotaccent" unicode="&#x10a;" horiz-adv-x="543" 
d="M311 754q0 23 16 40t40 17q19 0 31.5 -12t12.5 -30q0 -24 -15.5 -40.5t-40.5 -16.5q-20 0 -32 11.5t-12 30.5zM469 171q-17 -85 -77.5 -133t-152.5 -48q-85 0 -139 45.5t-54 123.5q0 12 4 40l45 259q17 98 79.5 153.5t162.5 55.5q84 0 139.5 -49t47.5 -135
q-3 -35 -36 -35q-35 0 -35 36q0 115 -123 115q-63 0 -106 -39t-54 -101l-45 -261q-3 -16 -3 -31q0 -50 32.5 -79.5t92.5 -29.5q63 0 103.5 33.5t51.5 93.5q7 31 35 31q17 0 26.5 -13t5.5 -32z" />
    <glyph glyph-name="cdotaccent" unicode="&#x10b;" horiz-adv-x="469" 
d="M394 131q-42 -141 -193 -141q-74 0 -121 41.5t-47 113.5q0 19 3 38l22 126q15 90 69.5 140t142.5 50q67 0 115 -37.5t46 -103.5q-2 -40 -34 -40q-15 0 -24.5 9t-9.5 24q0 40 -26.5 62.5t-75.5 22.5q-51 0 -86 -34t-44 -88l-24 -136q-3 -15 -3 -28q0 -44 26.5 -71
t76.5 -27q93 0 123 95q9 28 33 28q17 0 26.5 -13.5t4.5 -30.5zM244 600q0 24 16 41t40 17q20 0 32.5 -12t12.5 -31q0 -23 -16 -39.5t-41 -16.5q-19 0 -31.5 11.5t-12.5 29.5z" />
    <glyph glyph-name="Ccaron" unicode="&#x10c;" horiz-adv-x="543" 
d="M469 171q-17 -85 -77.5 -133t-152.5 -48q-85 0 -139 45.5t-54 123.5q0 12 4 40l45 259q17 98 79.5 153.5t162.5 55.5q84 0 139.5 -49t47.5 -135q-3 -35 -36 -35q-35 0 -35 36q0 115 -123 115q-63 0 -106 -39t-54 -101l-45 -261q-3 -16 -3 -31q0 -50 32.5 -79.5
t92.5 -29.5q63 0 103.5 33.5t51.5 93.5q7 31 35 31q17 0 26.5 -13t5.5 -32zM361 754l100 77q7 5 13 5q13 0 17 -11.5t-5 -19.5l-105 -106q-14 -14 -32 -14q-14 0 -26 17l-69 104q-6 10 -0.5 21t18.5 11q8 0 15 -7z" />
    <glyph glyph-name="ccaron" unicode="&#x10d;" horiz-adv-x="469" 
d="M294 611l99 78q6 4 13 4q13 0 17 -12t-5 -20l-105 -104q-15 -15 -31 -15q-15 0 -27 17l-67 105q-7 10 -0.5 21t19.5 11q8 0 15 -7zM394 131q-42 -141 -193 -141q-74 0 -121 41.5t-47 113.5q0 19 3 38l22 126q15 90 69.5 140t142.5 50q67 0 115 -37.5t46 -103.5
q-2 -40 -34 -40q-15 0 -24.5 9t-9.5 24q0 40 -26.5 62.5t-75.5 22.5q-51 0 -86 -34t-44 -88l-24 -136q-3 -15 -3 -28q0 -44 26.5 -71t76.5 -27q93 0 123 95q9 28 33 28q17 0 26.5 -13.5t4.5 -30.5z" />
    <glyph glyph-name="Dcaron" unicode="&#x10e;" horiz-adv-x="574" 
d="M71 0q-17 0 -26.5 11t-6.5 27l104 585q5 34 41 34h170q83 0 136 -47t53 -125q0 -14 -4 -42l-40 -229q-18 -102 -82.5 -158t-173.5 -56h-171zM341 589h-130l-93 -521h134q68 0 113 40t57 105l42 231q3 18 3 33q0 52 -32.5 82t-93.5 30zM340 754l100 77q7 5 13 5
q13 0 17 -11.5t-5 -19.5l-105 -106q-14 -14 -32 -14q-14 0 -26 17l-69 104q-6 10 -0.5 21t18.5 11q8 0 15 -7z" />
    <glyph glyph-name="dcaron" unicode="&#x10f;" 
d="M560 545q-7 -12 -22 -12q-10 0 -17 6.5t-7 16.5q0 6 1 9l34 96q7 21 30 21q16 0 26 -9t10 -23q0 -7 -5 -17zM203 54q50 0 85.5 34.5t44.5 86.5l24 138q3 13 3 25q0 43 -27 69.5t-76 26.5t-81 -31.5t-41 -81.5l-28 -154q-3 -12 -3 -25q0 -40 25.5 -64t73.5 -24zM487 641
l-108 -616q-7 -30 -32 -30q-27 0 -28 26v36q-56 -67 -138 -67q-66 0 -107.5 38.5t-41.5 102.5q0 13 4 39l26 148q31 181 192 181q37 0 72.5 -16t53.5 -44l37 210q5 33 37 33q17 0 26.5 -11.5t6.5 -29.5z" />
    <glyph glyph-name="Dcroat" unicode="&#x110;" horiz-adv-x="592" 
d="M30 333q0 15 10 24t24 9h50l45 255q3 16 15 26t28 10h167q83 0 137 -47t54 -125q0 -22 -4 -42l-40 -229q-19 -101 -82.5 -157.5t-169.5 -56.5h-178q-17 0 -25.5 10t-5.5 26l48 268h-43q-12 0 -21 8t-9 21zM356 589h-127l-40 -223h101q13 0 21.5 -8t8.5 -21q0 -15 -10 -24
t-24 -9h-108l-41 -236h138q66 0 109.5 39.5t55.5 105.5l41 231q3 18 3 33q0 52 -32.5 82t-95.5 30z" />
    <glyph glyph-name="dcroat" unicode="&#x111;" 
d="M487 641l-7 -38h35q11 0 18.5 -6.5t7.5 -18.5q0 -13 -8.5 -20t-20.5 -7h-41l-92 -526q-7 -30 -32 -30q-27 0 -28 26v36q-56 -67 -138 -67q-66 0 -107.5 38.5t-41.5 102.5q0 13 4 39l26 148q31 181 192 181q37 0 72.5 -16t53.5 -44l19 112h-96q-11 0 -18.5 6.5t-7.5 17.5
q0 13 9 20.5t21 7.5h102l8 46q5 33 37 33q17 0 26.5 -11.5t6.5 -29.5zM203 54q50 0 85.5 34.5t44.5 86.5l24 138q3 13 3 25q0 43 -27 69.5t-76 26.5t-81 -31.5t-41 -81.5l-28 -154q-3 -12 -3 -25q0 -40 25.5 -64t73.5 -24z" />
    <glyph glyph-name="Emacron" unicode="&#x112;" horiz-adv-x="511" 
d="M183 657h304q14 0 23.5 -9t9.5 -23q0 -16 -11 -26t-26 -10h-272l-39 -220h241q14 0 23 -8.5t9 -22.5q0 -16 -11 -26t-25 -10h-249l-42 -234h274q14 0 23.5 -9t9.5 -23q0 -16 -11 -26t-26 -10h-317q-18 0 -27 10.5t-6 27.5l104 585q5 34 41 34zM233 758q0 13 9 21t20 8
h192q10 0 17.5 -7t7.5 -19t-9 -20t-20 -8h-191q-11 0 -18.5 7.5t-7.5 17.5z" />
    <glyph glyph-name="emacron" unicode="&#x113;" horiz-adv-x="471" 
d="M131 316l-5 -25h227l5 25q3 15 3 29q0 43 -26 68.5t-74 25.5q-51 0 -85 -34t-45 -89zM390 125q-18 -62 -66.5 -98.5t-122.5 -36.5t-122 39.5t-48 107.5q0 17 3 35l24 137q15 89 70 139.5t141 50.5q70 0 115 -41t45 -111q0 -16 -4 -38l-7 -39q-2 -15 -13 -25t-27 -10h-261
l-13 -70q-2 -16 -2 -24q0 -42 27.5 -67t77.5 -25q94 0 121 93q8 27 32 27q19 0 27 -13t3 -31zM169 598q0 13 9 21t20 8h191q11 0 18.5 -7t7.5 -19t-9 -20t-20 -8h-191q-11 0 -18.5 7.5t-7.5 17.5z" />
    <glyph glyph-name="Ebreve" unicode="&#x114;" horiz-adv-x="511" 
d="M183 657h304q14 0 23.5 -9t9.5 -23q0 -16 -11 -26t-26 -10h-272l-39 -220h241q14 0 23 -8.5t9 -22.5q0 -16 -11 -26t-25 -10h-249l-42 -234h274q14 0 23.5 -9t9.5 -23q0 -16 -11 -26t-26 -10h-317q-18 0 -27 10.5t-6 27.5l104 585q5 34 41 34zM463 792q-6 -43 -35 -70.5
t-77 -27.5q-47 0 -72 27.5t-18 72.5q4 22 25 22q11 0 17.5 -6.5t5.5 -17.5q-5 -24 7.5 -39.5t40.5 -15.5q44 0 59 59q5 20 24 20q11 0 17.5 -7t5.5 -17z" />
    <glyph glyph-name="ebreve" unicode="&#x115;" horiz-adv-x="471" 
d="M131 316l-5 -25h227l5 25q3 15 3 29q0 43 -26 68.5t-74 25.5q-51 0 -85 -34t-45 -89zM390 125q-18 -62 -66.5 -98.5t-122.5 -36.5t-122 39.5t-48 107.5q0 17 3 35l24 137q15 89 70 139.5t141 50.5q70 0 115 -41t45 -111q0 -16 -4 -38l-7 -39q-2 -15 -13 -25t-27 -10h-261
l-13 -70q-2 -16 -2 -24q0 -42 27.5 -67t77.5 -25q94 0 121 93q8 27 32 27q19 0 27 -13t3 -31zM400 646q-6 -43 -34.5 -70.5t-76.5 -27.5q-47 0 -72 28t-18 72q2 22 25 22q10 0 16.5 -6.5t5.5 -17.5q-5 -24 8 -39.5t41 -15.5q7 0 13.5 1.5t11.5 4.5t9 5.5t7.5 8t5.5 8.5
t4.5 9t3 8t2.5 8l2 6q3 20 24 20q11 0 17 -7t5 -17z" />
    <glyph glyph-name="Edotaccent" unicode="&#x116;" horiz-adv-x="511" 
d="M307 754q0 23 16 40t40 17q19 0 31.5 -12t12.5 -30q0 -24 -15.5 -40.5t-40.5 -16.5q-20 0 -32 11.5t-12 30.5zM183 657h304q14 0 23.5 -9t9.5 -23q0 -16 -11 -26t-26 -10h-272l-39 -220h241q14 0 23 -8.5t9 -22.5q0 -16 -11 -26t-25 -10h-249l-42 -234h274q14 0 23.5 -9
t9.5 -23q0 -16 -11 -26t-26 -10h-317q-18 0 -27 10.5t-6 27.5l104 585q5 34 41 34z" />
    <glyph glyph-name="edotaccent" unicode="&#x117;" horiz-adv-x="471" 
d="M131 316l-5 -25h227l5 25q3 15 3 29q0 43 -26 68.5t-74 25.5q-51 0 -85 -34t-45 -89zM390 125q-18 -62 -66.5 -98.5t-122.5 -36.5t-122 39.5t-48 107.5q0 17 3 35l24 137q15 89 70 139.5t141 50.5q70 0 115 -41t45 -111q0 -16 -4 -38l-7 -39q-2 -15 -13 -25t-27 -10h-261
l-13 -70q-2 -16 -2 -24q0 -42 27.5 -67t77.5 -25q94 0 121 93q8 27 32 27q19 0 27 -13t3 -31zM244 600q0 24 16 41t40 17q20 0 32.5 -12t12.5 -31q0 -23 -16 -39.5t-41 -16.5q-19 0 -31.5 11.5t-12.5 29.5z" />
    <glyph glyph-name="Eogonek" unicode="&#x118;" horiz-adv-x="511" 
d="M367 -162q0 -11 -7.5 -18t-18.5 -8q-115 -4 -115 62q0 37 28.5 71t70.5 55h-254q-18 0 -27 10.5t-6 27.5l104 585q5 34 41 34h304q14 0 23.5 -9t9.5 -23q0 -16 -11 -26t-26 -10h-272l-39 -220h241q14 0 23 -8.5t9 -22.5q0 -16 -11 -26t-25 -10h-249l-42 -234h274
q14 0 23.5 -9t9.5 -23q0 -16 -11 -26t-26 -10h-8q-103 -55 -103 -110q0 -19 16.5 -25t50.5 -6q23 0 23 -21z" />
    <glyph glyph-name="eogonek" unicode="&#x119;" horiz-adv-x="471" 
d="M292 -188h-30q-39 0 -62 20t-23 52q0 53 60 111q-12 -5 -38 -5q-74 0 -121 39.5t-47 107.5q0 17 3 35l24 137q15 89 70 139.5t141 50.5q70 0 115 -41t45 -111q0 -10 -4 -38l-7 -39q-2 -15 -13 -25t-27 -10h-261l-13 -70q-2 -16 -2 -24q0 -42 27.5 -67t77.5 -25
q47 0 79.5 26t41.5 67q8 27 34 27q17 0 26 -14t2 -29q-16 -59 -55 -92q-4 -3 -22 -18t-23 -19.5t-18.5 -17t-18 -19.5t-12 -18t-10 -21.5t-2.5 -21.5q0 -39 44 -39h22q10 0 16.5 -6t6.5 -16q0 -12 -8 -19t-18 -7zM131 316l-5 -25h227l5 25q3 15 3 29q0 43 -26 68.5t-74 25.5
q-51 0 -85 -34t-45 -89z" />
    <glyph glyph-name="Ecaron" unicode="&#x11a;" horiz-adv-x="511" 
d="M183 657h304q14 0 23.5 -9t9.5 -23q0 -16 -11 -26t-26 -10h-272l-39 -220h241q14 0 23 -8.5t9 -22.5q0 -16 -11 -26t-25 -10h-249l-42 -234h274q14 0 23.5 -9t9.5 -23q0 -16 -11 -26t-26 -10h-317q-18 0 -27 10.5t-6 27.5l104 585q5 34 41 34zM356 754l100 77q7 5 13 5
q13 0 17 -11.5t-5 -19.5l-105 -106q-14 -14 -32 -14q-14 0 -26 17l-69 104q-6 10 -0.5 21t18.5 11q8 0 15 -7z" />
    <glyph glyph-name="ecaron" unicode="&#x11b;" horiz-adv-x="471" 
d="M294 611l99 78q6 4 13 4q13 0 17 -12t-5 -20l-105 -104q-15 -15 -31 -15q-15 0 -27 17l-67 105q-7 10 -0.5 21t19.5 11q8 0 15 -7zM131 316l-5 -25h227l5 25q3 15 3 29q0 43 -26 68.5t-74 25.5q-51 0 -85 -34t-45 -89zM390 125q-18 -62 -66.5 -98.5t-122.5 -36.5
t-122 39.5t-48 107.5q0 17 3 35l24 137q15 89 70 139.5t141 50.5q70 0 115 -41t45 -111q0 -16 -4 -38l-7 -39q-2 -15 -13 -25t-27 -10h-261l-13 -70q-2 -16 -2 -24q0 -42 27.5 -67t77.5 -25q94 0 121 93q8 27 32 27q19 0 27 -13t3 -31z" />
    <glyph glyph-name="Gcircumflex" unicode="&#x11c;" horiz-adv-x="549" 
d="M365 780l-101 -79q-5 -4 -12 -4q-13 0 -17.5 12t5.5 20l105 105q15 15 31 15q18 0 28 -18l68 -103q7 -10 0.5 -21t-19.5 -11q-8 0 -15 7zM416 259h-95q-12 0 -20.5 8.5t-8.5 20.5q0 15 10 24t24 9h132q17 0 26 -11t6 -28l-16 -93q-16 -93 -76.5 -146t-157.5 -53
q-85 0 -139.5 45.5t-54.5 124.5q0 17 4 39l45 259q17 98 80 153.5t163 55.5q84 0 141.5 -45.5t48.5 -126.5q-3 -35 -36 -35q-16 0 -26 10t-10 26q1 46 -31 74.5t-96 28.5q-63 0 -105.5 -39t-53.5 -101l-45 -261q-3 -16 -3 -30q0 -50 33 -80t95 -30q64 0 104.5 35.5
t49.5 93.5z" />
    <glyph glyph-name="gcircumflex" unicode="&#x11d;" 
d="M302 633l-100 -79q-8 -4 -12 -4q-13 0 -17.5 12t4.5 20l106 105q15 15 31 15t28 -17l68 -104q6 -10 -0.5 -20.5t-19.5 -10.5q-9 0 -15 6zM455 461l-86 -488q-14 -82 -66 -126t-138 -44q-61 0 -108 28t-48 87q-6 15 3 28.5t28 13.5q13 0 21 -8.5t10 -19.5
q-1 -34 28.5 -51.5t73.5 -17.5q50 0 82.5 28.5t41.5 76.5l17 98q-55 -58 -131 -58q-67 0 -107 38t-40 103q0 18 3 39l23 130q15 86 63.5 133.5t131.5 47.5q39 0 74.5 -18t53.5 -48l14 38q8 23 32 23q13 0 20 -9.5t4 -23.5zM205 72q51 0 86.5 34t44.5 87l21 120q3 13 3 26
q0 43 -27 69t-75 26q-49 0 -81.5 -31.5t-41.5 -81.5l-25 -136q-2 -18 -2 -25q0 -40 24.5 -64t72.5 -24z" />
    <glyph glyph-name="Gbreve" unicode="&#x11e;" horiz-adv-x="549" 
d="M416 259h-95q-12 0 -20.5 8.5t-8.5 20.5q0 15 10 24t24 9h132q17 0 26 -11t6 -28l-16 -93q-16 -93 -76.5 -146t-157.5 -53q-85 0 -139.5 45.5t-54.5 124.5q0 17 4 39l45 259q17 98 80 153.5t163 55.5q84 0 141.5 -45.5t48.5 -126.5q-3 -35 -36 -35q-16 0 -26 10t-10 26
q1 46 -31 74.5t-96 28.5q-63 0 -105.5 -39t-53.5 -101l-45 -261q-3 -16 -3 -30q0 -50 33 -80t95 -30q64 0 104.5 35.5t49.5 93.5zM467 792q-6 -43 -35 -70.5t-77 -27.5q-47 0 -72 27.5t-18 72.5q4 22 25 22q11 0 17.5 -6.5t5.5 -17.5q-5 -24 7.5 -39.5t40.5 -15.5
q44 0 59 59q5 20 24 20q11 0 17.5 -7t5.5 -17z" />
    <glyph glyph-name="gbreve" unicode="&#x11f;" 
d="M455 461l-86 -488q-14 -82 -66 -126t-138 -44q-61 0 -108 28t-48 87q-6 15 3 28.5t28 13.5q13 0 21 -8.5t10 -19.5q-1 -34 28.5 -51.5t73.5 -17.5q50 0 82.5 28.5t41.5 76.5l17 98q-55 -58 -131 -58q-67 0 -107 38t-40 103q0 18 3 39l23 130q15 86 63.5 133.5t131.5 47.5
q39 0 74.5 -18t53.5 -48l14 38q8 23 32 23q13 0 20 -9.5t4 -23.5zM205 72q51 0 86.5 34t44.5 87l21 120q3 13 3 26q0 43 -27 69t-75 26q-49 0 -81.5 -31.5t-41.5 -81.5l-25 -136q-2 -18 -2 -25q0 -40 24.5 -64t72.5 -24zM404 646q-6 -43 -34.5 -70.5t-76.5 -27.5
q-47 0 -72 28t-18 72q2 22 25 22q10 0 16.5 -6.5t5.5 -17.5q-5 -24 8 -39.5t41 -15.5q7 0 13.5 1.5t11.5 4.5t9 5.5t7.5 8t5.5 8.5t4.5 9t3 8t2.5 8l2 6q3 20 24 20q11 0 17 -7t5 -17z" />
    <glyph glyph-name="Gdotaccent" unicode="&#x120;" horiz-adv-x="549" 
d="M311 754q0 23 16 40t40 17q19 0 31.5 -12t12.5 -30q0 -24 -15.5 -40.5t-40.5 -16.5q-20 0 -32 11.5t-12 30.5zM416 259h-95q-12 0 -20.5 8.5t-8.5 20.5q0 15 10 24t24 9h132q17 0 26 -11t6 -28l-16 -93q-16 -93 -76.5 -146t-157.5 -53q-85 0 -139.5 45.5t-54.5 124.5
q0 17 4 39l45 259q17 98 80 153.5t163 55.5q84 0 141.5 -45.5t48.5 -126.5q-3 -35 -36 -35q-16 0 -26 10t-10 26q1 46 -31 74.5t-96 28.5q-63 0 -105.5 -39t-53.5 -101l-45 -261q-3 -16 -3 -30q0 -50 33 -80t95 -30q64 0 104.5 35.5t49.5 93.5z" />
    <glyph glyph-name="gdotaccent" unicode="&#x121;" 
d="M455 461l-86 -488q-14 -82 -66 -126t-138 -44q-61 0 -108 28t-48 87q-6 15 3 28.5t28 13.5q13 0 21 -8.5t10 -19.5q-1 -34 28.5 -51.5t73.5 -17.5q50 0 82.5 28.5t41.5 76.5l17 98q-55 -58 -131 -58q-67 0 -107 38t-40 103q0 18 3 39l23 130q15 86 63.5 133.5t131.5 47.5
q39 0 74.5 -18t53.5 -48l14 38q8 23 32 23q13 0 20 -9.5t4 -23.5zM205 72q51 0 86.5 34t44.5 87l21 120q3 13 3 26q0 43 -27 69t-75 26q-49 0 -81.5 -31.5t-41.5 -81.5l-25 -136q-2 -18 -2 -25q0 -40 24.5 -64t72.5 -24zM247 600q0 24 16 41t40 17q20 0 32.5 -12t12.5 -31
q0 -23 -16 -39.5t-41 -16.5q-19 0 -31.5 11.5t-12.5 29.5z" />
    <glyph glyph-name="uni0122" unicode="&#x122;" horiz-adv-x="549" 
d="M257 -95l-66 -110q-9 -16 -25 -16q-11 0 -18.5 7.5t-7.5 17.5q0 8 3 16l45 115q11 26 35 26q16 0 27 -11t11 -27q0 -10 -4 -18zM416 259h-95q-12 0 -20.5 8.5t-8.5 20.5q0 15 10 24t24 9h132q17 0 26 -11t6 -28l-16 -93q-16 -93 -76.5 -146t-157.5 -53q-85 0 -139.5 45.5
t-54.5 124.5q0 17 4 39l45 259q17 98 80 153.5t163 55.5q84 0 141.5 -45.5t48.5 -126.5q-3 -35 -36 -35q-16 0 -26 10t-10 26q1 46 -31 74.5t-96 28.5q-63 0 -105.5 -39t-53.5 -101l-45 -261q-3 -16 -3 -30q0 -50 33 -80t95 -30q64 0 104.5 35.5t49.5 93.5z" />
    <glyph glyph-name="uni0123" unicode="&#x123;" 
d="M256 601l66 110q9 16 25 16q11 0 18.5 -7.5t7.5 -17.5q0 -8 -3 -16l-45 -115q-11 -26 -35 -26q-16 0 -27 11t-11 27q0 10 4 18zM455 461l-86 -488q-14 -82 -66 -126t-138 -44q-61 0 -108 28t-48 87q-6 15 3 28.5t28 13.5q13 0 21 -8.5t10 -19.5q-1 -34 28.5 -51.5
t73.5 -17.5q50 0 82.5 28.5t41.5 76.5l17 98q-55 -58 -131 -58q-67 0 -107 38t-40 103q0 18 3 39l23 130q15 86 63.5 133.5t131.5 47.5q39 0 74.5 -18t53.5 -48l14 38q8 23 32 23q13 0 20 -9.5t4 -23.5zM205 72q51 0 86.5 34t44.5 87l21 120q3 13 3 26q0 43 -27 69t-75 26
q-49 0 -81.5 -31.5t-41.5 -81.5l-25 -136q-2 -18 -2 -25q0 -40 24.5 -64t72.5 -24z" />
    <glyph glyph-name="Hcircumflex" unicode="&#x124;" horiz-adv-x="585" 
d="M562 621l-104 -589q-7 -37 -38 -37q-18 0 -28.5 11.5t-7.5 29.5l46 266h-270l-48 -273q-5 -34 -38 -34q-19 0 -29.5 11.5t-6.5 29.5l105 592q5 34 38 34q18 0 28.5 -11.5t6.5 -29.5l-44 -252h271l46 259q5 34 38 34q18 0 28.5 -11.5t6.5 -29.5zM380 780l-101 -79
q-5 -4 -12 -4q-13 0 -17.5 12t5.5 20l105 105q15 15 31 15q18 0 28 -18l68 -103q7 -10 0.5 -21t-19.5 -11q-8 0 -15 7z" />
    <glyph glyph-name="hcircumflex" unicode="&#x125;" horiz-adv-x="504" 
d="M188 781l-100 -79q-8 -4 -12 -4q-13 0 -17.5 12t4.5 20l106 105q15 15 31 15t28 -17l68 -104q6 -10 -0.5 -20.5t-19.5 -10.5q-9 0 -15 6zM206 643l-36 -204q55 60 137 60q64 0 103 -38t39 -103q0 -17 -3 -38l-52 -293q-5 -32 -37 -32q-17 0 -27 11t-7 28l50 287
q3 13 3 26q0 39 -23.5 63t-68.5 24q-53 0 -89.5 -34t-46.5 -87l-50 -286q-5 -32 -37 -32q-18 0 -28 11t-7 28l108 616q7 32 37 32q18 0 28 -11t7 -28z" />
    <glyph glyph-name="Hbar" unicode="&#x126;" horiz-adv-x="586" 
d="M564 621l-14 -78h35q25 0 25 -23q0 -13 -8.5 -20t-20.5 -7h-40l-81 -461q-7 -37 -38 -37q-18 0 -28.5 11.5t-7.5 29.5l46 266h-270l-48 -273q-5 -34 -38 -34q-19 0 -29.5 11.5t-6.5 29.5l81 457h-36q-11 0 -18.5 6.5t-7.5 16.5q0 27 30 27h41l15 85q5 34 38 34
q18 0 28.5 -11.5t6.5 -29.5l-14 -78h272l15 85q5 34 38 34q18 0 28.5 -11.5t6.5 -29.5zM174 369h271l22 124h-272z" />
    <glyph glyph-name="hbar" unicode="&#x127;" horiz-adv-x="504" 
d="M206 643l-7 -40h96q10 0 17.5 -7t7.5 -18q0 -13 -9 -20t-20 -7h-101l-20 -112q55 60 137 60q64 0 103 -38t39 -103q0 -17 -3 -38l-52 -293q-5 -32 -37 -32q-17 0 -27 11t-7 28l50 287q3 13 3 26q0 39 -23.5 63t-68.5 24q-53 0 -89.5 -34t-46.5 -87l-50 -286
q-7 -32 -37 -32q-17 0 -27 11t-8 28l90 517h-33q-25 0 -25 24q0 13 9 20.5t20 7.5h38l9 47q7 32 37 32q18 0 28 -11t7 -28z" />
    <glyph glyph-name="Itilde" unicode="&#x128;" horiz-adv-x="239" 
d="M216 621l-104 -592q-5 -34 -38 -34q-18 0 -29 11.5t-7 29.5l105 592q5 34 38 34q18 0 28.5 -11.5t6.5 -29.5zM87 705q-6 -14 -21 -14q-10 0 -16 7.5t-4 16.5q3 37 30 63t68 26q26 0 55 -17l37 -23q28 -17 42 -17q28 0 40 47q5 13 18 13q10 0 16 -7t5 -17
q-4 -37 -25.5 -62t-58.5 -25q-29 0 -62 21l-37 22q-23 14 -37 14q-34 0 -50 -48z" />
    <glyph glyph-name="itilde" unicode="&#x129;" horiz-adv-x="213" 
d="M172 454l-74 -427q-7 -32 -37 -32q-17 0 -27 11t-7 28l75 427q6 33 37 33q17 0 26.5 -11t6.5 -29zM50 565q-6 -14 -20 -14q-11 0 -16.5 8t-3.5 16q2 37 29.5 63t67.5 26q25 0 55 -16l37 -23q28 -18 42 -18q28 0 40 48q5 12 18 12q10 0 16 -6.5t5 -16.5q-4 -37 -25.5 -62
t-58.5 -25q-26 0 -61 20l-37 22q-22 14 -37 14q-36 0 -51 -48z" />
    <glyph glyph-name="Imacron" unicode="&#x12a;" horiz-adv-x="239" 
d="M216 621l-104 -592q-5 -34 -38 -34q-18 0 -29 11.5t-7 29.5l105 592q5 34 38 34q18 0 28.5 -11.5t6.5 -29.5zM80 758q0 13 9 21t20 8h192q10 0 17.5 -7t7.5 -19t-9 -20t-20 -8h-191q-11 0 -18.5 7.5t-7.5 17.5z" />
    <glyph glyph-name="imacron" unicode="&#x12b;" horiz-adv-x="213" 
d="M172 454l-74 -427q-7 -32 -37 -32q-17 0 -27 11t-7 28l75 427q6 33 37 33q17 0 26.5 -11t6.5 -29zM39 598q0 13 9 21t20 8h191q11 0 18.5 -7t7.5 -19t-9 -20t-20 -8h-191q-11 0 -18.5 7.5t-7.5 17.5z" />
    <glyph glyph-name="Iogonek" unicode="&#x12e;" horiz-adv-x="239" 
d="M52 -188q-116 -4 -116 62q0 39 33 75t78 57q-12 9 -9 30l105 592q5 34 38 34q18 0 28.5 -11.5t6.5 -29.5l-104 -592q-5 -30 -28 -33q-96 -52 -96 -106q0 -19 16.5 -25t50.5 -6q22 0 22 -21q0 -24 -25 -26z" />
    <glyph glyph-name="iogonek" unicode="&#x12f;" horiz-adv-x="213" 
d="M120 621q0 23 15 38.5t40 15.5q17 0 28.5 -11.5t11.5 -28.5q0 -24 -15.5 -39t-41.5 -15q-16 0 -27 11.5t-11 28.5zM37 -188q-116 -4 -116 62q0 40 33.5 76.5t79.5 56.5q-10 10 -7 27l75 427q6 33 37 33q17 0 26.5 -11t6.5 -29l-74 -427q-5 -31 -30 -31q-95 -55 -95 -106
q0 -19 16.5 -25t50.5 -6q22 0 22 -21q0 -24 -25 -26z" />
    <glyph glyph-name="Idotaccent" unicode="&#x130;" horiz-adv-x="239" 
d="M216 621l-104 -592q-5 -34 -38 -34q-18 0 -29 11.5t-7 29.5l105 592q5 34 38 34q18 0 28.5 -11.5t6.5 -29.5zM152 754q0 23 16 40t40 17q19 0 31.5 -12t12.5 -30q0 -24 -15.5 -40.5t-40.5 -16.5q-20 0 -32 11.5t-12 30.5z" />
    <glyph glyph-name="dotlessi" unicode="&#x131;" horiz-adv-x="213" 
d="M172 454l-74 -427q-7 -32 -37 -32q-17 0 -27 11t-7 28l75 427q6 33 37 33q17 0 26.5 -11t6.5 -29z" />
    <glyph glyph-name="IJ" unicode="&#x132;" horiz-adv-x="729" 
d="M216 621l-104 -592q-5 -34 -38 -34q-18 0 -29 11.5t-7 29.5l105 592q5 34 38 34q18 0 28.5 -11.5t6.5 -29.5zM323 173q-5 -55 22 -85t84 -30q52 0 85.5 32.5t42.5 87.5l79 450q5 34 39 34q18 0 28 -11.5t7 -29.5l-78 -442q-16 -90 -69 -139.5t-141 -49.5q-86 0 -134 53.5
t-37 131.5q6 35 38 35q16 0 25.5 -10.5t8.5 -26.5z" />
    <glyph glyph-name="ij" unicode="&#x133;" horiz-adv-x="436" 
d="M120 621q0 23 15 38.5t40 15.5q17 0 28.5 -11.5t11.5 -28.5q0 -24 -15.5 -39t-41.5 -15q-16 0 -27 11.5t-11 28.5zM172 454l-74 -427q-7 -32 -37 -32q-17 0 -27 11t-7 28l75 427q6 33 37 33q17 0 26.5 -11t6.5 -29zM342 621q0 23 15 38.5t40 15.5q17 0 28.5 -11.5
t11.5 -28.5q0 -24 -15.5 -39t-41.5 -15q-16 0 -27 11.5t-11 28.5zM394 454l-83 -474q-31 -177 -205 -177q-11 0 -20.5 9t-9.5 22q0 14 9.5 23t23.5 9h7q104 0 122 109l86 486q6 33 37 33q17 0 26.5 -11t6.5 -29z" />
    <glyph glyph-name="Jcircumflex" unicode="&#x134;" horiz-adv-x="485" 
d="M78 173q-5 -55 22 -85t84 -30q52 0 85.5 32.5t42.5 87.5l79 450q5 34 39 34q18 0 28 -11.5t7 -29.5l-78 -442q-16 -90 -69 -139.5t-141 -49.5q-86 0 -134 53.5t-37 131.5q6 35 38 35q16 0 25.5 -10.5t8.5 -26.5zM453 780l-101 -79q-5 -4 -12 -4q-13 0 -17.5 12t5.5 20
l105 105q15 15 31 15q18 0 28 -18l68 -103q7 -10 0.5 -21t-19.5 -11q-8 0 -15 7z" />
    <glyph glyph-name="jcircumflex" unicode="&#x135;" horiz-adv-x="213" 
d="M167 633l-100 -79q-8 -4 -12 -4q-13 0 -17.5 12t4.5 20l106 105q15 15 31 15t28 -17l68 -104q6 -10 -0.5 -20.5t-19.5 -10.5q-9 0 -15 6zM172 454l-83 -474q-32 -177 -205 -177q-12 0 -20.5 8.5t-8.5 22.5t9.5 23t23.5 9h5q52 0 83 29t40 80l86 486q6 33 37 33
q17 0 26.5 -11t6.5 -29z" />
    <glyph glyph-name="uni0136" unicode="&#x136;" horiz-adv-x="537" 
d="M250 -95l-66 -110q-9 -16 -25 -16q-11 0 -18.5 7.5t-7.5 17.5q0 8 3 16l45 115q11 26 35 26q16 0 27 -11t11 -27q0 -10 -4 -18zM541 607l-200 -218l121 -348q5 -16 -6 -31t-29 -15q-28 0 -38 27l-107 308l-144 -155l-26 -146q-5 -34 -39 -34q-18 0 -28.5 11.5t-6.5 29.5
l105 592q5 34 38 34q18 0 28.5 -11.5t6.5 -29.5l-58 -332l334 361q10 12 25 12q21 0 30 -19t-6 -36z" />
    <glyph glyph-name="uni0137" unicode="&#x137;" horiz-adv-x="468" 
d="M213 -95l-66 -110q-9 -16 -25 -16q-11 0 -18.5 7.5t-7.5 17.5q0 8 3 16l45 115q11 26 35 26q16 0 27 -11t11 -27q0 -10 -4 -18zM362 -5q-23 0 -33 22l-106 228l-104 -90l-21 -128q-5 -32 -37 -32q-17 0 -27 11t-7 28l108 616q5 32 36 32q18 0 28 -11t7 -28l-69 -391
l265 232q12 10 23 10q20 0 28 -20t-8 -34l-165 -145l115 -248q8 -18 -2 -35t-31 -17z" />
    <glyph glyph-name="kgreenlandic" unicode="&#x138;" horiz-adv-x="468" 
d="M362 -5q-24 0 -34 22l-106 228l-103 -90l-21 -128q-5 -32 -37 -32q-17 0 -27 11t-7 28l74 427q7 33 37 33q17 0 27 -11t7 -28l-35 -203l265 232q12 10 23 10q20 0 27.5 -19.5t-7.5 -34.5l-165 -145l115 -248q8 -18 -2 -35t-31 -17z" />
    <glyph glyph-name="Lacute" unicode="&#x139;" horiz-adv-x="457" 
d="M301 770l-98 -67q-5 -4 -15 -4q-18 0 -23 16.5t8 28.5l84 77q10 9 23 9q23 1 32 -22t-11 -38zM365 0h-294q-18 0 -27 10.5t-6 27.5l105 590q5 34 38 34q18 0 28.5 -11.5t6.5 -29.5l-98 -553h255q32 0 32 -33q0 -17 -11.5 -26t-28.5 -9z" />
    <glyph glyph-name="lacute" unicode="&#x13a;" horiz-adv-x="222" 
d="M293 779l-98 -67q-5 -4 -15 -4q-18 0 -23 16.5t8 28.5l84 77q11 9 23 9q23 1 32 -22t-11 -38zM210 643l-108 -616q-5 -32 -36 -32q-18 0 -28 11t-7 28l108 616q5 32 37 32q17 0 27 -11t7 -28z" />
    <glyph glyph-name="uni013B" unicode="&#x13b;" horiz-adv-x="457" 
d="M227 -95l-66 -110q-9 -16 -25 -16q-11 0 -18.5 7.5t-7.5 17.5q0 8 3 16l45 115q11 26 35 26q16 0 27 -11t11 -27q0 -10 -4 -18zM365 0h-294q-18 0 -27 10.5t-6 27.5l105 590q5 34 38 34q18 0 28.5 -11.5t6.5 -29.5l-98 -553h255q32 0 32 -33q0 -17 -11.5 -26t-28.5 -9z
" />
    <glyph glyph-name="uni013C" unicode="&#x13c;" horiz-adv-x="222" 
d="M78 -95l-66 -110q-9 -16 -25 -16q-11 0 -18.5 7.5t-7.5 17.5q0 8 3 16l45 115q11 26 35 26q16 0 27 -11t11 -27q0 -10 -4 -18zM210 643l-108 -616q-5 -32 -36 -32q-18 0 -28 11t-7 28l108 616q5 32 37 32q17 0 27 -11t7 -28z" />
    <glyph glyph-name="Lcaron" unicode="&#x13d;" horiz-adv-x="457" 
d="M313 525q-7 -12 -22 -12q-10 0 -17 6.5t-7 16.5q0 6 1 9l34 96q7 21 30 21q16 0 26 -9t10 -23q0 -7 -5 -17zM365 0h-294q-18 0 -27 10.5t-6 27.5l105 590q5 34 38 34q18 0 28.5 -11.5t6.5 -29.5l-98 -553h255q32 0 32 -33q0 -17 -11.5 -26t-28.5 -9z" />
    <glyph glyph-name="lcaron" unicode="&#x13e;" horiz-adv-x="222" 
d="M283 545q-7 -12 -22 -12q-10 0 -17 6.5t-7 16.5q0 6 1 9l34 96q7 21 30 21q16 0 26 -9t10 -23q0 -7 -5 -17zM210 643l-108 -616q-5 -32 -36 -32q-18 0 -28 11t-7 28l108 616q5 32 37 32q17 0 27 -11t7 -28z" />
    <glyph glyph-name="Ldot" unicode="&#x13f;" horiz-adv-x="457" 
d="M365 0h-294q-18 0 -27 10.5t-6 27.5l105 590q5 34 38 34q18 0 28.5 -11.5t6.5 -29.5l-98 -553h255q32 0 32 -33q0 -17 -11.5 -26t-28.5 -9zM303 342q0 24 16 41t40 17q20 0 33 -12t13 -31q0 -23 -16 -40t-41 -17q-20 0 -32.5 11.5t-12.5 30.5z" />
    <glyph glyph-name="ldot" unicode="&#x140;" horiz-adv-x="273" 
d="M210 643l-108 -616q-5 -32 -36 -32q-18 0 -28 11t-7 28l108 616q5 32 37 32q17 0 27 -11t7 -28zM209 349q0 24 16 41t40 17q20 0 33 -12t13 -31q0 -23 -16 -40t-41 -17q-20 0 -32.5 11.5t-12.5 30.5z" />
    <glyph glyph-name="Lslash" unicode="&#x141;" horiz-adv-x="461" 
d="M51 273q-14 -7 -27 0.5t-13 23.5q0 17 13 24l74 35l49 272q5 34 38 34q18 0 28.5 -11.5t6.5 -29.5l-41 -228l111 52q13 7 26 -0.5t13 -23.5q0 -15 -14 -24l-147 -69l-46 -260h255q32 0 32 -33q0 -17 -11.5 -26t-28.5 -9h-294q-18 0 -27 10.5t-6 27.5l44 252z" />
    <glyph glyph-name="lslash" unicode="&#x142;" horiz-adv-x="243" 
d="M221 643l-37 -212l35 17q13 7 26 -1t13 -24t-15 -23l-71 -34l-59 -339q-5 -32 -36 -32q-18 0 -28 11t-7 28l51 295l-33 -16q-13 -7 -26.5 0.5t-13.5 22.5q0 18 14 24l71 34l45 256q5 32 37 32q17 0 27 -11t7 -28z" />
    <glyph glyph-name="Nacute" unicode="&#x143;" horiz-adv-x="582" 
d="M471 770l-98 -67q-5 -4 -15 -4q-18 0 -23 16.5t8 28.5l84 77q11 9 23 9q23 1 32 -22t-11 -38zM560 623l-105 -590q-2 -15 -13 -24.5t-27 -9.5q-27 0 -37 26l-187 486l-85 -484q-5 -32 -35 -32q-17 0 -26.5 11t-6.5 27l104 591q2 15 13.5 24.5t26.5 9.5q29 0 39 -27
l186 -484l84 483q5 32 35 32q17 0 26.5 -11t7.5 -28z" />
    <glyph glyph-name="nacute" unicode="&#x144;" horiz-adv-x="504" 
d="M411 623l-97 -66q-8 -5 -15 -5q-18 0 -23.5 17t7.5 28l85 78q9 9 22 9q24 0 32.5 -22.5t-11.5 -38.5zM446 320l-52 -293q-6 -32 -37 -32q-17 0 -27 11.5t-7 28.5l50 286q2 11 2 25q0 40 -23 64t-68 24q-52 0 -89.5 -34t-46.5 -87l-50 -285q-5 -33 -37 -33q-18 0 -28 11
t-7 29l76 428q5 31 32 31q28 0 29 -27l-1 -36q57 68 144 68q65 0 104 -38t39 -102q0 -18 -3 -39z" />
    <glyph glyph-name="uni0145" unicode="&#x145;" horiz-adv-x="582" 
d="M266 -95l-66 -110q-9 -16 -25 -16q-11 0 -18.5 7.5t-7.5 17.5q0 8 3 16l45 115q11 26 35 26q16 0 27 -11t11 -27q0 -10 -4 -18zM560 623l-105 -590q-2 -15 -13 -24.5t-27 -9.5q-27 0 -37 26l-187 486l-85 -484q-5 -32 -35 -32q-17 0 -26.5 11t-6.5 27l104 591
q2 15 13.5 24.5t26.5 9.5q29 0 39 -27l186 -484l84 483q5 32 35 32q17 0 26.5 -11t7.5 -28z" />
    <glyph glyph-name="uni0146" unicode="&#x146;" horiz-adv-x="504" 
d="M227 -95l-66 -110q-9 -16 -25 -16q-11 0 -18.5 7.5t-7.5 17.5q0 8 3 16l45 115q11 26 35 26q16 0 27 -11t11 -27q0 -10 -4 -18zM446 320l-52 -293q-6 -32 -37 -32q-17 0 -27 11.5t-7 28.5l50 286q2 11 2 25q0 40 -23 64t-68 24q-52 0 -89.5 -34t-46.5 -87l-50 -285
q-5 -33 -37 -33q-18 0 -28 11t-7 29l76 428q5 31 32 31q28 0 29 -27l-1 -36q57 68 144 68q65 0 104 -38t39 -102q0 -18 -3 -39z" />
    <glyph glyph-name="Ncaron" unicode="&#x147;" horiz-adv-x="582" 
d="M560 623l-105 -590q-2 -15 -13 -24.5t-27 -9.5q-27 0 -37 26l-187 486l-85 -484q-5 -32 -35 -32q-17 0 -26.5 11t-6.5 27l104 591q2 15 13.5 24.5t26.5 9.5q29 0 39 -27l186 -484l84 483q5 32 35 32q17 0 26.5 -11t7.5 -28zM372 754l100 77q7 5 13 5q13 0 17 -11.5
t-5 -19.5l-105 -106q-14 -14 -32 -14q-14 0 -26 17l-69 104q-6 10 -0.5 21t18.5 11q8 0 15 -7z" />
    <glyph glyph-name="ncaron" unicode="&#x148;" horiz-adv-x="504" 
d="M311 611l99 78q6 4 13 4q13 0 17 -12t-5 -20l-105 -104q-15 -15 -31 -15q-15 0 -27 17l-67 105q-7 10 -0.5 21t19.5 11q8 0 15 -7zM446 320l-52 -293q-6 -32 -37 -32q-17 0 -27 11.5t-7 28.5l50 286q2 11 2 25q0 40 -23 64t-68 24q-52 0 -89.5 -34t-46.5 -87l-50 -285
q-5 -33 -37 -33q-18 0 -28 11t-7 29l76 428q5 31 32 31q28 0 29 -27l-1 -36q57 68 144 68q65 0 104 -38t39 -102q0 -18 -3 -39z" />
    <glyph glyph-name="napostrophe" unicode="&#x149;" horiz-adv-x="519" 
d="M158 626l-66 -110q-9 -16 -25 -16q-11 0 -18.5 7.5t-7.5 17.5q0 8 3 16l45 115q11 26 35 26q16 0 27 -11t11 -27q0 -10 -4 -18zM460 320l-52 -293q-6 -32 -37 -32q-17 0 -27 11.5t-7 28.5l50 286q2 11 2 25q0 40 -23 64t-68 24q-52 0 -89.5 -34t-46.5 -87l-50 -285
q-5 -33 -37 -33q-18 0 -28 11t-7 29l76 428q5 31 32 31q28 0 29 -27l-1 -36q57 68 144 68q65 0 104 -38t39 -102q0 -18 -3 -39z" />
    <glyph glyph-name="Omacron" unicode="&#x14c;" horiz-adv-x="559" 
d="M170 459l-45 -261q-3 -16 -3 -30q0 -50 32.5 -80t92.5 -30q63 0 105 39t54 101l45 261q3 15 3 30q0 50 -32.5 80t-92.5 30q-63 0 -105.5 -39t-53.5 -101zM525 458l-45 -259q-18 -97 -80.5 -153t-160.5 -56q-85 0 -139 46t-54 124q0 20 4 39l45 259q17 98 79.5 153.5
t162.5 55.5q84 0 137.5 -46t53.5 -124q0 -19 -3 -39zM241 758q0 13 9 21t20 8h192q10 0 17.5 -7t7.5 -19t-9 -20t-20 -8h-191q-11 0 -18.5 7.5t-7.5 17.5z" />
    <glyph glyph-name="omacron" unicode="&#x14d;" horiz-adv-x="479" 
d="M172 598q0 13 9 21t20 8h191q11 0 18.5 -7t7.5 -19t-9 -20t-20 -8h-191q-11 0 -18.5 7.5t-7.5 17.5zM131 314l-25 -140q-3 -15 -3 -27q0 -43 26 -69t75 -26q50 0 85.5 34.5t44.5 87.5l25 140q3 15 3 27q0 44 -26 69.5t-74 25.5q-51 0 -86 -34t-45 -88zM430 309l-23 -130
q-15 -89 -70 -139t-142 -50q-71 0 -117 41t-46 110q0 21 4 38l22 130q15 89 70 139.5t141 50.5q72 0 118.5 -41t46.5 -111q0 -12 -4 -38z" />
    <glyph glyph-name="Obreve" unicode="&#x14e;" horiz-adv-x="559" 
d="M170 459l-45 -261q-3 -16 -3 -30q0 -50 32.5 -80t92.5 -30q63 0 105 39t54 101l45 261q3 15 3 30q0 50 -32.5 80t-92.5 30q-63 0 -105.5 -39t-53.5 -101zM525 458l-45 -259q-18 -97 -80.5 -153t-160.5 -56q-85 0 -139 46t-54 124q0 20 4 39l45 259q17 98 79.5 153.5
t162.5 55.5q84 0 137.5 -46t53.5 -124q0 -19 -3 -39zM470 792q-6 -43 -35 -70.5t-77 -27.5q-47 0 -72 27.5t-18 72.5q4 22 25 22q11 0 17.5 -6.5t5.5 -17.5q-5 -24 7.5 -39.5t40.5 -15.5q44 0 59 59q5 20 24 20q11 0 17.5 -7t5.5 -17z" />
    <glyph glyph-name="obreve" unicode="&#x14f;" horiz-adv-x="479" 
d="M131 314l-25 -140q-3 -15 -3 -27q0 -43 26 -69t75 -26q50 0 85.5 34.5t44.5 87.5l25 140q3 15 3 27q0 44 -26 69.5t-74 25.5q-51 0 -86 -34t-45 -88zM430 309l-23 -130q-15 -89 -70 -139t-142 -50q-71 0 -117 41t-46 110q0 21 4 38l22 130q15 89 70 139.5t141 50.5
q72 0 118.5 -41t46.5 -111q0 -12 -4 -38zM403 646q-6 -43 -34.5 -70.5t-76.5 -27.5q-47 0 -72 28t-18 72q2 22 25 22q10 0 16.5 -6.5t5.5 -17.5q-5 -24 8 -39.5t41 -15.5q7 0 13.5 1.5t11.5 4.5t9 5.5t7.5 8t5.5 8.5t4.5 9t3 8t2.5 8l2 6q3 20 24 20q11 0 17 -7t5 -17z" />
    <glyph glyph-name="Ohungarumlaut" unicode="&#x150;" horiz-adv-x="559" 
d="M289 701q-7 -6 -18 -1.5t-11 16.5q0 8 7 13l107 96q10 11 27 5.5t17 -24.5q0 -14 -9 -20zM524 786l-115 -89q-9 -7 -19 -2t-10 16q0 8 6 13l103 101q13 12 29.5 6.5t16.5 -24.5q0 -12 -11 -21zM170 459l-45 -261q-3 -16 -3 -30q0 -50 32.5 -80t92.5 -30q63 0 105 39
t54 101l45 261q3 15 3 30q0 50 -32.5 80t-92.5 30q-63 0 -105.5 -39t-53.5 -101zM525 458l-45 -259q-18 -97 -80.5 -153t-160.5 -56q-85 0 -139 46t-54 124q0 20 4 39l45 259q17 98 79.5 153.5t162.5 55.5q84 0 137.5 -46t53.5 -124q0 -19 -3 -39z" />
    <glyph glyph-name="ohungarumlaut" unicode="&#x151;" horiz-adv-x="479" 
d="M225 558q-7 -6 -18 -1.5t-11 16.5q0 7 6 13l108 97q10 10 27 4.5t17 -24.5q0 -11 -9 -20zM460 643l-115 -89q-10 -7 -19.5 -2t-9.5 16q0 9 5 13l104 101q12 13 28.5 7t16.5 -25q0 -12 -10 -21zM131 314l-25 -140q-3 -15 -3 -27q0 -43 26 -69t75 -26q50 0 85.5 34.5
t44.5 87.5l25 140q3 15 3 27q0 44 -26 69.5t-74 25.5q-51 0 -86 -34t-45 -88zM430 309l-23 -130q-15 -89 -70 -139t-142 -50q-71 0 -117 41t-46 110q0 21 4 38l22 130q15 89 70 139.5t141 50.5q72 0 118.5 -41t46.5 -111q0 -12 -4 -38z" />
    <glyph glyph-name="OE" unicode="&#x152;" horiz-adv-x="852" 
d="M170 459l-45 -261q-3 -16 -3 -30q0 -50 32 -80t92 -30q62 0 104.5 37.5t53.5 97.5l47 266q3 15 3 30q0 50 -31.5 80t-90.5 30q-65 0 -108 -39t-54 -101zM731 0h-322q-15 0 -23.5 9t-4.5 26l3 14q-59 -59 -150 -59q-83 0 -135.5 45.5t-52.5 122.5q0 22 4 41l45 259
q17 97 79 153t160 56q43 0 84 -16t64 -44l3 18q5 32 40 32h305q14 0 23 -9t9 -23q0 -17 -10.5 -26.5t-25.5 -9.5h-277l-39 -220h245q14 0 23.5 -8.5t9.5 -22.5q0 -16 -11 -26t-26 -10h-253l-40 -234h277q14 0 23 -9t9 -23q0 -17 -10.5 -26.5t-25.5 -9.5z" />
    <glyph glyph-name="oe" unicode="&#x153;" horiz-adv-x="771" 
d="M131 314l-25 -140q-3 -15 -3 -28q0 -42 27 -68t75 -26q51 0 85.5 34t43.5 88l25 140q3 15 3 27q0 44 -26 69.5t-74 25.5q-51 0 -86 -34t-45 -88zM431 316l-5 -25h227l5 27q2 9 2 27q0 43 -25 68.5t-72 25.5q-52 0 -86.5 -34t-45.5 -89zM690 123q-17 -61 -66.5 -97
t-124.5 -36q-51 0 -91.5 23.5t-54.5 63.5q-55 -87 -159 -87q-73 0 -117.5 40t-44.5 110q-1 15 4 40l22 130q16 88 72 138.5t141 50.5q49 0 86.5 -24.5t51.5 -66.5q56 91 164 91q70 0 113 -40.5t43 -108.5q0 -13 -4 -41l-7 -39q-2 -15 -12.5 -25t-26.5 -10h-262l-12 -70
q-3 -13 -3 -25q0 -41 26.5 -66t76.5 -25q48 0 81 26.5t42 66.5q6 27 33 27q18 0 26 -13.5t3 -32.5z" />
    <glyph glyph-name="Racute" unicode="&#x154;" horiz-adv-x="555" 
d="M324 591h-113l-47 -266h120q78 0 127 41t49 108q0 55 -34 86t-102 31zM442 44q4 -18 -7 -33.5t-31 -15.5q-14 0 -24.5 8t-13.5 21l-62 237q-18 -2 -29 -2h-123l-40 -230q-5 -34 -38 -34q-19 0 -29.5 11.5t-6.5 29.5l104 585q7 36 42 36h158q87 0 142 -47.5t55 -125.5
t-43 -130t-116 -76zM420 770l-98 -67q-5 -4 -15 -4q-18 0 -23 16.5t8 28.5l84 77q10 9 23 9q23 1 32 -22t-11 -38z" />
    <glyph glyph-name="racute" unicode="&#x155;" horiz-adv-x="312" 
d="M322 623l-97 -66q-8 -5 -15 -5q-18 0 -23.5 17t7.5 28l85 78q9 9 22 9q24 0 32.5 -22.5t-11.5 -38.5zM26 33l76 430q5 31 32 31q29 0 29 -29v-39q54 71 135 71q33 0 33 -32q0 -16 -10 -25.5t-25 -9.5q-61 0 -100 -33.5t-49 -88.5l-49 -281q-5 -32 -37 -32q-17 0 -27.5 11
t-7.5 27z" />
    <glyph glyph-name="uni0156" unicode="&#x156;" horiz-adv-x="555" 
d="M251 -95l-66 -110q-9 -16 -25 -16q-11 0 -18.5 7.5t-7.5 17.5q0 8 3 16l45 115q11 26 35 26q16 0 27 -11t11 -27q0 -10 -4 -18zM324 591h-113l-47 -266h120q78 0 127 41t49 108q0 55 -34 86t-102 31zM442 44q4 -18 -7 -33.5t-31 -15.5q-14 0 -24.5 8t-13.5 21l-62 237
q-18 -2 -29 -2h-123l-40 -230q-5 -34 -38 -34q-19 0 -29.5 11.5t-6.5 29.5l104 585q7 36 42 36h158q87 0 142 -47.5t55 -125.5t-43 -130t-116 -76z" />
    <glyph glyph-name="uni0157" unicode="&#x157;" horiz-adv-x="312" 
d="M77 -95l-66 -110q-9 -16 -25 -16q-11 0 -18.5 7.5t-7.5 17.5q0 8 3 16l45 115q11 26 35 26q16 0 27 -11t11 -27q0 -10 -4 -18zM26 33l76 430q5 31 32 31q29 0 29 -29v-39q54 71 135 71q33 0 33 -32q0 -16 -10 -25.5t-25 -9.5q-61 0 -100 -33.5t-49 -88.5l-49 -281
q-5 -32 -37 -32q-17 0 -27.5 11t-7.5 27z" />
    <glyph glyph-name="Rcaron" unicode="&#x158;" horiz-adv-x="555" 
d="M324 591h-113l-47 -266h120q78 0 127 41t49 108q0 55 -34 86t-102 31zM442 44q4 -18 -7 -33.5t-31 -15.5q-14 0 -24.5 8t-13.5 21l-62 237q-18 -2 -29 -2h-123l-40 -230q-5 -34 -38 -34q-19 0 -29.5 11.5t-6.5 29.5l104 585q7 36 42 36h158q87 0 142 -47.5t55 -125.5
t-43 -130t-116 -76zM332 754l100 77q7 5 13 5q13 0 17 -11.5t-5 -19.5l-105 -106q-14 -14 -32 -14q-14 0 -26 17l-69 104q-6 10 -0.5 21t18.5 11q8 0 15 -7z" />
    <glyph glyph-name="rcaron" unicode="&#x159;" horiz-adv-x="312" 
d="M217 611l99 78q6 4 13 4q13 0 17 -12t-5 -20l-105 -104q-15 -15 -31 -15q-15 0 -27 17l-67 105q-7 10 -0.5 21t19.5 11q8 0 15 -7zM26 33l76 430q5 31 32 31q29 0 29 -29v-39q54 71 135 71q33 0 33 -32q0 -16 -10 -25.5t-25 -9.5q-61 0 -100 -33.5t-49 -88.5l-49 -281
q-5 -32 -37 -32q-17 0 -27.5 11t-7.5 27z" />
    <glyph glyph-name="Sacute" unicode="&#x15a;" horiz-adv-x="524" 
d="M234 54q68 0 108 38t40 97q0 41 -23.5 64t-69.5 43l-86 38q-108 48 -108 145q0 84 58 136t159 52q82 0 136 -43.5t51 -124.5q-1 -16 -10.5 -26t-25.5 -10q-15 0 -25 10t-11 26q-5 104 -121 104q-63 0 -100.5 -30.5t-37.5 -79.5q0 -58 62 -86l98 -44q60 -27 95.5 -62
t35.5 -96q0 -98 -62.5 -156.5t-169.5 -58.5q-89 0 -149.5 44.5t-51.5 126.5q2 16 11.5 26t25.5 10q15 0 25 -9.5t9 -25.5q-2 -55 37 -81.5t100 -26.5zM441 770l-98 -67q-5 -4 -15 -4q-18 0 -23 16.5t8 28.5l84 77q11 9 23 9q23 1 32 -22t-11 -38z" />
    <glyph glyph-name="sacute" unicode="&#x15b;" horiz-adv-x="446" 
d="M374 623l-97 -66q-8 -5 -15 -5q-18 0 -23.5 17t7.5 28l85 78q9 9 22 9q24 0 32.5 -22.5t-11.5 -38.5zM191 301l74 -25q110 -37 110 -122q0 -71 -51 -117.5t-140 -46.5q-65 0 -113.5 28t-56.5 84q-2 16 1 29q5 26 32 26q24 0 27 -23q6 -46 33 -65.5t83 -19.5q53 0 82.5 25
t29.5 67q0 50 -53 67l-83 27q-42 14 -70.5 43t-28.5 73q0 62 50 105t131 43q59 0 104 -26t53 -79q8 -51 -29 -51q-22 0 -27 25q-7 36 -35.5 54.5t-73.5 18.5q-40 0 -71.5 -20.5t-31.5 -58.5q0 -43 54 -61z" />
    <glyph glyph-name="Scircumflex" unicode="&#x15c;" horiz-adv-x="524" 
d="M234 54q68 0 108 38t40 97q0 41 -23.5 64t-69.5 43l-86 38q-108 48 -108 145q0 84 58 136t159 52q82 0 136 -43.5t51 -124.5q-1 -16 -10.5 -26t-25.5 -10q-15 0 -25 10t-11 26q-5 104 -121 104q-63 0 -100.5 -30.5t-37.5 -79.5q0 -58 62 -86l98 -44q60 -27 95.5 -62
t35.5 -96q0 -98 -62.5 -156.5t-169.5 -58.5q-89 0 -149.5 44.5t-51.5 126.5q2 16 11.5 26t25.5 10q15 0 25 -9.5t9 -25.5q-2 -55 37 -81.5t100 -26.5zM348 780l-101 -79q-5 -4 -12 -4q-13 0 -17.5 12t5.5 20l105 105q15 15 31 15q18 0 28 -18l68 -103q7 -10 0.5 -21
t-19.5 -11q-8 0 -15 7z" />
    <glyph glyph-name="scircumflex" unicode="&#x15d;" horiz-adv-x="446" 
d="M282 633l-100 -79q-8 -4 -12 -4q-13 0 -17.5 12t4.5 20l106 105q15 15 31 15t28 -17l68 -104q6 -10 -0.5 -20.5t-19.5 -10.5q-9 0 -15 6zM191 301l74 -25q110 -37 110 -122q0 -71 -51 -117.5t-140 -46.5q-65 0 -113.5 28t-56.5 84q-2 16 1 29q5 26 32 26q24 0 27 -23
q6 -46 33 -65.5t83 -19.5q53 0 82.5 25t29.5 67q0 50 -53 67l-83 27q-42 14 -70.5 43t-28.5 73q0 62 50 105t131 43q59 0 104 -26t53 -79q8 -51 -29 -51q-22 0 -27 25q-7 36 -35.5 54.5t-73.5 18.5q-40 0 -71.5 -20.5t-31.5 -58.5q0 -43 54 -61z" />
    <glyph glyph-name="Scedilla" unicode="&#x15e;" horiz-adv-x="525" 
d="M152 -63l27 57q-72 11 -116.5 54t-36.5 113q2 16 11.5 26t25.5 10q15 0 25 -9.5t9 -25.5q-2 -55 37 -81.5t100 -26.5q68 0 108 38t40 97q0 41 -23.5 64t-69.5 43l-86 38q-108 48 -108 145q0 84 58 136t159 52q82 0 136 -43.5t51 -124.5q-1 -16 -10.5 -26t-25.5 -10
q-15 0 -25 10t-11 26q-5 104 -121 104q-63 0 -100.5 -30.5t-37.5 -79.5q0 -58 62 -86l98 -44q60 -27 95.5 -62t35.5 -96q0 -98 -62.5 -156.5t-169.5 -58.5h-2l-16 -35h12q33 0 51.5 -16t18.5 -43q0 -39 -25 -61t-70 -22h-77q-21 0 -21 20q0 11 7.5 17.5t18.5 6.5h80
q34 0 34 32q0 22 -26 22h-41q-4 0 -8 2q-19 5 -11 24z" />
    <glyph glyph-name="scedilla" unicode="&#x15f;" horiz-adv-x="447" 
d="M118 -63l26 56q-51 7 -87 34.5t-42 74.5q-2 12 0 23q4 32 33 32q25 0 27 -23q4 -45 32 -65t84 -20q53 0 82.5 25t29.5 67q0 50 -53 67l-83 27q-42 14 -70.5 43t-28.5 73q0 62 50 105t131 43q59 0 104 -26t53 -79q8 -51 -31 -51q-20 0 -25 25q-7 36 -35.5 54.5t-73.5 18.5
q-40 0 -71.5 -20.5t-31.5 -58.5q0 -43 54 -61l74 -25q110 -37 110 -122q0 -70 -49.5 -116t-135.5 -48l-16 -35h12q33 0 51.5 -16t18.5 -43q0 -39 -25 -61t-70 -22h-77q-21 0 -21 20q0 11 7.5 17.5t18.5 6.5h80q34 0 34 32q0 22 -26 22h-41q-4 0 -8 2q-19 5 -11 24z" />
    <glyph glyph-name="Scaron" unicode="&#x160;" horiz-adv-x="524" 
d="M234 54q68 0 108 38t40 97q0 41 -23.5 64t-69.5 43l-86 38q-108 48 -108 145q0 84 58 136t159 52q82 0 136 -43.5t51 -124.5q-1 -16 -10.5 -26t-25.5 -10q-15 0 -25 10t-11 26q-5 104 -121 104q-63 0 -100.5 -30.5t-37.5 -79.5q0 -58 62 -86l98 -44q60 -27 95.5 -62
t35.5 -96q0 -98 -62.5 -156.5t-169.5 -58.5q-89 0 -149.5 44.5t-51.5 126.5q2 16 11.5 26t25.5 10q15 0 25 -9.5t9 -25.5q-2 -55 37 -81.5t100 -26.5zM337 754l100 77q7 5 13 5q13 0 17 -11.5t-5 -19.5l-105 -106q-14 -14 -32 -14q-14 0 -26 17l-69 104q-6 10 -0.5 21
t18.5 11q8 0 15 -7z" />
    <glyph glyph-name="scaron" unicode="&#x161;" horiz-adv-x="446" 
d="M275 611l99 78q6 4 13 4q13 0 17 -12t-5 -20l-105 -104q-15 -15 -31 -15q-15 0 -27 17l-67 105q-7 10 -0.5 21t19.5 11q8 0 15 -7zM191 301l74 -25q110 -37 110 -122q0 -71 -51 -117.5t-140 -46.5q-65 0 -113.5 28t-56.5 84q-2 16 1 29q5 26 32 26q24 0 27 -23
q6 -46 33 -65.5t83 -19.5q53 0 82.5 25t29.5 67q0 50 -53 67l-83 27q-42 14 -70.5 43t-28.5 73q0 62 50 105t131 43q59 0 104 -26t53 -79q8 -51 -29 -51q-22 0 -27 25q-7 36 -35.5 54.5t-73.5 18.5q-40 0 -71.5 -20.5t-31.5 -58.5q0 -43 54 -61z" />
    <glyph glyph-name="uni0162" unicode="&#x162;" horiz-adv-x="459" 
d="M124 -63l32 68q-13 11 -8 31l98 553h-139q-14 0 -23.5 9t-9.5 23q0 16 11 26t26 10h361q14 0 23 -9t9 -23q0 -17 -10.5 -26.5t-25.5 -9.5h-148l-98 -560q-3 -24 -21 -31l-20 -43h12q33 0 51.5 -16t18.5 -43q0 -39 -25 -61t-70 -22h-77q-21 0 -21 20q0 11 7.5 17.5
t18.5 6.5h80q34 0 34 32q0 22 -26 22h-41q-4 0 -8 2q-19 5 -11 24z" />
    <glyph glyph-name="uni0163" unicode="&#x163;" horiz-adv-x="310" 
d="M50 -63l32 68q-11 11 -8 29l69 391h-67q-12 0 -20.5 8t-8.5 21q0 14 10 23t23 9h74l18 106q5 32 37 32q17 0 26.5 -11t7.5 -28l-17 -99h68q12 0 20.5 -8t8.5 -21q0 -15 -9.5 -23.5t-23.5 -8.5h-75l-70 -398q-3 -20 -17 -27l-21 -45h12q33 0 51.5 -16t18.5 -43
q0 -39 -25 -61t-70 -22h-77q-21 0 -21 20q0 11 7.5 17.5t18.5 6.5h80q34 0 34 32q0 22 -26 22h-41q-4 0 -8 2q-19 5 -11 24z" />
    <glyph glyph-name="Tcaron" unicode="&#x164;" horiz-adv-x="459" 
d="M111 657h361q14 0 23 -9t9 -23q0 -17 -10.5 -26.5t-25.5 -9.5h-148l-98 -560q-5 -34 -38 -34q-19 0 -29.5 11.5t-6.5 29.5l98 553h-139q-14 0 -23.5 9t-9.5 23q0 16 11 26t26 10zM309 754l100 77q7 5 13 5q13 0 17 -11.5t-5 -19.5l-105 -106q-14 -14 -32 -14
q-14 0 -26 17l-69 104q-6 10 -0.5 21t18.5 11q8 0 15 -7z" />
    <glyph glyph-name="tcaron" unicode="&#x165;" horiz-adv-x="310" 
d="M333 545q-7 -12 -22 -12q-10 0 -17 6.5t-7 16.5q0 6 1 9l34 96q7 21 30 21q16 0 26 -9t10 -23q0 -7 -5 -17zM290 425h-75l-70 -398q-5 -32 -37 -32q-17 0 -27 11t-7 28l69 391h-67q-12 0 -20.5 8t-8.5 21q0 14 10 23t23 9h74l18 106q5 32 37 32q17 0 27 -11t7 -28
l-17 -99h68q12 0 20.5 -8t8.5 -21q0 -15 -9.5 -23.5t-23.5 -8.5z" />
    <glyph glyph-name="Tbar" unicode="&#x166;" horiz-adv-x="460" 
d="M111 657h361q14 0 23 -9t9 -23q0 -17 -10.5 -26.5t-25.5 -9.5h-148l-29 -163h107q12 0 21 -8t9 -20q0 -15 -10 -23t-24 -8h-113l-59 -338q-5 -34 -38 -34q-19 0 -29.5 11.5t-6.5 29.5l58 331h-105q-12 0 -20.5 7.5t-8.5 19.5q0 15 10 23.5t23 8.5h112l29 163h-139
q-14 0 -23.5 9t-9.5 23q0 16 11 26t26 10z" />
    <glyph glyph-name="tbar" unicode="&#x167;" horiz-adv-x="313" 
d="M292 425h-75l-18 -102h55q11 0 19 -7t8 -18q0 -13 -9.5 -20.5t-21.5 -7.5h-61l-42 -243q-5 -32 -37 -32q-17 0 -27 11t-7 28l41 236h-55q-11 0 -18.5 6.5t-7.5 17.5q0 14 9 21.5t21 7.5h61l18 102h-67q-12 0 -20.5 8t-8.5 21q0 14 10 23t23 9h74l18 106q5 32 37 32
q17 0 26.5 -11t7.5 -28l-17 -99h68q12 0 20.5 -8t8.5 -21q0 -15 -9.5 -23.5t-23.5 -8.5z" />
    <glyph glyph-name="Utilde" unicode="&#x168;" horiz-adv-x="573" 
d="M557 621l-75 -422q-17 -97 -79 -153t-158 -56q-83 0 -136 46t-53 123q0 12 4 40l76 429q5 34 38 34q18 0 28.5 -11.5t6.5 -29.5l-74 -423q-3 -16 -3 -31q0 -50 31.5 -79.5t91.5 -29.5t100.5 39t51.5 101l76 430q5 34 39 34q18 0 28.5 -11.5t6.5 -29.5zM253 705
q-6 -14 -21 -14q-10 0 -16 7.5t-4 16.5q3 37 30 63t68 26q26 0 55 -17l37 -23q28 -17 42 -17q28 0 40 47q5 13 18 13q10 0 16 -7t5 -17q-4 -37 -25.5 -62t-58.5 -25q-29 0 -62 21l-37 22q-23 14 -37 14q-34 0 -50 -48z" />
    <glyph glyph-name="utilde" unicode="&#x169;" horiz-adv-x="499" 
d="M459 454l-76 -428q-5 -31 -32 -31q-26 0 -27 26l-1 36q-56 -67 -140 -67q-64 0 -103 37.5t-39 100.5q0 11 4 37l52 296q5 33 37 33q18 0 27.5 -11t6.5 -29l-51 -289q-2 -18 -2 -26q0 -39 23.5 -62t68.5 -23q50 0 85.5 34.5t44.5 86.5l51 286q6 33 37 33q17 0 27 -11
t7 -29zM190 565q-6 -14 -20 -14q-11 0 -16.5 8t-3.5 16q2 37 29.5 63t67.5 26q25 0 55 -16l37 -23q28 -18 42 -18q28 0 40 48q5 12 18 12q10 0 16 -6.5t5 -16.5q-4 -37 -25.5 -62t-58.5 -25q-26 0 -61 20l-37 22q-22 14 -37 14q-36 0 -51 -48z" />
    <glyph glyph-name="Umacron" unicode="&#x16a;" horiz-adv-x="573" 
d="M557 621l-75 -422q-17 -97 -79 -153t-158 -56q-83 0 -136 46t-53 123q0 12 4 40l76 429q5 34 38 34q18 0 28.5 -11.5t6.5 -29.5l-74 -423q-3 -16 -3 -31q0 -50 31.5 -79.5t91.5 -29.5t100.5 39t51.5 101l76 430q5 34 39 34q18 0 28.5 -11.5t6.5 -29.5zM247 758q0 13 9 21
t20 8h192q10 0 17.5 -7t7.5 -19t-9 -20t-20 -8h-191q-11 0 -18.5 7.5t-7.5 17.5z" />
    <glyph glyph-name="umacron" unicode="&#x16b;" horiz-adv-x="499" 
d="M459 454l-76 -428q-5 -31 -32 -31q-26 0 -27 26l-1 36q-56 -67 -140 -67q-64 0 -103 37.5t-39 100.5q0 11 4 37l52 296q5 33 37 33q18 0 27.5 -11t6.5 -29l-51 -289q-2 -18 -2 -26q0 -39 23.5 -62t68.5 -23q50 0 85.5 34.5t44.5 86.5l51 286q6 33 37 33q17 0 27 -11
t7 -29zM180 598q0 13 9 21t20 8h191q11 0 18.5 -7t7.5 -19t-9 -20t-20 -8h-191q-11 0 -18.5 7.5t-7.5 17.5z" />
    <glyph glyph-name="Ubreve" unicode="&#x16c;" horiz-adv-x="573" 
d="M557 621l-75 -422q-17 -97 -79 -153t-158 -56q-83 0 -136 46t-53 123q0 12 4 40l76 429q5 34 38 34q18 0 28.5 -11.5t6.5 -29.5l-74 -423q-3 -16 -3 -31q0 -50 31.5 -79.5t91.5 -29.5t100.5 39t51.5 101l76 430q5 34 39 34q18 0 28.5 -11.5t6.5 -29.5zM476 792
q-6 -43 -35 -70.5t-77 -27.5q-47 0 -72 27.5t-18 72.5q4 22 25 22q11 0 17.5 -6.5t5.5 -17.5q-5 -24 7.5 -39.5t40.5 -15.5q44 0 59 59q5 20 24 20q11 0 17.5 -7t5.5 -17z" />
    <glyph glyph-name="ubreve" unicode="&#x16d;" horiz-adv-x="499" 
d="M459 454l-76 -428q-5 -31 -32 -31q-26 0 -27 26l-1 36q-56 -67 -140 -67q-64 0 -103 37.5t-39 100.5q0 11 4 37l52 296q5 33 37 33q18 0 27.5 -11t6.5 -29l-51 -289q-2 -18 -2 -26q0 -39 23.5 -62t68.5 -23q50 0 85.5 34.5t44.5 86.5l51 286q6 33 37 33q17 0 27 -11
t7 -29zM411 646q-6 -43 -34.5 -70.5t-76.5 -27.5q-47 0 -72 28t-18 72q2 22 25 22q10 0 16.5 -6.5t5.5 -17.5q-5 -24 8 -39.5t41 -15.5q7 0 13.5 1.5t11.5 4.5t9 5.5t7.5 8t5.5 8.5t4.5 9t3 8t2.5 8l2 6q3 20 24 20q11 0 17 -7t5 -17z" />
    <glyph glyph-name="Uring" unicode="&#x16e;" horiz-adv-x="573" 
d="M370 720q24 0 39 16.5t15 41.5q0 23 -13.5 38t-35.5 15q-24 0 -39 -16.5t-15 -40.5q0 -23 13.5 -38.5t35.5 -15.5zM367 680q-41 0 -67 26.5t-26 64.5q0 41 30 70.5t73 29.5q41 0 67.5 -26.5t26.5 -64.5q0 -41 -30 -70.5t-74 -29.5zM557 621l-75 -422q-17 -97 -79 -153
t-158 -56q-83 0 -136 46t-53 123q0 12 4 40l76 429q5 34 38 34q18 0 28.5 -11.5t6.5 -29.5l-74 -423q-3 -16 -3 -31q0 -50 31.5 -79.5t91.5 -29.5t100.5 39t51.5 101l76 430q5 34 39 34q18 0 28.5 -11.5t6.5 -29.5z" />
    <glyph glyph-name="uring" unicode="&#x16f;" horiz-adv-x="499" 
d="M304 569q24 0 39 16.5t15 41.5q0 22 -14 37t-35 15q-24 0 -39 -16.5t-15 -40.5q0 -23 13.5 -38t35.5 -15zM301 528q-41 0 -67 27t-26 65q0 41 30 70.5t74 29.5q40 0 66.5 -26.5t26.5 -64.5q0 -42 -30 -71.5t-74 -29.5zM459 454l-76 -428q-5 -31 -32 -31q-26 0 -27 26
l-1 36q-56 -67 -140 -67q-64 0 -103 37.5t-39 100.5q0 11 4 37l52 296q5 33 37 33q18 0 27.5 -11t6.5 -29l-51 -289q-2 -18 -2 -26q0 -39 23.5 -62t68.5 -23q50 0 85.5 34.5t44.5 86.5l51 286q6 33 37 33q17 0 27 -11t7 -29z" />
    <glyph glyph-name="Uhungarumlaut" unicode="&#x170;" horiz-adv-x="573" 
d="M305 701q-7 -6 -18 -1.5t-11 16.5q0 8 7 13l107 96q10 11 27 5.5t17 -24.5q0 -14 -9 -20zM540 786l-115 -89q-9 -7 -19 -2t-10 16q0 8 6 13l103 101q13 12 29.5 6.5t16.5 -24.5q0 -12 -11 -21zM557 621l-75 -422q-17 -97 -79 -153t-158 -56q-83 0 -136 46t-53 123
q0 12 4 40l76 429q5 34 38 34q18 0 28.5 -11.5t6.5 -29.5l-74 -423q-3 -16 -3 -31q0 -50 31.5 -79.5t91.5 -29.5t100.5 39t51.5 101l76 430q5 34 39 34q18 0 28.5 -11.5t6.5 -29.5z" />
    <glyph glyph-name="uhungarumlaut" unicode="&#x171;" horiz-adv-x="499" 
d="M459 454l-76 -428q-5 -31 -32 -31q-26 0 -27 26l-1 36q-56 -67 -140 -67q-64 0 -103 37.5t-39 100.5q0 11 4 37l52 296q5 33 37 33q18 0 27.5 -11t6.5 -29l-51 -289q-2 -18 -2 -26q0 -39 23.5 -62t68.5 -23q50 0 85.5 34.5t44.5 86.5l51 286q6 33 37 33q17 0 27 -11
t7 -29zM238 558q-8 -6 -18.5 -1.5t-10.5 16.5q0 7 6 13l108 97q11 10 27.5 4.5t16.5 -24.5q0 -11 -9 -20zM473 643l-115 -89q-10 -7 -19.5 -2t-9.5 16q0 9 5 13l104 101q12 13 28.5 7t16.5 -25q0 -12 -10 -21z" />
    <glyph glyph-name="Uogonek" unicode="&#x172;" horiz-adv-x="574" 
d="M336 -140h23q10 0 16 -6.5t6 -15.5q0 -12 -7.5 -19t-19.5 -7h-32q-37 0 -59 21t-22 51q0 54 61 113q-27 -7 -58 -7q-84 0 -136 45t-52 123q0 13 4 41l76 429q5 34 38 34q18 0 28.5 -11.5t6.5 -29.5l-74 -423q-4 -18 -4 -32q0 -49 31.5 -78.5t90.5 -29.5q60 0 101.5 39
t52.5 101l76 430q5 34 39 34q18 0 28.5 -11.5t6.5 -29.5l-75 -422q-16 -96 -77 -151q-7 -6 -31 -27.5t-32.5 -30.5t-23 -26t-20 -32.5t-5.5 -32.5q0 -39 43 -39z" />
    <glyph glyph-name="uogonek" unicode="&#x173;" horiz-adv-x="499" 
d="M323 -188q-116 -4 -116 62q0 41 36.5 78t84.5 55q-4 8 -4 14l-1 36q-56 -67 -140 -67q-64 0 -103 37.5t-39 100.5q0 11 4 37l52 296q5 33 37 33q18 0 27.5 -11t6.5 -29l-51 -289q-2 -18 -2 -26q0 -39 23.5 -62t68.5 -23q50 0 85.5 34.5t44.5 86.5l51 286q6 33 37 33
q17 0 27 -11t7 -29l-76 -428q-5 -29 -24 -30q-100 -53 -100 -106q0 -19 16.5 -25t50.5 -6q22 0 22 -21q0 -24 -25 -26z" />
    <glyph glyph-name="Wcircumflex" unicode="&#x174;" horiz-adv-x="736" 
d="M454 780l-101 -79q-5 -4 -12 -4q-13 0 -17.5 12t5.5 20l105 105q15 15 31 15q18 0 28 -18l68 -103q7 -10 0.5 -21t-19.5 -11q-8 0 -15 7zM754 615l-241 -589q-14 -31 -45 -31q-16 0 -25.5 9t-9.5 25l-25 492l-198 -494q-12 -32 -45 -32t-35 34l-34 597q-1 15 10 25.5
t26 10.5q14 0 24.5 -10t11.5 -26l23 -489l196 492q12 33 45 33q16 0 25.5 -10t10.5 -26l22 -488l201 502q8 22 34 22q16 0 26 -14.5t3 -32.5z" />
    <glyph glyph-name="wcircumflex" unicode="&#x175;" horiz-adv-x="652" 
d="M387 633l-100 -79q-8 -4 -12 -4q-13 0 -17.5 12t4.5 20l106 105q15 15 31 15t28 -17l68 -104q6 -10 -0.5 -20.5t-19.5 -10.5q-9 0 -15 6zM642 444l-193 -420q-14 -29 -43 -29q-14 0 -23 8.5t-11 22.5l-33 341l-153 -343q-11 -29 -43 -29q-29 0 -32 31l-47 430
q-1 14 10.5 26t26.5 12q14 0 25 -10.5t12 -24.5l27 -348l153 353q13 30 43 30q14 0 24 -9.5t11 -23.5l28 -350l155 360q10 23 32 23q19 0 29.5 -15.5t1.5 -34.5z" />
    <glyph glyph-name="Ycircumflex" unicode="&#x176;" horiz-adv-x="485" 
d="M509 612l-234 -349l-41 -234q-7 -34 -38 -34q-19 0 -29.5 11.5t-6.5 29.5l40 226l-111 352q-5 17 5.5 32.5t29.5 15.5q28 0 35 -26l90 -301l204 311q10 16 28 16q19 0 29 -17t-1 -33zM329 780l-101 -79q-5 -4 -12 -4q-13 0 -17.5 12t5.5 20l105 105q15 15 31 15
q18 0 28 -18l68 -103q7 -10 0.5 -21t-19.5 -11q-8 0 -15 7z" />
    <glyph glyph-name="ycircumflex" unicode="&#x177;" horiz-adv-x="454" 
d="M447 442l-329 -617q-10 -17 -29 -17q-17 0 -26 15t0 31l79 147l-80 449q-3 17 8 30.5t28 13.5q14 0 24.5 -9.5t12.5 -23.5l59 -361l192 374q10 20 31 20q19 0 29.5 -17t0.5 -35zM288 633l-100 -79q-8 -4 -12 -4q-13 0 -17.5 12t4.5 20l106 105q15 15 31 15t28 -17
l68 -104q6 -10 -0.5 -20.5t-19.5 -10.5q-9 0 -15 6z" />
    <glyph glyph-name="Ydieresis" unicode="&#x178;" horiz-adv-x="485" 
d="M509 612l-234 -349l-41 -234q-7 -34 -38 -34q-19 0 -29.5 11.5t-6.5 29.5l40 226l-111 352q-5 17 5.5 32.5t29.5 15.5q28 0 35 -26l90 -301l204 311q10 16 28 16q19 0 29 -17t-1 -33zM224 756q0 21 15 35t38 14q16 0 26 -10.5t10 -25.5q0 -21 -14.5 -36.5t-35.5 -15.5
q-16 0 -27.5 11.5t-11.5 27.5zM338 756q0 20 15 34.5t37 14.5q16 0 26.5 -10.5t10.5 -26.5q0 -20 -15 -35.5t-35 -15.5q-17 0 -28 11.5t-11 27.5z" />
    <glyph glyph-name="Zacute" unicode="&#x179;" horiz-adv-x="462" 
d="M389 36q0 -17 -10.5 -26.5t-25.5 -9.5h-335q-29 0 -29 28q0 15 19 41l369 521h-243q-13 0 -22.5 8.5t-9.5 22.5q0 16 11 26t25 10h314q29 0 29 -27q0 -15 -20 -42l-369 -521h265q14 0 23 -8.5t9 -22.5zM413 770l-98 -67q-5 -4 -15 -4q-18 0 -23 16.5t8 28.5l84 77
q11 9 23 9q23 1 32 -22t-11 -38z" />
    <glyph glyph-name="zacute" unicode="&#x17a;" horiz-adv-x="425" 
d="M368 623l-97 -66q-8 -5 -15 -5q-18 0 -23.5 17t7.5 28l85 78q9 9 22 9q24 0 32.5 -22.5t-11.5 -38.5zM8 62l306 366h-216q-12 0 -20.5 8t-8.5 20q0 15 10 24t23 9h287q25 0 25 -25q0 -15 -19 -38l-306 -365h232q12 0 20.5 -8t8.5 -21q0 -15 -9.5 -23.5t-23.5 -8.5h-302
q-25 0 -25 25q0 15 18 37z" />
    <glyph glyph-name="Zdotaccent" unicode="&#x17b;" horiz-adv-x="462" 
d="M265 754q0 23 16 40t40 17q19 0 31.5 -12t12.5 -30q0 -24 -15.5 -40.5t-40.5 -16.5q-20 0 -32 11.5t-12 30.5zM389 36q0 -17 -10.5 -26.5t-25.5 -9.5h-335q-29 0 -29 28q0 15 19 41l369 521h-243q-13 0 -22.5 8.5t-9.5 22.5q0 16 11 26t25 10h314q29 0 29 -27
q0 -15 -20 -42l-369 -521h265q14 0 23 -8.5t9 -22.5z" />
    <glyph glyph-name="zdotaccent" unicode="&#x17c;" horiz-adv-x="425" 
d="M8 62l306 366h-216q-12 0 -20.5 8t-8.5 20q0 15 10 24t23 9h287q25 0 25 -25q0 -15 -19 -38l-306 -365h232q12 0 20.5 -8t8.5 -21q0 -15 -9.5 -23.5t-23.5 -8.5h-302q-25 0 -25 25q0 15 18 37zM219 600q0 24 16 41t40 17q20 0 32.5 -12t12.5 -31q0 -23 -16 -39.5
t-41 -16.5q-19 0 -31.5 11.5t-12.5 29.5z" />
    <glyph glyph-name="Zcaron" unicode="&#x17d;" horiz-adv-x="462" 
d="M389 36q0 -17 -10.5 -26.5t-25.5 -9.5h-335q-29 0 -29 28q0 15 19 41l369 521h-243q-13 0 -22.5 8.5t-9.5 22.5q0 16 11 26t25 10h314q29 0 29 -27q0 -15 -20 -42l-369 -521h265q14 0 23 -8.5t9 -22.5zM318 754l100 77q7 5 13 5q13 0 17 -11.5t-5 -19.5l-105 -106
q-14 -14 -32 -14q-14 0 -26 17l-69 104q-6 10 -0.5 21t18.5 11q8 0 15 -7z" />
    <glyph glyph-name="zcaron" unicode="&#x17e;" horiz-adv-x="425" 
d="M269 611l99 78q6 4 13 4q13 0 17 -12t-5 -20l-105 -104q-15 -15 -31 -15q-15 0 -27 17l-67 105q-7 10 -0.5 21t19.5 11q8 0 15 -7zM8 62l306 366h-216q-12 0 -20.5 8t-8.5 20q0 15 10 24t23 9h287q25 0 25 -25q0 -15 -19 -38l-306 -365h232q12 0 20.5 -8t8.5 -21
q0 -15 -9.5 -23.5t-23.5 -8.5h-302q-25 0 -25 25q0 15 18 37z" />
    <glyph glyph-name="longs" unicode="&#x17f;" horiz-adv-x="232" 
d="M26 34l84 477q15 82 60.5 124t130.5 42h13q13 0 22.5 -9t9.5 -22q0 -14 -10 -22.5t-23 -8.5h-19q-93 0 -110 -99l-86 -489q-5 -32 -37 -32q-18 0 -28 11t-7 28z" />
    <glyph glyph-name="florin" unicode="&#x192;" horiz-adv-x="416" 
d="M242 307l-56 -328q-28 -166 -191 -166h-14q-11 0 -20.5 9t-9.5 21q0 15 9.5 23.5t22.5 8.5h19q93 0 110 99l59 333h-50q-12 0 -20.5 8t-8.5 21q0 15 9.5 23.5t23.5 8.5h56l25 138q29 166 190 166h14q13 0 22 -9t9 -22q0 -14 -10 -22.5t-24 -8.5h-18q-93 0 -110 -100
l-25 -142h97q12 0 20.5 -8t8.5 -20q0 -15 -10 -24t-23 -9h-105z" />
    <glyph glyph-name="uni0218" unicode="&#x218;" horiz-adv-x="524" 
d="M232 -95l-66 -110q-9 -16 -25 -16q-11 0 -18.5 7.5t-7.5 17.5q0 8 3 16l45 115q11 26 35 26q16 0 27 -11t11 -27q0 -10 -4 -18zM234 54q68 0 108 38t40 97q0 41 -23.5 64t-69.5 43l-86 38q-108 48 -108 145q0 84 58 136t159 52q82 0 136 -43.5t51 -124.5
q-1 -16 -10.5 -26t-25.5 -10q-15 0 -25 10t-11 26q-5 104 -121 104q-63 0 -100.5 -30.5t-37.5 -79.5q0 -58 62 -86l98 -44q60 -27 95.5 -62t35.5 -96q0 -98 -62.5 -156.5t-169.5 -58.5q-89 0 -149.5 44.5t-51.5 126.5q2 16 11.5 26t25.5 10q15 0 25 -9.5t9 -25.5
q-2 -55 37 -81.5t100 -26.5z" />
    <glyph glyph-name="uni0219" unicode="&#x219;" horiz-adv-x="446" 
d="M194 -95l-66 -110q-9 -16 -25 -16q-11 0 -18.5 7.5t-7.5 17.5q0 8 3 16l45 115q11 26 35 26q16 0 27 -11t11 -27q0 -10 -4 -18zM191 301l74 -25q110 -37 110 -122q0 -71 -51 -117.5t-140 -46.5q-65 0 -113.5 28t-56.5 84q-2 16 1 29q5 26 32 26q24 0 27 -23
q6 -46 33 -65.5t83 -19.5q53 0 82.5 25t29.5 67q0 50 -53 67l-83 27q-42 14 -70.5 43t-28.5 73q0 62 50 105t131 43q59 0 104 -26t53 -79q8 -51 -29 -51q-22 0 -27 25q-7 36 -35.5 54.5t-73.5 18.5q-40 0 -71.5 -20.5t-31.5 -58.5q0 -43 54 -61z" />
    <glyph glyph-name="uni021A" unicode="&#x21a;" horiz-adv-x="459" 
d="M196 -95l-66 -110q-9 -16 -25 -16q-11 0 -18.5 7.5t-7.5 17.5q0 8 3 16l45 115q11 26 35 26q16 0 27 -11t11 -27q0 -10 -4 -18zM111 657h361q14 0 23 -9t9 -23q0 -17 -10.5 -26.5t-25.5 -9.5h-148l-98 -560q-5 -34 -38 -34q-19 0 -29.5 11.5t-6.5 29.5l98 553h-139
q-14 0 -23.5 9t-9.5 23q0 16 11 26t26 10z" />
    <glyph glyph-name="uni021B" unicode="&#x21b;" horiz-adv-x="310" 
d="M121 -95l-66 -110q-9 -16 -25 -16q-11 0 -18.5 7.5t-7.5 17.5q0 8 3 16l45 115q11 26 35 26q16 0 27 -11t11 -27q0 -10 -4 -18zM290 425h-75l-70 -398q-5 -32 -37 -32q-17 0 -27 11t-7 28l69 391h-67q-12 0 -20.5 8t-8.5 21q0 14 10 23t23 9h74l18 106q5 32 37 32
q17 0 27 -11t7 -28l-17 -99h68q12 0 20.5 -8t8.5 -21q0 -15 -9.5 -23.5t-23.5 -8.5z" />
    <glyph glyph-name="uni0237" unicode="&#x237;" horiz-adv-x="213" 
d="M172 454l-83 -474q-32 -177 -205 -177q-12 0 -20.5 8.5t-8.5 22.5t9.5 23t23.5 9h5q52 0 83 29t40 80l86 486q6 33 37 33q17 0 26.5 -11t6.5 -29z" />
    <glyph glyph-name="circumflex" unicode="&#x2c6;" horiz-adv-x="286" 
d="M255 633l-100 -79q-8 -4 -12 -4q-13 0 -17.5 12t4.5 20l106 105q15 15 31 15t28 -17l68 -104q6 -10 -0.5 -20.5t-19.5 -10.5q-9 0 -15 6z" />
    <glyph glyph-name="caron" unicode="&#x2c7;" horiz-adv-x="286" 
d="M250 611l99 78q6 4 13 4q13 0 17 -12t-5 -20l-105 -104q-15 -15 -31 -15q-15 0 -27 17l-67 105q-7 10 -0.5 21t19.5 11q8 0 15 -7z" />
    <glyph glyph-name="uni02C9" unicode="&#x2c9;" horiz-adv-x="275" 
d="M120 599q0 14 9.5 21.5t22.5 7.5h186q27 0 27 -25q0 -29 -31 -29h-186q-12 0 -20 6.5t-8 18.5z" />
    <glyph glyph-name="breve" unicode="&#x2d8;" horiz-adv-x="242" 
d="M335 646q-6 -43 -34.5 -70.5t-76.5 -27.5q-47 0 -72 28t-18 72q2 22 25 22q10 0 16.5 -6.5t5.5 -17.5q-5 -24 8 -39.5t41 -15.5q7 0 13.5 1.5t11.5 4.5t9 5.5t7.5 8t5.5 8.5t4.5 9t3 8t2.5 8l2 6q3 20 24 20q11 0 17 -7t5 -17z" />
    <glyph glyph-name="dotaccent" unicode="&#x2d9;" horiz-adv-x="136" 
d="M125 600q0 24 16 41t40 17q20 0 32.5 -12t12.5 -31q0 -23 -16 -39.5t-41 -16.5q-19 0 -31.5 11.5t-12.5 29.5z" />
    <glyph glyph-name="ring" unicode="&#x2da;" horiz-adv-x="235" 
d="M225 569q24 0 39 16.5t15 41.5q0 22 -14 37t-35 15q-24 0 -39 -16.5t-15 -40.5q0 -23 13.5 -38t35.5 -15zM222 528q-41 0 -67 27t-26 65q0 41 30 70.5t74 29.5q40 0 66.5 -26.5t26.5 -64.5q0 -42 -30 -71.5t-74 -29.5z" />
    <glyph glyph-name="ogonek" unicode="&#x2db;" horiz-adv-x="235" 
d="M140 -188q-116 -4 -116 62q0 42 37.5 80t87.5 57l34 -9q-107 -57 -107 -112q0 -19 16.5 -25t50.5 -6q22 0 22 -21q0 -24 -25 -26z" />
    <glyph glyph-name="tilde" unicode="&#x2dc;" horiz-adv-x="341" 
d="M163 565q-6 -14 -20 -14q-11 0 -16.5 8t-3.5 16q2 37 29.5 63t67.5 26q25 0 55 -16l37 -23q28 -18 42 -18q28 0 40 48q4 12 18 12q10 0 16 -6.5t5 -16.5q-4 -37 -25.5 -62t-58.5 -25q-26 0 -61 20l-37 22q-22 14 -37 14q-36 0 -51 -48z" />
    <glyph glyph-name="hungarumlaut" unicode="&#x2dd;" horiz-adv-x="310" 
d="M153 558q-7 -6 -18 -1.5t-11 16.5q0 7 6 13l108 97q10 10 27 4.5t17 -24.5q0 -11 -9 -20zM388 643l-115 -89q-10 -7 -19.5 -2t-9.5 16q0 9 5 13l104 101q12 13 28.5 7t16.5 -25q0 -12 -10 -21z" />
    <glyph glyph-name="uni0394" unicode="&#x394;" horiz-adv-x="538" 
d="M48 0q-17 0 -24 10.5t-2 26.5l172 588q4 16 18 26.5t31 10.5t30 -10.5t18 -27.5l173 -587q5 -17 -3 -27t-25 -10h-388zM241 538l-135 -470h269z" />
    <glyph glyph-name="uni03A9" unicode="&#x3a9;" horiz-adv-x="590" 
d="M29 0q-12 0 -20 7.5t-8 19.5q0 14 9.5 22t21.5 8h86q-53 43 -53 117q0 16 5 41l41 243q18 98 79.5 153.5t158.5 55.5q90 0 143 -45t53 -123q0 -20 -3 -41l-42 -243q-22 -118 -104 -158h79q12 0 19.5 -7.5t7.5 -19.5q0 -14 -9 -22t-22 -8h-121q-15 0 -24.5 9t-6.5 24l3 19
q4 23 23 33q64 38 78 115q47 275 47 289q0 50 -33 80t-94 30q-63 0 -104 -38.5t-52 -101.5l-45 -259q-14 -78 36 -114q17 -12 12 -34l-3 -19q-7 -33 -42 -33h-116z" />
    <glyph glyph-name="uni03BC" unicode="&#x3bc;" horiz-adv-x="503" 
d="M463 454l-76 -428q-5 -31 -32 -31t-28 26v36q-57 -67 -141 -67q-63 0 -94 37l-26 -175l-2 -11q-6 -33 -39 -33q-17 0 -26 10t-5 28l107 615q5 33 37 33q18 0 27.5 -11t6.5 -29l-50 -289q-3 -13 -3 -27q0 -84 90 -84q51 0 87 33.5t46 86.5l50 287q6 33 37 33q17 0 27 -11
t7 -29z" />
    <glyph glyph-name="pi" unicode="&#x3c0;" horiz-adv-x="620" 
d="M597 423h-74l-69 -396q-7 -32 -37 -32q-18 0 -28 11t-7 28l69 389h-233l-70 -396q-5 -32 -36 -32q-18 0 -28 11t-7 28l69 389h-66q-13 0 -22.5 8.5t-9.5 22.5q0 16 11 25.5t25 9.5h517q13 0 22 -9t9 -22q0 -16 -10.5 -25.5t-24.5 -9.5z" />
    <glyph glyph-name="Wgrave" unicode="&#x1e80;" horiz-adv-x="736" 
d="M388 832l76 -91q10 -12 4.5 -27t-22.5 -15q-12 0 -18 7l-88 79q-15 13 -7.5 35t30.5 22q16 0 25 -10zM754 615l-241 -589q-14 -31 -45 -31q-16 0 -25.5 9t-9.5 25l-25 492l-198 -494q-12 -32 -45 -32t-35 34l-34 597q-1 15 10 25.5t26 10.5q14 0 24.5 -10t11.5 -26
l23 -489l196 492q12 33 45 33q16 0 25.5 -10t10.5 -26l22 -488l201 502q8 22 34 22q16 0 26 -14.5t3 -32.5z" />
    <glyph glyph-name="wgrave" unicode="&#x1e81;" horiz-adv-x="652" 
d="M642 444l-193 -420q-14 -29 -43 -29q-14 0 -23 8.5t-11 22.5l-33 341l-153 -343q-11 -29 -43 -29q-29 0 -32 31l-47 430q-1 14 10.5 26t26.5 12q14 0 25 -10.5t12 -24.5l27 -348l153 353q13 30 43 30q14 0 24 -9.5t11 -23.5l28 -350l155 360q10 23 32 23q19 0 29.5 -15.5
t1.5 -34.5zM320 685l76 -91q10 -12 4.5 -27.5t-22.5 -15.5q-10 0 -18 8l-88 79q-15 14 -7 35.5t30 21.5q16 0 25 -10z" />
    <glyph glyph-name="Wacute" unicode="&#x1e82;" horiz-adv-x="736" 
d="M552 770l-98 -67q-5 -4 -15 -4q-18 0 -23 16.5t8 28.5l84 77q10 9 23 9q23 1 32 -22t-11 -38zM754 615l-241 -589q-14 -31 -45 -31q-16 0 -25.5 9t-9.5 25l-25 492l-198 -494q-12 -32 -45 -32t-35 34l-34 597q-1 15 10 25.5t26 10.5q14 0 24.5 -10t11.5 -26l23 -489
l196 492q12 33 45 33q16 0 25.5 -10t10.5 -26l22 -488l201 502q8 22 34 22q16 0 26 -14.5t3 -32.5z" />
    <glyph glyph-name="wacute" unicode="&#x1e83;" horiz-adv-x="652" 
d="M482 623l-97 -66q-8 -5 -15 -5q-18 0 -23.5 17t7.5 28l85 78q9 9 22 9q24 0 32.5 -22.5t-11.5 -38.5zM642 444l-193 -420q-14 -29 -43 -29q-14 0 -23 8.5t-11 22.5l-33 341l-153 -343q-11 -29 -43 -29q-29 0 -32 31l-47 430q-1 14 10.5 26t26.5 12q14 0 25 -10.5
t12 -24.5l27 -348l153 353q13 30 43 30q14 0 24 -9.5t11 -23.5l28 -350l155 360q10 23 32 23q19 0 29.5 -15.5t1.5 -34.5z" />
    <glyph glyph-name="Wdieresis" unicode="&#x1e84;" horiz-adv-x="736" 
d="M754 615l-241 -589q-14 -31 -45 -31q-16 0 -25.5 9t-9.5 25l-25 492l-198 -494q-12 -32 -45 -32t-35 34l-34 597q-1 15 10 25.5t26 10.5q14 0 24.5 -10t11.5 -26l23 -489l196 492q12 33 45 33q16 0 25.5 -10t10.5 -26l22 -488l201 502q8 22 34 22q16 0 26 -14.5t3 -32.5z
M349 756q0 21 15 35t38 14q16 0 26 -10.5t10 -25.5q0 -21 -14.5 -36.5t-35.5 -15.5q-16 0 -27.5 11.5t-11.5 27.5zM463 756q0 20 15 34.5t37 14.5q16 0 26.5 -10.5t10.5 -26.5q0 -20 -15 -35.5t-35 -15.5q-17 0 -28 11.5t-11 27.5z" />
    <glyph glyph-name="wdieresis" unicode="&#x1e85;" horiz-adv-x="652" 
d="M280 600q0 21 14 35.5t35 14.5q17 0 28 -10.5t11 -26.5q0 -22 -13 -36.5t-36 -14.5q-16 0 -27.5 11.5t-11.5 26.5zM394 600q0 21 14 35.5t34 14.5q18 0 29 -10.5t11 -26.5q0 -22 -13.5 -36.5t-37.5 -14.5q-15 0 -26 11.5t-11 26.5zM642 444l-193 -420q-14 -29 -43 -29
q-14 0 -23 8.5t-11 22.5l-33 341l-153 -343q-11 -29 -43 -29q-29 0 -32 31l-47 430q-1 14 10.5 26t26.5 12q14 0 25 -10.5t12 -24.5l27 -348l153 353q13 30 43 30q14 0 24 -9.5t11 -23.5l28 -350l155 360q10 23 32 23q19 0 29.5 -15.5t1.5 -34.5z" />
    <glyph glyph-name="endash" unicode="&#x2013;" horiz-adv-x="507" 
d="M58 261q0 14 9.5 22.5t22.5 8.5h323q12 0 20 -8t8 -20q0 -14 -9.5 -21.5t-22.5 -7.5h-323q-12 0 -20 7t-8 19z" />
    <glyph glyph-name="emdash" unicode="&#x2014;" horiz-adv-x="791" 
d="M58 261q0 14 9.5 22.5t22.5 8.5h607q12 0 20 -8t8 -20q0 -14 -9.5 -21.5t-22.5 -7.5h-607q-12 0 -20 7t-8 19z" />
    <glyph glyph-name="quoteleft" unicode="&#x2018;" horiz-adv-x="221" 
d="M104 532l78 116q7 13 22 13t20.5 -11t0.5 -24l-54 -127q-11 -26 -37 -26q-23 0 -33 19.5t3 39.5z" />
    <glyph glyph-name="quoteright" unicode="&#x2019;" horiz-adv-x="217" 
d="M218 602l-77 -116q-9 -13 -22 -13q-15 0 -21 11t-1 24l54 127q11 26 37 26q23 0 33 -19t-3 -40z" />
    <glyph glyph-name="quotesinglbase" unicode="&#x201a;" horiz-adv-x="222" 
d="M114 29l-82 -115q-9 -13 -23 -13t-21 11t-1 24l59 131q11 23 36 23q24 0 35.5 -20.5t-3.5 -40.5z" />
    <glyph glyph-name="quotedblleft" unicode="&#x201c;" horiz-adv-x="342" 
d="M224 532l78 116q7 13 22 13t20.5 -11t0.5 -24l-54 -127q-11 -26 -36 -26q-23 0 -33.5 19.5t2.5 39.5zM102 532l81 116q7 13 22 13q14 0 20 -11t1 -24l-56 -127q-12 -26 -37 -26q-24 0 -34.5 19.5t3.5 39.5z" />
    <glyph glyph-name="quotedblright" unicode="&#x201d;" horiz-adv-x="339" 
d="M220 602l-78 -116q-7 -13 -22 -13t-20.5 11t-0.5 24l54 127q11 26 36 26q23 0 33.5 -19.5t-2.5 -39.5zM342 602l-81 -116q-7 -13 -22 -13q-14 0 -20 11t-1 24l56 127q12 26 37 26q24 0 34.5 -19.5t-3.5 -39.5z" />
    <glyph glyph-name="quotedblbase" unicode="&#x201e;" horiz-adv-x="343" 
d="M109 31l-78 -116q-7 -13 -22 -13t-20.5 11t-0.5 24l54 127q11 26 36 26q23 0 33.5 -19.5t-2.5 -39.5zM234 31l-81 -116q-7 -13 -22 -13q-14 0 -20 11t-1 24l56 127q12 26 37 26q24 0 34.5 -19.5t-3.5 -39.5z" />
    <glyph glyph-name="dagger" unicode="&#x2020;" horiz-adv-x="382" 
d="M286 626l-13 -75l-20 -62h107q10 0 17 -7t7 -17q0 -12 -8 -19t-19 -7h-117l-64 -444l-15 -78q-2 -14 -12.5 -23t-26.5 -9t-25 10.5t-6 25.5l13 74l92 444h-112q-9 0 -16 6.5t-7 17.5q0 12 8 19t19 7h112l2 62l14 79q2 14 12.5 23t26.5 9t25 -10.5t6 -25.5z" />
    <glyph glyph-name="daggerdbl" unicode="&#x2021;" horiz-adv-x="414" 
d="M222 271l-17 -164h104q10 0 17 -6.5t7 -16.5q0 -12 -8.5 -19.5t-19.5 -7.5h-108l-5 -62l-14 -79q-7 -32 -39 -32q-16 0 -25 10.5t-6 25.5l13 75l13 62h-100q-10 0 -17 7t-7 17q0 12 8 19t19 7h109l37 164l23 168h-104q-10 0 -17 6.5t-7 16.5q0 12 8 19.5t19 7.5h105l9 62
l14 79q2 14 12.5 23t26.5 9t24.5 -10.5t6.5 -25.5l-13 -75l-15 -62h102q10 0 16.5 -7t6.5 -17q0 -12 -8 -19t-19 -7h-109z" />
    <glyph glyph-name="bullet" unicode="&#x2022;" horiz-adv-x="341" 
d="M76 274q0 39 27 66t64 27q39 0 66.5 -27t27.5 -66q0 -38 -27.5 -64.5t-66.5 -26.5q-37 0 -64 27t-27 64z" />
    <glyph glyph-name="ellipsis" unicode="&#x2026;" horiz-adv-x="590" 
d="M15 30q0 23 17 39.5t41 16.5q18 0 29 -11.5t11 -29.5q0 -24 -16.5 -39.5t-41.5 -15.5q-17 0 -28.5 11.5t-11.5 28.5zM203 30q0 23 17 39.5t40 16.5q18 0 29.5 -11.5t11.5 -29.5q0 -24 -17 -39.5t-41 -15.5q-18 0 -29 11.5t-11 28.5zM391 30q0 23 17 39.5t40 16.5
q18 0 29.5 -12t11.5 -29q0 -24 -17 -39.5t-41 -15.5q-18 0 -29 11.5t-11 28.5z" />
    <glyph glyph-name="perthousand" unicode="&#x2030;" horiz-adv-x="898" 
d="M392 220l-22 -121q-1 -5 -1 -14q0 -21 13.5 -34t37.5 -13q26 0 44.5 16.5t23.5 44.5l21 121q1 5 1 14q0 47 -49 47q-28 0 -46 -17t-23 -44zM564 220l-21 -121q-9 -51 -41.5 -80t-87.5 -29q-44 0 -72 24t-28 65q0 6 2 20l21 121q9 50 41 79.5t87 29.5q43 0 72 -24t29 -65
q0 -6 -2 -20zM155 558l-22 -121q-1 -5 -1 -14q0 -21 13 -34t38 -13q26 0 44.5 16.5t23.5 44.5l21 121q1 6 1 14q0 47 -49 47q-28 0 -46 -17t-23 -44zM327 558l-21 -121q-19 -109 -129 -109q-43 0 -71 24.5t-28 64.5q0 6 2 20l21 121q9 50 40.5 79.5t86.5 29.5q43 0 72 -24
t29 -65q0 -6 -2 -20zM669 220l-22 -121q-1 -5 -1 -14q0 -21 13.5 -34t38.5 -13t43.5 16.5t23.5 44.5l22 121q1 5 1 14q0 47 -51 47q-26 0 -44.5 -17t-23.5 -44zM841 220l-21 -121q-9 -50 -41 -79.5t-88 -29.5q-43 0 -71.5 24.5t-28.5 64.5q0 6 2 20l21 121q9 50 41 79.5
t87 29.5q43 0 72 -24t29 -65q0 -6 -2 -20zM336 309l-231 -302q-7 -12 -23 -12t-22.5 14.5t3.5 26.5l228 293l247 324q7 9 18 9q15 0 23 -14t-1 -28z" />
    <glyph glyph-name="guilsinglleft" unicode="&#x2039;" horiz-adv-x="245" 
d="M85 83l-32 115q-4 10 -4 16q-4 22 13 50l82 128q6 11 22 11t23 -13.5t-1 -27.5l-73 -129l28 -131q4 -16 -4.5 -27.5t-24.5 -11.5q-22 0 -29 20z" />
    <glyph glyph-name="guilsinglright" unicode="&#x203a;" horiz-adv-x="246" 
d="M143 383l32 -115q4 -10 4 -16q4 -22 -13 -50l-82 -128q-6 -11 -22 -11t-23 13.5t1 27.5l73 129l-28 131q-4 16 4.5 27.5t24.5 11.5q22 0 29 -20z" />
    <glyph glyph-name="fraction" unicode="&#x2044;" horiz-adv-x="110" 
d="M80 309l-232 -302q-8 -12 -23 -12q-16 0 -22 14.5t3 26.5l228 293l247 324q7 9 19 9q15 0 23 -14t-1 -28z" />
    <glyph glyph-name="zero.superior" unicode="&#x2070;" horiz-adv-x="291" 
d="M171 709l-23 -130q-2 -8 -2 -13q0 -41 48 -41q45 0 55 54l23 130q1 5 1 13q0 41 -46 41t-56 -54zM329 708l-24 -128q-9 -50 -39.5 -77.5t-79.5 -27.5q-42 0 -69.5 23t-27.5 61q0 7 2 21l23 128q19 105 120 105q42 0 69.5 -23t27.5 -61q0 -7 -2 -21z" />
    <glyph glyph-name="four.superior" unicode="&#x2074;" horiz-adv-x="290" 
d="M276 552l-10 -52q-5 -25 -28 -25q-14 0 -21.5 8.5t-5.5 22.5l8 46h-115q-30 0 -30 32q0 7 3 14t4.5 9.5t8.5 10.5t8 9l135 158q23 28 53 28q16 0 24.5 -9t6.5 -23l-33 -182h15q8 0 14.5 -6t6.5 -16q0 -12 -7.5 -18.5t-18.5 -6.5h-18zM132 599h96l25 142z" />
    <glyph glyph-name="five.superior" unicode="&#x2075;" horiz-adv-x="280" 
d="M85 541q-2 13 4 23.5t21 10.5q18 0 23 -19q8 -34 51 -34q28 0 44 20t16 54q0 44 -44 44q-18 0 -38 -10t-32 -10q-11 0 -17.5 7.5t-4.5 18.5l23 132q5 30 37 30h134q10 0 16.5 -6.5t6.5 -16.5q0 -12 -7.5 -19t-18.5 -7h-121l-15 -90q25 17 56 17q35 0 59.5 -22.5
t24.5 -59.5q0 -59 -33 -94t-90 -35q-81 0 -95 66z" />
    <glyph glyph-name="six.superior" unicode="&#x2076;" horiz-adv-x="286" 
d="M322 745q6 -34 -25 -34q-16 0 -26 25q-11 29 -44 29q-48 0 -58 -53l-10 -54q29 20 62 20q37 0 60.5 -22.5t23.5 -58.5q0 -58 -32.5 -90t-88.5 -32q-42 0 -69 22.5t-27 61.5q0 8 2 24l22 124q19 106 121 106q36 0 60 -17.5t29 -50.5zM203 631q-30 0 -52 -22l-5 -28
q-1 -6 -1 -16q0 -43 46 -43q26 0 40 17.5t14 48.5q0 43 -42 43z" />
    <glyph glyph-name="seven.superior" unicode="&#x2077;" horiz-adv-x="241" 
d="M151 488q-8 -13 -23 -13q-16 0 -23 13.5t1 28.5l137 242h-116q-10 0 -16.5 6.5t-6.5 16.5q0 12 8 19t18 7h149q33 0 30 -31q-2 -11 -18 -38z" />
    <glyph glyph-name="eight.superior" unicode="&#x2078;" horiz-adv-x="284" 
d="M323 737q0 -65 -56 -89q36 -19 36 -60q0 -51 -32.5 -82t-88.5 -31q-42 0 -70 22.5t-28 57.5q0 68 62 96q-31 17 -31 55q0 48 31 77.5t85 29.5q40 0 66 -21.5t26 -54.5zM142 562q0 -19 12.5 -30.5t34.5 -11.5q27 0 42 18t15 48q0 19 -11 30.5t-32 11.5q-30 0 -45.5 -18.5
t-15.5 -47.5zM171 707q0 -38 40 -38q27 0 41 17.5t14 42.5q0 17 -11 27t-30 10q-26 0 -40 -16t-14 -43z" />
    <glyph glyph-name="nine.superior" unicode="&#x2079;" horiz-adv-x="286" 
d="M211 657q28 0 51 23l3 20q2 16 2 19q0 47 -46 47q-25 0 -39.5 -18t-14.5 -48q0 -43 44 -43zM140 556q7 -33 45 -33q48 0 58 53l10 55q-26 -21 -60 -21q-37 0 -61 22.5t-24 58.5q0 58 31 90t88 32q42 0 69.5 -23.5t27.5 -66.5q0 -15 -2 -24l-21 -118q-20 -106 -121 -106
q-41 0 -64 20t-26 50q-2 13 4.5 22.5t21.5 9.5q20 0 24 -21z" />
    <glyph glyph-name="parenleft.superior" unicode="&#x207d;" horiz-adv-x="174" 
d="M152 426q-32 2 -51 22t-19 54q0 7 2 23l41 236q18 93 102 100q10 1 16.5 -5.5t6.5 -17.5q0 -22 -24 -26q-37 -6 -42 -47l-44 -243q-1 -5 -1 -13q0 -26 24 -33q20 -7 20 -24q0 -14 -9.5 -21t-21.5 -5z" />
    <glyph glyph-name="parenright.superior" unicode="&#x207e;" horiz-adv-x="175" 
d="M149 861q33 -2 52 -22.5t19 -54.5q0 -8 -2 -22l-42 -237q-15 -92 -101 -100q-11 -1 -17.5 6t-6.5 18q0 22 24 26q34 4 43 47l43 243q1 5 1 12q0 27 -24 34q-19 5 -19 24q0 13 9.5 20.5t20.5 5.5z" />
    <glyph glyph-name="zero.inferior" unicode="&#x2080;" horiz-adv-x="303" 
d="M66 82l-23 -130q-2 -8 -2 -13q0 -41 48 -41q45 0 55 54l23 130q1 5 1 13q0 41 -46 41t-56 -54zM224 81l-24 -128q-9 -50 -39.5 -77.5t-79.5 -27.5q-42 0 -69.5 23t-27.5 61q0 7 2 21l23 128q19 105 120 105q42 0 69.5 -23t27.5 -61q0 -7 -2 -21z" />
    <glyph glyph-name="one.inferior" unicode="&#x2081;" horiz-adv-x="227" 
d="M112 -147h-131q-9 0 -16 6.5t-7 16.5q0 12 8 19t18 7h39l41 229h-32q-25 0 -25 25q0 11 8 18t19 7h64q14 0 21 -8t5 -22l-44 -249h35q10 0 17 -7t7 -17q0 -11 -8 -18t-19 -7z" />
    <glyph glyph-name="two.inferior" unicode="&#x2082;" horiz-adv-x="290" 
d="M59 94q-7 -19 -27 -19q-15 0 -20.5 10.5t-1.5 24.5q10 33 40 54.5t73 21.5q40 0 67 -22t27 -57q0 -67 -78 -113l-65 -38q-33 -20 -40 -52h131q10 0 17 -7t7 -17q0 -13 -8.5 -20t-19.5 -7h-168q-29 0 -27 31q5 66 79 110l63 38q50 30 50 66q0 38 -44 38q-40 0 -55 -42z
" />
    <glyph glyph-name="three.inferior" unicode="&#x2083;" horiz-adv-x="287" 
d="M27 -69q5 -36 47 -36q27 0 42.5 17t15.5 46q0 41 -52 41q-8 0 -14 6t-6 15q0 11 6.5 17t16.5 6q41 0 55 14.5t14 41.5q0 36 -43 36q-39 0 -52 -39q-6 -19 -27 -19q-13 0 -20 10.5t-3 23.5q8 30 38 52t73 22q40 0 66.5 -21t26.5 -56q0 -61 -56 -87q35 -19 35 -61
q0 -52 -32.5 -82.5t-88.5 -30.5q-45 0 -70.5 22.5t-25.5 57.5q0 12 7.5 20t19.5 8q24 0 27 -24z" />
    <glyph glyph-name="four.inferior" unicode="&#x2084;" horiz-adv-x="295" 
d="M167 -76l-10 -52q-5 -25 -28 -25q-14 0 -21.5 8.5t-5.5 22.5l8 46h-115q-30 0 -30 32q0 7 3 14t4.5 9.5t8.5 10.5t8 9l135 158q23 28 53 28q16 0 24.5 -9t6.5 -23l-33 -182h15q8 0 14.5 -6t6.5 -16q0 -12 -7.5 -18.5t-18.5 -6.5h-18zM23 -29h96l25 142z" />
    <glyph glyph-name="five.inferior" unicode="&#x2085;" horiz-adv-x="286" 
d="M-23 -86q-2 13 4 23.5t21 10.5q18 0 23 -19q8 -34 51 -34q28 0 44 20t16 54q0 44 -44 44q-18 0 -38 -10t-32 -10q-11 0 -17.5 7.5t-4.5 18.5l23 132q5 30 37 30h134q10 0 16.5 -6.5t6.5 -16.5q0 -12 -7.5 -19t-18.5 -7h-121l-15 -90q25 17 56 17q35 0 59.5 -22.5
t24.5 -59.5q0 -59 -33 -94t-90 -35q-81 0 -95 66z" />
    <glyph glyph-name="six.inferior" unicode="&#x2086;" horiz-adv-x="295" 
d="M218 118q6 -34 -25 -34q-16 0 -26 25q-11 29 -44 29q-48 0 -58 -53l-10 -54q29 20 62 20q37 0 60.5 -22.5t23.5 -58.5q0 -58 -32.5 -90t-88.5 -32q-42 0 -69 22.5t-27 61.5q0 8 2 24l22 124q19 106 121 106q36 0 60 -17.5t29 -50.5zM99 4q-30 0 -52 -22l-5 -28
q-1 -6 -1 -16q0 -43 46 -43q26 0 40 17.5t14 48.5q0 43 -42 43z" />
    <glyph glyph-name="seven.inferior" unicode="&#x2087;" horiz-adv-x="244" 
d="M41 -139q-8 -13 -23 -13q-16 0 -23 13.5t1 28.5l137 242h-116q-10 0 -16.5 6.5t-6.5 16.5q0 12 8 19t18 7h149q33 0 30 -31q-2 -11 -18 -38z" />
    <glyph glyph-name="eight.inferior" unicode="&#x2088;" horiz-adv-x="294" 
d="M217 110q0 -64 -56 -89q36 -19 36 -60q0 -51 -32.5 -82t-88.5 -31q-42 0 -70 22.5t-28 57.5q0 68 62 96q-31 17 -31 55q0 48 31 77.5t85 29.5q40 0 66 -21.5t26 -54.5zM36 -65q0 -19 12.5 -30.5t34.5 -11.5q27 0 42 18t15 48q0 19 -11 30.5t-32 11.5q-30 0 -45.5 -18.5
t-15.5 -47.5zM65 80q0 -38 40 -38q27 0 41 17.5t14 42.5q0 17 -11 27t-30 10q-26 0 -40 -16t-14 -43z" />
    <glyph glyph-name="nine.inferior" unicode="&#x2089;" horiz-adv-x="294" 
d="M102 30q28 0 51 23l3 20q2 16 2 19q0 47 -46 47q-25 0 -39.5 -18t-14.5 -48q0 -43 44 -43zM31 -71q7 -33 45 -33q48 0 58 53l10 55q-26 -21 -60 -21q-37 0 -61 22.5t-24 58.5q0 58 31 90t88 32q42 0 69.5 -23.5t27.5 -66.5q0 -15 -2 -24l-21 -118q-20 -106 -121 -106
q-41 0 -64 20t-26 50q-2 13 4.5 22.5t21.5 9.5q20 0 24 -21z" />
    <glyph glyph-name="parenleft.inferior" unicode="&#x208d;" horiz-adv-x="181" 
d="M46 -201q-32 2 -51 22t-19 54q0 7 2 23l41 236q18 93 102 100q10 1 16.5 -5.5t6.5 -17.5q0 -22 -24 -26q-37 -6 -42 -47l-44 -243q-1 -5 -1 -13q0 -26 24 -33q20 -7 20 -24q0 -14 -9.5 -21t-21.5 -5z" />
    <glyph glyph-name="parenright.inferior" unicode="&#x208e;" horiz-adv-x="181" 
d="M40 233q33 -2 52 -22.5t19 -54.5q0 -8 -2 -22l-42 -237q-15 -92 -101 -100q-11 -1 -17.5 6t-6.5 18q0 22 24 26q34 4 43 47l43 243q1 5 1 12q0 27 -24 34q-19 5 -19 24q0 13 9.5 20.5t20.5 5.5z" />
    <glyph glyph-name="franc" unicode="&#x20a3;" horiz-adv-x="528" 
d="M369 425q12 0 20 -7.5t8 -20.5q0 -14 -9 -22t-22 -8h-160l-14 -78h154q12 0 20 -8t8 -20q0 -14 -9 -22t-22 -8h-161l-36 -202q-5 -34 -38 -34q-19 0 -29 11t-6 30l34 195h-36q-12 0 -20 8t-8 20q0 14 9.5 22t22.5 8h42l14 78h-37q-12 0 -20 8t-8 20q0 14 9.5 22t22.5 8
h43l35 198q5 34 41 34h305q14 0 23.5 -9t9.5 -23q0 -16 -11 -26t-26 -10h-273l-29 -164h153z" />
    <glyph glyph-name="lira" unicode="&#x20a4;" horiz-adv-x="559" 
d="M156 64h280q14 0 23 -8.5t9 -22.5q0 -15 -10.5 -24t-25.5 -9h-393q-13 0 -22 8.5t-9 21.5q0 15 10 24.5t24 9.5h40q2 8 4 21.5t7.5 42.5t8.5 48l3 19h-37q-26 0 -26 25q0 13 8.5 20.5t21.5 7.5h43l13 78h-38q-25 0 -25 25q0 13 8.5 20.5t21.5 7.5h43l15 82
q18 97 75.5 151.5t148.5 54.5q80 0 126.5 -51t36.5 -131q-5 -36 -36 -36q-17 0 -26.5 10.5t-8.5 26.5q5 53 -21 84t-79 31q-56 0 -94 -38.5t-49 -99.5l-15 -84h148q11 0 18 -7t7 -18q0 -13 -8 -20.5t-20 -7.5h-154l-14 -78h148q11 0 18 -7t7 -18q0 -13 -8.5 -20.5
t-19.5 -7.5h-154z" />
    <glyph glyph-name="peseta" unicode="&#x20a7;" horiz-adv-x="1199" 
d="M150 236l-37 -207q-7 -34 -38 -34q-18 0 -28.5 11.5t-7.5 29.5l104 585q7 36 42 36h158q88 0 141.5 -49t53.5 -128q0 -110 -72 -177t-189 -67h-127zM327 591h-115l-51 -289h120q79 0 129 47t50 122q0 56 -33.5 88t-99.5 32zM943 301l74 -25q110 -37 110 -122
q0 -71 -51 -117.5t-140 -46.5q-65 0 -113.5 28t-56.5 84q-2 16 1 29q5 26 32 26q24 0 27 -23q6 -46 33 -65.5t83 -19.5q53 0 82.5 25t29.5 67q0 50 -53 67l-83 27q-42 14 -70.5 43t-28.5 73q0 62 50 105t131 43q59 0 104 -26t53 -79q8 -51 -29 -51q-22 0 -27 25
q-7 36 -35.5 54.5t-73.5 18.5q-40 0 -71.5 -20.5t-31.5 -58.5q0 -43 54 -61zM802 425h-75l-70 -398q-5 -32 -37 -32q-17 0 -27 11t-7 28l69 391h-67q-12 0 -20.5 8t-8.5 21q0 14 10 23t23 9h74l18 106q5 32 37 32q17 0 27 -11t7 -28l-17 -99h68q12 0 20.5 -8t8.5 -21
q0 -15 -9.5 -23.5t-23.5 -8.5z" />
    <glyph glyph-name="Euro" unicode="&#x20ac;" horiz-adv-x="581" 
d="M62 398q0 13 8.5 20t20.5 7h48l6 33q17 98 78.5 153.5t159.5 55.5q82 0 133 -50.5t41 -131.5q-2 -16 -11.5 -25.5t-24.5 -9.5q-16 0 -25 9.5t-8 25.5q3 58 -26.5 87.5t-86.5 29.5q-62 0 -104 -40t-53 -103l-6 -34h116q11 0 18 -7t7 -18q0 -13 -8.5 -20.5t-20.5 -7.5h-122
l-13 -78h116q11 0 18 -7t7 -18q0 -13 -8.5 -20.5t-20.5 -7.5h-122l-7 -43q-3 -16 -3 -32q0 -50 31.5 -80.5t88.5 -30.5q58 0 96.5 35.5t50.5 94.5q5 29 35 29q17 0 26.5 -12.5t5.5 -31.5q-16 -83 -75.5 -131.5t-147.5 -48.5q-80 0 -132 45.5t-52 121.5q0 22 4 42l7 42h-42
q-11 0 -18.5 7t-7.5 19q0 13 8.5 20t20.5 7h48l14 78h-42q-11 0 -18.5 7t-7.5 19z" />
    <glyph glyph-name="uni2113" unicode="&#x2113;" horiz-adv-x="454" 
d="M338 0h-94q-67 0 -107.5 35.5t-40.5 100.5q0 13 4 41l7 42l-40 -25q-16 -10 -33 -2t-17 28t20 30l85 53l36 204q14 76 60.5 119t119.5 43q57 0 93 -34.5t36 -84.5q0 -62 -34.5 -104t-97.5 -82l-146 -93l-17 -99q-3 -16 -3 -29q0 -81 89 -81h85q12 0 20.5 -8t8.5 -21
q0 -15 -10 -24t-24 -9zM232 510l-28 -156l102 63q27 17 43.5 30t32.5 38.5t16 54.5q0 30 -18 48t-51 18q-39 0 -64.5 -26.5t-32.5 -69.5z" />
    <glyph glyph-name="trademark" unicode="&#x2122;" horiz-adv-x="813" 
d="M112 631q0 11 7 18.5t18 7.5h224q11 0 18 -7.5t7 -18.5q0 -26 -25 -26h-81v-293q0 -13 -8.5 -20.5t-22.5 -7.5q-13 0 -22 8t-9 20v293h-81q-11 0 -18 7.5t-7 18.5zM589 456l104 183q12 22 37 22q12 0 20.5 -8.5t8.5 -19.5v-322q0 -12 -8.5 -19.5t-20.5 -7.5t-20.5 7.5
t-8.5 19.5v232l-88 -152q-8 -16 -25 -16q-15 0 -25 16l-86 150v-231q0 -12 -8.5 -19t-20.5 -7t-20 7t-8 19v323q0 11 8 19.5t21 8.5q24 0 36 -22z" />
    <glyph glyph-name="Omega" unicode="&#x2126;" horiz-adv-x="590" 
d="M29 0q-12 0 -20 7.5t-8 19.5q0 14 9.5 22t21.5 8h86q-53 43 -53 117q0 16 5 41l41 243q18 98 79.5 153.5t158.5 55.5q90 0 143 -45t53 -123q0 -20 -3 -41l-42 -243q-22 -118 -104 -158h79q12 0 19.5 -7.5t7.5 -19.5q0 -14 -9 -22t-22 -8h-121q-15 0 -24.5 9t-6.5 24l3 19
q4 23 23 33q64 38 78 115q47 275 47 289q0 50 -33 80t-94 30q-63 0 -104 -38.5t-52 -101.5l-45 -259q-14 -78 36 -114q17 -12 12 -34l-3 -19q-7 -33 -42 -33h-116z" />
    <glyph glyph-name="estimated" unicode="&#x212e;" horiz-adv-x="771" 
d="M396 616q-130 0 -214 -100v-147h429v146q-83 101 -215 101zM654 106q-47 -54 -115.5 -85.5t-142.5 -31.5q-141 0 -240 98.5t-99 239.5t99 240.5t240 99.5q95 0 173.5 -48t121 -120t45.5 -150q0 -30 -29 -30h-525v-181q83 -98 214 -98q63 0 121.5 27.5t97.5 74.5
q11 13 28.5 7t17.5 -25q0 -11 -7 -18z" />
    <glyph glyph-name="uni2153" unicode="&#x2153;" horiz-adv-x="634" 
d="M214 329h-131q-9 0 -16 6.5t-7 16.5q0 12 8 19t18 7h39l41 229h-32q-25 0 -25 25q0 11 8 18t19 7h64q14 0 21 -8t5 -22l-44 -249h35q10 0 17 -7t7 -17q0 -11 -8 -18t-19 -7zM343 309l-232 -302q-7 -12 -23 -12t-22 14.5t3 26.5l228 293l247 324q7 9 19 9q15 0 23 -14
t-1 -28zM389 79q5 -36 47 -36q27 0 42.5 17t15.5 46q0 41 -52 41q-8 0 -14 6t-6 15q0 11 6.5 17t16.5 6q41 0 55 14.5t14 41.5q0 36 -43 36q-39 0 -52 -39q-6 -19 -27 -19q-13 0 -20 10.5t-3 23.5q8 30 38 52t73 22q40 0 66.5 -21t26.5 -56q0 -61 -56 -87q35 -19 35 -61
q0 -52 -32.5 -82.5t-88.5 -30.5q-45 0 -70.5 22.5t-25.5 57.5q0 12 7.5 20t19.5 8q24 0 27 -24z" />
    <glyph glyph-name="uni2154" unicode="&#x2154;" horiz-adv-x="666" 
d="M156 570q-7 -19 -27 -19q-15 0 -20.5 10.5t-1.5 24.5q10 33 40 54.5t73 21.5q40 0 67 -22t27 -57q0 -67 -78 -113l-65 -38q-33 -20 -40 -52h131q10 0 17 -7t7 -17q0 -13 -8.5 -20t-19.5 -7h-168q-29 0 -27 31q5 66 79 110l63 38q50 30 50 66q0 38 -44 38q-40 0 -55 -42z
M375 309l-232 -302q-7 -12 -23 -12t-22 14.5t3 26.5l228 293l247 324q7 9 19 9q15 0 23 -14t-1 -28zM421 79q5 -36 47 -36q27 0 42.5 17t15.5 46q0 41 -52 41q-8 0 -14 6t-6 15q0 11 6.5 17t16.5 6q41 0 55 14.5t14 41.5q0 36 -43 36q-39 0 -52 -39q-6 -19 -27 -19
q-13 0 -20 10.5t-3 23.5q8 30 38 52t73 22q40 0 66.5 -21t26.5 -56q0 -61 -56 -87q35 -19 35 -61q0 -52 -32.5 -82.5t-88.5 -30.5q-45 0 -70.5 22.5t-25.5 57.5q0 12 7.5 20t19.5 8q24 0 27 -24z" />
    <glyph glyph-name="uni2155" unicode="&#x2155;" horiz-adv-x="646" 
d="M343 309l-232 -302q-7 -12 -23 -12t-22 14.5t3 26.5l228 293l247 324q7 9 19 9q15 0 23 -14t-1 -28zM214 329h-131q-9 0 -16 6.5t-7 16.5q0 12 8 19t18 7h39l41 229h-32q-25 0 -25 25q0 11 8 18t19 7h64q14 0 21 -8t5 -22l-44 -249h35q10 0 17 -7t7 -17q0 -11 -8 -18
t-19 -7zM349 61q-2 13 4 23.5t21 10.5q18 0 23 -19q8 -34 51 -34q28 0 44 20t16 54q0 44 -44 44q-18 0 -38 -10t-32 -10q-11 0 -17.5 7.5t-4.5 18.5l23 132q5 30 37 30h134q10 0 16.5 -6.5t6.5 -16.5q0 -12 -7.5 -19t-18.5 -7h-121l-15 -90q25 17 56 17q35 0 59.5 -22.5
t24.5 -59.5q0 -59 -33 -94t-90 -35q-81 0 -95 66z" />
    <glyph glyph-name="uni2156" unicode="&#x2156;" horiz-adv-x="677" 
d="M157 570q-7 -19 -27 -19q-15 0 -20.5 10.5t-1.5 24.5q10 33 40 54.5t73 21.5q40 0 67 -22t27 -57q0 -67 -78 -113l-65 -38q-33 -20 -40 -52h131q10 0 17 -7t7 -17q0 -13 -8.5 -20t-19.5 -7h-168q-29 0 -27 31q5 66 79 110l63 38q50 30 50 66q0 38 -44 38q-40 0 -55 -42z
M373 309l-232 -302q-7 -12 -23 -12t-22 14.5t3 26.5l228 293l247 324q7 9 19 9q15 0 23 -14t-1 -28zM379 61q-2 13 4 23.5t21 10.5q18 0 23 -19q8 -34 51 -34q28 0 44 20t16 54q0 44 -44 44q-18 0 -38 -10t-32 -10q-11 0 -17.5 7.5t-4.5 18.5l23 132q5 30 37 30h134
q10 0 16.5 -6.5t6.5 -16.5q0 -12 -7.5 -19t-18.5 -7h-121l-15 -90q25 17 56 17q35 0 59.5 -22.5t24.5 -59.5q0 -59 -33 -94t-90 -35q-81 0 -95 66z" />
    <glyph glyph-name="uni2157" unicode="&#x2157;" horiz-adv-x="646" 
d="M342 309l-232 -302q-8 -12 -23 -12q-16 0 -22 14.5t3 26.5l228 293l247 324q7 9 19 9q15 0 23 -14t-1 -28zM349 61q-2 13 4 23.5t21 10.5q18 0 23 -19q8 -34 51 -34q28 0 44 20t16 54q0 44 -44 44q-18 0 -38 -10t-32 -10q-11 0 -17.5 7.5t-4.5 18.5l23 132q5 30 37 30
h134q10 0 16.5 -6.5t6.5 -16.5q0 -12 -7.5 -19t-18.5 -7h-121l-15 -90q25 17 56 17q35 0 59.5 -22.5t24.5 -59.5q0 -59 -33 -94t-90 -35q-81 0 -95 66zM127 411q5 -36 47 -36q27 0 42.5 17t15.5 46q0 41 -52 41q-8 0 -14 6t-6 15q0 11 6.5 17t16.5 6q41 0 55 14.5t14 41.5
q0 36 -43 36q-39 0 -52 -39q-6 -19 -27 -19q-13 0 -20 10.5t-3 23.5q8 30 38 52t73 22q40 0 66.5 -21t26.5 -56q0 -61 -56 -87q35 -19 35 -61q0 -52 -32.5 -82.5t-88.5 -30.5q-45 0 -70.5 22.5t-25.5 57.5q0 12 7.5 20t19.5 8q24 0 27 -24z" />
    <glyph glyph-name="uni2158" unicode="&#x2158;" horiz-adv-x="669" 
d="M266 401l-10 -52q-5 -25 -28 -25q-14 0 -21.5 8.5t-5.5 22.5l8 46h-115q-30 0 -30 32q0 7 3 14t4.5 9.5t8.5 10.5t8 9l135 158q23 28 53 28q16 0 24.5 -9t6.5 -23l-33 -182h15q8 0 14.5 -6t6.5 -16q0 -12 -7.5 -18.5t-18.5 -6.5h-18zM122 448h96l25 142zM365 309
l-232 -302q-7 -12 -23 -12t-22 14.5t3 26.5l228 293l247 324q7 9 19 9q15 0 23 -14t-1 -28zM371 61q-2 13 4 23.5t21 10.5q18 0 23 -19q8 -34 51 -34q28 0 44 20t16 54q0 44 -44 44q-18 0 -38 -10t-32 -10q-11 0 -17.5 7.5t-4.5 18.5l23 132q5 30 37 30h134q10 0 16.5 -6.5
t6.5 -16.5q0 -12 -7.5 -19t-18.5 -7h-121l-15 -90q25 17 56 17q35 0 59.5 -22.5t24.5 -59.5q0 -59 -33 -94t-90 -35q-81 0 -95 66z" />
    <glyph glyph-name="uni2159" unicode="&#x2159;" horiz-adv-x="641" 
d="M577 265q6 -34 -25 -34q-16 0 -26 25q-11 29 -44 29q-48 0 -58 -53l-10 -54q29 20 62 20q37 0 60.5 -22.5t23.5 -58.5q0 -58 -32.5 -90t-88.5 -32q-42 0 -69 22.5t-27 61.5q0 8 2 24l22 124q19 106 121 106q36 0 60 -17.5t29 -50.5zM458 151q-30 0 -52 -22l-5 -28
q-1 -6 -1 -16q0 -43 46 -43q26 0 40 17.5t14 48.5q0 43 -42 43zM214 329h-131q-9 0 -16 6.5t-7 16.5q0 12 8 19t18 7h39l41 229h-32q-25 0 -25 25q0 11 8 18t19 7h64q14 0 21 -8t5 -22l-44 -249h35q10 0 17 -7t7 -17q0 -11 -8 -18t-19 -7zM343 309l-232 -302q-7 -12 -23 -12
t-22 14.5t3 26.5l228 293l247 324q7 9 19 9q15 0 23 -14t-1 -28z" />
    <glyph glyph-name="uni215A" unicode="&#x215a;" horiz-adv-x="644" 
d="M580 265q6 -34 -25 -34q-16 0 -26 25q-11 29 -44 29q-48 0 -58 -53l-10 -54q29 20 62 20q37 0 60.5 -22.5t23.5 -58.5q0 -58 -32.5 -90t-88.5 -32q-42 0 -69 22.5t-27 61.5q0 8 2 24l22 124q19 106 121 106q36 0 60 -17.5t29 -50.5zM461 151q-30 0 -52 -22l-5 -28
q-1 -6 -1 -16q0 -43 46 -43q26 0 40 17.5t14 48.5q0 43 -42 43zM346 309l-232 -302q-8 -12 -23 -12q-16 0 -22 14.5t3 26.5l228 293l247 324q7 9 19 9q15 0 23 -14t-1 -28zM74 390q-2 13 4 23.5t21 10.5q18 0 23 -19q8 -34 51 -34q28 0 44 20t16 54q0 44 -44 44
q-19 0 -38 -10t-32 -10q-11 0 -17.5 7.5t-4.5 18.5l23 132q5 30 37 30h134q10 0 16.5 -6.5t6.5 -16.5q0 -12 -7.5 -19t-18.5 -7h-121l-15 -90q25 17 56 17q35 0 59.5 -22.5t24.5 -59.5q0 -59 -33 -94t-90 -35q-81 0 -95 66z" />
    <glyph glyph-name="uni215B" unicode="&#x215b;" horiz-adv-x="636" 
d="M343 309l-232 -302q-7 -12 -23 -12t-22 14.5t3 26.5l228 293l247 324q7 9 19 9q15 0 23 -14t-1 -28zM214 329h-131q-9 0 -16 6.5t-7 16.5q0 12 8 19t18 7h39l41 229h-32q-25 0 -25 25q0 11 8 18t19 7h64q14 0 21 -8t5 -22l-44 -249h35q10 0 17 -7t7 -17q0 -11 -8 -18
t-19 -7zM574 257q0 -65 -56 -89q36 -19 36 -60q0 -51 -32.5 -82t-88.5 -31q-42 0 -70 22.5t-28 57.5q0 68 62 96q-31 17 -31 55q0 48 31 77.5t85 29.5q40 0 66 -21.5t26 -54.5zM393 82q0 -19 12.5 -30.5t34.5 -11.5q27 0 42 18t15 48q0 19 -11 30.5t-32 11.5
q-30 0 -45.5 -18.5t-15.5 -47.5zM422 227q0 -38 40 -38q27 0 41 17.5t14 42.5q0 17 -11 27t-30 10q-26 0 -40 -16t-14 -43z" />
    <glyph glyph-name="uni215C" unicode="&#x215c;" horiz-adv-x="637" 
d="M344 309l-232 -302q-8 -12 -23 -12q-16 0 -22 14.5t3 26.5l228 293l247 324q7 9 19 9q15 0 23 -14t-1 -28zM575 257q0 -65 -56 -89q36 -19 36 -60q0 -51 -32.5 -82t-88.5 -31q-42 0 -70 22.5t-28 57.5q0 68 62 96q-31 17 -31 55q0 48 31 77.5t85 29.5q40 0 66 -21.5
t26 -54.5zM394 82q0 -19 12.5 -30.5t34.5 -11.5q27 0 42 18t15 48q0 19 -11 30.5t-32 11.5q-30 0 -45.5 -18.5t-15.5 -47.5zM423 227q0 -38 40 -38q27 0 41 17.5t14 42.5q0 17 -11 27t-30 10q-26 0 -40 -16t-14 -43zM127 411q5 -36 47 -36q27 0 42.5 17t15.5 46q0 41 -52 41
q-8 0 -14 6t-6 15q0 11 6.5 17t16.5 6q41 0 55 14.5t14 41.5q0 36 -43 36q-39 0 -52 -39q-6 -19 -27 -19q-13 0 -20 10.5t-3 23.5q8 30 38 52t73 22q40 0 66.5 -21t26.5 -56q0 -61 -56 -87q35 -19 35 -61q0 -52 -32.5 -82.5t-88.5 -30.5q-45 0 -70.5 22.5t-25.5 57.5
q0 12 7.5 20t19.5 8q24 0 27 -24z" />
    <glyph glyph-name="uni215D" unicode="&#x215d;" horiz-adv-x="639" 
d="M346 309l-232 -302q-8 -12 -23 -12q-16 0 -22 14.5t3 26.5l228 293l247 324q7 9 19 9q15 0 23 -14t-1 -28zM74 390q-2 13 4 23.5t21 10.5q18 0 23 -19q8 -34 51 -34q28 0 44 20t16 54q0 44 -44 44q-19 0 -38 -10t-32 -10q-11 0 -17.5 7.5t-4.5 18.5l23 132q5 30 37 30
h134q10 0 16.5 -6.5t6.5 -16.5q0 -12 -7.5 -19t-18.5 -7h-121l-15 -90q25 17 56 17q35 0 59.5 -22.5t24.5 -59.5q0 -59 -33 -94t-90 -35q-81 0 -95 66zM577 257q0 -65 -56 -89q36 -19 36 -60q0 -51 -32.5 -82t-88.5 -31q-42 0 -70 22.5t-28 57.5q0 68 62 96q-31 17 -31 55
q0 48 31 77.5t85 29.5q40 0 66 -21.5t26 -54.5zM396 82q0 -19 12.5 -30.5t34.5 -11.5q27 0 42 18t15 48q0 19 -11 30.5t-32 11.5q-30 0 -45.5 -18.5t-15.5 -47.5zM425 227q0 -38 40 -38q27 0 41 17.5t14 42.5q0 17 -11 27t-30 10q-26 0 -40 -16t-14 -43z" />
    <glyph glyph-name="uni215E" unicode="&#x215e;" horiz-adv-x="615" 
d="M153 337q-8 -13 -23 -13q-16 0 -23 13.5t1 28.5l137 242h-116q-10 0 -16.5 6.5t-6.5 16.5q0 12 8 19t18 7h149q33 0 30 -31q-2 -11 -18 -38zM313 309l-232 -302q-8 -12 -23 -12q-16 0 -22 14.5t3 26.5l228 293l247 324q7 9 19 9q15 0 23 -14t-1 -28zM553 257
q0 -65 -56 -89q36 -19 36 -60q0 -51 -32.5 -82t-88.5 -31q-42 0 -70 22.5t-28 57.5q0 68 62 96q-31 17 -31 55q0 48 31 77.5t85 29.5q40 0 66 -21.5t26 -54.5zM372 82q0 -19 12.5 -30.5t34.5 -11.5q27 0 42 18t15 48q0 19 -11 30.5t-32 11.5q-30 0 -45.5 -18.5t-15.5 -47.5z
M401 227q0 -38 40 -38q27 0 41 17.5t14 42.5q0 17 -11 27t-30 10q-26 0 -40 -16t-14 -43z" />
    <glyph glyph-name="uni215F" unicode="&#x215f;" horiz-adv-x="351" 
d="M215 329h-131q-9 0 -16 6.5t-7 16.5q0 12 8 19t18 7h39l41 229h-32q-25 0 -25 25q0 11 8 18t19 7h64q14 0 21 -8t5 -22l-44 -249h35q10 0 17 -7t7 -17q0 -11 -8 -18t-19 -7zM344 309l-232 -302q-8 -12 -23 -12q-16 0 -22 14.5t3 26.5l228 293l247 324q7 9 19 9
q15 0 23 -14t-1 -28z" />
    <glyph glyph-name="partialdiff" unicode="&#x2202;" horiz-adv-x="487" 
d="M182 617q-12 -2 -22 5.5t-10 21.5q0 19 26 29q33 14 83 14q187 0 187 -224q0 -59 -13 -131l-27 -153q-15 -88 -68.5 -138.5t-135.5 -50.5q-77 0 -124.5 40.5t-47.5 110.5q0 12 4 38l17 91q17 90 66 140t128 50q42 0 78 -18t52 -48q2 20 2 64q0 169 -128 169
q-27 0 -67 -10zM123 276l-18 -102q-3 -15 -3 -27q0 -43 27.5 -69t78.5 -26q49 0 81.5 34t42.5 88l19 102q2 9 2 27q0 43 -27 69t-78 26q-49 0 -82.5 -34t-42.5 -88z" />
    <glyph glyph-name="Delta" unicode="&#x2206;" horiz-adv-x="555" 
d="M48 0q-17 0 -24 10.5t-2 26.5l172 588q4 16 18 26.5t31 10.5t30 -10.5t18 -27.5l173 -587q5 -17 -3 -27t-25 -10h-388zM241 538l-135 -470h269z" />
    <glyph glyph-name="product" unicode="&#x220f;" horiz-adv-x="586" 
d="M211 589l-99 -560q-5 -34 -38 -34q-18 0 -28.5 11.5t-6.5 29.5l104 585q3 16 15 26t28 10h346q17 0 25.5 -10t5.5 -26l-105 -593q-5 -33 -38 -33q-18 0 -28 11.5t-7 29.5l97 553h-271z" />
    <glyph glyph-name="summation" unicode="&#x2211;" horiz-adv-x="545" 
d="M504 590h-296l152 -226q10 -15 10 -26q0 -15 -16 -31l-251 -237h327q14 0 23.5 -9t9.5 -24q0 -17 -11 -27t-27 -10h-397q-29 0 -29 33q0 24 31 55l259 247l-161 231q-18 24 -15 53q2 15 13 26.5t26 11.5h356q14 0 23.5 -9t9.5 -23q0 -16 -11 -25.5t-26 -9.5z" />
    <glyph glyph-name="minus" unicode="&#x2212;" horiz-adv-x="533" 
d="M78 328q0 15 8.5 24.5t22.5 9.5h330q13 0 21.5 -10t8.5 -24t-8.5 -23t-21.5 -9h-330q-14 0 -22.5 9t-8.5 23z" />
    <glyph glyph-name="uni2215" unicode="&#x2215;" horiz-adv-x="486" 
d="M268 309l-232 -302q-8 -12 -23 -12q-16 0 -22 14.5t3 26.5l228 293l247 324q7 9 19 9q15 0 23 -14t-1 -28z" />
    <glyph glyph-name="uni2219" unicode="&#x2219;" horiz-adv-x="301" 
d="M57 274q0 38 26.5 65.5t63.5 27.5q39 0 66 -27.5t27 -65.5q0 -37 -27 -64t-66 -27q-37 0 -63.5 27t-26.5 64z" />
    <glyph glyph-name="radical" unicode="&#x221a;" horiz-adv-x="556" 
d="M573 647l-211 -710q-4 -15 -16.5 -24.5t-28.5 -9.5q-34 0 -44 34l-137 455h-57q-13 0 -21.5 8.5t-8.5 22.5t8.5 22.5t21.5 8.5h85q33 0 43 -32l114 -396l188 640q6 25 31 25q19 0 29 -12.5t4 -31.5z" />
    <glyph glyph-name="infinity" unicode="&#x221e;" horiz-adv-x="761" 
d="M557 412h1q62 0 102.5 -41t40.5 -105q0 -59 -42.5 -102.5t-104.5 -43.5q-43 0 -82 23.5t-95 76.5q-101 -99 -179 -99h-1q-61 0 -102 41t-41 105q0 59 43 102.5t104 43.5q43 0 80.5 -23.5t95.5 -77.5q102 100 180 100zM197 187h1q57 0 133 78q-40 41 -69 61.5t-61 20.5
q-34 0 -57.5 -23.5t-23.5 -56.5q0 -35 22 -57.5t55 -22.5zM558 346h-1q-53 0 -133 -78q40 -41 69.5 -61.5t60.5 -20.5q35 0 58 23.5t23 56.5q0 35 -21.5 57.5t-55.5 22.5z" />
    <glyph glyph-name="integral" unicode="&#x222b;" horiz-adv-x="297" 
d="M115 30v545q0 81 42 124t120 43h18q14 0 23 -9t9 -23t-9 -22.5t-23 -8.5h-18q-88 0 -88 -99v-545q0 -80 -42 -123.5t-121 -43.5h-17q-14 0 -23 9t-9 23t9 22.5t23 8.5h18q88 0 88 99z" />
    <glyph glyph-name="approxequal" unicode="&#x2248;" horiz-adv-x="536" 
d="M468 415q-45 -79 -105 -79q-40 0 -91 37q-44 30 -70 30q-43 0 -80 -64q-8 -11 -24 -11q-11 0 -19.5 8t-8.5 20q0 7 6 17q51 91 127 91q41 0 98 -38q44 -29 62 -29q27 0 57 48q10 13 23 13q12 0 20.5 -8.5t8.5 -20.5q0 -4 -4 -14zM468 226q-45 -79 -105 -79q-39 0 -91 36
q-45 31 -70 31q-43 0 -80 -64q-9 -12 -24 -12q-11 0 -19.5 8t-8.5 20q0 6 6 18q50 90 127 90q41 0 98 -38q44 -29 62 -29q27 0 57 48q10 13 23 13q12 0 20.5 -8t8.5 -20q0 -6 -4 -14z" />
    <glyph glyph-name="notequal" unicode="&#x2260;" horiz-adv-x="525" 
d="M399 532l-42 -82h75q14 0 22 -9t8 -23q0 -31 -30 -31h-106l-58 -115h164q30 0 30 -32q0 -31 -30 -31h-194l-53 -104q-6 -14 -24 -14q-14 0 -21.5 12t-1.5 25l41 81h-75q-14 0 -22 8.5t-8 22.5q0 32 30 32h106l58 115h-164q-30 0 -30 31q0 14 8 23t22 9h194l54 105
q6 14 24 14q13 0 21 -11.5t2 -25.5z" />
    <glyph glyph-name="lessequal" unicode="&#x2264;" horiz-adv-x="536" 
d="M436 456l-271 -86l270 -88q21 -6 21 -29q0 -17 -12.5 -26t-29.5 -4l-314 107q-28 10 -28 39t28 37l314 107q15 5 28.5 -3.5t13.5 -25.5q0 -22 -20 -28zM68 137q0 12 7 19.5t18 7.5h338q11 0 18 -7.5t7 -19.5q0 -11 -7 -19t-18 -8h-338q-11 0 -18 8t-7 19z" />
    <glyph glyph-name="greaterequal" unicode="&#x2265;" horiz-adv-x="549" 
d="M369 370l-271 86q-20 6 -20 28q0 17 13.5 25.5t28.5 3.5l314 -107q28 -8 28 -37t-28 -39l-314 -107q-17 -5 -29.5 4t-12.5 26q0 23 21 29zM466 137q0 -11 -7 -19t-18 -8h-338q-11 0 -18 8t-7 19q0 12 7 19.5t18 7.5h338q11 0 18 -7.5t7 -19.5z" />
    <glyph glyph-name="lozenge" unicode="&#x25ca;" horiz-adv-x="499" 
d="M302 647l160 -290q9 -20 9 -29q0 -10 -9 -28l-160 -290q-15 -28 -45 -28q-28 0 -44 28l-159 290q-10 13 -10 28q0 14 10 29l159 290q16 28 45 28t44 -28zM257 582l-138 -254l138 -254l137 254z" />
    <glyph glyph-name="cent.denominator" unicode="&#xf629;" horiz-adv-x="264" 
d="M196 102q-8 -26 -30 -43.5t-53 -20.5l-5 -31q-2 -17 -22 -17q-22 0 -19 20l5 30q-28 6 -45 26t-17 50q0 5 2 19l11 59q16 88 93 96l6 31q4 17 22 17q10 0 15.5 -6t3.5 -14l-5 -30q52 -11 58 -61q2 -14 -4.5 -24t-21.5 -10q-18 0 -26 26q-8 25 -38 25q-18 0 -30.5 -12.5
t-15.5 -33.5l-11 -67q-1 -5 -1 -12q0 -35 37 -35q31 0 42 32q8 22 25 22q14 0 21 -11.5t3 -24.5z" />
    <glyph glyph-name="dollar.denominator" unicode="&#xf62a;" horiz-adv-x="274" 
d="M49 77q8 -35 48 -35q27 0 42.5 15.5t15.5 38.5q0 25 -33 40l-43 20q-52 25 -52 76q0 40 25.5 67.5t70.5 32.5l6 37q2 18 21 18q24 0 20 -21l-6 -36q29 -5 47 -24.5t18 -48.5q0 -31 -26 -31q-19 0 -25 26q-8 34 -44 34q-22 0 -36 -12.5t-14 -32.5q0 -23 23 -34l41 -20
q65 -33 65 -82q0 -47 -29 -76t-79 -33l-6 -36q-4 -19 -23 -19q-22 0 -19 22l6 35q-33 6 -51 26.5t-18 48.5q0 32 28 32q20 0 27 -28z" />
    <glyph glyph-name="hyphen.denominator" unicode="&#xf62b;" horiz-adv-x="210" 
d="M13 128q0 11 8 18t19 7h80q9 0 15.5 -6t6.5 -16q0 -11 -8 -18t-18 -7h-80q-10 0 -16.5 6t-6.5 16z" />
    <glyph glyph-name="parenleft.denominator" unicode="&#xf62c;" horiz-adv-x="181" 
d="M73 -54q-32 2 -51 22t-19 54q0 7 2 23l41 236q18 93 102 100q10 1 16.5 -5.5t6.5 -17.5q0 -22 -24 -26q-37 -6 -42 -47l-44 -243q-1 -5 -1 -13q0 -26 24 -33q20 -7 20 -24q0 -14 -9.5 -21t-21.5 -5z" />
    <glyph glyph-name="parenright.denominator" unicode="&#xf62d;" horiz-adv-x="180" 
d="M65 380q33 -2 52 -22.5t19 -54.5q0 -8 -2 -22l-42 -237q-15 -92 -101 -100q-11 -1 -17.5 6t-6.5 18q0 22 24 26q34 4 43 47l43 243q1 5 1 12q0 27 -24 34q-19 5 -19 24q0 13 9.5 20.5t20.5 5.5z" />
    <glyph glyph-name="cent.numerator" unicode="&#xf62e;" horiz-adv-x="262" 
d="M253 432q-8 -26 -30 -43.5t-53 -20.5l-5 -31q-2 -17 -22 -17q-22 0 -19 20l5 30q-28 6 -45 26t-17 50q0 5 2 19l11 59q16 88 93 96l6 31q4 17 22 17q10 0 15.5 -6t3.5 -14l-5 -30q52 -11 58 -61q2 -14 -4.5 -24t-21.5 -10q-18 0 -26 26q-8 25 -38 25q-18 0 -30.5 -12.5
t-15.5 -33.5l-11 -67q-1 -5 -1 -12q0 -35 37 -35q31 0 42 32q8 22 25 22q14 0 21 -11.5t3 -24.5z" />
    <glyph glyph-name="dollar.numerator" unicode="&#xf62f;" horiz-adv-x="274" 
d="M107 407q8 -35 48 -35q27 0 42.5 15.5t15.5 38.5q0 25 -33 40l-43 20q-52 25 -52 76q0 40 25.5 67.5t70.5 32.5l6 37q2 18 21 18q24 0 20 -21l-6 -36q29 -5 47 -24.5t18 -48.5q0 -31 -26 -31q-19 0 -25 26q-8 34 -44 34q-22 0 -36 -12.5t-14 -32.5q0 -23 23 -34l41 -20
q65 -33 65 -82q0 -47 -29 -76t-79 -33l-6 -36q-4 -19 -23 -19q-22 0 -19 22l6 35q-33 6 -51 26.5t-18 48.5q0 32 28 32q20 0 27 -28z" />
    <glyph glyph-name="hyphen.numerator" unicode="&#xf630;" horiz-adv-x="214" 
d="M73 458q0 11 8 18t19 7h80q9 0 15.5 -6t6.5 -16q0 -11 -8 -18t-18 -7h-80q-10 0 -16.5 6t-6.5 16z" />
    <glyph glyph-name="parenleft.numerator" unicode="&#xf631;" horiz-adv-x="181" 
d="M130 276q-32 2 -51 22t-19 54q0 7 2 23l41 236q18 93 102 100q10 1 16.5 -5.5t6.5 -17.5q0 -22 -24 -26q-37 -6 -42 -47l-44 -243q-1 -5 -1 -13q0 -26 24 -33q20 -7 20 -24q0 -14 -9.5 -21t-21.5 -5z" />
    <glyph glyph-name="parenright.numerator" unicode="&#xf632;" horiz-adv-x="180" 
d="M123 710q33 -2 52 -22.5t19 -54.5q0 -8 -2 -22l-42 -237q-15 -92 -101 -100q-11 -1 -17.5 6t-6.5 18q0 22 24 26q34 4 43 47l43 243q1 5 1 12q0 27 -24 34q-19 5 -19 24q0 13 9.5 20.5t20.5 5.5z" />
    <glyph glyph-name="zero.denominator" unicode="&#xf655;" horiz-adv-x="304" 
d="M92 229l-23 -130q-2 -8 -2 -13q0 -41 48 -41q45 0 55 54l23 130q1 5 1 13q0 41 -46 41t-56 -54zM250 228l-24 -128q-9 -50 -39.5 -77.5t-79.5 -27.5q-42 0 -69.5 23t-27.5 61q0 7 2 21l23 128q19 105 120 105q42 0 69.5 -23t27.5 -61q0 -7 -2 -21z" />
    <glyph glyph-name="one.denominator" unicode="&#xf656;" horiz-adv-x="226" 
d="M138 0h-131q-9 0 -16 6.5t-7 16.5q0 12 8 19t18 7h39l41 229h-32q-25 0 -25 25q0 11 8 18t19 7h64q14 0 21 -8t5 -22l-44 -249h35q10 0 17 -7t7 -17q0 -11 -8 -18t-19 -7z" />
    <glyph glyph-name="two.denominator" unicode="&#xf657;" horiz-adv-x="289" 
d="M85 241q-7 -19 -27 -19q-15 0 -20.5 10.5t-1.5 24.5q10 33 40 54.5t73 21.5q40 0 67 -22t27 -57q0 -67 -78 -113l-65 -38q-33 -20 -40 -52h131q10 0 17 -7t7 -17q0 -13 -8.5 -20t-19.5 -7h-168q-29 0 -27 31q5 66 79 110l63 38q50 30 50 66q0 38 -44 38q-40 0 -55 -42z
" />
    <glyph glyph-name="three.denominator" unicode="&#xf658;" horiz-adv-x="289" 
d="M54 79q5 -36 47 -36q27 0 42.5 17t15.5 46q0 41 -52 41q-8 0 -14 6t-6 15q0 11 6.5 17t16.5 6q41 0 55 14.5t14 41.5q0 36 -43 36q-39 0 -52 -39q-6 -19 -27 -19q-13 0 -20 10.5t-3 23.5q8 30 38 52t73 22q40 0 66.5 -21t26.5 -56q0 -61 -56 -87q35 -19 35 -61
q0 -52 -32.5 -82.5t-88.5 -30.5q-45 0 -70.5 22.5t-25.5 57.5q0 12 7.5 20t19.5 8q24 0 27 -24z" />
    <glyph glyph-name="four.denominator" unicode="&#xf659;" horiz-adv-x="296" 
d="M193 72l-10 -52q-5 -25 -28 -25q-14 0 -21.5 8.5t-5.5 22.5l8 46h-115q-30 0 -30 32q0 7 3 14t4.5 9.5t8.5 10.5t8 9l135 158q23 28 53 28q16 0 24.5 -9t6.5 -23l-33 -182h15q8 0 14.5 -6t6.5 -16q0 -12 -7.5 -18.5t-18.5 -6.5h-18zM49 119h96l25 142z" />
    <glyph glyph-name="five.denominator" unicode="&#xf65a;" horiz-adv-x="287" 
d="M4 61q-2 13 4 23.5t21 10.5q18 0 23 -19q8 -34 51 -34q28 0 44 20t16 54q0 44 -44 44q-19 0 -38.5 -10t-31.5 -10q-11 0 -17.5 7.5t-4.5 18.5l23 132q5 30 37 30h134q10 0 16.5 -6.5t6.5 -16.5q0 -12 -7.5 -19t-18.5 -7h-121l-15 -90q25 17 56 17q35 0 59.5 -22.5
t24.5 -59.5q0 -59 -33 -94t-90 -35q-81 0 -95 66z" />
    <glyph glyph-name="six.denominator" unicode="&#xf65b;" horiz-adv-x="295" 
d="M244 265q6 -34 -25 -34q-16 0 -26 25q-11 29 -44 29q-48 0 -58 -53l-10 -54q29 20 62 20q37 0 60.5 -22.5t23.5 -58.5q0 -58 -32.5 -90t-88.5 -32q-42 0 -69 22.5t-27 61.5q0 8 2 24l22 124q19 106 121 106q36 0 60 -17.5t29 -50.5zM125 151q-30 0 -52 -22l-5 -28
q-1 -6 -1 -16q0 -43 46 -43q26 0 40 17.5t14 48.5q0 43 -42 43z" />
    <glyph glyph-name="seven.denominator" unicode="&#xf65c;" horiz-adv-x="245" 
d="M67 8q-8 -13 -23 -13q-16 0 -23 13.5t1 28.5l137 242h-116q-10 0 -16.5 6.5t-6.5 16.5q0 12 8 19t18 7h149q33 0 30 -31q-2 -11 -18 -38z" />
    <glyph glyph-name="eight.denominator" unicode="&#xf65d;" horiz-adv-x="294" 
d="M243 257q0 -65 -56 -89q36 -19 36 -60q0 -51 -32.5 -82t-88.5 -31q-42 0 -70 22.5t-28 57.5q0 68 62 96q-31 17 -31 55q0 48 31 77.5t85 29.5q40 0 66 -21.5t26 -54.5zM62 82q0 -19 12.5 -30.5t34.5 -11.5q27 0 42 18t15 48q0 19 -11 30.5t-32 11.5q-30 0 -45.5 -18.5
t-15.5 -47.5zM91 227q0 -38 40 -38q27 0 41 17.5t14 42.5q0 17 -11 27t-30 10q-26 0 -40 -16t-14 -43z" />
    <glyph glyph-name="nine.denominator" unicode="&#xf65e;" horiz-adv-x="295" 
d="M129 177q28 0 51 23l3 20q2 16 2 19q0 47 -46 47q-25 0 -39.5 -18t-14.5 -48q0 -43 44 -43zM58 76q7 -33 45 -33q48 0 58 53l10 55q-26 -21 -60 -21q-37 0 -61 22.5t-24 58.5q0 58 31 90t88 32q42 0 69.5 -23.5t27.5 -66.5q0 -15 -2 -24l-21 -118q-20 -106 -121 -106
q-41 0 -64 20t-26 50q-2 13 4.5 22.5t21.5 9.5q20 0 24 -21z" />
    <glyph glyph-name="comma.denominator" unicode="&#xf65f;" horiz-adv-x="138" 
d="M51 20l-43 -64q-5 -9 -15 -9t-15 7t-1 17l29 72q7 16 23 16t23 -13t-1 -26z" />
    <glyph glyph-name="period.denominator" unicode="&#xf660;" horiz-adv-x="132" 
d="M-12 21q0 16 11.5 27t28.5 11q13 0 20.5 -7.5t7.5 -19.5q0 -16 -11 -27t-28 -11q-13 0 -21 8t-8 19z" />
    <glyph glyph-name="zero.numerator" unicode="&#xf661;" horiz-adv-x="305" 
d="M150 559l-23 -130q-2 -8 -2 -13q0 -41 48 -41q45 0 55 54l23 130q1 5 1 13q0 41 -46 41t-56 -54zM308 558l-24 -128q-9 -50 -39.5 -77.5t-79.5 -27.5q-42 0 -69.5 23t-27.5 61q0 7 2 21l23 128q19 105 120 105q42 0 69.5 -23t27.5 -61q0 -7 -2 -21z" />
    <glyph glyph-name="one.numerator" unicode="&#xf662;" horiz-adv-x="226" 
d="M196 329h-131q-9 0 -16 6.5t-7 16.5q0 12 8 19t18 7h39l41 229h-32q-25 0 -25 25q0 11 8 18t19 7h64q14 0 21 -8t5 -22l-44 -249h35q10 0 17 -7t7 -17q0 -11 -8 -18t-19 -7z" />
    <glyph glyph-name="two.numerator" unicode="&#xf663;" horiz-adv-x="288" 
d="M143 571q-7 -19 -27 -19q-15 0 -20.5 10.5t-1.5 24.5q10 33 40 54.5t73 21.5q40 0 67 -22t27 -57q0 -66 -78 -113l-65 -38q-33 -20 -40 -52h131q10 0 17 -7t7 -17q0 -13 -8.5 -20t-19.5 -7h-168q-29 0 -27 31q5 66 79 110l63 38q50 30 50 66q0 38 -44 38q-40 0 -55 -42z
" />
    <glyph glyph-name="three.numerator" unicode="&#xf664;" horiz-adv-x="288" 
d="M112 409q5 -36 47 -36q27 0 42.5 17t15.5 46q0 41 -52 41q-8 0 -14 6t-6 15q0 11 6.5 17t16.5 6q41 0 55 14.5t14 41.5q0 36 -43 36q-39 0 -52 -39q-6 -19 -27 -19q-13 0 -20 10.5t-3 23.5q8 30 38 52t73 22q40 0 66.5 -21t26.5 -56q0 -61 -56 -87q35 -19 35 -61
q0 -52 -32.5 -82.5t-88.5 -30.5q-45 0 -70.5 22.5t-25.5 57.5q0 12 7.5 20t19.5 8q24 0 27 -24z" />
    <glyph glyph-name="four.numerator" unicode="&#xf665;" horiz-adv-x="296" 
d="M251 401l-10 -52q-5 -25 -28 -25q-14 0 -21.5 8.5t-5.5 22.5l8 46h-115q-30 0 -30 32q0 7 3 14t4.5 9.5t8.5 10.5t8 9l135 158q23 28 53 28q16 0 24.5 -9t6.5 -23l-33 -182h15q8 0 14.5 -6t6.5 -16q0 -12 -7.5 -18.5t-18.5 -6.5h-18zM107 448h96l25 142z" />
    <glyph glyph-name="five.numerator" unicode="&#xf666;" horiz-adv-x="285" 
d="M61 390q-2 13 4 23.5t21 10.5q18 0 23 -19q8 -34 51 -34q28 0 44 20t16 54q0 44 -44 44q-18 0 -38 -10t-32 -10q-11 0 -17.5 7.5t-4.5 18.5l23 132q5 30 37 30h134q10 0 16.5 -6.5t6.5 -16.5q0 -12 -7.5 -19t-18.5 -7h-121l-15 -90q25 17 56 17q35 0 59.5 -22.5
t24.5 -59.5q0 -59 -33 -94t-90 -35q-81 0 -95 66z" />
    <glyph glyph-name="six.numerator" unicode="&#xf667;" horiz-adv-x="296" 
d="M303 595q6 -34 -25 -34q-16 0 -26 25q-11 29 -44 29q-48 0 -58 -53l-10 -54q29 20 62 20q37 0 60.5 -22.5t23.5 -58.5q0 -58 -32.5 -90t-88.5 -32q-42 0 -69 22.5t-27 61.5q0 8 2 24l22 124q19 106 121 106q36 0 60 -17.5t29 -50.5zM184 481q-30 0 -52 -22l-5 -28
q-1 -6 -1 -16q0 -43 46 -43q26 0 40 17.5t14 48.5q0 43 -42 43z" />
    <glyph glyph-name="seven.numerator" unicode="&#xf668;" horiz-adv-x="244" 
d="M126 337q-8 -13 -23 -13q-16 0 -23 13.5t1 28.5l137 242h-116q-10 0 -16.5 6.5t-6.5 16.5q0 12 8 19t18 7h149q33 0 30 -31q-2 -11 -18 -38z" />
    <glyph glyph-name="eight.numerator" unicode="&#xf669;" horiz-adv-x="294" 
d="M301 587q0 -65 -56 -89q36 -19 36 -60q0 -51 -32.5 -82t-88.5 -31q-42 0 -70 22.5t-28 57.5q0 68 62 96q-31 17 -31 55q0 48 31 77.5t85 29.5q40 0 66 -21.5t26 -54.5zM120 412q0 -19 12.5 -30.5t34.5 -11.5q27 0 42 18t15 48q0 19 -11 30.5t-32 11.5q-30 0 -45.5 -18.5
t-15.5 -47.5zM149 557q0 -38 40 -38q27 0 41 17.5t14 42.5q0 17 -11 27t-30 10q-26 0 -40 -16t-14 -43z" />
    <glyph glyph-name="nine.numerator" unicode="&#xf66a;" horiz-adv-x="294" 
d="M187 507q28 0 51 23l3 20q2 16 2 19q0 47 -46 47q-25 0 -39.5 -18t-14.5 -48q0 -43 44 -43zM116 406q7 -33 45 -33q48 0 58 53l10 55q-26 -21 -60 -21q-37 0 -61 22.5t-24 58.5q0 58 31 90t88 32q42 0 69.5 -23.5t27.5 -66.5q0 -15 -2 -24l-21 -118q-20 -106 -121 -106
q-41 0 -64 20t-26 50q-2 13 4.5 22.5t21.5 9.5q20 0 24 -21z" />
    <glyph glyph-name="comma.numerator" unicode="&#xf66b;" horiz-adv-x="137" 
d="M108 350l-43 -64q-5 -9 -15 -9t-15 7t-1 17l29 72q7 16 23 16t23 -13t-1 -26z" />
    <glyph glyph-name="period.numerator" unicode="&#xf66c;" horiz-adv-x="133" 
d="M47 351q0 16 11.5 27t28.5 11q13 0 20.5 -7.5t7.5 -19.5q0 -16 -11 -27t-28 -11q-13 0 -21 8t-8 19z" />
    <glyph glyph-name="commaaccent" unicode="&#xf6c3;" horiz-adv-x="180" 
d="M117 -95l-66 -110q-9 -16 -25 -16q-11 0 -18.5 7.5t-7.5 17.5q0 8 3 16l45 115q11 26 35 26q16 0 27 -11t11 -27q0 -10 -4 -18z" />
    <glyph glyph-name="uniF8FF" unicode="&#xf8ff;" horiz-adv-x="1420" 
d="M340 488h38q11 0 11 -11v-6q28 21 58 21q34 0 51 -26q29 26 64 26q26 0 41.5 -15t15.5 -39v-132q0 -11 -12 -11h-38q-13 0 -13 11v116q0 9 -2.5 12.5t-11.5 3.5q-18 0 -38 -15v-117q0 -11 -11 -11h-38q-12 0 -12 11v116q0 9 -3 12.5t-12 3.5q-20 0 -37 -15v-117
q0 -11 -10 -11h-41q-11 0 -11 11v171q0 11 11 11zM1007 488h36q12 0 12 -11l1 -7q27 22 60 22q57 0 57 -60v-80q0 -62 -57 -62q-32 0 -58 21v-83q0 -11 -11 -11h-40q-11 0 -11 11v249q0 11 11 11zM296 431v-43q0 -11 -12 -11h-93v-23q0 -18 23 -18q25 0 25 18v1q0 11 11 11
h32q12 0 12 -11v-3q0 -62 -80 -62q-85 0 -85 62v79q0 61 85 61q82 0 82 -61zM1370 431v-43q0 -11 -11 -11h-94v-23q0 -18 23 -18q24 0 24 18v1q0 11 12 11h32q11 0 11 -11v-3q0 -62 -79 -62q-84 0 -84 62v79q0 61 84 61q82 0 82 -61zM850 477l22 -70q7 -27 7 -37q2 2 10 35
l24 72q3 11 12 11h37q14 0 11 -11l-84 -249q-4 -11 -14 -11h-28q-14 0 -11 11l16 59l-65 190q-4 11 11 11h40q9 0 12 -11zM731 487h31q11 0 11 -10v-27q0 -11 -11 -11h-31v-77q0 -18 24 -18h10q12 0 12 -11v-27q0 -11 -12 -11h-19q-43 0 -60.5 14t-17.5 46v84h-17
q-11 0 -11 11v25q0 8 11 11l16 1h1v36q0 12 12 12h39q12 0 12 -12v-36zM472 147v-49q0 -4 -4 -4h-114v-48q0 -33 50 -33q48 0 48 33v8q0 4 6 4h9q5 0 5 -4v-9q0 -48 -69 -48t-69 48v102q0 48 70 48q68 0 68 -48zM154 188v-17q33 24 67 24q27 0 40.5 -12.5t13.5 -33.5v-144
q0 -5 -4 -5h-11q-4 0 -4 5v140q0 31 -39 31t-62 -23v-148q0 -5 -4 -5h-11q-5 0 -5 5v183q0 4 5 4h9q5 0 5 -4zM556 191h47q4 0 4 -4v-8q0 -5 -4 -5h-47v-124q0 -33 50 -33h6q5 0 5 -5v-7q0 -5 -5 -5h-9q-37 0 -51.5 12t-14.5 36v126h-25q-4 0 -4 5v7q0 4 4 5h25v41q0 5 4 5
h11q4 0 4 -5v-41zM354 146v-36h98v36q0 32 -48 32q-50 0 -50 -32zM1112 361v62q0 15 -17 15q-13 0 -37 -15v-63q26 -16 37 -16q17 0 17 17zM191 428v-11h48v11q0 18 -25 18q-23 0 -23 -18zM1265 428v-11h47v11q0 18 -24 18q-23 0 -23 -18zM70 35v-30q0 -5 -5 -5h-11
q-4 0 -4 5v30q0 5 4 5h11q5 0 5 -5z" />
    <glyph glyph-name="f_f" unicode="&#xfb00;" horiz-adv-x="603" 
d="M409 425h-206l-70 -398q-5 -32 -36 -32q-18 0 -28 11t-7 28l69 391h-49q-12 0 -21 8t-9 21q0 14 10 23t23 9h57l4 25q26 166 189 166h15q14 0 22.5 -8.5t8.5 -22.5t-9.5 -22.5t-23.5 -8.5h-18q-51 0 -75.5 -25.5t-34.5 -73.5l-6 -30h205l5 25q16 83 61 124.5t128 41.5h15
q13 0 21.5 -9t8.5 -22q0 -14 -9.5 -22.5t-23.5 -8.5h-18q-93 0 -110 -99l-5 -30h97q12 0 20.5 -8t8.5 -21q0 -15 -9.5 -23.5t-23.5 -8.5h-105l-69 -398q-5 -32 -37 -32q-18 0 -28 11t-7 28z" />
    <glyph glyph-name="f_f_i" unicode="&#xfb03;" horiz-adv-x="797" 
d="M420 486l4 25q26 166 192 166h149q13 0 21.5 -8.5t8.5 -21.5q0 -15 -9.5 -23.5t-23.5 -8.5h-154q-94 0 -111 -99l-5 -30h234q17 0 25.5 -10.5t5.5 -26.5l-75 -423q-5 -31 -36 -31q-18 0 -28 11t-7 28l70 391h-200l-70 -398q-5 -32 -37 -32q-17 0 -27 11t-7 28l69 391
h-206l-70 -398q-5 -32 -36 -32q-18 0 -28 11t-7 28l69 391h-49q-12 0 -21 8t-9 21q0 14 10 23t23 9h57l4 25q26 166 189 166h15q14 0 22.5 -8.5t8.5 -22.5t-9.5 -22.5t-23.5 -8.5h-18q-90 0 -110 -99l-6 -30h206z" />
    <glyph glyph-name="f_f_l" unicode="&#xfb04;" horiz-adv-x="802" 
d="M409 425h-206l-70 -398q-5 -32 -36 -32q-18 0 -28 11t-7 28l69 391h-49q-12 0 -21 8t-9 21q0 14 10 23t23 9h57l4 25q26 166 189 166h15q14 0 22.5 -8.5t8.5 -22.5t-9.5 -22.5t-23.5 -8.5h-18q-50 0 -75 -25.5t-35 -73.5l-6 -30h206l4 25q26 166 192 166h143
q17 0 25.5 -10t5.5 -26l-108 -614q-5 -32 -37 -32q-17 0 -27 11t-7 28l103 581h-106q-94 0 -111 -99l-5 -30h90q12 0 20.5 -8t8.5 -21q0 -15 -9.5 -23.5t-23.5 -8.5h-97l-70 -398q-5 -32 -37 -32q-17 0 -27 11t-7 28z" />
    <glyph glyph-name="longs_t" unicode="&#xfb05;" horiz-adv-x="522" 
d="M26 34l84 477q15 82 60.5 124t130.5 42h13q13 0 22.5 -9t9.5 -22q0 -14 -10 -22.5t-23 -8.5h-19q-93 0 -110 -99l-86 -489q-5 -32 -37 -32q-18 0 -28 11t-7 28zM502 425h-75l-70 -398q-5 -32 -37 -32q-17 0 -27 11t-7 28l69 391h-67q-12 0 -20.5 8t-8.5 21q0 14 10 23
t23 9h74l18 106q5 32 37 32q17 0 27 -11t7 -28l-17 -99h68q12 0 20.5 -8t8.5 -21q0 -15 -9.5 -23.5t-23.5 -8.5z" />
    <glyph glyph-name="grave.case" horiz-adv-x="203" 
d="M220 832l76 -91q10 -12 4.5 -27t-22.5 -15q-12 0 -18 7l-88 79q-15 13 -7.5 35t30.5 22q16 0 25 -10z" />
    <glyph glyph-name="acute.case" horiz-adv-x="203" 
d="M287 770l-98 -67q-5 -4 -15 -4q-18 0 -23 16.5t8 28.5l84 77q10 9 23 9q23 1 32 -22t-11 -38z" />
    <glyph glyph-name="circumflex.case" horiz-adv-x="286" 
d="M281 780l-101 -79q-5 -4 -12 -4q-13 0 -17.5 12t5.5 20l105 105q15 15 31 15q18 0 28 -18l68 -103q7 -10 0.5 -21t-19.5 -11q-8 0 -15 7z" />
    <glyph glyph-name="tilde.case" horiz-adv-x="341" 
d="M188 705q-6 -14 -21 -14q-10 0 -16 7.5t-4 16.5q3 37 30 63t68 26q26 0 55 -17l37 -23q28 -17 42 -17q28 0 40 47q5 13 18 13q10 0 16 -7t5 -17q-4 -37 -25.5 -62t-58.5 -25q-29 0 -62 21l-37 22q-23 14 -37 14q-34 0 -50 -48z" />
    <glyph glyph-name="dieresis.case" horiz-adv-x="240" 
d="M153 756q0 21 15 35t38 14q16 0 26 -10.5t10 -25.5q0 -21 -14.5 -36.5t-35.5 -15.5q-16 0 -27.5 11.5t-11.5 27.5zM267 756q0 20 15 34.5t37 14.5q16 0 26.5 -10.5t10.5 -26.5q0 -20 -15 -35.5t-35 -15.5q-17 0 -28 11.5t-11 27.5z" />
    <glyph glyph-name="ring.case" horiz-adv-x="235" 
d="M252 723q24 0 39 16.5t15 41.5q0 23 -13.5 38t-35.5 15q-24 0 -39 -16.5t-15 -40.5q0 -23 13.5 -38.5t35.5 -15.5zM249 683q-41 0 -67 26.5t-26 64.5q0 41 30 70.5t73 29.5q41 0 67.5 -26.5t26.5 -64.5q0 -41 -30 -70.5t-74 -29.5z" />
    <glyph glyph-name="macron.case" horiz-adv-x="275" 
d="M148 758q0 13 9 21t20 8h192q10 0 17.5 -7t7.5 -19t-9 -20t-20 -8h-191q-11 0 -18.5 7.5t-7.5 17.5z" />
    <glyph glyph-name="breve.case" horiz-adv-x="242" 
d="M361 792q-6 -43 -35 -70.5t-77 -27.5q-47 0 -72 27.5t-18 72.5q4 22 25 22q11 0 17.5 -6.5t5.5 -17.5q-5 -24 7.5 -39.5t40.5 -15.5q44 0 59 59q5 20 24 20q11 0 17.5 -7t5.5 -17z" />
    <glyph glyph-name="dotaccent.case" horiz-adv-x="136" 
d="M152 754q0 23 16 40t40 17q19 0 31.5 -12t12.5 -30q0 -24 -15.5 -40.5t-40.5 -16.5q-20 0 -32 11.5t-12 30.5z" />
    <glyph glyph-name="caron.case" horiz-adv-x="286" 
d="M275 754l100 77q7 5 13 5q13 0 17 -11.5t-5 -19.5l-105 -106q-14 -14 -32 -14q-14 0 -26 17l-69 104q-6 10 -0.5 21t18.5 11q8 0 15 -7z" />
    <glyph glyph-name="caron.salt" horiz-adv-x="151" 
d="M172 545q-7 -12 -22 -12q-10 0 -17 6.5t-7 16.5q0 6 1 9l34 96q7 21 30 21q16 0 26 -9t10 -23q0 -7 -5 -17z" />
    <glyph glyph-name="hungarumlaut.case" horiz-adv-x="310" 
d="M178 701q-8 -6 -18.5 -1.5t-10.5 16.5q0 8 7 13l107 96q11 11 27.5 5.5t16.5 -24.5q0 -14 -9 -20zM413 786l-115 -89q-9 -7 -19 -2t-10 16q0 8 6 13l103 101q13 12 29.5 6.5t16.5 -24.5q0 -12 -11 -21z" />
    <glyph glyph-name="commaaccent.salt" horiz-adv-x="189" 
d="M112 -85l-70 -118q-6 -13 -22 -13q-14 0 -20 11.5t-2 23.5l53 128q8 21 31 21q19 0 30 -17.5t0 -35.5z" />
    <glyph glyph-name="zero.tab" horiz-adv-x="536" 
d="M170 465l-48 -273q-3 -17 -3 -31q0 -47 29.5 -75t84.5 -28q59 0 98 37t49 97l48 273q3 17 3 31q0 47 -30 75t-85 28q-57 0 -96 -37t-50 -97zM503 463l-47 -269q-17 -96 -77.5 -150t-153.5 -54q-79 0 -130 44.5t-51 118.5q0 22 4 41l47 269q17 96 76 150t155 54
q78 0 129 -44.5t51 -119.5q0 -19 -3 -40z" />
    <glyph glyph-name="one.tab" horiz-adv-x="536" 
d="M386 0h-308q-13 0 -22.5 9t-9.5 23q0 16 11 25.5t26 9.5h119l93 522h-114q-14 0 -23 9t-9 23q0 16 11 26t26 10h156q18 0 27 -11t6 -28l-97 -551h112q14 0 23 -9t9 -23q0 -16 -10.5 -25.5t-25.5 -9.5z" />
    <glyph glyph-name="two.tab" horiz-adv-x="536" 
d="M109 70h296q15 0 24 -9t9 -23q0 -17 -11.5 -27.5t-29.5 -10.5h-346q-16 0 -24 11t-6 29l1 7q20 140 181 239l116 71q110 67 110 151q0 41 -28.5 66t-83.5 25q-57 0 -94.5 -30t-46.5 -80q-6 -29 -36 -29q-20 0 -27.5 14.5t-3.5 32.5q17 74 74 117t144 43q77 0 128.5 -40.5
t51.5 -109.5q0 -65 -37 -116.5t-110 -96.5l-138 -85q-53 -33 -77.5 -69.5t-35.5 -79.5z" />
    <glyph glyph-name="three.tab" horiz-adv-x="536" 
d="M109 156q-6 -49 28.5 -74t88.5 -25q71 0 110 40.5t39 108.5q0 46 -25.5 76t-81.5 30h-31q-12 0 -20.5 8t-8.5 21q0 32 33 32h31q77 0 111.5 38.5t34.5 95.5q0 42 -28 67t-81 25q-54 0 -90.5 -30t-47.5 -81q-5 -26 -34 -26q-19 0 -28 13.5t-5 30.5q16 73 73.5 117
t143.5 44q75 0 125 -41.5t50 -106.5q0 -129 -119 -176q36 -17 56 -53t20 -79q0 -102 -62 -161.5t-170 -59.5q-83 0 -138.5 44.5t-44.5 120.5q6 34 38 34q14 0 24 -9t9 -24z" />
    <glyph glyph-name="four.tab" horiz-adv-x="536" 
d="M54 155q-39 0 -39 39q0 6 1.5 11.5t3 9.5t6.5 10.5t6.5 9t8 10t7.5 8.5l317 373q1 1 5 5.5t5 6t5 5.5t6.5 5.5t6.5 4.5t7.5 4t8.5 3t10.5 2.5t11.5 0.5q25 0 39 -16t11 -34l-69 -392h41q14 0 22.5 -8t8.5 -22q0 -16 -11 -26t-28 -10h-45l-22 -126q-7 -34 -38 -34
q-19 0 -29.5 11.5t-6.5 29.5l21 119h-271zM102 221h235l61 348z" />
    <glyph glyph-name="five.tab" horiz-adv-x="536" 
d="M213 590l-39 -222q56 34 116 34q75 0 124 -45t49 -118q0 -115 -64.5 -182t-174.5 -67q-81 0 -133.5 39.5t-49.5 108.5q2 42 38 42q32 0 32 -34q0 -44 32.5 -67t87.5 -23q72 0 112.5 48t40.5 125q0 48 -28.5 78t-87.5 30q-50 0 -94 -26q-33 -20 -47 -20q-16 0 -25 10.5
t-6 27.5l52 292q3 16 15 26t28 10h287q14 0 22.5 -8.5t8.5 -22.5q0 -16 -11 -26t-28 -10h-257z" />
    <glyph glyph-name="six.tab" horiz-adv-x="536" 
d="M334 667q78 0 126.5 -41t47.5 -116q-2 -43 -35 -43q-15 0 -25.5 10t-10.5 25q-1 46 -28.5 72.5t-82.5 26.5q-60 0 -98.5 -34.5t-48.5 -91.5l-25 -138q53 53 136 53q78 0 127 -44.5t49 -116.5q0 -110 -62 -174.5t-168 -64.5q-80 0 -131.5 45t-51.5 127q0 23 4 47l45 259
q16 93 76 146t156 53zM278 325q-79 0 -136 -62l-11 -56q-3 -14 -3 -39q0 -53 30.5 -83t88.5 -30q65 0 102.5 45.5t37.5 116.5q0 46 -27 77t-82 31z" />
    <glyph glyph-name="seven.tab" horiz-adv-x="536" 
d="M185 13q-10 -18 -31 -18t-31 17.5t2 38.5l321 539h-300q-15 0 -23.5 9t-8.5 23q0 16 10.5 25.5t29.5 9.5h346q17 0 27 -8.5t10 -21.5q0 -19 -22 -55z" />
    <glyph glyph-name="eight.tab" horiz-adv-x="536" 
d="M502 519q0 -63 -33 -110.5t-87 -70.5q36 -17 56.5 -50t20.5 -77q0 -98 -62 -159.5t-166 -61.5q-82 0 -136.5 43.5t-54.5 114.5q0 72 36 122.5t97 74.5q-67 32 -67 115q0 92 58.5 149.5t157.5 57.5q76 0 128 -41t52 -107zM118 158q0 -48 32 -76.5t89 -28.5q65 0 104 44
t39 110q0 45 -27.5 74t-82.5 29q-76 0 -115 -44t-39 -108zM180 462q0 -42 25.5 -67.5t77.5 -25.5q72 0 107.5 39.5t35.5 98.5q0 43 -28 69t-80 26q-63 0 -100.5 -39t-37.5 -101z" />
    <glyph glyph-name="nine.tab" horiz-adv-x="536" 
d="M271 332q80 0 138 62l9 52q3 18 3 38q0 52 -30 85t-87 33q-65 0 -102.5 -45.5t-37.5 -116.5q0 -46 26 -77t81 -31zM113 154q-1 -49 31.5 -73.5t86.5 -24.5q56 0 93 35t47 91l24 137q-63 -52 -140 -52q-76 0 -123.5 45t-47.5 116q0 108 62.5 173.5t166.5 65.5
q84 0 134 -46t50 -129q0 -26 -4 -49l-45 -254q-16 -94 -72.5 -146.5t-150.5 -52.5q-80 0 -131.5 40t-50.5 114q0 43 37 43q13 0 23 -8.5t10 -24.5z" />
    <glyph glyph-name="a.alt" horiz-adv-x="477" 
d="M420 332l-55 -307q-5 -30 -31 -30q-28 0 -29 26l-1 34q-54 -65 -147 -65q-61 0 -100 31t-39 86q0 159 196 159h121l13 72q1 7 1 20q0 36 -25 57.5t-72 21.5t-77 -23.5t-42 -60.5q-8 -23 -32 -23q-17 0 -26 13.5t-4 29.5q19 58 68 92t123 34q70 0 115.5 -37t45.5 -98
q0 -17 -3 -32zM180 51q50 0 88 29.5t45 65.5l13 64h-118q-115 0 -115 -91q0 -30 22 -49t65 -19z" />
    <glyph glyph-name="agrave.alt" horiz-adv-x="477" 
d="M420 332l-55 -307q-5 -30 -31 -30q-28 0 -29 26l-1 34q-54 -65 -147 -65q-61 0 -100 31t-39 86q0 159 196 159h121l13 72q1 7 1 20q0 36 -25 57.5t-72 21.5t-77 -23.5t-42 -60.5q-8 -23 -32 -23q-17 0 -26 13.5t-4 29.5q19 58 68 92t123 34q70 0 115.5 -37t45.5 -98
q0 -17 -3 -32zM180 51q50 0 88 29.5t45 65.5l13 64h-118q-115 0 -115 -91q0 -30 22 -49t65 -19zM231 685l76 -91q10 -12 4.5 -27.5t-22.5 -15.5q-10 0 -18 8l-88 79q-15 14 -7 35.5t30 21.5q16 0 25 -10z" />
    <glyph glyph-name="aacute.alt" horiz-adv-x="477" 
d="M388 623l-97 -66q-8 -5 -15 -5q-18 0 -23.5 17t7.5 28l85 78q9 9 22 9q24 0 32.5 -22.5t-11.5 -38.5zM420 332l-55 -307q-5 -30 -31 -30q-28 0 -29 26l-1 34q-54 -65 -147 -65q-61 0 -100 31t-39 86q0 159 196 159h121l13 72q1 7 1 20q0 36 -25 57.5t-72 21.5t-77 -23.5
t-42 -60.5q-8 -23 -32 -23q-17 0 -26 13.5t-4 29.5q19 58 68 92t123 34q70 0 115.5 -37t45.5 -98q0 -17 -3 -32zM180 51q50 0 88 29.5t45 65.5l13 64h-118q-115 0 -115 -91q0 -30 22 -49t65 -19z" />
    <glyph glyph-name="acircumflex.alt" horiz-adv-x="477" 
d="M296 633l-100 -79q-8 -4 -12 -4q-13 0 -17.5 12t4.5 20l106 105q15 15 31 15t28 -17l68 -104q6 -10 -0.5 -20.5t-19.5 -10.5q-9 0 -15 6zM420 332l-55 -307q-5 -30 -31 -30q-28 0 -29 26l-1 34q-54 -65 -147 -65q-61 0 -100 31t-39 86q0 159 196 159h121l13 72q1 7 1 20
q0 36 -25 57.5t-72 21.5t-77 -23.5t-42 -60.5q-8 -23 -32 -23q-17 0 -26 13.5t-4 29.5q19 58 68 92t123 34q70 0 115.5 -37t45.5 -98q0 -17 -3 -32zM180 51q50 0 88 29.5t45 65.5l13 64h-118q-115 0 -115 -91q0 -30 22 -49t65 -19z" />
    <glyph glyph-name="atilde.alt" horiz-adv-x="477" 
d="M420 332l-55 -307q-5 -30 -31 -30q-28 0 -29 26l-1 34q-54 -65 -147 -65q-61 0 -100 31t-39 86q0 159 196 159h121l13 72q1 7 1 20q0 36 -25 57.5t-72 21.5t-77 -23.5t-42 -60.5q-8 -23 -32 -23q-17 0 -26 13.5t-4 29.5q19 58 68 92t123 34q70 0 115.5 -37t45.5 -98
q0 -17 -3 -32zM180 51q50 0 88 29.5t45 65.5l13 64h-118q-115 0 -115 -91q0 -30 22 -49t65 -19zM175 565q-6 -14 -20 -14q-11 0 -16.5 8t-3.5 16q2 37 29.5 63t67.5 26q25 0 55 -16l37 -23q28 -18 42 -18q28 0 40 48q4 12 18 12q10 0 16 -6.5t5 -16.5q-4 -37 -25.5 -62
t-58.5 -25q-26 0 -61 20l-37 22q-22 14 -37 14q-36 0 -51 -48z" />
    <glyph glyph-name="adieresis.alt" horiz-adv-x="477" 
d="M188 600q0 21 14 35.5t35 14.5q17 0 28 -10.5t11 -26.5q0 -22 -13 -36.5t-36 -14.5q-16 0 -27.5 11.5t-11.5 26.5zM302 600q0 21 14 35.5t34 14.5q18 0 29 -10.5t11 -26.5q0 -22 -13.5 -36.5t-37.5 -14.5q-15 0 -26 11.5t-11 26.5zM420 332l-55 -307q-5 -30 -31 -30
q-28 0 -29 26l-1 34q-54 -65 -147 -65q-61 0 -100 31t-39 86q0 159 196 159h121l13 72q1 7 1 20q0 36 -25 57.5t-72 21.5t-77 -23.5t-42 -60.5q-8 -23 -32 -23q-17 0 -26 13.5t-4 29.5q19 58 68 92t123 34q70 0 115.5 -37t45.5 -98q0 -17 -3 -32zM180 51q50 0 88 29.5
t45 65.5l13 64h-118q-115 0 -115 -91q0 -30 22 -49t65 -19z" />
    <glyph glyph-name="aring.alt" horiz-adv-x="477" 
d="M290 569q24 0 39 16.5t15 41.5q0 22 -14 37t-35 15q-24 0 -39 -16.5t-15 -40.5q0 -23 13.5 -38t35.5 -15zM287 528q-41 0 -67 27t-26 65q0 41 30 70.5t74 29.5q40 0 66.5 -26.5t26.5 -64.5q0 -42 -30 -71.5t-74 -29.5zM420 332l-55 -307q-5 -30 -31 -30q-28 0 -29 26
l-1 34q-54 -65 -147 -65q-61 0 -100 31t-39 86q0 159 196 159h121l13 72q1 7 1 20q0 36 -25 57.5t-72 21.5t-77 -23.5t-42 -60.5q-8 -23 -32 -23q-17 0 -26 13.5t-4 29.5q19 58 68 92t123 34q70 0 115.5 -37t45.5 -98q0 -17 -3 -32zM180 51q50 0 88 29.5t45 65.5l13 64h-118
q-115 0 -115 -91q0 -30 22 -49t65 -19z" />
    <glyph glyph-name="amacron.alt" horiz-adv-x="477" 
d="M420 332l-55 -307q-5 -30 -31 -30q-28 0 -29 26l-1 34q-54 -65 -147 -65q-61 0 -100 31t-39 86q0 159 196 159h121l13 72q1 7 1 20q0 36 -25 57.5t-72 21.5t-77 -23.5t-42 -60.5q-8 -23 -32 -23q-17 0 -26 13.5t-4 29.5q19 58 68 92t123 34q70 0 115.5 -37t45.5 -98
q0 -17 -3 -32zM180 51q50 0 88 29.5t45 65.5l13 64h-118q-115 0 -115 -91q0 -30 22 -49t65 -19zM164 598q0 13 9 21t20 8h191q11 0 18.5 -7t7.5 -19t-9 -20t-20 -8h-191q-11 0 -18.5 7.5t-7.5 17.5z" />
    <glyph glyph-name="abreve.alt" horiz-adv-x="477" 
d="M420 332l-55 -307q-5 -30 -31 -30q-28 0 -29 26l-1 34q-54 -65 -147 -65q-61 0 -100 31t-39 86q0 159 196 159h121l13 72q1 7 1 20q0 36 -25 57.5t-72 21.5t-77 -23.5t-42 -60.5q-8 -23 -32 -23q-17 0 -26 13.5t-4 29.5q19 58 68 92t123 34q70 0 115.5 -37t45.5 -98
q0 -17 -3 -32zM180 51q50 0 88 29.5t45 65.5l13 64h-118q-115 0 -115 -91q0 -30 22 -49t65 -19zM395 646q-6 -43 -34.5 -70.5t-76.5 -27.5q-47 0 -72 28t-18 72q2 22 25 22q10 0 16.5 -6.5t5.5 -17.5q-5 -24 8 -39.5t41 -15.5q7 0 13.5 1.5t11.5 4.5t9 5.5t7.5 8t5.5 8.5
t4.5 9t3 8t2.5 8l2 6q3 20 24 20q11 0 17 -7t5 -17z" />
    <glyph glyph-name="aogonek.alt" horiz-adv-x="477" 
d="M307 -188q-116 -4 -116 62q0 41 35.5 78.5t82.5 55.5q-4 4 -4 13l-1 34q-54 -65 -147 -65q-61 0 -100 31t-39 86q0 159 196 159h121l13 72q1 7 1 20q0 36 -25 57.5t-72 21.5t-77.5 -23t-41.5 -61q-10 -23 -32 -23q-17 0 -26.5 13.5t-3.5 29.5q19 58 68 92t123 34
q70 0 115.5 -37t45.5 -98q0 -14 -3 -32l-55 -307q-5 -26 -25 -29q-97 -55 -97 -106q0 -19 16.5 -25t50.5 -6q22 0 22 -21q0 -24 -25 -26zM180 51q49 0 88 29t47 72l11 58h-118q-115 0 -115 -91q0 -30 22 -49t65 -19z" />
    <glyph glyph-name="t.alt" horiz-adv-x="326" 
d="M230 -1q-73 0 -112 32t-39 92q0 12 4 34l47 268h-49q-12 0 -20.5 8t-8.5 21q0 14 9.5 23t22.5 9h57l18 106q5 32 37 32q18 0 28 -11t7 -28l-17 -99h97q12 0 20.5 -8t8.5 -21q0 -15 -9.5 -23.5t-23.5 -8.5h-105l-48 -273q-2 -14 -2 -20q0 -36 20.5 -52.5t65.5 -18.5
q27 -2 27 -30q0 -15 -10.5 -23.5t-24.5 -8.5z" />
    <glyph glyph-name="uni0163.alt" horiz-adv-x="326" 
d="M97 -63l39 82q-57 30 -57 104q0 12 4 34l47 268h-49q-12 0 -20.5 8t-8.5 21q0 14 9.5 23t22.5 9h57l18 106q5 32 37 32q18 0 28 -11t7 -28l-17 -99h97q12 0 20.5 -8t8.5 -21q0 -15 -9.5 -23.5t-23.5 -8.5h-105l-48 -273q-2 -14 -2 -20q0 -36 20.5 -52.5t65.5 -18.5
q27 -2 27 -30q0 -15 -10.5 -23.5t-24.5 -8.5q-33 0 -53 5l-23 -49h12q33 0 51.5 -16t18.5 -43q0 -39 -25 -61t-70 -22h-77q-21 0 -21 20q0 11 7.5 17.5t18.5 6.5h80q34 0 34 32q0 22 -26 22h-41q-4 0 -8 2q-19 5 -11 24z" />
    <glyph glyph-name="tcaron.alt" horiz-adv-x="326" 
d="M230 -1q-73 0 -112 32t-39 92q0 12 4 34l47 268h-49q-12 0 -20.5 8t-8.5 21q0 14 9.5 23t22.5 9h57l18 106q5 32 37 32q18 0 28 -11t7 -28l-17 -99h97q12 0 20.5 -8t8.5 -21q0 -15 -9.5 -23.5t-23.5 -8.5h-105l-48 -273q-2 -14 -2 -20q0 -36 20.5 -52.5t65.5 -18.5
q27 -2 27 -30q0 -15 -10.5 -23.5t-24.5 -8.5zM330 545q-7 -12 -22 -12q-10 0 -17 6.5t-7 16.5q0 6 1 9l34 96q7 21 30 21q16 0 26 -9t10 -23q0 -7 -5 -17z" />
    <glyph glyph-name="uni021B.alt" horiz-adv-x="341" 
d="M138 -95l-66 -110q-9 -16 -25 -16q-11 0 -18.5 7.5t-7.5 17.5q0 8 3 16l45 115q11 26 35 26q16 0 27 -11t11 -27q0 -10 -4 -18zM230 -1q-73 0 -112 32t-39 92q0 12 4 34l47 268h-49q-12 0 -20.5 8t-8.5 21q0 14 9.5 23t22.5 9h57l18 106q5 32 37 32q18 0 28 -11t7 -28
l-17 -99h97q12 0 20.5 -8t8.5 -21q0 -15 -9.5 -23.5t-23.5 -8.5h-105l-48 -273q-2 -14 -2 -20q0 -36 20.5 -52.5t65.5 -18.5q27 -2 27 -30q0 -15 -10.5 -23.5t-24.5 -8.5z" />
    <glyph glyph-name="tbar.alt" horiz-adv-x="356" 
d="M248 -2q-73 0 -112 32t-39 92q0 12 4 34l19 111h-55q-11 0 -18.5 7t-7.5 18q0 13 9.5 21t23.5 8h58l18 103h-49q-12 0 -20.5 8t-8.5 21q0 14 9.5 23t22.5 9h57l18 106q5 32 37 32q18 0 28 -11t7 -28l-17 -99h97q12 0 20.5 -8t8.5 -21q0 -15 -9.5 -23.5t-23.5 -8.5h-105
l-18 -103h98q12 0 19.5 -7t7.5 -18q0 -14 -9.5 -21.5t-23.5 -7.5h-102l-20 -116q-2 -14 -2 -20q0 -36 20.5 -52.5t65.5 -18.5q27 -2 27 -30q0 -15 -10.5 -23.5t-24.5 -8.5z" />
    <glyph glyph-name="ampersand.alt" horiz-adv-x="610" 
d="M566 320l-124 -174l65 -98q12 -15 3 -34.5t-33 -19.5q-18 0 -30 18l-52 77q-83 -99 -199 -99q-75 0 -125 40.5t-50 110.5q0 79 51 132.5t147 77.5l-11 17q-36 54 -36 121q0 80 51 129t136 49q77 0 114 -46t30 -109q-3 -35 -35 -35q-33 0 -33 36q0 91 -82 91
q-50 0 -79 -31t-29 -80q0 -51 29 -94l135 -203l108 158q9 13 24 13q18 0 26.5 -16t-1.5 -31zM212 54q85 0 151 83l-114 170q-74 -16 -112 -56.5t-38 -96.5q0 -46 29 -73t84 -27z" />
    <glyph glyph-name="longs_t.alt" horiz-adv-x="535" 
d="M439 0q-73 0 -112 32t-39 92q0 18 3 34l47 267h-48q-12 0 -21 8t-9 21q0 14 10 23t23 9h57l17 106q5 32 37 32q18 0 28 -11t7 -28l-17 -99h96q13 0 21.5 -8t8.5 -21q0 -15 -10 -23.5t-23 -8.5h-104l-49 -272q-2 -14 -2 -19q0 -68 86 -71q27 -2 27 -31q0 -14 -10 -23
t-24 -9zM26 34l84 477q15 82 60.5 124t130.5 42h14q13 0 22 -9t9 -22q0 -14 -10 -22.5t-23 -8.5h-19q-93 0 -110 -99l-86 -489q-5 -32 -37 -32q-18 0 -28 11t-7 28z" />
    </font>
</defs>
</svg>
