<svg xmlns="http://www.w3.org/2000/svg" xmlns:xlink="http://www.w3.org/1999/xlink" width="30" height="30" viewBox="0 0 30 30">
  <defs>
    <clipPath id="clip-path">
      <rect id="Rectangle_2122" data-name="Rectangle 2122" width="30" height="30" transform="translate(-11105 -11499)" fill="#fff" stroke="#707070" stroke-width="1"/>
    </clipPath>
  </defs>
  <g id="Mask_Group_206" data-name="Mask Group 206" transform="translate(11105 11499)" clip-path="url(#clip-path)">
    <g id="_3011055_1_" data-name="3011055 (1)" transform="translate(-11105 -11499)">
      <path id="Path_10060" data-name="Path 10060" d="M15.432,6.193H17.19A3.121,3.121,0,0,0,19.875,9.28V8.273a4.875,4.875,0,1,0-9.749,0V9.31h2.19a3.121,3.121,0,0,0,3.117-3.117Z" fill="#fff"/>
      <path id="Path_10061" data-name="Path 10061" d="M6.758,14.976H8.416a7.427,7.427,0,0,1-.049-.846V8.273a6.633,6.633,0,0,1,13.265,0v5.856a7.427,7.427,0,0,1-.049.846h1.658a2.4,2.4,0,0,0,2.393-2.393V9.916a2.4,2.4,0,0,0-2.3-2.391,8.384,8.384,0,0,0-16.679,0,2.4,2.4,0,0,0-2.3,2.391v2.667a2.4,2.4,0,0,0,2.393,2.393Z" fill="#fff"/>
      <path id="Path_10062" data-name="Path 10062" d="M15,19.375A4.737,4.737,0,0,0,18.732,17.5H16.009V15.742h3.63a5.591,5.591,0,0,0,.236-1.613v-3.08a4.877,4.877,0,0,1-3.564-2.066,4.873,4.873,0,0,1-4,2.085h-2.19v3.061A5.076,5.076,0,0,0,15,19.375Z" fill="#fff"/>
      <path id="Path_10063" data-name="Path 10063" d="M19.937,21.146V18.8a6.392,6.392,0,0,1-9.851.028v2.315l-.008,0a8.89,8.89,0,0,0,4.914,2.124,8.985,8.985,0,0,0,4.945-2.124Z" fill="#fff"/>
      <path id="Path_10064" data-name="Path 10064" d="M27.784,23.723,21.907,21.8c-.995.886-3.91,3.231-6.915,3.231s-5.9-2.35-6.885-3.236L2.216,23.723A3.212,3.212,0,0,0,0,26.782V30H6.052V26.953H7.81V30H22.19V26.953h1.758V30H30V26.782a3.212,3.212,0,0,0-2.216-3.058Z" fill="#fff"/>
    </g>
  </g>
</svg>
