<svg xmlns="http://www.w3.org/2000/svg" xmlns:xlink="http://www.w3.org/1999/xlink" width="100" height="100" viewBox="0 0 100 100">
  <defs>
    <clipPath id="clip-path">
      <rect id="Rectangle_2116" data-name="Rectangle 2116" width="100" height="100" transform="translate(-11491 -8502)" fill="#fff" stroke="#707070" stroke-width="1"/>
    </clipPath>
    <clipPath id="clip-path-2">
      <rect id="Rectangle_2000" data-name="Rectangle 2000" width="100" height="100" transform="translate(134.787 -45.087)" fill="#f5f6f6" stroke="#707070" stroke-width="1.429"/>
    </clipPath>
  </defs>
  <g id="Mask_Group_200" data-name="Mask Group 200" transform="translate(11491 8502)" clip-path="url(#clip-path)">
    <g id="Mask_Group_149" data-name="Mask Group 149" transform="translate(-11625.787 -8456.913)" clip-path="url(#clip-path-2)">
      <g id="Forward_Contracts" data-name="Forward Contracts" transform="translate(133.01 -46.863)">
        <g id="Group_6062" data-name="Group 6062">
          <path id="Path_8135" data-name="Path 8135" d="M67.191,28.7H19.32a1.464,1.464,0,1,0,0,2.929H67.206a1.464,1.464,0,1,0-.014-2.929Z" fill="#af650f"/>
          <path id="Path_8136" data-name="Path 8136" d="M19.32,21.429H43.256a1.464,1.464,0,1,0,0-2.929H19.32a1.464,1.464,0,1,0,0,2.929Z" fill="#af650f"/>
          <path id="Path_8137" data-name="Path 8137" d="M67.191,37.739H19.32a1.464,1.464,0,1,0,0,2.929H67.206a1.464,1.464,0,1,0-.014-2.929Z" fill="#af650f"/>
          <path id="Path_8138" data-name="Path 8138" d="M30.223,91.541H14.9a4.559,4.559,0,0,1-4.557-4.556V9.286A4.559,4.559,0,0,1,14.9,4.73H59.039a4.18,4.18,0,0,1,.429.03v9.171a7.51,7.51,0,0,0,7.5,7.5h9.173a3.91,3.91,0,0,1,.03.429V46.91a1.464,1.464,0,0,0,2.929,0V21.864a5.961,5.961,0,0,0-1.776-4.276L63.316,3.55A6.021,6.021,0,0,0,59.04,1.774H14.9A7.531,7.531,0,0,0,7.4,9.286v77.7a7.51,7.51,0,0,0,7.5,7.5H30.223a1.472,1.472,0,1,0,0-2.944ZM74.08,18.491H66.954A4.559,4.559,0,0,1,62.4,13.936V6.8Z" fill="#3d6e72"/>
          <path id="Path_8139" data-name="Path 8139" d="M95.7,73.79,83.243,52.753a3.213,3.213,0,0,0-4.429-1.124l-3.033,1.79a5.774,5.774,0,0,0-2.544,6.714,4.487,4.487,0,0,1-3.166-.03c-2.391-.751-4.214-2.261-7.214-1.506-5.1,1.3-4.941,1.227-5.414,1.39-2.989-1.7-4.779-2.2-7.959-.976l-2.826,1.094a4.571,4.571,0,0,1-3.964-.326l-.769-.459a5.76,5.76,0,0,0-2.739-5.893h0l-3.033-1.79a3.246,3.246,0,0,0-4.429,1.124L19.276,73.8A3.241,3.241,0,0,0,20.4,78.233l3.029,1.784a5.661,5.661,0,0,0,2.914.8,5.765,5.765,0,0,0,3.144-.932l.635.371L28.79,82.111a4.937,4.937,0,0,0,1.124,6.879,4.879,4.879,0,0,0,3.639.857,4.959,4.959,0,0,0,1.983,3.18,4.814,4.814,0,0,0,3.639.857,4.939,4.939,0,0,0,6.8,3.7,5.044,5.044,0,0,0,1.714,2.234,4.936,4.936,0,0,0,6.657-.843l3.55,2.1a4.929,4.929,0,0,0,6.76-1.731,4.87,4.87,0,0,0,.651-1.923h.014a4.941,4.941,0,0,0,6.76-1.731,5.06,5.06,0,0,0,.68-2.143,4.956,4.956,0,0,0,5.447-2.26,5.066,5.066,0,0,0,.666-2,4.929,4.929,0,0,0,6.583-5.814,5.018,5.018,0,0,0-1-1.953l1.953-1.143a5.7,5.7,0,0,0,5.119-.37l3.033-1.79a3.229,3.229,0,0,0,1.143-4.439ZM24.941,77.473l-3.033-1.79a.286.286,0,0,1-.1-.384L34.261,54.263a.286.286,0,0,1,.384-.1l3.033,1.79A2.81,2.81,0,0,1,38.67,59.8L28.789,76.481a2.8,2.8,0,0,1-3.846.991ZM31.656,86.6a2,2,0,0,1-.459-2.781l1.967-2.737A2,2,0,1,1,36.4,83.4l-1.966,2.739a2,2,0,0,1-2.781.457Zm5.63,4.039a2,2,0,0,1-.459-2.781l1.967-2.737h0l2.16-3.017a2,2,0,0,1,1.286-.8,2.42,2.42,0,0,1,.326-.03,1.985,1.985,0,0,1,1.613,3.136l-4.127,5.74a1.954,1.954,0,0,1-2.766.489Zm5.621,4.039a2,2,0,0,1-.459-2.781h0l4.123-5.739a2,2,0,0,1,3.24,2.323l-1.834,2.559h0l-2.293,3.2a2.017,2.017,0,0,1-2.781.444Zm6.533,2.751a2,2,0,0,1-.459-2.781l1.376-1.909a2,2,0,1,1,3.24,2.323L52.221,96.97a1.991,1.991,0,0,1-2.781.459ZM82.414,85.7a1.984,1.984,0,0,1-2.721.7c-1.6-.947-11.923-7.057-13.019-7.714a1.469,1.469,0,1,0-1.494,2.53l9.837,5.829h0a1.987,1.987,0,0,1-2.027,3.417c-3.639-2.16-6.6-3.906-9.857-5.829a1.469,1.469,0,0,0-1.494,2.53l7.249,4.286h0A1.987,1.987,0,0,1,66.86,94.86l-3.89-2.307h0l-2.84-1.687a1.469,1.469,0,1,0-1.494,2.53l2.84,1.687h0A1.987,1.987,0,0,1,59.449,98.5l-3.306-1.959a4.937,4.937,0,0,0-1.257-6.687A4.837,4.837,0,0,0,52.844,89a4.926,4.926,0,0,0-5.384-6.6A4.927,4.927,0,0,0,39.1,79.751,4.843,4.843,0,0,0,37.7,78.2a4.956,4.956,0,0,0-5.459-.193l-.68-.4L40.8,62l.444.266a7.476,7.476,0,0,0,6.524.547l2.826-1.094a4.357,4.357,0,0,1,4.113.089,6.583,6.583,0,0,0-1.671,4.379v6.529a3.143,3.143,0,0,0,3.143,3.143h0a6.481,6.481,0,0,0,4.6-1.909,6.626,6.626,0,0,0,1.571-2.5c1.893,1.124,17.59,10.414,19.409,11.494a1.991,1.991,0,0,1,.917,1.213,2.317,2.317,0,0,1-.251,1.553ZM93.08,75.683l-3.033,1.79a2.816,2.816,0,0,1-3.846-.991l-4.63-7.826a1.469,1.469,0,0,0-2.53,1.494l4.63,7.826c.089.143.177.286.286.429l-1.286.754a6.688,6.688,0,0,0-.754.5L61.931,67.827A1.474,1.474,0,0,0,59.713,69.1a3.764,3.764,0,0,1-1.05,2.8,3.547,3.547,0,0,1-2.514,1.036h0a.2.2,0,0,1-.193-.207V66.2a3.65,3.65,0,0,1,2.751-3.536l4.874-1.236c1.776-.444,2.781.5,5.429,1.39a7.464,7.464,0,0,0,5.621-.089l.887,1.494a1.469,1.469,0,1,0,2.53-1.494L76.3,59.786a2.8,2.8,0,0,1,.991-3.846l3.034-1.8a.273.273,0,0,1,.384.1l12.456,21.04a.286.286,0,0,1-.089.4Z" fill="#af650f"/>
        </g>
      </g>
    </g>
  </g>
</svg>
