<svg xmlns="http://www.w3.org/2000/svg" width="61.394" height="42.683" viewBox="0 0 61.394 42.683">
  <g id="Group_5942" data-name="Group 5942" transform="translate(-29.385 -69.398)" opacity="0.2">
    <path id="Path_7962" data-name="Path 7962" d="M31.415,112.081a2.135,2.135,0,0,1-1.5-.53,1.783,1.783,0,0,1-.53-1.377c0-.318,0-1.377,2.012-2.436a34.945,34.945,0,0,0,9.567-6.69c2.136-2.295,3.089-3.9,3.089-5.172,0-.883-.406-2.4-3.107-2.771l-.936-.141-1.041-.053a10.059,10.059,0,0,1-6.531-3.778,12.025,12.025,0,0,1-2.577-7.785,11.5,11.5,0,0,1,3.177-8.1A11.933,11.933,0,0,1,42.253,69.4a12.129,12.129,0,0,1,9.356,4.272,14.887,14.887,0,0,1,2.966,4.872,16.357,16.357,0,0,1,1.112,5.79,23.846,23.846,0,0,1-4.131,12.762,37.618,37.618,0,0,1-11.191,11.138C36.5,110.774,33.48,112.081,31.415,112.081Z" transform="translate(0 0)" fill="#989898"/>
    <path id="Path_7963" data-name="Path 7963" d="M33.4,112.081a2.135,2.135,0,0,1-1.5-.53,1.782,1.782,0,0,1-.53-1.377c0-.318,0-1.377,2.012-2.436a34.945,34.945,0,0,0,9.567-6.69c2.136-2.295,3.089-3.9,3.089-5.172,0-.883-.406-2.4-3.107-2.771l-.918-.141-1.041-.053a10.141,10.141,0,0,1-6.549-3.778,12.113,12.113,0,0,1-2.56-7.785,11.478,11.478,0,0,1,3.16-8.1A12,12,0,0,1,44.259,69.4,12.093,12.093,0,0,1,53.6,73.67a14.923,14.923,0,0,1,2.983,4.872,16.331,16.331,0,0,1,1.094,5.79,23.846,23.846,0,0,1-4.131,12.762,37.011,37.011,0,0,1-11.191,11.138C38.487,110.774,35.468,112.081,33.4,112.081Z" transform="translate(33.104 0)" fill="#989898"/>
  </g>
</svg>
