<svg xmlns="http://www.w3.org/2000/svg" xmlns:xlink="http://www.w3.org/1999/xlink" width="100" height="100" viewBox="0 0 100 100">
  <defs>
    <clipPath id="clip-path">
      <rect id="Rectangle_2116" data-name="Rectangle 2116" width="100" height="100" transform="translate(-21677 -17138)" fill="#fff" stroke="#707070" stroke-width="1"/>
    </clipPath>
  </defs>
  <g id="Mask_Group_202" data-name="Mask Group 202" transform="translate(21677 17138)" clip-path="url(#clip-path)">
    <g id="Rules" transform="translate(-21681.207 -17142.219)">
      <g id="Group_6995" data-name="Group 6995">
        <g id="Group_6994" data-name="Group 6994">
          <path id="Path_10007" data-name="Path 10007" d="M23.776,54.853a2.182,2.182,0,1,0,2.182,2.182A2.185,2.185,0,0,0,23.776,54.853Z" fill="#af650f"/>
        </g>
      </g>
      <g id="Group_6997" data-name="Group 6997">
        <g id="Group_6996" data-name="Group 6996">
          <path id="Path_10008" data-name="Path 10008" d="M104.207,50.512a8.717,8.717,0,0,0-8.7-8.7H79.274A54.415,54.415,0,0,0,82.614,21.06c-.045-1.291-.089-2.026-.156-2.493a8.695,8.695,0,0,0-17.386.223v2.182c0,13.758-17.654,21.46-30.966,24.777a6.548,6.548,0,0,0-5.966-3.918H6.389a2.185,2.185,0,0,0-2.182,2.182V96.171a2.185,2.185,0,0,0,2.182,2.182H28.117a6.569,6.569,0,0,0,5.966-3.874l3.072.8c7.591,1.981,11.776,3.072,21.928,3.072H82.458a8.717,8.717,0,0,0,8.7-8.7,8.592,8.592,0,0,0-1.469-4.831,8.734,8.734,0,0,0,4.363-13.045,8.718,8.718,0,0,0,5.81-8.192A8.592,8.592,0,0,0,98.4,58.749,8.776,8.776,0,0,0,104.207,50.512ZM30.3,91.808a2.185,2.185,0,0,1-2.182,2.182H8.571V46.171H28.139a2.185,2.185,0,0,1,2.182,2.182V91.808ZM95.5,54.853H84.639a2.182,2.182,0,0,0,0,4.363h6.523a4.341,4.341,0,0,1,0,8.682H80.3a2.182,2.182,0,0,0,0,4.363h6.523a4.341,4.341,0,0,1,0,8.682H75.957a2.182,2.182,0,1,0,0,4.363H82.48a4.341,4.341,0,0,1,0,8.682H59.105c-9.617,0-13.357-.98-20.837-2.939q-1.636-.434-3.606-.935V50.089C50.4,46.349,69.435,37.2,69.435,20.948V18.767a4.341,4.341,0,1,1,8.682,0h0c0,.935,1.18,12.533-3.54,23.041H67.253a2.182,2.182,0,0,0,0,4.363H95.5a4.341,4.341,0,1,1,0,8.682Z" fill="#3d6e72"/>
        </g>
      </g>
      <g id="Group_6999" data-name="Group 6999">
        <g id="Group_6998" data-name="Group 6998">
          <path id="Path_10009" data-name="Path 10009" d="M23.776,63.557a2.185,2.185,0,0,0-2.182,2.182V83.126a2.182,2.182,0,0,0,4.363,0V65.739A2.185,2.185,0,0,0,23.776,63.557Z" fill="#af650f"/>
        </g>
      </g>
    </g>
  </g>
</svg>
