<svg xmlns="http://www.w3.org/2000/svg" xmlns:xlink="http://www.w3.org/1999/xlink" width="100" height="100" viewBox="0 0 100 100">
  <defs>
    <clipPath id="clip-path">
      <rect id="Rectangle_2120" data-name="Rectangle 2120" width="100" height="100" transform="translate(-10795 -8502)" fill="#fff" stroke="#707070" stroke-width="1"/>
    </clipPath>
    <clipPath id="clip-path-2">
      <rect id="Rectangle_2000" data-name="Rectangle 2000" width="100" height="100" transform="translate(134.787 -45.087)" fill="#f5f6f6" stroke="#707070" stroke-width="1.429"/>
    </clipPath>
  </defs>
  <g id="Mask_Group_204" data-name="Mask Group 204" transform="translate(10795 8502)" clip-path="url(#clip-path)">
    <g id="Mask_Group_153" data-name="Mask Group 153" transform="translate(-10929.787 -8456.913)" clip-path="url(#clip-path-2)">
      <g id="_04_MultiCurrency_Account" data-name="04 MultiCurrency Account" transform="translate(129.693 -50.826)">
        <path id="Path_8174" data-name="Path 8174" d="M71.2,38.064c1.846,0,2.73.757,2.73,2.336a2.554,2.554,0,0,1-2.714,2.336,2.739,2.739,0,0,1-2.557-1.547,1.517,1.517,0,1,0-2.793,1.184,5.589,5.589,0,0,0,3.82,3.2v.8a1.515,1.515,0,0,0,3.03,0v-.8a5.429,5.429,0,0,0,4.246-5.143c0-3.251-2.257-5.366-5.76-5.366-1.846,0-2.714-.741-2.714-2.336a2.554,2.554,0,0,1,2.714-2.336,2.739,2.739,0,0,1,2.557,1.547,1.517,1.517,0,1,0,2.793-1.184,5.614,5.614,0,0,0-3.842-3.2v-.8a1.515,1.515,0,0,0-3.03,0v.821a5.429,5.429,0,0,0-4.23,5.143C65.46,35.95,67.714,38.064,71.2,38.064Z" fill="#af650f"/>
        <path id="Path_8175" data-name="Path 8175" d="M36.864,39.074A16.664,16.664,0,1,0,20.2,22.41,16.664,16.664,0,0,0,36.864,39.074Zm0-30.3A13.634,13.634,0,1,1,23.23,22.409,13.634,13.634,0,0,1,36.864,8.774Z" fill="#3d6e72"/>
        <path id="Path_8176" data-name="Path 8176" d="M36.864,23.924c1.83,0,2.73.757,2.73,2.336A2.554,2.554,0,0,1,36.88,28.6a2.739,2.739,0,0,1-2.557-1.547,1.517,1.517,0,1,0-2.793,1.184,5.589,5.589,0,0,0,3.819,3.2v.8a1.515,1.515,0,1,0,3.03,0v-.836a5.417,5.417,0,0,0,4.246-5.143c0-3.251-2.257-5.366-5.76-5.366-1.83,0-2.714-.757-2.714-2.336a2.554,2.554,0,0,1,2.714-2.336,2.739,2.739,0,0,1,2.557,1.547,1.517,1.517,0,1,0,2.793-1.184,5.614,5.614,0,0,0-3.835-3.2v-.791a1.515,1.515,0,1,0-3.03,0v.821a5.429,5.429,0,0,0-4.23,5.143C31.1,21.81,33.361,23.924,36.864,23.924Z" fill="#af650f"/>
        <path id="Path_8177" data-name="Path 8177" d="M104.74,96.107,93.5,63.014a8.349,8.349,0,0,0-8.064-5.143H69.627c.031-.363.063-.741.063-1.12a16.624,16.624,0,0,0-.429-3.677A15.625,15.625,0,0,0,71.2,53.2,16.664,16.664,0,1,0,54.54,36.535,16.492,16.492,0,0,0,55,40.194a16.348,16.348,0,0,0-1.973-.126A16.69,16.69,0,0,0,36.36,56.733c0,.379.031.741.063,1.12H24.65a8.324,8.324,0,0,0-8.064,5.161L5.443,96.107a6.476,6.476,0,0,0,.963,6,9.256,9.256,0,0,0,7.609,3.627H96.171a9.317,9.317,0,0,0,7.623-3.614,6.494,6.494,0,0,0,.946-6.013ZM85.456,60.9a5.309,5.309,0,0,1,5.191,3.077L98.87,88.286V88.3h0a3.19,3.19,0,0,1-.506,2.967A5.876,5.876,0,0,1,93.6,93.446H87.933L80.706,60.9ZM71.2,22.914a13.635,13.635,0,1,1,0,27.27,13.267,13.267,0,0,1-3.077-.41,16.7,16.7,0,0,0-9.816-8.806A13.581,13.581,0,0,1,71.2,22.914Zm-18.18,20.2A13.634,13.634,0,1,1,39.39,56.749,13.634,13.634,0,0,1,53.024,43.114ZM36.9,60.9a16.65,16.65,0,0,0,32.257,0H77.6l7.227,32.541H25.36L32.589,60.9ZM11.331,88.286,19.459,64a5.32,5.32,0,0,1,5.191-3.093h4.844L22.267,93.44H16.6a5.876,5.876,0,0,1-4.766-2.177,3.17,3.17,0,0,1-.5-2.977Zm90,12.057a6.366,6.366,0,0,1-5.16,2.351H14.014a6.366,6.366,0,0,1-5.157-2.357A3.537,3.537,0,0,1,8.3,97.07L9.6,93.3a8.877,8.877,0,0,0,6.991,3.143H93.6A8.927,8.927,0,0,0,100.59,93.3l1.294,3.756a3.55,3.55,0,0,1-.553,3.283Z" fill="#3d6e72"/>
        <path id="Path_8178" data-name="Path 8178" d="M18.48,84.809a1.686,1.686,0,0,0,.394.047,1.53,1.53,0,0,0,1.467-1.12L23.75,71.174a1.513,1.513,0,1,0-2.92-.789l-3.4,12.56A1.516,1.516,0,0,0,18.48,84.809Z" fill="#af650f"/>
        <path id="Path_8179" data-name="Path 8179" d="M90.394,84.73a1.5,1.5,0,0,0,.441,1.073,1.53,1.53,0,0,0,1.073.441,1.509,1.509,0,0,0,1.516-1.514,1.441,1.441,0,0,0-.441-1.073,1.571,1.571,0,0,0-2.143,0A1.5,1.5,0,0,0,90.394,84.73Z" fill="#3d6e72"/>
        <path id="Path_8180" data-name="Path 8180" d="M87.98,76.1a1.549,1.549,0,0,0,1.467,1.1,1.3,1.3,0,0,0,.41-.059A1.494,1.494,0,0,0,90.9,75.286a1.531,1.531,0,0,0-1.857-1.073A1.584,1.584,0,0,0,87.98,76.1Z" fill="#3d6e72"/>
        <path id="Path_8181" data-name="Path 8181" d="M88.5,66.676A1.5,1.5,0,0,0,88.06,65.6a1.571,1.571,0,0,0-2.143,0,1.524,1.524,0,0,0,0,2.143,1.559,1.559,0,0,0,1.073.441,1.5,1.5,0,0,0,1.073-.441,1.53,1.53,0,0,0,.439-1.07Z" fill="#3d6e72"/>
        <path id="Path_8182" data-name="Path 8182" d="M53.024,58.264c1.83,0,2.73.757,2.73,2.32A2.554,2.554,0,0,1,53.04,62.92a2.739,2.739,0,0,1-2.557-1.547,1.517,1.517,0,1,0-2.793,1.184,5.589,5.589,0,0,0,3.819,3.2v.81a1.515,1.515,0,1,0,3.03,0v-.8a5.417,5.417,0,0,0,4.246-5.143c0-3.251-2.257-5.366-5.76-5.366-1.846,0-2.714-.741-2.714-2.336a2.554,2.554,0,0,1,2.714-2.336,2.739,2.739,0,0,1,2.557,1.547,1.517,1.517,0,1,0,2.793-1.184,5.614,5.614,0,0,0-3.835-3.2v-.8a1.515,1.515,0,1,0-3.03,0v.82A5.429,5.429,0,0,0,47.28,52.9C47.264,56.166,49.521,58.264,53.024,58.264Z" fill="#af650f"/>
      </g>
    </g>
  </g>
</svg>
