<svg xmlns="http://www.w3.org/2000/svg" xmlns:xlink="http://www.w3.org/1999/xlink" width="80" height="80" viewBox="0 0 80 80">
  <defs>
    <clipPath id="clip-path">
      <rect id="Rectangle_2551" data-name="Rectangle 2551" width="80" height="80" transform="translate(425 3178)" fill="#393939" stroke="#707070" stroke-width="1"/>
    </clipPath>
  </defs>
  <g id="transact_with_confidence_icon" transform="translate(-425 -3178)" clip-path="url(#clip-path)">
    <g id="FINTRAC_Regulated_Security_Icon" data-name="FINTRAC Regulated (Security) Icon" transform="translate(425 3178.337)">
      <path id="Path_13204" data-name="Path 13204" d="M35.935,59.946a1.672,1.672,0,0,1-.647-.133c-.794-.335-19.354-8.354-19.354-24.748V21.136a1.668,1.668,0,0,1,1.133-1.58L35.4,13.367a1.669,1.669,0,0,1,1.062,0L54.8,19.556a1.665,1.665,0,0,1,1.133,1.58v13.93c0,16.393-18.56,24.413-19.354,24.751a1.672,1.672,0,0,1-.647.133ZM19.268,22.336v12.73c0,12.615,13.517,19.86,16.666,21.379,3.147-1.52,16.666-8.8,16.666-21.379V22.336l-16.666-5.63Z" transform="translate(24.065 18.049)" fill="#f89522"/>
      <path id="Path_13205" data-name="Path 13205" d="M28.251,34.26a.784.784,0,0,1-.09,0,1.655,1.655,0,0,1-1.21-.623L20.284,25.3a1.667,1.667,0,0,1,2.6-2.083l5.5,6.877L38.737,19.75a1.667,1.667,0,0,1,2.357,2.357L29.427,33.774a1.66,1.66,0,0,1-1.177.49Z" transform="translate(30.083 27.073)" fill="#f89522"/>
      <path id="Path_13206" data-name="Path 13206" d="M61.667,24.662h-50a11.667,11.667,0,1,1,0-23.334h50a11.667,11.667,0,0,1,0,23.334Zm-50-20a8.333,8.333,0,1,0,0,16.667h50a8.333,8.333,0,1,0,0-16.667Z" fill="#393939"/>
      <path id="Path_13207" data-name="Path 13207" d="M8.983,13.984a5,5,0,1,1,5-5,5,5,0,0,1-5,5Zm0-6.667a1.667,1.667,0,1,0,1.668,1.667A1.667,1.667,0,0,0,8.983,7.317Z" transform="translate(6.017 4.012)" fill="#393939"/>
      <path id="Path_13208" data-name="Path 13208" d="M15.623,13.984a5,5,0,1,1,5-5A5,5,0,0,1,15.623,13.984Zm0-6.667a1.667,1.667,0,1,0,1.667,1.667,1.667,1.667,0,0,0-1.667-1.667Z" transform="translate(16.044 4.012)" fill="#393939"/>
      <path id="Path_13209" data-name="Path 13209" d="M31.666,32.629h-20a11.667,11.667,0,1,1,0-23.334h50a11.429,11.429,0,0,1,7.094,2.419,1.668,1.668,0,0,1-2.05,2.627,8.116,8.116,0,0,0-5.046-1.717h-50a8.333,8.333,0,1,0,0,16.667h20a1.667,1.667,0,0,1,0,3.333Z" transform="translate(0 12.033)" fill="#393939"/>
      <path id="Path_13210" data-name="Path 13210" d="M8.983,21.951a5,5,0,1,1,5-5,5,5,0,0,1-5,5Zm0-6.667a1.667,1.667,0,1,0,1.667,1.667,1.667,1.667,0,0,0-1.667-1.667Z" transform="translate(6.017 16.044)" fill="#393939"/>
      <path id="Path_13211" data-name="Path 13211" d="M15.623,21.951a5,5,0,1,1,5-5A5,5,0,0,1,15.623,21.951Zm0-6.667a1.667,1.667,0,1,0,1.667,1.667,1.667,1.667,0,0,0-1.667-1.667Z" transform="translate(16.044 16.044)" fill="#393939"/>
      <path id="Path_13212" data-name="Path 13212" d="M31.666,40.6h-20a11.667,11.667,0,1,1,0-23.334h20a1.667,1.667,0,0,1,0,3.333h-20a8.334,8.334,0,1,0,0,16.667h20a1.666,1.666,0,0,1,0,3.333Z" transform="translate(0 24.065)" fill="#393939"/>
      <path id="Path_13213" data-name="Path 13213" d="M8.983,29.919a5,5,0,1,1,5-5,5,5,0,0,1-5,5Zm0-6.667a1.667,1.667,0,1,0,1.667,1.667,1.667,1.667,0,0,0-1.667-1.667Z" transform="translate(6.017 28.077)" fill="#393939"/>
      <path id="Path_13214" data-name="Path 13214" d="M15.623,29.919a5,5,0,1,1,5-5A5,5,0,0,1,15.623,29.919Zm0-6.667a1.667,1.667,0,1,0,1.667,1.667,1.667,1.667,0,0,0-1.667-1.667Z" transform="translate(16.044 28.077)" fill="#393939"/>
    </g>
  </g>
</svg>
