<svg xmlns="http://www.w3.org/2000/svg" xmlns:xlink="http://www.w3.org/1999/xlink" width="40" height="40" viewBox="0 0 40 40"><defs><style>.a{fill:#fff;stroke:#707070;}.b{clip-path:url(#a);}.c{fill:#af650f;}.d{fill:#3d6e72;}</style><clipPath id="a"><rect class="a" width="40" height="40" transform="translate(308 1436)"/></clipPath></defs><g class="b" transform="translate(-308 -1436)"><g transform="translate(305.425 1433.42)"><path class="c" d="M25.48,26.151a7.85,7.85,0,0,0,3.574-14.843V8.3H27.628V10.74a7.676,7.676,0,0,0-4.283,0V8.3H21.919v3.012A7.85,7.85,0,0,0,25.48,26.151Zm0-14.288a6.425,6.425,0,1,1-6.425,6.425A6.425,6.425,0,0,1,25.48,11.863Z"/><path class="c" d="M24.048,21.861h.716v1.426h1.426V21.861h.716a1.426,1.426,0,0,0,1.426-1.426V19.01a1.426,1.426,0,0,0-1.426-1.426H24.048V16.159h2.858v.716h1.426v-.716a1.426,1.426,0,0,0-1.426-1.426h-.716V13.308H24.764v1.426h-.716a1.426,1.426,0,0,0-1.426,1.426v1.426a1.426,1.426,0,0,0,1.426,1.426h2.858v1.426H24.048v-.716H22.622v.716A1.426,1.426,0,0,0,24.048,21.861Z"/><rect class="c" width="1.426" height="1.426" transform="translate(29.047 17.578)"/><rect class="c" width="1.426" height="1.426" transform="translate(20.481 17.578)"/><path class="d" d="M42.322,26.654l-1.006-1.013a3.582,3.582,0,0,0-5.057.006l-6.612,6.734A3.581,3.581,0,0,0,26.2,29.718H21.429a4.992,4.992,0,0,0-4.515-2.858H13.34A4.988,4.988,0,0,0,9.766,28.37V26.151a.719.719,0,0,0-.716-.716H3.335a.719.719,0,0,0-.716.716V41.864a.719.719,0,0,0,.716.716H9.05a.719.719,0,0,0,.716-.716V40.439l19.474.013a.724.724,0,0,0,.5-.206L42.322,27.667A.72.72,0,0,0,42.322,26.654ZM8.334,41.148H4.051V26.86H8.334Zm20.61-2.129L9.766,39.007V31.859a3.577,3.577,0,0,1,3.574-3.574h3.574a3.558,3.558,0,0,1,3.361,2.38.712.712,0,0,0,.677.477H26.2a2.145,2.145,0,0,1,2.142,2.142H17.623v1.426H29.047V34.7a.711.711,0,0,0,.51-.206l7.715-7.857a2.153,2.153,0,0,1,3.032-.006l.5.51Z"/><rect class="d" width="1.426" height="1.426" transform="translate(4.767 28.292)"/><rect class="c" width="1.426" height="1.426" transform="translate(21.906 5.438)"/><rect class="c" width="1.426" height="3.574" transform="translate(24.764 5.438)"/><rect class="c" width="1.426" height="1.426" transform="translate(24.764 2.58)"/><rect class="c" width="1.426" height="1.426" transform="translate(27.621 5.438)"/></g></g></svg>