<svg xmlns="http://www.w3.org/2000/svg" xmlns:xlink="http://www.w3.org/1999/xlink" width="70" height="70" viewBox="0 0 70 70"><defs><style>.a{fill:#fff;stroke:#707070;}.b{clip-path:url(#a);}.c{fill:#393939;}</style><clipPath id="a"><rect class="a" width="70" height="70" transform="translate(56.618)"/></clipPath></defs><g class="b" transform="translate(-56.618)"><g transform="translate(54.224 -2.827)"><path class="c" d="M26.079,66.466a1.06,1.06,0,0,0,0,2.121H28.2a1.06,1.06,0,0,0,0-2.121H26.079Z"/><path class="c" d="M34.882,66.466a1.06,1.06,0,1,0,0,2.121h5.012a1.06,1.06,0,1,0,0-2.121H34.882Z"/><path class="c" d="M48.709,68.586a1.06,1.06,0,1,0,0-2.121H46.588a1.06,1.06,0,1,0,0,2.121Z"/><path class="c" d="M22.191,47.723a1.056,1.056,0,0,0,1.06,1.06H51.536a1.056,1.056,0,0,0,1.06-1.06V19.438a1.056,1.056,0,0,0-1.06-1.06H23.251a1.056,1.056,0,0,0-1.06,1.06ZM24.312,20.5H50.476V46.663H24.312Z"/><path class="c" d="M37.388,32.526c-2.1,0-3.213-.975-3.213-2.827a3.034,3.034,0,0,1,3.213-2.817,3.252,3.252,0,0,1,3.02,1.842,1.063,1.063,0,1,0,1.96-.825,5.232,5.232,0,0,0-3.909-3.042V23.68a1.06,1.06,0,0,0-2.121,0v1.178A5.065,5.065,0,0,0,32.065,29.7c0,2.388,1.4,4.948,5.334,4.948,2.11,0,3.224.975,3.224,2.817A3.034,3.034,0,0,1,37.41,40.28a3.252,3.252,0,0,1-3.02-1.842,1.063,1.063,0,0,0-1.96.825,5.179,5.179,0,0,0,3.9,3.031v1.189a1.06,1.06,0,0,0,2.121,0V42.3a5.056,5.056,0,0,0,4.284-4.841C42.733,35.075,41.33,32.526,37.388,32.526Z"/><path class="c" d="M67.837,32.837l-5.344-5.344V8.129a5.307,5.307,0,0,0-5.3-5.3h-19.8a1.072,1.072,0,0,0-.75.311l-9.9,9.9a1.063,1.063,0,0,0,.75,1.81h19.8a1.057,1.057,0,0,0,.739-1.81L39.948,4.948H57.191a3.181,3.181,0,0,1,3.181,3.181V25.372l-2.431-2.431a1.063,1.063,0,0,0-1.81.75V43.482a1.049,1.049,0,0,0,.653.975,1.066,1.066,0,0,0,.407.086,1.054,1.054,0,0,0,.75-.311L60.372,41.8V62.225H44.457a1.06,1.06,0,1,0,0,2.121H60.372v3.181a3.181,3.181,0,0,1-3.181,3.181H17.6a3.181,3.181,0,0,1-3.181-3.181V64.345H37.4a1.072,1.072,0,0,0,.75-.311l9.9-9.9a1.075,1.075,0,0,0,.236-1.157,1.049,1.049,0,0,0-.975-.653H27.492a1.049,1.049,0,0,0-.975.653,1.072,1.072,0,0,0,.225,1.157l8.086,8.086H14.4V41.8l2.431,2.431a1.054,1.054,0,0,0,.75.311,1.066,1.066,0,0,0,.407-.086,1.049,1.049,0,0,0,.653-.975V23.68a1.049,1.049,0,0,0-.653-.975,1.072,1.072,0,0,0-1.157.225L14.4,25.361V8.129a3.181,3.181,0,0,1,3.181-3.181H30.309a1.06,1.06,0,1,0,0-2.121H17.6a5.307,5.307,0,0,0-5.3,5.3V27.492L6.951,32.837a1.054,1.054,0,0,0,0,1.5l5.344,5.344V67.526a5.307,5.307,0,0,0,5.3,5.3H57.191a5.307,5.307,0,0,0,5.3-5.3V39.68l5.344-5.344A1.054,1.054,0,0,0,67.837,32.837ZM44.725,12.723H30.052l7.336-7.336ZM30.052,54.438H44.735L37.4,61.775ZM9.189,33.586l7.336-7.336V40.933Zm49.062,7.336V26.239l7.336,7.336Z"/></g></g></svg>