<svg xmlns="http://www.w3.org/2000/svg" xmlns:xlink="http://www.w3.org/1999/xlink" width="100" height="100" viewBox="0 0 100 100"><defs><style>.a{fill:#fff;stroke:#707070;}.b{clip-path:url(#a);}.c{fill:#af650f;}.d{fill:#3d6e72;}</style><clipPath id="a"><rect class="a" width="100" height="100" transform="translate(527.556 1332)"/></clipPath></defs><g class="b" transform="translate(-527.556 -1332)"><g transform="translate(524.526 1328.97)"><path class="c" d="M51.439,86.773v3.485h3.2v-3.2h3.2V82.273a4.8,4.8,0,0,0-4.788-4.788,1.591,1.591,0,0,1-1.591-1.591V74.3H53.03a1.591,1.591,0,0,1,1.591,1.591v1.591h3.2V75.909a4.787,4.787,0,0,0-3.2-4.5V67.924h-3.2v3.2h-3.2v4.788A4.8,4.8,0,0,0,53.015,80.7a1.591,1.591,0,0,1,1.591,1.591v1.591H53.03a1.591,1.591,0,0,1-1.591-1.591V80.7h-3.2v1.591A4.752,4.752,0,0,0,51.439,86.773Z"/><path class="d" d="M99.3,55.152H69.788L81.758,39.2H75.379V23.242H62.606V39.2H56.227L68.2,55.152H54.636V28.03c0-4.561-11.97-4.788-14.364-4.788-.8,0-2.667.03-4.788.227V8.879c0-4.561-11.97-4.788-14.364-4.788S6.758,4.333,6.758,8.879V55.152a3.2,3.2,0,0,0-3.2,3.2V99.833a3.2,3.2,0,0,0,3.2,3.2H99.3a3.2,3.2,0,0,0,3.2-3.2V58.348A3.207,3.207,0,0,0,99.3,55.152ZM65.8,42.394V26.439h6.379V42.394h3.2L69,50.909l-6.379-8.515ZM29.091,55.152V50.424c3.727,1.424,9.576,1.53,11.167,1.53,1.606,0,7.455-.106,11.167-1.53v4.727ZM9.939,40.864c3.727,1.424,9.576,1.53,11.167,1.53,1.636,0,3.258-.076,4.788-.227V48.53c-1.5.152-3.136.242-4.788.242-6.515,0-10.424-1.212-11.167-1.879v-6.03Zm0-9.576c3.727,1.424,9.576,1.53,11.167,1.53,1.636,0,3.258-.076,4.788-.227v6.364c-1.5.152-3.136.242-4.788.242-6.515,0-10.424-1.212-11.167-1.879v-6.03Zm41.5,6.03C50.7,38,46.788,39.2,40.273,39.2s-10.424-1.212-11.167-1.879v-6.03c3.727,1.424,9.576,1.53,11.167,1.53,1.606,0,7.455-.106,11.167-1.53Zm0,9.576c-.742.682-4.652,1.879-11.167,1.879s-10.424-1.212-11.167-1.879v-6.03c3.727,1.424,9.576,1.53,11.167,1.53,1.606,0,7.455-.106,11.167-1.53ZM51,28.03c-1.379.682-5.091,1.591-10.742,1.591s-9.364-.909-10.742-1.591c1.379-.682,5.091-1.591,10.742-1.591S49.621,27.348,51,28.03Zm-25.091,0v1.348a44.009,44.009,0,0,1-4.788.242c-6.515,0-10.424-1.212-11.167-1.879v-6.03c3.727,1.424,9.576,1.53,11.167,1.53s7.455-.106,11.167-1.53v2.2C28.955,24.53,25.909,25.727,25.909,28.03ZM9.939,12.136c3.727,1.424,9.576,1.53,11.167,1.53s7.455-.106,11.167-1.53v6.03c-.742.682-4.652,1.879-11.167,1.879S10.682,18.833,9.939,18.167ZM21.121,7.288c5.652,0,9.364.909,10.742,1.591-1.379.682-5.091,1.591-10.742,1.591s-9.364-.909-10.742-1.591C11.758,8.2,15.47,7.288,21.121,7.288ZM9.939,50.439c3.727,1.424,9.576,1.53,11.167,1.53,1.636,0,3.258-.076,4.788-.227v3.424H9.939ZM6.758,99.833V58.348H99.3V99.833Z"/><path class="c" d="M9.939,61.545V96.652H96.106V61.545Zm9.424,3.182a8.016,8.016,0,0,1-6.227,6.227V64.727Zm-6.227,22.5a8.016,8.016,0,0,1,6.227,6.227H13.136Zm9.455,6.227a11.153,11.153,0,0,0-9.439-9.439V74.182a11.153,11.153,0,0,0,9.439-9.439H42.97a17.525,17.525,0,0,0,0,28.727ZM53.03,64.727A14.364,14.364,0,1,1,38.667,79.091,14.375,14.375,0,0,1,53.03,64.727ZM86.7,93.455a8.016,8.016,0,0,1,6.227-6.227v6.227Zm6.227-22.5A8.016,8.016,0,0,1,86.7,64.727h6.227ZM83.47,64.727a11.153,11.153,0,0,0,9.439,9.439V84a11.153,11.153,0,0,0-9.439,9.439H63.091a17.525,17.525,0,0,0,0-28.727Z"/><path class="c" d="M83.348,36.015H96.121V20.045H102.5L89.727,3.03,76.97,20.045h6.379ZM89.727,8.348l6.379,8.515h-3.2V32.818H86.53V16.864h-3.2Z"/></g></g></svg>