<svg xmlns="http://www.w3.org/2000/svg" xmlns:xlink="http://www.w3.org/1999/xlink" width="100" height="100" viewBox="0 0 100 100">
  <defs>
    <clipPath id="clip-path">
      <rect id="Rectangle_2115" data-name="Rectangle 2115" width="100" height="100" transform="translate(423 3055)" fill="#fff" stroke="#707070" stroke-width="1"/>
    </clipPath>
    <clipPath id="clip-path-2">
      <rect id="Rectangle_2114" data-name="Rectangle 2114" width="100" height="100" transform="translate(720 5316.667)" fill="#fff" stroke="#707070" stroke-width="1.667"/>
    </clipPath>
  </defs>
  <g id="Mask_Group_199" data-name="Mask Group 199" transform="translate(-423 -3055)" clip-path="url(#clip-path)">
    <g id="Mask_Group_199-2" data-name="Mask Group 199" transform="translate(-297 -2261.666)" clip-path="url(#clip-path-2)">
      <g id="_2643574" data-name="2643574" transform="translate(718.388 5315.052)">
        <g id="Group_6976" data-name="Group 6976">
          <path id="Path_9987" data-name="Path 9987" d="M43.232,38.732v-3.59l-.884-.312q-.045-.114-.1-.228l.4-.846-2.539-2.539-.846.4c-.076-.034-.15-.066-.228-.1l-.311-.883H35.144l-.312.884q-.114.045-.228.1l-.846-.4-2.538,2.539.4.846c-.034.076-.066.15-.1.228l-.883.311v3.59l.884.312q.045.114.1.228l-.4.846,2.539,2.537.846-.4c.076.034.15.066.228.1l.311.883h3.59l.312-.884q.114-.045.228-.1l.846.4,2.537-2.538-.4-.846c.034-.076.066-.15.1-.228Zm-6.293,1.594a3.389,3.389,0,1,1,3.389-3.389A3.389,3.389,0,0,1,36.939,40.326Z" transform="translate(14.674 14.674)" fill="#af650f"/>
        </g>
        <g id="Group_6977" data-name="Group 6977">
          <path id="Path_9988" data-name="Path 9988" d="M95.125,50.167a43.245,43.245,0,0,0-3.19-15V31a3.15,3.15,0,0,1,1.39-2.667A14.512,14.512,0,1,0,71.355,12.8,43.562,43.562,0,0,0,37.1,10.548V1.613H27.42V27.42H24.193V8.065H14.517V27.42H11.29v-12.9H1.613V30.645H13.447a43.42,43.42,0,0,0-2.872,35.483,6.385,6.385,0,0,0-.9,3.225H6.452a4.845,4.845,0,0,0-4.833,4.833v8.065H4.833a3.226,3.226,0,1,1,0,6.452H1.613v8.065A4.845,4.845,0,0,0,6.447,101.6h19.36a4.845,4.845,0,0,0,4.833-4.833V88.71H27.42a3.226,3.226,0,1,1,0-6.452h3.225V74.193a4.845,4.845,0,0,0-4.833-4.833H22.58a6.458,6.458,0,0,0-6.452-6.452,6.363,6.363,0,0,0-2.962.758,40.092,40.092,0,0,1-1.8-10.435H30.65V50h-19.3a40.137,40.137,0,0,1,5.842-19.355H37.1V14A39.958,39.958,0,0,1,50,11.333V30.645h3.225v-19.3a40.278,40.278,0,0,1,17.748,4.912,14.408,14.408,0,0,0,6.7,12.1,3.167,3.167,0,0,1,1.355,2.688v4.435a4.845,4.845,0,0,0,4.833,4.833H87.09a4.792,4.792,0,0,0,2.922-1A40.055,40.055,0,0,1,91.895,50H72.58v3.225H87.138a7.982,7.982,0,0,0-1.655,4.833V73.473a40.113,40.113,0,0,1-32.258,18.41V72.58H50V91.892a39.9,39.9,0,0,1-15.39-3.707L33.248,91.11A43.568,43.568,0,0,0,85.483,78.977V90.7l4.287,8.575a4.223,4.223,0,0,0,7.555,0l4.287-8.575V58.065a8.075,8.075,0,0,0-6.487-7.9ZM8.065,27.42H4.833V17.742H8.065Zm11.29,41.935V72.58h6.452a1.615,1.615,0,0,1,1.613,1.613v4.833a6.452,6.452,0,1,0,0,12.9v4.833a1.615,1.615,0,0,1-1.613,1.613H6.452a1.615,1.615,0,0,1-1.613-1.613V91.93a6.452,6.452,0,0,0,0-12.9V74.193A1.615,1.615,0,0,1,6.452,72.58H12.9V69.355a3.226,3.226,0,1,1,6.452,0ZM17.742,11.29h3.225V27.418H17.742ZM33.87,27.418H30.645V4.833H33.87Zm45.543-1.777A11.287,11.287,0,0,1,84.167,4.913,12.048,12.048,0,0,1,85.5,4.838,11.157,11.157,0,0,1,93,7.707a11.282,11.282,0,0,1-1.422,17.918,6.3,6.3,0,0,0-2.85,5.022H87.1v-9.98a4.833,4.833,0,1,0-3.225,0v9.975H82.233a6.287,6.287,0,0,0-2.82-5Zm4.457-9.513a1.613,1.613,0,1,1,1.613,1.613,1.613,1.613,0,0,1-1.613-1.613ZM87.1,37.1H83.872a1.615,1.615,0,0,1-1.613-1.613V33.87H88.71v1.613A1.615,1.615,0,0,1,87.1,37.1Zm11.29,20.968v1.613H88.71V58.065a4.838,4.838,0,0,1,9.677,0ZM95.167,88.71V62.9h3.225V88.71Zm-6.452,0V62.9H91.94V88.71Zm5.725,9.123a1.035,1.035,0,0,1-1.782,0l-2.952-5.9H97.39Z" fill="#3d6e72"/>
          <path id="Path_9989" data-name="Path 9989" d="M51.613,38.71a12.9,12.9,0,1,0,12.9,12.9,12.9,12.9,0,0,0-12.9-12.9Zm0,22.58a9.677,9.677,0,1,1,9.677-9.677A9.677,9.677,0,0,1,51.613,61.29Z" fill="#3d6e72"/>
          <path id="Path_9990" data-name="Path 9990" d="M56.667,88.368a37.147,37.147,0,0,0,22.078-11.46l-2.36-2.2A33.915,33.915,0,0,1,56.232,85.167Z" fill="#af650f"/>
          <path id="Path_9991" data-name="Path 9991" d="M83.745,70.167l-2.792-1.613a34.1,34.1,0,0,1-2.013,3.08l2.6,1.908A37.262,37.262,0,0,0,83.745,70.167Z" fill="#af650f"/>
        </g>
      </g>
    </g>
  </g>
</svg>
