<svg xmlns="http://www.w3.org/2000/svg" xmlns:xlink="http://www.w3.org/1999/xlink" width="100" height="100" viewBox="0 0 100 100">
  <defs>
    <clipPath id="clip-path">
      <rect id="Rectangle_2117" data-name="Rectangle 2117" width="100" height="100" transform="translate(-21787 -17138)" fill="#fff" stroke="#707070" stroke-width="1"/>
    </clipPath>
  </defs>
  <g id="Mask_Group_201" data-name="Mask Group 201" transform="translate(21787 17138)" clip-path="url(#clip-path)">
    <g id="Technology" transform="translate(-21790.049 -17141.037)">
      <path id="Path_9997" data-name="Path 9997" d="M100.065,34.342H84.408a3.043,3.043,0,0,0-3.136,2.94v3.332h-17.2a3.043,3.043,0,0,0-3.136,2.94V76.611H6.185c-.044,0-.2-.131-.2-.2v-6.25H57.818v-2.94H5.989V16.943c0-.044.131,0,.2,0H90.679c.044,0,0-.044,0,0v14.09h2.94V16.943A2.874,2.874,0,0,0,90.679,14H6.185a3.043,3.043,0,0,0-3.136,2.94V76.416a3.209,3.209,0,0,0,3.136,3.136H39.046v9.582H32.8v2.94H64.09v-2.94H57.644V79.551h3.332v3.136a3.209,3.209,0,0,0,3.136,3.136H90.723a3.043,3.043,0,0,0,2.94-3.136V71.733h6.446a3.043,3.043,0,0,0,2.94-3.136V37.282A2.937,2.937,0,0,0,100.065,34.342ZM54.682,89.112H41.964V79.53H54.682ZM84.429,37.282h15.658c.044,0,0-.044,0,0v3.332H84.233V37.282C84.233,37.217,84.364,37.282,84.429,37.282Zm-.2,6.25h15.854V62.5H84.233Zm6.446,39.329H64.068c-.044,0-.2-.131-.2-.2V79.53H90.679v3.136C90.679,82.709,90.745,82.862,90.679,82.862Zm0-6.272H63.894V43.532c0-.044.152,0,.2,0h17.2V68.576a3.209,3.209,0,0,0,3.136,3.136h6.25Zm9.386-7.818H84.408c-.044,0-.2-.131-.2-.2V65.44h15.854v3.136C100.065,68.641,100.131,68.772,100.065,68.772Z" fill="#3d6e72"/>
      <path id="Path_9998" data-name="Path 9998" d="M40.614,60.954H43.75v2.94H40.614Z" fill="#af650f"/>
      <path id="Path_9999" data-name="Path 9999" d="M46.864,60.954H50v2.94H46.864Z" fill="#af650f"/>
      <path id="Path_10000" data-name="Path 10000" d="M53.114,60.954H56.25v2.94H53.114Z" fill="#af650f"/>
      <path id="Path_10001" data-name="Path 10001" d="M12.239,27.9v-4.7h4.9v-2.94H9.3v7.622h2.94Z" fill="#af650f"/>
      <path id="Path_10002" data-name="Path 10002" d="M65.636,51.372h2.94V48.236h3.332V45.3h-6.25v6.076Z" fill="#af650f"/>
      <path id="Path_10003" data-name="Path 10003" d="M86,45.3V51.35h2.94V48.214h3.332V45.3Z" fill="#af650f"/>
      <g id="Group_6989" data-name="Group 6989">
        <g id="Group_6988" data-name="Group 6988">
          <path id="Path_10004" data-name="Path 10004" d="M48.323,36.825a2.7,2.7,0,1,1,2.7-2.7,2.091,2.091,0,0,0,4.181,0,6.725,6.725,0,0,0-4.878-6.577v-.632a2.091,2.091,0,0,0-4.181,0v.7a6.87,6.87,0,0,0,2.178,13.393,2.7,2.7,0,0,1,2.7,2.7,2.7,2.7,0,0,1-5.4,0,2.091,2.091,0,1,0-4.181,0,6.949,6.949,0,0,0,4.726,6.533v.7a2.091,2.091,0,1,0,4.181-.022v-.632a6.725,6.725,0,0,0,4.878-6.577A6.929,6.929,0,0,0,48.323,36.825Z" fill="#af650f"/>
        </g>
      </g>
      <g id="Group_6991" data-name="Group 6991">
        <g id="Group_6990" data-name="Group 6990">
          <path id="Path_10005" data-name="Path 10005" d="M77.287,59.713a1.5,1.5,0,1,1,1.5-1.5,1.154,1.154,0,1,0,2.308,0,3.738,3.738,0,0,0-2.722-3.659V54.2a1.162,1.162,0,0,0-1.154-1.154A1.192,1.192,0,0,0,76.067,54.2v.392a3.886,3.886,0,0,0-2.439,4.878,3.846,3.846,0,0,0,3.659,2.613,1.5,1.5,0,1,1-1.5,1.5,1.162,1.162,0,0,0-1.154-1.154,1.192,1.192,0,0,0-1.154,1.154,3.908,3.908,0,0,0,2.635,3.659v.392a1.154,1.154,0,1,0,2.308-.022v-.348a3.776,3.776,0,0,0,2.722-3.659A3.885,3.885,0,0,0,77.287,59.713Z" fill="#af650f"/>
        </g>
      </g>
      <g id="Group_6993" data-name="Group 6993">
        <g id="Group_6992" data-name="Group 6992">
          <path id="Path_10006" data-name="Path 10006" d="M92.139,54.029a.943.943,0,0,1-.936-.936.929.929,0,0,1,.936-.936.943.943,0,0,1,.936.936.719.719,0,1,0,1.437,0,2.314,2.314,0,0,0-1.677-2.265V50.61a.719.719,0,1,0-1.437,0v.24a2.356,2.356,0,0,0,.74,4.595.943.943,0,0,1,.936.936.936.936,0,0,1-1.873,0,.719.719,0,1,0-1.437,0,2.389,2.389,0,0,0,1.611,2.243v.24a.719.719,0,1,0,1.437,0v-.218a2.359,2.359,0,0,0-.675-4.617Z" fill="#af650f"/>
        </g>
      </g>
    </g>
  </g>
</svg>
