<svg xmlns="http://www.w3.org/2000/svg" width="35.984" height="35.421" viewBox="0 0 35.984 35.421"><defs><style>.a{fill:#f89522;}</style></defs><g transform="translate(4.169 15.492)"><path class="a" d="M62.772,228.058a.528.528,0,0,0,.528-.528v-.366a1.629,1.629,0,0,0-1.465-1.619v-.579a.528.528,0,1,0-1.056,0v.6a1.81,1.81,0,0,0,.345,3.586h.366a.753.753,0,0,1,0,1.507h-.549a.571.571,0,0,1-.57-.57.528.528,0,1,0-1.056,0,1.629,1.629,0,0,0,1.465,1.619v.579a.528.528,0,0,0,1.056,0v-.6a1.81,1.81,0,0,0-.345-3.586h-.366a.753.753,0,1,1,0-1.507h.549a.571.571,0,0,1,.57.57v.366A.528.528,0,0,0,62.772,228.058Z" transform="translate(-59.314 -224.438)"/></g><g transform="translate(15.999 1.972)"><path class="a" d="M231.1,35.682a.528.528,0,0,0,.528-.528v-.366a1.629,1.629,0,0,0-1.465-1.619V32.59a.528.528,0,0,0-1.056,0v.6a1.81,1.81,0,0,0,.345,3.586h.366a.753.753,0,1,1,0,1.507h-.549a.571.571,0,0,1-.57-.57.528.528,0,0,0-1.056,0,1.629,1.629,0,0,0,1.465,1.619v.578a.528.528,0,1,0,1.056,0v-.6a1.81,1.81,0,0,0-.345-3.586h-.366a.753.753,0,0,1,0-1.507H230a.571.571,0,0,1,.57.57v.366A.528.528,0,0,0,231.1,35.682Z" transform="translate(-227.643 -32.062)"/></g><g transform="translate(0 0)"><path class="a" d="M29.823,14.148a6.135,6.135,0,0,0-4,1.481l-2.615-2.179a6.162,6.162,0,1,0-9.4,1.236L9.5,18.514a6.182,6.182,0,1,0,.848.66l4.306-3.827a6.151,6.151,0,0,0,7.913-1.053l2.51,2.092a6.159,6.159,0,1,0,4.746-2.237ZM11.267,23.69a5.105,5.105,0,1,1-5.105-5.105A5.111,5.111,0,0,1,11.267,23.69Zm6.725-8.415A5.105,5.105,0,1,1,23.1,10.17,5.111,5.111,0,0,1,17.992,15.275Zm11.83,10.14a5.1,5.1,0,0,1-3.761-8.554.522.522,0,0,0,.312-.312,5.1,5.1,0,1,1,3.448,8.866Z" transform="translate(0 -4.008)"/></g><g transform="translate(27.83 12.112)"><path class="a" d="M399.428,179.964a.528.528,0,0,0,.528-.528v-.366a1.629,1.629,0,0,0-1.465-1.619v-.578a.528.528,0,1,0-1.056,0v.6a1.81,1.81,0,0,0,.345,3.586h.366a.754.754,0,1,1,0,1.507H397.6a.571.571,0,0,1-.57-.57.528.528,0,1,0-1.056,0,1.629,1.629,0,0,0,1.465,1.619v.579a.528.528,0,1,0,1.056,0v-.6a1.81,1.81,0,0,0-.345-3.586h-.366a.753.753,0,0,1,0-1.507h.549a.571.571,0,0,1,.57.57v.366A.528.528,0,0,0,399.428,179.964Z" transform="translate(-395.97 -176.344)"/></g><g transform="translate(6.197 27.604)"><path class="a" d="M93.207,396.775H88.7a.528.528,0,0,0-.528.528v6.76a.528.528,0,0,0,.528.528h4.507a.528.528,0,0,0,.528-.528V397.3A.528.528,0,0,0,93.207,396.775Zm-.528,6.76H89.228v-5.7h3.451Z" transform="translate(-88.172 -396.775)"/></g><g transform="translate(28.168 27.604)"><path class="a" d="M405.818,396.775h-4.507a.528.528,0,0,0-.528.528v6.76a.528.528,0,0,0,.528.528h4.507a.528.528,0,0,0,.528-.528V397.3A.528.528,0,0,0,405.818,396.775Zm-.528,6.76h-3.451v-5.7h3.451Z" transform="translate(-400.783 -396.775)"/></g><g transform="translate(13.52 20.844)"><path class="a" d="M197.41,309.566a.528.528,0,0,0,.528-.528v-7.922a.528.528,0,0,0-.528-.528H192.9a.528.528,0,0,0-.528.528v13.521a.528.528,0,0,0,.528.528h4.507a.528.528,0,0,0,.528-.528V311.5a.528.528,0,1,0-1.056,0v2.605h-3.451V301.643h3.451v7.394A.528.528,0,0,0,197.41,309.566Z" transform="translate(-192.375 -300.587)"/></g><g transform="translate(20.844 24.224)"><path class="a" d="M301.614,348.681h-4.507a.528.528,0,0,0-.528.528V359.35a.528.528,0,0,0,.528.528h4.507a.528.528,0,0,0,.528-.528V349.209A.528.528,0,0,0,301.614,348.681Zm-.528,10.14h-3.451v-9.084h3.451Z" transform="translate(-296.579 -348.681)"/></g></svg>