<svg xmlns="http://www.w3.org/2000/svg" xmlns:xlink="http://www.w3.org/1999/xlink" width="100" height="100" viewBox="0 0 100 100">
  <defs>
    <clipPath id="clip-path">
      <rect id="Rectangle_2119" data-name="Rectangle 2119" width="100" height="100" transform="translate(-10982 -8502)" fill="#fff" stroke="#707070" stroke-width="1"/>
    </clipPath>
    <clipPath id="clip-path-2">
      <rect id="Rectangle_2000" data-name="Rectangle 2000" width="100" height="100" transform="translate(134.787 -45.087)" fill="#f5f6f6" stroke="#707070" stroke-width="1.429"/>
    </clipPath>
  </defs>
  <g id="Mask_Group_203" data-name="Mask Group 203" transform="translate(10982 8502)" clip-path="url(#clip-path)">
    <g id="Mask_Group_148" data-name="Mask Group 148" transform="translate(-11116.787 -8456.913)" clip-path="url(#clip-path-2)">
      <g id="Market_Orders" data-name="Market Orders" transform="translate(127.541 -52.349)">
        <path id="Path_8122" data-name="Path 8122" d="M81.436,60.467a20.96,20.96,0,1,0,20.951,20.969A20.96,20.96,0,0,0,81.436,60.467Zm0,38.7a17.73,17.73,0,1,1,17.73-17.73,17.73,17.73,0,0,1-17.73,17.73Z" fill="#af650f"/>
        <path id="Path_8123" data-name="Path 8123" d="M105.61,20.167a1.619,1.619,0,0,0,0-3.239h-1.62V13.706h1.619a1.619,1.619,0,1,0,0-3.239H103.99V8.881a1.619,1.619,0,1,0-3.239,0V10.5H94.309a1.609,1.609,0,0,0-1.143.474l-25.309,25.3H39.516a1.609,1.609,0,0,0-1.143.474l-25.8,25.81A1.68,1.68,0,0,0,12.1,63.7V99.181H8.881a1.619,1.619,0,0,0,0,3.239H66.4a25.787,25.787,0,0,0,37.553-33.513,1.224,1.224,0,0,0,.033-.343V58.9h1.619a1.619,1.619,0,1,0,0-3.239H103.99V52.437h1.619a1.619,1.619,0,1,0,0-3.239H103.99V45.96h1.619a1.619,1.619,0,0,0,0-3.239H103.99V39.5h1.619a1.619,1.619,0,0,0,0-3.239H103.99V33.039h1.619a1.619,1.619,0,0,0,0-3.239H103.99V26.571h1.619a1.619,1.619,0,0,0,0-3.239H103.99V20.117h1.619ZM15.324,64.36,40.17,39.516H68.531a1.609,1.609,0,0,0,1.143-.474L95,13.706h5.79V24.991H94.34a1.609,1.609,0,0,0-1.143.474L67.857,50.8H39.516a1.609,1.609,0,0,0-1.143.474L15.326,74.321Zm0,14.507L40.17,54.023H68.531a1.609,1.609,0,0,0,1.143-.474L95,28.23h5.79V39.516H94.34a1.609,1.609,0,0,0-1.143.474l-16,16a25.857,25.857,0,0,0-16.013,9.486,1.484,1.484,0,0,0-.7-.163H39.516a1.609,1.609,0,0,0-1.143.474L15.326,88.829Zm85.46-36.129V64.393a25.741,25.741,0,0,0-18.694-8.75L95,42.739h5.79ZM15.324,99.167V93.376L40.17,68.531H59.094a25.741,25.741,0,0,0,3.62,30.634ZM104,81.436A22.571,22.571,0,1,1,81.429,58.864,22.571,22.571,0,0,1,104,81.436Z" fill="#3d6e72"/>
        <path id="Path_8124" data-name="Path 8124" d="M64.9,104H60.471a1.619,1.619,0,0,0,0,3.239H64.9a1.619,1.619,0,0,0,0-3.239Z" fill="#af650f"/>
        <path id="Path_8125" data-name="Path 8125" d="M52.4,104H47.976a1.619,1.619,0,1,0,0,3.239H52.4a1.619,1.619,0,0,0,0-3.239Z" fill="#af650f"/>
        <path id="Path_8126" data-name="Path 8126" d="M39.516,104H35.087a1.619,1.619,0,0,0,0,3.239h4.429a1.619,1.619,0,1,0,0-3.239Z" fill="#af650f"/>
        <path id="Path_8127" data-name="Path 8127" d="M26.611,104H22.183a1.619,1.619,0,0,0,0,3.239h4.429a1.619,1.619,0,1,0,0-3.239Z" fill="#af650f"/>
        <path id="Path_8128" data-name="Path 8128" d="M13.706,104H9.277a1.619,1.619,0,0,0,0,3.239h4.429a1.619,1.619,0,0,0,0-3.239Z" fill="#af650f"/>
        <path id="Path_8129" data-name="Path 8129" d="M12.1,18.547H34.674a1.619,1.619,0,0,0,0-3.239H12.1a1.619,1.619,0,0,0,0,3.239Z" fill="#af650f"/>
        <path id="Path_8130" data-name="Path 8130" d="M12.1,13.706H34.674a1.619,1.619,0,0,0,0-3.239H12.1a1.619,1.619,0,0,0,0,3.239Z" fill="#af650f"/>
        <path id="Path_8131" data-name="Path 8131" d="M12.1,23.389H34.674a1.619,1.619,0,0,0,0-3.239H12.1a1.619,1.619,0,0,0,0,3.239Z" fill="#af650f"/>
        <path id="Path_8132" data-name="Path 8132" d="M12.1,28.23h9.666a1.619,1.619,0,1,0,0-3.239H12.1a1.619,1.619,0,0,0,0,3.239Z" fill="#af650f"/>
        <path id="Path_8133" data-name="Path 8133" d="M26.611,24.991a1.619,1.619,0,1,0,0,3.239H28.23a1.619,1.619,0,1,0,0-3.239Z" fill="#af650f"/>
        <path id="Path_8134" data-name="Path 8134" d="M81.436,90.056A3.463,3.463,0,0,1,77.984,86.6h-3.45A6.9,6.9,0,0,0,79.7,93.261v3.7h3.451v-3.7A6.889,6.889,0,0,0,81.42,79.7a3.451,3.451,0,1,1,3.451-3.451h3.451a6.9,6.9,0,0,0-5.169-6.657V65.9H79.7v3.7a6.889,6.889,0,0,0,1.734,13.559,3.451,3.451,0,1,1,0,6.9Z" fill="#af650f"/>
      </g>
    </g>
  </g>
</svg>
