<svg xmlns="http://www.w3.org/2000/svg" xmlns:xlink="http://www.w3.org/1999/xlink" width="60" height="60" viewBox="0 0 60 60"><defs><style>.a{fill:#fff;stroke:#707070;}.b{clip-path:url(#a);}.c{fill:#af650f;}.d{fill:#3d6e72;}</style><clipPath id="a"><rect class="a" width="60" height="60" transform="translate(2133 2989)"/></clipPath></defs><g class="b" transform="translate(-2133 -2989)"><g transform="translate(2132.117 2988.117)"><path class="c" d="M4.765,26.029H9.618a.971.971,0,1,0,0-1.941H4.765a.971.971,0,0,0,0,1.941Z"/><path class="c" d="M7.676,27.971A.979.979,0,0,0,6.706,27H4.765a.971.971,0,1,0,0,1.941H6.706A.979.979,0,0,0,7.676,27.971Z"/><path class="c" d="M13.5,55.059H7.676a.971.971,0,1,0,0,1.941H13.5a.971.971,0,1,0,0-1.941Z"/><path class="c" d="M17.294,55.059h-.971a.971.971,0,1,0,0,1.941h.971a.979.979,0,0,0,.971-.971A.926.926,0,0,0,17.294,55.059Z"/><path class="d" d="M57,.882H37.676a3.917,3.917,0,0,0-3.882,3.882H31.853a.979.979,0,0,0-.971.971V7.676H15.441a8.755,8.755,0,0,0-8.735,8.735v1.941H4.765a.979.979,0,0,0-.971.971v2.029A3.867,3.867,0,0,0,.882,25.059V57a3.917,3.917,0,0,0,3.882,3.882H24.088A3.917,3.917,0,0,0,27.971,57h1.941a.979.979,0,0,0,.971-.971V54.088H46.324a8.755,8.755,0,0,0,8.735-8.735V43.412H57a.979.979,0,0,0,.971-.971V40.412a3.867,3.867,0,0,0,2.912-3.706V4.765A3.917,3.917,0,0,0,57,.882ZM32.824,6.706h.971v3.882h-.971ZM5.735,20.206H9.618v.971H5.735ZM26.029,57a1.958,1.958,0,0,1-1.941,1.941H4.765A1.958,1.958,0,0,1,2.824,57V25.059a1.958,1.958,0,0,1,1.941-1.941H24.088a1.958,1.958,0,0,1,1.941,1.941Zm2.912-1.941h-.971V51.176h.971Zm24.176-9.618a6.8,6.8,0,0,1-6.794,6.794H30.882V50.294a.979.979,0,0,0-.971-.971H27.971V25.059a3.917,3.917,0,0,0-3.882-3.882H11.559V19.235a.979.979,0,0,0-.971-.971H8.647V16.324a6.8,6.8,0,0,1,6.794-6.794H30.882v1.941a.979.979,0,0,0,.971.971h1.941V36.618A3.917,3.917,0,0,0,37.676,40.5H50.294v1.941a.979.979,0,0,0,.971.971h1.941v2.029Zm2.912-3.882H52.147v-.971h3.882Zm2.912-4.853A1.958,1.958,0,0,1,57,38.647H37.676a1.958,1.958,0,0,1-1.941-1.941V4.765a1.958,1.958,0,0,1,1.941-1.941H57a1.958,1.958,0,0,1,1.941,1.941V36.706Z"/><path class="c" d="M14.471,27.971a8.735,8.735,0,1,0,8.735,8.735A8.813,8.813,0,0,0,14.471,27.971Zm0,1.941a6.584,6.584,0,0,1,4.059,1.324l-4.412,4.412H7.765A6.687,6.687,0,0,1,14.471,29.912Zm0,13.588a6.821,6.821,0,0,1-6.706-5.824h6l2.029,5.647A6.811,6.811,0,0,1,14.471,43.5Zm3.088-.794-2.029-5.735,4.324-4.324a6.741,6.741,0,0,1-1.324,9.441,5.935,5.935,0,0,1-.971.618Z"/><path class="c" d="M37.676,5.735h4.853a.971.971,0,1,0,0-1.941H37.676a.971.971,0,1,0,0,1.941Z"/><path class="c" d="M37.676,8.647h1.941a.971.971,0,0,0,0-1.941H37.676a.971.971,0,1,0,0,1.941Z"/><path class="c" d="M54.088,31.853h-13.5a.971.971,0,0,0,0,1.941H54.176a.979.979,0,0,0,.971-.971A1.128,1.128,0,0,0,54.088,31.853Z"/><path class="c" d="M46.324,34.765H40.588a.971.971,0,0,0,0,1.941h5.824a.979.979,0,0,0,.971-.971A1,1,0,0,0,46.324,34.765Z"/><path class="c" d="M50.206,34.765h-.971a.971.971,0,1,0,0,1.941h.971a.971.971,0,0,0,0-1.941Z"/><path class="c" d="M57,23.118h-.971V11.559a.979.979,0,0,0-.971-.971H52.147a.979.979,0,0,0-.971.971V23.206h-.971V15.441a.979.979,0,0,0-.971-.971H46.324a.979.979,0,0,0-.971.971v7.765h-.971V11.559a.979.979,0,0,0-.971-.971H40.588a.979.979,0,0,0-.971.971V23.206H37.676a.971.971,0,0,0,0,1.941H57a.979.979,0,0,0,.971-.971A1,1,0,0,0,57,23.118Zm-14.471,0h-.971V12.529h.971Zm5.735,0h-.971V16.324h.971Zm5.824,0h-.971V12.529h.971Z"/><path class="c" d="M17.206,52.412H11.647a.884.884,0,0,0-.882.882v.529h7.412v-.441A1.043,1.043,0,0,0,17.206,52.412Z"/><path class="c" d="M14.471,46.412l-3.706,2.294v.882h.882v2.294h1.412V49.588h.706v2.294h1.412V49.588h.706v2.294h1.412V49.588h.882v-.882Zm0,1.412a.441.441,0,1,1-.441.441c-.088-.265.176-.441.441-.441Z"/><g transform="translate(-12.243 6.7)"><g transform="translate(12.244 -6.7)"><g transform="translate(0 13.197)"><path class="c" d="M44.559,17.118h-.706V14.735l-.794,2.206h-.618l-.794-2.118v2.382h-.618V13.5h.882l.882,2.559.971-2.559h.794v3.618Z"/><g transform="translate(61.106)"><path class="c" d="M-14.382,17.118h-.706V13.941h-1.235v-.529h3.176v.529h-1.235v3.176Z"/></g><g transform="translate(116.889)"><path class="c" d="M-68.029,17.118h-.706V13.412h2.206v.529h-1.5V15h1.235v.529h-1.235Z"/></g></g><g transform="translate(118.961)"><path class="c" d="M-67.588,26.647h-.882l.971,1.676a3.577,3.577,0,0,0,.441-.794Z"/><path class="c" d="M-66.441,30.353h.882l-1.147-1.941a3.838,3.838,0,0,1-.529.618Z"/><path class="c" d="M-66.265,26.118c-.088.176-.265.794-.706,1.676-.176.265-.265.441-.441.706a14.122,14.122,0,0,1-3.265,3.265,17.718,17.718,0,0,0,3.529-2.824,4.894,4.894,0,0,0,.529-.706,12.6,12.6,0,0,0,1.324-2.382Z"/></g></g></g></g></g></svg>