<svg xmlns="http://www.w3.org/2000/svg" xmlns:xlink="http://www.w3.org/1999/xlink" width="40" height="40" viewBox="0 0 40 40"><defs><style>.a{fill:#fff;stroke:#707070;}.b{clip-path:url(#a);}.c{fill:#3d6e72;}.d{fill:#af650f;}</style><clipPath id="a"><rect class="a" width="40" height="40" transform="translate(308 1436)"/></clipPath></defs><g class="b" transform="translate(-308 -1436)"><g transform="translate(306.782 1434.781)"><path class="c" d="M7.541,12.882l-1.134-.7a15.457,15.457,0,0,0-.764,1.388l1.194.588C7.05,13.731,7.287,13.3,7.541,12.882Z"/><path class="c" d="M5.032,14.961a17.176,17.176,0,0,0-.824,9.705l1.3-.267a15.848,15.848,0,0,1,.758-8.954Z"/><path class="c" d="M35.154,2.552a.66.66,0,0,0-.746.139l-1.97,1.97A20.034,20.034,0,0,0,8.8,5.529l.831,1.043a18.7,18.7,0,0,1,22.5-.509A.663.663,0,0,0,32.99,6l1.121-1.128-.406,6.953-6.953.406.934-.934a.668.668,0,0,0-.139-1.049,12.745,12.745,0,0,0-13.373.418l.74,1.109A11.406,11.406,0,0,1,26.1,10.985L24.57,12.518a.667.667,0,0,0,.473,1.14h.036l9.293-.546A.662.662,0,0,0,35,12.488l.546-9.293A.637.637,0,0,0,35.154,2.552Z"/><path class="c" d="M32.936,37.4l-.782-1.079a18.6,18.6,0,0,1-21.854.012.663.663,0,0,0-.861.067L8.317,37.525l.406-6.953,6.953-.406-.934.934a.668.668,0,0,0,.139,1.049,12.744,12.744,0,0,0,13.343-.4l-.74-1.1a11.392,11.392,0,0,1-11.16.764l1.534-1.534a.659.659,0,0,0,.133-.74.679.679,0,0,0-.643-.394l-9.293.546a.662.662,0,0,0-.624.624L6.887,39.2a.667.667,0,0,0,1.14.509L10,37.743A19.875,19.875,0,0,0,32.936,37.4Z"/><path class="c" d="M5.353,33.384l1.055-.812a18.755,18.755,0,0,1-.339-22.29A.663.663,0,0,0,6,9.421L4.88,8.3l6.953.406.406,6.953-.934-.934a.668.668,0,0,0-1.049.139,12.745,12.745,0,0,0,.418,13.373l1.109-.74A11.38,11.38,0,0,1,11,16.313l1.534,1.534a.67.67,0,0,0,1.14-.515l-.546-9.293a.662.662,0,0,0-.624-.624L3.213,6.868a.678.678,0,0,0-.649.394.658.658,0,0,0,.139.746l1.97,1.97A20.072,20.072,0,0,0,5.353,33.384Z"/><path class="c" d="M30.183,26.74l.934.934a.668.668,0,0,0,1.049-.139,12.683,12.683,0,0,0,.018-12.664l-1.152.667a11.36,11.36,0,0,1,.394,10.56l-1.534-1.534a.669.669,0,0,0-.74-.133.679.679,0,0,0-.394.643l.546,9.293a.662.662,0,0,0,.624.624l9.293.546h.036a.667.667,0,0,0,.467-1.14l-1.958-1.964a20.09,20.09,0,0,0-.691-23.418l-1.055.812a18.755,18.755,0,0,1,.339,22.29.663.663,0,0,0,.067.861l1.115,1.128-6.953-.412Z"/><path class="d" d="M21.211,24.533A3.334,3.334,0,1,0,17.877,21.2,3.332,3.332,0,0,0,21.211,24.533Zm0-5.335a2,2,0,1,1-2,2A2,2,0,0,1,21.211,19.2Z"/><path class="d" d="M13.882,19.2a.665.665,0,0,0-.667.667v2.667a.665.665,0,0,0,.667.667h.976a6.435,6.435,0,0,0,.449,1.079l-.691.691a.662.662,0,0,0,0,.94L16.5,27.795a.662.662,0,0,0,.94,0l.691-.691a6.985,6.985,0,0,0,1.079.449v.976a.665.665,0,0,0,.667.667h2.667a.665.665,0,0,0,.667-.667v-.976a6.435,6.435,0,0,0,1.079-.449l.691.691a.662.662,0,0,0,.94,0l1.885-1.885a.662.662,0,0,0,0-.94l-.691-.691a6.435,6.435,0,0,0,.449-1.079h.976a.665.665,0,0,0,.667-.667V19.866a.665.665,0,0,0-.667-.667h-.976a6.435,6.435,0,0,0-.449-1.079l.691-.691a.662.662,0,0,0,0-.94L25.922,14.6a.662.662,0,0,0-.94,0l-.691.691a6.985,6.985,0,0,0-1.079-.449V13.87a.665.665,0,0,0-.667-.667H19.878a.665.665,0,0,0-.667.667v.976a6.435,6.435,0,0,0-1.079.449l-.691-.691a.662.662,0,0,0-.94,0l-1.885,1.885a.662.662,0,0,0,0,.94l.691.691a6.985,6.985,0,0,0-.449,1.079Zm1.485,1.334a.661.661,0,0,0,.649-.521,5.313,5.313,0,0,1,.685-1.649.669.669,0,0,0-.091-.824l-.582-.582.946-.94.582.582a.661.661,0,0,0,.824.091A5.313,5.313,0,0,1,20.029,16a.667.667,0,0,0,.521-.649v-.818h1.334v.818a.661.661,0,0,0,.521.649,5.313,5.313,0,0,1,1.649.685.669.669,0,0,0,.824-.091l.582-.582.94.94-.582.582a.661.661,0,0,0-.091.824,5.313,5.313,0,0,1,.685,1.649.667.667,0,0,0,.649.521h.818v1.334h-.818a.667.667,0,0,0-.649.521,5.313,5.313,0,0,1-.685,1.649.669.669,0,0,0,.091.824l.582.582-.94.94-.582-.582a.661.661,0,0,0-.824-.091,5.313,5.313,0,0,1-1.649.685.667.667,0,0,0-.521.649v.818H20.551v-.818a.661.661,0,0,0-.521-.649,5.313,5.313,0,0,1-1.649-.685.669.669,0,0,0-.824.091l-.582.582-.94-.94.582-.582a.661.661,0,0,0,.091-.824,5.313,5.313,0,0,1-.685-1.649.667.667,0,0,0-.649-.521h-.824V20.532Z"/></g></g></svg>