<svg xmlns="http://www.w3.org/2000/svg" xmlns:xlink="http://www.w3.org/1999/xlink" width="60" height="60" viewBox="0 0 60 60">
  <defs>
    <clipPath id="clip-path">
      <rect id="Rectangle_2114" data-name="Rectangle 2114" width="60" height="60" transform="translate(432 3190)" fill="#fff" stroke="#707070" stroke-width="1"/>
    </clipPath>
    <clipPath id="clip-path-2">
      <rect id="Rectangle_2114-2" data-name="Rectangle 2114" width="60" height="60" transform="translate(524.4 3834)" fill="#fff" stroke="#707070" stroke-width="1.2"/>
    </clipPath>
    <clipPath id="clip-path-3">
      <rect id="Rectangle_2114-3" data-name="Rectangle 2114" width="60" height="60" transform="translate(-16537 -22700)" fill="#fff" stroke="#707070" stroke-width="1"/>
    </clipPath>
  </defs>
  <g id="Mask_Group_199" data-name="Mask Group 199" transform="translate(-432 -3190)" clip-path="url(#clip-path)">
    <g id="Mask_Group_199-2" data-name="Mask Group 199" transform="translate(-92.4 -644)" clip-path="url(#clip-path-2)">
      <g id="Mask_Group_199-3" data-name="Mask Group 199" transform="translate(17061.4 26534)" clip-path="url(#clip-path-3)">
        <g id="Mask_Group_61" data-name="Mask Group 61" transform="translate(-16537.021 -22699.891)">
          <g id="Mask_Group_61-2" data-name="Mask_Group_61" transform="translate(-48.53)">
            <g id="BatchPayment" transform="translate(46.478 -2.423)">
              <path id="Path_6677" d="M22.37,57a.943.943,0,1,0,0,1.886h1.8a.943.943,0,1,0,0-1.886Z" fill="#af650f"/>
              <path id="Path_6678" d="M29.914,57a.943.943,0,1,0,0,1.886H34.2A.943.943,0,0,0,34.2,57Z" fill="#af650f"/>
              <path id="Path_6679" d="M41.743,58.8a.943.943,0,0,0,0-1.886h-1.8a.943.943,0,0,0,0,1.886Z" fill="#af650f"/>
              <path id="Path_6680" d="M19.028,40.886a.952.952,0,0,0,.943.943H44.228a.952.952,0,0,0,.943-.943h0V16.628a.95.95,0,0,0-.943-.943H19.97a.95.95,0,0,0-.943.943h0V40.886Zm1.8-23.314H43.286V40.028H20.83Z" fill="#af650f"/>
              <path id="Path_6681" d="M32.057,27.857c-1.8,0-2.743-.857-2.743-2.4a2.582,2.582,0,0,1,2.743-2.4A2.8,2.8,0,0,1,34.628,24.6a.923.923,0,0,0,1.714-.686h0A4.481,4.481,0,0,0,33,21.343v-1.03a.943.943,0,1,0-1.886,0v1.03a4.384,4.384,0,0,0-3.686,4.114c0,2.057,1.2,4.2,4.543,4.2,1.8,0,2.743.857,2.743,2.4a2.582,2.582,0,0,1-2.743,2.4,2.8,2.8,0,0,1-2.57-1.543.923.923,0,1,0-1.714.686,4.481,4.481,0,0,0,3.343,2.57V37.2a.943.943,0,1,0,1.886,0h0V36.17A4.384,4.384,0,0,0,36.6,32.057C36.6,30.086,35.4,27.857,32.057,27.857Z" fill="#af650f"/>
              <path id="Path_6682" d="M58.114,28.114,53.57,23.57V6.943A4.573,4.573,0,0,0,49.03,2.4H32.057a.973.973,0,0,0-.686.257l-8.485,8.486a.9.9,0,0,0,.6,1.543H40.457a.952.952,0,0,0,.943-.943.973.973,0,0,0-.257-.686L34.2,4.114H48.943a2.708,2.708,0,0,1,2.743,2.743V21.6L49.63,19.543a.9.9,0,0,0-1.543.6v16.97a1.032,1.032,0,0,0,.6.857.515.515,0,0,0,.343.086.973.973,0,0,0,.686-.257l2.057-2.057V53.228H38.143a.943.943,0,1,0,0,1.886H51.77v2.743A2.708,2.708,0,0,1,49.028,60.6H15.086a2.708,2.708,0,0,1-2.743-2.743V55.114H32.057a.973.973,0,0,0,.686-.257L41.23,46.37a.912.912,0,0,0,.17-1.028.932.932,0,0,0-.857-.6H23.57a1.032,1.032,0,0,0-.857.6.912.912,0,0,0,.17,1.03l6.943,6.943H12.343V35.828L14.4,37.886a.973.973,0,0,0,.686.257.515.515,0,0,0,.343-.086.932.932,0,0,0,.6-.857V20.314a1.032,1.032,0,0,0-.6-.857.912.912,0,0,0-1.03.172l-2.057,2.057V6.943A2.708,2.708,0,0,1,15.086,4.2H25.972a.943.943,0,0,0,0-1.886H15.086a4.573,4.573,0,0,0-4.543,4.543v16.63L6,28.114A.932.932,0,0,0,6,29.4H6l4.543,4.543V57.77a4.573,4.573,0,0,0,4.543,4.543H49.028a4.573,4.573,0,0,0,4.543-4.543V34.028l4.543-4.543a.96.96,0,0,0,0-1.37Zm-19.8-17.228H25.8l6.257-6.257ZM25.8,46.63H38.4l-6.257,6.257ZM7.886,28.8l6.257-6.257v12.6Zm42.086,6.257v-12.6l6.257,6.257Z" fill="#3d6e72"/>
            </g>
          </g>
        </g>
      </g>
    </g>
  </g>
</svg>
