<svg xmlns="http://www.w3.org/2000/svg" xmlns:xlink="http://www.w3.org/1999/xlink" width="140" height="70" viewBox="0 0 140 70">
  <defs>
    <clipPath id="clip-path">
      <rect id="Rectangle_2555" data-name="Rectangle 2555" width="140" height="70" transform="translate(10)" fill="#f89522" stroke="#707070" stroke-width="1"/>
    </clipPath>
  </defs>
  <g id="Mask_Group_2890" data-name="Mask Group 2890" transform="translate(-10)" clip-path="url(#clip-path)">
    <g id="table-1111184" transform="translate(27.273 -7.184)">
      <path id="Path_16390" data-name="Path 16390" d="M38.767,36.7a8.527,8.527,0,1,0-8.527-8.527A8.527,8.527,0,0,0,38.767,36.7Zm-.582-12.571v-.36a.514.514,0,0,1,1.029,0v.36a2.837,2.837,0,0,1,2.172,1.192.757.757,0,1,1-1.331.72,1.194,1.194,0,0,0-.841-.613v2.087l.5.1c1.434.314,2.148,1.058,2.148,2.272,0,1.395-.955,2.27-2.652,2.445v.248a.514.514,0,0,1-1.029,0v-.242a2.938,2.938,0,0,1-2.375-1.2.756.756,0,0,1,.654-1.142h.075a.766.766,0,0,1,.677.418,1.324,1.324,0,0,0,.97.644V28.857l-.449-.105a2.277,2.277,0,0,1-2.07-2.254c0-1.331.929-2.2,2.519-2.373Z" fill="#f89522"/>
      <path id="Path_16391" data-name="Path 16391" d="M38.186,27.3V25.416a.974.974,0,0,0-.9.94c0,.457.313.778.9.939Z" fill="#f89522"/>
      <path id="Path_16392" data-name="Path 16392" d="M40.283,30.061c0-.52-.341-.844-1.07-1.009v2.019C39.888,31,40.283,30.628,40.283,30.061Z" fill="#f89522"/>
      <path id="Path_16393" data-name="Path 16393" d="M88.147,12.9H85.961l3.13-3.128V12.25h1.547V7.184H85.353V8.73h2.6L83.775,12.9H17.31a2.623,2.623,0,0,0-2.623,2.625V62.753a2.623,2.623,0,0,0,2.623,2.623H43.492v.431L43.218,68,42.4,74.559h-.164a1.312,1.312,0,0,0,0,2.625H63.221a1.312,1.312,0,0,0,0-2.625h-.164L62.236,68h0l-.266-2.124v-.5H88.143a2.623,2.623,0,0,0,2.623-2.623V15.529a2.619,2.619,0,0,0-2.621-2.623ZM31.959,53.57v.413H19.551l.225-.413h-.029l.06-.057L31.7,42.224a2.593,2.593,0,0,0,.255.121Zm6.807,0v.413H33.889V42.344a2.338,2.338,0,0,0,.268-.129l3.164,2.971c-.011.036-.021.073-.032.109a2.529,2.529,0,0,0,1.478,3.027V53.57Zm3.376-8.384,10.591-9.461,1.307-1.168.027.016a2.456,2.456,0,0,0,.292.145V53.982H40.7V48.323a2.536,2.536,0,0,0,1.445-3.137Zm18.343-6.858V53.982H56.291V34.718a2.36,2.36,0,0,0,.348-.178,2.554,2.554,0,0,0,.294-.205l2.007,1.3a2.458,2.458,0,0,0-.025.324c0,.008,0,.015,0,.022a2.537,2.537,0,0,0,1.57,2.346ZM52.728,63.408A1.968,1.968,0,1,1,54.7,61.44a1.968,1.968,0,0,1-1.968,1.968Zm23.545-9.838v.413H62.418V38.327a2.53,2.53,0,0,0,1.394-3.272L76.1,22.765c.056.028.114.055.171.08V53.57ZM74.7,20.5A2.518,2.518,0,0,0,75,21.682L62.827,33.852a2.529,2.529,0,0,0-3.209.38l-1.846-1.2a2.536,2.536,0,1,0-4.763.37L41.228,43.93a2.525,2.525,0,0,0-2.987,0l-3.026-2.84A2.508,2.508,0,0,0,35.462,40a2.537,2.537,0,1,0-4.821,1.1L18.623,52.5V16.84H79.839l-1.416,1.416A2.536,2.536,0,0,0,74.7,20.5ZM86.835,53.57v.413H78.2V22.844A2.536,2.536,0,0,0,79.775,20.5a2.511,2.511,0,0,0-.271-1.136l2.522-2.522h4.81Z" fill="#f89522"/>
    </g>
  </g>
</svg>
