<svg xmlns="http://www.w3.org/2000/svg" xmlns:xlink="http://www.w3.org/1999/xlink" width="60" height="60" viewBox="0 0 60 60"><defs><style>.a{fill:#fff;stroke:#707070;}.b{clip-path:url(#a);}.c{fill:#af650f;}.d{fill:#3d6e72;}</style><clipPath id="a"><rect class="a" width="60" height="60" transform="translate(2133 2989)"/></clipPath></defs><g class="b" transform="translate(-2133 -2989)"><g transform="translate(2131.844 2987.889)"><path class="c" d="M44.622,30.133A13.511,13.511,0,1,0,31.111,43.644,13.505,13.505,0,0,0,44.622,30.133ZM31.111,41.778A11.556,11.556,0,1,1,42.667,30.222,11.589,11.589,0,0,1,31.111,41.778Z"/><path class="c" d="M32.089,22.489V20.444H30.133V22.4a4.326,4.326,0,0,0,.533,8.622h.978a2.4,2.4,0,1,1,0,4.8h-.978a2.39,2.39,0,0,1-2.4-2.4v-.444H26.311v.444a4.257,4.257,0,0,0,3.822,4.267v1.956h1.956V37.689a4.326,4.326,0,0,0-.533-8.622h-.978a2.4,2.4,0,0,1,0-4.8h.978a2.39,2.39,0,0,1,2.4,2.4v.444h1.956v-.444A4.236,4.236,0,0,0,32.089,22.489Z"/><path class="d" d="M3.111,8.889H28.267v5.778h1.956V5.956a4.78,4.78,0,0,0-4.8-4.8H5.956a4.78,4.78,0,0,0-4.8,4.8V43.644H3.111Zm0-2.933A2.959,2.959,0,0,1,6.044,3.022H25.333a2.959,2.959,0,0,1,2.933,2.933v.978H3.111Z"/><rect class="d" width="9.689" height="1.956" transform="translate(10.844 49.422)"/><path class="d" d="M1.156,50.4a4.78,4.78,0,0,0,4.8,4.8H25.244a4.78,4.78,0,0,0,4.8-4.8V45.6H1.156Zm1.956-2.844H28.267v2.933a2.959,2.959,0,0,1-2.933,2.933H5.956a2.959,2.959,0,0,1-2.933-2.933V47.556Z"/><path class="d" d="M56.267,6.933H36.889a4.78,4.78,0,0,0-4.8,4.8v2.933H59.2V49.422h1.956v-37.6A4.992,4.992,0,0,0,56.267,6.933ZM59.111,12.8H34.044v-.978a2.959,2.959,0,0,1,2.933-2.933H56.267A2.959,2.959,0,0,1,59.2,11.822V12.8Z"/><rect class="d" width="9.689" height="1.956" transform="translate(41.778 55.289)"/><path class="d" d="M34.044,45.6H32.089V56.267a4.78,4.78,0,0,0,4.8,4.8H56.178a4.78,4.78,0,0,0,4.8-4.8v-4.8H34.044Zm25.067,7.733v2.933A2.959,2.959,0,0,1,56.178,59.2H36.889a2.959,2.959,0,0,1-2.933-2.933V53.333Z"/><path class="c" d="M46.578,32.089v1.956h2.844V40.8l8-10.667-8-10.578v6.756H46.578v1.867h4.8V25.333l3.644,4.8-3.644,4.8V32.089Z"/><path class="c" d="M15.644,28.178V26.311H12.8V19.556l-8,10.578,8,10.667V34.044h2.844V32.089h-4.8v2.844L7.2,30.133l3.644-4.8v2.844Z"/><rect class="d" width="1.956" height="1.956" transform="translate(47.556 45.6)"/><rect class="d" width="1.956" height="1.956" transform="translate(43.644 45.6)"/><rect class="d" width="1.956" height="1.956" transform="translate(39.822 45.6)"/><rect class="d" width="1.956" height="1.956" transform="translate(20.444 12.8)"/><rect class="d" width="1.956" height="1.956" transform="translate(16.622 12.8)"/><rect class="d" width="1.956" height="1.956" transform="translate(12.8 12.8)"/></g></g></svg>