<?xml version="1.0" encoding="utf-8"?>
<!-- Generator: Adobe Illustrator 21.0.2, SVG Export Plug-In . SVG Version: 6.00 Build 0)  -->
<svg version="1.1" id="Layer_1" xmlns="http://www.w3.org/2000/svg" xmlns:xlink="http://www.w3.org/1999/xlink" x="0px" y="0px"
	 viewBox="0 0 237.7 112.3" style="enable-background:new 0 0 237.7 112.3;" xml:space="preserve">
<style type="text/css">
	.st0{fill:#F89522;}
</style>
<g id="Group_2545" transform="translate(-13.875 7.593)">
	<g id="Group_7" transform="translate(13.876 -7.593)">
		<g id="Group_4" transform="translate(0 15.102)">
			<g id="Group_1">
				<path id="Path_1" class="st0" d="M66.1,70.5H53.5V24.9L38.3,66H26.5L11.9,25.1v45.3H0V0h16.3l17.2,47.9L51.2,0h14.9V70.5z"/>
			</g>
			<g id="Group_2" transform="translate(69.924)">
				<path id="Path_2" class="st0" d="M36.9,70.5H23.7V10.9H0V0h60.6v10.9H36.9V70.5z"/>
			</g>
			<g id="Group_3" transform="translate(133.757)">
				<path id="Path_3" class="st0" d="M13.3,70.5H0V0h41.1v10.9H13.3v18.6h23.3v10.8H13.3V70.5z"/>
			</g>
		</g>
		<g id="Group_6" transform="translate(136.129)">
			<g id="Group_5">
				<path id="Path_4" class="st0" d="M59.2,15.1H42.1l18.3,32.6c3.5-5.1,6.5-9.9,9.1-14.3L59.2,15.1z"/>
				<path id="Path_5" class="st0" d="M81.5,85.6h17.1l-21-37.6c-3.2,4.4-6.6,8.5-10.1,12.5L81.5,85.6z"/>
				<path id="Path_6" class="st0" d="M85.1,4.9C84.2,7.8,80.5,19.5,70.8,36c-2.6,4.4-5.6,9.2-9.1,14.2C48.8,68.6,29.2,90.6,0,112.3
					c23.8-14.4,46.7-31.5,66.2-54.1c3.5-4,6.8-8.2,10-12.6C86.5,31.5,95,16.2,101.6,0L85.1,4.9z"/>
			</g>
		</g>
	</g>
</g>
</svg>
