<svg xmlns="http://www.w3.org/2000/svg" xmlns:xlink="http://www.w3.org/1999/xlink" width="60" height="60" viewBox="0 0 60 60"><defs><style>.a,.c{fill:#fff;}.a{stroke:#707070;}.b{clip-path:url(#a);}</style><clipPath id="a"><rect class="a" width="60" height="60" transform="translate(432 3190)"/></clipPath></defs><g class="b" transform="translate(-432 -3190)"><g transform="translate(431.168 3189.101)"><path class="c" d="M60.723,5.376A4.669,4.669,0,0,0,56.316.969C51.557.705,42.127.969,33.138,5.64A45.267,45.267,0,0,0,19.83,16.657l-.176.176-8.813.705a4.577,4.577,0,0,0-3.525,2.115l-5.9,8.989a3.186,3.186,0,0,0,2.2,4.935l7.4,1.146c0,.176-.088.264-.088.441a4.611,4.611,0,0,0,1.322,4.054L22.562,49.53a4.773,4.773,0,0,0,3.261,1.41,2.44,2.44,0,0,0,.793-.088c.176,0,.264-.088.441-.088l1.146,7.4a3.345,3.345,0,0,0,1.851,2.468,3.536,3.536,0,0,0,1.322.264,3.178,3.178,0,0,0,1.763-.529l9.078-5.993a4.831,4.831,0,0,0,2.115-3.525l.705-8.813.176-.176A45.267,45.267,0,0,0,56.228,28.555c4.495-8.989,4.759-18.42,4.495-23.179Zm-20.535,46-8.637,5.729-1.146-7.227a38.7,38.7,0,0,0,10.752-5.112L40.717,50.5a1.073,1.073,0,0,1-.529.881ZM25.029,46.974,14.718,36.663a1.325,1.325,0,0,1-.353-.969,23.7,23.7,0,0,1,1.41-5.2L31.2,45.917a31.1,31.1,0,0,1-5.2,1.41,1.325,1.325,0,0,1-.969-.353Zm-13.837-26,5.729-.441A38.7,38.7,0,0,0,11.81,31.287L4.583,30.141,10.311,21.5A1.073,1.073,0,0,1,11.193,20.975ZM42.832,39.13a38.3,38.3,0,0,1-8.108,5.288l-17.45-17.45a39.128,39.128,0,0,1,5.288-8.108A41.422,41.422,0,0,1,34.724,8.725,42.871,42.871,0,0,1,56.14,4.495,1.072,1.072,0,0,1,57.2,5.552a43.025,43.025,0,0,1-4.23,21.416A43.1,43.1,0,0,1,42.832,39.13Z"/><path class="c" d="M41.951,28.555A8.822,8.822,0,0,0,48.12,26a8.67,8.67,0,0,0,2.556-6.169A8.522,8.522,0,0,0,48.12,13.66a8.777,8.777,0,0,0-12.427,0,8.67,8.67,0,0,0-2.556,6.169A8.522,8.522,0,0,0,35.693,26a9.028,9.028,0,0,0,6.257,2.556ZM38.161,16.04a5.123,5.123,0,0,1,3.7-1.5,5.349,5.349,0,0,1,3.7,1.5,5.322,5.322,0,0,1,0,7.4,5.266,5.266,0,0,1-7.4,0,5.322,5.322,0,0,1,0-7.4Z"/><path class="c" d="M2.732,50.235a1.74,1.74,0,0,0,1.234-.529l5.729-5.729A1.745,1.745,0,0,0,7.227,41.51L1.5,47.239a1.7,1.7,0,0,0,0,2.468A1.479,1.479,0,0,0,2.732,50.235Z"/><path class="c" d="M14.894,46.8a1.7,1.7,0,0,0-2.468,0L1.41,57.814a1.7,1.7,0,0,0,0,2.468,1.74,1.74,0,0,0,1.234.529,1.74,1.74,0,0,0,1.234-.529L14.894,49.266a1.7,1.7,0,0,0,0-2.468Z"/><path class="c" d="M17.714,52l-5.729,5.729a1.7,1.7,0,0,0,0,2.468,1.7,1.7,0,0,0,2.468,0l5.729-5.729a1.7,1.7,0,0,0,0-2.468A1.876,1.876,0,0,0,17.714,52Z"/></g></g></svg>