<svg xmlns="http://www.w3.org/2000/svg" xmlns:xlink="http://www.w3.org/1999/xlink" width="70" height="70" viewBox="0 0 70 70"><defs><style>.a,.c{fill:#f89522;}.a{stroke:#707070;}.b{clip-path:url(#a);}</style><clipPath id="a"><rect class="a" width="70" height="70" transform="translate(73.647)"/></clipPath></defs><g class="b" transform="translate(-73.647)"><g transform="translate(70.076 -4.02)"><path class="c" d="M73.422,38.468,56.442,10.186a1.06,1.06,0,0,0-1.955.376l-1.27,7.6H4.629a1.053,1.053,0,0,0-.917.53,1.069,1.069,0,0,0,0,1.061L14.726,39.02,3.712,58.287a1.069,1.069,0,0,0,0,1.061,1.053,1.053,0,0,0,.917.53h48.6l1.27,7.6a1.045,1.045,0,0,0,.851.862,1.217,1.217,0,0,0,.2.022,1.038,1.038,0,0,0,.906-.519L73.422,39.561A1.077,1.077,0,0,0,73.422,38.468ZM56.11,64.286l-.939-5.645a1.067,1.067,0,0,0-1.05-.884H6.463L16.87,39.55a1.048,1.048,0,0,0,0-1.05L6.463,20.283h47.67a1.067,1.067,0,0,0,1.05-.884l.939-5.645L71.279,39.02Z"/><path class="c" d="M21.6,23.819a1.061,1.061,0,0,0-1.061,1.061,3.183,3.183,0,0,1-3.182,3.182,1.053,1.053,0,0,0-.917.53,1.069,1.069,0,0,0,0,1.061L21.8,39.02l-5.358,9.368a1.069,1.069,0,0,0,0,1.061,1.053,1.053,0,0,0,.917.53,3.183,3.183,0,0,1,3.182,3.182A1.061,1.061,0,0,0,21.6,54.221H55.536A1.061,1.061,0,0,0,56.6,53.161a3.183,3.183,0,0,1,3.182-3.182,1.077,1.077,0,0,0,.917-.53l5.656-9.9a1.048,1.048,0,0,0,0-1.05L60.7,28.6a1.053,1.053,0,0,0-.917-.53A3.183,3.183,0,0,1,56.6,24.89a1.061,1.061,0,0,0-1.061-1.061H21.6Zm37.551,6.319,5.071,8.871L59.149,47.88a5.319,5.319,0,0,0-4.563,4.209H22.559a5.315,5.315,0,0,0-3.524-3.966l4.905-8.584a1.048,1.048,0,0,0,0-1.05l-4.905-8.584a5.351,5.351,0,0,0,3.524-3.966H54.586A5.308,5.308,0,0,0,59.149,30.138Z"/><path class="c" d="M51.647,38.445v1.127A3.329,3.329,0,0,0,54.973,42.9H56.1a3.329,3.329,0,0,0,3.325-3.325V38.445A3.329,3.329,0,0,0,56.1,35.12H54.973A3.343,3.343,0,0,0,51.647,38.445Zm2.121,0a1.207,1.207,0,0,1,1.2-1.2H56.1a1.207,1.207,0,0,1,1.2,1.2v1.127a1.207,1.207,0,0,1-1.2,1.2H54.973a1.207,1.207,0,0,1-1.2-1.2Z"/><path class="c" d="M30.646,35.131H29.519a3.329,3.329,0,0,0-3.325,3.325v1.127a3.329,3.329,0,0,0,3.325,3.325h1.127a3.329,3.329,0,0,0,3.325-3.325V38.445A3.326,3.326,0,0,0,30.646,35.131Zm1.2,4.452a1.207,1.207,0,0,1-1.2,1.2H29.519a1.207,1.207,0,0,1-1.2-1.2V38.445a1.207,1.207,0,0,1,1.2-1.2h1.127a1.207,1.207,0,0,1,1.2,1.2Z"/><path class="c" d="M42.809,37.959c-1.933,0-2.906-.862-2.906-2.541a2.744,2.744,0,0,1,2.906-2.541,2.933,2.933,0,0,1,2.729,1.668,1.062,1.062,0,1,0,1.955-.829,4.883,4.883,0,0,0-3.624-2.85V29.828a1.061,1.061,0,1,0-2.121,0v1.027a4.762,4.762,0,0,0-3.966,4.552c0,2.254,1.326,4.662,5.027,4.662,1.933,0,2.917.851,2.917,2.541a2.744,2.744,0,0,1-2.906,2.541,2.933,2.933,0,0,1-2.729-1.668,1.062,1.062,0,1,0-1.955.829,4.914,4.914,0,0,0,3.613,2.85V48.2a1.061,1.061,0,0,0,2.121,0V47.173a4.766,4.766,0,0,0,3.977-4.563C47.847,40.368,46.521,37.959,42.809,37.959Z"/><path class="c" d="M18.063,65.888A1.061,1.061,0,0,0,17,64.827H6.043a1.061,1.061,0,0,0,0,2.121H17A1.061,1.061,0,0,0,18.063,65.888Z"/><path class="c" d="M47.051,66.948a1.061,1.061,0,0,0,0-2.121H24.073a1.061,1.061,0,0,0,0,2.121Z"/><path class="c" d="M32.093,71.9H7.457a1.061,1.061,0,1,0,0,2.121H32.082a1.061,1.061,0,0,0,.011-2.121Z"/><path class="c" d="M48.466,71.9h-9.3a1.061,1.061,0,1,0,0,2.121h9.3a1.061,1.061,0,0,0,0-2.121Z"/><path class="c" d="M6.043,13.213H11.7a1.061,1.061,0,0,0,0-2.121H6.043a1.061,1.061,0,0,0,0,2.121Z"/><path class="c" d="M18.77,11.092a1.061,1.061,0,0,0,0,2.121H32.325a1.061,1.061,0,0,0,0-2.121Z"/><path class="c" d="M39.4,11.092a1.061,1.061,0,0,0,0,2.121h7.656a1.061,1.061,0,0,0,0-2.121Z"/><path class="c" d="M7.457,6.142H24.426a1.061,1.061,0,0,0,0-2.121H7.457a1.061,1.061,0,1,0,0,2.121Z"/><path class="c" d="M31.5,6.142H48.466a1.061,1.061,0,0,0,0-2.121H31.5a1.061,1.061,0,0,0,0,2.121Z"/></g></g></svg>