<svg xmlns="http://www.w3.org/2000/svg" xmlns:xlink="http://www.w3.org/1999/xlink" width="70" height="70" viewBox="0 0 70 70"><defs><style>.a,.c{fill:#393939;}.a{stroke:#707070;}.b{clip-path:url(#a);}</style><clipPath id="a"><rect class="a" width="70" height="70" transform="translate(67 0.001)"/></clipPath></defs><g class="b" transform="translate(-67 -0.001)"><g transform="translate(65.756 -1.242)"><path class="c" d="M47.034,20.089H13.524a1.025,1.025,0,1,0,0,2.05h33.52a1.025,1.025,0,1,0-.01-2.05Z"/><path class="c" d="M13.524,15H30.279a1.025,1.025,0,1,0,0-2.05H13.524a1.025,1.025,0,0,0,0,2.05Z"/><path class="c" d="M47.034,26.417H13.524a1.025,1.025,0,0,0,0,2.05h33.52a1.025,1.025,0,1,0-.01-2.05Z"/><path class="c" d="M21.156,64.079H10.428A3.191,3.191,0,0,1,7.238,60.89V6.5a3.191,3.191,0,0,1,3.189-3.189h30.9a2.926,2.926,0,0,1,.3.021v6.42A5.257,5.257,0,0,0,46.879,15H53.3a2.735,2.735,0,0,1,.021.3V32.837a1.025,1.025,0,1,0,2.05,0V15.305a4.173,4.173,0,0,0-1.243-2.993L44.321,2.485a4.215,4.215,0,0,0-2.993-1.243h-30.9A5.272,5.272,0,0,0,5.178,6.5V60.89a5.257,5.257,0,0,0,5.25,5.25H21.156a1.03,1.03,0,0,0,0-2.061Zm30.7-51.135H46.868a3.191,3.191,0,0,1-3.189-3.189V4.763Z"/><path class="c" d="M66.989,51.653,58.27,36.927a2.249,2.249,0,0,0-3.1-.787l-2.123,1.253a4.042,4.042,0,0,0-1.781,4.7,3.141,3.141,0,0,1-2.216-.021C47.376,41.546,46.1,40.489,44,41.018c-3.573.911-3.459.859-3.79.973-2.092-1.191-3.345-1.543-5.571-.683l-1.978.766a3.2,3.2,0,0,1-2.775-.228l-.538-.321A4.032,4.032,0,0,0,27.431,37.4h0l-2.123-1.253a2.272,2.272,0,0,0-3.1.787L13.493,51.663a2.269,2.269,0,0,0,.787,3.1L16.4,56.012a3.963,3.963,0,0,0,2.04.559,4.035,4.035,0,0,0,2.2-.652l.445.259-.932,1.3a3.456,3.456,0,0,0,.787,4.815,3.415,3.415,0,0,0,2.547.6,3.471,3.471,0,0,0,1.388,2.226,3.37,3.37,0,0,0,2.547.6,3.457,3.457,0,0,0,4.763,2.589,3.531,3.531,0,0,0,1.2,1.564,3.455,3.455,0,0,0,4.66-.59l2.485,1.47a3.45,3.45,0,0,0,4.732-1.212,3.409,3.409,0,0,0,.456-1.346h.01a3.459,3.459,0,0,0,4.732-1.212,3.542,3.542,0,0,0,.476-1.5A3.469,3.469,0,0,0,54.749,63.9a3.546,3.546,0,0,0,.466-1.4,3.45,3.45,0,0,0,4.608-4.07,3.513,3.513,0,0,0-.7-1.367l1.367-.8a3.987,3.987,0,0,0,3.583-.259l2.123-1.253a2.26,2.26,0,0,0,.8-3.107Zm-49.53,2.578-2.123-1.253a.2.2,0,0,1-.072-.269l8.719-14.725a.2.2,0,0,1,.269-.072l2.123,1.253a1.967,1.967,0,0,1,.694,2.692L20.152,53.537a1.962,1.962,0,0,1-2.692.694Zm4.7,6.389a1.4,1.4,0,0,1-.321-1.947l1.377-1.916a1.4,1.4,0,1,1,2.268,1.626L24.107,60.3A1.4,1.4,0,0,1,22.16,60.62ZM26.1,63.447a1.4,1.4,0,0,1-.321-1.947l1.377-1.916h0l1.512-2.112a1.4,1.4,0,0,1,.9-.559,1.693,1.693,0,0,1,.228-.021,1.414,1.414,0,0,1,.808.259,1.4,1.4,0,0,1,.559.9,1.414,1.414,0,0,1-.238,1.036l-2.889,4.018A1.368,1.368,0,0,1,26.1,63.447Zm3.935,2.827a1.4,1.4,0,0,1-.321-1.947h0L32.6,60.31a1.4,1.4,0,0,1,2.268,1.626l-1.284,1.791h0l-1.605,2.237a1.412,1.412,0,0,1-1.947.311ZM34.608,68.2a1.4,1.4,0,0,1-.321-1.947l.963-1.336a1.4,1.4,0,1,1,2.268,1.626l-.963,1.336A1.394,1.394,0,0,1,34.608,68.2ZM57.69,59.989a1.389,1.389,0,0,1-1.905.487c-1.118-.663-8.346-4.94-9.113-5.4a1.028,1.028,0,0,0-1.046,1.771l6.886,4.08h0a1.391,1.391,0,0,1-1.419,2.392c-2.547-1.512-4.618-2.734-6.9-4.08a1.028,1.028,0,0,0-1.046,1.771l5.074,3h0a1.391,1.391,0,0,1-1.419,2.392l-2.723-1.615h0l-1.988-1.181a1.028,1.028,0,0,0-1.046,1.771l1.988,1.181h0a1.391,1.391,0,0,1-1.419,2.392L39.3,67.579a3.456,3.456,0,0,0-.88-4.681,3.386,3.386,0,0,0-1.429-.6,3.448,3.448,0,0,0-3.769-4.618,3.449,3.449,0,0,0-5.851-1.854,3.39,3.39,0,0,0-.984-1.087,3.469,3.469,0,0,0-3.821-.135l-.476-.28L28.56,43.4l.311.186a5.233,5.233,0,0,0,4.567.383l1.978-.766a3.05,3.05,0,0,1,2.879.062,4.608,4.608,0,0,0-1.17,3.065V50.9a2.2,2.2,0,0,0,2.2,2.2h0a4.537,4.537,0,0,0,3.221-1.336,4.638,4.638,0,0,0,1.1-1.75c1.325.787,12.313,7.29,13.586,8.046a1.394,1.394,0,0,1,.642.849,1.622,1.622,0,0,1-.176,1.087Zm7.466-7.011-2.123,1.253a1.971,1.971,0,0,1-2.692-.694L57.1,48.059a1.028,1.028,0,1,0-1.771,1.046l3.241,5.478c.062.1.124.2.2.3l-.9.528a4.681,4.681,0,0,0-.528.352l-13.99-8.284a1.032,1.032,0,0,0-1.553.891,2.635,2.635,0,0,1-.735,1.957,2.483,2.483,0,0,1-1.76.725h0a.14.14,0,0,1-.135-.145V46.34a2.555,2.555,0,0,1,1.926-2.475L44.507,43c1.243-.311,1.947.352,3.8.973a5.225,5.225,0,0,0,3.935-.062l.621,1.046a1.028,1.028,0,1,0,1.771-1.046l-1.222-2.061a1.962,1.962,0,0,1,.694-2.692L56.23,37.9a.191.191,0,0,1,.269.072L65.218,52.7a.2.2,0,0,1-.062.28Z"/></g></g></svg>