<svg xmlns="http://www.w3.org/2000/svg" xmlns:xlink="http://www.w3.org/1999/xlink" width="100" height="100" viewBox="0 0 100 100"><defs><style>.a{fill:#fff;stroke:#707070;}.b{clip-path:url(#a);}.c{fill:#af650f;}.d{fill:#3d6e72;}</style><clipPath id="a"><rect class="a" width="100" height="100" transform="translate(330.499)"/></clipPath></defs><g class="b" transform="translate(-330.499)"><g transform="translate(326.017 -4.482)"><rect class="c" width="26.661" height="3.331" transform="translate(23.435 28.728) rotate(-45)"/><rect class="c" width="3.331" height="26.661" transform="translate(23.435 12.242) rotate(-45)"/><path class="d" d="M104.467,17.821V4.482H91.144V7.813h7.331L82.879,20.28l-1.634,17.9L63.409,43.035,45.868,70.163,27.424,51.735,11.144,81.323V6.148A1.667,1.667,0,0,0,9.479,4.482H6.148a1.665,1.665,0,0,0,0,3.331H7.813V24.482H6.148a1.665,1.665,0,0,0,0,3.331H7.813v15H6.148a1.665,1.665,0,1,0,0,3.331H7.813v15H6.148a1.665,1.665,0,1,0,0,3.331H7.813v15H6.148a1.665,1.665,0,1,0,0,3.331H7.813v15H6.148a1.665,1.665,0,0,0,0,3.331H7.813v1.665a1.665,1.665,0,0,0,3.331,0v-1.665h15v1.665a1.665,1.665,0,0,0,3.331,0v-1.665h15v1.665a1.665,1.665,0,0,0,3.331,0v-1.665h15v1.665a1.665,1.665,0,0,0,3.331,0v-1.665h15v1.665a1.665,1.665,0,0,0,3.331,0v-1.665h16.669v1.665a1.665,1.665,0,0,0,3.331,0V94.49h-3.331v3.331H84.467V94.49H81.136v3.331h-15V94.49H62.8v3.331h-15V94.49H44.467v3.331h-15V94.49H26.148v3.331h-15V88.249L27.875,57.837h.9L45.447,74.475h-.981v3.331H47.8V74.475h-.763L62.8,50.117v1.027h3.331V47.813H64.3l1.23-1.9L81.136,41.65v2.817h3.331V41.136H83.019l1.339-.358,1.712-18.77L101.136,9.961v7.86h3.331Z"/><rect class="c" width="3.331" height="3.331" transform="translate(26.148 87.798)"/><rect class="c" width="3.331" height="3.331" transform="translate(26.148 81.136)"/><rect class="c" width="3.331" height="3.331" transform="translate(26.148 74.475)"/><rect class="c" width="3.331" height="3.331" transform="translate(26.148 67.798)"/><rect class="c" width="3.331" height="3.331" transform="translate(26.148 61.136)"/><rect class="c" width="3.331" height="3.331" transform="translate(44.482 87.798)"/><rect class="c" width="3.331" height="3.331" transform="translate(44.482 81.136)"/><rect class="c" width="3.331" height="3.331" transform="translate(62.802 87.798)"/><rect class="c" width="3.331" height="3.331" transform="translate(62.802 81.136)"/><rect class="c" width="3.331" height="3.331" transform="translate(62.802 74.475)"/><rect class="c" width="3.331" height="3.331" transform="translate(62.802 67.798)"/><rect class="c" width="3.331" height="3.331" transform="translate(62.802 61.136)"/><rect class="c" width="3.331" height="3.331" transform="translate(62.802 54.475)"/><rect class="c" width="3.331" height="3.331" transform="translate(81.136 87.798)"/><rect class="c" width="3.331" height="3.331" transform="translate(81.136 81.136)"/><rect class="c" width="3.331" height="3.331" transform="translate(81.136 74.475)"/><rect class="c" width="3.331" height="3.331" transform="translate(81.136 67.798)"/><rect class="c" width="3.331" height="3.331" transform="translate(81.136 61.136)"/><rect class="c" width="3.331" height="3.331" transform="translate(81.136 54.475)"/><rect class="c" width="3.331" height="3.331" transform="translate(81.136 47.813)"/><rect class="c" width="3.331" height="3.331" transform="translate(101.136 87.798)"/><rect class="c" width="3.331" height="3.331" transform="translate(101.136 81.136)"/><rect class="c" width="3.331" height="3.331" transform="translate(101.136 74.475)"/><rect class="c" width="3.331" height="3.331" transform="translate(101.136 67.798)"/><rect class="c" width="3.331" height="3.331" transform="translate(101.136 61.136)"/><rect class="c" width="3.331" height="3.331" transform="translate(101.136 54.475)"/><rect class="c" width="3.331" height="3.331" transform="translate(101.136 47.813)"/><rect class="c" width="3.331" height="3.331" transform="translate(101.136 41.152)"/><rect class="c" width="3.331" height="3.331" transform="translate(101.136 34.475)"/><rect class="c" width="3.331" height="3.331" transform="translate(101.136 27.813)"/><rect class="c" width="3.331" height="3.331" transform="translate(101.136 21.152)"/></g></g></svg>