<svg xmlns="http://www.w3.org/2000/svg" xmlns:xlink="http://www.w3.org/1999/xlink" width="80" height="80" viewBox="0 0 80 80">
  <defs>
    <clipPath id="clip-path">
      <rect id="Rectangle_2552" data-name="Rectangle 2552" width="80" height="80" transform="translate(-2031 7757)" fill="#393939"/>
    </clipPath>
  </defs>
  <g id="send_money_worldwide_icon" transform="translate(2031 -7757)" clip-path="url(#clip-path)">
    <g id="send_money_worldwide_icon-2" data-name="send_money_worldwide_icon" transform="translate(-2034.715 7750.21)">
      <path id="Path_13387" data-name="Path 13387" d="M45.493,23.8H44.9V21.7h-2.8v2.1h-.812a4.2,4.2,0,0,0-4.2,4.2v1.4a4.2,4.2,0,0,0,4.2,4.2h4.2a1.4,1.4,0,0,1,1.4,1.4v1.4a1.4,1.4,0,0,1-1.4,1.4h-4.2a1.4,1.4,0,0,1-1.4-1.4v-1.4h-2.8v1.4a4.2,4.2,0,0,0,4.2,4.2h.35v1.988h2.8V40.593h1.05a4.2,4.2,0,0,0,4.2-4.2v-1.4a4.2,4.2,0,0,0-4.2-4.2h-4.2a1.4,1.4,0,0,1-1.4-1.4V28a1.4,1.4,0,0,1,1.4-1.4h4.2a1.4,1.4,0,0,1,1.4,1.4v1.4h2.8V28A4.2,4.2,0,0,0,45.493,23.8Z" fill="#f89522"/>
      <path id="Path_13388" data-name="Path 13388" d="M30.445,59.952l.35,12.836A1.4,1.4,0,0,0,33.3,73.6l3.6-4.689,11.59,16.8a1.4,1.4,0,0,0,1.148.6h.14a1.4,1.4,0,0,0,1.148-.84L69.681,41.713,83.595,9.239a1.4,1.4,0,0,0-1.848-1.848L58.413,17.567A21,21,0,0,0,22.4,32.195v1.05L4.549,41.055a1.4,1.4,0,0,0-.182,2.464Zm3.038,8.861-.14-4.983,1.876,2.716ZM67.105,40.593,49.356,82.013,33.595,59.322,78.107,14.81Zm-23.712,4.2a12.6,12.6,0,1,1,12.6-12.6v.854L44.247,44.793Zm32.7-31.873L63.34,25.672a20.829,20.829,0,0,0-3.01-5.879ZM43.393,14A18.2,18.2,0,0,1,61.072,28L58.665,30.4A15.4,15.4,0,1,0,41.531,47.466l-2.338,2.408A18.2,18.2,0,0,1,43.393,14ZM22.774,36.156a21,21,0,0,0,14.1,15.985l-5.249,5.249L8.091,42.553Z" fill="#393939"/>
    </g>
  </g>
</svg>
