<svg xmlns="http://www.w3.org/2000/svg" xmlns:xlink="http://www.w3.org/1999/xlink" width="100" height="100" viewBox="0 0 100 100">
  <defs>
    <clipPath id="clip-path">
      <rect id="Rectangle_2098" data-name="Rectangle 2098" width="100" height="100" transform="translate(527.557 1332)" fill="#fff" stroke="#707070" stroke-width="1"/>
    </clipPath>
  </defs>
  <g id="Mask_Group_184" data-name="Mask Group 184" transform="translate(-527.557 -1332)" clip-path="url(#clip-path)">
    <g id="_01_OutGoingPayment" data-name="01 OutGoingPayment" transform="translate(522.455 1326.258)">
      <path id="Path_9910" data-name="Path 9910" d="M104.889,54.954l-24.257-40.4a1.514,1.514,0,0,0-2.793.537L76.023,25.946H6.613A1.5,1.5,0,0,0,5.3,26.7a1.527,1.527,0,0,0,0,1.515L21.038,55.743,5.3,83.267a1.527,1.527,0,0,0,0,1.515,1.5,1.5,0,0,0,1.31.758H76.039L77.854,96.4a1.492,1.492,0,0,0,1.215,1.231,1.74,1.74,0,0,0,.284.032,1.483,1.483,0,0,0,1.294-.742l24.241-40.4A1.539,1.539,0,0,0,104.889,54.954ZM80.158,91.837l-1.341-8.065a1.524,1.524,0,0,0-1.5-1.263H9.233L24.1,56.5a1.5,1.5,0,0,0,0-1.5L9.233,28.976h68.1a1.524,1.524,0,0,0,1.5-1.263l1.341-8.065,21.653,36.094Z" fill="#3d6e72"/>
      <path id="Path_9911" data-name="Path 9911" d="M30.854,34.026a1.515,1.515,0,0,0-1.515,1.515,4.546,4.546,0,0,1-4.545,4.545,1.5,1.5,0,0,0-1.31.758,1.527,1.527,0,0,0,0,1.515l7.654,13.383L23.484,69.126a1.527,1.527,0,0,0,0,1.515,1.5,1.5,0,0,0,1.31.758,4.546,4.546,0,0,1,4.545,4.545,1.515,1.515,0,0,0,1.515,1.515H79.337a1.515,1.515,0,0,0,1.515-1.515A4.546,4.546,0,0,1,85.4,71.4a1.538,1.538,0,0,0,1.31-.758L94.788,56.5a1.5,1.5,0,0,0,0-1.5L86.707,40.86A1.5,1.5,0,0,0,85.4,40.1a4.546,4.546,0,0,1-4.545-4.545,1.515,1.515,0,0,0-1.515-1.515H30.854ZM84.5,43.054l7.244,12.673L84.5,68.4a7.6,7.6,0,0,0-6.518,6.013H32.227a7.592,7.592,0,0,0-5.035-5.666L34.2,56.485a1.5,1.5,0,0,0,0-1.5L27.193,42.722a7.644,7.644,0,0,0,5.035-5.666H77.98A7.582,7.582,0,0,0,84.5,43.054Z" fill="#af650f"/>
      <path id="Path_9912" data-name="Path 9912" d="M73.782,54.922v1.61a4.755,4.755,0,0,0,4.75,4.75h1.61a4.755,4.755,0,0,0,4.75-4.75v-1.61a4.755,4.755,0,0,0-4.75-4.75h-1.61A4.776,4.776,0,0,0,73.782,54.922Zm3.03,0a1.724,1.724,0,0,1,1.72-1.72h1.61a1.724,1.724,0,0,1,1.72,1.72v1.61a1.724,1.724,0,0,1-1.72,1.72h-1.61a1.724,1.724,0,0,1-1.72-1.72Z" fill="#af650f"/>
      <path id="Path_9913" data-name="Path 9913" d="M43.78,50.187H42.17a4.755,4.755,0,0,0-4.75,4.75v1.61a4.755,4.755,0,0,0,4.75,4.75h1.61a4.755,4.755,0,0,0,4.75-4.75V54.922A4.752,4.752,0,0,0,43.78,50.187Zm1.72,6.36a1.724,1.724,0,0,1-1.72,1.72H42.17a1.724,1.724,0,0,1-1.72-1.72V54.922a1.724,1.724,0,0,1,1.72-1.72h1.61a1.724,1.724,0,0,1,1.72,1.72Z" fill="#af650f"/>
      <path id="Path_9914" data-name="Path 9914" d="M61.156,54.228c-2.762,0-4.151-1.231-4.151-3.63a3.919,3.919,0,0,1,4.151-3.63,4.19,4.19,0,0,1,3.9,2.383,1.517,1.517,0,1,0,2.793-1.184A6.976,6.976,0,0,0,62.671,44.1V42.612a1.515,1.515,0,1,0-3.03,0V44.08a6.8,6.8,0,0,0-5.666,6.5c0,3.22,1.894,6.66,7.181,6.66,2.762,0,4.167,1.215,4.167,3.63a3.919,3.919,0,0,1-4.151,3.63,4.19,4.19,0,0,1-3.9-2.383A1.517,1.517,0,0,0,54.48,63.3a7.021,7.021,0,0,0,5.161,4.072v1.484a1.515,1.515,0,0,0,3.03,0V67.39a6.808,6.808,0,0,0,5.682-6.518C68.353,57.668,66.459,54.228,61.156,54.228Z" fill="#af650f"/>
      <path id="Path_9915" data-name="Path 9915" d="M25.8,94.125a1.515,1.515,0,0,0-1.515-1.515H8.633a1.515,1.515,0,1,0,0,3.03H24.289A1.515,1.515,0,0,0,25.8,94.125Z" fill="#3d6e72"/>
      <path id="Path_9916" data-name="Path 9916" d="M67.216,95.64a1.515,1.515,0,0,0,0-3.03H34.389a1.515,1.515,0,1,0,0,3.03Z" fill="#3d6e72"/>
      <path id="Path_9917" data-name="Path 9917" d="M45.847,102.711H10.653a1.515,1.515,0,1,0,0,3.03H45.832a1.515,1.515,0,0,0,.016-3.03Z" fill="#3d6e72"/>
      <path id="Path_9918" data-name="Path 9918" d="M69.237,102.711H55.948a1.515,1.515,0,0,0,0,3.03H69.237a1.515,1.515,0,0,0,0-3.03Z" fill="#3d6e72"/>
      <path id="Path_9919" data-name="Path 9919" d="M8.633,18.876h8.08a1.515,1.515,0,0,0,0-3.03H8.633a1.515,1.515,0,1,0,0,3.03Z" fill="#3d6e72"/>
      <path id="Path_9920" data-name="Path 9920" d="M26.814,15.845a1.515,1.515,0,0,0,0,3.03H46.179a1.515,1.515,0,0,0,0-3.03Z" fill="#3d6e72"/>
      <path id="Path_9921" data-name="Path 9921" d="M56.279,15.845a1.515,1.515,0,0,0,0,3.03H67.216a1.515,1.515,0,0,0,0-3.03Z" fill="#3d6e72"/>
      <path id="Path_9922" data-name="Path 9922" d="M10.653,8.775H34.894a1.515,1.515,0,0,0,0-3.03H10.653a1.515,1.515,0,0,0,0,3.03Z" fill="#3d6e72"/>
      <path id="Path_9923" data-name="Path 9923" d="M45,8.775H69.237a1.515,1.515,0,0,0,0-3.03H45a1.515,1.515,0,0,0,0,3.03Z" fill="#3d6e72"/>
    </g>
  </g>
</svg>
