<svg xmlns="http://www.w3.org/2000/svg" xmlns:xlink="http://www.w3.org/1999/xlink" width="140" height="70" viewBox="0 0 140 70">
  <defs>
    <clipPath id="clip-path">
      <rect id="Rectangle_2554" data-name="Rectangle 2554" width="140" height="70" transform="translate(15)" fill="#393939" stroke="#707070" stroke-width="1"/>
    </clipPath>
  </defs>
  <g id="Mask_Group_2886" data-name="Mask Group 2886" transform="translate(-15)" clip-path="url(#clip-path)">
    <g id="chart-1790503" transform="translate(21.419 -15.834)">
      <path id="Path_16394" data-name="Path 16394" d="M30.2,54.044a4.723,4.723,0,0,0,4.473-6.37L50.007,37.45h0a4.707,4.707,0,0,0,5.829-.715l14.158,5.148h0a4.756,4.756,0,1,0,9.06-2.51L94.836,24.909a4.707,4.707,0,0,0,2.124.524,4.8,4.8,0,1,0-4.339-2.816L76.839,37.082a4.711,4.711,0,0,0-2.132-.523,4.769,4.769,0,0,0-4,2.2L57.176,33.839c.014-.159.046-.3.046-.459a4.769,4.769,0,0,0-9.537,0,4.691,4.691,0,0,0,.3,1.6L32.647,45.2h0a4.7,4.7,0,0,0-2.446-.7,4.769,4.769,0,0,0,0,9.537Z" fill="#393939"/>
      <path id="Path_16395" data-name="Path 16395" d="M104.908,82.655V33.38a1.589,1.589,0,0,0-1.59-1.59H90.6a1.59,1.59,0,0,0-1.59,1.589V82.655H82.655v-30.2a1.589,1.589,0,0,0-1.59-1.59H68.349a1.59,1.59,0,0,0-1.59,1.589v30.2H60.4V44.506a1.589,1.589,0,0,0-1.59-1.59H46.1a1.59,1.59,0,0,0-1.59,1.589V82.655H38.148V60.4a1.589,1.589,0,0,0-1.59-1.59H23.843a1.59,1.59,0,0,0-1.59,1.589V82.655H15.9v3.179h95.371V82.655Z" fill="#393939"/>
    </g>
  </g>
</svg>
