<svg xmlns="http://www.w3.org/2000/svg" xmlns:xlink="http://www.w3.org/1999/xlink" width="80" height="80" viewBox="0 0 80 80">
  <defs>
    <clipPath id="clip-path">
      <rect id="Rectangle_2555" data-name="Rectangle 2555" width="80" height="80" transform="translate(-2031 8039)" fill="#393939"/>
    </clipPath>
  </defs>
  <g id="the_preferred_choice_icon" transform="translate(2031 -8039)" clip-path="url(#clip-path)">
    <g id="the_preferred_choice_icon-2" data-name="the_preferred_choice_icon" transform="translate(-2030.992 8039.008)">
      <path id="Path_13389" data-name="Path 13389" d="M7.5,15A7.5,7.5,0,1,0,0,7.5,7.5,7.5,0,0,0,7.5,15Zm0-12.5a5,5,0,1,1-5,5,5,5,0,0,1,5-5Z" fill="#393939"/>
      <path id="Path_13390" data-name="Path 13390" d="M47.491,7.5a7.5,7.5,0,1,0-7.5,7.5,7.5,7.5,0,0,0,7.5-7.5Zm-12.5,0a5,5,0,1,1,5,5A5,5,0,0,1,34.993,7.5Z" fill="#f89522"/>
      <path id="Path_13391" data-name="Path 13391" d="M72.486,0a7.5,7.5,0,1,0,7.5,7.5,7.5,7.5,0,0,0-7.5-7.5Zm0,12.5a5,5,0,1,1,5-5A5,5,0,0,1,72.486,12.5Z" fill="#393939"/>
      <path id="Path_13392" data-name="Path 13392" d="M72.486,27.495A7.506,7.506,0,0,0,65.1,33.744H51.166a11.248,11.248,0,0,0-22.348,0H14.885a7.5,7.5,0,1,0,0,2.5H28.823a11.234,11.234,0,0,0,7.42,9.346v8.873L31.61,59.1a1.237,1.237,0,0,0-.366.889v8.748a1.25,1.25,0,0,0,.366.883l4.633,4.633v4.482a1.25,1.25,0,0,0,1.25,1.25h15a6.256,6.256,0,0,0,6.249-6.249V51.24a3.731,3.731,0,0,0-6.249-2.771,3.7,3.7,0,0,0-5,0,3.637,3.637,0,0,0-3.749-.75V45.589a11.234,11.234,0,0,0,7.421-9.346H65.1a7.5,7.5,0,1,0,7.386-8.748ZM7.5,39.992a5,5,0,1,1,5-5A5,5,0,0,1,7.5,39.992Zm37.493,10a1.25,1.25,0,0,1,1.25,1.25v6.249h2.5V51.24a1.25,1.25,0,0,1,2.5,0v6.249h2.5V51.24a1.25,1.25,0,0,1,2.5,0v22.5a3.749,3.749,0,0,1-3.749,3.749H38.743V73.736a1.25,1.25,0,0,0-.366-.883l-4.633-4.633V60.506l2.5-2.5v5.731h2.5V37.493a1.25,1.25,0,0,1,2.5,0v20h2.5V51.24A1.25,1.25,0,0,1,44.991,49.99Zm-1.25-7.1v-5.4a3.749,3.749,0,0,0-7.5,0v5.4a8.748,8.748,0,1,1,7.5,0Zm28.744-2.9a5,5,0,1,1,5-5A5,5,0,0,1,72.486,39.992Z" fill="#393939"/>
      <path id="Path_13393" data-name="Path 13393" d="M7.5,69.987a7.5,7.5,0,1,0-7.5-7.5,7.5,7.5,0,0,0,7.5,7.5Zm0-12.5a5,5,0,1,1-5,5,5,5,0,0,1,5-5Z" fill="#f89522"/>
      <path id="Path_13394" data-name="Path 13394" d="M72.486,54.989a7.5,7.5,0,1,0,7.5,7.5,7.5,7.5,0,0,0-7.5-7.5Zm0,12.5a5,5,0,1,1,5-5A5,5,0,0,1,72.486,67.487Z" fill="#f89522"/>
      <rect id="Rectangle_2541" data-name="Rectangle 2541" width="2.5" height="2.5" transform="translate(17.497 4.999)" fill="#393939"/>
      <rect id="Rectangle_2542" data-name="Rectangle 2542" width="2.5" height="2.5" transform="translate(22.496 4.999)" fill="#393939"/>
      <rect id="Rectangle_2543" data-name="Rectangle 2543" width="2.5" height="2.5" transform="translate(27.495 4.999)" fill="#393939"/>
      <rect id="Rectangle_2544" data-name="Rectangle 2544" width="2.5" height="2.5" transform="translate(49.99 4.999)" fill="#393939"/>
      <rect id="Rectangle_2545" data-name="Rectangle 2545" width="2.5" height="2.5" transform="translate(54.989 4.999)" fill="#393939"/>
      <rect id="Rectangle_2546" data-name="Rectangle 2546" width="2.5" height="2.5" transform="translate(59.988 4.999)" fill="#393939"/>
      <rect id="Rectangle_2547" data-name="Rectangle 2547" width="2.5" height="2.5" transform="translate(17.497 61.238)" fill="#393939"/>
      <rect id="Rectangle_2548" data-name="Rectangle 2548" width="2.5" height="2.5" transform="translate(22.496 61.238)" fill="#393939"/>
      <rect id="Rectangle_2549" data-name="Rectangle 2549" width="2.5" height="2.5" transform="translate(27.495 61.238)" fill="#393939"/>
      <rect id="Rectangle_2550" data-name="Rectangle 2550" width="2.5" height="2.5" transform="translate(59.988 61.238)" fill="#393939"/>
    </g>
  </g>
</svg>
