<svg xmlns="http://www.w3.org/2000/svg" xmlns:xlink="http://www.w3.org/1999/xlink" width="100" height="100" viewBox="0 0 100 100">
  <defs>
    <clipPath id="clip-path">
      <rect id="Rectangle_2116" data-name="Rectangle 2116" width="100" height="100" transform="translate(-11421 -11514)" fill="#fff" stroke="#707070" stroke-width="1"/>
    </clipPath>
  </defs>
  <g id="Mask_Group_200" data-name="Mask Group 200" transform="translate(11421 11514)" clip-path="url(#clip-path)">
    <g id="_2464193" data-name="2464193" transform="translate(-11422.613 -11515.613)">
      <path id="Path_10014" data-name="Path 10014" d="M101.613,31.9V19.713l-4.519-1.15c-.192-.513-.406-1.031-.645-1.542l2.387-4.015L90.219,4.39,86.2,6.776c-.511-.237-1.027-.453-1.542-.645L83.511,1.613H71.326L70.177,6.132c-.515.192-1.031.408-1.542.645L64.621,4.392,56,13.008l1.116,1.876A20.954,20.954,0,0,0,32.313,33.965a12.921,12.921,0,0,0-11.345,12.81H15.461L1.613,60.623v40.99H46.774V88.71H57.4l6.452,6.452h4.19a4.839,4.839,0,1,0,0-3.226H65.184l-6.452-6.452H46.774V82.258H80.942a4.839,4.839,0,1,0,0-3.226H46.774V75.806H58.732l6.452-6.452h2.855a4.839,4.839,0,1,0,0-3.226h-4.19L57.4,72.581H46.774v-12.9H91.935a9.651,9.651,0,0,0,4.187-18.36L98.835,38.6,96.448,34.59c.237-.511.453-1.029.645-1.542ZM72.581,91.935a1.613,1.613,0,1,1-1.613,1.613A1.615,1.615,0,0,1,72.581,91.935Zm12.9-12.9a1.613,1.613,0,1,1-1.613,1.613A1.615,1.615,0,0,1,85.484,79.032Zm-12.9-12.9a1.613,1.613,0,1,1-1.613,1.613A1.615,1.615,0,0,1,72.581,66.129ZM14.516,52.281v7.4h-7.4ZM43.548,98.387H4.839V62.9h12.9V50H43.548ZM98.387,50a6.458,6.458,0,0,1-6.452,6.452H46.774V46.774H24.194A9.687,9.687,0,0,1,33.871,37.1h1.613V35.484a17.739,17.739,0,0,1,22.35-17.132c-.027.071-.063.142-.089.211l-4.519,1.152V31.9l4.519,1.15c.192.513.406,1.031.645,1.542L56,38.606l8.616,8.616,4.015-2.385c.511.237,1.027.453,1.542.645L71.327,50H83.513l1.15-4.519c.515-.192,1.031-.408,1.542-.645l4.015,2.385L93.639,43.8A6.476,6.476,0,0,1,98.387,50ZM94.781,38.1l-5.069,5.069-3.381-2.01-.8.413a17.752,17.752,0,0,1-2.715,1.135l-.852.271L81,46.774H73.835l-.966-3.8-.852-.271A17.752,17.752,0,0,1,69.3,41.571l-.8-.413-3.381,2.01L60.058,38.1l2.01-3.379-.41-.794a17.706,17.706,0,0,1-1.135-2.719l-.273-.852-3.8-.963V22.223l3.8-.965.273-.852a17.707,17.707,0,0,1,1.135-2.719l.41-.794-2.01-3.379,5.069-5.069,3.381,2.01.8-.413a17.751,17.751,0,0,1,2.715-1.135l.852-.271.966-3.8H81l.966,3.8.852.271a17.751,17.751,0,0,1,2.715,1.135l.8.413,3.381-2.01,5.069,5.069-2.01,3.379.41.794a17.7,17.7,0,0,1,1.135,2.719l.273.852,3.8.963V29.39l-3.8.965-.273.852a17.706,17.706,0,0,1-1.135,2.719l-.41.794Z" fill="#3d6e72"/>
      <path id="Path_10015" data-name="Path 10015" d="M77.419,11.29A14.516,14.516,0,1,0,91.935,25.806,14.533,14.533,0,0,0,77.419,11.29Zm0,25.806a11.29,11.29,0,1,1,11.29-11.29A11.3,11.3,0,0,1,77.419,37.1Z" fill="#af650f"/>
      <path id="Path_10016" data-name="Path 10016" d="M77.419,17.742a8.065,8.065,0,1,0,8.065,8.065A8.074,8.074,0,0,0,77.419,17.742Zm0,12.9a4.839,4.839,0,1,1,4.839-4.839A4.845,4.845,0,0,1,77.419,30.645Z" fill="#3d6e72"/>
      <path id="Path_10017" data-name="Path 10017" d="M40.323,62.9V53.226H20.968V62.9ZM24.194,56.452H37.1v3.226h-12.9Z" fill="#af650f"/>
      <path id="Path_10018" data-name="Path 10018" d="M37.1,91.935H33.871V82.258H30.645v9.677H27.419V88.71H24.194v3.226H20.968V85.484H17.742v6.452H14.516V82.258H11.29v9.677H8.065v3.226H40.323V79.032H37.1Z" fill="#af650f"/>
      <path id="Path_10019" data-name="Path 10019" d="M8.065,66.129H11.29v3.226H8.065Z" fill="#af650f"/>
      <path id="Path_10020" data-name="Path 10020" d="M14.516,66.129H40.323v3.226H14.516Z" fill="#af650f"/>
      <path id="Path_10021" data-name="Path 10021" d="M8.065,72.581H40.323v3.226H8.065Z" fill="#af650f"/>
      <path id="Path_10022" data-name="Path 10022" d="M38.71,35.484a14.4,14.4,0,0,0,.113,1.813l3.2-.4a11.66,11.66,0,0,1-.087-1.413A11.335,11.335,0,0,1,47.581,25.7l-1.615-2.79A14.564,14.564,0,0,0,38.71,35.484Z" fill="#3d6e72"/>
    </g>
  </g>
</svg>
