<svg xmlns="http://www.w3.org/2000/svg" xmlns:xlink="http://www.w3.org/1999/xlink" width="100" height="100" viewBox="0 0 100 100"><defs><style>.a{fill:#fff;stroke:#707070;}.b{clip-path:url(#a);}.c{fill:#3d6e72;}.d{fill:#af650f;}</style><clipPath id="a"><rect class="a" width="100" height="100" transform="translate(208)"/></clipPath></defs><g class="b" transform="translate(-208)"><g transform="translate(203.327 -1.93)"><path class="c" d="M99.036,92.253h0a1.189,1.189,0,0,1-1.206,1.206H5.879a1.189,1.189,0,0,1-1.206-1.206h0a1.189,1.189,0,0,1,1.206-1.206h91.8A1.154,1.154,0,0,1,99.036,92.253Z"/><path class="c" d="M74.164,55.322V90.9H71.6V57.733a1.03,1.03,0,0,0-1.055-1.055H65.723a1.03,1.03,0,0,0-1.055,1.055V90.9H62.1V55.322a1.03,1.03,0,0,1,1.055-1.055h9.8A1.165,1.165,0,0,1,74.164,55.322Z"/><path class="c" d="M39.192,65.572V90.9H36.781V68.134a1.03,1.03,0,0,0-1.055-1.055H30.6a1.03,1.03,0,0,0-1.055,1.055V90.9H27.133V65.572a1.03,1.03,0,0,1,1.055-1.055h10.1A1.293,1.293,0,0,1,39.192,65.572Z"/><path class="c" d="M56.678,75.671V91.047H54.116V78.083a1.03,1.03,0,0,0-1.055-1.055H48.237a1.03,1.03,0,0,0-1.055,1.055V90.9H44.77V75.521a1.03,1.03,0,0,1,1.055-1.055h9.8A1.279,1.279,0,0,1,56.678,75.671Z"/><path class="c" d="M21.707,79.138V90.9H19.295V81.55A1.03,1.03,0,0,0,18.24,80.5H13.265A1.03,1.03,0,0,0,12.21,81.55V90.9H9.647V79.138A1.03,1.03,0,0,1,10.7,78.083H20.8C21.254,78.083,21.707,78.686,21.707,79.138Z"/><path class="d" d="M58.035,50.649l-2.261-1.206-5.427,9.346c-.3,0-.6-.151-.9-.151a4.482,4.482,0,0,0-3.015,1.206L33.163,51.855v-.3a4.221,4.221,0,0,0-8.441,0,5.082,5.082,0,0,0,.754,2.563L16.732,66.778a4.173,4.173,0,0,0-1.357-.151,4.213,4.213,0,0,0-4.221,4.221,4.314,4.314,0,0,0,4.221,4.221A4.314,4.314,0,0,0,19.6,70.848a4.209,4.209,0,0,0-.9-2.713l8.743-12.511a4.46,4.46,0,0,0,1.507.3,4.319,4.319,0,0,0,3.316-1.507L45.373,62.1c0,.3-.151.6-.151.9a4.221,4.221,0,1,0,7.236-3.015ZM15.375,72.506A1.833,1.833,0,0,1,13.567,70.7a1.742,1.742,0,0,1,1.809-1.809A1.833,1.833,0,0,1,17.184,70.7,1.742,1.742,0,0,1,15.375,72.506ZM28.942,53.211A1.833,1.833,0,0,1,27.133,51.4a1.809,1.809,0,1,1,3.618,0A1.833,1.833,0,0,1,28.942,53.211ZM49.593,64.667a1.809,1.809,0,1,1,0-3.618,1.626,1.626,0,0,1,1.658,1.809A1.711,1.711,0,0,1,49.593,64.667Z"/><path class="d" d="M69.039,24.118a5.97,5.97,0,0,0-4.221,10.25L60.3,41l2.563,1.658,4.673-6.783a5.652,5.652,0,0,0,1.658.151A6.047,6.047,0,0,0,75.219,30,5.958,5.958,0,0,0,69.039,24.118Zm0,9.2a3.166,3.166,0,1,1,0-6.331A3.289,3.289,0,0,1,72.2,30.148,3.006,3.006,0,0,1,69.039,33.314Z"/><path class="c" d="M103.408,68.587,86.977,47.935l-1.055-1.206a.954.954,0,0,0-1.357-.151l-1.206.9L80.5,49.744,79.289,50.8a.954.954,0,0,0-.151,1.357l.9,1.357L94.665,75.671l.754,1.206a1.169,1.169,0,0,0,1.507.3l1.055-.9,5.125-4.07,1.206-.9a.954.954,0,0,0,.151-1.357Zm-7.537,4.522-13.416-20.5a1.122,1.122,0,0,1,.151-1.357l1.507-1.206a.954.954,0,0,1,1.357.151L100.694,69.34a.954.954,0,0,1-.151,1.357L97.227,73.26C96.926,73.712,96.172,73.561,95.871,73.109Z"/><path class="c" d="M68.737,10.552a19.6,19.6,0,1,0,19.6,19.6A19.557,19.557,0,0,0,68.737,10.552Zm0,36.328A16.732,16.732,0,1,1,85.47,30.148,16.791,16.791,0,0,1,68.737,46.88Z"/><path class="d" d="M97.529,30a4.857,4.857,0,0,0,4.824-4.824V15.225A4.857,4.857,0,0,0,97.529,10.4a4.762,4.762,0,0,0-4.824,4.824v9.949A4.762,4.762,0,0,0,97.529,30ZM95.72,15.375a1.742,1.742,0,0,1,1.809-1.809,1.582,1.582,0,0,1,1.658,1.658v9.949a1.658,1.658,0,1,1-3.316,0v-9.8Z"/><path class="d" d="M97.529,40.7a4.857,4.857,0,0,0,4.824-4.824A4.824,4.824,0,1,0,97.529,40.7Zm0-6.482a1.673,1.673,0,0,1,1.658,1.658,1.81,1.81,0,0,1-1.658,1.809,1.673,1.673,0,0,1-1.658-1.658A1.705,1.705,0,0,1,97.529,34.218Z"/></g></g></svg>