<svg xmlns="http://www.w3.org/2000/svg" xmlns:xlink="http://www.w3.org/1999/xlink" width="50" height="50" viewBox="0 0 50 50"><defs><style>.a{fill:#fff;}.b{clip-path:url(#a);}</style><clipPath id="a"><rect class="a" width="50" height="50" transform="translate(437 3195)"/></clipPath></defs><g class="b" transform="translate(-437 -3195)"><g transform="translate(437 3195)"><path class="a" d="M44.073,23.507c.031-.476.048-.955.048-1.43a22.06,22.06,0,0,0-37.66-15.6,22.061,22.061,0,0,0,15.6,37.66c.493,0,.989-.018,1.483-.051A14.688,14.688,0,1,0,44.073,23.507ZM16.7,3.711A21.164,21.164,0,0,0,13.012,9.22a27.505,27.505,0,0,0-1.832,5.262H4.5A19.222,19.222,0,0,1,16.7,3.711ZM2.929,22.077a19.106,19.106,0,0,1,.576-4.665h7.12a33.428,33.428,0,0,0,0,9.331H3.506A19.1,19.1,0,0,1,2.929,22.077ZM4.5,29.671H11.18a27.5,27.5,0,0,0,1.832,5.262A21.164,21.164,0,0,0,16.7,40.442,19.221,19.221,0,0,1,4.5,29.671ZM20.6,40.034a17,17,0,0,1-4.933-6.349,24.269,24.269,0,0,1-1.46-4.015H20.6Zm0-13.292H13.584a30.726,30.726,0,0,1,0-9.331H20.6Zm0-12.26H14.2a24.239,24.239,0,0,1,1.46-4.015A17,17,0,0,1,20.6,4.119Zm20.593,7.346a14.607,14.607,0,0,0-5.882-1.23,14.769,14.769,0,0,0-1.527.079q-.082-1.656-.324-3.266h7.159A19.091,19.091,0,0,1,41.189,21.828Zm-1.571-7.346H32.879a28.491,28.491,0,0,0-1.765-5.093,21.545,21.545,0,0,0-3.748-5.695A19.221,19.221,0,0,1,39.618,14.482ZM23.525,4.131a17.218,17.218,0,0,1,4.928,6.483,25.054,25.054,0,0,1,1.392,3.867h-6.32Zm0,13.28h6.958a30.688,30.688,0,0,1,.388,3.871,14.75,14.75,0,0,0-7.346,5.238ZM35.307,47.055A11.764,11.764,0,1,1,47.071,35.291,11.777,11.777,0,0,1,35.307,47.055Z"/><path class="a" d="M35.616,33.826H35a1.407,1.407,0,0,1,0-2.814h.618a1.409,1.409,0,0,1,1.407,1.407h2.929a4.343,4.343,0,0,0-3.181-4.179V26.08H33.842V28.24A4.336,4.336,0,0,0,35,36.756h.618a1.407,1.407,0,0,1,0,2.814H35a1.409,1.409,0,0,1-1.407-1.407H30.661a4.343,4.343,0,0,0,3.181,4.179V44.5h2.929V42.341a4.336,4.336,0,0,0-1.155-8.515Z"/></g></g></svg>