<svg xmlns="http://www.w3.org/2000/svg" xmlns:xlink="http://www.w3.org/1999/xlink" width="140" height="70" viewBox="0 0 140 70">
  <defs>
    <clipPath id="clip-path">
      <rect id="Rectangle_2736" data-name="Rectangle 2736" width="140" height="70" transform="translate(15)" fill="#393939" stroke="#707070" stroke-width="1"/>
    </clipPath>
  </defs>
  <g id="Mask_Group_2884" data-name="Mask Group 2884" transform="translate(-15)" clip-path="url(#clip-path)">
    <g id="noun-currency-exchange-180202" transform="translate(-9.492 -40.594)">
      <path id="Path_16390" data-name="Path 16390" d="M164.492,75.594c0-14.816-12.549-26.911-27.819-26.911-15.421,0-27.819,12.1-27.819,26.911a26.219,26.219,0,0,0,6.2,16.935l-16.028,0V87.689a1.128,1.128,0,0,0-1.814-.907L80.886,96.609a1.135,1.135,0,0,0,0,1.966L97.214,108.4a1.173,1.173,0,0,0,1.814-.907v-4.84h37.8c15.27-.3,27.667-12.246,27.667-27.063ZM144.687,86.177A9.454,9.454,0,0,1,140,89.05c-.756.151-1.21.6-1.059,1.36V92.83c0,.756-.3,1.059-1.059,1.059h-2.721a1.113,1.113,0,0,1-1.21-1.21V90.865c0-1.21,0-1.36-1.36-1.512a16.7,16.7,0,0,1-4.687-1.36c-1.21-.6-1.36-.907-.907-1.966.3-.907.454-1.814.756-2.57.3-1.059.6-1.21,1.512-.6a16.331,16.331,0,0,0,5.292,1.512,6.737,6.737,0,0,0,3.477-.454,2.506,2.506,0,0,0,.6-4.536,8.15,8.15,0,0,0-1.966-1.059c-1.814-.756-3.629-1.36-5.443-2.268-2.721-1.663-4.536-3.78-4.233-6.955.3-3.629,2.419-5.9,5.9-7.106,1.36-.454,1.512-.454,1.512-1.966V58.51c0-1.059.151-1.21,1.36-1.36h1.059c2.419,0,2.419,0,2.419,2.268,0,1.663,0,1.663,1.663,1.966a15.479,15.479,0,0,1,3.78,1.059,1.15,1.15,0,0,1,.756,1.36c-.3,1.059-.6,1.966-.907,3.024-.3.907-.6,1.059-1.512.6a11.132,11.132,0,0,0-5.9-1.059,4.461,4.461,0,0,0-1.512.3c-1.814.756-2.117,2.721-.6,3.78a8.4,8.4,0,0,0,2.57,1.36c1.512.6,3.175,1.209,4.687,1.966,4.383,2.722,5.743,8.467,2.418,12.4ZM74.082,58.661H89.957V63.5a1.128,1.128,0,0,0,1.814.907L108.1,54.579a1.135,1.135,0,0,0,0-1.966L91.771,42.786a1.173,1.173,0,0,0-1.814.907v4.839H52.16c-15.27.151-27.667,12.1-27.667,26.911s12.549,26.911,27.819,26.911c15.421,0,27.819-12.1,27.819-26.911A25.977,25.977,0,0,0,74.082,58.66ZM63.348,91.015a22.1,22.1,0,0,1-2.873,1.059,19.83,19.83,0,0,1-11.49-.151,14.892,14.892,0,0,1-9.525-8.769c-.3-.756-.6-1.663-.907-2.57H34.925a1.034,1.034,0,0,1-1.059-1.059V77.106a1.034,1.034,0,0,1,1.059-1.059h3.024V74.082H34.925a1.034,1.034,0,0,1-1.059-1.059V70.6a1.034,1.034,0,0,1,1.059-1.059H38.7l.151-.3A15.21,15.21,0,0,1,44.3,61.38a14.449,14.449,0,0,1,7.257-2.873,21.061,21.061,0,0,1,11.036,1.21c.3.151.454.151.6.3a1.387,1.387,0,0,1,.756,1.966c-.454.907-.756,1.814-1.21,2.721a1.468,1.468,0,0,1-1.814.907L57.3,64.706a14.237,14.237,0,0,0-7.559.454,7.813,7.813,0,0,0-4.384,4.384h7.408A1.034,1.034,0,0,1,53.823,70.6v2.419a1.034,1.034,0,0,1-1.059,1.059H44.3v1.966h8.466a1.034,1.034,0,0,1,1.059,1.059v2.419a1.034,1.034,0,0,1-1.059,1.059h-7.71a7.958,7.958,0,0,0,5.292,5.443,13.533,13.533,0,0,0,6.955.151l3.629-.907c.907-.151,1.512,0,1.814.907a16.392,16.392,0,0,1,1.21,2.873c.6.907.3,1.512-.605,1.966Z" fill="#393939"/>
    </g>
  </g>
</svg>
