<svg xmlns="http://www.w3.org/2000/svg" xmlns:xlink="http://www.w3.org/1999/xlink" width="100" height="100" viewBox="0 0 100 100"><defs><style>.a{fill:#fff;stroke:#707070;}.b{clip-path:url(#a);}.c{fill:#af650f;}.d{fill:#3d6e72;}</style><clipPath id="a"><rect class="a" width="100" height="100" transform="translate(527.556 1332)"/></clipPath></defs><g class="b" transform="translate(-527.556 -1332)"><g transform="translate(520.179 1324.623)"><path class="c" d="M19.377,77.885V59.213L12.7,65.885l-4-4L22.049,48.557,35.377,61.885l-4,4L24.7,59.213V77.885Z"/><path class="c" d="M90.049,59.213V40.557l-6.672,6.656-4-4L92.7,29.885l13.344,13.328-4,4-6.672-6.656V59.213Z"/><path class="d" d="M7.377,87.213v20H36.7v-20a2.673,2.673,0,0,0-2.672-2.672H10.049A2.694,2.694,0,0,0,7.377,87.213Zm24,14.672H12.7v-12H31.377Z"/><path class="d" d="M78.049,68.557v38.656h29.328V68.557a2.673,2.673,0,0,0-2.672-2.672h-24A2.659,2.659,0,0,0,78.049,68.557Zm24,33.328H83.377V72.557h18.672Z"/><path class="d" d="M42.049,56.557v50.656H71.377V56.557A2.673,2.673,0,0,0,68.7,53.885h-24A2.659,2.659,0,0,0,42.049,56.557Zm24,45.328H47.377V59.213H66.049Z"/><path class="c" d="M55.213,41.033v6.2h5.672V41.557h5.672V33.049a8.522,8.522,0,0,0-8.508-8.508A2.837,2.837,0,0,1,55.213,21.7V18.869h2.836A2.837,2.837,0,0,1,60.885,21.7v2.836h5.672V21.7a8.5,8.5,0,0,0-5.672-7.984V7.541H55.213v5.672H49.541v8.508a8.522,8.522,0,0,0,8.508,8.508,2.837,2.837,0,0,1,2.836,2.836V35.9H58.049a2.837,2.837,0,0,1-2.836-2.836V30.23H49.541v2.836A8.495,8.495,0,0,0,55.213,41.033Z"/></g></g></svg>