<?xml version="1.0" encoding="utf-8"?>
<!-- Generator: Adobe Illustrator 25.0.1, SVG Export Plug-In . SVG Version: 6.00 Build 0)  -->
<svg version="1.1" id="Layer_1" xmlns="http://www.w3.org/2000/svg" xmlns:xlink="http://www.w3.org/1999/xlink" x="0px" y="0px"
	 viewBox="0 0 248.9 57" style="enable-background:new 0 0 248.9 57;" xml:space="preserve">
<style type="text/css">
	.st0{fill:#131210;}
	.st1{fill:#F89522;}
	.st2{fill:#E07F20;}
	.st3{fill:#F17F21;}
	.st4{fill:url(#Ellipse_1_1_);}
	.st5{fill:#151311;}
	.st6{opacity:0.7;fill:#131210;enable-background:new    ;}
</style>
<g id="Group_14_18_" transform="translate(0 0)">
	<g id="Group_7_18_" transform="translate(48.867 6.229)">
		<g id="Group_4_18_" transform="translate(0 4.536)">
			<g id="Group_1_18_">
				<path id="Path_1_18_" class="st0" d="M32.8,27.6h-4.5V11.4L22.9,26h-4.2l-5.2-14.5v16.1H9.3V2.5h5.8l6.1,17.1l6.3-17.1h5.4
					L32.8,27.6L32.8,27.6z"/>
			</g>
			<g id="Group_2_18_" transform="translate(21.002)">
				<path id="Path_2_18_" class="st0" d="M26.2,27.6h-4.7V6.4h-8.4V2.5h21.6v3.9h-8.4L26.2,27.6L26.2,27.6z"/>
			</g>
			<g id="Group_3_18_" transform="translate(40.174)">
				<path id="Path_3_18_" class="st0" d="M21.3,27.6h-4.7V2.5h14.6v3.9h-9.8V13h8.3v3.8h-8.3L21.3,27.6L21.3,27.6z"/>
			</g>
		</g>
		<g id="Group_6_18_" transform="translate(40.887)">
			<g id="Group_5_18_">
				<path id="Path_4_18_" class="st0" d="M37.8,7h-6l6.5,11.6c1.2-1.8,2.3-3.5,3.2-5.1L37.8,7z"/>
				<path id="Path_5_18_" class="st0" d="M45.7,32.1h6l-7.5-13.4c-1.1,1.6-2.3,3-3.6,4.5L45.7,32.1z"/>
				<path id="Path_6_18_" class="st0" d="M47,3.4c-1.2,3.9-2.9,7.6-5.1,11c-0.9,1.6-2,3.3-3.3,5.1c-6,8.5-13.5,16-21.9,22.1
					c8.8-5.1,16.8-11.6,23.6-19.2c1.2-1.5,2.4-2.9,3.5-4.5c3.7-5,6.7-10.4,9.1-16.2L47,3.4z"/>
			</g>
		</g>
	</g>
	<g id="Group_8_19_" transform="translate(136.714 12.547)">
		<path id="Path_7_19_" class="st0" d="M25.7,3.4h3.8v1h-2.4V6h2.3v1h-2.3v3h-1.4L25.7,3.4z"/>
		<path id="Path_8_19_" class="st0" d="M32.7,5c1.4-0.1,2.6,1,2.7,2.4c0,0.1,0,0.2,0,0.3c0,1.5-1.2,2.6-2.7,2.6
			c-1.4,0-2.6-1.2-2.6-2.6s1-2.6,2.4-2.7C32.6,5,32.6,5,32.7,5z M32.7,9.3c1,0,1.3-0.9,1.3-1.7c0.1-0.7-0.3-1.4-1-1.5
			s-1.4,0.3-1.5,1c0,0.2,0,0.3,0,0.4C31.4,8.4,31.7,9.3,32.7,9.3L32.7,9.3z"/>
		<path id="Path_9_19_" class="st0" d="M36.4,5.1h1.1v1.1l0,0c0.1-0.7,0.7-1.2,1.4-1.3c0.2,0,0.3,0,0.4,0v1.3
			c-0.2-0.1-0.4-0.1-0.6-0.1c-1,0-1,1.3-1,2.1V10h-1.3C36.4,10,36.4,5.1,36.4,5.1z"/>
		<path id="Path_10_19_" class="st0" d="M44,9.9c-0.5,0.3-1.1,0.4-1.7,0.4c-1.3,0.2-2.5-0.8-2.6-2.2c0-0.2,0-0.3,0-0.5
			c-0.2-1.3,0.8-2.5,2.1-2.7c0.1,0,0.2,0,0.3,0c1.9,0,2.4,1.3,2.4,3H41c0,0.7,0.6,1.3,1.4,1.3h0.1c0.6,0,1.2-0.2,1.6-0.5L44,9.9z
			 M43.2,7.2c0-0.6-0.3-1.2-1-1.2c-0.6,0-1.1,0.5-1.1,1.1v0.1H43.2z"/>
		<path id="Path_11_19_" class="st0" d="M45.5,3h1.3v1.3h-1.3V3z M45.5,5.1h1.3v5h-1.3V5.1z"/>
		<path id="Path_12_19_" class="st0" d="M52.8,5.1v4.6c0.2,1.3-0.8,2.5-2.1,2.7c-0.2,0-0.4,0-0.6,0c-0.6,0-1.2-0.1-1.7-0.3l0.1-1.1
			c0.4,0.3,0.9,0.4,1.5,0.4c1.5,0,1.6-1.1,1.6-2l0,0c-0.3,0.5-0.9,0.9-1.6,0.8c-1.5,0-2.1-1.2-2.1-2.5c0-1.2,0.6-2.6,2.2-2.6
			c0.6,0,1.2,0.3,1.6,0.8l0,0V5.1H52.8z M51.5,7.6c0-0.9-0.3-1.6-1.1-1.6c-0.9,0-1.2,0.9-1.2,1.6s0.3,1.6,1.1,1.6S51.5,8.5,51.5,7.6
			z"/>
		<path id="Path_13_19_" class="st0" d="M54.1,5.1h1.2v0.7l0,0c0.3-0.5,1-0.9,1.6-0.8c1.2,0,1.7,0.9,1.7,2v3.2h-1.3V7.5
			c0-0.6,0-1.5-0.9-1.5s-1.1,1-1.1,1.6v2.5H54v-5C54,5.1,54.1,5.1,54.1,5.1z"/>
		<path id="Path_14_19_" class="st0" d="M62.9,3.4H67v1h-2.7V6h2.4v1h-2.4v2H67v1h-4.1V3.4z"/>
		<path id="Path_15_19_" class="st0" d="M67.9,5.1h1.6l0.9,1.6l0.9-1.6h1.4l-1.5,2.4l1.7,2.7h-1.6l-1.1-1.9l-1.1,1.9h-1.5l1.7-2.7
			L67.9,5.1z"/>
		<path id="Path_16_19_" class="st0" d="M76.9,6.2C76.6,6,76.3,6,76,6c-0.8,0-1.3,0.6-1.3,1.6s0.4,1.6,1.4,1.6c0.3,0,0.7-0.1,1-0.3
			l0.1,1.1c-0.4,0.1-0.9,0.2-1.3,0.2c-1.2,0.2-2.4-0.9-2.4-2.2c0-0.2,0-0.3,0-0.4c-0.1-1.3,0.9-2.5,2.2-2.6c0.1,0,0.2,0,0.3,0
			c0.4,0,0.9,0.1,1.3,0.2L76.9,6.2z"/>
		<path id="Path_17_19_" class="st0" d="M78,2.9h1.3v3l0,0c0.3-0.5,0.9-0.8,1.6-0.8c1.2,0,1.7,0.9,1.7,2v3.2h-1.3V7.6
			c0-0.6,0-1.5-0.9-1.5s-1.1,1-1.1,1.6v2.5H78C78,10.2,78,2.9,78,2.9z"/>
		<path id="Path_18_19_" class="st0" d="M84.2,5.4c0.5-0.3,1.1-0.3,1.7-0.3c1.6,0,2.2,0.6,2.2,2.2v0.6c0,0.5,0,0.9,0,1.3
			c0,0.3,0,0.7,0.1,1.1h-1.1c0-0.3-0.1-0.5-0.1-0.8l0,0c-0.3,0.5-0.9,0.9-1.6,0.9c-0.9,0.1-1.6-0.5-1.7-1.5c0,0,0,0,0-0.1
			c0-0.6,0.3-1.2,0.9-1.5C85.1,7,85.7,7,86.3,7H87c0-0.8-0.3-1.1-1.1-1.1c-0.6,0-1.1,0.2-1.6,0.5L84.2,5.4z M85.8,9.3
			c0.3,0,0.7-0.2,0.9-0.4c0.2-0.3,0.3-0.7,0.3-1h-0.6c-0.6,0-1.5,0.1-1.5,0.9C84.9,9.2,85.3,9.3,85.8,9.3L85.8,9.3z"/>
		<path id="Path_19_19_" class="st0" d="M89.4,5.1h1.2v0.7l0,0c0.3-0.5,1-0.9,1.6-0.8c1.2,0,1.7,0.9,1.7,2v3.2h-1.2V7.5
			c0-0.6,0-1.5-0.9-1.5s-1.1,1-1.1,1.6v2.5h-1.2L89.4,5.1z"/>
		<path id="Path_20_19_" class="st0" d="M100,5.1v4.6c0.2,1.3-0.8,2.5-2.1,2.7c-0.2,0-0.4,0-0.6,0c-0.6,0-1.2-0.1-1.7-0.3l0.1-1.1
			c0.4,0.3,0.9,0.4,1.5,0.4c1.5,0,1.6-1.1,1.6-2l0,0c-0.3,0.5-0.9,0.9-1.6,0.8c-1.5,0-2.1-1.2-2.1-2.5c0-1.2,0.6-2.6,2.2-2.6
			c0.6,0,1.2,0.3,1.6,0.8l0,0V5.1H100z M98.7,7.6c0-0.9-0.3-1.6-1.1-1.6c-0.9,0-1.2,0.9-1.2,1.6s0.3,1.6,1.1,1.6
			C98.4,9.2,98.7,8.5,98.7,7.6z"/>
		<path id="Path_21_19_" class="st0" d="M105.4,9.9c-0.5,0.3-1.1,0.4-1.7,0.4c-1.3,0.2-2.5-0.8-2.6-2.2c0-0.2,0-0.3,0-0.5
			c-0.2-1.3,0.8-2.5,2.1-2.7c0.1,0,0.2,0,0.3,0c1.9,0,2.4,1.3,2.4,3h-3.4c0,0.7,0.6,1.3,1.4,1.3h0.1c0.6,0,1.2-0.2,1.6-0.5
			L105.4,9.9z M104.5,7.2c0-0.6-0.3-1.2-1-1.2c-0.6,0-1.1,0.5-1.1,1.1v0.1H104.5z"/>
		<path id="Path_22_19_" class="st0" d="M29.9,19.7c0.3-0.4,0.4-0.9,0.4-1.5h1.2c0,0.9-0.3,1.6-0.9,2.3l1.2,1.4h-1.6l-0.4-0.6
			c-0.5,0.5-1.2,0.8-1.9,0.7c-1.4,0-2.4-0.7-2.4-2c0-0.9,0.3-1.4,1.5-1.9c-0.5-0.5-0.9-0.9-0.9-1.6c0-1,1.1-1.6,2.1-1.6s2,0.4,2,1.6
			c0,0.9-0.6,1.4-1.3,1.8L29.9,19.7z M27.6,18.9c-0.4,0.2-0.8,0.6-0.9,1.1c0,0.6,0.5,1,1.1,1l0,0c0.4,0,0.9-0.1,1.2-0.4L27.6,18.9z
			 M28.8,16.6c0-0.3-0.3-0.7-0.7-0.7H28c-0.4,0-0.8,0.3-0.8,0.7v0.1c0,0.3,0.3,0.7,0.6,0.9C28.2,17.5,28.8,17,28.8,16.6L28.8,16.6z"
			/>
		<path id="Path_23_19_" class="st0" d="M40.8,16.4c-0.5-0.3-1.1-0.3-1.7-0.3c-1.3-0.1-2.4,0.9-2.5,2.2c0,0.1,0,0.2,0,0.3
			c-0.1,1.2,0.8,2.3,2.1,2.4c0.1,0,0.2,0,0.3,0c0.3,0,0.6,0,0.9-0.1v-1.8h-1.5v-1h2.8v3.7c-0.7,0.2-1.5,0.3-2.2,0.3
			c-2.2,0-3.7-1.1-3.7-3.5c-0.2-1.9,1.2-3.5,3.1-3.6c0.3,0,0.4,0,0.7,0c0.7,0,1.4,0.1,2,0.3L40.8,16.4z"/>
		<path id="Path_24_19_" class="st0" d="M42.4,14.6h1.3v7.3h-1.3V14.6z"/>
		<path id="Path_25_19_" class="st0" d="M47.4,16.8c1.4-0.1,2.6,1,2.7,2.4c0,0.1,0,0.2,0,0.3c0,1.5-1.2,2.6-2.7,2.6
			c-1.4,0-2.6-1.2-2.6-2.6c-0.1-1.4,0.9-2.6,2.3-2.7C47.2,16.8,47.3,16.8,47.4,16.8z M47.4,21c1,0,1.3-0.9,1.3-1.7
			c0.1-0.7-0.3-1.4-1-1.5s-1.4,0.3-1.5,1c0,0.2,0,0.3,0,0.4C46.1,20.1,46.4,21,47.4,21z"/>
		<path id="Path_26_19_" class="st0" d="M51,14.6h1.3v2.9l0,0c0.3-0.5,0.9-0.8,1.5-0.8c1.6,0,2.1,1.2,2.1,2.6S55.3,22,53.8,22
			c-0.6,0-1.2-0.3-1.6-0.7l0,0v0.6h-1.3L51,14.6z M53.5,21c0.9,0,1.1-0.9,1.1-1.6s-0.3-1.6-1.1-1.6s-1.2,0.9-1.2,1.6
			S52.7,21,53.5,21L53.5,21z"/>
		<path id="Path_27_19_" class="st0" d="M57.2,17.1c0.5-0.3,1.1-0.3,1.7-0.3c1.6,0,2.2,0.6,2.2,2.2v0.6c0,0.5,0,0.9,0,1.3
			c0,0.3,0,0.7,0.1,1.1h-1.1c0-0.3-0.1-0.5-0.1-0.8l0,0c-0.3,0.5-0.9,0.9-1.6,0.9c-0.9,0.1-1.6-0.5-1.7-1.5c0,0,0,0,0-0.1
			c0-0.6,0.3-1.2,0.9-1.5c0.5-0.3,1.1-0.3,1.7-0.3H60c0-0.8-0.3-1.1-1.1-1.1c-0.6,0-1.1,0.2-1.6,0.5L57.2,17.1z M58.8,21.1
			c0.3,0,0.7-0.2,0.9-0.4c0.2-0.3,0.3-0.7,0.3-1h-0.6c-0.6,0-1.5,0.1-1.5,0.9C57.9,20.9,58.3,21.1,58.8,21.1L58.8,21.1z"/>
		<path id="Path_28_19_" class="st0" d="M62.5,14.6h1.3v7.3h-1.3V14.6z"/>
		<path id="Path_29_19_" class="st0" d="M67.9,15.1h1.7c1.5,0,2.8,0.4,2.8,2.1c0,1.6-1.1,2.2-2.6,2.2h-0.6V22h-1.4L67.9,15.1
			L67.9,15.1z M69.2,18.2h0.4c0.7,0,1.3-0.3,1.3-1s-0.6-1-1.3-1h-0.4V18.2z"/>
		<path id="Path_30_19_" class="st0" d="M73.5,17.1c0.5-0.3,1.1-0.3,1.7-0.3c1.6,0,2.2,0.6,2.2,2.2v0.6c0,0.5,0,0.9,0,1.3
			c0,0.3,0,0.7,0.1,1.1h-1.1c0-0.3-0.1-0.5-0.1-0.8l0,0c-0.3,0.5-0.9,0.9-1.6,0.9c-0.9,0.1-1.6-0.5-1.7-1.5c0,0,0,0,0-0.1
			c0-0.6,0.3-1.2,0.9-1.5c0.5-0.3,1.1-0.3,1.7-0.3h0.7c0-0.8-0.3-1.1-1.1-1.1c-0.6,0-1.1,0.2-1.6,0.5L73.5,17.1z M75.1,21.1
			c0.3,0,0.7-0.2,0.9-0.4c0.2-0.3,0.3-0.7,0.3-1h-0.6c-0.6,0-1.5,0.1-1.5,0.9C74.2,20.9,74.6,21.1,75.1,21.1L75.1,21.1z"/>
		<path id="Path_31_19_" class="st0" d="M80.9,20.6L80.9,20.6l1.2-3.7h1.3l-1.9,5c-0.4,1.1-0.7,2.2-2.1,2.2c-0.3,0-0.6-0.1-0.9-0.2
			l0.1-0.9c0.3,0.1,0.4,0.1,0.7,0.1c0.4,0,0.9-0.3,0.9-0.8v-0.1l-1.9-5.3h1.5L80.9,20.6z"/>
		<path id="Path_32_19_" class="st0" d="M84.2,16.9h1.2v0.7l0,0c0.3-0.5,0.9-0.9,1.5-0.9c0.6-0.1,1.2,0.3,1.5,0.9
			c0.3-0.6,0.9-0.9,1.6-0.9c1.2,0,1.6,0.9,1.6,2v3.2h-1.3v-3c0-0.4,0-1.1-0.8-1.1c-0.9,0-0.9,1-0.9,1.7v2.4h-1.3v-3
			c0-0.4,0-1.1-0.8-1.1c-0.9,0-0.9,1-0.9,1.7v2.4h-1.2v-5C84.4,16.9,84.2,16.9,84.2,16.9z"/>
		<path id="Path_33_19_" class="st0" d="M96.9,21.6c-0.5,0.3-1.1,0.4-1.7,0.4c-1.3,0.2-2.5-0.8-2.6-2.2c0-0.2,0-0.3,0-0.5
			c-0.2-1.3,0.8-2.5,2.1-2.7c0.1,0,0.2,0,0.3,0c1.9,0,2.4,1.3,2.4,3h-3.5c0,0.7,0.6,1.3,1.4,1.3h0.1c0.6,0,1.2-0.2,1.6-0.5
			L96.9,21.6z M96.1,18.9c0-0.6-0.3-1.2-1-1.2c-0.6,0-1.1,0.5-1.1,1.1v0.1H96.1z"/>
		<path id="Path_34_19_" class="st0" d="M98.3,16.9h1.2v0.7l0,0c0.3-0.5,1-0.9,1.6-0.8c1.2,0,1.7,0.9,1.7,2V22h-1.3v-2.7
			c0-0.6,0-1.5-0.9-1.5s-1.1,1-1.1,1.6v2.5h-1.3L98.3,16.9L98.3,16.9z"/>
		<path id="Path_35_19_" class="st0" d="M104.7,17.8h-0.9v-0.9h0.9v-1l1.3-0.4v1.4h1.1v1H106v2.3c0,0.4,0.1,0.9,0.6,0.9
			c0.2,0,0.4,0,0.6-0.2v1c-0.3,0.1-0.6,0.1-0.9,0.1c-0.8,0.1-1.6-0.5-1.6-1.4c0-0.1,0-0.2,0-0.3L104.7,17.8z"/>
		<path id="Path_36_19_" class="st0" d="M111.1,18c-0.3-0.2-0.8-0.3-1.2-0.2c-0.3,0-0.8,0.1-0.8,0.5c0,0.8,2.2,0.3,2.2,2.1
			c0,1.2-1,1.6-2.1,1.6c-0.5,0-1-0.1-1.5-0.2l0.1-1c0.4,0.2,0.9,0.3,1.3,0.3c0.3,0,0.9-0.1,0.9-0.6c0-0.9-2.2-0.3-2.2-2.2
			c0-1.1,0.9-1.6,2-1.6c0.5,0,0.9,0.1,1.4,0.2L111.1,18z"/>
	</g>
	<g>
		<g>
			<polygon class="st1" points="165.2,43.5 171.3,49.9 165.2,56.3 186.4,56.3 176.9,53.3 233.3,53.3 224.2,56.3 244.4,56.3 
				238.9,49.9 245,44 235.5,44 235.5,39.5 176.9,39.5 176.9,43.3 			"/>
			<polygon class="st2" points="186.4,56.3 176.9,53.3 186.7,53.3 			"/>
			<polygon class="st2" points="224.2,56.3 233.3,53.3 224.2,53.3 			"/>
		</g>
		<g>
			<path class="st0" d="M189.4,48.9v-0.7l0.7-0.6c1.1-1,1.7-1.6,1.7-2.2c0-0.4-0.3-0.8-0.9-0.8c-0.5,0-0.8,0.2-1.1,0.4l-0.3-0.9
				c0.4-0.3,1-0.5,1.7-0.5c1.2,0,1.8,0.7,1.8,1.6c0,0.9-0.6,1.6-1.4,2.3l-0.5,0.4l0,0h2v1H189.4z"/>
			<path class="st0" d="M197.4,44.7h-2l-0.1,0.8c0.1,0,0.2,0,0.3,0c0.5,0,1,0.1,1.4,0.4c0.4,0.3,0.6,0.7,0.6,1.3
				c0,1-0.8,1.8-2.3,1.8c-0.6,0-1.2-0.1-1.5-0.3l0.2-0.9c0.2,0.1,0.7,0.3,1.2,0.3s1-0.2,1-0.8c0-0.5-0.4-0.9-1.5-0.9
				c-0.3,0-0.5,0-0.7,0l0.3-2.8h2.9v1.1C197.2,44.7,197.4,44.7,197.4,44.7z"/>
			<path class="st0" d="M201.1,48.9v-2.2l-1.7-3.2h1.4l0.6,1.3c0.2,0.4,0.3,0.7,0.4,1l0,0c0.1-0.3,0.2-0.7,0.4-1l0.5-1.3h1.4
				l-1.8,3.2V49L201.1,48.9L201.1,48.9z"/>
			<path class="st0" d="M207.8,46.6h-2v1.3h2.2v1h-3.5v-5.4h3.4v1h-2.1v1.1h2L207.8,46.6L207.8,46.6z"/>
			<path class="st0" d="M210.1,47.5l-0.4,1.4h-1.2l1.7-5.4h1.6l1.7,5.4h-1.3l-0.4-1.4H210.1z M211.5,46.6l-0.3-1.2
				c-0.1-0.3-0.2-0.7-0.3-1l0,0c-0.1,0.3-0.2,0.7-0.3,1l-0.3,1.2H211.5z"/>
			<path class="st0" d="M214.2,43.5c0.4-0.1,1-0.1,1.6-0.1c0.8,0,1.4,0.1,1.8,0.4c0.3,0.3,0.5,0.6,0.5,1.1c0,0.7-0.5,1.2-1,1.3l0,0
				c0.4,0.2,0.6,0.5,0.7,1c0.2,0.6,0.3,1.3,0.4,1.5h-1.3c-0.1-0.2-0.2-0.6-0.4-1.3c-0.1-0.7-0.4-0.9-0.9-0.9h-0.4v2.1H214v-5.1
				H214.2z M215.4,45.9h0.5c0.6,0,1-0.3,1-0.8s-0.3-0.8-0.9-0.8c-0.3,0-0.5,0-0.6,0V45.9z"/>
			<path class="st0" d="M219,47.6c0.3,0.2,0.8,0.3,1.4,0.3c0.6,0,0.9-0.2,0.9-0.6c0-0.3-0.3-0.5-0.9-0.8c-0.9-0.3-1.5-0.8-1.5-1.6
				c0-0.9,0.8-1.6,2.1-1.6c0.6,0,1.1,0.1,1.4,0.3l-0.3,1c-0.2-0.1-0.6-0.3-1.1-0.3s-0.8,0.2-0.8,0.5s0.3,0.5,1,0.8
				c1,0.4,1.4,0.9,1.4,1.6c0,0.9-0.7,1.7-2.2,1.7c-0.6,0-1.2-0.2-1.5-0.3L219,47.6z"/>
		</g>
	</g>
	<rect id="Rectangle_49_18_" x="151.7" y="13" class="st3" width="0.7" height="25.1"/>
	<g id="Group_13_18_">
		
			<radialGradient id="Ellipse_1_1_" cx="-47.5436" cy="13.1909" r="0.8876" gradientTransform="matrix(30.206 0 0 30.206 1467.6486 -380.099)" gradientUnits="userSpaceOnUse">
			<stop  offset="0.125" style="stop-color:#FFE300"/>
			<stop  offset="0.634" style="stop-color:#F17F21"/>
		</radialGradient>
		<circle id="Ellipse_1_18_" class="st4" cx="26.7" cy="24.4" r="17.8"/>
		<g id="Group_10_21_" transform="translate(5.691)">
			<g id="Group_9_21_">
				<path id="Path_37_21_" class="st5" d="M4.8,18.5C9.2,15.3,17.1,9.9,24.5,7c7-2.8,13.5-3.4,16.1,1.9c1.2,2.6-0.2,5.7-2.9,9
					c0.3,0.9,0.6,1.8,0.9,2.8c6.1-5.3,10.2-11.2,7.3-15.9c-4.3-7.2-14.8-3.7-24.4,1.8C15.6,10.2,10,14,4.9,18.2l0,0
					c-1.3,1-2.2,1.8-2.9,2.4C2.5,20.1,3.5,19.3,4.8,18.5L4.8,18.5z"/>
			</g>
			<path id="Path_38_21_" class="st6" d="M40.5,9c-2.6-5.3-9.1-4.7-16.1-1.9C17.1,10,9.2,15.4,4.7,18.6v0.1
				c4.8-3.5,13.8-9.4,20.7-11.3c3.5-0.9,6.5-0.9,8.3,0.9c0.8,0.9,1.3,2.1,1.4,3.3c0.1,0.8,0.2,1.5,0.1,2.2c0.9,1.3,1.7,2.7,2.3,4.2
				C40.3,14.7,41.7,11.6,40.5,9z"/>
		</g>
		<g id="Group_12_21_" transform="translate(0 22.978)">
			<g id="Group_11_21_">
				<path id="Path_39_21_" class="st5" d="M42.9,7.4c-4.4,3.1-12.4,8.4-19.8,11.4c-7,2.8-13.5,3.4-16.1-1.9c-1.2-2.6,0.2-5.8,2.9-9
					C9.6,7,9.3,6.1,9,5.1C3,10.4-1.1,16.2,1.8,20.9C6.1,28,16.5,24.5,26.2,19c5.8-3.4,11.3-7.2,16.5-11.4l0,0c1.3-1,2.2-1.8,2.9-2.4
					C45,5.8,44.1,6.5,42.9,7.4L42.9,7.4z"/>
			</g>
			<path id="Path_40_21_" class="st6" d="M7,16.8c2.6,5.3,9.1,4.7,16.1,1.9c7.3-2.9,15.2-8.3,19.7-11.5l0,0C38,10.6,29,16.5,22,18.5
				c-3.5,0.9-6.5,0.9-8.3-0.9c-0.8-0.9-1.3-2.1-1.4-3.3c-0.1-0.8-0.2-1.5-0.1-2.2c-0.9-1.3-1.7-2.7-2.3-4.2
				C7.3,11.1,5.8,14.3,7,16.8z"/>
		</g>
	</g>
</g>
</svg>
