<svg xmlns="http://www.w3.org/2000/svg" xmlns:xlink="http://www.w3.org/1999/xlink" width="100" height="100" viewBox="0 0 100 100"><defs><style>.a,.c{fill:#3d6e72;}.a{stroke:#707070;}.b{clip-path:url(#a);}.d{fill:#af650f;}</style><clipPath id="a"><rect class="a" width="100" height="100" transform="translate(527.556 1332)"/></clipPath></defs><g class="b" transform="translate(-527.556 -1332)"><g transform="translate(525.328 1329.781)"><path class="c" d="M31.676,91.417a1.237,1.237,0,0,1-.507-.1A46.5,46.5,0,0,1,53.892,2.4,1.253,1.253,0,0,1,55.026,3.76a1.233,1.233,0,0,1-1.358,1.134,44,44,0,0,0-21.5,84.121,1.247,1.247,0,0,1,.642,1.641A1.225,1.225,0,0,1,31.676,91.417Z"/><path class="c" d="M49.834,85.434c-10.638,0-18.979-16.129-18.979-36.719S39.181,12,49.834,12a1.253,1.253,0,1,1,0,2.507c-8.937,0-16.487,15.666-16.487,34.212S40.9,82.927,49.834,82.927a1.253,1.253,0,1,1,0,2.507Z"/><path class="c" d="M49.834,85.434a1.261,1.261,0,0,1-1.253-1.253V13.249a1.253,1.253,0,0,1,2.507,0V84.181A1.261,1.261,0,0,1,49.834,85.434Z"/><path class="c" d="M68.663,12.518a1.23,1.23,0,0,1-1.149-.761L65.1,6.088l5.67-2.417a1.243,1.243,0,0,1,1.641.656,1.256,1.256,0,0,1-.656,1.641L68.38,7.4l1.432,3.357a1.256,1.256,0,0,1-.656,1.641A1,1,0,0,1,68.663,12.518Z"/><path class="c" d="M28.408,93.849a1.23,1.23,0,0,1-1.149-.761,1.256,1.256,0,0,1,.656-1.641l3.372-1.432-1.432-3.372A1.256,1.256,0,0,1,30.512,85a1.243,1.243,0,0,1,1.641.656l2.417,5.67L28.9,93.745A1.17,1.17,0,0,1,28.408,93.849Z"/><path class="d" d="M80.436,76.706A12.488,12.488,0,1,1,92.924,64.217,12.5,12.5,0,0,1,80.436,76.706Zm0-22.47a9.982,9.982,0,1,0,9.982,9.982A9.991,9.991,0,0,0,80.436,54.235Z"/><path class="d" d="M80.436,102.219l-.985-1.283c-.806-1.044-19.68-25.693-19.68-36.719a20.672,20.672,0,0,1,41.344,0c0,11.026-18.874,35.675-19.68,36.719Zm0-56.16A18.186,18.186,0,0,0,62.263,64.232C62.263,73.05,76.5,92.82,80.436,98.1,84.36,92.82,98.609,73.05,98.609,64.232A18.2,18.2,0,0,0,80.436,46.059Z"/><path class="c" d="M58.712,49.968H14.368a1.253,1.253,0,0,1,0-2.507H58.712a1.253,1.253,0,1,1,0,2.507Z"/><path class="c" d="M67.142,42.314A1.256,1.256,0,0,1,65.9,41.2C64.2,25.738,57.443,14.5,49.834,14.5a1.253,1.253,0,1,1,0-2.507c9.042,0,16.681,11.892,18.546,28.931a1.265,1.265,0,0,1-1.1,1.388Z"/><path class="c" d="M49.834,67.694c-20.59,0-36.719-8.34-36.719-18.979a1.253,1.253,0,0,1,2.507,0c0,8.937,15.666,16.487,34.212,16.487,1.343,0,2.656-.045,3.954-.119A1.282,1.282,0,0,1,55.1,66.261a1.263,1.263,0,0,1-1.179,1.328C52.579,67.649,51.222,67.694,49.834,67.694Z"/><path class="c" d="M14.368,49.968a1.261,1.261,0,0,1-1.253-1.253c0-10.638,16.129-18.979,36.719-18.979,11.056,0,21.4,2.507,28.364,6.863a1.246,1.246,0,0,1-1.313,2.119c-6.595-4.118-16.457-6.49-27.051-6.49-18.546,0-34.212,7.55-34.212,16.487A1.261,1.261,0,0,1,14.368,49.968Z"/><path class="c" d="M49.834,85.434A36.719,36.719,0,1,1,84.718,37.3a1.255,1.255,0,0,1-2.387.776,34.2,34.2,0,1,0-32.5,44.851,34.456,34.456,0,0,0,9.892-1.462,1.233,1.233,0,0,1,1.552.836,1.251,1.251,0,0,1-.836,1.552A36.193,36.193,0,0,1,49.834,85.434Z"/><path class="c" d="M94.506,42.792a1.261,1.261,0,0,1-1.238-1.059A43.826,43.826,0,0,0,67.724,8.5a1.252,1.252,0,1,1,1.03-2.283A46.288,46.288,0,0,1,95.744,41.344,1.251,1.251,0,0,1,94.7,42.777.851.851,0,0,1,94.506,42.792Z"/><path class="c" d="M49.8,95.207q-2.014,0-4.028-.179A1.251,1.251,0,1,1,46,92.536a43.637,43.637,0,0,0,18.77-2.492,1.246,1.246,0,0,1,.85,2.342A45.932,45.932,0,0,1,49.8,95.207Z"/></g></g></svg>