<svg xmlns="http://www.w3.org/2000/svg" xmlns:xlink="http://www.w3.org/1999/xlink" width="50" height="50" viewBox="0 0 50 50">
  <defs>
    <clipPath id="clip-path">
      <rect id="Rectangle_2114" data-name="Rectangle 2114" width="50" height="50" transform="translate(-16537 -22700)" fill="#fff" stroke="#707070" stroke-width="1"/>
    </clipPath>
  </defs>
  <g id="Mask_Group_199" data-name="Mask Group 199" transform="translate(16537 22700)" clip-path="url(#clip-path)">
    <g id="_99162" data-name="99162" transform="translate(-16538.631 -22700)">
      <path id="Path_9987" data-name="Path 9987" d="M40.9,19.488a4.349,4.349,0,0,0-1.75.37,4.439,4.439,0,0,0-6.092-2.373A4.47,4.47,0,0,0,29.1,15.062a4.576,4.576,0,0,0-1.447.236V10.367a4.46,4.46,0,1,0-8.92,0V28.139L15.517,24.47l-.067-.067a4.457,4.457,0,0,0-3.164-1.313h-.017a4.4,4.4,0,0,0-3.147,1.3c-1.481,1.481-1.548,3.652-.219,6.008,1.717,3.029,3.6,5.89,5.251,8.4,1.212,1.834,2.356,3.585,3.181,5.015.724,1.245,2.642,5.3,2.659,5.335A1.51,1.51,0,0,0,21.356,50H40.407a1.5,1.5,0,0,0,1.43-1.043c.353-1.111,3.467-10.905,3.467-14.675V24A4.415,4.415,0,0,0,40.9,19.488Zm-1.43,4.493a1.447,1.447,0,1,1,2.895,0V34.265c0,2.508-1.935,9.273-3,12.723h-17c-.623-1.3-1.8-3.7-2.373-4.7-.875-1.515-2.036-3.282-3.265-5.167-1.632-2.474-3.467-5.3-5.15-8.246-.438-.774-.841-1.8-.269-2.373a1.485,1.485,0,0,1,1.01-.421,1.469,1.469,0,0,1,1.01.4l5.806,6.648a1.506,1.506,0,0,0,2.642-.993V10.367a1.447,1.447,0,1,1,2.895,0V24.436a1.515,1.515,0,0,0,3.029,0V19.556a1.447,1.447,0,1,1,2.895,0v6.85a1.515,1.515,0,0,0,3.029,0V21.525a1.447,1.447,0,1,1,2.895,0v6.85a1.515,1.515,0,1,0,3.029,0l-.084-4.392Z" fill="#fff"/>
      <path id="Path_9988" data-name="Path 9988" d="M33.591,6.126a2.592,2.592,0,0,1-1.868.808,2.488,2.488,0,0,1-1.683-.64A3.806,3.806,0,0,0,29.283,5.1h0c-1.616-1.733-4.7-2.154-5.941-2.154-1.3,0-4.645.438-6.21,2.322a3.217,3.217,0,0,0-.539.858,2.568,2.568,0,0,1-3.585.151,8.558,8.558,0,0,1,3.1-4.039A12.323,12.323,0,0,1,23.342,0a12.349,12.349,0,0,1,7.119,2.171A8.559,8.559,0,0,1,33.591,6.126Z" fill="#fff"/>
    </g>
  </g>
</svg>
