<svg xmlns="http://www.w3.org/2000/svg" xmlns:xlink="http://www.w3.org/1999/xlink" width="30" height="30" viewBox="0 0 30 30">
  <defs>
    <clipPath id="clip-path">
      <rect id="Rectangle_2118" data-name="Rectangle 2118" width="30" height="30" transform="translate(-11103 -11542)" fill="#fff" stroke="#707070" stroke-width="1"/>
    </clipPath>
  </defs>
  <g id="Mask_Group_202" data-name="Mask Group 202" transform="translate(11103 11542)" clip-path="url(#clip-path)">
    <g id="_2799176" data-name="2799176" transform="translate(-11104.341 -11543.341)">
      <path id="Path_10036" data-name="Path 10036" d="M19.776,26.369l-.67-.971a2.584,2.584,0,0,0-2.127-1.117.067.067,0,0,0-.061.094l.065.144a13.519,13.519,0,0,1,.758,2.179l.811,3.187a2.035,2.035,0,0,0,1.96,1.454h5.34A2.051,2.051,0,0,0,27.9,29.291V24.969a.687.687,0,1,0-1.374,0v1.3a.319.319,0,1,1-.638,0v-1.9a.679.679,0,0,0-1.342-.141v1.644a.319.319,0,0,1-.319.319h-.015a.319.319,0,0,1-.319-.319v-1.5a1.316,1.316,0,0,1,.015-.187v-.448a.635.635,0,1,0-1.27,0v2.139a.319.319,0,0,1-.638,0V24.3a.314.314,0,0,1-.016-.1V17.4a.784.784,0,1,0-1.568,0V27.811a.319.319,0,1,1-.638,0V26.368Z" fill="#fff"/>
      <path id="Path_10037" data-name="Path 10037" d="M7.84,3.028a.766.766,0,1,0,.766.766.766.766,0,0,0-.766-.766Z" fill="#fff"/>
      <path id="Path_10038" data-name="Path 10038" d="M1.468,25.292A1.063,1.063,0,0,0,2.53,26.353l14.483.1A12.877,12.877,0,0,0,16.4,24.78l-.065-.144a.705.705,0,0,1,.643-.993,3.222,3.222,0,0,1,2.652,1.392l.145.21V17.4a1.423,1.423,0,1,1,2.845,0V22.64a1.268,1.268,0,0,1,1.842.644,1.313,1.313,0,0,1,1.975.612,1.323,1.323,0,0,1,2.1,1.072v1.472l1.6-.087h.017a1.063,1.063,0,0,0,1.062-1.062V6.982H1.468Zm8.183-6.787L7.7,20.848l-.013.012a.544.544,0,0,1-.727.032l-.7-.57a.319.319,0,1,1,.4-.5l.635.514L9.16,18.1a.319.319,0,0,1,.491.409Zm18.568.685H25.108a.319.319,0,0,1,0-.638h3.112a.319.319,0,1,1,0,.638ZM13.275,10.435H28.219a.319.319,0,1,1,0,.638H13.275a.319.319,0,1,1,0-.638Zm0,3.173H28.219a.319.319,0,1,1,0,.638H13.275a.319.319,0,1,1,0-.638Zm0,4.944h4.854a.319.319,0,0,1,0,.638H13.275a.319.319,0,1,1,0-.638Zm0,3.173h1.308a.319.319,0,0,1,0,.638H13.275a.319.319,0,1,1,0-.638ZM9.161,9.98a.319.319,0,0,1,.491.409L7.7,12.731l-.013.012a.544.544,0,0,1-.727.032l-.7-.57a.319.319,0,1,1,.4-.5l.635.514Zm-4.544.683a.5.5,0,0,1,.494-.494H6.944a.319.319,0,1,1,0,.638H5.255v3.372H8.633V13.084a.319.319,0,0,1,.638,0v1.239a.5.5,0,0,1-.494.494H5.111a.5.5,0,0,1-.494-.494Zm0,8.117a.5.5,0,0,1,.494-.494H6.944a.319.319,0,0,1,0,.638H5.255V22.3H8.633V21.2a.319.319,0,0,1,.638,0V22.44a.5.5,0,0,1-.494.494H5.111a.5.5,0,0,1-.494-.494Z" fill="#fff"/>
      <path id="Path_10039" data-name="Path 10039" d="M3.97,3.028a.766.766,0,1,0,.766.766.766.766,0,0,0-.766-.766Z" fill="#fff"/>
      <path id="Path_10040" data-name="Path 10040" d="M11.711,3.028a.766.766,0,1,0,.766.766.766.766,0,0,0-.766-.766Z" fill="#fff"/>
      <path id="Path_10041" data-name="Path 10041" d="M30.151,1.34H2.53A1.063,1.063,0,0,0,1.468,2.4V6.343H31.213V2.4A1.063,1.063,0,0,0,30.151,1.34ZM3.97,5.2a1.4,1.4,0,1,1,1.4-1.4,1.4,1.4,0,0,1-1.4,1.4Zm3.87,0a1.4,1.4,0,1,1,1.4-1.4,1.4,1.4,0,0,1-1.4,1.4Zm3.87,0a1.4,1.4,0,1,1,1.4-1.4A1.4,1.4,0,0,1,11.711,5.2ZM29.868,4.04H17.426a.319.319,0,1,1,0-.638H29.868a.319.319,0,1,1,0,.638Z" fill="#fff"/>
    </g>
  </g>
</svg>
