<svg xmlns="http://www.w3.org/2000/svg" xmlns:xlink="http://www.w3.org/1999/xlink" width="40" height="40" viewBox="0 0 40 40"><defs><style>.a{fill:#fff;stroke:#707070;}.b{clip-path:url(#a);}.c{fill:#3d6e72;}.d{fill:#af650f;}</style><clipPath id="a"><rect class="a" width="40" height="40" transform="translate(308 1436)"/></clipPath></defs><g class="b" transform="translate(-308 -1436)"><g transform="translate(306.128 1434.125)"><path class="c" d="M21.875,1.875A14.063,14.063,0,0,0,9.912,23.331L21.075,41.319a1.17,1.17,0,0,0,.994.556h.006a1.173,1.173,0,0,0,.994-.569L33.95,23.144A14.07,14.07,0,0,0,21.875,1.875ZM31.944,21.938,22.05,38.45,11.906,22.1a11.724,11.724,0,1,1,20.038-.163Z"/><path class="d" d="M21.875,8.906a7.031,7.031,0,1,0,7.031,7.031A7.042,7.042,0,0,0,21.875,8.906Zm0,11.737a4.7,4.7,0,1,1,4.694-4.706A4.7,4.7,0,0,1,21.875,20.644Z"/></g></g></svg>