<svg xmlns="http://www.w3.org/2000/svg" xmlns:xlink="http://www.w3.org/1999/xlink" width="70" height="70" viewBox="0 0 70 70">
  <defs>
    <clipPath id="clip-path">
      <rect id="Rectangle_2118" data-name="Rectangle 2118" width="70" height="70" transform="translate(-5262 -15122)" fill="#393939" stroke="#707070" stroke-width="1"/>
    </clipPath>
  </defs>
  <g id="Mask_Group_202" data-name="Mask Group 202" transform="translate(5262 15122)" clip-path="url(#clip-path)">
    <g id="canada" transform="translate(-5263.129 -15123.129)">
      <path id="Path_9998" data-name="Path 9998" d="M71.129,5.645V3.387a2.265,2.265,0,0,0-2.258-2.258H3.387A2.265,2.265,0,0,0,1.129,3.387V5.645A2.265,2.265,0,0,0,3.387,7.9v42.9a2.265,2.265,0,0,0-2.258,2.258v2.258a2.265,2.265,0,0,0,2.258,2.258H24.4L19.885,71.129h9.159L33.56,57.581h5.151l4.516,13.548h9.159L47.871,57.581h21a2.265,2.265,0,0,0,2.258-2.258V53.065a2.265,2.265,0,0,0-2.258-2.258V7.9A2.265,2.265,0,0,0,71.129,5.645ZM3.387,3.387H68.871V5.645H3.387Zm2.258,27.1h4.516V46.29H5.645ZM27.407,68.871H23.018l3.768-11.29h4.389Zm21.833,0H44.851l-3.768-11.29h4.389ZM68.871,55.323H3.387V53.065H68.871Zm-2.258-4.516H5.645V48.548h6.774V46.29h.946l2.173.72a7.919,7.919,0,0,0,2.5.409H33.871A3.374,3.374,0,0,0,37.2,44.54l.24-.127a17.115,17.115,0,0,0,2.512,1.044l.988,3.091h8.425l.988-3.091a16.5,16.5,0,0,0,2.512-1.044L55.746,45.9,61.7,39.94,60.22,37.06a17.116,17.116,0,0,0,1.044-2.512l3.091-.988V25.135l-3.091-.988a15.182,15.182,0,0,0-1.044-2.512L61.7,18.756,55.746,12.8l-2.879,1.482a17.115,17.115,0,0,0-2.512-1.044l-.988-3.091H40.942l-.988,3.091a16.5,16.5,0,0,0-2.512,1.044L34.563,12.8l-5.956,5.956,1.482,2.879a17.453,17.453,0,0,0-1.044,2.54l-1.948.692v-6.8a4.529,4.529,0,0,0-4.516-4.516,2.265,2.265,0,0,0-2.258,2.258v6.1A8.548,8.548,0,0,1,16.5,29.044a8.654,8.654,0,0,1-4.079,1.4V28.226H5.645V7.9H66.613ZM12.419,32.685a10.639,10.639,0,0,0,5.335-1.778,10.833,10.833,0,0,0,4.827-9.018V15.806a2.265,2.265,0,0,1,2.258,2.258v7.9a3.4,3.4,0,0,0,3.387,3.387h5.645a1.129,1.129,0,1,1,0,2.258H30.484v2.258h3.387a1.129,1.129,0,1,1,0,2.258H30.484v2.258h3.387a1.129,1.129,0,1,1,0,2.258H30.484V42.9h3.387a1.129,1.129,0,1,1,0,2.258H18.036a5.788,5.788,0,0,1-1.778-.282l-2.512-.847H12.419ZM31.373,19.194,35,15.567l2.484,1.27.522-.3a14.179,14.179,0,0,1,3.161-1.3l.579-.169.847-2.653h5.123l.847,2.653.579.169a14.459,14.459,0,0,1,3.161,1.3l.522.3,2.484-1.27,3.627,3.627-1.27,2.484.3.536a14.46,14.46,0,0,1,1.3,3.161l.169.579,2.653.847v5.123l-2.653.847-.169.579a14.459,14.459,0,0,1-1.3,3.161l-.3.536,1.27,2.484-3.613,3.613-2.484-1.27-.522.3a14.18,14.18,0,0,1-3.161,1.3l-.579.169L47.73,46.29H42.607l-.847-2.653-.579-.169a14.459,14.459,0,0,1-3.161-1.3l-.522-.3-.734.381a3.929,3.929,0,0,0-.367-.48,3.386,3.386,0,0,0,.875-2.258,3.267,3.267,0,0,0-.071-.649A12.416,12.416,0,1,0,32.968,27.1H28.226a1.031,1.031,0,0,1-.423-.085l3.091-1.087.155-.565a14.459,14.459,0,0,1,1.3-3.161l.3-.536ZM35.2,27.365a10.18,10.18,0,1,1,1.99,8.27A3.242,3.242,0,0,0,37.258,35a3.386,3.386,0,0,0-.875-2.258A3.376,3.376,0,0,0,35.2,27.365Z" fill="#393939"/>
      <path id="Path_9999" data-name="Path 9999" d="M7.9,10.161H18.065v2.258H7.9Z" fill="#393939"/>
      <path id="Path_10000" data-name="Path 10000" d="M7.9,14.677H18.065v2.258H7.9Z" fill="#393939"/>
      <path id="Path_10001" data-name="Path 10001" d="M7.9,19.194H18.065v2.258H7.9Z" fill="#393939"/>
      <g id="Group_6985" data-name="Group 6985">
        <path id="Path_10002" data-name="Path 10002" d="M52.387,26.038l-2.512.593-.127-1.581L47.73,26.885l.579-3.641-1.722.607-1.425-2.23-1.44,2.23L42,23.244l.579,3.641L40.56,25.05l-.127,1.581-2.512-.593.861,2.7-1.369.649,3.881,3.02-.423,1.736,3.825-.621v3.571h.9V33.518l3.825.621L49,32.4l3.881-3.02-1.369-.649Z" fill="#393939"/>
      </g>
    </g>
  </g>
</svg>
