<svg xmlns="http://www.w3.org/2000/svg" xmlns:xlink="http://www.w3.org/1999/xlink" width="60" height="60" viewBox="0 0 60 60">
  <defs>
    <clipPath id="clip-path">
      <rect id="Rectangle_2115" data-name="Rectangle 2115" width="60" height="60" transform="translate(-5496 -15300)" fill="#fff" stroke="#707070" stroke-width="1"/>
    </clipPath>
  </defs>
  <g id="Mask_Group_200" data-name="Mask Group 200" transform="translate(5496 15300)" clip-path="url(#clip-path)">
    <g id="_2876874" data-name="2876874" transform="translate(-5496 -15300)">
      <path id="Path_9989" data-name="Path 9989" d="M21.094,15.938a7.031,7.031,0,0,0-14.062,0V51.211a7.031,7.031,0,0,0,14.063,0Z" fill="#fff"/>
      <path id="Path_9990" data-name="Path 9990" d="M31.758,24.844H49.336v3.516H31.758Z" fill="#fff"/>
      <path id="Path_9991" data-name="Path 9991" d="M58.242,14.18H24.432a10.461,10.461,0,0,1,.178,1.758V51.211A10.537,10.537,0,0,1,19.871,60H58.242A1.757,1.757,0,0,0,60,58.242v-42.3A1.757,1.757,0,0,0,58.242,14.18ZM33.516,52.969a1.758,1.758,0,1,1,1.758-1.758A1.758,1.758,0,0,1,33.516,52.969Zm0-7.031a1.758,1.758,0,1,1,1.758-1.758A1.758,1.758,0,0,1,33.516,45.938Zm0-7.031a1.758,1.758,0,1,1,1.758-1.758A1.758,1.758,0,0,1,33.516,38.906Zm7.031,14.063A1.758,1.758,0,1,1,42.3,51.211,1.758,1.758,0,0,1,40.547,52.969Zm0-7.031A1.758,1.758,0,1,1,42.3,44.18,1.758,1.758,0,0,1,40.547,45.938Zm0-7.031A1.758,1.758,0,1,1,42.3,37.148,1.758,1.758,0,0,1,40.547,38.906Zm7.031,14.063a1.758,1.758,0,1,1,1.758-1.758A1.758,1.758,0,0,1,47.578,52.969Zm0-7.031a1.758,1.758,0,1,1,1.758-1.758A1.758,1.758,0,0,1,47.578,45.938Zm0-7.031a1.758,1.758,0,1,1,1.758-1.758A1.758,1.758,0,0,1,47.578,38.906Zm5.273-8.789a1.757,1.757,0,0,1-1.758,1.758H30a1.757,1.757,0,0,1-1.758-1.758V23.086A1.757,1.757,0,0,1,30,21.328H51.094a1.757,1.757,0,0,1,1.758,1.758Z" fill="#fff"/>
      <path id="Path_9992" data-name="Path 9992" d="M51.094,0H30a1.757,1.757,0,0,0-1.758,1.758v8.789H52.852V1.758A1.757,1.757,0,0,0,51.094,0ZM44.063,7.031H37.031a1.758,1.758,0,0,1,0-3.516h7.031a1.758,1.758,0,0,1,0,3.516Z" fill="#fff"/>
      <path id="Path_9993" data-name="Path 9993" d="M3.516,51.211V15.938a10.461,10.461,0,0,1,.178-1.758H1.758A1.757,1.757,0,0,0,0,15.938v42.3A1.757,1.757,0,0,0,1.758,60h6.5A10.537,10.537,0,0,1,3.516,51.211Z" fill="#fff"/>
    </g>
  </g>
</svg>
