<svg xmlns="http://www.w3.org/2000/svg" xmlns:xlink="http://www.w3.org/1999/xlink" width="88" height="88" viewBox="0 0 88 88">
  <defs>
    <filter id="Ellipse_337" x="0" y="0" width="88" height="88" filterUnits="userSpaceOnUse">
      <feOffset dy="3" input="SourceAlpha"/>
      <feGaussianBlur stdDeviation="3" result="blur"/>
      <feFlood flood-opacity="0.161"/>
      <feComposite operator="in" in2="blur"/>
      <feComposite in="SourceGraphic"/>
    </filter>
    <clipPath id="clip-path">
      <circle id="Ellipse_341" data-name="Ellipse 341" cx="30" cy="30" r="30" transform="translate(726 1882)" fill="#fff"/>
    </clipPath>
  </defs>
  <g id="Group_6975" data-name="Group 6975" transform="translate(-712 -1871)">
    <g transform="matrix(1, 0, 0, 1, 712, 1871)" filter="url(#Ellipse_337)">
      <circle id="Ellipse_337-2" data-name="Ellipse 337" cx="35" cy="35" r="35" transform="translate(9 6)" fill="#f89522"/>
    </g>
    <circle id="Ellipse_338" data-name="Ellipse 338" cx="30" cy="30" r="30" transform="translate(726 1882)" fill="#fff"/>
    <g id="Mask_Group_97" data-name="Mask Group 97" clip-path="url(#clip-path)">
      <g id="Other" transform="translate(731.706 1885.215)">
        <g id="Group_5728" data-name="Group 5728" transform="translate(20.209 10.451)">
          <g id="Group_5727" data-name="Group 5727">
            <path id="Path_6792" data-name="Path 6792" d="M52.441,25.921,40.2,10.952a1.353,1.353,0,0,0-1.057-.5H28.254A1.361,1.361,0,0,0,27.2,12.673L38.739,26.782,27.2,40.9a1.361,1.361,0,0,0,1.05,2.222H39.138a1.373,1.373,0,0,0,1.057-.5L52.441,27.649A1.358,1.358,0,0,0,52.441,25.921ZM38.5,40.4H31.126L41.557,27.649a1.349,1.349,0,0,0,0-1.72L31.126,13.181H38.5L49.63,26.788Z" transform="translate(-26.891 -10.451)" fill="#af650f"/>
          </g>
        </g>
        <g id="Group_5730" data-name="Group 5730" transform="translate(2.517 10.451)">
          <g id="Group_5729" data-name="Group 5729">
            <path id="Path_6793" data-name="Path 6793" d="M28.075,25.921,15.829,10.952a1.353,1.353,0,0,0-1.057-.5H3.88a1.361,1.361,0,0,0-1.057,2.222L14.372,26.788,2.83,40.9a1.356,1.356,0,0,0,1.05,2.222H14.765a1.373,1.373,0,0,0,1.057-.5L28.068,27.649A1.367,1.367,0,0,0,28.075,25.921ZM14.128,40.4H6.752L17.183,27.649a1.349,1.349,0,0,0,0-1.72L6.752,13.181h7.369L25.257,26.788Z" transform="translate(-2.517 -10.451)" fill="#3d6e72"/>
          </g>
        </g>
      </g>
    </g>
  </g>
</svg>
