<svg xmlns="http://www.w3.org/2000/svg" xmlns:xlink="http://www.w3.org/1999/xlink" width="100" height="100" viewBox="0 0 100 100">
  <defs>
    <clipPath id="clip-path">
      <rect id="Rectangle_2117" data-name="Rectangle 2117" width="100" height="100" transform="translate(-11319 -8502)" fill="#fff" stroke="#707070" stroke-width="1"/>
    </clipPath>
    <clipPath id="clip-path-2">
      <rect id="Rectangle_2000" data-name="Rectangle 2000" width="100" height="100" transform="translate(134.787 -45.087)" fill="#f5f6f6" stroke="#707070" stroke-width="1.429"/>
    </clipPath>
  </defs>
  <g id="Mask_Group_201" data-name="Mask Group 201" transform="translate(11319 8502)" clip-path="url(#clip-path)">
    <g id="Mask_Group_151" data-name="Mask Group 151" transform="translate(-11453.787 -8456.913)" clip-path="url(#clip-path-2)">
      <g id="_02_IncomingPayment" data-name="02 IncomingPayment" transform="translate(132.021 -48.449)">
        <path id="Path_8154" data-name="Path 8154" d="M87.02,42.189a1.68,1.68,0,0,0-.429,1.073,1.619,1.619,0,0,0,.439,1.073,1.5,1.5,0,0,0,1.073.439,1.619,1.619,0,0,0,1.073-.439,1.5,1.5,0,0,0,.439-1.073,1.56,1.56,0,0,0-.439-1.073,1.6,1.6,0,0,0-2.156,0Z" fill="#3d6e72"/>
        <path id="Path_8155" data-name="Path 8155" d="M81.037,41.75a1.511,1.511,0,1,0,1.511,1.511,1.511,1.511,0,0,0-1.511-1.511Z" fill="#3d6e72"/>
        <path id="Path_8156" data-name="Path 8156" d="M72.891,42.189a1.5,1.5,0,0,0-.439,1.073,1.56,1.56,0,0,0,.439,1.073,1.5,1.5,0,0,0,1.073.439,1.619,1.619,0,0,0,1.073-.439,1.5,1.5,0,0,0,.439-1.073,1.56,1.56,0,0,0-.439-1.073A1.581,1.581,0,0,0,72.891,42.189Z" fill="#3d6e72"/>
        <path id="Path_8157" data-name="Path 8157" d="M73.964,97.31H88.107a1.511,1.511,0,1,0,0-3.021H73.964a1.511,1.511,0,1,0,0,3.021Z" fill="#3d6e72"/>
        <path id="Path_8158" data-name="Path 8158" d="M69.341,83.046a1.5,1.5,0,0,0,.571.121,1.521,1.521,0,0,0,1.073-.439L83.1,70.61a1.523,1.523,0,0,0,0-2.143L70.986,56.349A1.511,1.511,0,0,0,68.4,57.421V81.656A1.514,1.514,0,0,0,69.341,83.046Zm2.1-21.986L79.9,69.521l-8.461,8.461Z" fill="#af650f"/>
        <path id="Path_8159" data-name="Path 8159" d="M97.19,35.69H94.666V10.94a7.584,7.584,0,0,0-7.571-7.571H10.336A7.584,7.584,0,0,0,2.764,10.94V83.666a7.584,7.584,0,0,0,7.571,7.571h24.75v9.1H22.454a1.511,1.511,0,1,0,0,3.021h34.33a1.511,1.511,0,1,0,0-3.021H38.109v-9.1H59.323v6.559a5.571,5.571,0,0,0,5.56,5.56H97.2a5.571,5.571,0,0,0,5.56-5.56V41.251A5.589,5.589,0,0,0,97.19,35.69ZM59.323,88.214H10.336a4.553,4.553,0,0,1-4.549-4.549V79.117H59.323Zm0-46.963V76.1H5.787V10.94a4.553,4.553,0,0,1,4.549-4.549H87.1a4.553,4.553,0,0,1,4.549,4.549V35.69H64.869a5.561,5.561,0,0,0-5.546,5.561ZM99.729,97.809a2.529,2.529,0,0,1-2.523,2.523H64.869a2.529,2.529,0,0,1-2.523-2.523V91.251H99.729Zm0-9.6H62.346V50.846H99.729Zm0-40.4H62.346V41.251a2.529,2.529,0,0,1,2.523-2.523H97.19a2.529,2.529,0,0,1,2.524,2.523V47.81Z" fill="#3d6e72"/>
        <path id="Path_8160" data-name="Path 8160" d="M22.56,55.893c-2.463,0-3.714-1.089-3.714-3.234a3.5,3.5,0,0,1,3.714-3.234,3.743,3.743,0,0,1,3.49,2.13,1.51,1.51,0,1,0,2.78-1.179,6.589,6.589,0,0,0-4.775-3.8V45.3a1.511,1.511,0,0,0-3.021,0v1.271a6.393,6.393,0,0,0-5.229,6.09c0,3.021,1.769,6.271,6.739,6.271,2.479,0,3.733,1.089,3.733,3.234A3.5,3.5,0,0,1,22.563,65.4a3.743,3.743,0,0,1-3.49-2.13,1.514,1.514,0,1,0-2.8,1.163,6.6,6.6,0,0,0,4.745,3.807v1.286a1.511,1.511,0,0,0,3.021,0V68.259a6.4,6.4,0,0,0,5.243-6.116C29.329,59.127,27.546,55.893,22.56,55.893Z" fill="#af650f"/>
        <path id="Path_8161" data-name="Path 8161" d="M48.714,85.177A1.511,1.511,0,1,0,47.2,83.666a1.5,1.5,0,0,0,1.511,1.511Z" fill="#3d6e72"/>
        <path id="Path_8162" data-name="Path 8162" d="M52.327,43.88a1.509,1.509,0,0,0-1.647.333L38.561,56.331a1.523,1.523,0,0,0,0,2.143L50.68,70.593a1.521,1.521,0,0,0,1.073.439,1.267,1.267,0,0,0,.571-.121,1.536,1.536,0,0,0,.937-1.406V45.286A1.536,1.536,0,0,0,52.327,43.88Zm-2.1,21.986L41.766,57.4l8.461-8.461Z" fill="#af650f"/>
        <path id="Path_8163" data-name="Path 8163" d="M58.81,13.463h-9.1a1.511,1.511,0,0,0,0,3.021h9.1a1.516,1.516,0,0,0,1.511-1.511,1.5,1.5,0,0,0-1.511-1.51Z" fill="#af650f"/>
        <path id="Path_8164" data-name="Path 8164" d="M14.37,16.5H41.644a1.511,1.511,0,1,0,0-3.021H14.37a1.511,1.511,0,0,0,0,3.021Z" fill="#af650f"/>
        <path id="Path_8165" data-name="Path 8165" d="M58.81,23.571H34.074a1.511,1.511,0,0,0,0,3.021H58.81a1.516,1.516,0,0,0,1.511-1.511,1.5,1.5,0,0,0-1.511-1.51Z" fill="#af650f"/>
        <path id="Path_8166" data-name="Path 8166" d="M14.37,26.594H25.99a1.511,1.511,0,1,0,0-3.021H14.37a1.511,1.511,0,1,0,0,3.021Z" fill="#af650f"/>
        <path id="Path_8167" data-name="Path 8167" d="M43.156,35.191a1.516,1.516,0,0,0-1.511-1.511H14.37a1.511,1.511,0,1,0,0,3.021H41.644A1.516,1.516,0,0,0,43.156,35.191Z" fill="#af650f"/>
      </g>
    </g>
  </g>
</svg>
