<svg xmlns="http://www.w3.org/2000/svg" xmlns:xlink="http://www.w3.org/1999/xlink" width="100" height="100" viewBox="0 0 100 100"><defs><style>.a,.c{fill:#3d6e72;}.a{stroke:#707070;}.b{clip-path:url(#a);}.d{fill:#af650f;}</style><clipPath id="a"><rect class="a" width="100" height="100" transform="translate(527.556 1332)"/></clipPath></defs><g class="b" transform="translate(-527.556 -1332)"><g transform="translate(522.458 1326.255)"><path class="c" d="M98.69,78.362H94.066V75.6H98.69a3.664,3.664,0,0,0,3.662-3.662V12.153A3.664,3.664,0,0,0,98.69,8.491H11.506a3.664,3.664,0,0,0-3.662,3.662v59.8a3.664,3.664,0,0,0,3.662,3.662H26.436v2.746H11.506A6.412,6.412,0,0,1,5.1,71.954v-59.8a6.412,6.412,0,0,1,6.408-6.408H98.69a6.412,6.412,0,0,1,6.408,6.408v59.8A6.423,6.423,0,0,1,98.69,78.362Z"/><rect class="c" width="97.254" height="2.746" transform="translate(6.471 19.081)"/><rect class="c" width="3.093" height="2.746" transform="translate(81.266 12.247)"/><rect class="c" width="3.093" height="2.746" transform="translate(87.642 12.247)"/><rect class="c" width="3.093" height="2.746" transform="translate(94.034 12.247)"/><path class="d" d="M65.041,105.745h-9.58l-1.468-5.35a24.2,24.2,0,0,1-5.871-2.446l-4.83,2.746-6.771-6.771,2.746-4.83a24.2,24.2,0,0,1-2.446-5.871l-5.35-1.468v-9.58l5.35-1.468a23.591,23.591,0,0,1,2.446-5.871l-2.746-4.83,6.771-6.771,4.83,2.746a24.2,24.2,0,0,1,5.871-2.446l1.468-5.35h9.58l1.468,5.35a24.2,24.2,0,0,1,5.871,2.446l4.83-2.746,6.771,6.771-2.746,4.83a24.2,24.2,0,0,1,2.446,5.871l5.35,1.468v9.58l-5.35,1.468a23.591,23.591,0,0,1-2.446,5.871l2.746,4.83-6.771,6.771-4.83-2.746a24.2,24.2,0,0,1-5.871,2.446ZM57.56,103h5.382l1.342-4.893.8-.189a21.644,21.644,0,0,0,6.55-2.715l.694-.442,4.419,2.509,3.8-3.8-2.509-4.419.442-.694A21.252,21.252,0,0,0,81.2,81.8l.189-.8,4.893-1.342V74.274l-4.893-1.342-.189-.8a21.644,21.644,0,0,0-2.715-6.55l-.442-.694,2.509-4.419-3.8-3.8L72.333,59.17l-.694-.442a21.252,21.252,0,0,0-6.55-2.715l-.8-.189-1.342-4.893H57.56l-1.342,4.893-.8.189a21.644,21.644,0,0,0-6.55,2.715l-.694.442L43.75,56.66l-3.8,3.8,2.509,4.419-.442.694a21.252,21.252,0,0,0-2.715,6.55l-.189.8-4.893,1.342v5.382L39.11,81l.189.8a21.644,21.644,0,0,0,2.715,6.55l.442.694-2.509,4.419,3.8,3.8,4.419-2.509.694.442a21.252,21.252,0,0,0,6.55,2.715l.8.189Zm2.7-11A15.025,15.025,0,1,1,75.284,76.973,15.041,15.041,0,0,1,60.259,92Zm0-27.289A12.279,12.279,0,1,0,72.538,76.989,12.293,12.293,0,0,0,60.259,64.71Z"/><rect class="c" width="75.095" height="2.746" transform="translate(15.641 28.772)"/><rect class="c" width="32.813" height="2.746" transform="translate(15.641 37.042)"/></g></g></svg>