<svg xmlns="http://www.w3.org/2000/svg" xmlns:xlink="http://www.w3.org/1999/xlink" width="200" height="100" viewBox="0 0 200 100">
  <defs>
    <clipPath id="clip-path">
      <rect id="Rectangle_2095" data-name="Rectangle 2095" width="200" height="100" transform="translate(617 2021)" fill="#fff" stroke="#707070" stroke-width="1"/>
    </clipPath>
  </defs>
  <g id="Mask_Group_180" data-name="Mask Group 180" transform="translate(-617 -2021)" clip-path="url(#clip-path)">
    <g id="_02_cdiscount" data-name="02 cdiscount" transform="translate(613.76 1967.76)">
      <path id="Path_9904" data-name="Path 9904" d="M25.331,108.984a7.883,7.883,0,0,1-6.775,3.535,8.365,8.365,0,0,1-8.542-8.542,8.022,8.022,0,0,1,2.651-6.186,8.945,8.945,0,0,1,6.186-2.356,8.646,8.646,0,0,1,6.775,3.535l.295.295,5.007-4.418-.295-.295a15.69,15.69,0,0,0-12.077-5.6,15.025,15.025,0,1,0,0,30.044,15.69,15.69,0,0,0,12.077-5.6l.295-.295-5.007-4.418Z" fill="#e23a05"/>
      <path id="Path_9905" data-name="Path 9905" d="M55.376,87.776v30.339h-5.6v-1.473a11.875,11.875,0,0,1-6.48,1.767,11,11,0,0,1-11.193-11.193A10.83,10.83,0,0,1,43.3,96.024a12.613,12.613,0,0,1,6.48,1.767v-9.72h5.6Zm-5.6,23.859V102.8a8.224,8.224,0,0,0-5.3-1.767A6.116,6.116,0,0,0,38,107.216c0,3.829,2.651,6.186,6.48,6.186A8.224,8.224,0,0,0,49.779,111.635ZM60.088,98.085h5.6v20.029h-5.6Zm11.487,14.138a16.888,16.888,0,0,0,7.364,1.767c2.651,0,3.535-.884,3.535-2.062s-1.178-1.767-4.713-2.651c-4.713-1.178-8.247-2.651-8.247-6.775,0-3.829,3.24-6.775,8.247-6.775A23.021,23.021,0,0,1,86.3,97.5l-1.767,4.124a18.709,18.709,0,0,0-6.775-1.473c-2.062,0-3.24.884-3.24,2.062s1.473,1.767,4.713,2.356c5.007,1.178,7.953,2.946,7.953,6.775,0,4.124-3.24,6.775-8.837,6.775a20.118,20.118,0,0,1-9.426-2.062Zm38.881,1.767a10.738,10.738,0,0,1-8.542,4.418c-6.48,0-12.077-5.007-12.077-11.193s5.3-11.193,12.077-11.193a10.738,10.738,0,0,1,8.542,4.418l-3.535,3.24a5.787,5.787,0,0,0-5.007-2.651,6.486,6.486,0,0,0-6.48,6.186,6.29,6.29,0,0,0,6.48,6.186,5.787,5.787,0,0,0,5.007-2.651Zm25.626-6.775c0,6.186-5.3,11.193-12.077,11.193-6.48,0-12.077-5.007-12.077-11.193s5.3-11.193,12.077-11.193A11.408,11.408,0,0,1,136.082,107.216Zm-5.6,0a6.29,6.29,0,0,0-6.48-6.186,6.486,6.486,0,0,0-6.48,6.186,6.487,6.487,0,0,0,12.96,0Zm29.75-10.9v21.8h-5.6v-1.473a10.621,10.621,0,0,1-5.891,1.767c-6.48,0-9.426-2.946-9.426-10.015V96.318h5.6v12.077c0,3.24,1.767,5.007,4.713,5.007a7.432,7.432,0,0,0,5.007-1.767V96.318Zm25.331,9.72v12.077h-5.6V106.038c0-3.24-1.767-5.007-4.713-5.007a6.219,6.219,0,0,0-4.713,1.767v15.611h-5.6v-21.8h5.6v1.473a9.347,9.347,0,0,1,5.891-1.767C182.621,95.729,185.567,98.969,185.567,106.038Zm11.487-5.007v7.658c0,3.829.589,5.007,3.535,5.007a8.155,8.155,0,0,0,2.651-.295v4.124a16.049,16.049,0,0,1-5.007.884c-3.535,0-6.48-2.356-6.48-6.775v-10.6h-3.24V96.318h2.946V87.776h5.6v8.542h6.186v4.713h-6.186Z" fill="#293847"/>
      <path id="Path_9906" data-name="Path 9906" d="M59.794,90.722a3.24,3.24,0,1,1,3.24,3.24A3.269,3.269,0,0,1,59.794,90.722Z" fill="#e23a05"/>
    </g>
  </g>
</svg>
