<svg xmlns="http://www.w3.org/2000/svg" xmlns:xlink="http://www.w3.org/1999/xlink" width="140" height="70" viewBox="0 0 140 70">
  <defs>
    <clipPath id="clip-path">
      <rect id="Rectangle_2596" data-name="Rectangle 2596" width="140" height="70" transform="translate(15)" fill="#f89522" stroke="#707070" stroke-width="1"/>
    </clipPath>
  </defs>
  <g id="Mask_Group_2888" data-name="Mask Group 2888" transform="translate(-15)" clip-path="url(#clip-path)">
    <g id="mobile-notification-1451307" transform="translate(39.313 -1.6)">
      <path id="Path_16394" data-name="Path 16394" d="M51.2,51.371v8.343H15.714V9.428H36.742A26.379,26.379,0,0,1,47.542,1.6H17.657A6.579,6.579,0,0,0,13.2,3.085a5.934,5.934,0,0,0-1.714,4.457V65.257a6.676,6.676,0,0,0,.229,2.114A5.835,5.835,0,0,0,17.657,71.6H49.314a5.881,5.881,0,0,0,5.943-4.229,6.676,6.676,0,0,0,.229-2.114V51.942a21.484,21.484,0,0,1-4.286-.571ZM37.143,66.056a3.791,3.791,0,0,1-3.657,3.257h-.057a3.839,3.839,0,0,1-3.6-3.257A3.7,3.7,0,0,1,33.086,62h.8a3.7,3.7,0,0,1,3.257,4.057Z" fill="#f89522"/>
      <path id="Path_16395" data-name="Path 16395" d="M56.8,2.971A22.963,22.963,0,0,0,36.858,37.028a12.988,12.988,0,0,1-2.114,3.314,11.128,11.128,0,0,1-4.4,3.028c-.286.114-.114.286.057.343.286.114.571.286.857.4a17.172,17.172,0,0,0,1.829.629,12.65,12.65,0,0,0,3.371.457A15.077,15.077,0,0,0,40,44.914a20.178,20.178,0,0,0,3.086-.743A22.934,22.934,0,1,0,56.8,2.971ZM68.857,34.456H59.885a3.053,3.053,0,0,1-2.914,2.286,3,3,0,0,1-2.914-2.286H45.086a.926.926,0,0,1-.857-1.257c.343-.8.629-1.714.743-1.943a27.925,27.925,0,0,0,1.486-7.771c.171-2.4.4-4.857,1.886-6.857a10.312,10.312,0,0,1,8.286-4.171H57.2a10.475,10.475,0,0,1,8.286,4.171c1.486,2,1.657,4.457,1.886,6.857a29.7,29.7,0,0,0,1.486,7.771c.057.171.4,1.143.743,1.943a.862.862,0,0,1-.743,1.257Z" fill="#f89522"/>
    </g>
  </g>
</svg>
