<svg xmlns="http://www.w3.org/2000/svg" xmlns:xlink="http://www.w3.org/1999/xlink" width="60" height="60" viewBox="0 0 60 60">
  <defs>
    <clipPath id="clip-path">
      <rect id="Rectangle_2114" data-name="Rectangle 2114" width="60" height="60" transform="translate(-16537 -22700)" fill="#fff" stroke="#707070" stroke-width="1"/>
    </clipPath>
  </defs>
  <g id="Mask_Group_199" data-name="Mask Group 199" transform="translate(16537 22700)" clip-path="url(#clip-path)">
    <g id="_1924633" data-name="1924633" transform="translate(-16537.967 -22700.967)">
      <path id="Path_9987" data-name="Path 9987" d="M58.065,33.871a2.877,2.877,0,0,0-.98.181,6.3,6.3,0,0,0-3.278-5.226,5.8,5.8,0,1,0-6.6.254,6.771,6.771,0,0,0-3.169,5.165l-.411,4.464H38.71a2.9,2.9,0,0,0,0,5.806h.52a5.794,5.794,0,0,0-1.488,3.871v9.194a3.387,3.387,0,1,0,6.774,0V53.226h3.871v5.806H44.516v1.935H58.065V59.032H54.194V53.153a7.756,7.756,0,0,0,6.774-7.669v-8.71a2.912,2.912,0,0,0-2.9-2.9ZM50.323,20.323a3.871,3.871,0,1,1-3.871,3.871A3.882,3.882,0,0,1,50.323,20.323Zm-7.742,30v7.258a1.452,1.452,0,1,1-2.9,0V48.387a3.882,3.882,0,0,1,3.871-3.871h1.306a4.8,4.8,0,0,0,4.815-4.4l.653-7.125L48.4,32.806l-.653,7.125a2.887,2.887,0,0,1-2.891,2.637H38.71a.968.968,0,0,1,0-1.935h4.923a1.924,1.924,0,0,0,1.923-1.754l.411-4.464a4.846,4.846,0,0,1,4.839-4.427,4.368,4.368,0,0,1,4.355,4.355v9.194a3.882,3.882,0,0,1-3.871,3.871H45.484a2.93,2.93,0,0,0-2.9,2.915Zm7.742,8.71V53.226h1.935v5.806Zm8.71-13.548a5.808,5.808,0,0,1-5.806,5.806h-8.71v-.968a.971.971,0,0,1,.968-.968H51.29A5.808,5.808,0,0,0,57.1,43.548V36.774a.968.968,0,0,1,1.935,0Z" fill="#3d6e72"/>
      <path id="Path_9988" data-name="Path 9988" d="M26.129,41.613a2.912,2.912,0,0,0-2.9-2.9H18.3l-.411-4.464a6.792,6.792,0,0,0-3.169-5.165,5.8,5.8,0,1,0-6.593-.254,6.3,6.3,0,0,0-3.278,5.226,2.991,2.991,0,0,0-.98-.181,2.912,2.912,0,0,0-2.9,2.9v8.71a7.738,7.738,0,0,0,6.774,7.669v5.879H3.871v1.935H17.419V59.032H13.548V53.226h3.871v4.355a3.387,3.387,0,0,0,6.774,0V48.387a5.735,5.735,0,0,0-1.488-3.871h.52a2.912,2.912,0,0,0,2.9-2.9ZM11.613,20.323a3.871,3.871,0,1,1-3.871,3.871A3.882,3.882,0,0,1,11.613,20.323Zm0,38.71H9.677V53.226h1.935ZM8.71,51.29A5.808,5.808,0,0,1,2.9,45.484v-8.71a.968.968,0,1,1,1.935,0v6.774a5.808,5.808,0,0,0,5.806,5.806h5.806a.971.971,0,0,1,.968.968v.968Zm3.556-11.177a4.82,4.82,0,0,0,4.815,4.4h1.306a3.882,3.882,0,0,1,3.871,3.871v9.194a1.452,1.452,0,1,1-2.9,0V50.323a2.912,2.912,0,0,0-2.9-2.9H10.645a3.882,3.882,0,0,1-3.871-3.871V34.355A4.368,4.368,0,0,1,11.129,30a4.836,4.836,0,0,1,4.839,4.415l.411,4.464A1.933,1.933,0,0,0,18.3,40.645h4.923a.968.968,0,1,1,0,1.935H17.081a2.887,2.887,0,0,1-2.891-2.637l-.653-7.125-1.923.169Z" fill="#3d6e72"/>
      <path id="Path_9989" data-name="Path 9989" d="M33.871,20.323V33.871H31.935V21.29H30V33.871H28.065V20.323H26.129V35.129l4.839,7.258,4.839-7.258V20.323ZM28.9,35.806h4.125l-2.056,3.1Z" fill="#af650f"/>
      <g id="Group_6975" data-name="Group 6975">
        <path id="Path_9990" data-name="Path 9990" d="M47.419,10.645H57.1v1.935H47.419Z" fill="#af650f"/>
        <path id="Path_9991" data-name="Path 9991" d="M4.839,10.645h9.677v1.935H4.839Z" fill="#af650f"/>
        <path id="Path_9992" data-name="Path 9992" d="M30.968,22.258A10.645,10.645,0,1,1,41.613,11.613,10.661,10.661,0,0,1,30.968,22.258Z" fill="#af650f"/>
      </g>
      <path id="Path_9993" data-name="Path 9993" d="M30.968,10.645a.968.968,0,1,1,.968-.968h1.935a2.893,2.893,0,0,0-1.935-2.722V4.839H30V6.956a2.894,2.894,0,0,0,.968,5.625.968.968,0,1,1-.968.968H28.065A2.893,2.893,0,0,0,30,16.27v2.117h1.935V16.27a2.894,2.894,0,0,0-.968-5.625Z" fill="#fff"/>
      <path id="Path_9994" data-name="Path 9994" d="M56.129,16.452H43.548V11.613a4.837,4.837,0,0,1,4.839-4.839h7.742a4.839,4.839,0,0,1,0,9.677ZM45.484,14.516H56.129a2.9,2.9,0,0,0,0-5.806H48.387a2.912,2.912,0,0,0-2.9,2.9Z" fill="#3d6e72"/>
      <path id="Path_9995" data-name="Path 9995" d="M47.419,10.645h1.935v1.935H47.419Z" fill="#3d6e72"/>
      <path id="Path_9996" data-name="Path 9996" d="M51.29,10.645h1.935v1.935H51.29Z" fill="#3d6e72"/>
      <path id="Path_9997" data-name="Path 9997" d="M55.161,10.645H57.1v1.935H55.161Z" fill="#3d6e72"/>
      <path id="Path_9998" data-name="Path 9998" d="M18.387,16.452H5.806a4.839,4.839,0,0,1,0-9.677h7.742a4.837,4.837,0,0,1,4.839,4.839ZM5.806,8.71a2.9,2.9,0,0,0,0,5.806H16.452v-2.9a2.912,2.912,0,0,0-2.9-2.9Z" fill="#3d6e72"/>
      <path id="Path_9999" data-name="Path 9999" d="M12.581,10.645h1.935v1.935H12.581Z" fill="#3d6e72"/>
      <path id="Path_10000" data-name="Path 10000" d="M8.71,10.645h1.935v1.935H8.71Z" fill="#3d6e72"/>
      <path id="Path_10001" data-name="Path 10001" d="M4.839,10.645H6.774v1.935H4.839Z" fill="#3d6e72"/>
    </g>
  </g>
</svg>
