<svg xmlns="http://www.w3.org/2000/svg" xmlns:xlink="http://www.w3.org/1999/xlink" width="80" height="80" viewBox="0 0 80 80">
  <defs>
    <clipPath id="clip-path">
      <rect id="Rectangle_2539" data-name="Rectangle 2539" width="80" height="80" transform="translate(-2031 7663)" fill="#393939"/>
    </clipPath>
  </defs>
  <g id="bank_beating_rates_icon" transform="translate(2031 -7663)" clip-path="url(#clip-path)">
    <g id="bank_beating_rates_icon-2" data-name="bank_beating_rates_icon" transform="translate(-2031.381 7664.898)">
      <g id="Group_8107" data-name="Group 8107" transform="translate(0 -1527.409)">
        <path id="Path_13379" data-name="Path 13379" d="M40.381,1527.6l-40,30H11.81v34.286H7.238v4.667H.381v6.857h80v-6.857H73.524v-4.666H68.952v-34.286H80.381Zm0,2.857,33.146,24.858H7.238Zm0,2.632-28,20.309H68.375L40.381,1533.09Zm0,2.825,20.952,15.2h-41.9ZM14.1,1557.608H18.67v34.286H14.1v-34.286Zm6.857,0h6.857v11.384a13.6,13.6,0,0,1,2.286-3.657v-7.723H34.67v4.309a13.6,13.6,0,0,1,2.286-.821v-3.488h6.857v3.5a13.6,13.6,0,0,1,2.286.824V1557.6H50.67v7.813a13.606,13.606,0,0,1,2.286,3.744V1557.6h6.857v34.286H52.955v-12.553a13.6,13.6,0,0,1-2.286,3.765v8.789H46.1v-5.333a13.609,13.609,0,0,1-2.286.833v4.5H36.955V1587.4a13.591,13.591,0,0,1-2.286-.812v5.3H30.1v-8.73a13.6,13.6,0,0,1-2.286-3.675v12.405H20.955V1557.6Zm41.143,0H66.67v34.286H62.1v-34.286ZM9.527,1594.179H71.241v2.286H9.527Zm-6.857,4.667H78.1v2.286H2.67Z" fill="#393939" fill-rule="evenodd"/>
        <path id="Path_13380" data-name="Path 13380" d="M40.349,1559.5a14.743,14.743,0,1,0,14.744,14.743A14.742,14.742,0,0,0,40.349,1559.5Zm0,2.286a12.439,12.439,0,1,1-8.812,3.643,12.457,12.457,0,0,1,8.812-3.643Z" fill="#f89522"/>
        <path id="Path_13381" data-name="Path 13381" d="M39.45,1565.608v2.59a3.832,3.832,0,0,0-2.825,3.628,3.892,3.892,0,0,0,3.869,3.793v.015a1.718,1.718,0,0,1,1.637.9,1.371,1.371,0,0,1-.291,1.637,1.829,1.829,0,0,1-1.889.384,1.515,1.515,0,0,1-1.039-1.405H36.625a3.828,3.828,0,0,0,2.523,3.544c.1.037.2.059.3.09v2.58h2.286v-2.574a3.983,3.983,0,0,0,1.717-1,3.72,3.72,0,0,0,.727-4.267,3.962,3.962,0,0,0-3.587-2.17v-.015a1.524,1.524,0,1,1,1.676-1.524l2.286-.015a3.82,3.82,0,0,0-2.825-3.61v-2.58H39.447Z" fill="#f89522"/>
      </g>
    </g>
  </g>
</svg>
