<svg xmlns="http://www.w3.org/2000/svg" xmlns:xlink="http://www.w3.org/1999/xlink" width="120" height="60" viewBox="0 0 120 60">
  <defs>
    <clipPath id="clip-path">
      <rect id="Rectangle_2749" data-name="Rectangle 2749" width="120" height="60" transform="translate(23 12.999)" fill="#f89522" stroke="#707070" stroke-width="1"/>
    </clipPath>
  </defs>
  <g id="Mask_Group_2902" data-name="Mask Group 2902" transform="translate(-23 -12.999)" clip-path="url(#clip-path)">
    <g id="financial-event-calendar-2707276" transform="translate(43.539 11.43)">
      <path id="Path_16408" data-name="Path 16408" d="M36.5,47.612A13.677,13.677,0,0,0,22.913,34.354a13.313,13.313,0,0,0-1.838.122A13.608,13.608,0,1,0,36.512,47.962c0-.141,0-.264-.01-.349Zm-5.343,7.266-1.121-1.122-1.329,1.338,1.121,1.121a10.72,10.72,0,0,1-5.975,2.478V57.1H21.97v1.593A10.724,10.724,0,0,1,16,56.216l1.121-1.121-1.329-1.338-1.131,1.131A10.721,10.721,0,0,1,12.179,48.9h1.593V47.019H12.18a10.748,10.748,0,0,1,2.488-5.975l1.121,1.121,1.329-1.329L16,39.716a10.636,10.636,0,0,1,5.457-2.441c.169-.019.349-.019.519-.028v1.574h1.885V37.228a10.686,10.686,0,0,1,5.956,2.507l-1.1,1.1,1.329,1.329,1.112-1.1a10.8,10.8,0,0,1,2.478,5.956H32.054V48.9h1.583a10.724,10.724,0,0,1-2.479,5.975Z" fill="#f89522"/>
      <path id="Path_16409" data-name="Path 16409" d="M24.487,47.961a1.585,1.585,0,0,1-1.574,1.583,1.536,1.536,0,0,1-.217-.028l-4.184,4.241-1.338-1.329,4.184-4.241a1.88,1.88,0,0,1-.028-.226,1.548,1.548,0,0,1,.641-1.253V40.978h1.885v5.729a1.566,1.566,0,0,1,.631,1.253Z" fill="#f89522"/>
      <path id="Path_16410" data-name="Path 16410" d="M69.616,14.258V9.739a5.659,5.659,0,0,0-5.654-5.654h-.942V1.569H61.135V4.085H57.309V1.569H55.424V4.085H51.589V1.569H49.7V4.085H45.878V1.569H43.993V4.085H40.167V1.569H38.283V4.085H34.457V1.569H32.572V4.085H28.737V1.569H26.852V4.085h-.943a5.659,5.659,0,0,0-5.654,5.654v4.519Z" fill="#f89522"/>
      <path id="Path_16411" data-name="Path 16411" d="M43.309,28.583c0,.759.546,1,1.323,1.248V27.445c-.709.063-1.323.435-1.323,1.138Z" fill="#f89522"/>
      <path id="Path_16412" data-name="Path 16412" d="M20.256,16.147V32.705c.189-.038.377-.066.566-.094A15.484,15.484,0,0,1,38.387,47.519c.009.122.009.273.009.443,0,.207,0,.405-.019.613H63.962a5.659,5.659,0,0,0,5.654-5.654V16.148Zm24.68,24.8A9.951,9.951,0,1,1,54.887,31,9.951,9.951,0,0,1,44.936,40.95Z" fill="#f89522"/>
      <path id="Path_16413" data-name="Path 16413" d="M45.515,31.762v2.482c.736-.076,1.434-.444,1.434-1.186C46.95,32.26,46.337,32.008,45.515,31.762Z" fill="#f89522"/>
      <path id="Path_16414" data-name="Path 16414" d="M44.937,22.93A8.067,8.067,0,1,0,53,31a8.067,8.067,0,0,0-8.066-8.067Zm.578,12.79v.992h-.883V35.707a5.994,5.994,0,0,1-3.393-1.5L42.247,33a4.785,4.785,0,0,0,2.386,1.2V31.528c-1.808-.432-3.006-1.025-3.006-2.779a2.844,2.844,0,0,1,3.006-2.779v-.69h.883v.7a5.763,5.763,0,0,1,2.868,1.035l-.9,1.269a4.452,4.452,0,0,0-1.972-.8v2.592h.041c1.766.415,3.075,1.026,3.075,2.848,0,1.718-1.364,2.707-3.116,2.793Z" fill="#f89522"/>
    </g>
  </g>
</svg>
