<svg xmlns="http://www.w3.org/2000/svg" xmlns:xlink="http://www.w3.org/1999/xlink" width="100" height="100" viewBox="0 0 100 100"><defs><style>.a{fill:#fff;stroke:#707070;}.b{clip-path:url(#a);}.c{fill:#3d6e72;}.d{fill:#af650f;}</style><clipPath id="a"><rect class="a" width="100" height="100" transform="translate(208)"/></clipPath></defs><g class="b" transform="translate(-208)"><g transform="translate(201.548 -6.452)"><path class="c" d="M14.516,95.161H56.452V91.935H14.516A4.832,4.832,0,0,1,9.677,87.1V16.129a4.832,4.832,0,0,1,4.839-4.839H85.484a4.832,4.832,0,0,1,4.839,4.839v37.1h3.226v-37.1a8.067,8.067,0,0,0-8.065-8.065H14.516a8.067,8.067,0,0,0-8.065,8.065V87.1A8.067,8.067,0,0,0,14.516,95.161Z"/><path class="c" d="M12.9,14.516h3.226v3.226H12.9Z"/><path class="c" d="M19.355,14.516h3.226v3.226H19.355Z"/><path class="c" d="M25.806,14.516h3.226v3.226H25.806Z"/><path class="c" d="M12.9,20.968H87.1v3.226H12.9Z"/><path class="d" d="M29.5,27.887l-4.1,4.1a8.092,8.092,0,1,0,2.29,2.29l4.1-4.1ZM20.968,43.548a4.839,4.839,0,1,1,0-9.677,4.637,4.637,0,0,1,2.081.484l-3.21,3.21,2.274,2.274,3.21-3.21a4.62,4.62,0,0,1,.484,2.065A4.836,4.836,0,0,1,20.968,43.548Z"/><path class="d" d="M33.871,33.871H61.29V37.1H33.871Z"/><path class="d" d="M33.871,40.323h11.29v3.226H33.871Z"/><path class="d" d="M48.387,40.323H70.968v3.226H48.387Z"/><path class="d" d="M64.516,33.871H80.645V37.1H64.516Z"/><path class="d" d="M29.5,47.242l-4.1,4.1a8.092,8.092,0,1,0,2.29,2.29l4.1-4.1ZM20.968,62.9a4.839,4.839,0,1,1,0-9.677,4.638,4.638,0,0,1,2.081.484l-3.21,3.21,2.274,2.274,3.21-3.21a4.637,4.637,0,0,1,.484,2.081A4.832,4.832,0,0,1,20.968,62.9Z"/><path class="d" d="M33.871,53.226H61.29v3.226H33.871Z"/><path class="d" d="M33.871,59.677h11.29V62.9H33.871Z"/><path class="d" d="M48.387,59.677h12.9V62.9h-12.9Z"/><path class="d" d="M64.516,53.226h6.452v3.226H64.516Z"/><path class="d" d="M29.5,66.6l-4.1,4.1a8.092,8.092,0,1,0,2.29,2.29l4.1-4.1ZM20.968,82.258a4.839,4.839,0,1,1,0-9.677,4.638,4.638,0,0,1,2.081.484l-3.21,3.21,2.274,2.274,3.21-3.21a4.638,4.638,0,0,1,.484,2.081A4.832,4.832,0,0,1,20.968,82.258Z"/><path class="d" d="M33.871,72.581H54.839v3.226H33.871Z"/><path class="d" d="M33.871,79.032h11.29v3.226H33.871Z"/><path class="d" d="M48.387,79.032h6.452v3.226H48.387Z"/><path class="c" d="M82.258,104.839A24.194,24.194,0,1,0,58.065,80.645,24.2,24.2,0,0,0,82.258,104.839Zm0-45.161A20.968,20.968,0,1,1,61.29,80.645,20.967,20.967,0,0,1,82.258,59.677Z"/><path class="c" d="M72.419,81.532l-2.887,1.435,3.226,6.452a1.729,1.729,0,0,0,1.435.9,1.7,1.7,0,0,0,1.145-.468L94.694,70.5l-2.274-2.274L74.629,85.984Z"/></g></g></svg>