<svg xmlns="http://www.w3.org/2000/svg" xmlns:xlink="http://www.w3.org/1999/xlink" width="80" height="80" viewBox="0 0 80 80">
  <defs>
    <clipPath id="clip-path">
      <rect id="Rectangle_2553" data-name="Rectangle 2553" width="80" height="80" transform="translate(-2031 7851)" fill="#393939"/>
    </clipPath>
  </defs>
  <g id="_24_online_money_transfer_icon" data-name="24_online_money_transfer_icon" transform="translate(2031 -7851)" clip-path="url(#clip-path)">
    <g id="_24_online_money_transfer_icon-2" data-name="24_online_money_transfer_icon" transform="translate(-2039.026 7842.992)">
      <path id="Path_13369" data-name="Path 13369" d="M61.016,82.431a36.805,36.805,0,0,1-38.53-7.969l7.2.224a1.6,1.6,0,0,0,.1-3.2l-11.218-.35a1.578,1.578,0,0,0-1.65,1.549L16.57,83.9a1.6,1.6,0,0,0,1.551,1.65h.051A1.6,1.6,0,0,0,19.772,84l.234-7.479A39.983,39.983,0,0,0,86.447,36.9a1.6,1.6,0,1,0-3.072.893,36.965,36.965,0,0,1-22.358,44.64Z" fill="#393939"/>
      <path id="Path_13370" data-name="Path 13370" d="M79.661,12.835a1.6,1.6,0,0,0-1.65,1.549l-.216,6.939A39.986,39.986,0,0,0,10.606,62.129a1.6,1.6,0,1,0,3-1.123,36.8,36.8,0,0,1,62.26-37.061L68.093,23.7a1.6,1.6,0,0,0-.1,3.2l11.218.35h.05l.451-.086a1.551,1.551,0,0,0,.331-.149,1.5,1.5,0,0,0,.142-.064c.026-.018.037-.046.061-.064a.877.877,0,0,0,.11-.07,1.976,1.976,0,0,0,.48-.989c0-.045.029-.083.03-.128l.35-11.218a1.6,1.6,0,0,0-1.557-1.648Z" fill="#393939"/>
      <g id="Group_8104" data-name="Group 8104" transform="translate(-3.821 -3.506)">
        <path id="Path_13371" data-name="Path 13371" d="M39.121,54A14.9,14.9,0,1,0,24.227,39.1,14.9,14.9,0,0,0,39.121,54Zm0-27.794a12.895,12.895,0,1,1-12.89,12.9,12.895,12.895,0,0,1,12.89-12.9Z" fill="#393939"/>
        <path id="Path_13372" data-name="Path 13372" d="M43.473,46.566A3.288,3.288,0,0,1,42.88,45.2l-2.58.277a5.246,5.246,0,0,0,1.363,3.015,4.573,4.573,0,0,0,2.776,1.28v1.8h1.44V49.716a4.756,4.756,0,0,0,3.008-1.5A4.391,4.391,0,0,0,49.97,45.2a3.938,3.938,0,0,0-.859-2.624,6.38,6.38,0,0,0-3.231-1.666V37.047a2.013,2.013,0,0,1,1.186,1.581l2.5-.32a4.135,4.135,0,0,0-1.186-2.367,4.241,4.241,0,0,0-2.5-1.072v-.978H44.44v.978a4.121,4.121,0,0,0-2.72,1.271A3.85,3.85,0,0,0,40.7,38.86a4.2,4.2,0,0,0,.9,2.72,5.441,5.441,0,0,0,2.84,1.675V47.4a2.7,2.7,0,0,1-.968-.831Zm2.4-2.88a2.5,2.5,0,0,1,1.28.736,1.751,1.751,0,0,1,.39,1.141,1.933,1.933,0,0,1-.464,1.29,2.011,2.011,0,0,1-1.2.687V43.676Zm-2.392-3.967a1.659,1.659,0,0,1-.32-.973,1.738,1.738,0,0,1,.346-1.048,1.855,1.855,0,0,1,.93-.672v3.42a2.192,2.192,0,0,1-.952-.736Z" transform="translate(-6.014 -3.621)" fill="#f89522"/>
      </g>
      <g id="Group_8105" data-name="Group 8105" transform="translate(20.38 22.771)">
        <path id="Path_13371-2" data-name="Path 13371" d="M39.121,54A14.9,14.9,0,1,0,24.227,39.1,14.9,14.9,0,0,0,39.121,54Zm0-27.794a12.895,12.895,0,1,1-12.89,12.9,12.895,12.895,0,0,1,12.89-12.9Z" fill="#393939"/>
        <g id="Group_8106" data-name="Group 8106" transform="translate(31.416 33.598)">
          <path id="Path_13375" data-name="Path 13375" d="M326.648,348.949a3.3,3.3,0,0,0-6.6,0,1.1,1.1,0,1,0,2.2.013h0a1.658,1.658,0,0,1,.181-.663,1.163,1.163,0,0,1,1.84,0,1.5,1.5,0,0,1,.139.378l-4.177,6.265a1.1,1.1,0,0,0,.915,1.711h4.4a1.1,1.1,0,0,0,0-2.2H323.2l3.261-4.892A1.1,1.1,0,0,0,326.648,348.949Z" transform="translate(-320.044 -345.648)" fill="#f89522"/>
          <path id="Path_13376" data-name="Path 13376" d="M402.358,356.654a1.1,1.1,0,0,0,1.1-1.1v-1.1h1.1a1.1,1.1,0,0,0,0-2.2h-1.1v-5.5a1.1,1.1,0,0,0-2.016-.611l-4.4,6.6a1.1,1.1,0,0,0,.915,1.711h3.3v1.1a1.1,1.1,0,0,0,1.1,1.106Zm-2.346-4.4,1.245-1.867v1.867Z" transform="translate(-390.251 -345.648)" fill="#f89522"/>
        </g>
      </g>
    </g>
  </g>
</svg>
