<svg xmlns="http://www.w3.org/2000/svg" xmlns:xlink="http://www.w3.org/1999/xlink" width="70" height="70" viewBox="0 0 70 70"><defs><style>.a,.c{fill:#393939;}.a{stroke:#707070;}.b{clip-path:url(#a);}</style><clipPath id="a"><rect class="a" width="70" height="70" transform="translate(4.02 -12.219)"/></clipPath></defs><g class="b" transform="translate(-4.02 12.219)"><g transform="translate(4.02 -1.234)"><path class="c" d="M.744,25.541l9.627,3.976-2.042.952a1.22,1.22,0,0,0-.574,1.568L10.529,38a1.213,1.213,0,0,0,.686.632,1.187,1.187,0,0,0,.932,0l21.1-9.9.266-2.809.37-3.756a.9.9,0,0,1,.982-.821.89.89,0,0,1,.74.528.831.831,0,0,1,.1.462l-2.446,25.92a2.427,2.427,0,0,0,1.9.42c.932-.247,1.761-1.337,2.446-3.132L47.394,16.41l.281-.828a.918.918,0,1,1,1.761.52.682.682,0,0,0-.023.065l-.955,2.793-1.075,3.205L63.91,14.423c4.773-2.231,7.227-6.746,5.578-10.267A6.187,6.187,0,0,0,64.707.815a11.369,11.369,0,0,0-6.684,1.029L39.307,10.578,19.217,2.734c-2.531-.952-4.538-.928-5.944.089A5,5,0,0,0,11.45,6.775a1.227,1.227,0,0,0,.524.963l13.534,9.273-7.759,3.671L4.743,17.427a1.232,1.232,0,0,0-1.356.586l-3.228,5.8a1.221,1.221,0,0,0,.466,1.664C.663,25.5.705,25.522.744,25.541Zm0,0" transform="translate(-0.001 -0.689)"/></g></g></svg>