<svg xmlns="http://www.w3.org/2000/svg" xmlns:xlink="http://www.w3.org/1999/xlink" width="70" height="70" viewBox="0 0 70 70"><defs><style>.a,.c{fill:#393939;}.a{stroke:#707070;}.b{clip-path:url(#a);}</style><clipPath id="a"><rect class="a" width="70" height="70" transform="translate(4.02 -12.219)"/></clipPath></defs><g class="b" transform="translate(-4.02 12.219)"><g transform="translate(4.02 -7.98)"><path class="c" d="M41.211,46.875h12.3v4.1h-12.3Zm0,0" transform="translate(-12.363 -14.063)"/><path class="c" d="M56.79,41.45H45.254V43.5A2.05,2.05,0,0,1,43.2,45.551H26.8A2.05,2.05,0,0,1,24.746,43.5V41.45H13.21a6.145,6.145,0,0,1-5.836-4.206L0,15.119V59.907a6.159,6.159,0,0,0,6.152,6.152h57.7A6.159,6.159,0,0,0,70,59.907V15.121L62.626,37.244A6.144,6.144,0,0,1,56.79,41.45Zm0,0" transform="translate(0 -4.536)"/><path class="c" d="M44.715,0H28.309a6.159,6.159,0,0,0-6.152,6.152V8.2H5.041l7.735,23.207a2.05,2.05,0,0,0,1.947,1.4H26.258V30.762a2.05,2.05,0,0,1,2.051-2.051H44.715a2.05,2.05,0,0,1,2.051,2.051v2.051H58.3a2.05,2.05,0,0,0,1.947-1.4L67.984,8.2H50.868V6.152A6.159,6.159,0,0,0,44.715,0ZM26.258,8.2V6.152A2.052,2.052,0,0,1,28.309,4.1H44.715a2.052,2.052,0,0,1,2.051,2.051V8.2Zm0,0" transform="translate(-1.512)"/></g></g></svg>