<svg xmlns="http://www.w3.org/2000/svg" xmlns:xlink="http://www.w3.org/1999/xlink" width="70" height="70" viewBox="0 0 70 70"><defs><style>.a,.c{fill:#f89522;}.a{stroke:#707070;}.b{clip-path:url(#a);}</style><clipPath id="a"><rect class="a" width="70" height="70" transform="translate(4.02 -12.219)"/></clipPath></defs><g class="b" transform="translate(-4.02 12.219)"><g transform="translate(4.02 -7.981)"><path class="c" d="M22.7,41.016H59.746a2.044,2.044,0,0,0,1.971-1.488l8.2-28.711A2.048,2.048,0,0,0,67.95,8.2H17.961l-1.466-6.6a2.051,2.051,0,0,0-2-1.606H2.051a2.051,2.051,0,1,0,0,4.1h10.8l7.406,33.325A6.149,6.149,0,0,0,22.7,49.219H59.746a2.051,2.051,0,0,0,0-4.1H22.7a2.051,2.051,0,1,1,0-4.1Zm0,0" transform="translate(0 0)"/><path class="c" d="M29.492,76.465a6.153,6.153,0,1,0,6.153-6.152A6.159,6.159,0,0,0,29.492,76.465Zm0,0" transform="translate(-8.848 -21.094)"/><path class="c" d="M70.7,76.465a6.152,6.152,0,1,0,6.152-6.152A6.159,6.159,0,0,0,70.7,76.465Zm0,0" transform="translate(-21.211 -21.094)"/></g></g></svg>