<svg xmlns="http://www.w3.org/2000/svg" xmlns:xlink="http://www.w3.org/1999/xlink" width="100" height="100" viewBox="0 0 100 100">
  <defs>
    <clipPath id="clip-path">
      <rect id="Rectangle_2512" data-name="Rectangle 2512" width="100" height="100" fill="#393939" stroke="#707070" stroke-width="1"/>
    </clipPath>
  </defs>
  <g id="MTFX_Rate_Alerts_Icon" data-name="MTFX Rate Alerts Icon" clip-path="url(#clip-path)">
    <g id="_2.5_Alert_alarm" data-name="2.5 Alert alarm" transform="translate(1.428 1.427)">
      <g id="Group_7910" data-name="Group 7910">
        <path id="Path_13256" data-name="Path 13256" d="M49.337,39.925l-2.511-2.511V30.687a13.216,13.216,0,0,0-10.7-12.972v-1.7a2.5,2.5,0,1,0-5,0v1.682a13.2,13.2,0,0,0-10.7,12.972v6.748l-2.511,2.511v3.341H15.4v2.511H51.892V43.266H49.381V39.925Z" transform="translate(-14.461 -13.5)" fill="#f89522"/>
        <path id="Path_13257" data-name="Path 13257" d="M79.885,176.341A5.894,5.894,0,0,0,85.192,173H74.6A5.862,5.862,0,0,0,79.885,176.341Z" transform="translate(-60.733 -138.168)" fill="#f89522"/>
        <path id="Path_13258" data-name="Path 13258" d="M144.617,27.811l2.468-.48a19.985,19.985,0,0,0-3.407-7.84A19.553,19.553,0,0,0,137.3,13.9l-1.2,2.206A16.8,16.8,0,0,1,144.617,27.811Z" transform="translate(-108.802 -13.813)" fill="#f89522"/>
        <path id="Path_13259" data-name="Path 13259" d="M22.107,16.006l-1.2-2.206a20.183,20.183,0,0,0-6.4,5.591,19.986,19.986,0,0,0-3.407,7.84l2.468.48A16.853,16.853,0,0,1,22.107,16.006Z" transform="translate(-11.1 -13.734)" fill="#f89522"/>
      </g>
      <g id="Group_7913" data-name="Group 7913" transform="translate(9.303 16.139)">
        <g id="Group_7912" data-name="Group 7912">
          <g id="Group_7911" data-name="Group 7911">
            <path id="Path_13260" data-name="Path 13260" d="M73.96,134.571a1.827,1.827,0,0,0,2.577.087l24.7-23.062,20.048,5a3.765,3.765,0,0,0,3.494-.961l15.746-15.746v.306a1.831,1.831,0,0,0,1.834,1.834h3.669a1.831,1.831,0,0,0,1.834-1.834V89.234a1.831,1.831,0,0,0-1.834-1.834H135.02a1.831,1.831,0,0,0-1.834,1.834V92.9a1.831,1.831,0,0,0,1.834,1.834h.306L121.044,109.02l-19.982-4.979a3.613,3.613,0,0,0-3.385.874L71.536,129.286a1.853,1.853,0,0,0-.087,2.6Z" transform="translate(-67.19 -87.4)" fill="#f89522"/>
            <path id="Path_13261" data-name="Path 13261" d="M139.875,239.442H138.04V189.934a1.831,1.831,0,0,0-1.834-1.834H125.2a1.831,1.831,0,0,0-1.834,1.834v49.486h-7.338V204.61a1.831,1.831,0,0,0-1.834-1.834H103.186a1.831,1.831,0,0,0-1.834,1.834v34.833H94.014V200.919a1.831,1.831,0,0,0-1.834-1.835H81.173a1.831,1.831,0,0,0-1.834,1.835v38.5H72V226.58a1.831,1.831,0,0,0-1.834-1.834H59.2a1.831,1.831,0,0,0-1.834,1.834v12.841H55.534a1.831,1.831,0,0,0-1.834,1.834v3.669a1.831,1.831,0,0,0,1.834,1.834h84.319a1.831,1.831,0,0,0,1.834-1.834v-3.669A1.781,1.781,0,0,0,139.875,239.442Z" transform="translate(-53.7 -166.109)" fill="#393939"/>
          </g>
        </g>
      </g>
    </g>
  </g>
</svg>
