<svg xmlns="http://www.w3.org/2000/svg" xmlns:xlink="http://www.w3.org/1999/xlink" width="100" height="100" viewBox="0 0 100 100"><defs><style>.a{fill:#fff;stroke:#707070;}.b{clip-path:url(#a);}.c{fill:#3d6e72;}.d{fill:#af650f;}</style><clipPath id="a"><rect class="a" width="100" height="100" transform="translate(208)"/></clipPath></defs><g class="b" transform="translate(-208)"><g transform="translate(198.878 -9.122)"><path class="c" d="M104.291,104.291V30.084H91.385v74.206H84.932V65.574H72.044v38.7H65.591V46.2H52.7v58.074H46.25V59.122H33.361v45.169h-6.5V78.48H13.953v25.811H9.122v3.226h100v-3.226h-4.831Zm-80.642,0H17.2V81.706h6.453Zm19.341,0H36.537V62.348H42.99Zm19.358,0H55.9V49.443h6.453Zm19.358.017H75.253V68.8h6.453Zm19.341-.017H94.595V33.311h6.453Z"/><path class="d" d="M88.159,10.726v3.226h7.4l-18.7,18.682L65.574,21.368,41.385,45.557l-9.679-9.679L16.047,51.52l2.28,2.28L31.706,40.439,41.385,50.1,65.574,25.912l11.284,11.3L97.821,16.25v7.382h3.226V10.726Z"/></g></g></svg>