<svg xmlns="http://www.w3.org/2000/svg" xmlns:xlink="http://www.w3.org/1999/xlink" width="100" height="100" viewBox="0 0 100 100"><defs><style>.a{fill:#fff;stroke:#707070;}.b{clip-path:url(#a);}.c{fill:#af650f;}.d{fill:#3d6e72;}</style><clipPath id="a"><rect class="a" width="100" height="100" transform="translate(208)"/></clipPath></defs><g class="b" transform="translate(-208)"><g transform="translate(205.36 -2.647)"><path class="c" d="M100.376,77.166a11.333,11.333,0,0,0,2.256-6.769V49.428a4.819,4.819,0,0,0-6.649-4.483,4.824,4.824,0,0,0-4.648-3.58,4.739,4.739,0,0,0-3.219,1.264A4.84,4.84,0,0,0,84.9,41.366a4.707,4.707,0,0,0-1.61.3V26.85a4.785,4.785,0,0,0-.481-2.076l6.934-6.934,5.716,5.716L100.03,5.28,81.754,9.838l5.716,5.716-6.934,6.934a4.791,4.791,0,0,0-6.619,2.738H58.424L3.129,80.536l2.286,2.286L59.777,28.46H73.631V57.506a4.678,4.678,0,0,1-.5,2.121l-1.354-6.769a10.407,10.407,0,0,0-10.2-8.348,4.087,4.087,0,0,0-3.4,6.363l1.655,2.482a7.109,7.109,0,0,1,1.143,3.084l1.113,8.92a10.938,10.938,0,0,0,1.354,4.106l5.325,10.951v2.858H65.554v19.359h35.484V83.288H97.819V80.6Zm-4.8-67.449L93.7,17.253l-5.641-5.641ZM97.8,86.507v3.219H68.773V86.507ZM68.773,99.413V92.96H97.8v6.453Zm3.234-16.125v-3.6l-5.7-11.718a7.91,7.91,0,0,1-.993-2.993L64.2,56.062a10.478,10.478,0,0,0-1.67-4.483l-1.655-2.5a.869.869,0,0,1-.15-.481.857.857,0,0,1,.857-.857A7.181,7.181,0,0,1,68.607,53.5l2.076,10.364h3.926l1.384-2.753a8.12,8.12,0,0,0,.857-3.61V26.85a1.61,1.61,0,1,1,3.219,0v25.8h3.219V46.194a1.61,1.61,0,1,1,3.219,0v6.453h3.219V46.194a1.61,1.61,0,1,1,3.219,0v6.453h3.219V49.428a1.61,1.61,0,1,1,3.219,0V70.4a8.142,8.142,0,0,1-1.61,4.844l-3.219,4.3V83.3H72.007Z"/><path class="d" d="M23.616,44.585A20.969,20.969,0,1,0,2.647,23.616,21,21,0,0,0,23.616,44.585Zm0-38.7A17.742,17.742,0,1,1,5.881,23.616,17.757,17.757,0,0,1,23.616,5.881Z"/><path class="d" d="M23.616,31.679A3.223,3.223,0,0,1,20.4,28.46H17.178a6.45,6.45,0,0,0,4.844,6.227v3.46h3.219V34.928h4.844V28.475a6.452,6.452,0,0,0-6.453-6.453A3.223,3.223,0,0,1,20.412,18.8V15.584h3.219A3.223,3.223,0,0,1,26.85,18.8h3.219a6.45,6.45,0,0,0-4.844-6.227V9.116H22.007v3.219H17.163v6.453a6.452,6.452,0,0,0,6.453,6.453,3.223,3.223,0,0,1,3.219,3.219v3.219H23.616Z"/><path class="d" d="M34.913,22.007h3.219v3.219H34.913Z"/><path class="d" d="M9.1,22.007h3.234v3.219H9.1Z"/><path class="d" d="M5.881,102.647H18.788V83.288H5.881ZM9.1,86.507h6.453V99.413H9.1Z"/><path class="d" d="M25.226,102.647H38.132V67.163H25.226ZM28.46,70.382h6.453V99.413H28.46V70.382Z"/><path class="d" d="M44.585,102.647H57.491V54.257H44.585v48.39ZM47.8,57.491h6.453V99.413H47.8V57.491Z"/></g></g></svg>