<svg xmlns="http://www.w3.org/2000/svg" xmlns:xlink="http://www.w3.org/1999/xlink" width="100" height="100" viewBox="0 0 100 100">
  <defs>
    <clipPath id="clip-path">
      <rect id="Rectangle_2114" data-name="Rectangle 2114" width="100" height="100" transform="translate(-22007 -17138)" fill="#fff" stroke="#707070" stroke-width="1"/>
    </clipPath>
  </defs>
  <g id="Mask_Group_199" data-name="Mask Group 199" transform="translate(22007 17138)" clip-path="url(#clip-path)">
    <g id="Exchange" transform="translate(-22010.773 -17145.252)">
      <path id="Path_9987" data-name="Path 9987" d="M89.06,78.776,75.274,85.294a11.191,11.191,0,0,0-9.58-5.9L52.965,79.04a13.7,13.7,0,0,1-5.792-1.5l-1.3-.661a22.842,22.842,0,0,0-21.142.022l.088-2.929A1.768,1.768,0,0,0,23.1,72.169l-13.94-.374a1.768,1.768,0,0,0-1.806,1.718l-.837,30.612a1.768,1.768,0,0,0,1.718,1.806l13.94.374h.044a1.758,1.758,0,0,0,1.762-1.718l.044-1.476,3.634-1.938a6.206,6.206,0,0,1,4.647-.507l21.648,6.078a.2.2,0,0,0,.11.022,22.941,22.941,0,0,0,4.757.485,23.439,23.439,0,0,0,9.8-2.136c.066-.044.154-.066.22-.11L100.226,84.7a1.759,1.759,0,0,0,.573-2.334A8.884,8.884,0,0,0,89.06,78.776ZM10.108,102.428l.749-27.088,10.439.286-.749,27.088Zm56.929-.462a20.026,20.026,0,0,1-12.2,1.365L33.254,97.275a9.76,9.76,0,0,0-7.245.793l-1.85.991.507-18.015A19.392,19.392,0,0,1,44.31,79.987l1.3.661a17.242,17.242,0,0,0,7.312,1.894l12.729.352a7.726,7.726,0,0,1,7.334,6.144l-18.94-.529a1.762,1.762,0,1,0-.088,3.524l20.922.573h.044a1.758,1.758,0,0,0,1.762-1.718,11.472,11.472,0,0,0-.176-2.29l14.139-6.673c.022,0,.022-.022.044-.022a5.354,5.354,0,0,1,6.078.859Z" fill="#3d6e72"/>
      <g id="Group_6977" data-name="Group 6977">
        <g id="Group_6976" data-name="Group 6976">
          <path id="Path_9988" data-name="Path 9988" d="M36.448,23.212A15.989,15.989,0,1,0,52.436,39.2,16.006,16.006,0,0,0,36.448,23.212Zm0,29.18A13.192,13.192,0,1,1,49.639,39.2,13.234,13.234,0,0,1,36.448,52.392Z" fill="#3d6e72"/>
        </g>
      </g>
      <g id="Group_6979" data-name="Group 6979">
        <g id="Group_6978" data-name="Group 6978">
          <path id="Path_9989" data-name="Path 9989" d="M36.448,37.791a1.806,1.806,0,1,1,1.806-1.806,1.387,1.387,0,0,0,2.775,0A4.487,4.487,0,0,0,37.769,31.6v-.418A1.4,1.4,0,0,0,36.382,29.8a1.41,1.41,0,0,0-1.387,1.387v.462a4.587,4.587,0,0,0,1.454,8.941,1.806,1.806,0,1,1-1.806,1.806,1.4,1.4,0,0,0-1.387-1.387,1.41,1.41,0,0,0-1.387,1.387,4.639,4.639,0,0,0,3.149,4.361v.462a1.388,1.388,0,1,0,2.775-.022v-.418a4.506,4.506,0,0,0,3.259-4.383A4.615,4.615,0,0,0,36.448,37.791Z" fill="#af650f"/>
        </g>
      </g>
      <g id="Group_6981" data-name="Group 6981">
        <g id="Group_6980" data-name="Group 6980">
          <path id="Path_9990" data-name="Path 9990" d="M69.812,23.212A15.989,15.989,0,1,0,85.8,39.2,15.987,15.987,0,0,0,69.812,23.212Zm0,29.18A13.192,13.192,0,1,1,83,39.2,13.2,13.2,0,0,1,69.812,52.392Z" fill="#3d6e72"/>
        </g>
      </g>
      <g id="Group_6983" data-name="Group 6983">
        <g id="Group_6982" data-name="Group 6982">
          <path id="Path_9991" data-name="Path 9991" d="M75.56,30.634a1.4,1.4,0,0,0-1.938.33l-3.81,5.374-3.832-5.4a1.39,1.39,0,1,0-2.268,1.608l3.7,5.241H65.5a1.387,1.387,0,0,0,0,2.775h3V41.4h-3a1.4,1.4,0,0,0-1.387,1.387A1.41,1.41,0,0,0,65.5,44.178h3V45.7a1.387,1.387,0,1,0,2.775,0v-1.52H73.49a1.4,1.4,0,0,0,1.387-1.387A1.41,1.41,0,0,0,73.49,41.4H71.266v-.837H73.49a1.387,1.387,0,0,0,0-2.775h-1.3l3.7-5.241A1.357,1.357,0,0,0,75.56,30.634Z" fill="#af650f"/>
        </g>
      </g>
      <g id="Group_6985" data-name="Group 6985">
        <g id="Group_6984" data-name="Group 6984">
          <path id="Path_9992" data-name="Path 9992" d="M69.922,13.192,64.351,7.664a1.369,1.369,0,0,0-1.96,0,1.422,1.422,0,0,0,0,2l3.149,3.171H40.7a7.665,7.665,0,0,0-7.664,7.642,1.377,1.377,0,0,0,1.387,1.365h.022A1.358,1.358,0,0,0,35.831,20.5v-.022A4.836,4.836,0,0,1,40.7,15.636H65.562l-3.149,3.127a1.369,1.369,0,0,0,0,1.96,1.389,1.389,0,0,0,1.96,0l.022-.022,5.55-5.528A1.416,1.416,0,0,0,69.922,13.192Z" fill="#af650f"/>
        </g>
      </g>
      <g id="Group_6987" data-name="Group 6987">
        <g id="Group_6986" data-name="Group 6986">
          <path id="Path_9993" data-name="Path 9993" d="M71.838,56.577h0a1.378,1.378,0,0,0-1.409,1.343v.022a4.836,4.836,0,0,1-4.867,4.845H40.7l3.149-3.127a1.389,1.389,0,0,0,.022-1.96l-.022-.022a1.369,1.369,0,0,0-1.96,0l-5.55,5.528a1.4,1.4,0,0,0,0,1.982l5.55,5.528a1.369,1.369,0,0,0,1.96,0,1.422,1.422,0,0,0,0-2L40.7,65.562H65.54A7.665,7.665,0,0,0,73.2,57.92,1.326,1.326,0,0,0,71.838,56.577Z" fill="#af650f"/>
        </g>
      </g>
    </g>
  </g>
</svg>
