<svg xmlns="http://www.w3.org/2000/svg" xmlns:xlink="http://www.w3.org/1999/xlink" width="80" height="80" viewBox="0 0 80 80">
  <defs>
    <clipPath id="clip-path">
      <rect id="Rectangle_2559" data-name="Rectangle 2559" width="80" height="80" transform="translate(1340 8646)" fill="#393939"/>
    </clipPath>
  </defs>
  <g id="we_will_do_the_rest_icon" transform="translate(-1340 -8646)" clip-path="url(#clip-path)">
    <g id="we_will_do_the_rest_icon-2" data-name="we_will_do_the_rest_icon" transform="translate(1331.73 8637.729)">
      <path id="Path_13407" data-name="Path 13407" d="M38.832,35.617a1.142,1.142,0,1,0,0-2.283H33.8a5.3,5.3,0,0,0-4.03-4.019V18.984a1.142,1.142,0,1,0-2.283,0V29.315a5.286,5.286,0,1,0,6.313,6.3ZM28.627,37.49a3.014,3.014,0,1,1,3.014-3.014,3.014,3.014,0,0,1-3.014,3.014Z" transform="translate(16.006 10.158)" fill="#f89522"/>
      <path id="Path_13408" data-name="Path 13408" d="M79.645,54.154A36.327,36.327,0,1,0,54.153,79.646,18.482,18.482,0,1,0,79.645,54.154ZM53,77.613A33.928,33.928,0,1,1,77.613,53l-.641-.263h0a18.151,18.151,0,0,0-3.425-1.062,29.191,29.191,0,0,0,.856-7.021,29.682,29.682,0,0,0-8.672-20.983.24.24,0,0,0,0-.069h0a29.682,29.682,0,0,0-41.975,0h-.069v.069a29.682,29.682,0,0,0,0,41.975h.069a29.682,29.682,0,0,0,20.979,8.677,29.2,29.2,0,0,0,7.026-.857,18.153,18.153,0,0,0,1.056,3.426h0Zm-1.678-6.325a26.121,26.121,0,0,1-5.548.8v-.811a1.142,1.142,0,1,0-2.283,0V72.1A27.4,27.4,0,0,1,26.037,64.85l.571-.571A1.142,1.142,0,0,0,25,62.67l-.571.57a27.4,27.4,0,0,1-7.238-17.466H18a1.142,1.142,0,1,0,0-2.283h-.808a27.4,27.4,0,0,1,7.226-17.453l.571.559A1.138,1.138,0,0,0,26.607,25l-.559-.571A27.4,27.4,0,0,1,43.5,17.189V18a1.142,1.142,0,1,0,2.283,0v-.808a27.4,27.4,0,0,1,17.466,7.238L62.681,25a1.134,1.134,0,0,0,1.6,1.61l.559-.559A27.4,27.4,0,0,1,72.088,43.5h-.811a1.142,1.142,0,1,0,0,2.283h.8a26.325,26.325,0,0,1-.787,5.547H69.748A18.517,18.517,0,0,0,51.265,69.759v1.415ZM69.759,85.97a16.245,16.245,0,0,1-14.224-8.437l-.1-.205c-.217-.411-.411-.822-.594-1.244v-.091c-.194-.443-.354-.89-.5-1.347a.436.436,0,0,0-.08-.3c-.114-.377-.205-.754-.3-1.142s-.08-.457-.126-.685-.1-.594-.137-.9v-.354c0-.5-.08-1-.08-1.507a16.233,16.233,0,0,1,16.142-16.21,9.173,9.173,0,0,1,1.484.08h.4a5.856,5.856,0,0,1,.879.137l.685.126c.388.091.775.183,1.142.3l.285.08c.457.148.913.32,1.358.5h.08c.434.183.845.388,1.256.605l.183.091a16.211,16.211,0,0,1-7.753,30.5Z" fill="#393939"/>
      <path id="Path_13409" data-name="Path 13409" d="M45.305,31.326A13.961,13.961,0,1,0,59.232,45.288,13.961,13.961,0,0,0,45.305,31.326Zm0,25.606A11.678,11.678,0,1,1,56.949,45.288,11.678,11.678,0,0,1,45.305,56.932Z" transform="translate(24.453 24.471)" fill="#393939"/>
      <path id="Path_13385" data-name="Path 13385" d="M8.813,17.128a1.97,1.97,0,0,1-1.97-1.97.934.934,0,0,0-1.868,0,3.829,3.829,0,0,0,2.9,3.735v.467a.934.934,0,0,0,1.868,0v-.467a3.829,3.829,0,0,0-.934-7.546,1.97,1.97,0,1,1,1.97-1.97.934.934,0,0,0,1.868,0,3.829,3.829,0,0,0-2.9-3.735V5.184a.934.934,0,0,0-1.868,0v.457a3.829,3.829,0,0,0,.934,7.546,1.97,1.97,0,0,1,0,3.941Z" transform="translate(60.91 57.487)" fill="#f89522"/>
    </g>
  </g>
</svg>
