<svg id="Dollar_Icon" data-name="Dollar Icon" xmlns="http://www.w3.org/2000/svg" xmlns:xlink="http://www.w3.org/1999/xlink" width="76" height="76" viewBox="0 0 76 76">
  <defs>
    <clipPath id="clip-path">
      <rect id="Rectangle_2514" data-name="Rectangle 2514" width="46" height="46" transform="translate(-0.163 -0.163)" fill="#fff"/>
    </clipPath>
  </defs>
  <circle id="Ellipse_480" data-name="Ellipse 480" cx="38" cy="38" r="38" fill="#f89522"/>
  <g id="Mask_Group_258" data-name="Mask Group 258" transform="translate(15.163 15.163)" clip-path="url(#clip-path)">
    <g id="dollar_icon-2" data-name="dollar_icon" transform="translate(0 0.018)">
      <path id="Path_13275" data-name="Path 13275" d="M20.541,20.536a20.45,20.45,0,0,1,23.541-3.844l-1.588,2.155,7.76.875-3.121-7.155-1.665,2.257A22.735,22.735,0,0,0,14.174,44.159a1.154,1.154,0,0,0,2.112-.931,20.308,20.308,0,0,1,4.255-22.692ZM55.81,25.82a1.153,1.153,0,1,0-2.112.927A20.434,20.434,0,0,1,25.9,53.278l1.59-2.156-7.762-.88,3.122,7.16,1.661-2.25a22.74,22.74,0,0,0,31.3-29.33ZM35.279,27.591A1.981,1.981,0,0,1,37,28.439a4.115,4.115,0,0,1,.6,2.42h5.117a7.116,7.116,0,0,0-1.583-4.75,6.794,6.794,0,0,0-4.352-2.278V20.576H34.378v3.189a7.423,7.423,0,0,0-4.593,1.93,5.6,5.6,0,0,0-1.725,4.214,6.311,6.311,0,0,0,.485,2.606,5.577,5.577,0,0,0,1.393,1.9A9.444,9.444,0,0,0,32.1,35.851q1.256.618,2.739,1.228a5.375,5.375,0,0,1,2.066,1.285,2.739,2.739,0,0,1,.592,1.877,2.3,2.3,0,0,1-.592,1.682,2.14,2.14,0,0,1-1.616.619,2.681,2.681,0,0,1-2.172-.911,3.945,3.945,0,0,1-.763-2.626h-5.1a7.154,7.154,0,0,0,1.763,5.048,7.685,7.685,0,0,0,5.064,2.26V49.37h2.406V46.334a7.1,7.1,0,0,0,4.473-1.9,5.71,5.71,0,0,0,1.64-4.222,6.073,6.073,0,0,0-.515-2.619,5.956,5.956,0,0,0-1.422-1.907A10.016,10.016,0,0,0,38.5,34.224c-.834-.433-1.712-.848-2.657-1.241A6.3,6.3,0,0,1,33.8,31.726a2.453,2.453,0,0,1-.629-1.778,2.507,2.507,0,0,1,.547-1.731,1.98,1.98,0,0,1,1.56-.626Z" transform="translate(-12.245 -12.26)" fill="#fff"/>
    </g>
  </g>
</svg>
