<svg xmlns="http://www.w3.org/2000/svg" xmlns:xlink="http://www.w3.org/1999/xlink" width="100" height="100" viewBox="0 0 100 100"><defs><style>.a{fill:#fff;stroke:#707070;}.b{clip-path:url(#a);}.c{fill:#af650f;}.d{fill:#3d6e72;}</style><clipPath id="a"><rect class="a" width="100" height="100" transform="translate(551.104 1395)"/></clipPath></defs><g class="b" transform="translate(-551.104 -1395)"><g transform="translate(544.962 1388.874)"><path class="c" d="M47.049,79.731H29.763A2.724,2.724,0,0,1,27.037,77V75.257a2.743,2.743,0,0,1,.674-1.8l9.461-10.728A22.755,22.755,0,0,0,40.058,58.8a4.845,4.845,0,0,0,.609-2.181,2.822,2.822,0,0,0-.738-2.213,3.121,3.121,0,0,0-2.309-.738,3.279,3.279,0,0,0-2.534.946,3.67,3.67,0,0,0-.962,2.742A2.724,2.724,0,0,1,31.4,60.087H29.137a2.724,2.724,0,0,1-2.726-2.726,11.374,11.374,0,0,1,1.4-5.564,10.324,10.324,0,0,1,4.057-4.073A11.537,11.537,0,0,1,37.62,46.28,10.95,10.95,0,0,1,45.4,49.006a9.7,9.7,0,0,1,3,7.409,11.906,11.906,0,0,1-1.523,5.5,34.017,34.017,0,0,1-4.6,6.27l-3.688,4.169h8.451a2.724,2.724,0,0,1,2.726,2.726v1.908a2.7,2.7,0,0,1-2.71,2.742ZM37.62,51.155a5.548,5.548,0,0,1,4.089,1.459,5.425,5.425,0,0,1,1.475,3.993,7.411,7.411,0,0,1-.882,3.335,24.737,24.737,0,0,1-3.223,4.426L29.618,75.112a.182.182,0,0,0-.048.128v1.748a.212.212,0,0,0,.208.208H47.065a.212.212,0,0,0,.208-.208V75.08a.212.212,0,0,0-.208-.208H35.808a1.272,1.272,0,0,1-1.155-.738,1.227,1.227,0,0,1,.208-1.347l5.548-6.27a30.989,30.989,0,0,0,4.266-5.773,9.4,9.4,0,0,0,1.235-4.314,7.234,7.234,0,0,0-2.2-5.564,8.564,8.564,0,0,0-6.062-2.053,8.968,8.968,0,0,0-4.522,1.123,7.894,7.894,0,0,0-3.079,3.079,8.819,8.819,0,0,0-1.074,4.346.212.212,0,0,0,.208.208h2.261a.212.212,0,0,0,.208-.208,6.3,6.3,0,0,1,1.652-4.49,5.722,5.722,0,0,1,4.314-1.716Z"/><path class="c" d="M66.758,79.731H64.48A2.724,2.724,0,0,1,61.754,77v-4.25H51.491a2.724,2.724,0,0,1-2.726-2.726V68.746a2.809,2.809,0,0,1,.449-1.507L61.995,47.9a2.725,2.725,0,0,1,2.277-1.219h2.486a2.724,2.724,0,0,1,2.726,2.726V65.394h1.572a2.724,2.724,0,0,1,2.726,2.726v1.908a2.724,2.724,0,0,1-2.726,2.726H69.484V77a2.724,2.724,0,0,1-2.726,2.726ZM64.272,49.2a.222.222,0,0,0-.176.1L51.331,68.634a.3.3,0,0,0-.032.112v1.283a.212.212,0,0,0,.208.208h11.53A1.27,1.27,0,0,1,64.3,71.5v5.516a.212.212,0,0,0,.208.208H66.79A.212.212,0,0,0,67,77.021V71.5a1.27,1.27,0,0,1,1.267-1.267H71.1a.212.212,0,0,0,.208-.208V68.121a.212.212,0,0,0-.208-.208H68.265A1.27,1.27,0,0,1,67,66.645V49.407a.212.212,0,0,0-.208-.208ZM63.021,67.912h-6.03a1.258,1.258,0,0,1-1.058-1.94l6.03-9.189a1.256,1.256,0,0,1,1.411-.513,1.27,1.27,0,0,1,.9,1.2v9.189A1.232,1.232,0,0,1,63.021,67.912Zm-3.688-2.518H61.77v-3.72Z"/><path class="d" d="M85.3,72.5a2.9,2.9,0,0,0-4.105,0l-6.607,6.607a2.894,2.894,0,0,0,0,4.105l1.748,1.748a.4.4,0,0,1,0,.545l-7.024,7.024a.387.387,0,0,1-.545,0l-1.748-1.748a2.9,2.9,0,0,0-4.105,0L56.3,97.386a2.894,2.894,0,0,0,0,4.105l1.8,1.8a9.756,9.756,0,0,0,13.759,0L87.123,88.021a9.756,9.756,0,0,0,0-13.759Zm.016,13.759L70.045,101.523a7.211,7.211,0,0,1-10.183,0l-1.8-1.8a.4.4,0,0,1,0-.545l6.607-6.607a.387.387,0,0,1,.545,0l1.748,1.748a2.9,2.9,0,0,0,4.105,0L78.095,87.3a2.894,2.894,0,0,0,0-4.105l-1.748-1.748a.4.4,0,0,1,0-.545l6.607-6.607a.387.387,0,0,1,.545,0l1.8,1.8a7.22,7.22,0,0,1,.016,10.167Z"/><path class="d" d="M51.3,44.933a19.4,19.4,0,1,0-19.4-19.4,19.429,19.429,0,0,0,19.4,19.4Zm0-36.305A16.886,16.886,0,1,1,34.413,25.513,16.9,16.9,0,0,1,51.3,8.627Z"/><path class="d" d="M51.267,97.13a33.759,33.759,0,0,1-22.434-59,1.26,1.26,0,0,0-1.684-1.876A36.273,36.273,0,0,0,50,99.631v2.518A38.795,38.795,0,0,1,28.72,31.783a1.264,1.264,0,0,0-1.475-2.053A41.329,41.329,0,0,0,51.267,104.7a1.27,1.27,0,0,0,1.267-1.267V98.4a1.28,1.28,0,0,0-1.267-1.267Z"/><path class="d" d="M101.219,52.63a3.775,3.775,0,0,0-5.34,0L92.03,56.479A41.391,41.391,0,0,0,75.353,29.795a1.264,1.264,0,1,0-1.475,2.053A38.882,38.882,0,0,1,89.865,59.3a1.249,1.249,0,0,0,.834,1.058,1.262,1.262,0,0,0,1.315-.3l5.645-5.645a1.249,1.249,0,0,1,1.78,0,1.278,1.278,0,0,1,0,1.8L89.464,66.18a1.278,1.278,0,0,1-1.78,0L77.71,56.206a1.278,1.278,0,0,1,0-1.8,1.249,1.249,0,0,1,1.78,0L85.183,60.1a1.246,1.246,0,0,0,1.443.241,1.274,1.274,0,0,0,.706-1.283A36.258,36.258,0,0,0,75.481,36.321,1.26,1.26,0,1,0,73.8,38.2,33.778,33.778,0,0,1,84.14,55.484L81.286,52.63a3.776,3.776,0,0,0-6.446,2.678,3.814,3.814,0,0,0,1.106,2.678L85.92,67.96A3.747,3.747,0,0,0,88.6,69.067a3.814,3.814,0,0,0,2.678-1.106l9.974-9.974a3.747,3.747,0,0,0,1.106-2.678,3.927,3.927,0,0,0-1.139-2.678Z"/><path class="c" d="M51.539,23.509c-3.528,0-4.266-2.053-4.266-3.768a4.037,4.037,0,0,1,4.266-3.768,4.328,4.328,0,0,1,4.009,2.453,1.164,1.164,0,1,0,2.149-.9,6.455,6.455,0,0,0-4.987-3.784V12.091a1.171,1.171,0,1,0-2.341,0v1.668a6.267,6.267,0,0,0-5.436,6c0,2.951,1.732,6.094,6.607,6.094,3.544,0,4.282,2.053,4.282,3.768a4.037,4.037,0,0,1-4.266,3.768,4.328,4.328,0,0,1-4.009-2.453,1.164,1.164,0,1,0-2.149.9,6.43,6.43,0,0,0,4.971,3.784v1.652a1.171,1.171,0,0,0,2.341,0V35.616a6.268,6.268,0,0,0,5.452-6C58.162,26.668,56.43,23.509,51.539,23.509Z"/></g></g></svg>