<svg xmlns="http://www.w3.org/2000/svg" xmlns:xlink="http://www.w3.org/1999/xlink" width="200" height="100" viewBox="0 0 200 100">
  <defs>
    <clipPath id="clip-path">
      <rect id="Rectangle_2095" data-name="Rectangle 2095" width="200" height="100" transform="translate(375 2021)" fill="#fff" stroke="#707070" stroke-width="1"/>
    </clipPath>
  </defs>
  <g id="Mask_Group_179" data-name="Mask Group 179" transform="translate(-375 -2021)" clip-path="url(#clip-path)">
    <g id="_01_amazon" data-name="01 amazon" transform="translate(366.641 1966.435)">
      <g id="Group_6932" data-name="Group 6932" transform="translate(32.956 110.277)">
        <path id="Path_9896" data-name="Path 9896" d="M120.91,124.307c-10.346,7.623-25.048,11.435-37.845,11.435a67.956,67.956,0,0,1-46.285-17.7c-1.089-.817,0-2.178,1.089-1.361a93.067,93.067,0,0,0,46.285,12.252,95.123,95.123,0,0,0,35.122-7.079C121.182,121.04,122.543,122.946,120.91,124.307Z" transform="translate(-36.329 -114.909)" fill="#f90" fill-rule="evenodd"/>
        <path id="Path_9897" data-name="Path 9897" d="M135.392,119.2c-1.361-1.634-8.712-.817-11.98-.272-1.089,0-1.089-.817-.272-1.361,5.718-4.084,15.519-2.995,16.608-1.634s-.272,10.891-5.718,15.519c-.817.817-1.634.272-1.361-.545C134.031,127.91,136.753,120.831,135.392,119.2Z" transform="translate(-46.727 -114.7)" fill="#f90" fill-rule="evenodd"/>
      </g>
      <path id="Path_9898" data-name="Path 9898" d="M123.727,84.12V80.036a1.171,1.171,0,0,1,1.089-1.089h17.969a1.171,1.171,0,0,1,1.089,1.089v3.539a5.6,5.6,0,0,1-1.361,2.45l-9.257,13.341a22.829,22.829,0,0,1,10.346,2.178c.817.272.817,1.089.817,1.634v4.356c0,.545-.545,1.361-1.361.817a19.953,19.953,0,0,0-18.786,0,1.04,1.04,0,0,1-1.361-.817v-4.084a5.921,5.921,0,0,1,.545-2.723l10.618-15.519h-9.257A1.171,1.171,0,0,1,123.727,84.12Z" transform="translate(-13.814 -0.112)" fill-rule="evenodd"/>
      <path id="Path_9899" data-name="Path 9899" d="M48.949,109.094H43.5c-.545,0-.817-.545-1.089-.817V80.234A1.171,1.171,0,0,1,43.5,79.145h5.173a1.215,1.215,0,0,1,1.089.817V83.5h0c1.361-3.539,3.812-5.173,7.079-5.173,3.539,0,5.445,1.634,7.079,5.173a7.818,7.818,0,0,1,7.623-5.173c2.178,0,4.9.817,6.262,2.995,1.634,2.45,1.361,5.718,1.361,8.712v17.7a1.171,1.171,0,0,1-1.089,1.089H72.636a1.171,1.171,0,0,1-1.089-1.089V93.03a32.949,32.949,0,0,0-.272-5.173c-.272-1.906-1.634-2.45-3.267-2.45a3.538,3.538,0,0,0-3.267,2.178A17.638,17.638,0,0,0,64.2,93.03v14.7a1.171,1.171,0,0,1-1.089,1.089H57.662a1.171,1.171,0,0,1-1.089-1.089V93.03c0-2.995.545-7.623-3.267-7.623s-3.812,4.356-3.812,7.623v14.7C49.766,108.549,49.494,109.094,48.949,109.094Z" transform="translate(-4.107 -0.037)" fill-rule="evenodd"/>
      <path id="Path_9900" data-name="Path 9900" d="M162.407,78.638c8.168,0,12.524,6.807,12.524,15.791,0,8.44-4.9,15.247-12.524,15.247-7.9,0-12.252-6.807-12.252-15.519C150.155,85.172,154.511,78.638,162.407,78.638Zm0,5.718c-4.084,0-4.356,5.445-4.356,8.985s0,10.618,4.084,10.618,4.356-5.99,4.356-9.529c0-2.45,0-5.173-.817-7.351C165.4,84.9,164.313,84.355,162.407,84.355Z" transform="translate(-17.099 -0.075)" fill-rule="evenodd"/>
      <path id="Path_9901" data-name="Path 9901" d="M189.506,109.131h-5.445a1.171,1.171,0,0,1-1.089-1.089V80c0-.545.545-.817,1.089-.817h5.173c.545,0,.817.272,1.089.817v4.356h0c1.634-3.812,3.539-5.718,7.351-5.718,2.45,0,4.9.817,6.262,3.267,1.361,2.178,1.361,5.99,1.361,8.712v17.7c0,.545-.545.817-1.089.817h-5.445c-.545,0-.817-.272-1.089-.817V93.068c0-2.995.272-7.623-3.539-7.623a3.841,3.841,0,0,0-3.267,2.178,11.48,11.48,0,0,0-.817,5.173V107.77C190.323,108.587,190.051,109.131,189.506,109.131Z" transform="translate(-21.056 -0.075)" fill-rule="evenodd"/>
      <path id="Path_9902" data-name="Path 9902" d="M105.537,95.443c0,2.178,0,3.812-1.089,5.718a4.107,4.107,0,0,1-3.812,2.45c-2.178,0-3.267-1.634-3.267-4.084,0-4.628,4.084-5.445,8.168-5.445v1.361Zm5.445,13.341a1.215,1.215,0,0,1-1.361,0,10.822,10.822,0,0,1-2.995-3.539c-2.995,2.995-5.173,4.084-8.985,4.084-4.628,0-8.168-2.723-8.168-8.44A9.742,9.742,0,0,1,95.191,91.9c2.995-1.361,7.079-1.634,10.346-1.906v-.817a10.583,10.583,0,0,0-.545-4.084c-.545-1.089-1.906-1.361-2.995-1.361A4.141,4.141,0,0,0,97.642,87a1.215,1.215,0,0,1-.817,1.089l-5.173-.545c-.545,0-.817-.545-.817-1.089,1.089-6.534,7.079-8.44,12.252-8.44a12.848,12.848,0,0,1,8.168,2.723c2.723,2.45,2.45,5.718,2.45,9.257v8.44c0,2.45,1.089,3.539,2.178,5.173.272.545.545,1.089,0,1.361a44.464,44.464,0,0,0-4.9,3.812Z" transform="translate(-9.782)" fill-rule="evenodd"/>
      <path id="Path_9903" data-name="Path 9903" d="M24.423,95.443c0,2.178,0,3.812-1.089,5.718a4.106,4.106,0,0,1-3.812,2.45c-2.178,0-3.267-1.634-3.267-4.084,0-4.628,4.084-5.445,8.168-5.445Zm5.445,13.341a1.215,1.215,0,0,1-1.361,0,9.091,9.091,0,0,1-2.995-3.539c-2.995,2.995-5.173,4.084-8.985,4.084-4.628,0-8.168-2.723-8.168-8.44A9.742,9.742,0,0,1,14.077,91.9C17.072,90.543,21.156,90.27,24.423,90v-.817a10.583,10.583,0,0,0-.545-4.084c-.545-1.089-1.906-1.361-2.995-1.361A4.141,4.141,0,0,0,16.527,87a1.215,1.215,0,0,1-.817,1.089l-5.173-.545c-.545,0-.817-.545-.817-1.089,1.089-6.534,7.079-8.44,12.252-8.44a12.848,12.848,0,0,1,8.168,2.723c2.723,2.45,2.45,5.718,2.45,9.257v8.44c0,2.45,1.089,3.539,2.178,5.173.272.545.545,1.089,0,1.361a44.464,44.464,0,0,0-4.9,3.812Z" fill-rule="evenodd"/>
    </g>
  </g>
</svg>
