<svg xmlns="http://www.w3.org/2000/svg" width="35" height="35" viewBox="0 0 35 35"><defs><style>.a{fill:#f89522;}</style></defs><g transform="translate(0 0)"><path class="a" d="M34.316,157.7H30.309v-13.72a.671.671,0,0,0-.684-.658H24.7a.671.671,0,0,0-.684.658V157.7H21.695v-8.949a.671.671,0,0,0-.684-.658H16.088a.671.671,0,0,0-.684.658V157.7h-2.1V140.9a.671.671,0,0,0-.684-.658H7.7a.671.671,0,0,0-.684.658V157.7H4.283V137.55a.684.684,0,0,0-1.367,0V157.7H.684a.658.658,0,1,0,0,1.316H2.916v1.9a.684.684,0,0,0,1.367,0v-1.9H34.316a.658.658,0,1,0,0-1.316Zm-25.931,0V141.563h3.555V157.7Zm8.387,0v-8.291h3.555V157.7Zm8.614,0V144.636h3.555V157.7H25.386Z" transform="translate(0 -126.571)"/><path class="a" d="M43.415,5.237a.754.754,0,0,0,.754-.754V.754a.754.754,0,0,0-1.508,0V4.483A.754.754,0,0,0,43.415,5.237Z" transform="translate(-39.444 0)"/><path class="a" d="M238.194,0h-16.9a2.609,2.609,0,0,0-2.606,2.606V13.1A2.609,2.609,0,0,0,221.29,15.7h.612v3.221a.76.76,0,0,0,1.275.545l3.947-3.767h4.47a.754.754,0,0,0,0-1.508H226.82a.754.754,0,0,0-.521.209l-2.89,2.759V14.95a.754.754,0,0,0-.754-.754H221.29a1.1,1.1,0,0,1-1.1-1.1V2.606a1.1,1.1,0,0,1,1.1-1.1h16.9a1.1,1.1,0,0,1,1.1,1.1V13.1a1.1,1.1,0,0,1-1.078,1.1.754.754,0,1,0,.026,1.508,2.617,2.617,0,0,0,2.561-2.6V2.606A2.609,2.609,0,0,0,238.194,0Z" transform="translate(-205.799 0)"/><path class="a" d="M42.74,93.42a.753.753,0,1,0,.408-.985.76.76,0,0,0-.408.985Z" transform="translate(-39.466 -86.09)"/><path class="a" d="M274.738,48.779a.754.754,0,0,0-.476.169l-3.709,3.018a.754.754,0,1,0,.952,1.17l3.5-2.848h4.969a.754.754,0,0,0,.491-.182l2.695-2.314v.62a.754.754,0,0,0,1.508,0V45.979a.754.754,0,0,0-.754-.754h-2.57a.754.754,0,1,0,0,1.508h.733L279.7,48.779Z" transform="translate(-253.501 -41.815)"/><path class="a" d="M425.6,188.481a.754.754,0,1,0-.306.933A.76.76,0,0,0,425.6,188.481Z" transform="translate(-395.775 -175.226)"/></g></svg>