<svg xmlns="http://www.w3.org/2000/svg" xmlns:xlink="http://www.w3.org/1999/xlink" width="80" height="80" viewBox="0 0 80 80">
  <defs>
    <clipPath id="clip-path">
      <rect id="Rectangle_2540" data-name="Rectangle 2540" width="80" height="80" transform="translate(-1968 6642)" fill="#393939"/>
    </clipPath>
  </defs>
  <g id="book_a_great_rate_icon" transform="translate(1968 -6642)" clip-path="url(#clip-path)">
    <g id="book_a_great_rate" transform="translate(-1969.25 6640.688)">
      <g id="Group_8100" data-name="Group 8100">
        <path id="Path_13341" data-name="Path 13341" d="M16.125,81.25a14.845,14.845,0,0,0,14-10,20.32,20.32,0,0,0,11.25,3.5,19.662,19.662,0,0,0,11.25-3.5A14.72,14.72,0,1,0,67.75,51.75V28l3.875,3.875a1.237,1.237,0,1,0,1.75-1.75l-6-6a1.209,1.209,0,0,0-1.75,0h0l-6,6a1.237,1.237,0,1,0,1.75,1.75L65.25,28V51.625a16.222,16.222,0,0,0-4.125.875A19.932,19.932,0,0,0,42.5,34.75V5.5l6.375,6.375a1.237,1.237,0,1,0,1.75-1.75L42.25,1.75a1.209,1.209,0,0,0-1.75,0L32,10.25A1.237,1.237,0,1,0,33.75,12L40,5.5V34.875a19.932,19.932,0,0,0-18.625,17.75,14.221,14.221,0,0,0-4.125-.875V28l3.875,3.875a1.237,1.237,0,1,0,1.75-1.75l-6-6a1.209,1.209,0,0,0-1.75,0h0l-6,6a1.237,1.237,0,1,0,1.75,1.75L14.75,28V51.625A15.035,15.035,0,0,0,1.25,66.5,14.8,14.8,0,0,0,16.125,81.25ZM78.75,66.5a12.267,12.267,0,0,1-24.125,3.125,19.961,19.961,0,0,0,6.625-14.25,12.475,12.475,0,0,1,5.25-1.25A12.3,12.3,0,0,1,78.75,66.5ZM41.25,37.25a17.5,17.5,0,1,1-17.5,17.5,17.5,17.5,0,0,1,17.5-17.5ZM16.125,54.125a10.849,10.849,0,0,1,5.25,1.25A19.961,19.961,0,0,0,28,69.625a12.332,12.332,0,1,1-11.875-15.5Z" fill="#393939"/>
        <path id="Path_13366" data-name="Path 13366" d="M58.625,27.125A3.079,3.079,0,0,1,57.5,24.75H55.625A4.85,4.85,0,0,0,57.5,28.625a7.1,7.1,0,0,0,3.25,1.5v3.75H62.5v-3.75a5.25,5.25,0,0,0,3.25-1.5,5.25,5.25,0,0,0,1.875-3.875,4.85,4.85,0,0,0-1.875-3.875,6.308,6.308,0,0,0-4.25-1.5,4.259,4.259,0,0,1-3-1.125,3.07,3.07,0,0,1,0-4.75,4.875,4.875,0,0,1,6,0,3.079,3.079,0,0,1,1.125,2.375H67.5A4.85,4.85,0,0,0,65.625,12,5.159,5.159,0,0,0,62.5,10.625V6.875H60.625v3.75a5.25,5.25,0,0,0-3.25,1.5A5.25,5.25,0,0,0,55.5,16a4.85,4.85,0,0,0,1.875,3.875,6.309,6.309,0,0,0,4.25,1.5,4.259,4.259,0,0,1,3,1.125,3.07,3.07,0,0,1,0,4.75A5.062,5.062,0,0,1,58.625,27.125Z" transform="translate(-20.312 34.312)" fill="#f89522"/>
        <path id="Path_13367" data-name="Path 13367" d="M59.06,51.2a3.03,3.03,0,0,1,3.031,3.031h1.2a4.228,4.228,0,0,0-8.456,0,9.414,9.414,0,0,0,.718,2.951,1.152,1.152,0,0,1,.16.559H54.034v1.2h2v.316a6.714,6.714,0,0,1-2.159,4.875h0l.8.875a4.711,4.711,0,0,1,4.387-.717,6.021,6.021,0,0,0,3.909,0l-.559-1.038a4.091,4.091,0,0,1-2.951-.08,7.271,7.271,0,0,0-3.191-.08,7.711,7.711,0,0,0,.957-3.75v-.319h4.227v-1.2H56.986c-.08-.319-.239-.639-.319-.958a7.091,7.091,0,0,1-.639-2.472A3.068,3.068,0,0,1,59.06,51.2Z" transform="translate(-42.706 9.001)" fill="#f89522"/>
        <path id="Path_13368" data-name="Path 13368" d="M14.532,50.6a5.231,5.231,0,0,1,2.724.736l.515-.957a6.5,6.5,0,0,0-3.239-.884,6.735,6.735,0,0,0-6.479,4.859H5.625v1.1H7.834c0,.221-.074.515-.074.736a2.5,2.5,0,0,0,.074.736H5.625v1.1h2.43A6.735,6.735,0,0,0,14.534,62.9a6.5,6.5,0,0,0,3.239-.884l-.515-.957a5.231,5.231,0,0,1-2.724.736,5.577,5.577,0,0,1-5.3-3.75h5.891v-1.1H8.937c0-.221-.074-.515-.074-.736a2.5,2.5,0,0,1,.074-.736h6.11v-1.1H9.159A5.775,5.775,0,0,1,14.532,50.6Z" transform="translate(54.926 10.176)" fill="#f89522"/>
      </g>
    </g>
  </g>
</svg>
