<svg xmlns="http://www.w3.org/2000/svg" xmlns:xlink="http://www.w3.org/1999/xlink" width="100" height="100" viewBox="0 0 100 100"><defs><style>.a{fill:#fff;stroke:#707070;}.b{clip-path:url(#a);}.c{fill:#af650f;}.d{fill:#3d6e72;}</style><clipPath id="a"><rect class="a" width="100" height="100" transform="translate(527.556 1332)"/></clipPath></defs><g class="b" transform="translate(-527.556 -1332)"><g transform="translate(524.526 1328.972)"><path class="c" d="M75.609,38.517a3.24,3.24,0,0,1-3.227-3.227H69.154a6.451,6.451,0,0,0,4.834,6.228v3.455h3.227V41.517a6.443,6.443,0,0,0-1.621-12.682,3.227,3.227,0,1,1,3.227-3.227h3.227a6.451,6.451,0,0,0-4.834-6.228V15.925H73.988V19.38a6.443,6.443,0,0,0,1.621,12.682,3.227,3.227,0,1,1,0,6.455Z"/><path class="d" d="M75.609,51.411A20.971,20.971,0,1,0,54.639,30.456,21,21,0,0,0,75.609,51.411Zm0-38.7A17.743,17.743,0,1,1,57.866,30.456,17.757,17.757,0,0,1,75.609,12.713Z"/><path class="d" d="M95,49.835A27.418,27.418,0,0,0,57.942,9.485H6.258A3.22,3.22,0,0,0,3.03,12.713V15.94a3.23,3.23,0,0,0,3.227,3.227V64.336A3.2,3.2,0,0,0,3.03,67.548v3.227A3.23,3.23,0,0,0,6.258,74h18.91L20.334,93.352h9.773L34.941,74h.348V93.352h9.682V74h.348l4.834,19.349h9.773L55.093,74H70.776V70.776H77.23V67.548H70.776V64.321h9.682V94.974a4.834,4.834,0,0,1-9.667,0V77.14H67.563V94.958a8.061,8.061,0,0,0,16.122,0V61.093H80.458V57.427A27.345,27.345,0,0,0,95,49.835ZM6.258,12.713H54.7a29.4,29.4,0,0,0-2.364,3.227H6.258ZM27.577,90.125H24.456l4.03-16.137h3.121Zm14.167,0H38.517V74h3.227Zm14.061,0H52.684L48.638,74H51.76ZM67.548,70.776H6.258V67.548h61.29Zm0-9.682v3.227H9.485V19.152H53.048l1.152-.015.455-.8a24.438,24.438,0,1,1-2.03,4.576l-3.061-1A27.391,27.391,0,0,0,70.791,57.427v3.667Zm9.682,0H74V57.821c.53.03,1.076.045,1.606.045.545,0,1.076-.045,1.621-.076Z"/><path class="c" d="M12.713,61.093h9.682V25.607H12.713ZM15.94,28.835h3.227V57.866H15.94Z"/><path class="c" d="M25.607,61.093h9.682V32.062H25.607Zm3.227-25.8h3.227V57.866H28.835V35.289Z"/><path class="c" d="M38.517,61.093H48.2V38.517H38.517Zm3.227-19.349h3.227V57.881H41.744Z"/></g></g></svg>