<svg xmlns="http://www.w3.org/2000/svg" xmlns:xlink="http://www.w3.org/1999/xlink" width="60" height="60" viewBox="0 0 60 60"><defs><style>.a,.c{fill:#fff;}.a{stroke:#707070;}.b{clip-path:url(#a);}</style><clipPath id="a"><rect class="a" width="60" height="60" transform="translate(432 3190)"/></clipPath></defs><g class="b" transform="translate(-432 -3190)"><g transform="translate(430.187 3188.278)"><path class="c" d="M28.731,43.233,27.915,50.3a1.827,1.827,0,0,0,.272,1,1.259,1.259,0,0,0,.906.453h4.985a1.115,1.115,0,0,0,.906-.453,1.023,1.023,0,0,0,.272-1l-.816-7.069a4.962,4.962,0,1,0-7.885-3.988A5.525,5.525,0,0,0,28.731,43.233Zm2.991-6.526a2.533,2.533,0,0,1,2.538,2.538,2.481,2.481,0,0,1-1.45,2.266,1.446,1.446,0,0,0-.725,1.269l.725,6.526H30.634l.725-6.526a1.165,1.165,0,0,0-.725-1.269,2.481,2.481,0,0,1-1.45-2.266A2.594,2.594,0,0,1,31.722,36.707Z"/><path class="c" d="M53.021,24.2H49.305V19.215a17.492,17.492,0,1,0-34.985,0V24.2H10.6a1.239,1.239,0,0,0-1.269,1.269V56.737a5.029,5.029,0,0,0,4.985,4.985H49.305a5.029,5.029,0,0,0,4.985-4.985V25.468A1.362,1.362,0,0,0,53.021,24.2ZM16.677,19.215a15.045,15.045,0,1,1,30.091,0V24.2H44.23V19.215a12.508,12.508,0,1,0-25.015,0V24.2H16.677V19.215Zm25.015,0V24.2H21.752V19.215a9.97,9.97,0,1,1,19.94,0Zm10.06,37.523a2.533,2.533,0,0,1-2.538,2.538H14.23a2.533,2.533,0,0,1-2.538-2.538v-30h40.06Z"/></g></g></svg>