<svg xmlns="http://www.w3.org/2000/svg" xmlns:xlink="http://www.w3.org/1999/xlink" width="100" height="100" viewBox="0 0 100 100">
  <defs>
    <clipPath id="clip-path">
      <rect id="Rectangle_2121" data-name="Rectangle 2121" width="100" height="100" transform="translate(-10601 -8502)" fill="#fff" stroke="#707070" stroke-width="1"/>
    </clipPath>
    <clipPath id="clip-path-2">
      <rect id="Rectangle_1858" data-name="Rectangle 1858" width="100" height="100" transform="translate(80.883)" fill="#fff" stroke="#707070" stroke-width="1.429"/>
    </clipPath>
  </defs>
  <g id="Mask_Group_206" data-name="Mask Group 206" transform="translate(10601 8502)" clip-path="url(#clip-path)">
    <g id="Mask_Group_61" data-name="Mask Group 61" transform="translate(-10681.883 -8502)" clip-path="url(#clip-path-2)">
      <g id="BatchPayment" transform="translate(77.463 -4.039)">
        <path id="Path_6677" data-name="Path 6677" d="M37.256,94.951a1.515,1.515,0,0,0,0,3.03h3.03a1.515,1.515,0,0,0,0-3.03Z" fill="#af650f"/>
        <path id="Path_6678" data-name="Path 6678" d="M49.831,94.951a1.515,1.515,0,0,0,0,3.03h7.16a1.515,1.515,0,1,0,0-3.03Z" fill="#af650f"/>
        <path id="Path_6679" data-name="Path 6679" d="M69.584,97.98a1.515,1.515,0,1,0,0-3.03h-3.03a1.515,1.515,0,0,0,0,3.03Z" fill="#af650f"/>
        <path id="Path_6680" data-name="Path 6680" d="M31.7,68.176a1.509,1.509,0,0,0,1.514,1.514H73.623a1.509,1.509,0,0,0,1.514-1.514V27.769a1.509,1.509,0,0,0-1.514-1.514H33.216A1.509,1.509,0,0,0,31.7,27.769Zm3.03-38.89H72.109V66.661H34.731Z" fill="#af650f"/>
        <path id="Path_6681" data-name="Path 6681" d="M53.411,46.466c-3,0-4.59-1.393-4.59-4.039a4.334,4.334,0,0,1,4.59-4.024,4.646,4.646,0,0,1,4.314,2.631,1.519,1.519,0,1,0,2.8-1.179,7.474,7.474,0,0,0-5.584-4.346V33.829a1.515,1.515,0,0,0-3.03,0v1.683a7.236,7.236,0,0,0-6.1,6.917c0,3.411,2,7.069,7.62,7.069,3.014,0,4.606,1.393,4.606,4.024a4.334,4.334,0,0,1-4.59,4.021,4.646,4.646,0,0,1-4.314-2.631,1.519,1.519,0,1,0-2.8,1.179A7.4,7.4,0,0,0,51.9,60.42v1.7a1.515,1.515,0,0,0,3.03,0v-1.69a7.223,7.223,0,0,0,6.12-6.916C61.047,50.107,59.043,46.466,53.411,46.466Z" fill="#af650f"/>
        <path id="Path_6682" data-name="Path 6682" d="M96.91,46.91l-7.634-7.634V11.613A7.581,7.581,0,0,0,81.7,4.041H53.419a1.531,1.531,0,0,0-1.071.444L38.2,18.629a1.519,1.519,0,0,0,1.071,2.586H67.561a1.51,1.51,0,0,0,1.056-2.586L57.069,7.069H81.7a4.544,4.544,0,0,1,4.544,4.544V36.246l-3.473-3.473a1.519,1.519,0,0,0-2.586,1.071V62.117a1.5,1.5,0,0,0,.933,1.393,1.523,1.523,0,0,0,.581.123,1.506,1.506,0,0,0,1.071-.444l3.473-3.474V88.893H63.51a1.515,1.515,0,0,0,0,3.03H86.246v4.544a4.544,4.544,0,0,1-4.544,4.544H25.143A4.544,4.544,0,0,1,20.6,96.467V91.921h32.83a1.531,1.531,0,0,0,1.071-.444L68.643,77.334a1.536,1.536,0,0,0,.337-1.653,1.5,1.5,0,0,0-1.393-.933H39.274a1.5,1.5,0,0,0-1.393.933,1.531,1.531,0,0,0,.321,1.653L49.754,88.886H20.571V59.714l3.473,3.473a1.506,1.506,0,0,0,1.071.444,1.523,1.523,0,0,0,.581-.123,1.5,1.5,0,0,0,.933-1.393V33.829a1.5,1.5,0,0,0-.933-1.393,1.531,1.531,0,0,0-1.653.321L20.571,36.23V11.613a4.544,4.544,0,0,1,4.544-4.544H43.3a1.515,1.515,0,1,0,0-3.03H25.143a7.581,7.581,0,0,0-7.571,7.571V39.274L9.93,46.91a1.506,1.506,0,0,0,0,2.143l7.634,7.634V96.466a7.581,7.581,0,0,0,7.571,7.571H81.7a7.581,7.581,0,0,0,7.571-7.571V56.686l7.634-7.634a1.506,1.506,0,0,0,0-2.141ZM63.893,18.176H42.931L53.411,7.7ZM42.931,77.769H63.907L53.429,88.25ZM13.127,47.98,23.607,37.5V58.476ZM83.216,58.46V37.484L93.7,47.964Z" fill="#3d6e72"/>
      </g>
    </g>
  </g>
</svg>
