<svg xmlns="http://www.w3.org/2000/svg" width="35" height="35.105" viewBox="0 0 35 35.105"><defs><style>.a{fill:#f89522;}</style></defs><path class="a" d="M27.284,16.923a.585.585,0,0,0,.428-.251L37.075,3.1l-.961-.674L27.151,15.419l-3.6-3.631a.582.582,0,0,0-.907.1L14.869,24.2l-3.581-4.127a.6.6,0,0,0-.479-.2.587.587,0,0,0-.449.261L2.168,32.528l.974.654L10.91,21.434l3.593,4.14a.591.591,0,0,0,.485.2.584.584,0,0,0,.449-.271l7.8-12.36,3.58,3.61a.566.566,0,0,0,.466.171Z" transform="translate(-2.075 -2.192)"/><path class="a" d="M11.867,50.657h-1.1V49h-1.1v1.657h-1.1A.552.552,0,0,0,8,51.21v4.42a.552.552,0,0,0,.552.552h3.315a.552.552,0,0,0,.552-.552V51.21A.552.552,0,0,0,11.867,50.657Zm-.552,4.42H9.1V51.762h2.21Z" transform="translate(-4.685 -21.077)"/><path class="a" d="M33.867,44.657h-1.1V43h-1.1v1.657h-1.1A.552.552,0,0,0,30,45.21v6.077a.552.552,0,0,0,.552.552h1.1V53.5h1.1V51.839h1.1a.552.552,0,0,0,.552-.552V45.21A.552.552,0,0,0,33.867,44.657Zm-.552,6.077H31.1V45.762h2.21Z" transform="translate(-13.477 -18.392)"/><path class="a" d="M44.867,33H41.552a.552.552,0,0,0-.552.552v4.42a.552.552,0,0,0,.552.552h1.1V44.6h1.1V38.524h1.1a.552.552,0,0,0,.552-.552v-4.42A.552.552,0,0,0,44.867,33Zm-.552,4.42H42.1V34.1h2.21Z" transform="translate(-17.985 -13.916)"/><path class="a" d="M55.867,19.657h-1.1V18h-1.1v1.657h-1.1A.552.552,0,0,0,52,20.21v4.42a.552.552,0,0,0,.552.552h1.1v1.657h1.1V25.182h1.1a.552.552,0,0,0,.552-.552V20.21A.552.552,0,0,0,55.867,19.657Zm-.552,4.42H53.1V20.762h2.21Z" transform="translate(-22.426 -8.449)"/><path class="a" d="M21.762,44h-1.1v1.657H19v1.1h1.657V48.42h1.1V46.762H23.42v-1.1H21.762Z" transform="translate(-8.968 -19.216)"/><path class="a" d="M2,2H5.315V3.1H2Z" transform="translate(-2 -2)"/><path class="a" d="M11,2h3.315V3.1H11Z" transform="translate(-5.702 -2)"/><path class="a" d="M20,2h3.315V3.1H20Z" transform="translate(-9.403 -2)"/><path class="a" d="M29,2h3.315V3.1H29Z" transform="translate(-13.105 -2)"/><path class="a" d="M38,2h3.315V3.1H38Z" transform="translate(-16.806 -2)"/><path class="a" d="M47,2h3.315V3.1H47Z" transform="translate(-20.188 -2)"/><path class="a" d="M2,7H5.315V8.1H2Z" transform="translate(-2 -4.238)"/><path class="a" d="M11,7h3.315V8.1H11Z" transform="translate(-5.702 -4.238)"/><path class="a" d="M20,7h3.315V8.1H20Z" transform="translate(-9.403 -4.238)"/><path class="a" d="M29,7h3.315V8.1H29Z" transform="translate(-13.105 -4.238)"/><path class="a" d="M38,7h3.315V8.1H38Z" transform="translate(-16.806 -4.238)"/><path class="a" d="M47,7h3.315V8.1H47Z" transform="translate(-20.188 -4.238)"/><path class="a" d="M2,12H5.315v1.1H2Z" transform="translate(-2 -6.476)"/><path class="a" d="M11,12h3.315v1.1H11Z" transform="translate(-5.702 -6.476)"/><path class="a" d="M20,12h3.315v1.1H20Z" transform="translate(-9.403 -6.476)"/><path class="a" d="M29,12h3.315v1.1H29Z" transform="translate(-13.105 -6.476)"/><path class="a" d="M38,12h3.315v1.1H38Z" transform="translate(-16.806 -6.476)"/><path class="a" d="M2,17H5.315v1.1H2Z" transform="translate(-2 -8.207)"/><path class="a" d="M11,17h3.315v1.1H11Z" transform="translate(-5.702 -8.207)"/><path class="a" d="M20,17h3.315v1.1H20Z" transform="translate(-9.403 -8.207)"/><path class="a" d="M29,17h3.315v1.1H29Z" transform="translate(-13.105 -8.207)"/><path class="a" d="M2,22H5.315v1.1H2Z" transform="translate(-2 -10.276)"/><path class="a" d="M11,22h3.315v1.1H11Z" transform="translate(-5.702 -10.276)"/><path class="a" d="M20,22h3.315v1.1H20Z" transform="translate(-9.403 -10.276)"/><path class="a" d="M2,27H5.315v1.1H2Z" transform="translate(-2 -12.345)"/><path class="a" d="M11,27h3.315v1.1H11Z" transform="translate(-5.702 -12.345)"/><path class="a" d="M20,27h3.315v1.1H20Z" transform="translate(-9.403 -12.345)"/><path class="a" d="M2,32H5.315v1.1H2Z" transform="translate(-2 -14.414)"/><path class="a" d="M2,37H5.315v1.1H2Z" transform="translate(-2 -16.483)"/></svg>