<svg xmlns="http://www.w3.org/2000/svg" xmlns:xlink="http://www.w3.org/1999/xlink" width="100" height="100" viewBox="0 0 100 100">
  <defs>
    <clipPath id="clip-path">
      <rect id="Rectangle_2098" data-name="Rectangle 2098" width="100" height="100" transform="translate(527.557 1332)" fill="#3d6e72" stroke="#707070" stroke-width="1"/>
    </clipPath>
  </defs>
  <g id="Mask_Group_185" data-name="Mask Group 185" transform="translate(-527.557 -1332)" clip-path="url(#clip-path)">
    <g id="_04_MultiCurrency_Account" data-name="04 MultiCurrency Account" transform="translate(522.463 1326.262)">
      <path id="Path_9924" data-name="Path 9924" d="M71.2,38.064c1.846,0,2.73.757,2.73,2.336a2.554,2.554,0,0,1-2.714,2.336,2.739,2.739,0,0,1-2.557-1.547,1.517,1.517,0,1,0-2.793,1.184,5.589,5.589,0,0,0,3.819,3.2v.8a1.515,1.515,0,1,0,3.03,0v-.8a5.434,5.434,0,0,0,4.245-5.145c0-3.251-2.257-5.366-5.76-5.366-1.846,0-2.714-.742-2.714-2.336A2.554,2.554,0,0,1,71.2,30.395a2.739,2.739,0,0,1,2.557,1.547,1.517,1.517,0,1,0,2.793-1.184,5.615,5.615,0,0,0-3.835-3.2v-.8a1.515,1.515,0,1,0-3.03,0v.821a5.433,5.433,0,0,0-4.229,5.145C65.461,35.95,67.717,38.064,71.2,38.064Z" fill="#af650f"/>
      <path id="Path_9925" data-name="Path 9925" d="M36.865,39.074A16.665,16.665,0,1,0,20.2,22.409,16.69,16.69,0,0,0,36.865,39.074Zm0-30.3A13.635,13.635,0,1,1,23.23,22.409,13.649,13.649,0,0,1,36.865,8.774Z" fill="#3d6e72"/>
      <path id="Path_9926" data-name="Path 9926" d="M36.865,23.924c1.831,0,2.73.757,2.73,2.336A2.554,2.554,0,0,1,36.881,28.6a2.739,2.739,0,0,1-2.557-1.547,1.517,1.517,0,1,0-2.793,1.184,5.589,5.589,0,0,0,3.819,3.2v.8a1.515,1.515,0,0,0,3.03,0V31.4a5.417,5.417,0,0,0,4.245-5.145c0-3.251-2.257-5.366-5.76-5.366-1.831,0-2.714-.757-2.714-2.336a2.554,2.554,0,0,1,2.714-2.336,2.739,2.739,0,0,1,2.557,1.547,1.517,1.517,0,0,0,2.793-1.184,5.615,5.615,0,0,0-3.835-3.2v-.789a1.515,1.515,0,1,0-3.03,0v.821a5.433,5.433,0,0,0-4.229,5.145C31.1,21.81,33.362,23.924,36.865,23.924Z" fill="#af650f"/>
      <path id="Path_9927" data-name="Path 9927" d="M104.74,96.108,93.5,63.014c-1.026-3.03-4.34-5.145-8.064-5.145H69.627c.032-.363.063-.742.063-1.12a16.624,16.624,0,0,0-.426-3.677A15.625,15.625,0,0,0,71.2,53.2,16.665,16.665,0,1,0,54.54,36.534,16.493,16.493,0,0,0,55,40.195a16.345,16.345,0,0,0-1.973-.126A16.69,16.69,0,0,0,36.36,56.734c0,.379.032.742.063,1.12H24.65c-3.724,0-7.054,2.115-8.064,5.16L5.445,96.108a6.476,6.476,0,0,0,.963,6,9.256,9.256,0,0,0,7.607,3.63H96.171a9.318,9.318,0,0,0,7.622-3.614A6.5,6.5,0,0,0,104.74,96.108ZM85.455,60.9c2.446,0,4.577,1.262,5.192,3.077l8.222,24.3V88.3h0a3.19,3.19,0,0,1-.5,2.967A5.875,5.875,0,0,1,93.6,93.441H87.933L80.705,60.9h4.75ZM71.2,22.914a13.635,13.635,0,1,1,0,27.27,13.267,13.267,0,0,1-3.077-.41,16.7,16.7,0,0,0-9.816-8.806A13.581,13.581,0,0,1,71.2,22.914Zm-18.18,20.2A13.635,13.635,0,1,1,39.39,56.749,13.659,13.659,0,0,1,53.025,43.114ZM36.9,60.9a16.65,16.65,0,0,0,32.257,0H77.6l7.228,32.541H25.36L32.588,60.9H36.9ZM11.331,88.28l8.127-24.287C20.074,62.178,22.2,60.9,24.65,60.9H29.5L22.267,93.441H16.6a5.875,5.875,0,0,1-4.766-2.178A3.17,3.17,0,0,1,11.331,88.28Zm90,12.057a6.365,6.365,0,0,1-5.16,2.351H14.014a6.365,6.365,0,0,1-5.16-2.351A3.537,3.537,0,0,1,8.3,97.07L9.595,93.3a8.877,8.877,0,0,0,6.991,3.14H93.6a8.927,8.927,0,0,0,6.991-3.14l1.294,3.756A3.549,3.549,0,0,1,101.331,100.337Z" fill="#3d6e72"/>
      <path id="Path_9928" data-name="Path 9928" d="M18.48,84.808a1.685,1.685,0,0,0,.395.047,1.53,1.53,0,0,0,1.468-1.12l3.409-12.562a1.512,1.512,0,1,0-2.92-.789L17.422,82.946A1.516,1.516,0,0,0,18.48,84.808Z" fill="#3d6e72"/>
      <path id="Path_9929" data-name="Path 9929" d="M90.395,84.729a1.5,1.5,0,0,0,.442,1.073,1.53,1.53,0,0,0,1.073.442,1.509,1.509,0,0,0,1.515-1.515,1.441,1.441,0,0,0-.442-1.073,1.564,1.564,0,0,0-2.146,0A1.5,1.5,0,0,0,90.395,84.729Z" fill="#3d6e72"/>
      <path id="Path_9930" data-name="Path 9930" d="M87.98,76.1a1.548,1.548,0,0,0,1.468,1.1,1.3,1.3,0,0,0,.41-.063A1.5,1.5,0,0,0,90.9,75.276,1.531,1.531,0,0,0,89.038,74.2,1.584,1.584,0,0,0,87.98,76.1Z" fill="#3d6e72"/>
      <path id="Path_9931" data-name="Path 9931" d="M88.5,66.676a1.5,1.5,0,0,0-.442-1.073,1.564,1.564,0,0,0-2.146,0,1.524,1.524,0,0,0,0,2.146,1.559,1.559,0,0,0,1.073.442,1.5,1.5,0,0,0,1.073-.442A1.53,1.53,0,0,0,88.5,66.676Z" fill="#3d6e72"/>
      <path id="Path_9932" data-name="Path 9932" d="M53.025,58.264c1.831,0,2.73.757,2.73,2.32a2.554,2.554,0,0,1-2.714,2.336,2.739,2.739,0,0,1-2.557-1.547,1.517,1.517,0,1,0-2.793,1.184,5.589,5.589,0,0,0,3.819,3.2v.8a1.515,1.515,0,0,0,3.03,0v-.8a5.417,5.417,0,0,0,4.245-5.145c0-3.251-2.257-5.366-5.76-5.366-1.846,0-2.714-.742-2.714-2.336a2.554,2.554,0,0,1,2.714-2.336,2.739,2.739,0,0,1,2.557,1.547,1.517,1.517,0,1,0,2.793-1.184,5.615,5.615,0,0,0-3.835-3.2v-.8a1.515,1.515,0,0,0-3.03,0v.821A5.433,5.433,0,0,0,47.281,52.9C47.265,56.165,49.521,58.264,53.025,58.264Z" fill="#af650f"/>
    </g>
  </g>
</svg>
