<svg xmlns="http://www.w3.org/2000/svg" width="24.444" height="24.272" viewBox="0 0 24.444 24.272"><defs><style>.a{fill:#fff;}.b{fill:none;stroke:#fff;stroke-linecap:round;stroke-linejoin:round;stroke-width:1.347px;}</style></defs><g transform="translate(-136.61 -134.759)"><path class="a" d="M138.732,136.131l-1.125,1.846s-4.275,5.863,4.885,15.087h0l.044.042.042.044h0c9.224,9.16,15.087,4.885,15.087,4.885l1.846-1.125a2.176,2.176,0,0,0,.233-3.28l-2.2-2.2a2.176,2.176,0,0,0-2.845-.2l-2.343,1.5s-1.575.93-5.979-3.457c-4.387-4.4-3.457-5.979-3.457-5.979l1.5-2.343a2.177,2.177,0,0,0-.2-2.845l-2.2-2.2A2.176,2.176,0,0,0,138.732,136.131Z"/><g transform="translate(146.7 135.433)"><path class="b" d="M157.585,143.677a3.511,3.511,0,0,1,4.966,4.966" transform="translate(-154.401 -138.146)"/><path class="b" d="M155.093,140.806a5.742,5.742,0,1,1,8.12,8.12" transform="translate(-153.486 -136.852)"/><path class="b" d="M152.554,137.881a8.014,8.014,0,0,1,11.333,11.333" transform="translate(-152.554 -135.533)"/></g></g></svg>