<svg xmlns="http://www.w3.org/2000/svg" xmlns:xlink="http://www.w3.org/1999/xlink" width="70" height="70" viewBox="0 0 70 70"><defs><style>.a,.c{fill:#f89522;}.a{stroke:#707070;}.b{clip-path:url(#a);}</style><clipPath id="a"><rect class="a" width="70" height="70" transform="translate(41)"/></clipPath></defs><g class="b" transform="translate(-41)"><g transform="translate(35.928 -5.083)"><path class="c" d="M57.005,42.327A14.672,14.672,0,1,0,71.671,57.005,14.666,14.666,0,0,0,57.005,42.327Zm0,27.089A12.411,12.411,0,1,1,69.416,57.005,12.406,12.406,0,0,1,57.005,69.416Z"/><path class="c" d="M73.927,14.117a1.133,1.133,0,1,0,0-2.267H72.793V9.594h1.133a1.133,1.133,0,1,0,0-2.267H72.793V6.217a1.133,1.133,0,1,0-2.267,0V7.35H66.016a1.126,1.126,0,0,0-.8.332L47.5,25.394H27.661a1.126,1.126,0,0,0-.8.332L8.8,43.793a1.176,1.176,0,0,0-.332.8V69.427H6.217a1.133,1.133,0,0,0,0,2.267H46.483A18.051,18.051,0,0,0,72.77,48.235a.857.857,0,0,0,.023-.24V41.228h1.133a1.133,1.133,0,0,0,0-2.267H72.793V36.706h1.133a1.133,1.133,0,0,0,0-2.267H72.793V32.172h1.133a1.133,1.133,0,0,0,0-2.267H72.793V27.65h1.133a1.133,1.133,0,1,0,0-2.267H72.793V23.127h1.133a1.133,1.133,0,0,0,0-2.267H72.793V18.6h1.133a1.133,1.133,0,0,0,0-2.267H72.793V14.082h1.133Zm-63.2,30.935L28.119,27.661H47.972a1.126,1.126,0,0,0,.8-.332L66.5,9.594h4.053v7.9H66.038a1.126,1.126,0,0,0-.8.332L47.5,35.561H27.661a1.126,1.126,0,0,0-.8.332L10.728,52.025Zm0,10.155L28.119,37.816H47.972a1.126,1.126,0,0,0,.8-.332L66.5,19.761h4.053v7.9H66.038a1.126,1.126,0,0,0-.8.332l-11.2,11.2a18.1,18.1,0,0,0-11.209,6.64,1.039,1.039,0,0,0-.492-.114H27.661a1.126,1.126,0,0,0-.8.332L10.728,62.18ZM70.549,29.917V45.075A18.019,18.019,0,0,0,57.463,38.95L66.5,29.917h4.053Zm-59.822,39.5V65.363L28.119,47.972H41.366A18.019,18.019,0,0,0,43.9,69.416ZM72.8,57.005a15.8,15.8,0,1,1-15.8-15.8A15.8,15.8,0,0,1,72.8,57.005Z"/><path class="c" d="M45.43,72.8h-3.1a1.133,1.133,0,1,0,0,2.267h3.1a1.133,1.133,0,0,0,0-2.267Z"/><path class="c" d="M36.683,72.8h-3.1a1.133,1.133,0,1,0,0,2.267h3.1a1.133,1.133,0,1,0,0-2.267Z"/><path class="c" d="M27.661,72.8h-3.1a1.133,1.133,0,0,0,0,2.267h3.1a1.133,1.133,0,0,0,0-2.267Z"/><path class="c" d="M18.628,72.8h-3.1a1.133,1.133,0,1,0,0,2.267h3.1a1.133,1.133,0,1,0,0-2.267Z"/><path class="c" d="M9.594,72.8h-3.1a1.133,1.133,0,0,0,0,2.267h3.1a1.133,1.133,0,0,0,0-2.267Z"/><path class="c" d="M8.472,12.983h15.8a1.133,1.133,0,1,0,0-2.267H8.472a1.133,1.133,0,1,0,0,2.267Z"/><path class="c" d="M8.472,9.594h15.8a1.133,1.133,0,1,0,0-2.267H8.472a1.133,1.133,0,1,0,0,2.267Z"/><path class="c" d="M8.472,16.372h15.8a1.133,1.133,0,1,0,0-2.267H8.472a1.133,1.133,0,1,0,0,2.267Z"/><path class="c" d="M8.472,19.761h6.766a1.133,1.133,0,0,0,0-2.267H8.472a1.133,1.133,0,1,0,0,2.267Z"/><path class="c" d="M18.628,17.494a1.133,1.133,0,1,0,0,2.267h1.133a1.133,1.133,0,1,0,0-2.267Z"/><path class="c" d="M57.005,63.039a2.424,2.424,0,0,1-2.416-2.416H52.174a4.827,4.827,0,0,0,3.618,4.66V67.87h2.416V65.283a4.822,4.822,0,0,0-1.214-9.491,2.416,2.416,0,1,1,2.416-2.416h2.416a4.827,4.827,0,0,0-3.618-4.66V46.128H55.791v2.587a4.822,4.822,0,0,0,1.214,9.491,2.416,2.416,0,1,1,0,4.832Z"/></g></g></svg>