<svg xmlns="http://www.w3.org/2000/svg" xmlns:xlink="http://www.w3.org/1999/xlink" width="100" height="100" viewBox="0 0 100 100"><defs><style>.a,.c{fill:#3d6e72;}.a{stroke:#707070;}.b{clip-path:url(#a);}.d{fill:#af650f;}</style><clipPath id="a"><rect class="a" width="100" height="100" transform="translate(527.556 1332)"/></clipPath></defs><g class="b" transform="translate(-527.556 -1332)"><g transform="translate(526.339 1330.188)"><path class="c" d="M31.6,75.077a5.165,5.165,0,0,1-3.183-9.242l1.408,1.79a2.891,2.891,0,0,0,3.3,4.738l2.112-1.306,1.188,1.936L34.311,74.3A5.129,5.129,0,0,1,31.6,75.077Z"/><path class="c" d="M27.343,68.2A5.161,5.161,0,0,1,23.163,60l1.848,1.335a2.882,2.882,0,0,0,3.55,4.313l.953,2.068A5.142,5.142,0,0,1,27.343,68.2Z"/><path class="c" d="M38.873,80.079a5.167,5.167,0,0,1-3.741-8.743l1.643,1.57a2.881,2.881,0,0,0-.381,3.506,2.938,2.938,0,0,0,1.79,1.306,2.865,2.865,0,0,0,2.186-.352l2.538-1.57L44.1,77.732,41.558,79.3A4.959,4.959,0,0,1,38.873,80.079Z"/><path class="c" d="M46.149,85.081a5.16,5.16,0,0,1-3.3-9.139L44.3,77.7a2.891,2.891,0,0,0-.616,3.726,2.938,2.938,0,0,0,1.79,1.306,2.865,2.865,0,0,0,2.186-.352l2.963-1.819L51.812,82.5l-2.963,1.819A5.159,5.159,0,0,1,46.149,85.081Z"/><rect class="d" width="2.274" height="14.816" transform="translate(56.691 57.786) rotate(-58.406)"/><rect class="d" width="2.274" height="15.622" transform="translate(60.236 50.497) rotate(-58.411)"/><path class="d" d="M72.011,66.319a5.158,5.158,0,0,1-2.7-.763L70.5,63.62a2.9,2.9,0,0,0,3.037-4.944l1.188-1.936a5.173,5.173,0,0,1-2.714,9.579Z"/><path class="d" d="M63.562,80.079a5.219,5.219,0,0,1-2.7-.763l-3.051-1.878L59,75.5l3.051,1.878a2.878,2.878,0,0,0,3.975-.953,2.9,2.9,0,0,0-.953-3.99L66.261,70.5a5.174,5.174,0,0,1,1.7,7.115,5.085,5.085,0,0,1-3.213,2.318A4.627,4.627,0,0,1,63.562,80.079Z"/><path class="d" d="M10.019,54a5,5,0,0,1-2.611-.733L1.218,49.45,20.229,18.542l6.19,3.814a5,5,0,0,1,1.643,6.865l-13.789,22.4A5,5,0,0,1,10.019,54ZM8.6,51.313a2.72,2.72,0,0,0,3.741-.895l13.774-22.4a2.733,2.733,0,0,0-.895-3.741l-4.254-2.611L4.342,48.7Z"/><path class="d" d="M56.271,85.067a5.159,5.159,0,0,1-2.7-.763L34.649,72.671a32.094,32.094,0,0,1-8.332-7.393l-5.794-7.291-9.3-5.721L27.255,26.2l6.264,3.843A10.547,10.547,0,0,0,39.842,31.6l6.528-.44a16.9,16.9,0,0,1,5.75.6l-.616,2.2a14.594,14.594,0,0,0-4.973-.513L40,33.886a12.9,12.9,0,0,1-7.657-1.892l-4.313-2.655L14.39,51.518l7.833,4.9L28.15,63.87A29.833,29.833,0,0,0,35.9,70.735L54.819,82.368a2.9,2.9,0,0,0,3.99-.953,2.878,2.878,0,0,0-.953-3.975l-9.55-5.882,1.188-1.936,9.55,5.882a5.174,5.174,0,0,1,1.7,7.115A5.323,5.323,0,0,1,56.271,85.067Z"/><path class="c" d="M92.416,54.012a5.331,5.331,0,0,1-1.174-.132,4.962,4.962,0,0,1-3.1-2.244L74.373,29.221a5,5,0,0,1,1.643-6.865l6.19-3.814L101.218,49.45l-6.19,3.814A4.938,4.938,0,0,1,92.416,54.012ZM81.458,21.681,77.2,24.292a2.73,2.73,0,0,0-.895,3.741l13.774,22.4a2.73,2.73,0,0,0,3.741.895l4.254-2.611Z"/><path class="c" d="M73.478,68.182l-1.6-1.628a29.373,29.373,0,0,0,2.45-2.684l6.22-7.716,8.508-5.237,1.188,1.936-8.332,5.134-5.794,7.291A30.01,30.01,0,0,1,73.478,68.182Z"/><path class="c" d="M32.434,55.039a8.545,8.545,0,0,1-7.291-4.078l-1.98-3.227,22.9-14.082A16.893,16.893,0,0,1,56.1,31.172l6.528.44a10.663,10.663,0,0,0,6.322-1.57L75.209,26.2,90.641,51.3a1.142,1.142,0,1,1-1.951,1.188L74.446,29.338l-4.313,2.655a12.793,12.793,0,0,1-7.657,1.892l-6.528-.44a14.657,14.657,0,0,0-8.7,2.156L26.287,48.5l.792,1.291A6.284,6.284,0,0,0,30.967,52.6a6.182,6.182,0,0,0,4.738-.763L42.761,47.5a6.241,6.241,0,0,1,6.1-.264l2.567,1.291a9.736,9.736,0,0,0,9.535-.411l5.266-3.242a1.142,1.142,0,1,1,1.188,1.951l-5.266,3.242a11.948,11.948,0,0,1-11.75.5l-2.567-1.291a3.989,3.989,0,0,0-3.887.161l-7.056,4.342A8.519,8.519,0,0,1,32.434,55.039Z"/><path class="d" d="M68.887,73.874a5.159,5.159,0,0,1-2.7-.763L52.472,64.677,53.66,62.74l13.716,8.435a2.9,2.9,0,0,0,3.99-.953,2.878,2.878,0,0,0-.953-3.975l-1.1-.675L70.5,63.635l1.1.675a5.184,5.184,0,0,1,1.687,7.129A5.2,5.2,0,0,1,68.887,73.874Z"/></g></g></svg>