<svg xmlns="http://www.w3.org/2000/svg" xmlns:xlink="http://www.w3.org/1999/xlink" width="140" height="70" viewBox="0 0 140 70">
  <defs>
    <clipPath id="clip-path">
      <rect id="Rectangle_2555" data-name="Rectangle 2555" width="140" height="70" transform="translate(10)" fill="#393939" stroke="#707070" stroke-width="1"/>
    </clipPath>
  </defs>
  <g id="Mask_Group_2887" data-name="Mask Group 2887" transform="translate(-10)" clip-path="url(#clip-path)">
    <g id="Annual_Report" data-name="Annual Report" transform="translate(40 -5)">
      <g id="_72_annual" data-name="72 annual">
        <path id="Path_16394" data-name="Path 16394" d="M13.75,61.25h-5V28.75A6.25,6.25,0,0,1,15,22.5h3.75v5H15a1.25,1.25,0,0,0-1.25,1.25Zm52.5-32.5v32.5h5V28.75A6.25,6.25,0,0,0,65,22.5H61.25v5H65A1.25,1.25,0,0,1,66.25,28.75Zm-33.75,40A1.25,1.25,0,0,0,33.75,70h12.5a1.25,1.25,0,0,0,1.25-1.25V67.5h-15Zm42.5-5v5A6.25,6.25,0,0,1,68.75,75H11.25A6.25,6.25,0,0,1,5,68.75v-5A1.25,1.25,0,0,1,6.25,62.5h67.5A1.25,1.25,0,0,1,75,63.75Zm-25,2.5A1.25,1.25,0,0,0,48.75,65H31.25A1.25,1.25,0,0,0,30,66.25v2.5a3.75,3.75,0,0,0,3.75,3.75h12.5A3.75,3.75,0,0,0,50,68.75ZM20,52.5V6.25A1.25,1.25,0,0,1,21.25,5h37.5A1.25,1.25,0,0,1,60,6.25V52.5h1.25V55H18.75V52.5Zm2.5,0h35V7.5h-35ZM18.75,60h2.5V57.5h-2.5Zm7.5,0V57.5h-2.5V60Zm5,0V57.5h-2.5V60Zm5,0V57.5h-2.5V60Zm5,0V57.5h-2.5V60Zm5,0V57.5h-2.5V60Zm5,0V57.5h-2.5V60Zm5,0V57.5h-2.5V60Zm2.5,0h2.5V57.5h-2.5ZM31.25,28.75A3.75,3.75,0,0,0,35,25a3.663,3.663,0,0,0-.95-2.5l2.825-5a3.75,3.75,0,0,0,.525,0l4.062,10.813a3.75,3.75,0,1,0,5.113.5l1.512-2.563a3.837,3.837,0,0,0,.662,0A3.7,3.7,0,1,0,45.925,25l-1.513,2.625a4.275,4.275,0,0,0-.575,0l-4.062-10.8A3.75,3.75,0,1,0,33.75,13.75a3.662,3.662,0,0,0,.95,2.5l-2.825,5.063a3.537,3.537,0,0,0-.625-.062,3.75,3.75,0,0,0,0,7.5Zm5,8.75h-10A1.25,1.25,0,0,0,25,38.75v5A1.25,1.25,0,0,0,26.25,45h10a1.25,1.25,0,0,0,1.25-1.25v-5A1.25,1.25,0,0,0,36.25,37.5Zm12.5,0H40V40h8.75ZM46.25,45H55V42.5H46.25ZM40,50h8.75V47.5H40ZM51.25,40H55V37.5H51.25ZM40,45h3.75V42.5H40Zm11.25,5H55V47.5H51.25ZM25,50H37.5V47.5H25Z" fill="#393939"/>
      </g>
    </g>
  </g>
</svg>
